G04 #@! TF.GenerationSoftware,KiCad,Pcbnew,(5.1.9)-1*
G04 #@! TF.CreationDate,2021-05-02T01:08:58+02:00*
G04 #@! TF.ProjectId,atmega32,61746d65-6761-4333-922e-6b696361645f,rev?*
G04 #@! TF.SameCoordinates,Original*
G04 #@! TF.FileFunction,Copper,L3,Inr*
G04 #@! TF.FilePolarity,Positive*
%FSLAX46Y46*%
G04 Gerber Fmt 4.6, Leading zero omitted, Abs format (unit mm)*
G04 Created by KiCad (PCBNEW (5.1.9)-1) date 2021-05-02 01:08:58*
%MOMM*%
%LPD*%
G01*
G04 APERTURE LIST*
G04 #@! TA.AperFunction,ComponentPad*
%ADD10C,1.500000*%
G04 #@! TD*
G04 #@! TA.AperFunction,ComponentPad*
%ADD11R,1.050000X1.050000*%
G04 #@! TD*
G04 #@! TA.AperFunction,ComponentPad*
%ADD12C,1.050000*%
G04 #@! TD*
G04 #@! TA.AperFunction,ComponentPad*
%ADD13C,1.000000*%
G04 #@! TD*
G04 #@! TA.AperFunction,ComponentPad*
%ADD14C,0.800000*%
G04 #@! TD*
G04 #@! TA.AperFunction,ComponentPad*
%ADD15C,6.400000*%
G04 #@! TD*
G04 #@! TA.AperFunction,ComponentPad*
%ADD16O,1.200000X1.900000*%
G04 #@! TD*
G04 #@! TA.AperFunction,ComponentPad*
%ADD17C,1.450000*%
G04 #@! TD*
G04 #@! TA.AperFunction,ViaPad*
%ADD18C,0.800000*%
G04 #@! TD*
G04 #@! TA.AperFunction,Conductor*
%ADD19C,0.254000*%
G04 #@! TD*
G04 #@! TA.AperFunction,Conductor*
%ADD20C,0.100000*%
G04 #@! TD*
G04 APERTURE END LIST*
D10*
X147610000Y-102310000D03*
X147610000Y-95810000D03*
X152110000Y-102310000D03*
X152110000Y-95810000D03*
D11*
X121920000Y-127000000D03*
D12*
X123420000Y-127000000D03*
D11*
X142490000Y-127880000D03*
D12*
X143990000Y-127880000D03*
D13*
X136144000Y-107188000D03*
X134874000Y-107188000D03*
X136144000Y-105918000D03*
X134874000Y-105918000D03*
X136144000Y-104648000D03*
X134874000Y-104648000D03*
X136144000Y-103378000D03*
X134874000Y-103378000D03*
X136144000Y-102108000D03*
X134874000Y-102108000D03*
X136144000Y-100838000D03*
X134874000Y-100838000D03*
X136144000Y-99568000D03*
X134874000Y-99568000D03*
X136144000Y-98298000D03*
X134874000Y-98298000D03*
D14*
X166797056Y-145368944D03*
X165100000Y-144666000D03*
X163402944Y-145368944D03*
X162700000Y-147066000D03*
X163402944Y-148763056D03*
X165100000Y-149466000D03*
X166797056Y-148763056D03*
X167500000Y-147066000D03*
D15*
X165100000Y-147066000D03*
D14*
X166797056Y-95368944D03*
X165100000Y-94666000D03*
X163402944Y-95368944D03*
X162700000Y-97066000D03*
X163402944Y-98763056D03*
X165100000Y-99466000D03*
X166797056Y-98763056D03*
X167500000Y-97066000D03*
D15*
X165100000Y-97066000D03*
D14*
X104313056Y-145368944D03*
X102616000Y-144666000D03*
X100918944Y-145368944D03*
X100216000Y-147066000D03*
X100918944Y-148763056D03*
X102616000Y-149466000D03*
X104313056Y-148763056D03*
X105016000Y-147066000D03*
D15*
X102616000Y-147066000D03*
D14*
X104313056Y-95368944D03*
X102616000Y-94666000D03*
X100918944Y-95368944D03*
X100216000Y-97066000D03*
X100918944Y-98763056D03*
X102616000Y-99466000D03*
X104313056Y-98763056D03*
X105016000Y-97066000D03*
D15*
X102616000Y-97066000D03*
D16*
X137358000Y-151544000D03*
X130358000Y-151544000D03*
D17*
X136358000Y-148844000D03*
X131358000Y-148844000D03*
D18*
X107188000Y-137922000D03*
X105156000Y-120650000D03*
X104394000Y-120142000D03*
X104394000Y-114300000D03*
X141540000Y-138470000D03*
X155480000Y-134500000D03*
X130810000Y-140716000D03*
X130810000Y-142494000D03*
X129540000Y-139700000D03*
X138463950Y-133338000D03*
X137922000Y-131826000D03*
X139780000Y-121710000D03*
X132311669Y-115592331D03*
X139192000Y-114046000D03*
X133096000Y-101092000D03*
X129286000Y-97282000D03*
X125984000Y-113030000D03*
X129032000Y-109982000D03*
X120142000Y-123698000D03*
X107696000Y-110236000D03*
X117094000Y-129794000D03*
X116078000Y-127508000D03*
X117094000Y-127254000D03*
X106680000Y-110236000D03*
X115570000Y-129794000D03*
X136144000Y-146304000D03*
X135450000Y-144460000D03*
X136730000Y-144380000D03*
X143820000Y-134690000D03*
X142230000Y-121720000D03*
X143690000Y-121650000D03*
X145820000Y-121610000D03*
X143480000Y-118460000D03*
X116586000Y-120650000D03*
X111061202Y-121150000D03*
X112706932Y-119610001D03*
X124714000Y-121158000D03*
X117094000Y-135636000D03*
X143510000Y-110236000D03*
X137264669Y-101749331D03*
X134620000Y-108204000D03*
X138706331Y-108689669D03*
X132842000Y-113792000D03*
X130556000Y-115316000D03*
X113284000Y-118618000D03*
X129794000Y-110744000D03*
X139954000Y-109728000D03*
X134515331Y-115674669D03*
X115316000Y-123649998D03*
X131064000Y-123698000D03*
X132080000Y-117856000D03*
X120396000Y-119380000D03*
X140992331Y-110975669D03*
X135382000Y-116332000D03*
X115570000Y-119380000D03*
X121412000Y-114796000D03*
X120106108Y-116367892D03*
X131064000Y-105664000D03*
X112014000Y-118110000D03*
X138706331Y-104879669D03*
X134112000Y-109220000D03*
X131826000Y-109220000D03*
X120396000Y-105918000D03*
X132842000Y-107950000D03*
X126215669Y-115084331D03*
X125270000Y-142187500D03*
X125270000Y-145882500D03*
X125270000Y-147730000D03*
X126730000Y-147750000D03*
X125270000Y-144035000D03*
X125270000Y-140340000D03*
X145780000Y-118680000D03*
X111760000Y-120396000D03*
X111760000Y-121920000D03*
X116332000Y-122428000D03*
X143256000Y-108712000D03*
D19*
X165968771Y-91664032D02*
X166815200Y-91871935D01*
X167617490Y-92212487D01*
X168355015Y-92676932D01*
X169008794Y-93253317D01*
X169562017Y-93926819D01*
X170000437Y-94680101D01*
X170312784Y-95493791D01*
X170492204Y-96352627D01*
X170536000Y-97048747D01*
X170536001Y-147039479D01*
X170463968Y-147934775D01*
X170256065Y-148781199D01*
X169915513Y-149583491D01*
X169451068Y-150321015D01*
X168874680Y-150974798D01*
X168201182Y-151528016D01*
X167447899Y-151966437D01*
X166634209Y-152278784D01*
X165775373Y-152458204D01*
X165079253Y-152502000D01*
X138433368Y-152502000D01*
X138504511Y-152368901D01*
X138575130Y-152136101D01*
X138593000Y-151954664D01*
X138593000Y-151133335D01*
X138575130Y-150951898D01*
X138504511Y-150719099D01*
X138389833Y-150504551D01*
X138235502Y-150316498D01*
X138047448Y-150162167D01*
X137832900Y-150047489D01*
X137600101Y-149976870D01*
X137358000Y-149953025D01*
X137115898Y-149976870D01*
X137105965Y-149979883D01*
X137224949Y-149900381D01*
X137414381Y-149710949D01*
X137563216Y-149488201D01*
X137665736Y-149240697D01*
X137718000Y-148977948D01*
X137718000Y-148710052D01*
X137665736Y-148447303D01*
X137563216Y-148199799D01*
X137414381Y-147977051D01*
X137224949Y-147787619D01*
X137002201Y-147638784D01*
X136754697Y-147536264D01*
X136491948Y-147484000D01*
X136224052Y-147484000D01*
X135961303Y-147536264D01*
X135713799Y-147638784D01*
X135491051Y-147787619D01*
X135301619Y-147977051D01*
X135152784Y-148199799D01*
X135050264Y-148447303D01*
X134998000Y-148710052D01*
X134998000Y-148977948D01*
X135050264Y-149240697D01*
X135152784Y-149488201D01*
X135301619Y-149710949D01*
X135491051Y-149900381D01*
X135713799Y-150049216D01*
X135961303Y-150151736D01*
X136224052Y-150204000D01*
X136491948Y-150204000D01*
X136657768Y-150171016D01*
X136480498Y-150316498D01*
X136326167Y-150504552D01*
X136211489Y-150719100D01*
X136140870Y-150951899D01*
X136123000Y-151133336D01*
X136123000Y-151954665D01*
X136140870Y-152136102D01*
X136211489Y-152368901D01*
X136282632Y-152502000D01*
X131433368Y-152502000D01*
X131504511Y-152368901D01*
X131575130Y-152136102D01*
X131593000Y-151954665D01*
X131593000Y-151133336D01*
X131575130Y-150951899D01*
X131504511Y-150719099D01*
X131389833Y-150504551D01*
X131235502Y-150316498D01*
X131058232Y-150171016D01*
X131224052Y-150204000D01*
X131491948Y-150204000D01*
X131754697Y-150151736D01*
X132002201Y-150049216D01*
X132224949Y-149900381D01*
X132414381Y-149710949D01*
X132563216Y-149488201D01*
X132665736Y-149240697D01*
X132718000Y-148977948D01*
X132718000Y-148710052D01*
X132665736Y-148447303D01*
X132563216Y-148199799D01*
X132414381Y-147977051D01*
X132224949Y-147787619D01*
X132002201Y-147638784D01*
X131754697Y-147536264D01*
X131491948Y-147484000D01*
X131224052Y-147484000D01*
X130961303Y-147536264D01*
X130713799Y-147638784D01*
X130491051Y-147787619D01*
X130301619Y-147977051D01*
X130152784Y-148199799D01*
X130050264Y-148447303D01*
X129998000Y-148710052D01*
X129998000Y-148977948D01*
X130050264Y-149240697D01*
X130152784Y-149488201D01*
X130301619Y-149710949D01*
X130491051Y-149900381D01*
X130610035Y-149979883D01*
X130600102Y-149976870D01*
X130358000Y-149953025D01*
X130115899Y-149976870D01*
X129883100Y-150047489D01*
X129668552Y-150162167D01*
X129480499Y-150316498D01*
X129326168Y-150504551D01*
X129211489Y-150719099D01*
X129140870Y-150951898D01*
X129123000Y-151133335D01*
X129123000Y-151954664D01*
X129140870Y-152136101D01*
X129211489Y-152368900D01*
X129282632Y-152502000D01*
X102642508Y-152502000D01*
X101747225Y-152429968D01*
X100900801Y-152222065D01*
X100098509Y-151881513D01*
X99360985Y-151417068D01*
X98707202Y-150840680D01*
X98153984Y-150167182D01*
X97715563Y-149413899D01*
X97403216Y-148600209D01*
X97223796Y-147741373D01*
X97180000Y-147045253D01*
X97180000Y-146688285D01*
X98781000Y-146688285D01*
X98781000Y-147443715D01*
X98928377Y-148184628D01*
X99217467Y-148882554D01*
X99637161Y-149510670D01*
X100171330Y-150044839D01*
X100799446Y-150464533D01*
X101497372Y-150753623D01*
X102238285Y-150901000D01*
X102993715Y-150901000D01*
X103734628Y-150753623D01*
X104432554Y-150464533D01*
X105060670Y-150044839D01*
X105594839Y-149510670D01*
X106014533Y-148882554D01*
X106303623Y-148184628D01*
X106451000Y-147443715D01*
X106451000Y-146688285D01*
X106303623Y-145947372D01*
X106014533Y-145249446D01*
X105594839Y-144621330D01*
X105331570Y-144358061D01*
X134415000Y-144358061D01*
X134415000Y-144561939D01*
X134454774Y-144761898D01*
X134532795Y-144950256D01*
X134646063Y-145119774D01*
X134790226Y-145263937D01*
X134959744Y-145377205D01*
X135148102Y-145455226D01*
X135348061Y-145495000D01*
X135491803Y-145495000D01*
X135484226Y-145500063D01*
X135340063Y-145644226D01*
X135226795Y-145813744D01*
X135148774Y-146002102D01*
X135109000Y-146202061D01*
X135109000Y-146405939D01*
X135148774Y-146605898D01*
X135226795Y-146794256D01*
X135340063Y-146963774D01*
X135484226Y-147107937D01*
X135653744Y-147221205D01*
X135842102Y-147299226D01*
X136042061Y-147339000D01*
X136245939Y-147339000D01*
X136445898Y-147299226D01*
X136634256Y-147221205D01*
X136803774Y-147107937D01*
X136947937Y-146963774D01*
X137061205Y-146794256D01*
X137105099Y-146688285D01*
X161265000Y-146688285D01*
X161265000Y-147443715D01*
X161412377Y-148184628D01*
X161701467Y-148882554D01*
X162121161Y-149510670D01*
X162655330Y-150044839D01*
X163283446Y-150464533D01*
X163981372Y-150753623D01*
X164722285Y-150901000D01*
X165477715Y-150901000D01*
X166218628Y-150753623D01*
X166916554Y-150464533D01*
X167544670Y-150044839D01*
X168078839Y-149510670D01*
X168498533Y-148882554D01*
X168787623Y-148184628D01*
X168935000Y-147443715D01*
X168935000Y-146688285D01*
X168787623Y-145947372D01*
X168498533Y-145249446D01*
X168078839Y-144621330D01*
X167544670Y-144087161D01*
X166916554Y-143667467D01*
X166218628Y-143378377D01*
X165477715Y-143231000D01*
X164722285Y-143231000D01*
X163981372Y-143378377D01*
X163283446Y-143667467D01*
X162655330Y-144087161D01*
X162121161Y-144621330D01*
X161701467Y-145249446D01*
X161412377Y-145947372D01*
X161265000Y-146688285D01*
X137105099Y-146688285D01*
X137139226Y-146605898D01*
X137179000Y-146405939D01*
X137179000Y-146202061D01*
X137139226Y-146002102D01*
X137061205Y-145813744D01*
X136947937Y-145644226D01*
X136803774Y-145500063D01*
X136676468Y-145415000D01*
X136831939Y-145415000D01*
X137031898Y-145375226D01*
X137220256Y-145297205D01*
X137389774Y-145183937D01*
X137533937Y-145039774D01*
X137647205Y-144870256D01*
X137725226Y-144681898D01*
X137765000Y-144481939D01*
X137765000Y-144278061D01*
X137725226Y-144078102D01*
X137647205Y-143889744D01*
X137533937Y-143720226D01*
X137389774Y-143576063D01*
X137220256Y-143462795D01*
X137031898Y-143384774D01*
X136831939Y-143345000D01*
X136628061Y-143345000D01*
X136428102Y-143384774D01*
X136239744Y-143462795D01*
X136070226Y-143576063D01*
X136038110Y-143608179D01*
X135940256Y-143542795D01*
X135751898Y-143464774D01*
X135551939Y-143425000D01*
X135348061Y-143425000D01*
X135148102Y-143464774D01*
X134959744Y-143542795D01*
X134790226Y-143656063D01*
X134646063Y-143800226D01*
X134532795Y-143969744D01*
X134454774Y-144158102D01*
X134415000Y-144358061D01*
X105331570Y-144358061D01*
X105060670Y-144087161D01*
X104432554Y-143667467D01*
X103734628Y-143378377D01*
X102993715Y-143231000D01*
X102238285Y-143231000D01*
X101497372Y-143378377D01*
X100799446Y-143667467D01*
X100171330Y-144087161D01*
X99637161Y-144621330D01*
X99217467Y-145249446D01*
X98928377Y-145947372D01*
X98781000Y-146688285D01*
X97180000Y-146688285D01*
X97180000Y-139598061D01*
X128505000Y-139598061D01*
X128505000Y-139801939D01*
X128544774Y-140001898D01*
X128622795Y-140190256D01*
X128736063Y-140359774D01*
X128880226Y-140503937D01*
X129049744Y-140617205D01*
X129238102Y-140695226D01*
X129438061Y-140735000D01*
X129641939Y-140735000D01*
X129775000Y-140708533D01*
X129775000Y-140817939D01*
X129814774Y-141017898D01*
X129892795Y-141206256D01*
X130006063Y-141375774D01*
X130150226Y-141519937D01*
X130277532Y-141605000D01*
X130150226Y-141690063D01*
X130006063Y-141834226D01*
X129892795Y-142003744D01*
X129814774Y-142192102D01*
X129775000Y-142392061D01*
X129775000Y-142595939D01*
X129814774Y-142795898D01*
X129892795Y-142984256D01*
X130006063Y-143153774D01*
X130150226Y-143297937D01*
X130319744Y-143411205D01*
X130508102Y-143489226D01*
X130708061Y-143529000D01*
X130911939Y-143529000D01*
X131111898Y-143489226D01*
X131300256Y-143411205D01*
X131469774Y-143297937D01*
X131613937Y-143153774D01*
X131727205Y-142984256D01*
X131805226Y-142795898D01*
X131845000Y-142595939D01*
X131845000Y-142392061D01*
X131805226Y-142192102D01*
X131727205Y-142003744D01*
X131613937Y-141834226D01*
X131469774Y-141690063D01*
X131342468Y-141605000D01*
X131469774Y-141519937D01*
X131613937Y-141375774D01*
X131727205Y-141206256D01*
X131805226Y-141017898D01*
X131845000Y-140817939D01*
X131845000Y-140614061D01*
X131805226Y-140414102D01*
X131727205Y-140225744D01*
X131613937Y-140056226D01*
X131469774Y-139912063D01*
X131300256Y-139798795D01*
X131111898Y-139720774D01*
X130911939Y-139681000D01*
X130708061Y-139681000D01*
X130575000Y-139707467D01*
X130575000Y-139598061D01*
X130535226Y-139398102D01*
X130457205Y-139209744D01*
X130343937Y-139040226D01*
X130199774Y-138896063D01*
X130030256Y-138782795D01*
X129841898Y-138704774D01*
X129641939Y-138665000D01*
X129438061Y-138665000D01*
X129238102Y-138704774D01*
X129049744Y-138782795D01*
X128880226Y-138896063D01*
X128736063Y-139040226D01*
X128622795Y-139209744D01*
X128544774Y-139398102D01*
X128505000Y-139598061D01*
X97180000Y-139598061D01*
X97180000Y-137820061D01*
X106153000Y-137820061D01*
X106153000Y-138023939D01*
X106192774Y-138223898D01*
X106270795Y-138412256D01*
X106384063Y-138581774D01*
X106528226Y-138725937D01*
X106697744Y-138839205D01*
X106886102Y-138917226D01*
X107086061Y-138957000D01*
X107289939Y-138957000D01*
X107489898Y-138917226D01*
X107678256Y-138839205D01*
X107847774Y-138725937D01*
X107991937Y-138581774D01*
X108105205Y-138412256D01*
X108123511Y-138368061D01*
X140505000Y-138368061D01*
X140505000Y-138571939D01*
X140544774Y-138771898D01*
X140622795Y-138960256D01*
X140736063Y-139129774D01*
X140880226Y-139273937D01*
X141049744Y-139387205D01*
X141238102Y-139465226D01*
X141438061Y-139505000D01*
X141641939Y-139505000D01*
X141841898Y-139465226D01*
X142030256Y-139387205D01*
X142199774Y-139273937D01*
X142343937Y-139129774D01*
X142457205Y-138960256D01*
X142535226Y-138771898D01*
X142575000Y-138571939D01*
X142575000Y-138368061D01*
X142535226Y-138168102D01*
X142457205Y-137979744D01*
X142343937Y-137810226D01*
X142199774Y-137666063D01*
X142030256Y-137552795D01*
X141841898Y-137474774D01*
X141641939Y-137435000D01*
X141438061Y-137435000D01*
X141238102Y-137474774D01*
X141049744Y-137552795D01*
X140880226Y-137666063D01*
X140736063Y-137810226D01*
X140622795Y-137979744D01*
X140544774Y-138168102D01*
X140505000Y-138368061D01*
X108123511Y-138368061D01*
X108183226Y-138223898D01*
X108223000Y-138023939D01*
X108223000Y-137820061D01*
X108183226Y-137620102D01*
X108105205Y-137431744D01*
X107991937Y-137262226D01*
X107847774Y-137118063D01*
X107678256Y-137004795D01*
X107489898Y-136926774D01*
X107289939Y-136887000D01*
X107086061Y-136887000D01*
X106886102Y-136926774D01*
X106697744Y-137004795D01*
X106528226Y-137118063D01*
X106384063Y-137262226D01*
X106270795Y-137431744D01*
X106192774Y-137620102D01*
X106153000Y-137820061D01*
X97180000Y-137820061D01*
X97180000Y-135534061D01*
X116059000Y-135534061D01*
X116059000Y-135737939D01*
X116098774Y-135937898D01*
X116176795Y-136126256D01*
X116290063Y-136295774D01*
X116434226Y-136439937D01*
X116603744Y-136553205D01*
X116792102Y-136631226D01*
X116992061Y-136671000D01*
X117195939Y-136671000D01*
X117395898Y-136631226D01*
X117584256Y-136553205D01*
X117753774Y-136439937D01*
X117897937Y-136295774D01*
X118011205Y-136126256D01*
X118089226Y-135937898D01*
X118129000Y-135737939D01*
X118129000Y-135534061D01*
X118089226Y-135334102D01*
X118011205Y-135145744D01*
X117897937Y-134976226D01*
X117753774Y-134832063D01*
X117584256Y-134718795D01*
X117395898Y-134640774D01*
X117195939Y-134601000D01*
X116992061Y-134601000D01*
X116792102Y-134640774D01*
X116603744Y-134718795D01*
X116434226Y-134832063D01*
X116290063Y-134976226D01*
X116176795Y-135145744D01*
X116098774Y-135334102D01*
X116059000Y-135534061D01*
X97180000Y-135534061D01*
X97180000Y-134588061D01*
X142785000Y-134588061D01*
X142785000Y-134791939D01*
X142824774Y-134991898D01*
X142902795Y-135180256D01*
X143016063Y-135349774D01*
X143160226Y-135493937D01*
X143329744Y-135607205D01*
X143518102Y-135685226D01*
X143718061Y-135725000D01*
X143921939Y-135725000D01*
X144121898Y-135685226D01*
X144310256Y-135607205D01*
X144479774Y-135493937D01*
X144623937Y-135349774D01*
X144737205Y-135180256D01*
X144815226Y-134991898D01*
X144855000Y-134791939D01*
X144855000Y-134588061D01*
X144817207Y-134398061D01*
X154445000Y-134398061D01*
X154445000Y-134601939D01*
X154484774Y-134801898D01*
X154562795Y-134990256D01*
X154676063Y-135159774D01*
X154820226Y-135303937D01*
X154989744Y-135417205D01*
X155178102Y-135495226D01*
X155378061Y-135535000D01*
X155581939Y-135535000D01*
X155781898Y-135495226D01*
X155970256Y-135417205D01*
X156139774Y-135303937D01*
X156283937Y-135159774D01*
X156397205Y-134990256D01*
X156475226Y-134801898D01*
X156515000Y-134601939D01*
X156515000Y-134398061D01*
X156475226Y-134198102D01*
X156397205Y-134009744D01*
X156283937Y-133840226D01*
X156139774Y-133696063D01*
X155970256Y-133582795D01*
X155781898Y-133504774D01*
X155581939Y-133465000D01*
X155378061Y-133465000D01*
X155178102Y-133504774D01*
X154989744Y-133582795D01*
X154820226Y-133696063D01*
X154676063Y-133840226D01*
X154562795Y-134009744D01*
X154484774Y-134198102D01*
X154445000Y-134398061D01*
X144817207Y-134398061D01*
X144815226Y-134388102D01*
X144737205Y-134199744D01*
X144623937Y-134030226D01*
X144479774Y-133886063D01*
X144310256Y-133772795D01*
X144121898Y-133694774D01*
X143921939Y-133655000D01*
X143718061Y-133655000D01*
X143518102Y-133694774D01*
X143329744Y-133772795D01*
X143160226Y-133886063D01*
X143016063Y-134030226D01*
X142902795Y-134199744D01*
X142824774Y-134388102D01*
X142785000Y-134588061D01*
X97180000Y-134588061D01*
X97180000Y-131724061D01*
X136887000Y-131724061D01*
X136887000Y-131927939D01*
X136926774Y-132127898D01*
X137004795Y-132316256D01*
X137118063Y-132485774D01*
X137262226Y-132629937D01*
X137431744Y-132743205D01*
X137576525Y-132803176D01*
X137546745Y-132847744D01*
X137468724Y-133036102D01*
X137428950Y-133236061D01*
X137428950Y-133439939D01*
X137468724Y-133639898D01*
X137546745Y-133828256D01*
X137660013Y-133997774D01*
X137804176Y-134141937D01*
X137973694Y-134255205D01*
X138162052Y-134333226D01*
X138362011Y-134373000D01*
X138565889Y-134373000D01*
X138765848Y-134333226D01*
X138954206Y-134255205D01*
X139123724Y-134141937D01*
X139267887Y-133997774D01*
X139381155Y-133828256D01*
X139459176Y-133639898D01*
X139498950Y-133439939D01*
X139498950Y-133236061D01*
X139459176Y-133036102D01*
X139381155Y-132847744D01*
X139267887Y-132678226D01*
X139123724Y-132534063D01*
X138954206Y-132420795D01*
X138809425Y-132360824D01*
X138839205Y-132316256D01*
X138917226Y-132127898D01*
X138957000Y-131927939D01*
X138957000Y-131724061D01*
X138917226Y-131524102D01*
X138839205Y-131335744D01*
X138725937Y-131166226D01*
X138581774Y-131022063D01*
X138412256Y-130908795D01*
X138223898Y-130830774D01*
X138023939Y-130791000D01*
X137820061Y-130791000D01*
X137620102Y-130830774D01*
X137431744Y-130908795D01*
X137262226Y-131022063D01*
X137118063Y-131166226D01*
X137004795Y-131335744D01*
X136926774Y-131524102D01*
X136887000Y-131724061D01*
X97180000Y-131724061D01*
X97180000Y-129692061D01*
X114535000Y-129692061D01*
X114535000Y-129895939D01*
X114574774Y-130095898D01*
X114652795Y-130284256D01*
X114766063Y-130453774D01*
X114910226Y-130597937D01*
X115079744Y-130711205D01*
X115268102Y-130789226D01*
X115468061Y-130829000D01*
X115671939Y-130829000D01*
X115871898Y-130789226D01*
X116060256Y-130711205D01*
X116229774Y-130597937D01*
X116332000Y-130495711D01*
X116434226Y-130597937D01*
X116603744Y-130711205D01*
X116792102Y-130789226D01*
X116992061Y-130829000D01*
X117195939Y-130829000D01*
X117395898Y-130789226D01*
X117584256Y-130711205D01*
X117753774Y-130597937D01*
X117897937Y-130453774D01*
X118011205Y-130284256D01*
X118089226Y-130095898D01*
X118129000Y-129895939D01*
X118129000Y-129692061D01*
X118089226Y-129492102D01*
X118011205Y-129303744D01*
X117897937Y-129134226D01*
X117753774Y-128990063D01*
X117584256Y-128876795D01*
X117395898Y-128798774D01*
X117195939Y-128759000D01*
X116992061Y-128759000D01*
X116792102Y-128798774D01*
X116603744Y-128876795D01*
X116434226Y-128990063D01*
X116332000Y-129092289D01*
X116229774Y-128990063D01*
X116060256Y-128876795D01*
X115871898Y-128798774D01*
X115671939Y-128759000D01*
X115468061Y-128759000D01*
X115268102Y-128798774D01*
X115079744Y-128876795D01*
X114910226Y-128990063D01*
X114766063Y-129134226D01*
X114652795Y-129303744D01*
X114574774Y-129492102D01*
X114535000Y-129692061D01*
X97180000Y-129692061D01*
X97180000Y-127406061D01*
X115043000Y-127406061D01*
X115043000Y-127609939D01*
X115082774Y-127809898D01*
X115160795Y-127998256D01*
X115274063Y-128167774D01*
X115418226Y-128311937D01*
X115587744Y-128425205D01*
X115776102Y-128503226D01*
X115976061Y-128543000D01*
X116179939Y-128543000D01*
X116379898Y-128503226D01*
X116568256Y-128425205D01*
X116598495Y-128405000D01*
X141326928Y-128405000D01*
X141339188Y-128529482D01*
X141375498Y-128649180D01*
X141434463Y-128759494D01*
X141513815Y-128856185D01*
X141610506Y-128935537D01*
X141720820Y-128994502D01*
X141840518Y-129030812D01*
X141965000Y-129043072D01*
X142204250Y-129040000D01*
X142363000Y-128881250D01*
X142363000Y-128007000D01*
X141488750Y-128007000D01*
X141330000Y-128165750D01*
X141326928Y-128405000D01*
X116598495Y-128405000D01*
X116737774Y-128311937D01*
X116799094Y-128250617D01*
X116992061Y-128289000D01*
X117195939Y-128289000D01*
X117395898Y-128249226D01*
X117584256Y-128171205D01*
X117753774Y-128057937D01*
X117897937Y-127913774D01*
X118011205Y-127744256D01*
X118089226Y-127555898D01*
X118095371Y-127525000D01*
X120756928Y-127525000D01*
X120769188Y-127649482D01*
X120805498Y-127769180D01*
X120864463Y-127879494D01*
X120943815Y-127976185D01*
X121040506Y-128055537D01*
X121150820Y-128114502D01*
X121270518Y-128150812D01*
X121395000Y-128163072D01*
X121634250Y-128160000D01*
X121793000Y-128001250D01*
X121793000Y-127127000D01*
X120918750Y-127127000D01*
X120760000Y-127285750D01*
X120756928Y-127525000D01*
X118095371Y-127525000D01*
X118129000Y-127355939D01*
X118129000Y-127152061D01*
X118089226Y-126952102D01*
X118011205Y-126763744D01*
X117897937Y-126594226D01*
X117778711Y-126475000D01*
X120756928Y-126475000D01*
X120760000Y-126714250D01*
X120918750Y-126873000D01*
X121793000Y-126873000D01*
X121793000Y-125998750D01*
X122047000Y-125998750D01*
X122047000Y-126873000D01*
X122067000Y-126873000D01*
X122067000Y-127127000D01*
X122047000Y-127127000D01*
X122047000Y-128001250D01*
X122205750Y-128160000D01*
X122445000Y-128163072D01*
X122569482Y-128150812D01*
X122689180Y-128114502D01*
X122799494Y-128055537D01*
X122849885Y-128014182D01*
X122870534Y-128027979D01*
X123081640Y-128115422D01*
X123305750Y-128160000D01*
X123534250Y-128160000D01*
X123758360Y-128115422D01*
X123969466Y-128027979D01*
X124159457Y-127901031D01*
X124321031Y-127739457D01*
X124447979Y-127549466D01*
X124528529Y-127355000D01*
X141326928Y-127355000D01*
X141330000Y-127594250D01*
X141488750Y-127753000D01*
X142363000Y-127753000D01*
X142363000Y-126878750D01*
X142617000Y-126878750D01*
X142617000Y-127753000D01*
X142637000Y-127753000D01*
X142637000Y-128007000D01*
X142617000Y-128007000D01*
X142617000Y-128881250D01*
X142775750Y-129040000D01*
X143015000Y-129043072D01*
X143139482Y-129030812D01*
X143259180Y-128994502D01*
X143369494Y-128935537D01*
X143419885Y-128894182D01*
X143440534Y-128907979D01*
X143651640Y-128995422D01*
X143875750Y-129040000D01*
X144104250Y-129040000D01*
X144328360Y-128995422D01*
X144539466Y-128907979D01*
X144729457Y-128781031D01*
X144891031Y-128619457D01*
X145017979Y-128429466D01*
X145105422Y-128218360D01*
X145150000Y-127994250D01*
X145150000Y-127765750D01*
X145105422Y-127541640D01*
X145017979Y-127330534D01*
X144891031Y-127140543D01*
X144729457Y-126978969D01*
X144539466Y-126852021D01*
X144328360Y-126764578D01*
X144104250Y-126720000D01*
X143875750Y-126720000D01*
X143651640Y-126764578D01*
X143440534Y-126852021D01*
X143419885Y-126865818D01*
X143369494Y-126824463D01*
X143259180Y-126765498D01*
X143139482Y-126729188D01*
X143015000Y-126716928D01*
X142775750Y-126720000D01*
X142617000Y-126878750D01*
X142363000Y-126878750D01*
X142204250Y-126720000D01*
X141965000Y-126716928D01*
X141840518Y-126729188D01*
X141720820Y-126765498D01*
X141610506Y-126824463D01*
X141513815Y-126903815D01*
X141434463Y-127000506D01*
X141375498Y-127110820D01*
X141339188Y-127230518D01*
X141326928Y-127355000D01*
X124528529Y-127355000D01*
X124535422Y-127338360D01*
X124580000Y-127114250D01*
X124580000Y-126885750D01*
X124535422Y-126661640D01*
X124447979Y-126450534D01*
X124321031Y-126260543D01*
X124159457Y-126098969D01*
X123969466Y-125972021D01*
X123758360Y-125884578D01*
X123534250Y-125840000D01*
X123305750Y-125840000D01*
X123081640Y-125884578D01*
X122870534Y-125972021D01*
X122849885Y-125985818D01*
X122799494Y-125944463D01*
X122689180Y-125885498D01*
X122569482Y-125849188D01*
X122445000Y-125836928D01*
X122205750Y-125840000D01*
X122047000Y-125998750D01*
X121793000Y-125998750D01*
X121634250Y-125840000D01*
X121395000Y-125836928D01*
X121270518Y-125849188D01*
X121150820Y-125885498D01*
X121040506Y-125944463D01*
X120943815Y-126023815D01*
X120864463Y-126120506D01*
X120805498Y-126230820D01*
X120769188Y-126350518D01*
X120756928Y-126475000D01*
X117778711Y-126475000D01*
X117753774Y-126450063D01*
X117584256Y-126336795D01*
X117395898Y-126258774D01*
X117195939Y-126219000D01*
X116992061Y-126219000D01*
X116792102Y-126258774D01*
X116603744Y-126336795D01*
X116434226Y-126450063D01*
X116372906Y-126511383D01*
X116179939Y-126473000D01*
X115976061Y-126473000D01*
X115776102Y-126512774D01*
X115587744Y-126590795D01*
X115418226Y-126704063D01*
X115274063Y-126848226D01*
X115160795Y-127017744D01*
X115082774Y-127206102D01*
X115043000Y-127406061D01*
X97180000Y-127406061D01*
X97180000Y-123548059D01*
X114281000Y-123548059D01*
X114281000Y-123751937D01*
X114320774Y-123951896D01*
X114398795Y-124140254D01*
X114512063Y-124309772D01*
X114656226Y-124453935D01*
X114825744Y-124567203D01*
X115014102Y-124645224D01*
X115214061Y-124684998D01*
X115417939Y-124684998D01*
X115617898Y-124645224D01*
X115806256Y-124567203D01*
X115975774Y-124453935D01*
X116119937Y-124309772D01*
X116233205Y-124140254D01*
X116311226Y-123951896D01*
X116351000Y-123751937D01*
X116351000Y-123596061D01*
X119107000Y-123596061D01*
X119107000Y-123799939D01*
X119146774Y-123999898D01*
X119224795Y-124188256D01*
X119338063Y-124357774D01*
X119482226Y-124501937D01*
X119651744Y-124615205D01*
X119840102Y-124693226D01*
X120040061Y-124733000D01*
X120243939Y-124733000D01*
X120443898Y-124693226D01*
X120632256Y-124615205D01*
X120801774Y-124501937D01*
X120945937Y-124357774D01*
X121059205Y-124188256D01*
X121137226Y-123999898D01*
X121177000Y-123799939D01*
X121177000Y-123596061D01*
X130029000Y-123596061D01*
X130029000Y-123799939D01*
X130068774Y-123999898D01*
X130146795Y-124188256D01*
X130260063Y-124357774D01*
X130404226Y-124501937D01*
X130573744Y-124615205D01*
X130762102Y-124693226D01*
X130962061Y-124733000D01*
X131165939Y-124733000D01*
X131365898Y-124693226D01*
X131554256Y-124615205D01*
X131723774Y-124501937D01*
X131867937Y-124357774D01*
X131981205Y-124188256D01*
X132059226Y-123999898D01*
X132099000Y-123799939D01*
X132099000Y-123596061D01*
X132059226Y-123396102D01*
X131981205Y-123207744D01*
X131867937Y-123038226D01*
X131723774Y-122894063D01*
X131554256Y-122780795D01*
X131365898Y-122702774D01*
X131165939Y-122663000D01*
X130962061Y-122663000D01*
X130762102Y-122702774D01*
X130573744Y-122780795D01*
X130404226Y-122894063D01*
X130260063Y-123038226D01*
X130146795Y-123207744D01*
X130068774Y-123396102D01*
X130029000Y-123596061D01*
X121177000Y-123596061D01*
X121137226Y-123396102D01*
X121059205Y-123207744D01*
X120945937Y-123038226D01*
X120801774Y-122894063D01*
X120632256Y-122780795D01*
X120443898Y-122702774D01*
X120243939Y-122663000D01*
X120040061Y-122663000D01*
X119840102Y-122702774D01*
X119651744Y-122780795D01*
X119482226Y-122894063D01*
X119338063Y-123038226D01*
X119224795Y-123207744D01*
X119146774Y-123396102D01*
X119107000Y-123596061D01*
X116351000Y-123596061D01*
X116351000Y-123548059D01*
X116311226Y-123348100D01*
X116233205Y-123159742D01*
X116119937Y-122990224D01*
X115975774Y-122846061D01*
X115806256Y-122732793D01*
X115617898Y-122654772D01*
X115417939Y-122614998D01*
X115214061Y-122614998D01*
X115014102Y-122654772D01*
X114825744Y-122732793D01*
X114656226Y-122846061D01*
X114512063Y-122990224D01*
X114398795Y-123159742D01*
X114320774Y-123348100D01*
X114281000Y-123548059D01*
X97180000Y-123548059D01*
X97180000Y-120040061D01*
X103359000Y-120040061D01*
X103359000Y-120243939D01*
X103398774Y-120443898D01*
X103476795Y-120632256D01*
X103590063Y-120801774D01*
X103734226Y-120945937D01*
X103903744Y-121059205D01*
X104092102Y-121137226D01*
X104258945Y-121170413D01*
X104352063Y-121309774D01*
X104496226Y-121453937D01*
X104665744Y-121567205D01*
X104854102Y-121645226D01*
X105054061Y-121685000D01*
X105257939Y-121685000D01*
X105457898Y-121645226D01*
X105646256Y-121567205D01*
X105815774Y-121453937D01*
X105959937Y-121309774D01*
X106073205Y-121140256D01*
X106111393Y-121048061D01*
X110026202Y-121048061D01*
X110026202Y-121251939D01*
X110065976Y-121451898D01*
X110143997Y-121640256D01*
X110257265Y-121809774D01*
X110401428Y-121953937D01*
X110570946Y-122067205D01*
X110759304Y-122145226D01*
X110959263Y-122185000D01*
X111163141Y-122185000D01*
X111363100Y-122145226D01*
X111551458Y-122067205D01*
X111720976Y-121953937D01*
X111865139Y-121809774D01*
X111978407Y-121640256D01*
X112056428Y-121451898D01*
X112096202Y-121251939D01*
X112096202Y-121048061D01*
X112056428Y-120848102D01*
X111978407Y-120659744D01*
X111865139Y-120490226D01*
X111720976Y-120346063D01*
X111551458Y-120232795D01*
X111363100Y-120154774D01*
X111163141Y-120115000D01*
X110959263Y-120115000D01*
X110759304Y-120154774D01*
X110570946Y-120232795D01*
X110401428Y-120346063D01*
X110257265Y-120490226D01*
X110143997Y-120659744D01*
X110065976Y-120848102D01*
X110026202Y-121048061D01*
X106111393Y-121048061D01*
X106151226Y-120951898D01*
X106191000Y-120751939D01*
X106191000Y-120548061D01*
X106151226Y-120348102D01*
X106073205Y-120159744D01*
X105959937Y-119990226D01*
X105815774Y-119846063D01*
X105646256Y-119732795D01*
X105457898Y-119654774D01*
X105291055Y-119621587D01*
X105197937Y-119482226D01*
X105053774Y-119338063D01*
X104884256Y-119224795D01*
X104695898Y-119146774D01*
X104495939Y-119107000D01*
X104292061Y-119107000D01*
X104092102Y-119146774D01*
X103903744Y-119224795D01*
X103734226Y-119338063D01*
X103590063Y-119482226D01*
X103476795Y-119651744D01*
X103398774Y-119840102D01*
X103359000Y-120040061D01*
X97180000Y-120040061D01*
X97180000Y-118008061D01*
X110979000Y-118008061D01*
X110979000Y-118211939D01*
X111018774Y-118411898D01*
X111096795Y-118600256D01*
X111210063Y-118769774D01*
X111354226Y-118913937D01*
X111523744Y-119027205D01*
X111712102Y-119105226D01*
X111789374Y-119120596D01*
X111711706Y-119308103D01*
X111671932Y-119508062D01*
X111671932Y-119711940D01*
X111711706Y-119911899D01*
X111789727Y-120100257D01*
X111902995Y-120269775D01*
X112047158Y-120413938D01*
X112216676Y-120527206D01*
X112405034Y-120605227D01*
X112604993Y-120645001D01*
X112808871Y-120645001D01*
X113008830Y-120605227D01*
X113197188Y-120527206D01*
X113366706Y-120413938D01*
X113510869Y-120269775D01*
X113624137Y-120100257D01*
X113702158Y-119911899D01*
X113741932Y-119711940D01*
X113741932Y-119548594D01*
X113774256Y-119535205D01*
X113943774Y-119421937D01*
X114087650Y-119278061D01*
X114535000Y-119278061D01*
X114535000Y-119481939D01*
X114574774Y-119681898D01*
X114652795Y-119870256D01*
X114766063Y-120039774D01*
X114910226Y-120183937D01*
X115079744Y-120297205D01*
X115268102Y-120375226D01*
X115468061Y-120415000D01*
X115577467Y-120415000D01*
X115551000Y-120548061D01*
X115551000Y-120751939D01*
X115590774Y-120951898D01*
X115668795Y-121140256D01*
X115782063Y-121309774D01*
X115926226Y-121453937D01*
X116095744Y-121567205D01*
X116284102Y-121645226D01*
X116484061Y-121685000D01*
X116687939Y-121685000D01*
X116887898Y-121645226D01*
X117076256Y-121567205D01*
X117245774Y-121453937D01*
X117389937Y-121309774D01*
X117503205Y-121140256D01*
X117538079Y-121056061D01*
X123679000Y-121056061D01*
X123679000Y-121259939D01*
X123718774Y-121459898D01*
X123796795Y-121648256D01*
X123910063Y-121817774D01*
X124054226Y-121961937D01*
X124223744Y-122075205D01*
X124412102Y-122153226D01*
X124612061Y-122193000D01*
X124815939Y-122193000D01*
X125015898Y-122153226D01*
X125204256Y-122075205D01*
X125373774Y-121961937D01*
X125517937Y-121817774D01*
X125631205Y-121648256D01*
X125647854Y-121608061D01*
X138745000Y-121608061D01*
X138745000Y-121811939D01*
X138784774Y-122011898D01*
X138862795Y-122200256D01*
X138976063Y-122369774D01*
X139120226Y-122513937D01*
X139289744Y-122627205D01*
X139478102Y-122705226D01*
X139678061Y-122745000D01*
X139881939Y-122745000D01*
X140081898Y-122705226D01*
X140270256Y-122627205D01*
X140439774Y-122513937D01*
X140583937Y-122369774D01*
X140697205Y-122200256D01*
X140775226Y-122011898D01*
X140815000Y-121811939D01*
X140815000Y-121618061D01*
X141195000Y-121618061D01*
X141195000Y-121821939D01*
X141234774Y-122021898D01*
X141312795Y-122210256D01*
X141426063Y-122379774D01*
X141570226Y-122523937D01*
X141739744Y-122637205D01*
X141928102Y-122715226D01*
X142128061Y-122755000D01*
X142331939Y-122755000D01*
X142531898Y-122715226D01*
X142720256Y-122637205D01*
X142889774Y-122523937D01*
X142995000Y-122418711D01*
X143030226Y-122453937D01*
X143199744Y-122567205D01*
X143388102Y-122645226D01*
X143588061Y-122685000D01*
X143791939Y-122685000D01*
X143991898Y-122645226D01*
X144180256Y-122567205D01*
X144349774Y-122453937D01*
X144493937Y-122309774D01*
X144607205Y-122140256D01*
X144685226Y-121951898D01*
X144725000Y-121751939D01*
X144725000Y-121548061D01*
X144717044Y-121508061D01*
X144785000Y-121508061D01*
X144785000Y-121711939D01*
X144824774Y-121911898D01*
X144902795Y-122100256D01*
X145016063Y-122269774D01*
X145160226Y-122413937D01*
X145329744Y-122527205D01*
X145518102Y-122605226D01*
X145718061Y-122645000D01*
X145921939Y-122645000D01*
X146121898Y-122605226D01*
X146310256Y-122527205D01*
X146479774Y-122413937D01*
X146623937Y-122269774D01*
X146737205Y-122100256D01*
X146815226Y-121911898D01*
X146855000Y-121711939D01*
X146855000Y-121508061D01*
X146815226Y-121308102D01*
X146737205Y-121119744D01*
X146623937Y-120950226D01*
X146479774Y-120806063D01*
X146310256Y-120692795D01*
X146121898Y-120614774D01*
X145921939Y-120575000D01*
X145718061Y-120575000D01*
X145518102Y-120614774D01*
X145329744Y-120692795D01*
X145160226Y-120806063D01*
X145016063Y-120950226D01*
X144902795Y-121119744D01*
X144824774Y-121308102D01*
X144785000Y-121508061D01*
X144717044Y-121508061D01*
X144685226Y-121348102D01*
X144607205Y-121159744D01*
X144493937Y-120990226D01*
X144349774Y-120846063D01*
X144180256Y-120732795D01*
X143991898Y-120654774D01*
X143791939Y-120615000D01*
X143588061Y-120615000D01*
X143388102Y-120654774D01*
X143199744Y-120732795D01*
X143030226Y-120846063D01*
X142925000Y-120951289D01*
X142889774Y-120916063D01*
X142720256Y-120802795D01*
X142531898Y-120724774D01*
X142331939Y-120685000D01*
X142128061Y-120685000D01*
X141928102Y-120724774D01*
X141739744Y-120802795D01*
X141570226Y-120916063D01*
X141426063Y-121060226D01*
X141312795Y-121229744D01*
X141234774Y-121418102D01*
X141195000Y-121618061D01*
X140815000Y-121618061D01*
X140815000Y-121608061D01*
X140775226Y-121408102D01*
X140697205Y-121219744D01*
X140583937Y-121050226D01*
X140439774Y-120906063D01*
X140270256Y-120792795D01*
X140081898Y-120714774D01*
X139881939Y-120675000D01*
X139678061Y-120675000D01*
X139478102Y-120714774D01*
X139289744Y-120792795D01*
X139120226Y-120906063D01*
X138976063Y-121050226D01*
X138862795Y-121219744D01*
X138784774Y-121408102D01*
X138745000Y-121608061D01*
X125647854Y-121608061D01*
X125709226Y-121459898D01*
X125749000Y-121259939D01*
X125749000Y-121056061D01*
X125709226Y-120856102D01*
X125631205Y-120667744D01*
X125517937Y-120498226D01*
X125373774Y-120354063D01*
X125204256Y-120240795D01*
X125015898Y-120162774D01*
X124815939Y-120123000D01*
X124612061Y-120123000D01*
X124412102Y-120162774D01*
X124223744Y-120240795D01*
X124054226Y-120354063D01*
X123910063Y-120498226D01*
X123796795Y-120667744D01*
X123718774Y-120856102D01*
X123679000Y-121056061D01*
X117538079Y-121056061D01*
X117581226Y-120951898D01*
X117621000Y-120751939D01*
X117621000Y-120548061D01*
X117581226Y-120348102D01*
X117503205Y-120159744D01*
X117389937Y-119990226D01*
X117245774Y-119846063D01*
X117076256Y-119732795D01*
X116887898Y-119654774D01*
X116687939Y-119615000D01*
X116578533Y-119615000D01*
X116605000Y-119481939D01*
X116605000Y-119278061D01*
X119361000Y-119278061D01*
X119361000Y-119481939D01*
X119400774Y-119681898D01*
X119478795Y-119870256D01*
X119592063Y-120039774D01*
X119736226Y-120183937D01*
X119905744Y-120297205D01*
X120094102Y-120375226D01*
X120294061Y-120415000D01*
X120497939Y-120415000D01*
X120697898Y-120375226D01*
X120886256Y-120297205D01*
X121055774Y-120183937D01*
X121199937Y-120039774D01*
X121313205Y-119870256D01*
X121391226Y-119681898D01*
X121431000Y-119481939D01*
X121431000Y-119278061D01*
X121391226Y-119078102D01*
X121313205Y-118889744D01*
X121199937Y-118720226D01*
X121055774Y-118576063D01*
X120886256Y-118462795D01*
X120697898Y-118384774D01*
X120497939Y-118345000D01*
X120294061Y-118345000D01*
X120094102Y-118384774D01*
X119905744Y-118462795D01*
X119736226Y-118576063D01*
X119592063Y-118720226D01*
X119478795Y-118889744D01*
X119400774Y-119078102D01*
X119361000Y-119278061D01*
X116605000Y-119278061D01*
X116565226Y-119078102D01*
X116487205Y-118889744D01*
X116373937Y-118720226D01*
X116229774Y-118576063D01*
X116060256Y-118462795D01*
X115871898Y-118384774D01*
X115671939Y-118345000D01*
X115468061Y-118345000D01*
X115268102Y-118384774D01*
X115079744Y-118462795D01*
X114910226Y-118576063D01*
X114766063Y-118720226D01*
X114652795Y-118889744D01*
X114574774Y-119078102D01*
X114535000Y-119278061D01*
X114087650Y-119278061D01*
X114087937Y-119277774D01*
X114201205Y-119108256D01*
X114279226Y-118919898D01*
X114319000Y-118719939D01*
X114319000Y-118516061D01*
X114279226Y-118316102D01*
X114201205Y-118127744D01*
X114087937Y-117958226D01*
X113943774Y-117814063D01*
X113853975Y-117754061D01*
X131045000Y-117754061D01*
X131045000Y-117957939D01*
X131084774Y-118157898D01*
X131162795Y-118346256D01*
X131276063Y-118515774D01*
X131420226Y-118659937D01*
X131589744Y-118773205D01*
X131778102Y-118851226D01*
X131978061Y-118891000D01*
X132181939Y-118891000D01*
X132381898Y-118851226D01*
X132570256Y-118773205D01*
X132739774Y-118659937D01*
X132883937Y-118515774D01*
X132989317Y-118358061D01*
X142445000Y-118358061D01*
X142445000Y-118561939D01*
X142484774Y-118761898D01*
X142562795Y-118950256D01*
X142676063Y-119119774D01*
X142820226Y-119263937D01*
X142989744Y-119377205D01*
X143178102Y-119455226D01*
X143378061Y-119495000D01*
X143581939Y-119495000D01*
X143781898Y-119455226D01*
X143970256Y-119377205D01*
X144139774Y-119263937D01*
X144283937Y-119119774D01*
X144397205Y-118950256D01*
X144475226Y-118761898D01*
X144515000Y-118561939D01*
X144515000Y-118358061D01*
X144475226Y-118158102D01*
X144397205Y-117969744D01*
X144283937Y-117800226D01*
X144139774Y-117656063D01*
X143970256Y-117542795D01*
X143781898Y-117464774D01*
X143581939Y-117425000D01*
X143378061Y-117425000D01*
X143178102Y-117464774D01*
X142989744Y-117542795D01*
X142820226Y-117656063D01*
X142676063Y-117800226D01*
X142562795Y-117969744D01*
X142484774Y-118158102D01*
X142445000Y-118358061D01*
X132989317Y-118358061D01*
X132997205Y-118346256D01*
X133075226Y-118157898D01*
X133115000Y-117957939D01*
X133115000Y-117754061D01*
X133075226Y-117554102D01*
X132997205Y-117365744D01*
X132883937Y-117196226D01*
X132739774Y-117052063D01*
X132570256Y-116938795D01*
X132381898Y-116860774D01*
X132181939Y-116821000D01*
X131978061Y-116821000D01*
X131778102Y-116860774D01*
X131589744Y-116938795D01*
X131420226Y-117052063D01*
X131276063Y-117196226D01*
X131162795Y-117365744D01*
X131084774Y-117554102D01*
X131045000Y-117754061D01*
X113853975Y-117754061D01*
X113774256Y-117700795D01*
X113585898Y-117622774D01*
X113385939Y-117583000D01*
X113182061Y-117583000D01*
X112982102Y-117622774D01*
X112939730Y-117640325D01*
X112931205Y-117619744D01*
X112817937Y-117450226D01*
X112673774Y-117306063D01*
X112504256Y-117192795D01*
X112315898Y-117114774D01*
X112115939Y-117075000D01*
X111912061Y-117075000D01*
X111712102Y-117114774D01*
X111523744Y-117192795D01*
X111354226Y-117306063D01*
X111210063Y-117450226D01*
X111096795Y-117619744D01*
X111018774Y-117808102D01*
X110979000Y-118008061D01*
X97180000Y-118008061D01*
X97180000Y-116265953D01*
X119071108Y-116265953D01*
X119071108Y-116469831D01*
X119110882Y-116669790D01*
X119188903Y-116858148D01*
X119302171Y-117027666D01*
X119446334Y-117171829D01*
X119615852Y-117285097D01*
X119804210Y-117363118D01*
X120004169Y-117402892D01*
X120208047Y-117402892D01*
X120408006Y-117363118D01*
X120596364Y-117285097D01*
X120765882Y-117171829D01*
X120910045Y-117027666D01*
X121023313Y-116858148D01*
X121101334Y-116669790D01*
X121141108Y-116469831D01*
X121141108Y-116265953D01*
X121101334Y-116065994D01*
X121023313Y-115877636D01*
X120910045Y-115708118D01*
X120901818Y-115699891D01*
X120921744Y-115713205D01*
X121110102Y-115791226D01*
X121310061Y-115831000D01*
X121513939Y-115831000D01*
X121713898Y-115791226D01*
X121902256Y-115713205D01*
X122071774Y-115599937D01*
X122215937Y-115455774D01*
X122329205Y-115286256D01*
X122407226Y-115097898D01*
X122447000Y-114897939D01*
X122447000Y-114694061D01*
X122407226Y-114494102D01*
X122329205Y-114305744D01*
X122215937Y-114136226D01*
X122071774Y-113992063D01*
X121902256Y-113878795D01*
X121713898Y-113800774D01*
X121513939Y-113761000D01*
X121310061Y-113761000D01*
X121110102Y-113800774D01*
X120921744Y-113878795D01*
X120752226Y-113992063D01*
X120608063Y-114136226D01*
X120494795Y-114305744D01*
X120416774Y-114494102D01*
X120377000Y-114694061D01*
X120377000Y-114897939D01*
X120416774Y-115097898D01*
X120494795Y-115286256D01*
X120608063Y-115455774D01*
X120616290Y-115464001D01*
X120596364Y-115450687D01*
X120408006Y-115372666D01*
X120208047Y-115332892D01*
X120004169Y-115332892D01*
X119804210Y-115372666D01*
X119615852Y-115450687D01*
X119446334Y-115563955D01*
X119302171Y-115708118D01*
X119188903Y-115877636D01*
X119110882Y-116065994D01*
X119071108Y-116265953D01*
X97180000Y-116265953D01*
X97180000Y-114198061D01*
X103359000Y-114198061D01*
X103359000Y-114401939D01*
X103398774Y-114601898D01*
X103476795Y-114790256D01*
X103590063Y-114959774D01*
X103734226Y-115103937D01*
X103903744Y-115217205D01*
X104092102Y-115295226D01*
X104292061Y-115335000D01*
X104495939Y-115335000D01*
X104695898Y-115295226D01*
X104884256Y-115217205D01*
X105053774Y-115103937D01*
X105197937Y-114959774D01*
X105311205Y-114790256D01*
X105389226Y-114601898D01*
X105429000Y-114401939D01*
X105429000Y-114198061D01*
X105389226Y-113998102D01*
X105311205Y-113809744D01*
X105197937Y-113640226D01*
X105053774Y-113496063D01*
X104884256Y-113382795D01*
X104695898Y-113304774D01*
X104495939Y-113265000D01*
X104292061Y-113265000D01*
X104092102Y-113304774D01*
X103903744Y-113382795D01*
X103734226Y-113496063D01*
X103590063Y-113640226D01*
X103476795Y-113809744D01*
X103398774Y-113998102D01*
X103359000Y-114198061D01*
X97180000Y-114198061D01*
X97180000Y-112928061D01*
X124949000Y-112928061D01*
X124949000Y-113131939D01*
X124988774Y-113331898D01*
X125066795Y-113520256D01*
X125180063Y-113689774D01*
X125324226Y-113833937D01*
X125493744Y-113947205D01*
X125682102Y-114025226D01*
X125882061Y-114065000D01*
X126034956Y-114065000D01*
X125913771Y-114089105D01*
X125725413Y-114167126D01*
X125555895Y-114280394D01*
X125411732Y-114424557D01*
X125298464Y-114594075D01*
X125220443Y-114782433D01*
X125180669Y-114982392D01*
X125180669Y-115186270D01*
X125220443Y-115386229D01*
X125298464Y-115574587D01*
X125411732Y-115744105D01*
X125555895Y-115888268D01*
X125725413Y-116001536D01*
X125913771Y-116079557D01*
X126113730Y-116119331D01*
X126317608Y-116119331D01*
X126517567Y-116079557D01*
X126705925Y-116001536D01*
X126875443Y-115888268D01*
X127019606Y-115744105D01*
X127132874Y-115574587D01*
X127210895Y-115386229D01*
X127245141Y-115214061D01*
X129521000Y-115214061D01*
X129521000Y-115417939D01*
X129560774Y-115617898D01*
X129638795Y-115806256D01*
X129752063Y-115975774D01*
X129896226Y-116119937D01*
X130065744Y-116233205D01*
X130254102Y-116311226D01*
X130454061Y-116351000D01*
X130657939Y-116351000D01*
X130857898Y-116311226D01*
X131046256Y-116233205D01*
X131215774Y-116119937D01*
X131353066Y-115982645D01*
X131394464Y-116082587D01*
X131507732Y-116252105D01*
X131651895Y-116396268D01*
X131821413Y-116509536D01*
X132009771Y-116587557D01*
X132209730Y-116627331D01*
X132413608Y-116627331D01*
X132613567Y-116587557D01*
X132801925Y-116509536D01*
X132971443Y-116396268D01*
X133115606Y-116252105D01*
X133228874Y-116082587D01*
X133306895Y-115894229D01*
X133346669Y-115694270D01*
X133346669Y-115572730D01*
X133480331Y-115572730D01*
X133480331Y-115776608D01*
X133520105Y-115976567D01*
X133598126Y-116164925D01*
X133711394Y-116334443D01*
X133855557Y-116478606D01*
X134025075Y-116591874D01*
X134213433Y-116669895D01*
X134413392Y-116709669D01*
X134418160Y-116709669D01*
X134464795Y-116822256D01*
X134578063Y-116991774D01*
X134722226Y-117135937D01*
X134891744Y-117249205D01*
X135080102Y-117327226D01*
X135280061Y-117367000D01*
X135483939Y-117367000D01*
X135683898Y-117327226D01*
X135872256Y-117249205D01*
X136041774Y-117135937D01*
X136185937Y-116991774D01*
X136299205Y-116822256D01*
X136377226Y-116633898D01*
X136417000Y-116433939D01*
X136417000Y-116230061D01*
X136377226Y-116030102D01*
X136299205Y-115841744D01*
X136185937Y-115672226D01*
X136041774Y-115528063D01*
X135872256Y-115414795D01*
X135683898Y-115336774D01*
X135483939Y-115297000D01*
X135479171Y-115297000D01*
X135432536Y-115184413D01*
X135319268Y-115014895D01*
X135175105Y-114870732D01*
X135005587Y-114757464D01*
X134817229Y-114679443D01*
X134617270Y-114639669D01*
X134413392Y-114639669D01*
X134213433Y-114679443D01*
X134025075Y-114757464D01*
X133855557Y-114870732D01*
X133711394Y-115014895D01*
X133598126Y-115184413D01*
X133520105Y-115372771D01*
X133480331Y-115572730D01*
X133346669Y-115572730D01*
X133346669Y-115490392D01*
X133306895Y-115290433D01*
X133228874Y-115102075D01*
X133115606Y-114932557D01*
X132999081Y-114816032D01*
X133143898Y-114787226D01*
X133332256Y-114709205D01*
X133501774Y-114595937D01*
X133645937Y-114451774D01*
X133759205Y-114282256D01*
X133837226Y-114093898D01*
X133867030Y-113944061D01*
X138157000Y-113944061D01*
X138157000Y-114147939D01*
X138196774Y-114347898D01*
X138274795Y-114536256D01*
X138388063Y-114705774D01*
X138532226Y-114849937D01*
X138701744Y-114963205D01*
X138890102Y-115041226D01*
X139090061Y-115081000D01*
X139293939Y-115081000D01*
X139493898Y-115041226D01*
X139682256Y-114963205D01*
X139851774Y-114849937D01*
X139995937Y-114705774D01*
X140109205Y-114536256D01*
X140187226Y-114347898D01*
X140227000Y-114147939D01*
X140227000Y-113944061D01*
X140187226Y-113744102D01*
X140109205Y-113555744D01*
X139995937Y-113386226D01*
X139851774Y-113242063D01*
X139682256Y-113128795D01*
X139493898Y-113050774D01*
X139293939Y-113011000D01*
X139090061Y-113011000D01*
X138890102Y-113050774D01*
X138701744Y-113128795D01*
X138532226Y-113242063D01*
X138388063Y-113386226D01*
X138274795Y-113555744D01*
X138196774Y-113744102D01*
X138157000Y-113944061D01*
X133867030Y-113944061D01*
X133877000Y-113893939D01*
X133877000Y-113690061D01*
X133837226Y-113490102D01*
X133759205Y-113301744D01*
X133645937Y-113132226D01*
X133501774Y-112988063D01*
X133332256Y-112874795D01*
X133143898Y-112796774D01*
X132943939Y-112757000D01*
X132740061Y-112757000D01*
X132540102Y-112796774D01*
X132351744Y-112874795D01*
X132182226Y-112988063D01*
X132038063Y-113132226D01*
X131924795Y-113301744D01*
X131846774Y-113490102D01*
X131807000Y-113690061D01*
X131807000Y-113893939D01*
X131846774Y-114093898D01*
X131924795Y-114282256D01*
X132038063Y-114451774D01*
X132154588Y-114568299D01*
X132009771Y-114597105D01*
X131821413Y-114675126D01*
X131651895Y-114788394D01*
X131514603Y-114925686D01*
X131473205Y-114825744D01*
X131359937Y-114656226D01*
X131215774Y-114512063D01*
X131046256Y-114398795D01*
X130857898Y-114320774D01*
X130657939Y-114281000D01*
X130454061Y-114281000D01*
X130254102Y-114320774D01*
X130065744Y-114398795D01*
X129896226Y-114512063D01*
X129752063Y-114656226D01*
X129638795Y-114825744D01*
X129560774Y-115014102D01*
X129521000Y-115214061D01*
X127245141Y-115214061D01*
X127250669Y-115186270D01*
X127250669Y-114982392D01*
X127210895Y-114782433D01*
X127132874Y-114594075D01*
X127019606Y-114424557D01*
X126875443Y-114280394D01*
X126705925Y-114167126D01*
X126517567Y-114089105D01*
X126317608Y-114049331D01*
X126164713Y-114049331D01*
X126285898Y-114025226D01*
X126474256Y-113947205D01*
X126643774Y-113833937D01*
X126787937Y-113689774D01*
X126901205Y-113520256D01*
X126979226Y-113331898D01*
X127019000Y-113131939D01*
X127019000Y-112928061D01*
X126979226Y-112728102D01*
X126901205Y-112539744D01*
X126787937Y-112370226D01*
X126643774Y-112226063D01*
X126474256Y-112112795D01*
X126285898Y-112034774D01*
X126085939Y-111995000D01*
X125882061Y-111995000D01*
X125682102Y-112034774D01*
X125493744Y-112112795D01*
X125324226Y-112226063D01*
X125180063Y-112370226D01*
X125066795Y-112539744D01*
X124988774Y-112728102D01*
X124949000Y-112928061D01*
X97180000Y-112928061D01*
X97180000Y-110134061D01*
X105645000Y-110134061D01*
X105645000Y-110337939D01*
X105684774Y-110537898D01*
X105762795Y-110726256D01*
X105876063Y-110895774D01*
X106020226Y-111039937D01*
X106189744Y-111153205D01*
X106378102Y-111231226D01*
X106578061Y-111271000D01*
X106781939Y-111271000D01*
X106981898Y-111231226D01*
X107170256Y-111153205D01*
X107188000Y-111141349D01*
X107205744Y-111153205D01*
X107394102Y-111231226D01*
X107594061Y-111271000D01*
X107797939Y-111271000D01*
X107997898Y-111231226D01*
X108186256Y-111153205D01*
X108355774Y-111039937D01*
X108499937Y-110895774D01*
X108613205Y-110726256D01*
X108691226Y-110537898D01*
X108731000Y-110337939D01*
X108731000Y-110134061D01*
X108691226Y-109934102D01*
X108668842Y-109880061D01*
X127997000Y-109880061D01*
X127997000Y-110083939D01*
X128036774Y-110283898D01*
X128114795Y-110472256D01*
X128228063Y-110641774D01*
X128372226Y-110785937D01*
X128541744Y-110899205D01*
X128730102Y-110977226D01*
X128787381Y-110988619D01*
X128798774Y-111045898D01*
X128876795Y-111234256D01*
X128990063Y-111403774D01*
X129134226Y-111547937D01*
X129303744Y-111661205D01*
X129492102Y-111739226D01*
X129692061Y-111779000D01*
X129895939Y-111779000D01*
X130095898Y-111739226D01*
X130284256Y-111661205D01*
X130453774Y-111547937D01*
X130597937Y-111403774D01*
X130711205Y-111234256D01*
X130789226Y-111045898D01*
X130829000Y-110845939D01*
X130829000Y-110642061D01*
X130789226Y-110442102D01*
X130711205Y-110253744D01*
X130597937Y-110084226D01*
X130453774Y-109940063D01*
X130284256Y-109826795D01*
X130095898Y-109748774D01*
X130038619Y-109737381D01*
X130027226Y-109680102D01*
X129949205Y-109491744D01*
X129835937Y-109322226D01*
X129691774Y-109178063D01*
X129601975Y-109118061D01*
X130791000Y-109118061D01*
X130791000Y-109321939D01*
X130830774Y-109521898D01*
X130908795Y-109710256D01*
X131022063Y-109879774D01*
X131166226Y-110023937D01*
X131335744Y-110137205D01*
X131524102Y-110215226D01*
X131724061Y-110255000D01*
X131927939Y-110255000D01*
X132127898Y-110215226D01*
X132316256Y-110137205D01*
X132485774Y-110023937D01*
X132629937Y-109879774D01*
X132743205Y-109710256D01*
X132821226Y-109521898D01*
X132861000Y-109321939D01*
X132861000Y-109118061D01*
X132834533Y-108985000D01*
X132943939Y-108985000D01*
X133110039Y-108951961D01*
X133077000Y-109118061D01*
X133077000Y-109321939D01*
X133116774Y-109521898D01*
X133194795Y-109710256D01*
X133308063Y-109879774D01*
X133452226Y-110023937D01*
X133621744Y-110137205D01*
X133810102Y-110215226D01*
X134010061Y-110255000D01*
X134213939Y-110255000D01*
X134413898Y-110215226D01*
X134602256Y-110137205D01*
X134771774Y-110023937D01*
X134915937Y-109879774D01*
X135029205Y-109710256D01*
X135107226Y-109521898D01*
X135147000Y-109321939D01*
X135147000Y-109118061D01*
X135143241Y-109099165D01*
X135279774Y-109007937D01*
X135423937Y-108863774D01*
X135537205Y-108694256D01*
X135581329Y-108587730D01*
X137671331Y-108587730D01*
X137671331Y-108791608D01*
X137711105Y-108991567D01*
X137789126Y-109179925D01*
X137902394Y-109349443D01*
X138046557Y-109493606D01*
X138216075Y-109606874D01*
X138404433Y-109684895D01*
X138604392Y-109724669D01*
X138808270Y-109724669D01*
X138919000Y-109702644D01*
X138919000Y-109829939D01*
X138958774Y-110029898D01*
X139036795Y-110218256D01*
X139150063Y-110387774D01*
X139294226Y-110531937D01*
X139463744Y-110645205D01*
X139652102Y-110723226D01*
X139852061Y-110763000D01*
X139979356Y-110763000D01*
X139957331Y-110873730D01*
X139957331Y-111077608D01*
X139997105Y-111277567D01*
X140075126Y-111465925D01*
X140188394Y-111635443D01*
X140332557Y-111779606D01*
X140502075Y-111892874D01*
X140690433Y-111970895D01*
X140890392Y-112010669D01*
X141094270Y-112010669D01*
X141294229Y-111970895D01*
X141482587Y-111892874D01*
X141652105Y-111779606D01*
X141796268Y-111635443D01*
X141909536Y-111465925D01*
X141987557Y-111277567D01*
X142027331Y-111077608D01*
X142027331Y-110873730D01*
X141987557Y-110673771D01*
X141909536Y-110485413D01*
X141796268Y-110315895D01*
X141652105Y-110171732D01*
X141595727Y-110134061D01*
X142475000Y-110134061D01*
X142475000Y-110337939D01*
X142514774Y-110537898D01*
X142592795Y-110726256D01*
X142706063Y-110895774D01*
X142850226Y-111039937D01*
X143019744Y-111153205D01*
X143208102Y-111231226D01*
X143408061Y-111271000D01*
X143611939Y-111271000D01*
X143811898Y-111231226D01*
X144000256Y-111153205D01*
X144169774Y-111039937D01*
X144313937Y-110895774D01*
X144427205Y-110726256D01*
X144505226Y-110537898D01*
X144545000Y-110337939D01*
X144545000Y-110134061D01*
X144505226Y-109934102D01*
X144427205Y-109745744D01*
X144313937Y-109576226D01*
X144169774Y-109432063D01*
X144000256Y-109318795D01*
X143811898Y-109240774D01*
X143611939Y-109201000D01*
X143408061Y-109201000D01*
X143208102Y-109240774D01*
X143019744Y-109318795D01*
X142850226Y-109432063D01*
X142706063Y-109576226D01*
X142592795Y-109745744D01*
X142514774Y-109934102D01*
X142475000Y-110134061D01*
X141595727Y-110134061D01*
X141482587Y-110058464D01*
X141294229Y-109980443D01*
X141094270Y-109940669D01*
X140966975Y-109940669D01*
X140989000Y-109829939D01*
X140989000Y-109626061D01*
X140949226Y-109426102D01*
X140871205Y-109237744D01*
X140757937Y-109068226D01*
X140613774Y-108924063D01*
X140444256Y-108810795D01*
X140255898Y-108732774D01*
X140055939Y-108693000D01*
X139852061Y-108693000D01*
X139741331Y-108715025D01*
X139741331Y-108587730D01*
X139701557Y-108387771D01*
X139623536Y-108199413D01*
X139510268Y-108029895D01*
X139366105Y-107885732D01*
X139196587Y-107772464D01*
X139008229Y-107694443D01*
X138808270Y-107654669D01*
X138604392Y-107654669D01*
X138404433Y-107694443D01*
X138216075Y-107772464D01*
X138046557Y-107885732D01*
X137902394Y-108029895D01*
X137789126Y-108199413D01*
X137711105Y-108387771D01*
X137671331Y-108587730D01*
X135581329Y-108587730D01*
X135615226Y-108505898D01*
X135655000Y-108305939D01*
X135655000Y-108213965D01*
X135812933Y-108279383D01*
X136032212Y-108323000D01*
X136255788Y-108323000D01*
X136475067Y-108279383D01*
X136681624Y-108193824D01*
X136867520Y-108069612D01*
X137025612Y-107911520D01*
X137149824Y-107725624D01*
X137235383Y-107519067D01*
X137279000Y-107299788D01*
X137279000Y-107076212D01*
X137235383Y-106856933D01*
X137149824Y-106650376D01*
X137084759Y-106553000D01*
X137149824Y-106455624D01*
X137235383Y-106249067D01*
X137279000Y-106029788D01*
X137279000Y-105806212D01*
X137235383Y-105586933D01*
X137149824Y-105380376D01*
X137084759Y-105283000D01*
X137149824Y-105185624D01*
X137235383Y-104979067D01*
X137275431Y-104777730D01*
X137671331Y-104777730D01*
X137671331Y-104981608D01*
X137711105Y-105181567D01*
X137789126Y-105369925D01*
X137902394Y-105539443D01*
X138046557Y-105683606D01*
X138216075Y-105796874D01*
X138404433Y-105874895D01*
X138604392Y-105914669D01*
X138808270Y-105914669D01*
X139008229Y-105874895D01*
X139196587Y-105796874D01*
X139366105Y-105683606D01*
X139510268Y-105539443D01*
X139623536Y-105369925D01*
X139701557Y-105181567D01*
X139741331Y-104981608D01*
X139741331Y-104777730D01*
X139701557Y-104577771D01*
X139623536Y-104389413D01*
X139510268Y-104219895D01*
X139366105Y-104075732D01*
X139196587Y-103962464D01*
X139008229Y-103884443D01*
X138808270Y-103844669D01*
X138604392Y-103844669D01*
X138404433Y-103884443D01*
X138216075Y-103962464D01*
X138046557Y-104075732D01*
X137902394Y-104219895D01*
X137789126Y-104389413D01*
X137711105Y-104577771D01*
X137671331Y-104777730D01*
X137275431Y-104777730D01*
X137279000Y-104759788D01*
X137279000Y-104536212D01*
X137235383Y-104316933D01*
X137149824Y-104110376D01*
X137084759Y-104013000D01*
X137149824Y-103915624D01*
X137235383Y-103709067D01*
X137279000Y-103489788D01*
X137279000Y-103266212D01*
X137235383Y-103046933D01*
X137149824Y-102840376D01*
X137104658Y-102772780D01*
X137162730Y-102784331D01*
X137366608Y-102784331D01*
X137566567Y-102744557D01*
X137754925Y-102666536D01*
X137924443Y-102553268D01*
X138068606Y-102409105D01*
X138181874Y-102239587D01*
X138209211Y-102173589D01*
X146225000Y-102173589D01*
X146225000Y-102446411D01*
X146278225Y-102713989D01*
X146382629Y-102966043D01*
X146534201Y-103192886D01*
X146727114Y-103385799D01*
X146953957Y-103537371D01*
X147206011Y-103641775D01*
X147473589Y-103695000D01*
X147746411Y-103695000D01*
X148013989Y-103641775D01*
X148266043Y-103537371D01*
X148492886Y-103385799D01*
X148685799Y-103192886D01*
X148837371Y-102966043D01*
X148941775Y-102713989D01*
X148995000Y-102446411D01*
X148995000Y-102173589D01*
X150725000Y-102173589D01*
X150725000Y-102446411D01*
X150778225Y-102713989D01*
X150882629Y-102966043D01*
X151034201Y-103192886D01*
X151227114Y-103385799D01*
X151453957Y-103537371D01*
X151706011Y-103641775D01*
X151973589Y-103695000D01*
X152246411Y-103695000D01*
X152513989Y-103641775D01*
X152766043Y-103537371D01*
X152992886Y-103385799D01*
X153185799Y-103192886D01*
X153337371Y-102966043D01*
X153441775Y-102713989D01*
X153495000Y-102446411D01*
X153495000Y-102173589D01*
X153441775Y-101906011D01*
X153337371Y-101653957D01*
X153185799Y-101427114D01*
X152992886Y-101234201D01*
X152766043Y-101082629D01*
X152513989Y-100978225D01*
X152246411Y-100925000D01*
X151973589Y-100925000D01*
X151706011Y-100978225D01*
X151453957Y-101082629D01*
X151227114Y-101234201D01*
X151034201Y-101427114D01*
X150882629Y-101653957D01*
X150778225Y-101906011D01*
X150725000Y-102173589D01*
X148995000Y-102173589D01*
X148941775Y-101906011D01*
X148837371Y-101653957D01*
X148685799Y-101427114D01*
X148492886Y-101234201D01*
X148266043Y-101082629D01*
X148013989Y-100978225D01*
X147746411Y-100925000D01*
X147473589Y-100925000D01*
X147206011Y-100978225D01*
X146953957Y-101082629D01*
X146727114Y-101234201D01*
X146534201Y-101427114D01*
X146382629Y-101653957D01*
X146278225Y-101906011D01*
X146225000Y-102173589D01*
X138209211Y-102173589D01*
X138259895Y-102051229D01*
X138299669Y-101851270D01*
X138299669Y-101647392D01*
X138259895Y-101447433D01*
X138181874Y-101259075D01*
X138068606Y-101089557D01*
X137924443Y-100945394D01*
X137754925Y-100832126D01*
X137566567Y-100754105D01*
X137366608Y-100714331D01*
X137276637Y-100714331D01*
X137235383Y-100506933D01*
X137149824Y-100300376D01*
X137084759Y-100203000D01*
X137149824Y-100105624D01*
X137235383Y-99899067D01*
X137279000Y-99679788D01*
X137279000Y-99456212D01*
X137235383Y-99236933D01*
X137149824Y-99030376D01*
X137046720Y-98876070D01*
X137135588Y-98861450D01*
X137226458Y-98657174D01*
X137275731Y-98439095D01*
X137281511Y-98215594D01*
X137243577Y-97995260D01*
X137163387Y-97786560D01*
X137135588Y-97734550D01*
X136922166Y-97699439D01*
X136323605Y-98298000D01*
X136337748Y-98312143D01*
X136216890Y-98433000D01*
X136071110Y-98433000D01*
X136009000Y-98370890D01*
X136009000Y-98225110D01*
X136129858Y-98104253D01*
X136144000Y-98118395D01*
X136742561Y-97519834D01*
X136707450Y-97306412D01*
X136503174Y-97215542D01*
X136285095Y-97166269D01*
X136061594Y-97160489D01*
X135841260Y-97198423D01*
X135632560Y-97278613D01*
X135580550Y-97306412D01*
X135565930Y-97395280D01*
X135411624Y-97292176D01*
X135205067Y-97206617D01*
X134985788Y-97163000D01*
X134762212Y-97163000D01*
X134542933Y-97206617D01*
X134336376Y-97292176D01*
X134150480Y-97416388D01*
X133992388Y-97574480D01*
X133868176Y-97760376D01*
X133782617Y-97966933D01*
X133739000Y-98186212D01*
X133739000Y-98409788D01*
X133782617Y-98629067D01*
X133868176Y-98835624D01*
X133933241Y-98933000D01*
X133868176Y-99030376D01*
X133782617Y-99236933D01*
X133739000Y-99456212D01*
X133739000Y-99679788D01*
X133782617Y-99899067D01*
X133868176Y-100105624D01*
X133933241Y-100203000D01*
X133868176Y-100300376D01*
X133838861Y-100371150D01*
X133755774Y-100288063D01*
X133586256Y-100174795D01*
X133397898Y-100096774D01*
X133197939Y-100057000D01*
X132994061Y-100057000D01*
X132794102Y-100096774D01*
X132605744Y-100174795D01*
X132436226Y-100288063D01*
X132292063Y-100432226D01*
X132178795Y-100601744D01*
X132100774Y-100790102D01*
X132061000Y-100990061D01*
X132061000Y-101193939D01*
X132100774Y-101393898D01*
X132178795Y-101582256D01*
X132292063Y-101751774D01*
X132436226Y-101895937D01*
X132605744Y-102009205D01*
X132794102Y-102087226D01*
X132994061Y-102127000D01*
X133197939Y-102127000D01*
X133397898Y-102087226D01*
X133586256Y-102009205D01*
X133755774Y-101895937D01*
X133759733Y-101891978D01*
X133739000Y-101996212D01*
X133739000Y-102219788D01*
X133782617Y-102439067D01*
X133868176Y-102645624D01*
X133933241Y-102743000D01*
X133868176Y-102840376D01*
X133782617Y-103046933D01*
X133739000Y-103266212D01*
X133739000Y-103489788D01*
X133782617Y-103709067D01*
X133868176Y-103915624D01*
X133933241Y-104013000D01*
X133868176Y-104110376D01*
X133782617Y-104316933D01*
X133739000Y-104536212D01*
X133739000Y-104759788D01*
X133782617Y-104979067D01*
X133868176Y-105185624D01*
X133933241Y-105283000D01*
X133868176Y-105380376D01*
X133782617Y-105586933D01*
X133739000Y-105806212D01*
X133739000Y-106029788D01*
X133782617Y-106249067D01*
X133868176Y-106455624D01*
X133933241Y-106553000D01*
X133868176Y-106650376D01*
X133782617Y-106856933D01*
X133739000Y-107076212D01*
X133739000Y-107299788D01*
X133781545Y-107513677D01*
X133759205Y-107459744D01*
X133645937Y-107290226D01*
X133501774Y-107146063D01*
X133332256Y-107032795D01*
X133143898Y-106954774D01*
X132943939Y-106915000D01*
X132740061Y-106915000D01*
X132540102Y-106954774D01*
X132351744Y-107032795D01*
X132182226Y-107146063D01*
X132038063Y-107290226D01*
X131924795Y-107459744D01*
X131846774Y-107648102D01*
X131807000Y-107848061D01*
X131807000Y-108051939D01*
X131833467Y-108185000D01*
X131724061Y-108185000D01*
X131524102Y-108224774D01*
X131335744Y-108302795D01*
X131166226Y-108416063D01*
X131022063Y-108560226D01*
X130908795Y-108729744D01*
X130830774Y-108918102D01*
X130791000Y-109118061D01*
X129601975Y-109118061D01*
X129522256Y-109064795D01*
X129333898Y-108986774D01*
X129133939Y-108947000D01*
X128930061Y-108947000D01*
X128730102Y-108986774D01*
X128541744Y-109064795D01*
X128372226Y-109178063D01*
X128228063Y-109322226D01*
X128114795Y-109491744D01*
X128036774Y-109680102D01*
X127997000Y-109880061D01*
X108668842Y-109880061D01*
X108613205Y-109745744D01*
X108499937Y-109576226D01*
X108355774Y-109432063D01*
X108186256Y-109318795D01*
X107997898Y-109240774D01*
X107797939Y-109201000D01*
X107594061Y-109201000D01*
X107394102Y-109240774D01*
X107205744Y-109318795D01*
X107188000Y-109330651D01*
X107170256Y-109318795D01*
X106981898Y-109240774D01*
X106781939Y-109201000D01*
X106578061Y-109201000D01*
X106378102Y-109240774D01*
X106189744Y-109318795D01*
X106020226Y-109432063D01*
X105876063Y-109576226D01*
X105762795Y-109745744D01*
X105684774Y-109934102D01*
X105645000Y-110134061D01*
X97180000Y-110134061D01*
X97180000Y-105816061D01*
X119361000Y-105816061D01*
X119361000Y-106019939D01*
X119400774Y-106219898D01*
X119478795Y-106408256D01*
X119592063Y-106577774D01*
X119736226Y-106721937D01*
X119905744Y-106835205D01*
X120094102Y-106913226D01*
X120294061Y-106953000D01*
X120497939Y-106953000D01*
X120697898Y-106913226D01*
X120886256Y-106835205D01*
X121055774Y-106721937D01*
X121199937Y-106577774D01*
X121313205Y-106408256D01*
X121391226Y-106219898D01*
X121431000Y-106019939D01*
X121431000Y-105816061D01*
X121391226Y-105616102D01*
X121368842Y-105562061D01*
X130029000Y-105562061D01*
X130029000Y-105765939D01*
X130068774Y-105965898D01*
X130146795Y-106154256D01*
X130260063Y-106323774D01*
X130404226Y-106467937D01*
X130573744Y-106581205D01*
X130762102Y-106659226D01*
X130962061Y-106699000D01*
X131165939Y-106699000D01*
X131365898Y-106659226D01*
X131554256Y-106581205D01*
X131723774Y-106467937D01*
X131867937Y-106323774D01*
X131981205Y-106154256D01*
X132059226Y-105965898D01*
X132099000Y-105765939D01*
X132099000Y-105562061D01*
X132059226Y-105362102D01*
X131981205Y-105173744D01*
X131867937Y-105004226D01*
X131723774Y-104860063D01*
X131554256Y-104746795D01*
X131365898Y-104668774D01*
X131165939Y-104629000D01*
X130962061Y-104629000D01*
X130762102Y-104668774D01*
X130573744Y-104746795D01*
X130404226Y-104860063D01*
X130260063Y-105004226D01*
X130146795Y-105173744D01*
X130068774Y-105362102D01*
X130029000Y-105562061D01*
X121368842Y-105562061D01*
X121313205Y-105427744D01*
X121199937Y-105258226D01*
X121055774Y-105114063D01*
X120886256Y-105000795D01*
X120697898Y-104922774D01*
X120497939Y-104883000D01*
X120294061Y-104883000D01*
X120094102Y-104922774D01*
X119905744Y-105000795D01*
X119736226Y-105114063D01*
X119592063Y-105258226D01*
X119478795Y-105427744D01*
X119400774Y-105616102D01*
X119361000Y-105816061D01*
X97180000Y-105816061D01*
X97180000Y-97054507D01*
X97209465Y-96688285D01*
X98781000Y-96688285D01*
X98781000Y-97443715D01*
X98928377Y-98184628D01*
X99217467Y-98882554D01*
X99637161Y-99510670D01*
X100171330Y-100044839D01*
X100799446Y-100464533D01*
X101497372Y-100753623D01*
X102238285Y-100901000D01*
X102993715Y-100901000D01*
X103734628Y-100753623D01*
X104432554Y-100464533D01*
X105060670Y-100044839D01*
X105594839Y-99510670D01*
X106014533Y-98882554D01*
X106303623Y-98184628D01*
X106451000Y-97443715D01*
X106451000Y-97180061D01*
X128251000Y-97180061D01*
X128251000Y-97383939D01*
X128290774Y-97583898D01*
X128368795Y-97772256D01*
X128482063Y-97941774D01*
X128626226Y-98085937D01*
X128795744Y-98199205D01*
X128984102Y-98277226D01*
X129184061Y-98317000D01*
X129387939Y-98317000D01*
X129587898Y-98277226D01*
X129776256Y-98199205D01*
X129945774Y-98085937D01*
X130089937Y-97941774D01*
X130203205Y-97772256D01*
X130281226Y-97583898D01*
X130321000Y-97383939D01*
X130321000Y-97180061D01*
X130281226Y-96980102D01*
X130203205Y-96791744D01*
X130089937Y-96622226D01*
X129945774Y-96478063D01*
X129776256Y-96364795D01*
X129587898Y-96286774D01*
X129387939Y-96247000D01*
X129184061Y-96247000D01*
X128984102Y-96286774D01*
X128795744Y-96364795D01*
X128626226Y-96478063D01*
X128482063Y-96622226D01*
X128368795Y-96791744D01*
X128290774Y-96980102D01*
X128251000Y-97180061D01*
X106451000Y-97180061D01*
X106451000Y-96688285D01*
X106303623Y-95947372D01*
X106190219Y-95673589D01*
X146225000Y-95673589D01*
X146225000Y-95946411D01*
X146278225Y-96213989D01*
X146382629Y-96466043D01*
X146534201Y-96692886D01*
X146727114Y-96885799D01*
X146953957Y-97037371D01*
X147206011Y-97141775D01*
X147473589Y-97195000D01*
X147746411Y-97195000D01*
X148013989Y-97141775D01*
X148266043Y-97037371D01*
X148492886Y-96885799D01*
X148685799Y-96692886D01*
X148837371Y-96466043D01*
X148941775Y-96213989D01*
X148995000Y-95946411D01*
X148995000Y-95673589D01*
X150725000Y-95673589D01*
X150725000Y-95946411D01*
X150778225Y-96213989D01*
X150882629Y-96466043D01*
X151034201Y-96692886D01*
X151227114Y-96885799D01*
X151453957Y-97037371D01*
X151706011Y-97141775D01*
X151973589Y-97195000D01*
X152246411Y-97195000D01*
X152513989Y-97141775D01*
X152766043Y-97037371D01*
X152992886Y-96885799D01*
X153185799Y-96692886D01*
X153188873Y-96688285D01*
X161265000Y-96688285D01*
X161265000Y-97443715D01*
X161412377Y-98184628D01*
X161701467Y-98882554D01*
X162121161Y-99510670D01*
X162655330Y-100044839D01*
X163283446Y-100464533D01*
X163981372Y-100753623D01*
X164722285Y-100901000D01*
X165477715Y-100901000D01*
X166218628Y-100753623D01*
X166916554Y-100464533D01*
X167544670Y-100044839D01*
X168078839Y-99510670D01*
X168498533Y-98882554D01*
X168787623Y-98184628D01*
X168935000Y-97443715D01*
X168935000Y-96688285D01*
X168787623Y-95947372D01*
X168498533Y-95249446D01*
X168078839Y-94621330D01*
X167544670Y-94087161D01*
X166916554Y-93667467D01*
X166218628Y-93378377D01*
X165477715Y-93231000D01*
X164722285Y-93231000D01*
X163981372Y-93378377D01*
X163283446Y-93667467D01*
X162655330Y-94087161D01*
X162121161Y-94621330D01*
X161701467Y-95249446D01*
X161412377Y-95947372D01*
X161265000Y-96688285D01*
X153188873Y-96688285D01*
X153337371Y-96466043D01*
X153441775Y-96213989D01*
X153495000Y-95946411D01*
X153495000Y-95673589D01*
X153441775Y-95406011D01*
X153337371Y-95153957D01*
X153185799Y-94927114D01*
X152992886Y-94734201D01*
X152766043Y-94582629D01*
X152513989Y-94478225D01*
X152246411Y-94425000D01*
X151973589Y-94425000D01*
X151706011Y-94478225D01*
X151453957Y-94582629D01*
X151227114Y-94734201D01*
X151034201Y-94927114D01*
X150882629Y-95153957D01*
X150778225Y-95406011D01*
X150725000Y-95673589D01*
X148995000Y-95673589D01*
X148941775Y-95406011D01*
X148837371Y-95153957D01*
X148685799Y-94927114D01*
X148492886Y-94734201D01*
X148266043Y-94582629D01*
X148013989Y-94478225D01*
X147746411Y-94425000D01*
X147473589Y-94425000D01*
X147206011Y-94478225D01*
X146953957Y-94582629D01*
X146727114Y-94734201D01*
X146534201Y-94927114D01*
X146382629Y-95153957D01*
X146278225Y-95406011D01*
X146225000Y-95673589D01*
X106190219Y-95673589D01*
X106014533Y-95249446D01*
X105594839Y-94621330D01*
X105060670Y-94087161D01*
X104432554Y-93667467D01*
X103734628Y-93378377D01*
X102993715Y-93231000D01*
X102238285Y-93231000D01*
X101497372Y-93378377D01*
X100799446Y-93667467D01*
X100171330Y-94087161D01*
X99637161Y-94621330D01*
X99217467Y-95249446D01*
X98928377Y-95947372D01*
X98781000Y-96688285D01*
X97209465Y-96688285D01*
X97252032Y-96159229D01*
X97459935Y-95312800D01*
X97800487Y-94510510D01*
X98264932Y-93772985D01*
X98841317Y-93119206D01*
X99514819Y-92565983D01*
X100268101Y-92127563D01*
X101081791Y-91815216D01*
X101940627Y-91635796D01*
X102636747Y-91592000D01*
X165073493Y-91592000D01*
X165968771Y-91664032D01*
G04 #@! TA.AperFunction,Conductor*
D20*
G36*
X165968771Y-91664032D02*
G01*
X166815200Y-91871935D01*
X167617490Y-92212487D01*
X168355015Y-92676932D01*
X169008794Y-93253317D01*
X169562017Y-93926819D01*
X170000437Y-94680101D01*
X170312784Y-95493791D01*
X170492204Y-96352627D01*
X170536000Y-97048747D01*
X170536001Y-147039479D01*
X170463968Y-147934775D01*
X170256065Y-148781199D01*
X169915513Y-149583491D01*
X169451068Y-150321015D01*
X168874680Y-150974798D01*
X168201182Y-151528016D01*
X167447899Y-151966437D01*
X166634209Y-152278784D01*
X165775373Y-152458204D01*
X165079253Y-152502000D01*
X138433368Y-152502000D01*
X138504511Y-152368901D01*
X138575130Y-152136101D01*
X138593000Y-151954664D01*
X138593000Y-151133335D01*
X138575130Y-150951898D01*
X138504511Y-150719099D01*
X138389833Y-150504551D01*
X138235502Y-150316498D01*
X138047448Y-150162167D01*
X137832900Y-150047489D01*
X137600101Y-149976870D01*
X137358000Y-149953025D01*
X137115898Y-149976870D01*
X137105965Y-149979883D01*
X137224949Y-149900381D01*
X137414381Y-149710949D01*
X137563216Y-149488201D01*
X137665736Y-149240697D01*
X137718000Y-148977948D01*
X137718000Y-148710052D01*
X137665736Y-148447303D01*
X137563216Y-148199799D01*
X137414381Y-147977051D01*
X137224949Y-147787619D01*
X137002201Y-147638784D01*
X136754697Y-147536264D01*
X136491948Y-147484000D01*
X136224052Y-147484000D01*
X135961303Y-147536264D01*
X135713799Y-147638784D01*
X135491051Y-147787619D01*
X135301619Y-147977051D01*
X135152784Y-148199799D01*
X135050264Y-148447303D01*
X134998000Y-148710052D01*
X134998000Y-148977948D01*
X135050264Y-149240697D01*
X135152784Y-149488201D01*
X135301619Y-149710949D01*
X135491051Y-149900381D01*
X135713799Y-150049216D01*
X135961303Y-150151736D01*
X136224052Y-150204000D01*
X136491948Y-150204000D01*
X136657768Y-150171016D01*
X136480498Y-150316498D01*
X136326167Y-150504552D01*
X136211489Y-150719100D01*
X136140870Y-150951899D01*
X136123000Y-151133336D01*
X136123000Y-151954665D01*
X136140870Y-152136102D01*
X136211489Y-152368901D01*
X136282632Y-152502000D01*
X131433368Y-152502000D01*
X131504511Y-152368901D01*
X131575130Y-152136102D01*
X131593000Y-151954665D01*
X131593000Y-151133336D01*
X131575130Y-150951899D01*
X131504511Y-150719099D01*
X131389833Y-150504551D01*
X131235502Y-150316498D01*
X131058232Y-150171016D01*
X131224052Y-150204000D01*
X131491948Y-150204000D01*
X131754697Y-150151736D01*
X132002201Y-150049216D01*
X132224949Y-149900381D01*
X132414381Y-149710949D01*
X132563216Y-149488201D01*
X132665736Y-149240697D01*
X132718000Y-148977948D01*
X132718000Y-148710052D01*
X132665736Y-148447303D01*
X132563216Y-148199799D01*
X132414381Y-147977051D01*
X132224949Y-147787619D01*
X132002201Y-147638784D01*
X131754697Y-147536264D01*
X131491948Y-147484000D01*
X131224052Y-147484000D01*
X130961303Y-147536264D01*
X130713799Y-147638784D01*
X130491051Y-147787619D01*
X130301619Y-147977051D01*
X130152784Y-148199799D01*
X130050264Y-148447303D01*
X129998000Y-148710052D01*
X129998000Y-148977948D01*
X130050264Y-149240697D01*
X130152784Y-149488201D01*
X130301619Y-149710949D01*
X130491051Y-149900381D01*
X130610035Y-149979883D01*
X130600102Y-149976870D01*
X130358000Y-149953025D01*
X130115899Y-149976870D01*
X129883100Y-150047489D01*
X129668552Y-150162167D01*
X129480499Y-150316498D01*
X129326168Y-150504551D01*
X129211489Y-150719099D01*
X129140870Y-150951898D01*
X129123000Y-151133335D01*
X129123000Y-151954664D01*
X129140870Y-152136101D01*
X129211489Y-152368900D01*
X129282632Y-152502000D01*
X102642508Y-152502000D01*
X101747225Y-152429968D01*
X100900801Y-152222065D01*
X100098509Y-151881513D01*
X99360985Y-151417068D01*
X98707202Y-150840680D01*
X98153984Y-150167182D01*
X97715563Y-149413899D01*
X97403216Y-148600209D01*
X97223796Y-147741373D01*
X97180000Y-147045253D01*
X97180000Y-146688285D01*
X98781000Y-146688285D01*
X98781000Y-147443715D01*
X98928377Y-148184628D01*
X99217467Y-148882554D01*
X99637161Y-149510670D01*
X100171330Y-150044839D01*
X100799446Y-150464533D01*
X101497372Y-150753623D01*
X102238285Y-150901000D01*
X102993715Y-150901000D01*
X103734628Y-150753623D01*
X104432554Y-150464533D01*
X105060670Y-150044839D01*
X105594839Y-149510670D01*
X106014533Y-148882554D01*
X106303623Y-148184628D01*
X106451000Y-147443715D01*
X106451000Y-146688285D01*
X106303623Y-145947372D01*
X106014533Y-145249446D01*
X105594839Y-144621330D01*
X105331570Y-144358061D01*
X134415000Y-144358061D01*
X134415000Y-144561939D01*
X134454774Y-144761898D01*
X134532795Y-144950256D01*
X134646063Y-145119774D01*
X134790226Y-145263937D01*
X134959744Y-145377205D01*
X135148102Y-145455226D01*
X135348061Y-145495000D01*
X135491803Y-145495000D01*
X135484226Y-145500063D01*
X135340063Y-145644226D01*
X135226795Y-145813744D01*
X135148774Y-146002102D01*
X135109000Y-146202061D01*
X135109000Y-146405939D01*
X135148774Y-146605898D01*
X135226795Y-146794256D01*
X135340063Y-146963774D01*
X135484226Y-147107937D01*
X135653744Y-147221205D01*
X135842102Y-147299226D01*
X136042061Y-147339000D01*
X136245939Y-147339000D01*
X136445898Y-147299226D01*
X136634256Y-147221205D01*
X136803774Y-147107937D01*
X136947937Y-146963774D01*
X137061205Y-146794256D01*
X137105099Y-146688285D01*
X161265000Y-146688285D01*
X161265000Y-147443715D01*
X161412377Y-148184628D01*
X161701467Y-148882554D01*
X162121161Y-149510670D01*
X162655330Y-150044839D01*
X163283446Y-150464533D01*
X163981372Y-150753623D01*
X164722285Y-150901000D01*
X165477715Y-150901000D01*
X166218628Y-150753623D01*
X166916554Y-150464533D01*
X167544670Y-150044839D01*
X168078839Y-149510670D01*
X168498533Y-148882554D01*
X168787623Y-148184628D01*
X168935000Y-147443715D01*
X168935000Y-146688285D01*
X168787623Y-145947372D01*
X168498533Y-145249446D01*
X168078839Y-144621330D01*
X167544670Y-144087161D01*
X166916554Y-143667467D01*
X166218628Y-143378377D01*
X165477715Y-143231000D01*
X164722285Y-143231000D01*
X163981372Y-143378377D01*
X163283446Y-143667467D01*
X162655330Y-144087161D01*
X162121161Y-144621330D01*
X161701467Y-145249446D01*
X161412377Y-145947372D01*
X161265000Y-146688285D01*
X137105099Y-146688285D01*
X137139226Y-146605898D01*
X137179000Y-146405939D01*
X137179000Y-146202061D01*
X137139226Y-146002102D01*
X137061205Y-145813744D01*
X136947937Y-145644226D01*
X136803774Y-145500063D01*
X136676468Y-145415000D01*
X136831939Y-145415000D01*
X137031898Y-145375226D01*
X137220256Y-145297205D01*
X137389774Y-145183937D01*
X137533937Y-145039774D01*
X137647205Y-144870256D01*
X137725226Y-144681898D01*
X137765000Y-144481939D01*
X137765000Y-144278061D01*
X137725226Y-144078102D01*
X137647205Y-143889744D01*
X137533937Y-143720226D01*
X137389774Y-143576063D01*
X137220256Y-143462795D01*
X137031898Y-143384774D01*
X136831939Y-143345000D01*
X136628061Y-143345000D01*
X136428102Y-143384774D01*
X136239744Y-143462795D01*
X136070226Y-143576063D01*
X136038110Y-143608179D01*
X135940256Y-143542795D01*
X135751898Y-143464774D01*
X135551939Y-143425000D01*
X135348061Y-143425000D01*
X135148102Y-143464774D01*
X134959744Y-143542795D01*
X134790226Y-143656063D01*
X134646063Y-143800226D01*
X134532795Y-143969744D01*
X134454774Y-144158102D01*
X134415000Y-144358061D01*
X105331570Y-144358061D01*
X105060670Y-144087161D01*
X104432554Y-143667467D01*
X103734628Y-143378377D01*
X102993715Y-143231000D01*
X102238285Y-143231000D01*
X101497372Y-143378377D01*
X100799446Y-143667467D01*
X100171330Y-144087161D01*
X99637161Y-144621330D01*
X99217467Y-145249446D01*
X98928377Y-145947372D01*
X98781000Y-146688285D01*
X97180000Y-146688285D01*
X97180000Y-139598061D01*
X128505000Y-139598061D01*
X128505000Y-139801939D01*
X128544774Y-140001898D01*
X128622795Y-140190256D01*
X128736063Y-140359774D01*
X128880226Y-140503937D01*
X129049744Y-140617205D01*
X129238102Y-140695226D01*
X129438061Y-140735000D01*
X129641939Y-140735000D01*
X129775000Y-140708533D01*
X129775000Y-140817939D01*
X129814774Y-141017898D01*
X129892795Y-141206256D01*
X130006063Y-141375774D01*
X130150226Y-141519937D01*
X130277532Y-141605000D01*
X130150226Y-141690063D01*
X130006063Y-141834226D01*
X129892795Y-142003744D01*
X129814774Y-142192102D01*
X129775000Y-142392061D01*
X129775000Y-142595939D01*
X129814774Y-142795898D01*
X129892795Y-142984256D01*
X130006063Y-143153774D01*
X130150226Y-143297937D01*
X130319744Y-143411205D01*
X130508102Y-143489226D01*
X130708061Y-143529000D01*
X130911939Y-143529000D01*
X131111898Y-143489226D01*
X131300256Y-143411205D01*
X131469774Y-143297937D01*
X131613937Y-143153774D01*
X131727205Y-142984256D01*
X131805226Y-142795898D01*
X131845000Y-142595939D01*
X131845000Y-142392061D01*
X131805226Y-142192102D01*
X131727205Y-142003744D01*
X131613937Y-141834226D01*
X131469774Y-141690063D01*
X131342468Y-141605000D01*
X131469774Y-141519937D01*
X131613937Y-141375774D01*
X131727205Y-141206256D01*
X131805226Y-141017898D01*
X131845000Y-140817939D01*
X131845000Y-140614061D01*
X131805226Y-140414102D01*
X131727205Y-140225744D01*
X131613937Y-140056226D01*
X131469774Y-139912063D01*
X131300256Y-139798795D01*
X131111898Y-139720774D01*
X130911939Y-139681000D01*
X130708061Y-139681000D01*
X130575000Y-139707467D01*
X130575000Y-139598061D01*
X130535226Y-139398102D01*
X130457205Y-139209744D01*
X130343937Y-139040226D01*
X130199774Y-138896063D01*
X130030256Y-138782795D01*
X129841898Y-138704774D01*
X129641939Y-138665000D01*
X129438061Y-138665000D01*
X129238102Y-138704774D01*
X129049744Y-138782795D01*
X128880226Y-138896063D01*
X128736063Y-139040226D01*
X128622795Y-139209744D01*
X128544774Y-139398102D01*
X128505000Y-139598061D01*
X97180000Y-139598061D01*
X97180000Y-137820061D01*
X106153000Y-137820061D01*
X106153000Y-138023939D01*
X106192774Y-138223898D01*
X106270795Y-138412256D01*
X106384063Y-138581774D01*
X106528226Y-138725937D01*
X106697744Y-138839205D01*
X106886102Y-138917226D01*
X107086061Y-138957000D01*
X107289939Y-138957000D01*
X107489898Y-138917226D01*
X107678256Y-138839205D01*
X107847774Y-138725937D01*
X107991937Y-138581774D01*
X108105205Y-138412256D01*
X108123511Y-138368061D01*
X140505000Y-138368061D01*
X140505000Y-138571939D01*
X140544774Y-138771898D01*
X140622795Y-138960256D01*
X140736063Y-139129774D01*
X140880226Y-139273937D01*
X141049744Y-139387205D01*
X141238102Y-139465226D01*
X141438061Y-139505000D01*
X141641939Y-139505000D01*
X141841898Y-139465226D01*
X142030256Y-139387205D01*
X142199774Y-139273937D01*
X142343937Y-139129774D01*
X142457205Y-138960256D01*
X142535226Y-138771898D01*
X142575000Y-138571939D01*
X142575000Y-138368061D01*
X142535226Y-138168102D01*
X142457205Y-137979744D01*
X142343937Y-137810226D01*
X142199774Y-137666063D01*
X142030256Y-137552795D01*
X141841898Y-137474774D01*
X141641939Y-137435000D01*
X141438061Y-137435000D01*
X141238102Y-137474774D01*
X141049744Y-137552795D01*
X140880226Y-137666063D01*
X140736063Y-137810226D01*
X140622795Y-137979744D01*
X140544774Y-138168102D01*
X140505000Y-138368061D01*
X108123511Y-138368061D01*
X108183226Y-138223898D01*
X108223000Y-138023939D01*
X108223000Y-137820061D01*
X108183226Y-137620102D01*
X108105205Y-137431744D01*
X107991937Y-137262226D01*
X107847774Y-137118063D01*
X107678256Y-137004795D01*
X107489898Y-136926774D01*
X107289939Y-136887000D01*
X107086061Y-136887000D01*
X106886102Y-136926774D01*
X106697744Y-137004795D01*
X106528226Y-137118063D01*
X106384063Y-137262226D01*
X106270795Y-137431744D01*
X106192774Y-137620102D01*
X106153000Y-137820061D01*
X97180000Y-137820061D01*
X97180000Y-135534061D01*
X116059000Y-135534061D01*
X116059000Y-135737939D01*
X116098774Y-135937898D01*
X116176795Y-136126256D01*
X116290063Y-136295774D01*
X116434226Y-136439937D01*
X116603744Y-136553205D01*
X116792102Y-136631226D01*
X116992061Y-136671000D01*
X117195939Y-136671000D01*
X117395898Y-136631226D01*
X117584256Y-136553205D01*
X117753774Y-136439937D01*
X117897937Y-136295774D01*
X118011205Y-136126256D01*
X118089226Y-135937898D01*
X118129000Y-135737939D01*
X118129000Y-135534061D01*
X118089226Y-135334102D01*
X118011205Y-135145744D01*
X117897937Y-134976226D01*
X117753774Y-134832063D01*
X117584256Y-134718795D01*
X117395898Y-134640774D01*
X117195939Y-134601000D01*
X116992061Y-134601000D01*
X116792102Y-134640774D01*
X116603744Y-134718795D01*
X116434226Y-134832063D01*
X116290063Y-134976226D01*
X116176795Y-135145744D01*
X116098774Y-135334102D01*
X116059000Y-135534061D01*
X97180000Y-135534061D01*
X97180000Y-134588061D01*
X142785000Y-134588061D01*
X142785000Y-134791939D01*
X142824774Y-134991898D01*
X142902795Y-135180256D01*
X143016063Y-135349774D01*
X143160226Y-135493937D01*
X143329744Y-135607205D01*
X143518102Y-135685226D01*
X143718061Y-135725000D01*
X143921939Y-135725000D01*
X144121898Y-135685226D01*
X144310256Y-135607205D01*
X144479774Y-135493937D01*
X144623937Y-135349774D01*
X144737205Y-135180256D01*
X144815226Y-134991898D01*
X144855000Y-134791939D01*
X144855000Y-134588061D01*
X144817207Y-134398061D01*
X154445000Y-134398061D01*
X154445000Y-134601939D01*
X154484774Y-134801898D01*
X154562795Y-134990256D01*
X154676063Y-135159774D01*
X154820226Y-135303937D01*
X154989744Y-135417205D01*
X155178102Y-135495226D01*
X155378061Y-135535000D01*
X155581939Y-135535000D01*
X155781898Y-135495226D01*
X155970256Y-135417205D01*
X156139774Y-135303937D01*
X156283937Y-135159774D01*
X156397205Y-134990256D01*
X156475226Y-134801898D01*
X156515000Y-134601939D01*
X156515000Y-134398061D01*
X156475226Y-134198102D01*
X156397205Y-134009744D01*
X156283937Y-133840226D01*
X156139774Y-133696063D01*
X155970256Y-133582795D01*
X155781898Y-133504774D01*
X155581939Y-133465000D01*
X155378061Y-133465000D01*
X155178102Y-133504774D01*
X154989744Y-133582795D01*
X154820226Y-133696063D01*
X154676063Y-133840226D01*
X154562795Y-134009744D01*
X154484774Y-134198102D01*
X154445000Y-134398061D01*
X144817207Y-134398061D01*
X144815226Y-134388102D01*
X144737205Y-134199744D01*
X144623937Y-134030226D01*
X144479774Y-133886063D01*
X144310256Y-133772795D01*
X144121898Y-133694774D01*
X143921939Y-133655000D01*
X143718061Y-133655000D01*
X143518102Y-133694774D01*
X143329744Y-133772795D01*
X143160226Y-133886063D01*
X143016063Y-134030226D01*
X142902795Y-134199744D01*
X142824774Y-134388102D01*
X142785000Y-134588061D01*
X97180000Y-134588061D01*
X97180000Y-131724061D01*
X136887000Y-131724061D01*
X136887000Y-131927939D01*
X136926774Y-132127898D01*
X137004795Y-132316256D01*
X137118063Y-132485774D01*
X137262226Y-132629937D01*
X137431744Y-132743205D01*
X137576525Y-132803176D01*
X137546745Y-132847744D01*
X137468724Y-133036102D01*
X137428950Y-133236061D01*
X137428950Y-133439939D01*
X137468724Y-133639898D01*
X137546745Y-133828256D01*
X137660013Y-133997774D01*
X137804176Y-134141937D01*
X137973694Y-134255205D01*
X138162052Y-134333226D01*
X138362011Y-134373000D01*
X138565889Y-134373000D01*
X138765848Y-134333226D01*
X138954206Y-134255205D01*
X139123724Y-134141937D01*
X139267887Y-133997774D01*
X139381155Y-133828256D01*
X139459176Y-133639898D01*
X139498950Y-133439939D01*
X139498950Y-133236061D01*
X139459176Y-133036102D01*
X139381155Y-132847744D01*
X139267887Y-132678226D01*
X139123724Y-132534063D01*
X138954206Y-132420795D01*
X138809425Y-132360824D01*
X138839205Y-132316256D01*
X138917226Y-132127898D01*
X138957000Y-131927939D01*
X138957000Y-131724061D01*
X138917226Y-131524102D01*
X138839205Y-131335744D01*
X138725937Y-131166226D01*
X138581774Y-131022063D01*
X138412256Y-130908795D01*
X138223898Y-130830774D01*
X138023939Y-130791000D01*
X137820061Y-130791000D01*
X137620102Y-130830774D01*
X137431744Y-130908795D01*
X137262226Y-131022063D01*
X137118063Y-131166226D01*
X137004795Y-131335744D01*
X136926774Y-131524102D01*
X136887000Y-131724061D01*
X97180000Y-131724061D01*
X97180000Y-129692061D01*
X114535000Y-129692061D01*
X114535000Y-129895939D01*
X114574774Y-130095898D01*
X114652795Y-130284256D01*
X114766063Y-130453774D01*
X114910226Y-130597937D01*
X115079744Y-130711205D01*
X115268102Y-130789226D01*
X115468061Y-130829000D01*
X115671939Y-130829000D01*
X115871898Y-130789226D01*
X116060256Y-130711205D01*
X116229774Y-130597937D01*
X116332000Y-130495711D01*
X116434226Y-130597937D01*
X116603744Y-130711205D01*
X116792102Y-130789226D01*
X116992061Y-130829000D01*
X117195939Y-130829000D01*
X117395898Y-130789226D01*
X117584256Y-130711205D01*
X117753774Y-130597937D01*
X117897937Y-130453774D01*
X118011205Y-130284256D01*
X118089226Y-130095898D01*
X118129000Y-129895939D01*
X118129000Y-129692061D01*
X118089226Y-129492102D01*
X118011205Y-129303744D01*
X117897937Y-129134226D01*
X117753774Y-128990063D01*
X117584256Y-128876795D01*
X117395898Y-128798774D01*
X117195939Y-128759000D01*
X116992061Y-128759000D01*
X116792102Y-128798774D01*
X116603744Y-128876795D01*
X116434226Y-128990063D01*
X116332000Y-129092289D01*
X116229774Y-128990063D01*
X116060256Y-128876795D01*
X115871898Y-128798774D01*
X115671939Y-128759000D01*
X115468061Y-128759000D01*
X115268102Y-128798774D01*
X115079744Y-128876795D01*
X114910226Y-128990063D01*
X114766063Y-129134226D01*
X114652795Y-129303744D01*
X114574774Y-129492102D01*
X114535000Y-129692061D01*
X97180000Y-129692061D01*
X97180000Y-127406061D01*
X115043000Y-127406061D01*
X115043000Y-127609939D01*
X115082774Y-127809898D01*
X115160795Y-127998256D01*
X115274063Y-128167774D01*
X115418226Y-128311937D01*
X115587744Y-128425205D01*
X115776102Y-128503226D01*
X115976061Y-128543000D01*
X116179939Y-128543000D01*
X116379898Y-128503226D01*
X116568256Y-128425205D01*
X116598495Y-128405000D01*
X141326928Y-128405000D01*
X141339188Y-128529482D01*
X141375498Y-128649180D01*
X141434463Y-128759494D01*
X141513815Y-128856185D01*
X141610506Y-128935537D01*
X141720820Y-128994502D01*
X141840518Y-129030812D01*
X141965000Y-129043072D01*
X142204250Y-129040000D01*
X142363000Y-128881250D01*
X142363000Y-128007000D01*
X141488750Y-128007000D01*
X141330000Y-128165750D01*
X141326928Y-128405000D01*
X116598495Y-128405000D01*
X116737774Y-128311937D01*
X116799094Y-128250617D01*
X116992061Y-128289000D01*
X117195939Y-128289000D01*
X117395898Y-128249226D01*
X117584256Y-128171205D01*
X117753774Y-128057937D01*
X117897937Y-127913774D01*
X118011205Y-127744256D01*
X118089226Y-127555898D01*
X118095371Y-127525000D01*
X120756928Y-127525000D01*
X120769188Y-127649482D01*
X120805498Y-127769180D01*
X120864463Y-127879494D01*
X120943815Y-127976185D01*
X121040506Y-128055537D01*
X121150820Y-128114502D01*
X121270518Y-128150812D01*
X121395000Y-128163072D01*
X121634250Y-128160000D01*
X121793000Y-128001250D01*
X121793000Y-127127000D01*
X120918750Y-127127000D01*
X120760000Y-127285750D01*
X120756928Y-127525000D01*
X118095371Y-127525000D01*
X118129000Y-127355939D01*
X118129000Y-127152061D01*
X118089226Y-126952102D01*
X118011205Y-126763744D01*
X117897937Y-126594226D01*
X117778711Y-126475000D01*
X120756928Y-126475000D01*
X120760000Y-126714250D01*
X120918750Y-126873000D01*
X121793000Y-126873000D01*
X121793000Y-125998750D01*
X122047000Y-125998750D01*
X122047000Y-126873000D01*
X122067000Y-126873000D01*
X122067000Y-127127000D01*
X122047000Y-127127000D01*
X122047000Y-128001250D01*
X122205750Y-128160000D01*
X122445000Y-128163072D01*
X122569482Y-128150812D01*
X122689180Y-128114502D01*
X122799494Y-128055537D01*
X122849885Y-128014182D01*
X122870534Y-128027979D01*
X123081640Y-128115422D01*
X123305750Y-128160000D01*
X123534250Y-128160000D01*
X123758360Y-128115422D01*
X123969466Y-128027979D01*
X124159457Y-127901031D01*
X124321031Y-127739457D01*
X124447979Y-127549466D01*
X124528529Y-127355000D01*
X141326928Y-127355000D01*
X141330000Y-127594250D01*
X141488750Y-127753000D01*
X142363000Y-127753000D01*
X142363000Y-126878750D01*
X142617000Y-126878750D01*
X142617000Y-127753000D01*
X142637000Y-127753000D01*
X142637000Y-128007000D01*
X142617000Y-128007000D01*
X142617000Y-128881250D01*
X142775750Y-129040000D01*
X143015000Y-129043072D01*
X143139482Y-129030812D01*
X143259180Y-128994502D01*
X143369494Y-128935537D01*
X143419885Y-128894182D01*
X143440534Y-128907979D01*
X143651640Y-128995422D01*
X143875750Y-129040000D01*
X144104250Y-129040000D01*
X144328360Y-128995422D01*
X144539466Y-128907979D01*
X144729457Y-128781031D01*
X144891031Y-128619457D01*
X145017979Y-128429466D01*
X145105422Y-128218360D01*
X145150000Y-127994250D01*
X145150000Y-127765750D01*
X145105422Y-127541640D01*
X145017979Y-127330534D01*
X144891031Y-127140543D01*
X144729457Y-126978969D01*
X144539466Y-126852021D01*
X144328360Y-126764578D01*
X144104250Y-126720000D01*
X143875750Y-126720000D01*
X143651640Y-126764578D01*
X143440534Y-126852021D01*
X143419885Y-126865818D01*
X143369494Y-126824463D01*
X143259180Y-126765498D01*
X143139482Y-126729188D01*
X143015000Y-126716928D01*
X142775750Y-126720000D01*
X142617000Y-126878750D01*
X142363000Y-126878750D01*
X142204250Y-126720000D01*
X141965000Y-126716928D01*
X141840518Y-126729188D01*
X141720820Y-126765498D01*
X141610506Y-126824463D01*
X141513815Y-126903815D01*
X141434463Y-127000506D01*
X141375498Y-127110820D01*
X141339188Y-127230518D01*
X141326928Y-127355000D01*
X124528529Y-127355000D01*
X124535422Y-127338360D01*
X124580000Y-127114250D01*
X124580000Y-126885750D01*
X124535422Y-126661640D01*
X124447979Y-126450534D01*
X124321031Y-126260543D01*
X124159457Y-126098969D01*
X123969466Y-125972021D01*
X123758360Y-125884578D01*
X123534250Y-125840000D01*
X123305750Y-125840000D01*
X123081640Y-125884578D01*
X122870534Y-125972021D01*
X122849885Y-125985818D01*
X122799494Y-125944463D01*
X122689180Y-125885498D01*
X122569482Y-125849188D01*
X122445000Y-125836928D01*
X122205750Y-125840000D01*
X122047000Y-125998750D01*
X121793000Y-125998750D01*
X121634250Y-125840000D01*
X121395000Y-125836928D01*
X121270518Y-125849188D01*
X121150820Y-125885498D01*
X121040506Y-125944463D01*
X120943815Y-126023815D01*
X120864463Y-126120506D01*
X120805498Y-126230820D01*
X120769188Y-126350518D01*
X120756928Y-126475000D01*
X117778711Y-126475000D01*
X117753774Y-126450063D01*
X117584256Y-126336795D01*
X117395898Y-126258774D01*
X117195939Y-126219000D01*
X116992061Y-126219000D01*
X116792102Y-126258774D01*
X116603744Y-126336795D01*
X116434226Y-126450063D01*
X116372906Y-126511383D01*
X116179939Y-126473000D01*
X115976061Y-126473000D01*
X115776102Y-126512774D01*
X115587744Y-126590795D01*
X115418226Y-126704063D01*
X115274063Y-126848226D01*
X115160795Y-127017744D01*
X115082774Y-127206102D01*
X115043000Y-127406061D01*
X97180000Y-127406061D01*
X97180000Y-123548059D01*
X114281000Y-123548059D01*
X114281000Y-123751937D01*
X114320774Y-123951896D01*
X114398795Y-124140254D01*
X114512063Y-124309772D01*
X114656226Y-124453935D01*
X114825744Y-124567203D01*
X115014102Y-124645224D01*
X115214061Y-124684998D01*
X115417939Y-124684998D01*
X115617898Y-124645224D01*
X115806256Y-124567203D01*
X115975774Y-124453935D01*
X116119937Y-124309772D01*
X116233205Y-124140254D01*
X116311226Y-123951896D01*
X116351000Y-123751937D01*
X116351000Y-123596061D01*
X119107000Y-123596061D01*
X119107000Y-123799939D01*
X119146774Y-123999898D01*
X119224795Y-124188256D01*
X119338063Y-124357774D01*
X119482226Y-124501937D01*
X119651744Y-124615205D01*
X119840102Y-124693226D01*
X120040061Y-124733000D01*
X120243939Y-124733000D01*
X120443898Y-124693226D01*
X120632256Y-124615205D01*
X120801774Y-124501937D01*
X120945937Y-124357774D01*
X121059205Y-124188256D01*
X121137226Y-123999898D01*
X121177000Y-123799939D01*
X121177000Y-123596061D01*
X130029000Y-123596061D01*
X130029000Y-123799939D01*
X130068774Y-123999898D01*
X130146795Y-124188256D01*
X130260063Y-124357774D01*
X130404226Y-124501937D01*
X130573744Y-124615205D01*
X130762102Y-124693226D01*
X130962061Y-124733000D01*
X131165939Y-124733000D01*
X131365898Y-124693226D01*
X131554256Y-124615205D01*
X131723774Y-124501937D01*
X131867937Y-124357774D01*
X131981205Y-124188256D01*
X132059226Y-123999898D01*
X132099000Y-123799939D01*
X132099000Y-123596061D01*
X132059226Y-123396102D01*
X131981205Y-123207744D01*
X131867937Y-123038226D01*
X131723774Y-122894063D01*
X131554256Y-122780795D01*
X131365898Y-122702774D01*
X131165939Y-122663000D01*
X130962061Y-122663000D01*
X130762102Y-122702774D01*
X130573744Y-122780795D01*
X130404226Y-122894063D01*
X130260063Y-123038226D01*
X130146795Y-123207744D01*
X130068774Y-123396102D01*
X130029000Y-123596061D01*
X121177000Y-123596061D01*
X121137226Y-123396102D01*
X121059205Y-123207744D01*
X120945937Y-123038226D01*
X120801774Y-122894063D01*
X120632256Y-122780795D01*
X120443898Y-122702774D01*
X120243939Y-122663000D01*
X120040061Y-122663000D01*
X119840102Y-122702774D01*
X119651744Y-122780795D01*
X119482226Y-122894063D01*
X119338063Y-123038226D01*
X119224795Y-123207744D01*
X119146774Y-123396102D01*
X119107000Y-123596061D01*
X116351000Y-123596061D01*
X116351000Y-123548059D01*
X116311226Y-123348100D01*
X116233205Y-123159742D01*
X116119937Y-122990224D01*
X115975774Y-122846061D01*
X115806256Y-122732793D01*
X115617898Y-122654772D01*
X115417939Y-122614998D01*
X115214061Y-122614998D01*
X115014102Y-122654772D01*
X114825744Y-122732793D01*
X114656226Y-122846061D01*
X114512063Y-122990224D01*
X114398795Y-123159742D01*
X114320774Y-123348100D01*
X114281000Y-123548059D01*
X97180000Y-123548059D01*
X97180000Y-120040061D01*
X103359000Y-120040061D01*
X103359000Y-120243939D01*
X103398774Y-120443898D01*
X103476795Y-120632256D01*
X103590063Y-120801774D01*
X103734226Y-120945937D01*
X103903744Y-121059205D01*
X104092102Y-121137226D01*
X104258945Y-121170413D01*
X104352063Y-121309774D01*
X104496226Y-121453937D01*
X104665744Y-121567205D01*
X104854102Y-121645226D01*
X105054061Y-121685000D01*
X105257939Y-121685000D01*
X105457898Y-121645226D01*
X105646256Y-121567205D01*
X105815774Y-121453937D01*
X105959937Y-121309774D01*
X106073205Y-121140256D01*
X106111393Y-121048061D01*
X110026202Y-121048061D01*
X110026202Y-121251939D01*
X110065976Y-121451898D01*
X110143997Y-121640256D01*
X110257265Y-121809774D01*
X110401428Y-121953937D01*
X110570946Y-122067205D01*
X110759304Y-122145226D01*
X110959263Y-122185000D01*
X111163141Y-122185000D01*
X111363100Y-122145226D01*
X111551458Y-122067205D01*
X111720976Y-121953937D01*
X111865139Y-121809774D01*
X111978407Y-121640256D01*
X112056428Y-121451898D01*
X112096202Y-121251939D01*
X112096202Y-121048061D01*
X112056428Y-120848102D01*
X111978407Y-120659744D01*
X111865139Y-120490226D01*
X111720976Y-120346063D01*
X111551458Y-120232795D01*
X111363100Y-120154774D01*
X111163141Y-120115000D01*
X110959263Y-120115000D01*
X110759304Y-120154774D01*
X110570946Y-120232795D01*
X110401428Y-120346063D01*
X110257265Y-120490226D01*
X110143997Y-120659744D01*
X110065976Y-120848102D01*
X110026202Y-121048061D01*
X106111393Y-121048061D01*
X106151226Y-120951898D01*
X106191000Y-120751939D01*
X106191000Y-120548061D01*
X106151226Y-120348102D01*
X106073205Y-120159744D01*
X105959937Y-119990226D01*
X105815774Y-119846063D01*
X105646256Y-119732795D01*
X105457898Y-119654774D01*
X105291055Y-119621587D01*
X105197937Y-119482226D01*
X105053774Y-119338063D01*
X104884256Y-119224795D01*
X104695898Y-119146774D01*
X104495939Y-119107000D01*
X104292061Y-119107000D01*
X104092102Y-119146774D01*
X103903744Y-119224795D01*
X103734226Y-119338063D01*
X103590063Y-119482226D01*
X103476795Y-119651744D01*
X103398774Y-119840102D01*
X103359000Y-120040061D01*
X97180000Y-120040061D01*
X97180000Y-118008061D01*
X110979000Y-118008061D01*
X110979000Y-118211939D01*
X111018774Y-118411898D01*
X111096795Y-118600256D01*
X111210063Y-118769774D01*
X111354226Y-118913937D01*
X111523744Y-119027205D01*
X111712102Y-119105226D01*
X111789374Y-119120596D01*
X111711706Y-119308103D01*
X111671932Y-119508062D01*
X111671932Y-119711940D01*
X111711706Y-119911899D01*
X111789727Y-120100257D01*
X111902995Y-120269775D01*
X112047158Y-120413938D01*
X112216676Y-120527206D01*
X112405034Y-120605227D01*
X112604993Y-120645001D01*
X112808871Y-120645001D01*
X113008830Y-120605227D01*
X113197188Y-120527206D01*
X113366706Y-120413938D01*
X113510869Y-120269775D01*
X113624137Y-120100257D01*
X113702158Y-119911899D01*
X113741932Y-119711940D01*
X113741932Y-119548594D01*
X113774256Y-119535205D01*
X113943774Y-119421937D01*
X114087650Y-119278061D01*
X114535000Y-119278061D01*
X114535000Y-119481939D01*
X114574774Y-119681898D01*
X114652795Y-119870256D01*
X114766063Y-120039774D01*
X114910226Y-120183937D01*
X115079744Y-120297205D01*
X115268102Y-120375226D01*
X115468061Y-120415000D01*
X115577467Y-120415000D01*
X115551000Y-120548061D01*
X115551000Y-120751939D01*
X115590774Y-120951898D01*
X115668795Y-121140256D01*
X115782063Y-121309774D01*
X115926226Y-121453937D01*
X116095744Y-121567205D01*
X116284102Y-121645226D01*
X116484061Y-121685000D01*
X116687939Y-121685000D01*
X116887898Y-121645226D01*
X117076256Y-121567205D01*
X117245774Y-121453937D01*
X117389937Y-121309774D01*
X117503205Y-121140256D01*
X117538079Y-121056061D01*
X123679000Y-121056061D01*
X123679000Y-121259939D01*
X123718774Y-121459898D01*
X123796795Y-121648256D01*
X123910063Y-121817774D01*
X124054226Y-121961937D01*
X124223744Y-122075205D01*
X124412102Y-122153226D01*
X124612061Y-122193000D01*
X124815939Y-122193000D01*
X125015898Y-122153226D01*
X125204256Y-122075205D01*
X125373774Y-121961937D01*
X125517937Y-121817774D01*
X125631205Y-121648256D01*
X125647854Y-121608061D01*
X138745000Y-121608061D01*
X138745000Y-121811939D01*
X138784774Y-122011898D01*
X138862795Y-122200256D01*
X138976063Y-122369774D01*
X139120226Y-122513937D01*
X139289744Y-122627205D01*
X139478102Y-122705226D01*
X139678061Y-122745000D01*
X139881939Y-122745000D01*
X140081898Y-122705226D01*
X140270256Y-122627205D01*
X140439774Y-122513937D01*
X140583937Y-122369774D01*
X140697205Y-122200256D01*
X140775226Y-122011898D01*
X140815000Y-121811939D01*
X140815000Y-121618061D01*
X141195000Y-121618061D01*
X141195000Y-121821939D01*
X141234774Y-122021898D01*
X141312795Y-122210256D01*
X141426063Y-122379774D01*
X141570226Y-122523937D01*
X141739744Y-122637205D01*
X141928102Y-122715226D01*
X142128061Y-122755000D01*
X142331939Y-122755000D01*
X142531898Y-122715226D01*
X142720256Y-122637205D01*
X142889774Y-122523937D01*
X142995000Y-122418711D01*
X143030226Y-122453937D01*
X143199744Y-122567205D01*
X143388102Y-122645226D01*
X143588061Y-122685000D01*
X143791939Y-122685000D01*
X143991898Y-122645226D01*
X144180256Y-122567205D01*
X144349774Y-122453937D01*
X144493937Y-122309774D01*
X144607205Y-122140256D01*
X144685226Y-121951898D01*
X144725000Y-121751939D01*
X144725000Y-121548061D01*
X144717044Y-121508061D01*
X144785000Y-121508061D01*
X144785000Y-121711939D01*
X144824774Y-121911898D01*
X144902795Y-122100256D01*
X145016063Y-122269774D01*
X145160226Y-122413937D01*
X145329744Y-122527205D01*
X145518102Y-122605226D01*
X145718061Y-122645000D01*
X145921939Y-122645000D01*
X146121898Y-122605226D01*
X146310256Y-122527205D01*
X146479774Y-122413937D01*
X146623937Y-122269774D01*
X146737205Y-122100256D01*
X146815226Y-121911898D01*
X146855000Y-121711939D01*
X146855000Y-121508061D01*
X146815226Y-121308102D01*
X146737205Y-121119744D01*
X146623937Y-120950226D01*
X146479774Y-120806063D01*
X146310256Y-120692795D01*
X146121898Y-120614774D01*
X145921939Y-120575000D01*
X145718061Y-120575000D01*
X145518102Y-120614774D01*
X145329744Y-120692795D01*
X145160226Y-120806063D01*
X145016063Y-120950226D01*
X144902795Y-121119744D01*
X144824774Y-121308102D01*
X144785000Y-121508061D01*
X144717044Y-121508061D01*
X144685226Y-121348102D01*
X144607205Y-121159744D01*
X144493937Y-120990226D01*
X144349774Y-120846063D01*
X144180256Y-120732795D01*
X143991898Y-120654774D01*
X143791939Y-120615000D01*
X143588061Y-120615000D01*
X143388102Y-120654774D01*
X143199744Y-120732795D01*
X143030226Y-120846063D01*
X142925000Y-120951289D01*
X142889774Y-120916063D01*
X142720256Y-120802795D01*
X142531898Y-120724774D01*
X142331939Y-120685000D01*
X142128061Y-120685000D01*
X141928102Y-120724774D01*
X141739744Y-120802795D01*
X141570226Y-120916063D01*
X141426063Y-121060226D01*
X141312795Y-121229744D01*
X141234774Y-121418102D01*
X141195000Y-121618061D01*
X140815000Y-121618061D01*
X140815000Y-121608061D01*
X140775226Y-121408102D01*
X140697205Y-121219744D01*
X140583937Y-121050226D01*
X140439774Y-120906063D01*
X140270256Y-120792795D01*
X140081898Y-120714774D01*
X139881939Y-120675000D01*
X139678061Y-120675000D01*
X139478102Y-120714774D01*
X139289744Y-120792795D01*
X139120226Y-120906063D01*
X138976063Y-121050226D01*
X138862795Y-121219744D01*
X138784774Y-121408102D01*
X138745000Y-121608061D01*
X125647854Y-121608061D01*
X125709226Y-121459898D01*
X125749000Y-121259939D01*
X125749000Y-121056061D01*
X125709226Y-120856102D01*
X125631205Y-120667744D01*
X125517937Y-120498226D01*
X125373774Y-120354063D01*
X125204256Y-120240795D01*
X125015898Y-120162774D01*
X124815939Y-120123000D01*
X124612061Y-120123000D01*
X124412102Y-120162774D01*
X124223744Y-120240795D01*
X124054226Y-120354063D01*
X123910063Y-120498226D01*
X123796795Y-120667744D01*
X123718774Y-120856102D01*
X123679000Y-121056061D01*
X117538079Y-121056061D01*
X117581226Y-120951898D01*
X117621000Y-120751939D01*
X117621000Y-120548061D01*
X117581226Y-120348102D01*
X117503205Y-120159744D01*
X117389937Y-119990226D01*
X117245774Y-119846063D01*
X117076256Y-119732795D01*
X116887898Y-119654774D01*
X116687939Y-119615000D01*
X116578533Y-119615000D01*
X116605000Y-119481939D01*
X116605000Y-119278061D01*
X119361000Y-119278061D01*
X119361000Y-119481939D01*
X119400774Y-119681898D01*
X119478795Y-119870256D01*
X119592063Y-120039774D01*
X119736226Y-120183937D01*
X119905744Y-120297205D01*
X120094102Y-120375226D01*
X120294061Y-120415000D01*
X120497939Y-120415000D01*
X120697898Y-120375226D01*
X120886256Y-120297205D01*
X121055774Y-120183937D01*
X121199937Y-120039774D01*
X121313205Y-119870256D01*
X121391226Y-119681898D01*
X121431000Y-119481939D01*
X121431000Y-119278061D01*
X121391226Y-119078102D01*
X121313205Y-118889744D01*
X121199937Y-118720226D01*
X121055774Y-118576063D01*
X120886256Y-118462795D01*
X120697898Y-118384774D01*
X120497939Y-118345000D01*
X120294061Y-118345000D01*
X120094102Y-118384774D01*
X119905744Y-118462795D01*
X119736226Y-118576063D01*
X119592063Y-118720226D01*
X119478795Y-118889744D01*
X119400774Y-119078102D01*
X119361000Y-119278061D01*
X116605000Y-119278061D01*
X116565226Y-119078102D01*
X116487205Y-118889744D01*
X116373937Y-118720226D01*
X116229774Y-118576063D01*
X116060256Y-118462795D01*
X115871898Y-118384774D01*
X115671939Y-118345000D01*
X115468061Y-118345000D01*
X115268102Y-118384774D01*
X115079744Y-118462795D01*
X114910226Y-118576063D01*
X114766063Y-118720226D01*
X114652795Y-118889744D01*
X114574774Y-119078102D01*
X114535000Y-119278061D01*
X114087650Y-119278061D01*
X114087937Y-119277774D01*
X114201205Y-119108256D01*
X114279226Y-118919898D01*
X114319000Y-118719939D01*
X114319000Y-118516061D01*
X114279226Y-118316102D01*
X114201205Y-118127744D01*
X114087937Y-117958226D01*
X113943774Y-117814063D01*
X113853975Y-117754061D01*
X131045000Y-117754061D01*
X131045000Y-117957939D01*
X131084774Y-118157898D01*
X131162795Y-118346256D01*
X131276063Y-118515774D01*
X131420226Y-118659937D01*
X131589744Y-118773205D01*
X131778102Y-118851226D01*
X131978061Y-118891000D01*
X132181939Y-118891000D01*
X132381898Y-118851226D01*
X132570256Y-118773205D01*
X132739774Y-118659937D01*
X132883937Y-118515774D01*
X132989317Y-118358061D01*
X142445000Y-118358061D01*
X142445000Y-118561939D01*
X142484774Y-118761898D01*
X142562795Y-118950256D01*
X142676063Y-119119774D01*
X142820226Y-119263937D01*
X142989744Y-119377205D01*
X143178102Y-119455226D01*
X143378061Y-119495000D01*
X143581939Y-119495000D01*
X143781898Y-119455226D01*
X143970256Y-119377205D01*
X144139774Y-119263937D01*
X144283937Y-119119774D01*
X144397205Y-118950256D01*
X144475226Y-118761898D01*
X144515000Y-118561939D01*
X144515000Y-118358061D01*
X144475226Y-118158102D01*
X144397205Y-117969744D01*
X144283937Y-117800226D01*
X144139774Y-117656063D01*
X143970256Y-117542795D01*
X143781898Y-117464774D01*
X143581939Y-117425000D01*
X143378061Y-117425000D01*
X143178102Y-117464774D01*
X142989744Y-117542795D01*
X142820226Y-117656063D01*
X142676063Y-117800226D01*
X142562795Y-117969744D01*
X142484774Y-118158102D01*
X142445000Y-118358061D01*
X132989317Y-118358061D01*
X132997205Y-118346256D01*
X133075226Y-118157898D01*
X133115000Y-117957939D01*
X133115000Y-117754061D01*
X133075226Y-117554102D01*
X132997205Y-117365744D01*
X132883937Y-117196226D01*
X132739774Y-117052063D01*
X132570256Y-116938795D01*
X132381898Y-116860774D01*
X132181939Y-116821000D01*
X131978061Y-116821000D01*
X131778102Y-116860774D01*
X131589744Y-116938795D01*
X131420226Y-117052063D01*
X131276063Y-117196226D01*
X131162795Y-117365744D01*
X131084774Y-117554102D01*
X131045000Y-117754061D01*
X113853975Y-117754061D01*
X113774256Y-117700795D01*
X113585898Y-117622774D01*
X113385939Y-117583000D01*
X113182061Y-117583000D01*
X112982102Y-117622774D01*
X112939730Y-117640325D01*
X112931205Y-117619744D01*
X112817937Y-117450226D01*
X112673774Y-117306063D01*
X112504256Y-117192795D01*
X112315898Y-117114774D01*
X112115939Y-117075000D01*
X111912061Y-117075000D01*
X111712102Y-117114774D01*
X111523744Y-117192795D01*
X111354226Y-117306063D01*
X111210063Y-117450226D01*
X111096795Y-117619744D01*
X111018774Y-117808102D01*
X110979000Y-118008061D01*
X97180000Y-118008061D01*
X97180000Y-116265953D01*
X119071108Y-116265953D01*
X119071108Y-116469831D01*
X119110882Y-116669790D01*
X119188903Y-116858148D01*
X119302171Y-117027666D01*
X119446334Y-117171829D01*
X119615852Y-117285097D01*
X119804210Y-117363118D01*
X120004169Y-117402892D01*
X120208047Y-117402892D01*
X120408006Y-117363118D01*
X120596364Y-117285097D01*
X120765882Y-117171829D01*
X120910045Y-117027666D01*
X121023313Y-116858148D01*
X121101334Y-116669790D01*
X121141108Y-116469831D01*
X121141108Y-116265953D01*
X121101334Y-116065994D01*
X121023313Y-115877636D01*
X120910045Y-115708118D01*
X120901818Y-115699891D01*
X120921744Y-115713205D01*
X121110102Y-115791226D01*
X121310061Y-115831000D01*
X121513939Y-115831000D01*
X121713898Y-115791226D01*
X121902256Y-115713205D01*
X122071774Y-115599937D01*
X122215937Y-115455774D01*
X122329205Y-115286256D01*
X122407226Y-115097898D01*
X122447000Y-114897939D01*
X122447000Y-114694061D01*
X122407226Y-114494102D01*
X122329205Y-114305744D01*
X122215937Y-114136226D01*
X122071774Y-113992063D01*
X121902256Y-113878795D01*
X121713898Y-113800774D01*
X121513939Y-113761000D01*
X121310061Y-113761000D01*
X121110102Y-113800774D01*
X120921744Y-113878795D01*
X120752226Y-113992063D01*
X120608063Y-114136226D01*
X120494795Y-114305744D01*
X120416774Y-114494102D01*
X120377000Y-114694061D01*
X120377000Y-114897939D01*
X120416774Y-115097898D01*
X120494795Y-115286256D01*
X120608063Y-115455774D01*
X120616290Y-115464001D01*
X120596364Y-115450687D01*
X120408006Y-115372666D01*
X120208047Y-115332892D01*
X120004169Y-115332892D01*
X119804210Y-115372666D01*
X119615852Y-115450687D01*
X119446334Y-115563955D01*
X119302171Y-115708118D01*
X119188903Y-115877636D01*
X119110882Y-116065994D01*
X119071108Y-116265953D01*
X97180000Y-116265953D01*
X97180000Y-114198061D01*
X103359000Y-114198061D01*
X103359000Y-114401939D01*
X103398774Y-114601898D01*
X103476795Y-114790256D01*
X103590063Y-114959774D01*
X103734226Y-115103937D01*
X103903744Y-115217205D01*
X104092102Y-115295226D01*
X104292061Y-115335000D01*
X104495939Y-115335000D01*
X104695898Y-115295226D01*
X104884256Y-115217205D01*
X105053774Y-115103937D01*
X105197937Y-114959774D01*
X105311205Y-114790256D01*
X105389226Y-114601898D01*
X105429000Y-114401939D01*
X105429000Y-114198061D01*
X105389226Y-113998102D01*
X105311205Y-113809744D01*
X105197937Y-113640226D01*
X105053774Y-113496063D01*
X104884256Y-113382795D01*
X104695898Y-113304774D01*
X104495939Y-113265000D01*
X104292061Y-113265000D01*
X104092102Y-113304774D01*
X103903744Y-113382795D01*
X103734226Y-113496063D01*
X103590063Y-113640226D01*
X103476795Y-113809744D01*
X103398774Y-113998102D01*
X103359000Y-114198061D01*
X97180000Y-114198061D01*
X97180000Y-112928061D01*
X124949000Y-112928061D01*
X124949000Y-113131939D01*
X124988774Y-113331898D01*
X125066795Y-113520256D01*
X125180063Y-113689774D01*
X125324226Y-113833937D01*
X125493744Y-113947205D01*
X125682102Y-114025226D01*
X125882061Y-114065000D01*
X126034956Y-114065000D01*
X125913771Y-114089105D01*
X125725413Y-114167126D01*
X125555895Y-114280394D01*
X125411732Y-114424557D01*
X125298464Y-114594075D01*
X125220443Y-114782433D01*
X125180669Y-114982392D01*
X125180669Y-115186270D01*
X125220443Y-115386229D01*
X125298464Y-115574587D01*
X125411732Y-115744105D01*
X125555895Y-115888268D01*
X125725413Y-116001536D01*
X125913771Y-116079557D01*
X126113730Y-116119331D01*
X126317608Y-116119331D01*
X126517567Y-116079557D01*
X126705925Y-116001536D01*
X126875443Y-115888268D01*
X127019606Y-115744105D01*
X127132874Y-115574587D01*
X127210895Y-115386229D01*
X127245141Y-115214061D01*
X129521000Y-115214061D01*
X129521000Y-115417939D01*
X129560774Y-115617898D01*
X129638795Y-115806256D01*
X129752063Y-115975774D01*
X129896226Y-116119937D01*
X130065744Y-116233205D01*
X130254102Y-116311226D01*
X130454061Y-116351000D01*
X130657939Y-116351000D01*
X130857898Y-116311226D01*
X131046256Y-116233205D01*
X131215774Y-116119937D01*
X131353066Y-115982645D01*
X131394464Y-116082587D01*
X131507732Y-116252105D01*
X131651895Y-116396268D01*
X131821413Y-116509536D01*
X132009771Y-116587557D01*
X132209730Y-116627331D01*
X132413608Y-116627331D01*
X132613567Y-116587557D01*
X132801925Y-116509536D01*
X132971443Y-116396268D01*
X133115606Y-116252105D01*
X133228874Y-116082587D01*
X133306895Y-115894229D01*
X133346669Y-115694270D01*
X133346669Y-115572730D01*
X133480331Y-115572730D01*
X133480331Y-115776608D01*
X133520105Y-115976567D01*
X133598126Y-116164925D01*
X133711394Y-116334443D01*
X133855557Y-116478606D01*
X134025075Y-116591874D01*
X134213433Y-116669895D01*
X134413392Y-116709669D01*
X134418160Y-116709669D01*
X134464795Y-116822256D01*
X134578063Y-116991774D01*
X134722226Y-117135937D01*
X134891744Y-117249205D01*
X135080102Y-117327226D01*
X135280061Y-117367000D01*
X135483939Y-117367000D01*
X135683898Y-117327226D01*
X135872256Y-117249205D01*
X136041774Y-117135937D01*
X136185937Y-116991774D01*
X136299205Y-116822256D01*
X136377226Y-116633898D01*
X136417000Y-116433939D01*
X136417000Y-116230061D01*
X136377226Y-116030102D01*
X136299205Y-115841744D01*
X136185937Y-115672226D01*
X136041774Y-115528063D01*
X135872256Y-115414795D01*
X135683898Y-115336774D01*
X135483939Y-115297000D01*
X135479171Y-115297000D01*
X135432536Y-115184413D01*
X135319268Y-115014895D01*
X135175105Y-114870732D01*
X135005587Y-114757464D01*
X134817229Y-114679443D01*
X134617270Y-114639669D01*
X134413392Y-114639669D01*
X134213433Y-114679443D01*
X134025075Y-114757464D01*
X133855557Y-114870732D01*
X133711394Y-115014895D01*
X133598126Y-115184413D01*
X133520105Y-115372771D01*
X133480331Y-115572730D01*
X133346669Y-115572730D01*
X133346669Y-115490392D01*
X133306895Y-115290433D01*
X133228874Y-115102075D01*
X133115606Y-114932557D01*
X132999081Y-114816032D01*
X133143898Y-114787226D01*
X133332256Y-114709205D01*
X133501774Y-114595937D01*
X133645937Y-114451774D01*
X133759205Y-114282256D01*
X133837226Y-114093898D01*
X133867030Y-113944061D01*
X138157000Y-113944061D01*
X138157000Y-114147939D01*
X138196774Y-114347898D01*
X138274795Y-114536256D01*
X138388063Y-114705774D01*
X138532226Y-114849937D01*
X138701744Y-114963205D01*
X138890102Y-115041226D01*
X139090061Y-115081000D01*
X139293939Y-115081000D01*
X139493898Y-115041226D01*
X139682256Y-114963205D01*
X139851774Y-114849937D01*
X139995937Y-114705774D01*
X140109205Y-114536256D01*
X140187226Y-114347898D01*
X140227000Y-114147939D01*
X140227000Y-113944061D01*
X140187226Y-113744102D01*
X140109205Y-113555744D01*
X139995937Y-113386226D01*
X139851774Y-113242063D01*
X139682256Y-113128795D01*
X139493898Y-113050774D01*
X139293939Y-113011000D01*
X139090061Y-113011000D01*
X138890102Y-113050774D01*
X138701744Y-113128795D01*
X138532226Y-113242063D01*
X138388063Y-113386226D01*
X138274795Y-113555744D01*
X138196774Y-113744102D01*
X138157000Y-113944061D01*
X133867030Y-113944061D01*
X133877000Y-113893939D01*
X133877000Y-113690061D01*
X133837226Y-113490102D01*
X133759205Y-113301744D01*
X133645937Y-113132226D01*
X133501774Y-112988063D01*
X133332256Y-112874795D01*
X133143898Y-112796774D01*
X132943939Y-112757000D01*
X132740061Y-112757000D01*
X132540102Y-112796774D01*
X132351744Y-112874795D01*
X132182226Y-112988063D01*
X132038063Y-113132226D01*
X131924795Y-113301744D01*
X131846774Y-113490102D01*
X131807000Y-113690061D01*
X131807000Y-113893939D01*
X131846774Y-114093898D01*
X131924795Y-114282256D01*
X132038063Y-114451774D01*
X132154588Y-114568299D01*
X132009771Y-114597105D01*
X131821413Y-114675126D01*
X131651895Y-114788394D01*
X131514603Y-114925686D01*
X131473205Y-114825744D01*
X131359937Y-114656226D01*
X131215774Y-114512063D01*
X131046256Y-114398795D01*
X130857898Y-114320774D01*
X130657939Y-114281000D01*
X130454061Y-114281000D01*
X130254102Y-114320774D01*
X130065744Y-114398795D01*
X129896226Y-114512063D01*
X129752063Y-114656226D01*
X129638795Y-114825744D01*
X129560774Y-115014102D01*
X129521000Y-115214061D01*
X127245141Y-115214061D01*
X127250669Y-115186270D01*
X127250669Y-114982392D01*
X127210895Y-114782433D01*
X127132874Y-114594075D01*
X127019606Y-114424557D01*
X126875443Y-114280394D01*
X126705925Y-114167126D01*
X126517567Y-114089105D01*
X126317608Y-114049331D01*
X126164713Y-114049331D01*
X126285898Y-114025226D01*
X126474256Y-113947205D01*
X126643774Y-113833937D01*
X126787937Y-113689774D01*
X126901205Y-113520256D01*
X126979226Y-113331898D01*
X127019000Y-113131939D01*
X127019000Y-112928061D01*
X126979226Y-112728102D01*
X126901205Y-112539744D01*
X126787937Y-112370226D01*
X126643774Y-112226063D01*
X126474256Y-112112795D01*
X126285898Y-112034774D01*
X126085939Y-111995000D01*
X125882061Y-111995000D01*
X125682102Y-112034774D01*
X125493744Y-112112795D01*
X125324226Y-112226063D01*
X125180063Y-112370226D01*
X125066795Y-112539744D01*
X124988774Y-112728102D01*
X124949000Y-112928061D01*
X97180000Y-112928061D01*
X97180000Y-110134061D01*
X105645000Y-110134061D01*
X105645000Y-110337939D01*
X105684774Y-110537898D01*
X105762795Y-110726256D01*
X105876063Y-110895774D01*
X106020226Y-111039937D01*
X106189744Y-111153205D01*
X106378102Y-111231226D01*
X106578061Y-111271000D01*
X106781939Y-111271000D01*
X106981898Y-111231226D01*
X107170256Y-111153205D01*
X107188000Y-111141349D01*
X107205744Y-111153205D01*
X107394102Y-111231226D01*
X107594061Y-111271000D01*
X107797939Y-111271000D01*
X107997898Y-111231226D01*
X108186256Y-111153205D01*
X108355774Y-111039937D01*
X108499937Y-110895774D01*
X108613205Y-110726256D01*
X108691226Y-110537898D01*
X108731000Y-110337939D01*
X108731000Y-110134061D01*
X108691226Y-109934102D01*
X108668842Y-109880061D01*
X127997000Y-109880061D01*
X127997000Y-110083939D01*
X128036774Y-110283898D01*
X128114795Y-110472256D01*
X128228063Y-110641774D01*
X128372226Y-110785937D01*
X128541744Y-110899205D01*
X128730102Y-110977226D01*
X128787381Y-110988619D01*
X128798774Y-111045898D01*
X128876795Y-111234256D01*
X128990063Y-111403774D01*
X129134226Y-111547937D01*
X129303744Y-111661205D01*
X129492102Y-111739226D01*
X129692061Y-111779000D01*
X129895939Y-111779000D01*
X130095898Y-111739226D01*
X130284256Y-111661205D01*
X130453774Y-111547937D01*
X130597937Y-111403774D01*
X130711205Y-111234256D01*
X130789226Y-111045898D01*
X130829000Y-110845939D01*
X130829000Y-110642061D01*
X130789226Y-110442102D01*
X130711205Y-110253744D01*
X130597937Y-110084226D01*
X130453774Y-109940063D01*
X130284256Y-109826795D01*
X130095898Y-109748774D01*
X130038619Y-109737381D01*
X130027226Y-109680102D01*
X129949205Y-109491744D01*
X129835937Y-109322226D01*
X129691774Y-109178063D01*
X129601975Y-109118061D01*
X130791000Y-109118061D01*
X130791000Y-109321939D01*
X130830774Y-109521898D01*
X130908795Y-109710256D01*
X131022063Y-109879774D01*
X131166226Y-110023937D01*
X131335744Y-110137205D01*
X131524102Y-110215226D01*
X131724061Y-110255000D01*
X131927939Y-110255000D01*
X132127898Y-110215226D01*
X132316256Y-110137205D01*
X132485774Y-110023937D01*
X132629937Y-109879774D01*
X132743205Y-109710256D01*
X132821226Y-109521898D01*
X132861000Y-109321939D01*
X132861000Y-109118061D01*
X132834533Y-108985000D01*
X132943939Y-108985000D01*
X133110039Y-108951961D01*
X133077000Y-109118061D01*
X133077000Y-109321939D01*
X133116774Y-109521898D01*
X133194795Y-109710256D01*
X133308063Y-109879774D01*
X133452226Y-110023937D01*
X133621744Y-110137205D01*
X133810102Y-110215226D01*
X134010061Y-110255000D01*
X134213939Y-110255000D01*
X134413898Y-110215226D01*
X134602256Y-110137205D01*
X134771774Y-110023937D01*
X134915937Y-109879774D01*
X135029205Y-109710256D01*
X135107226Y-109521898D01*
X135147000Y-109321939D01*
X135147000Y-109118061D01*
X135143241Y-109099165D01*
X135279774Y-109007937D01*
X135423937Y-108863774D01*
X135537205Y-108694256D01*
X135581329Y-108587730D01*
X137671331Y-108587730D01*
X137671331Y-108791608D01*
X137711105Y-108991567D01*
X137789126Y-109179925D01*
X137902394Y-109349443D01*
X138046557Y-109493606D01*
X138216075Y-109606874D01*
X138404433Y-109684895D01*
X138604392Y-109724669D01*
X138808270Y-109724669D01*
X138919000Y-109702644D01*
X138919000Y-109829939D01*
X138958774Y-110029898D01*
X139036795Y-110218256D01*
X139150063Y-110387774D01*
X139294226Y-110531937D01*
X139463744Y-110645205D01*
X139652102Y-110723226D01*
X139852061Y-110763000D01*
X139979356Y-110763000D01*
X139957331Y-110873730D01*
X139957331Y-111077608D01*
X139997105Y-111277567D01*
X140075126Y-111465925D01*
X140188394Y-111635443D01*
X140332557Y-111779606D01*
X140502075Y-111892874D01*
X140690433Y-111970895D01*
X140890392Y-112010669D01*
X141094270Y-112010669D01*
X141294229Y-111970895D01*
X141482587Y-111892874D01*
X141652105Y-111779606D01*
X141796268Y-111635443D01*
X141909536Y-111465925D01*
X141987557Y-111277567D01*
X142027331Y-111077608D01*
X142027331Y-110873730D01*
X141987557Y-110673771D01*
X141909536Y-110485413D01*
X141796268Y-110315895D01*
X141652105Y-110171732D01*
X141595727Y-110134061D01*
X142475000Y-110134061D01*
X142475000Y-110337939D01*
X142514774Y-110537898D01*
X142592795Y-110726256D01*
X142706063Y-110895774D01*
X142850226Y-111039937D01*
X143019744Y-111153205D01*
X143208102Y-111231226D01*
X143408061Y-111271000D01*
X143611939Y-111271000D01*
X143811898Y-111231226D01*
X144000256Y-111153205D01*
X144169774Y-111039937D01*
X144313937Y-110895774D01*
X144427205Y-110726256D01*
X144505226Y-110537898D01*
X144545000Y-110337939D01*
X144545000Y-110134061D01*
X144505226Y-109934102D01*
X144427205Y-109745744D01*
X144313937Y-109576226D01*
X144169774Y-109432063D01*
X144000256Y-109318795D01*
X143811898Y-109240774D01*
X143611939Y-109201000D01*
X143408061Y-109201000D01*
X143208102Y-109240774D01*
X143019744Y-109318795D01*
X142850226Y-109432063D01*
X142706063Y-109576226D01*
X142592795Y-109745744D01*
X142514774Y-109934102D01*
X142475000Y-110134061D01*
X141595727Y-110134061D01*
X141482587Y-110058464D01*
X141294229Y-109980443D01*
X141094270Y-109940669D01*
X140966975Y-109940669D01*
X140989000Y-109829939D01*
X140989000Y-109626061D01*
X140949226Y-109426102D01*
X140871205Y-109237744D01*
X140757937Y-109068226D01*
X140613774Y-108924063D01*
X140444256Y-108810795D01*
X140255898Y-108732774D01*
X140055939Y-108693000D01*
X139852061Y-108693000D01*
X139741331Y-108715025D01*
X139741331Y-108587730D01*
X139701557Y-108387771D01*
X139623536Y-108199413D01*
X139510268Y-108029895D01*
X139366105Y-107885732D01*
X139196587Y-107772464D01*
X139008229Y-107694443D01*
X138808270Y-107654669D01*
X138604392Y-107654669D01*
X138404433Y-107694443D01*
X138216075Y-107772464D01*
X138046557Y-107885732D01*
X137902394Y-108029895D01*
X137789126Y-108199413D01*
X137711105Y-108387771D01*
X137671331Y-108587730D01*
X135581329Y-108587730D01*
X135615226Y-108505898D01*
X135655000Y-108305939D01*
X135655000Y-108213965D01*
X135812933Y-108279383D01*
X136032212Y-108323000D01*
X136255788Y-108323000D01*
X136475067Y-108279383D01*
X136681624Y-108193824D01*
X136867520Y-108069612D01*
X137025612Y-107911520D01*
X137149824Y-107725624D01*
X137235383Y-107519067D01*
X137279000Y-107299788D01*
X137279000Y-107076212D01*
X137235383Y-106856933D01*
X137149824Y-106650376D01*
X137084759Y-106553000D01*
X137149824Y-106455624D01*
X137235383Y-106249067D01*
X137279000Y-106029788D01*
X137279000Y-105806212D01*
X137235383Y-105586933D01*
X137149824Y-105380376D01*
X137084759Y-105283000D01*
X137149824Y-105185624D01*
X137235383Y-104979067D01*
X137275431Y-104777730D01*
X137671331Y-104777730D01*
X137671331Y-104981608D01*
X137711105Y-105181567D01*
X137789126Y-105369925D01*
X137902394Y-105539443D01*
X138046557Y-105683606D01*
X138216075Y-105796874D01*
X138404433Y-105874895D01*
X138604392Y-105914669D01*
X138808270Y-105914669D01*
X139008229Y-105874895D01*
X139196587Y-105796874D01*
X139366105Y-105683606D01*
X139510268Y-105539443D01*
X139623536Y-105369925D01*
X139701557Y-105181567D01*
X139741331Y-104981608D01*
X139741331Y-104777730D01*
X139701557Y-104577771D01*
X139623536Y-104389413D01*
X139510268Y-104219895D01*
X139366105Y-104075732D01*
X139196587Y-103962464D01*
X139008229Y-103884443D01*
X138808270Y-103844669D01*
X138604392Y-103844669D01*
X138404433Y-103884443D01*
X138216075Y-103962464D01*
X138046557Y-104075732D01*
X137902394Y-104219895D01*
X137789126Y-104389413D01*
X137711105Y-104577771D01*
X137671331Y-104777730D01*
X137275431Y-104777730D01*
X137279000Y-104759788D01*
X137279000Y-104536212D01*
X137235383Y-104316933D01*
X137149824Y-104110376D01*
X137084759Y-104013000D01*
X137149824Y-103915624D01*
X137235383Y-103709067D01*
X137279000Y-103489788D01*
X137279000Y-103266212D01*
X137235383Y-103046933D01*
X137149824Y-102840376D01*
X137104658Y-102772780D01*
X137162730Y-102784331D01*
X137366608Y-102784331D01*
X137566567Y-102744557D01*
X137754925Y-102666536D01*
X137924443Y-102553268D01*
X138068606Y-102409105D01*
X138181874Y-102239587D01*
X138209211Y-102173589D01*
X146225000Y-102173589D01*
X146225000Y-102446411D01*
X146278225Y-102713989D01*
X146382629Y-102966043D01*
X146534201Y-103192886D01*
X146727114Y-103385799D01*
X146953957Y-103537371D01*
X147206011Y-103641775D01*
X147473589Y-103695000D01*
X147746411Y-103695000D01*
X148013989Y-103641775D01*
X148266043Y-103537371D01*
X148492886Y-103385799D01*
X148685799Y-103192886D01*
X148837371Y-102966043D01*
X148941775Y-102713989D01*
X148995000Y-102446411D01*
X148995000Y-102173589D01*
X150725000Y-102173589D01*
X150725000Y-102446411D01*
X150778225Y-102713989D01*
X150882629Y-102966043D01*
X151034201Y-103192886D01*
X151227114Y-103385799D01*
X151453957Y-103537371D01*
X151706011Y-103641775D01*
X151973589Y-103695000D01*
X152246411Y-103695000D01*
X152513989Y-103641775D01*
X152766043Y-103537371D01*
X152992886Y-103385799D01*
X153185799Y-103192886D01*
X153337371Y-102966043D01*
X153441775Y-102713989D01*
X153495000Y-102446411D01*
X153495000Y-102173589D01*
X153441775Y-101906011D01*
X153337371Y-101653957D01*
X153185799Y-101427114D01*
X152992886Y-101234201D01*
X152766043Y-101082629D01*
X152513989Y-100978225D01*
X152246411Y-100925000D01*
X151973589Y-100925000D01*
X151706011Y-100978225D01*
X151453957Y-101082629D01*
X151227114Y-101234201D01*
X151034201Y-101427114D01*
X150882629Y-101653957D01*
X150778225Y-101906011D01*
X150725000Y-102173589D01*
X148995000Y-102173589D01*
X148941775Y-101906011D01*
X148837371Y-101653957D01*
X148685799Y-101427114D01*
X148492886Y-101234201D01*
X148266043Y-101082629D01*
X148013989Y-100978225D01*
X147746411Y-100925000D01*
X147473589Y-100925000D01*
X147206011Y-100978225D01*
X146953957Y-101082629D01*
X146727114Y-101234201D01*
X146534201Y-101427114D01*
X146382629Y-101653957D01*
X146278225Y-101906011D01*
X146225000Y-102173589D01*
X138209211Y-102173589D01*
X138259895Y-102051229D01*
X138299669Y-101851270D01*
X138299669Y-101647392D01*
X138259895Y-101447433D01*
X138181874Y-101259075D01*
X138068606Y-101089557D01*
X137924443Y-100945394D01*
X137754925Y-100832126D01*
X137566567Y-100754105D01*
X137366608Y-100714331D01*
X137276637Y-100714331D01*
X137235383Y-100506933D01*
X137149824Y-100300376D01*
X137084759Y-100203000D01*
X137149824Y-100105624D01*
X137235383Y-99899067D01*
X137279000Y-99679788D01*
X137279000Y-99456212D01*
X137235383Y-99236933D01*
X137149824Y-99030376D01*
X137046720Y-98876070D01*
X137135588Y-98861450D01*
X137226458Y-98657174D01*
X137275731Y-98439095D01*
X137281511Y-98215594D01*
X137243577Y-97995260D01*
X137163387Y-97786560D01*
X137135588Y-97734550D01*
X136922166Y-97699439D01*
X136323605Y-98298000D01*
X136337748Y-98312143D01*
X136216890Y-98433000D01*
X136071110Y-98433000D01*
X136009000Y-98370890D01*
X136009000Y-98225110D01*
X136129858Y-98104253D01*
X136144000Y-98118395D01*
X136742561Y-97519834D01*
X136707450Y-97306412D01*
X136503174Y-97215542D01*
X136285095Y-97166269D01*
X136061594Y-97160489D01*
X135841260Y-97198423D01*
X135632560Y-97278613D01*
X135580550Y-97306412D01*
X135565930Y-97395280D01*
X135411624Y-97292176D01*
X135205067Y-97206617D01*
X134985788Y-97163000D01*
X134762212Y-97163000D01*
X134542933Y-97206617D01*
X134336376Y-97292176D01*
X134150480Y-97416388D01*
X133992388Y-97574480D01*
X133868176Y-97760376D01*
X133782617Y-97966933D01*
X133739000Y-98186212D01*
X133739000Y-98409788D01*
X133782617Y-98629067D01*
X133868176Y-98835624D01*
X133933241Y-98933000D01*
X133868176Y-99030376D01*
X133782617Y-99236933D01*
X133739000Y-99456212D01*
X133739000Y-99679788D01*
X133782617Y-99899067D01*
X133868176Y-100105624D01*
X133933241Y-100203000D01*
X133868176Y-100300376D01*
X133838861Y-100371150D01*
X133755774Y-100288063D01*
X133586256Y-100174795D01*
X133397898Y-100096774D01*
X133197939Y-100057000D01*
X132994061Y-100057000D01*
X132794102Y-100096774D01*
X132605744Y-100174795D01*
X132436226Y-100288063D01*
X132292063Y-100432226D01*
X132178795Y-100601744D01*
X132100774Y-100790102D01*
X132061000Y-100990061D01*
X132061000Y-101193939D01*
X132100774Y-101393898D01*
X132178795Y-101582256D01*
X132292063Y-101751774D01*
X132436226Y-101895937D01*
X132605744Y-102009205D01*
X132794102Y-102087226D01*
X132994061Y-102127000D01*
X133197939Y-102127000D01*
X133397898Y-102087226D01*
X133586256Y-102009205D01*
X133755774Y-101895937D01*
X133759733Y-101891978D01*
X133739000Y-101996212D01*
X133739000Y-102219788D01*
X133782617Y-102439067D01*
X133868176Y-102645624D01*
X133933241Y-102743000D01*
X133868176Y-102840376D01*
X133782617Y-103046933D01*
X133739000Y-103266212D01*
X133739000Y-103489788D01*
X133782617Y-103709067D01*
X133868176Y-103915624D01*
X133933241Y-104013000D01*
X133868176Y-104110376D01*
X133782617Y-104316933D01*
X133739000Y-104536212D01*
X133739000Y-104759788D01*
X133782617Y-104979067D01*
X133868176Y-105185624D01*
X133933241Y-105283000D01*
X133868176Y-105380376D01*
X133782617Y-105586933D01*
X133739000Y-105806212D01*
X133739000Y-106029788D01*
X133782617Y-106249067D01*
X133868176Y-106455624D01*
X133933241Y-106553000D01*
X133868176Y-106650376D01*
X133782617Y-106856933D01*
X133739000Y-107076212D01*
X133739000Y-107299788D01*
X133781545Y-107513677D01*
X133759205Y-107459744D01*
X133645937Y-107290226D01*
X133501774Y-107146063D01*
X133332256Y-107032795D01*
X133143898Y-106954774D01*
X132943939Y-106915000D01*
X132740061Y-106915000D01*
X132540102Y-106954774D01*
X132351744Y-107032795D01*
X132182226Y-107146063D01*
X132038063Y-107290226D01*
X131924795Y-107459744D01*
X131846774Y-107648102D01*
X131807000Y-107848061D01*
X131807000Y-108051939D01*
X131833467Y-108185000D01*
X131724061Y-108185000D01*
X131524102Y-108224774D01*
X131335744Y-108302795D01*
X131166226Y-108416063D01*
X131022063Y-108560226D01*
X130908795Y-108729744D01*
X130830774Y-108918102D01*
X130791000Y-109118061D01*
X129601975Y-109118061D01*
X129522256Y-109064795D01*
X129333898Y-108986774D01*
X129133939Y-108947000D01*
X128930061Y-108947000D01*
X128730102Y-108986774D01*
X128541744Y-109064795D01*
X128372226Y-109178063D01*
X128228063Y-109322226D01*
X128114795Y-109491744D01*
X128036774Y-109680102D01*
X127997000Y-109880061D01*
X108668842Y-109880061D01*
X108613205Y-109745744D01*
X108499937Y-109576226D01*
X108355774Y-109432063D01*
X108186256Y-109318795D01*
X107997898Y-109240774D01*
X107797939Y-109201000D01*
X107594061Y-109201000D01*
X107394102Y-109240774D01*
X107205744Y-109318795D01*
X107188000Y-109330651D01*
X107170256Y-109318795D01*
X106981898Y-109240774D01*
X106781939Y-109201000D01*
X106578061Y-109201000D01*
X106378102Y-109240774D01*
X106189744Y-109318795D01*
X106020226Y-109432063D01*
X105876063Y-109576226D01*
X105762795Y-109745744D01*
X105684774Y-109934102D01*
X105645000Y-110134061D01*
X97180000Y-110134061D01*
X97180000Y-105816061D01*
X119361000Y-105816061D01*
X119361000Y-106019939D01*
X119400774Y-106219898D01*
X119478795Y-106408256D01*
X119592063Y-106577774D01*
X119736226Y-106721937D01*
X119905744Y-106835205D01*
X120094102Y-106913226D01*
X120294061Y-106953000D01*
X120497939Y-106953000D01*
X120697898Y-106913226D01*
X120886256Y-106835205D01*
X121055774Y-106721937D01*
X121199937Y-106577774D01*
X121313205Y-106408256D01*
X121391226Y-106219898D01*
X121431000Y-106019939D01*
X121431000Y-105816061D01*
X121391226Y-105616102D01*
X121368842Y-105562061D01*
X130029000Y-105562061D01*
X130029000Y-105765939D01*
X130068774Y-105965898D01*
X130146795Y-106154256D01*
X130260063Y-106323774D01*
X130404226Y-106467937D01*
X130573744Y-106581205D01*
X130762102Y-106659226D01*
X130962061Y-106699000D01*
X131165939Y-106699000D01*
X131365898Y-106659226D01*
X131554256Y-106581205D01*
X131723774Y-106467937D01*
X131867937Y-106323774D01*
X131981205Y-106154256D01*
X132059226Y-105965898D01*
X132099000Y-105765939D01*
X132099000Y-105562061D01*
X132059226Y-105362102D01*
X131981205Y-105173744D01*
X131867937Y-105004226D01*
X131723774Y-104860063D01*
X131554256Y-104746795D01*
X131365898Y-104668774D01*
X131165939Y-104629000D01*
X130962061Y-104629000D01*
X130762102Y-104668774D01*
X130573744Y-104746795D01*
X130404226Y-104860063D01*
X130260063Y-105004226D01*
X130146795Y-105173744D01*
X130068774Y-105362102D01*
X130029000Y-105562061D01*
X121368842Y-105562061D01*
X121313205Y-105427744D01*
X121199937Y-105258226D01*
X121055774Y-105114063D01*
X120886256Y-105000795D01*
X120697898Y-104922774D01*
X120497939Y-104883000D01*
X120294061Y-104883000D01*
X120094102Y-104922774D01*
X119905744Y-105000795D01*
X119736226Y-105114063D01*
X119592063Y-105258226D01*
X119478795Y-105427744D01*
X119400774Y-105616102D01*
X119361000Y-105816061D01*
X97180000Y-105816061D01*
X97180000Y-97054507D01*
X97209465Y-96688285D01*
X98781000Y-96688285D01*
X98781000Y-97443715D01*
X98928377Y-98184628D01*
X99217467Y-98882554D01*
X99637161Y-99510670D01*
X100171330Y-100044839D01*
X100799446Y-100464533D01*
X101497372Y-100753623D01*
X102238285Y-100901000D01*
X102993715Y-100901000D01*
X103734628Y-100753623D01*
X104432554Y-100464533D01*
X105060670Y-100044839D01*
X105594839Y-99510670D01*
X106014533Y-98882554D01*
X106303623Y-98184628D01*
X106451000Y-97443715D01*
X106451000Y-97180061D01*
X128251000Y-97180061D01*
X128251000Y-97383939D01*
X128290774Y-97583898D01*
X128368795Y-97772256D01*
X128482063Y-97941774D01*
X128626226Y-98085937D01*
X128795744Y-98199205D01*
X128984102Y-98277226D01*
X129184061Y-98317000D01*
X129387939Y-98317000D01*
X129587898Y-98277226D01*
X129776256Y-98199205D01*
X129945774Y-98085937D01*
X130089937Y-97941774D01*
X130203205Y-97772256D01*
X130281226Y-97583898D01*
X130321000Y-97383939D01*
X130321000Y-97180061D01*
X130281226Y-96980102D01*
X130203205Y-96791744D01*
X130089937Y-96622226D01*
X129945774Y-96478063D01*
X129776256Y-96364795D01*
X129587898Y-96286774D01*
X129387939Y-96247000D01*
X129184061Y-96247000D01*
X128984102Y-96286774D01*
X128795744Y-96364795D01*
X128626226Y-96478063D01*
X128482063Y-96622226D01*
X128368795Y-96791744D01*
X128290774Y-96980102D01*
X128251000Y-97180061D01*
X106451000Y-97180061D01*
X106451000Y-96688285D01*
X106303623Y-95947372D01*
X106190219Y-95673589D01*
X146225000Y-95673589D01*
X146225000Y-95946411D01*
X146278225Y-96213989D01*
X146382629Y-96466043D01*
X146534201Y-96692886D01*
X146727114Y-96885799D01*
X146953957Y-97037371D01*
X147206011Y-97141775D01*
X147473589Y-97195000D01*
X147746411Y-97195000D01*
X148013989Y-97141775D01*
X148266043Y-97037371D01*
X148492886Y-96885799D01*
X148685799Y-96692886D01*
X148837371Y-96466043D01*
X148941775Y-96213989D01*
X148995000Y-95946411D01*
X148995000Y-95673589D01*
X150725000Y-95673589D01*
X150725000Y-95946411D01*
X150778225Y-96213989D01*
X150882629Y-96466043D01*
X151034201Y-96692886D01*
X151227114Y-96885799D01*
X151453957Y-97037371D01*
X151706011Y-97141775D01*
X151973589Y-97195000D01*
X152246411Y-97195000D01*
X152513989Y-97141775D01*
X152766043Y-97037371D01*
X152992886Y-96885799D01*
X153185799Y-96692886D01*
X153188873Y-96688285D01*
X161265000Y-96688285D01*
X161265000Y-97443715D01*
X161412377Y-98184628D01*
X161701467Y-98882554D01*
X162121161Y-99510670D01*
X162655330Y-100044839D01*
X163283446Y-100464533D01*
X163981372Y-100753623D01*
X164722285Y-100901000D01*
X165477715Y-100901000D01*
X166218628Y-100753623D01*
X166916554Y-100464533D01*
X167544670Y-100044839D01*
X168078839Y-99510670D01*
X168498533Y-98882554D01*
X168787623Y-98184628D01*
X168935000Y-97443715D01*
X168935000Y-96688285D01*
X168787623Y-95947372D01*
X168498533Y-95249446D01*
X168078839Y-94621330D01*
X167544670Y-94087161D01*
X166916554Y-93667467D01*
X166218628Y-93378377D01*
X165477715Y-93231000D01*
X164722285Y-93231000D01*
X163981372Y-93378377D01*
X163283446Y-93667467D01*
X162655330Y-94087161D01*
X162121161Y-94621330D01*
X161701467Y-95249446D01*
X161412377Y-95947372D01*
X161265000Y-96688285D01*
X153188873Y-96688285D01*
X153337371Y-96466043D01*
X153441775Y-96213989D01*
X153495000Y-95946411D01*
X153495000Y-95673589D01*
X153441775Y-95406011D01*
X153337371Y-95153957D01*
X153185799Y-94927114D01*
X152992886Y-94734201D01*
X152766043Y-94582629D01*
X152513989Y-94478225D01*
X152246411Y-94425000D01*
X151973589Y-94425000D01*
X151706011Y-94478225D01*
X151453957Y-94582629D01*
X151227114Y-94734201D01*
X151034201Y-94927114D01*
X150882629Y-95153957D01*
X150778225Y-95406011D01*
X150725000Y-95673589D01*
X148995000Y-95673589D01*
X148941775Y-95406011D01*
X148837371Y-95153957D01*
X148685799Y-94927114D01*
X148492886Y-94734201D01*
X148266043Y-94582629D01*
X148013989Y-94478225D01*
X147746411Y-94425000D01*
X147473589Y-94425000D01*
X147206011Y-94478225D01*
X146953957Y-94582629D01*
X146727114Y-94734201D01*
X146534201Y-94927114D01*
X146382629Y-95153957D01*
X146278225Y-95406011D01*
X146225000Y-95673589D01*
X106190219Y-95673589D01*
X106014533Y-95249446D01*
X105594839Y-94621330D01*
X105060670Y-94087161D01*
X104432554Y-93667467D01*
X103734628Y-93378377D01*
X102993715Y-93231000D01*
X102238285Y-93231000D01*
X101497372Y-93378377D01*
X100799446Y-93667467D01*
X100171330Y-94087161D01*
X99637161Y-94621330D01*
X99217467Y-95249446D01*
X98928377Y-95947372D01*
X98781000Y-96688285D01*
X97209465Y-96688285D01*
X97252032Y-96159229D01*
X97459935Y-95312800D01*
X97800487Y-94510510D01*
X98264932Y-93772985D01*
X98841317Y-93119206D01*
X99514819Y-92565983D01*
X100268101Y-92127563D01*
X101081791Y-91815216D01*
X101940627Y-91635796D01*
X102636747Y-91592000D01*
X165073493Y-91592000D01*
X165968771Y-91664032D01*
G37*
G04 #@! TD.AperFunction*
M02*
