G04 #@! TF.GenerationSoftware,KiCad,Pcbnew,(5.1.9)-1*
G04 #@! TF.CreationDate,2021-05-02T01:08:58+02:00*
G04 #@! TF.ProjectId,atmega32,61746d65-6761-4333-922e-6b696361645f,rev?*
G04 #@! TF.SameCoordinates,Original*
G04 #@! TF.FileFunction,Copper,L4,Bot*
G04 #@! TF.FilePolarity,Positive*
%FSLAX46Y46*%
G04 Gerber Fmt 4.6, Leading zero omitted, Abs format (unit mm)*
G04 Created by KiCad (PCBNEW (5.1.9)-1) date 2021-05-02 01:08:58*
%MOMM*%
%LPD*%
G01*
G04 APERTURE LIST*
G04 #@! TA.AperFunction,ComponentPad*
%ADD10C,1.500000*%
G04 #@! TD*
G04 #@! TA.AperFunction,ComponentPad*
%ADD11R,1.050000X1.050000*%
G04 #@! TD*
G04 #@! TA.AperFunction,ComponentPad*
%ADD12C,1.050000*%
G04 #@! TD*
G04 #@! TA.AperFunction,ComponentPad*
%ADD13C,1.000000*%
G04 #@! TD*
G04 #@! TA.AperFunction,ComponentPad*
%ADD14C,0.800000*%
G04 #@! TD*
G04 #@! TA.AperFunction,ComponentPad*
%ADD15C,6.400000*%
G04 #@! TD*
G04 #@! TA.AperFunction,ComponentPad*
%ADD16O,1.200000X1.900000*%
G04 #@! TD*
G04 #@! TA.AperFunction,ComponentPad*
%ADD17C,1.450000*%
G04 #@! TD*
G04 #@! TA.AperFunction,ViaPad*
%ADD18C,0.800000*%
G04 #@! TD*
G04 #@! TA.AperFunction,Conductor*
%ADD19C,0.300000*%
G04 #@! TD*
G04 APERTURE END LIST*
D10*
X147610000Y-102310000D03*
X147610000Y-95810000D03*
X152110000Y-102310000D03*
X152110000Y-95810000D03*
D11*
X121920000Y-127000000D03*
D12*
X123420000Y-127000000D03*
D11*
X142490000Y-127880000D03*
D12*
X143990000Y-127880000D03*
D13*
X136144000Y-107188000D03*
X134874000Y-107188000D03*
X136144000Y-105918000D03*
X134874000Y-105918000D03*
X136144000Y-104648000D03*
X134874000Y-104648000D03*
X136144000Y-103378000D03*
X134874000Y-103378000D03*
X136144000Y-102108000D03*
X134874000Y-102108000D03*
X136144000Y-100838000D03*
X134874000Y-100838000D03*
X136144000Y-99568000D03*
X134874000Y-99568000D03*
X136144000Y-98298000D03*
X134874000Y-98298000D03*
D14*
X166797056Y-145368944D03*
X165100000Y-144666000D03*
X163402944Y-145368944D03*
X162700000Y-147066000D03*
X163402944Y-148763056D03*
X165100000Y-149466000D03*
X166797056Y-148763056D03*
X167500000Y-147066000D03*
D15*
X165100000Y-147066000D03*
D14*
X166797056Y-95368944D03*
X165100000Y-94666000D03*
X163402944Y-95368944D03*
X162700000Y-97066000D03*
X163402944Y-98763056D03*
X165100000Y-99466000D03*
X166797056Y-98763056D03*
X167500000Y-97066000D03*
D15*
X165100000Y-97066000D03*
D14*
X104313056Y-145368944D03*
X102616000Y-144666000D03*
X100918944Y-145368944D03*
X100216000Y-147066000D03*
X100918944Y-148763056D03*
X102616000Y-149466000D03*
X104313056Y-148763056D03*
X105016000Y-147066000D03*
D15*
X102616000Y-147066000D03*
D14*
X104313056Y-95368944D03*
X102616000Y-94666000D03*
X100918944Y-95368944D03*
X100216000Y-97066000D03*
X100918944Y-98763056D03*
X102616000Y-99466000D03*
X104313056Y-98763056D03*
X105016000Y-97066000D03*
D15*
X102616000Y-97066000D03*
D16*
X137358000Y-151544000D03*
X130358000Y-151544000D03*
D17*
X136358000Y-148844000D03*
X131358000Y-148844000D03*
D18*
X107188000Y-137922000D03*
X105156000Y-120650000D03*
X104394000Y-120142000D03*
X104394000Y-114300000D03*
X141540000Y-138470000D03*
X155480000Y-134500000D03*
X130810000Y-140716000D03*
X130810000Y-142494000D03*
X129540000Y-139700000D03*
X138463950Y-133338000D03*
X137922000Y-131826000D03*
X139780000Y-121710000D03*
X132311669Y-115592331D03*
X139192000Y-114046000D03*
X133096000Y-101092000D03*
X129286000Y-97282000D03*
X125984000Y-113030000D03*
X129032000Y-109982000D03*
X120142000Y-123698000D03*
X107696000Y-110236000D03*
X117094000Y-129794000D03*
X116078000Y-127508000D03*
X117094000Y-127254000D03*
X106680000Y-110236000D03*
X115570000Y-129794000D03*
X136144000Y-146304000D03*
X135450000Y-144460000D03*
X136730000Y-144380000D03*
X143820000Y-134690000D03*
X142230000Y-121720000D03*
X143690000Y-121650000D03*
X145820000Y-121610000D03*
X143480000Y-118460000D03*
X116586000Y-120650000D03*
X111061202Y-121150000D03*
X112706932Y-119610001D03*
X124714000Y-121158000D03*
X117094000Y-135636000D03*
X143510000Y-110236000D03*
X137264669Y-101749331D03*
X134620000Y-108204000D03*
X138706331Y-108689669D03*
X132842000Y-113792000D03*
X130556000Y-115316000D03*
X113284000Y-118618000D03*
X129794000Y-110744000D03*
X139954000Y-109728000D03*
X134515331Y-115674669D03*
X115316000Y-123649998D03*
X131064000Y-123698000D03*
X132080000Y-117856000D03*
X120396000Y-119380000D03*
X140992331Y-110975669D03*
X135382000Y-116332000D03*
X115570000Y-119380000D03*
X121412000Y-114796000D03*
X120106108Y-116367892D03*
X131064000Y-105664000D03*
X112014000Y-118110000D03*
X138706331Y-104879669D03*
X134112000Y-109220000D03*
X131826000Y-109220000D03*
X120396000Y-105918000D03*
X132842000Y-107950000D03*
X126215669Y-115084331D03*
X125270000Y-142187500D03*
X125270000Y-145882500D03*
X125270000Y-147730000D03*
X126730000Y-147750000D03*
X125270000Y-144035000D03*
X125270000Y-140340000D03*
X145780000Y-118680000D03*
X111760000Y-120396000D03*
X111760000Y-121920000D03*
X116332000Y-122428000D03*
X143256000Y-108712000D03*
D19*
X138463950Y-132367950D02*
X137922000Y-131826000D01*
X138463950Y-133338000D02*
X138463950Y-132367950D01*
X139780000Y-121710000D02*
X140900000Y-120590000D01*
X136144000Y-107188000D02*
X141478000Y-112522000D01*
X141478000Y-112522000D02*
X141478000Y-120142000D01*
X141030000Y-120590000D02*
X141478000Y-120142000D01*
X140900000Y-120590000D02*
X141030000Y-120590000D01*
X133858000Y-114046000D02*
X139192000Y-114046000D01*
X132311669Y-115592331D02*
X133858000Y-114046000D01*
X133350000Y-100838000D02*
X133096000Y-101092000D01*
X134874000Y-100838000D02*
X133350000Y-100838000D01*
X129286000Y-97282000D02*
X129286000Y-99822000D01*
X130556000Y-101092000D02*
X133096000Y-101092000D01*
X129286000Y-99822000D02*
X130556000Y-101092000D01*
X126055910Y-112958090D02*
X129032000Y-109982000D01*
X107696000Y-110236000D02*
X107696000Y-123444000D01*
X107696000Y-123444000D02*
X113284000Y-129032000D01*
X116680002Y-129794000D02*
X117094000Y-129794000D01*
X115918002Y-129032000D02*
X116680002Y-129794000D01*
X113284000Y-129032000D02*
X115918002Y-129032000D01*
X125675120Y-129540000D02*
X118110000Y-129540000D01*
X129540000Y-125675120D02*
X125675120Y-129540000D01*
X136924882Y-125675120D02*
X129540000Y-125675120D01*
X142505999Y-120094003D02*
X136924882Y-125675120D01*
X118110000Y-129540000D02*
X116078000Y-127508000D01*
X142505999Y-105929999D02*
X142505999Y-120094003D01*
X136144000Y-99568000D02*
X142505999Y-105929999D01*
X106680000Y-110236000D02*
X106680000Y-123698000D01*
X112776000Y-129794000D02*
X115570000Y-129794000D01*
X106680000Y-123698000D02*
X112776000Y-129794000D01*
X134874000Y-107950000D02*
X134620000Y-108204000D01*
X134874000Y-107188000D02*
X134874000Y-107950000D01*
X138706331Y-108480331D02*
X138706331Y-108689669D01*
X136144000Y-105918000D02*
X138706331Y-108480331D01*
X131318000Y-115316000D02*
X132842000Y-113792000D01*
X130556000Y-115316000D02*
X131318000Y-115316000D01*
X114808000Y-118618000D02*
X113284000Y-118618000D01*
X116840000Y-116586000D02*
X114808000Y-118618000D01*
X116840000Y-116332000D02*
X116840000Y-116586000D01*
X117602000Y-115570000D02*
X116840000Y-116332000D01*
X117602000Y-115539118D02*
X117602000Y-115570000D01*
X120188890Y-115390012D02*
X117751106Y-115390012D01*
X117751106Y-115390012D02*
X117602000Y-115539118D01*
X121130878Y-116332000D02*
X120188890Y-115390012D01*
X122428000Y-116332000D02*
X121130878Y-116332000D01*
X124979999Y-113780001D02*
X122428000Y-116332000D01*
X126757999Y-113780001D02*
X124979999Y-113780001D01*
X129794000Y-110744000D02*
X126757999Y-113780001D01*
X139954000Y-108458000D02*
X139954000Y-109728000D01*
X136144000Y-104648000D02*
X139954000Y-108458000D01*
X134515331Y-115674669D02*
X132627950Y-117562050D01*
X115316000Y-123649998D02*
X116380002Y-124714000D01*
X130048000Y-124714000D02*
X131064000Y-123698000D01*
X116380002Y-124714000D02*
X130048000Y-124714000D01*
X132334000Y-117856000D02*
X132627950Y-117562050D01*
X132080000Y-117856000D02*
X132334000Y-117856000D01*
X120396000Y-119380000D02*
X127000000Y-119380000D01*
X127000000Y-119380000D02*
X127254000Y-119380000D01*
X140992331Y-108226331D02*
X140992331Y-110975669D01*
X136144000Y-103378000D02*
X140992331Y-108226331D01*
X132334000Y-119380000D02*
X127254000Y-119380000D01*
X135382000Y-116332000D02*
X132334000Y-119380000D01*
X119380000Y-117094000D02*
X120106108Y-116367892D01*
X117856000Y-117094000D02*
X119380000Y-117094000D01*
X115570000Y-119380000D02*
X117856000Y-117094000D01*
X121412000Y-114230315D02*
X129470315Y-106172000D01*
X121412000Y-114796000D02*
X121412000Y-114230315D01*
X130556000Y-106172000D02*
X131064000Y-105664000D01*
X129470315Y-106172000D02*
X130556000Y-106172000D01*
X138706331Y-104670331D02*
X138706331Y-104879669D01*
X136144000Y-102108000D02*
X138706331Y-104670331D01*
X112681998Y-118110000D02*
X112014000Y-118110000D01*
X112923999Y-117867999D02*
X112681998Y-118110000D01*
X114565999Y-117867999D02*
X112923999Y-117867999D01*
X120396000Y-114890002D02*
X117543996Y-114890002D01*
X117543996Y-114890002D02*
X114565999Y-117867999D01*
X121329998Y-115824000D02*
X120396000Y-114890002D01*
X121920000Y-115824000D02*
X121329998Y-115824000D01*
X128524000Y-109220000D02*
X121920000Y-115824000D01*
X131826000Y-109220000D02*
X128524000Y-109220000D01*
X123698000Y-102616000D02*
X120396000Y-105918000D01*
X134366000Y-102616000D02*
X123698000Y-102616000D01*
X134874000Y-102108000D02*
X134366000Y-102616000D01*
X132842000Y-109728001D02*
X132842000Y-107950000D01*
X129032000Y-113538001D02*
X132842000Y-109728001D01*
X127761999Y-113538001D02*
X126215669Y-115084331D01*
X129032000Y-113538001D02*
X127761999Y-113538001D01*
M02*
