G04 #@! TF.GenerationSoftware,KiCad,Pcbnew,(5.1.9)-1*
G04 #@! TF.CreationDate,2021-05-02T01:08:58+02:00*
G04 #@! TF.ProjectId,atmega32,61746d65-6761-4333-922e-6b696361645f,rev?*
G04 #@! TF.SameCoordinates,Original*
G04 #@! TF.FileFunction,Soldermask,Top*
G04 #@! TF.FilePolarity,Negative*
%FSLAX46Y46*%
G04 Gerber Fmt 4.6, Leading zero omitted, Abs format (unit mm)*
G04 Created by KiCad (PCBNEW (5.1.9)-1) date 2021-05-02 01:08:58*
%MOMM*%
%LPD*%
G01*
G04 APERTURE LIST*
%ADD10C,1.500000*%
%ADD11R,1.020000X1.820000*%
%ADD12R,1.050000X1.050000*%
%ADD13C,1.050000*%
%ADD14R,2.000000X5.500000*%
%ADD15R,1.820000X1.020000*%
%ADD16R,1.050000X1.800000*%
%ADD17R,1.100000X1.550000*%
%ADD18C,1.000000*%
%ADD19C,0.800000*%
%ADD20C,6.400000*%
%ADD21R,1.700000X1.100000*%
%ADD22R,1.100000X1.700000*%
%ADD23R,0.850000X3.430000*%
%ADD24R,0.960000X1.390000*%
%ADD25R,0.450000X1.750000*%
%ADD26R,0.550000X1.600000*%
%ADD27R,1.600000X0.550000*%
%ADD28R,1.200000X1.900000*%
%ADD29O,1.200000X1.900000*%
%ADD30R,1.500000X1.900000*%
%ADD31C,1.450000*%
%ADD32R,0.400000X1.350000*%
G04 APERTURE END LIST*
D10*
X147610000Y-102310000D03*
X147610000Y-95810000D03*
X152110000Y-102310000D03*
X152110000Y-95810000D03*
D11*
X123574000Y-121158000D03*
X120774000Y-121158000D03*
X104394000Y-118364000D03*
X107194000Y-118364000D03*
X104388000Y-116078000D03*
X107188000Y-116078000D03*
D12*
X121920000Y-127000000D03*
D13*
X123420000Y-127000000D03*
D14*
X102630000Y-125900000D03*
X102630000Y-135400000D03*
D15*
X106770000Y-123320000D03*
X106770000Y-120520000D03*
X107188000Y-133350000D03*
X107188000Y-136150000D03*
D16*
X121555000Y-135500000D03*
X118555000Y-135500000D03*
D17*
X118330000Y-132530000D03*
X121330000Y-132530000D03*
D16*
X148240000Y-108960000D03*
X145240000Y-108960000D03*
D11*
X151990000Y-111980000D03*
X149190000Y-111980000D03*
D16*
X111506000Y-112522000D03*
X114506000Y-112522000D03*
X112824000Y-109982000D03*
X115824000Y-109982000D03*
D11*
X139680000Y-134710000D03*
X142480000Y-134710000D03*
D16*
X155490000Y-132485000D03*
X158490000Y-132485000D03*
D17*
X163450000Y-132410000D03*
X160450000Y-132410000D03*
D12*
X142490000Y-127880000D03*
D13*
X143990000Y-127880000D03*
D18*
X136144000Y-107188000D03*
X134874000Y-107188000D03*
X136144000Y-105918000D03*
X134874000Y-105918000D03*
X136144000Y-104648000D03*
X134874000Y-104648000D03*
X136144000Y-103378000D03*
X134874000Y-103378000D03*
X136144000Y-102108000D03*
X134874000Y-102108000D03*
X136144000Y-100838000D03*
X134874000Y-100838000D03*
X136144000Y-99568000D03*
X134874000Y-99568000D03*
X136144000Y-98298000D03*
X134874000Y-98298000D03*
D19*
X166797056Y-145368944D03*
X165100000Y-144666000D03*
X163402944Y-145368944D03*
X162700000Y-147066000D03*
X163402944Y-148763056D03*
X165100000Y-149466000D03*
X166797056Y-148763056D03*
X167500000Y-147066000D03*
D20*
X165100000Y-147066000D03*
D19*
X166797056Y-95368944D03*
X165100000Y-94666000D03*
X163402944Y-95368944D03*
X162700000Y-97066000D03*
X163402944Y-98763056D03*
X165100000Y-99466000D03*
X166797056Y-98763056D03*
X167500000Y-97066000D03*
D20*
X165100000Y-97066000D03*
D19*
X104313056Y-145368944D03*
X102616000Y-144666000D03*
X100918944Y-145368944D03*
X100216000Y-147066000D03*
X100918944Y-148763056D03*
X102616000Y-149466000D03*
X104313056Y-148763056D03*
X105016000Y-147066000D03*
D20*
X102616000Y-147066000D03*
D19*
X104313056Y-95368944D03*
X102616000Y-94666000D03*
X100918944Y-95368944D03*
X100216000Y-97066000D03*
X100918944Y-98763056D03*
X102616000Y-99466000D03*
X104313056Y-98763056D03*
X105016000Y-97066000D03*
D20*
X102616000Y-97066000D03*
D21*
X136652000Y-138430000D03*
X136652000Y-135530000D03*
X134366000Y-138430000D03*
X134366000Y-135530000D03*
D22*
X136144000Y-146304000D03*
X139044000Y-146304000D03*
D23*
X131318000Y-145034000D03*
X126718000Y-145034000D03*
D15*
X145420000Y-113640000D03*
X145420000Y-110840000D03*
D11*
X126746000Y-141478000D03*
X129546000Y-141478000D03*
D24*
X140120000Y-138440000D03*
X138500000Y-138440000D03*
X130762000Y-138430000D03*
X132382000Y-138430000D03*
D16*
X155490000Y-129367500D03*
X158490000Y-129367500D03*
X155490000Y-126250000D03*
X158490000Y-126250000D03*
D25*
X147375000Y-124040000D03*
X146725000Y-124040000D03*
X146075000Y-124040000D03*
X145425000Y-124040000D03*
X144775000Y-124040000D03*
X144125000Y-124040000D03*
X143475000Y-124040000D03*
X142825000Y-124040000D03*
X142175000Y-124040000D03*
X141525000Y-124040000D03*
X140875000Y-124040000D03*
X140225000Y-124040000D03*
X139575000Y-124040000D03*
X138925000Y-124040000D03*
X138925000Y-116840000D03*
X139575000Y-116840000D03*
X140225000Y-116840000D03*
X140875000Y-116840000D03*
X141525000Y-116840000D03*
X142175000Y-116840000D03*
X142825000Y-116840000D03*
X143475000Y-116840000D03*
X144125000Y-116840000D03*
X144775000Y-116840000D03*
X145425000Y-116840000D03*
X146075000Y-116840000D03*
X146725000Y-116840000D03*
X147375000Y-116840000D03*
D17*
X163450000Y-129292500D03*
X160450000Y-129292500D03*
D26*
X111300000Y-116550000D03*
X112100000Y-116550000D03*
X112900000Y-116550000D03*
X113700000Y-116550000D03*
X114500000Y-116550000D03*
X115300000Y-116550000D03*
X116100000Y-116550000D03*
X116900000Y-116550000D03*
D27*
X118350000Y-118000000D03*
X118350000Y-118800000D03*
X118350000Y-119600000D03*
X118350000Y-120400000D03*
X118350000Y-121200000D03*
X118350000Y-122000000D03*
X118350000Y-122800000D03*
X118350000Y-123600000D03*
D26*
X116900000Y-125050000D03*
X116100000Y-125050000D03*
X115300000Y-125050000D03*
X114500000Y-125050000D03*
X113700000Y-125050000D03*
X112900000Y-125050000D03*
X112100000Y-125050000D03*
X111300000Y-125050000D03*
D27*
X109850000Y-123600000D03*
X109850000Y-122800000D03*
X109850000Y-122000000D03*
X109850000Y-121200000D03*
X109850000Y-120400000D03*
X109850000Y-119600000D03*
X109850000Y-118800000D03*
X109850000Y-118000000D03*
D28*
X130958000Y-151544000D03*
X136758000Y-151544000D03*
D29*
X137358000Y-151544000D03*
X130358000Y-151544000D03*
D30*
X132858000Y-151544000D03*
D31*
X136358000Y-148844000D03*
D32*
X133858000Y-148844000D03*
X134508000Y-148844000D03*
X135158000Y-148844000D03*
X132558000Y-148844000D03*
X133208000Y-148844000D03*
D31*
X131358000Y-148844000D03*
D30*
X134858000Y-151544000D03*
D17*
X163450000Y-126175000D03*
X160450000Y-126175000D03*
M02*
