G04 #@! TF.GenerationSoftware,KiCad,Pcbnew,(5.1.9)-1*
G04 #@! TF.CreationDate,2021-05-02T01:08:58+02:00*
G04 #@! TF.ProjectId,atmega32,61746d65-6761-4333-922e-6b696361645f,rev?*
G04 #@! TF.SameCoordinates,Original*
G04 #@! TF.FileFunction,Copper,L2,Inr*
G04 #@! TF.FilePolarity,Positive*
%FSLAX46Y46*%
G04 Gerber Fmt 4.6, Leading zero omitted, Abs format (unit mm)*
G04 Created by KiCad (PCBNEW (5.1.9)-1) date 2021-05-02 01:08:58*
%MOMM*%
%LPD*%
G01*
G04 APERTURE LIST*
G04 #@! TA.AperFunction,ComponentPad*
%ADD10C,1.500000*%
G04 #@! TD*
G04 #@! TA.AperFunction,ComponentPad*
%ADD11R,1.050000X1.050000*%
G04 #@! TD*
G04 #@! TA.AperFunction,ComponentPad*
%ADD12C,1.050000*%
G04 #@! TD*
G04 #@! TA.AperFunction,ComponentPad*
%ADD13C,1.000000*%
G04 #@! TD*
G04 #@! TA.AperFunction,ComponentPad*
%ADD14C,0.800000*%
G04 #@! TD*
G04 #@! TA.AperFunction,ComponentPad*
%ADD15C,6.400000*%
G04 #@! TD*
G04 #@! TA.AperFunction,ComponentPad*
%ADD16O,1.200000X1.900000*%
G04 #@! TD*
G04 #@! TA.AperFunction,ComponentPad*
%ADD17C,1.450000*%
G04 #@! TD*
G04 #@! TA.AperFunction,ViaPad*
%ADD18C,0.800000*%
G04 #@! TD*
G04 #@! TA.AperFunction,Conductor*
%ADD19C,0.254000*%
G04 #@! TD*
G04 #@! TA.AperFunction,Conductor*
%ADD20C,0.100000*%
G04 #@! TD*
G04 APERTURE END LIST*
D10*
X147610000Y-102310000D03*
X147610000Y-95810000D03*
X152110000Y-102310000D03*
X152110000Y-95810000D03*
D11*
X121920000Y-127000000D03*
D12*
X123420000Y-127000000D03*
D11*
X142490000Y-127880000D03*
D12*
X143990000Y-127880000D03*
D13*
X136144000Y-107188000D03*
X134874000Y-107188000D03*
X136144000Y-105918000D03*
X134874000Y-105918000D03*
X136144000Y-104648000D03*
X134874000Y-104648000D03*
X136144000Y-103378000D03*
X134874000Y-103378000D03*
X136144000Y-102108000D03*
X134874000Y-102108000D03*
X136144000Y-100838000D03*
X134874000Y-100838000D03*
X136144000Y-99568000D03*
X134874000Y-99568000D03*
X136144000Y-98298000D03*
X134874000Y-98298000D03*
D14*
X166797056Y-145368944D03*
X165100000Y-144666000D03*
X163402944Y-145368944D03*
X162700000Y-147066000D03*
X163402944Y-148763056D03*
X165100000Y-149466000D03*
X166797056Y-148763056D03*
X167500000Y-147066000D03*
D15*
X165100000Y-147066000D03*
D14*
X166797056Y-95368944D03*
X165100000Y-94666000D03*
X163402944Y-95368944D03*
X162700000Y-97066000D03*
X163402944Y-98763056D03*
X165100000Y-99466000D03*
X166797056Y-98763056D03*
X167500000Y-97066000D03*
D15*
X165100000Y-97066000D03*
D14*
X104313056Y-145368944D03*
X102616000Y-144666000D03*
X100918944Y-145368944D03*
X100216000Y-147066000D03*
X100918944Y-148763056D03*
X102616000Y-149466000D03*
X104313056Y-148763056D03*
X105016000Y-147066000D03*
D15*
X102616000Y-147066000D03*
D14*
X104313056Y-95368944D03*
X102616000Y-94666000D03*
X100918944Y-95368944D03*
X100216000Y-97066000D03*
X100918944Y-98763056D03*
X102616000Y-99466000D03*
X104313056Y-98763056D03*
X105016000Y-97066000D03*
D15*
X102616000Y-97066000D03*
D16*
X137358000Y-151544000D03*
X130358000Y-151544000D03*
D17*
X136358000Y-148844000D03*
X131358000Y-148844000D03*
D18*
X107188000Y-137922000D03*
X105156000Y-120650000D03*
X104394000Y-120142000D03*
X104394000Y-114300000D03*
X141540000Y-138470000D03*
X155480000Y-134500000D03*
X130810000Y-140716000D03*
X130810000Y-142494000D03*
X129540000Y-139700000D03*
X138463950Y-133338000D03*
X137922000Y-131826000D03*
X139780000Y-121710000D03*
X132311669Y-115592331D03*
X139192000Y-114046000D03*
X133096000Y-101092000D03*
X129286000Y-97282000D03*
X125984000Y-113030000D03*
X129032000Y-109982000D03*
X120142000Y-123698000D03*
X107696000Y-110236000D03*
X117094000Y-129794000D03*
X116078000Y-127508000D03*
X117094000Y-127254000D03*
X106680000Y-110236000D03*
X115570000Y-129794000D03*
X136144000Y-146304000D03*
X135450000Y-144460000D03*
X136730000Y-144380000D03*
X143820000Y-134690000D03*
X142230000Y-121720000D03*
X143690000Y-121650000D03*
X145820000Y-121610000D03*
X143480000Y-118460000D03*
X116586000Y-120650000D03*
X111061202Y-121150000D03*
X112706932Y-119610001D03*
X124714000Y-121158000D03*
X117094000Y-135636000D03*
X143510000Y-110236000D03*
X137264669Y-101749331D03*
X134620000Y-108204000D03*
X138706331Y-108689669D03*
X132842000Y-113792000D03*
X130556000Y-115316000D03*
X113284000Y-118618000D03*
X129794000Y-110744000D03*
X139954000Y-109728000D03*
X134515331Y-115674669D03*
X115316000Y-123649998D03*
X131064000Y-123698000D03*
X132080000Y-117856000D03*
X120396000Y-119380000D03*
X140992331Y-110975669D03*
X135382000Y-116332000D03*
X115570000Y-119380000D03*
X121412000Y-114796000D03*
X120106108Y-116367892D03*
X131064000Y-105664000D03*
X112014000Y-118110000D03*
X138706331Y-104879669D03*
X134112000Y-109220000D03*
X131826000Y-109220000D03*
X120396000Y-105918000D03*
X132842000Y-107950000D03*
X126215669Y-115084331D03*
X125270000Y-142187500D03*
X125270000Y-145882500D03*
X125270000Y-147730000D03*
X126730000Y-147750000D03*
X125270000Y-144035000D03*
X125270000Y-140340000D03*
X145780000Y-118680000D03*
X111760000Y-120396000D03*
X111760000Y-121920000D03*
X116332000Y-122428000D03*
X143256000Y-108712000D03*
D19*
X165968771Y-91664032D02*
X166815200Y-91871935D01*
X167617490Y-92212487D01*
X168355015Y-92676932D01*
X169008794Y-93253317D01*
X169562017Y-93926819D01*
X170000437Y-94680101D01*
X170312784Y-95493791D01*
X170492204Y-96352627D01*
X170536000Y-97048747D01*
X170536001Y-147039479D01*
X170463968Y-147934775D01*
X170256065Y-148781199D01*
X169915513Y-149583491D01*
X169451068Y-150321015D01*
X168874680Y-150974798D01*
X168201182Y-151528016D01*
X167447899Y-151966437D01*
X166634209Y-152278784D01*
X165775373Y-152458204D01*
X165079253Y-152502000D01*
X138433368Y-152502000D01*
X138504511Y-152368901D01*
X138575130Y-152136101D01*
X138593000Y-151954664D01*
X138593000Y-151133335D01*
X138575130Y-150951898D01*
X138504511Y-150719099D01*
X138389833Y-150504551D01*
X138235502Y-150316498D01*
X138047448Y-150162167D01*
X137832900Y-150047489D01*
X137600101Y-149976870D01*
X137358000Y-149953025D01*
X137115898Y-149976870D01*
X137105965Y-149979883D01*
X137224949Y-149900381D01*
X137358449Y-149766881D01*
X162578724Y-149766881D01*
X162938912Y-150256548D01*
X163602882Y-150616849D01*
X164324385Y-150840694D01*
X165075695Y-150919480D01*
X165827938Y-150850178D01*
X166552208Y-150635452D01*
X167220670Y-150283555D01*
X167261088Y-150256548D01*
X167621276Y-149766881D01*
X165100000Y-147245605D01*
X162578724Y-149766881D01*
X137358449Y-149766881D01*
X137414381Y-149710949D01*
X137563216Y-149488201D01*
X137665736Y-149240697D01*
X137718000Y-148977948D01*
X137718000Y-148710052D01*
X137665736Y-148447303D01*
X137563216Y-148199799D01*
X137414381Y-147977051D01*
X137224949Y-147787619D01*
X137002201Y-147638784D01*
X136754697Y-147536264D01*
X136491948Y-147484000D01*
X136224052Y-147484000D01*
X135961303Y-147536264D01*
X135713799Y-147638784D01*
X135491051Y-147787619D01*
X135301619Y-147977051D01*
X135152784Y-148199799D01*
X135050264Y-148447303D01*
X134998000Y-148710052D01*
X134998000Y-148977948D01*
X135050264Y-149240697D01*
X135152784Y-149488201D01*
X135301619Y-149710949D01*
X135491051Y-149900381D01*
X135713799Y-150049216D01*
X135961303Y-150151736D01*
X136224052Y-150204000D01*
X136491948Y-150204000D01*
X136657768Y-150171016D01*
X136480498Y-150316498D01*
X136326167Y-150504552D01*
X136211489Y-150719100D01*
X136140870Y-150951899D01*
X136123000Y-151133336D01*
X136123000Y-151954665D01*
X136140870Y-152136102D01*
X136211489Y-152368901D01*
X136282632Y-152502000D01*
X131433368Y-152502000D01*
X131504511Y-152368901D01*
X131575130Y-152136102D01*
X131593000Y-151954665D01*
X131593000Y-151133336D01*
X131575130Y-150951899D01*
X131504511Y-150719099D01*
X131389833Y-150504551D01*
X131235502Y-150316498D01*
X131058232Y-150171016D01*
X131224052Y-150204000D01*
X131491948Y-150204000D01*
X131754697Y-150151736D01*
X132002201Y-150049216D01*
X132224949Y-149900381D01*
X132414381Y-149710949D01*
X132563216Y-149488201D01*
X132665736Y-149240697D01*
X132718000Y-148977948D01*
X132718000Y-148710052D01*
X132665736Y-148447303D01*
X132563216Y-148199799D01*
X132414381Y-147977051D01*
X132224949Y-147787619D01*
X132002201Y-147638784D01*
X131754697Y-147536264D01*
X131491948Y-147484000D01*
X131224052Y-147484000D01*
X130961303Y-147536264D01*
X130713799Y-147638784D01*
X130491051Y-147787619D01*
X130301619Y-147977051D01*
X130152784Y-148199799D01*
X130050264Y-148447303D01*
X129998000Y-148710052D01*
X129998000Y-148977948D01*
X130050264Y-149240697D01*
X130152784Y-149488201D01*
X130301619Y-149710949D01*
X130491051Y-149900381D01*
X130610035Y-149979883D01*
X130600102Y-149976870D01*
X130358000Y-149953025D01*
X130115899Y-149976870D01*
X129883100Y-150047489D01*
X129668552Y-150162167D01*
X129480499Y-150316498D01*
X129326168Y-150504551D01*
X129211489Y-150719099D01*
X129140870Y-150951898D01*
X129123000Y-151133335D01*
X129123000Y-151954664D01*
X129140870Y-152136101D01*
X129211489Y-152368900D01*
X129282632Y-152502000D01*
X102642508Y-152502000D01*
X101747225Y-152429968D01*
X100900801Y-152222065D01*
X100098509Y-151881513D01*
X99360985Y-151417068D01*
X98707202Y-150840680D01*
X98153984Y-150167182D01*
X97921004Y-149766881D01*
X100094724Y-149766881D01*
X100454912Y-150256548D01*
X101118882Y-150616849D01*
X101840385Y-150840694D01*
X102591695Y-150919480D01*
X103343938Y-150850178D01*
X104068208Y-150635452D01*
X104736670Y-150283555D01*
X104777088Y-150256548D01*
X105137276Y-149766881D01*
X102616000Y-147245605D01*
X100094724Y-149766881D01*
X97921004Y-149766881D01*
X97715563Y-149413899D01*
X97403216Y-148600209D01*
X97223796Y-147741373D01*
X97180000Y-147045253D01*
X97180000Y-147041695D01*
X98762520Y-147041695D01*
X98831822Y-147793938D01*
X99046548Y-148518208D01*
X99398445Y-149186670D01*
X99425452Y-149227088D01*
X99915119Y-149587276D01*
X102436395Y-147066000D01*
X102795605Y-147066000D01*
X105316881Y-149587276D01*
X105806548Y-149227088D01*
X106166849Y-148563118D01*
X106390694Y-147841615D01*
X106469480Y-147090305D01*
X106400178Y-146338062D01*
X106185452Y-145613792D01*
X105833555Y-144945330D01*
X105806548Y-144904912D01*
X105316881Y-144544724D01*
X102795605Y-147066000D01*
X102436395Y-147066000D01*
X99915119Y-144544724D01*
X99425452Y-144904912D01*
X99065151Y-145568882D01*
X98841306Y-146290385D01*
X98762520Y-147041695D01*
X97180000Y-147041695D01*
X97180000Y-144365119D01*
X100094724Y-144365119D01*
X102616000Y-146886395D01*
X105137276Y-144365119D01*
X104777088Y-143875452D01*
X104113118Y-143515151D01*
X103391615Y-143291306D01*
X102640305Y-143212520D01*
X101888062Y-143281822D01*
X101163792Y-143496548D01*
X100495330Y-143848445D01*
X100454912Y-143875452D01*
X100094724Y-144365119D01*
X97180000Y-144365119D01*
X97180000Y-140238061D01*
X124235000Y-140238061D01*
X124235000Y-140441939D01*
X124274774Y-140641898D01*
X124352795Y-140830256D01*
X124466063Y-140999774D01*
X124610226Y-141143937D01*
X124779744Y-141257205D01*
X124795545Y-141263750D01*
X124779744Y-141270295D01*
X124610226Y-141383563D01*
X124466063Y-141527726D01*
X124352795Y-141697244D01*
X124274774Y-141885602D01*
X124235000Y-142085561D01*
X124235000Y-142289439D01*
X124274774Y-142489398D01*
X124352795Y-142677756D01*
X124466063Y-142847274D01*
X124610226Y-142991437D01*
X124779744Y-143104705D01*
X124795545Y-143111250D01*
X124779744Y-143117795D01*
X124610226Y-143231063D01*
X124466063Y-143375226D01*
X124352795Y-143544744D01*
X124274774Y-143733102D01*
X124235000Y-143933061D01*
X124235000Y-144136939D01*
X124274774Y-144336898D01*
X124352795Y-144525256D01*
X124466063Y-144694774D01*
X124610226Y-144838937D01*
X124779744Y-144952205D01*
X124795545Y-144958750D01*
X124779744Y-144965295D01*
X124610226Y-145078563D01*
X124466063Y-145222726D01*
X124352795Y-145392244D01*
X124274774Y-145580602D01*
X124235000Y-145780561D01*
X124235000Y-145984439D01*
X124274774Y-146184398D01*
X124352795Y-146372756D01*
X124466063Y-146542274D01*
X124610226Y-146686437D01*
X124779744Y-146799705D01*
X124795545Y-146806250D01*
X124779744Y-146812795D01*
X124610226Y-146926063D01*
X124466063Y-147070226D01*
X124352795Y-147239744D01*
X124274774Y-147428102D01*
X124235000Y-147628061D01*
X124235000Y-147831939D01*
X124274774Y-148031898D01*
X124352795Y-148220256D01*
X124466063Y-148389774D01*
X124610226Y-148533937D01*
X124779744Y-148647205D01*
X124968102Y-148725226D01*
X125168061Y-148765000D01*
X125371939Y-148765000D01*
X125571898Y-148725226D01*
X125760256Y-148647205D01*
X125929774Y-148533937D01*
X125990000Y-148473711D01*
X126070226Y-148553937D01*
X126239744Y-148667205D01*
X126428102Y-148745226D01*
X126628061Y-148785000D01*
X126831939Y-148785000D01*
X127031898Y-148745226D01*
X127220256Y-148667205D01*
X127389774Y-148553937D01*
X127533937Y-148409774D01*
X127647205Y-148240256D01*
X127725226Y-148051898D01*
X127765000Y-147851939D01*
X127765000Y-147648061D01*
X127725226Y-147448102D01*
X127647205Y-147259744D01*
X127533937Y-147090226D01*
X127485406Y-147041695D01*
X161246520Y-147041695D01*
X161315822Y-147793938D01*
X161530548Y-148518208D01*
X161882445Y-149186670D01*
X161909452Y-149227088D01*
X162399119Y-149587276D01*
X164920395Y-147066000D01*
X165279605Y-147066000D01*
X167800881Y-149587276D01*
X168290548Y-149227088D01*
X168650849Y-148563118D01*
X168874694Y-147841615D01*
X168953480Y-147090305D01*
X168884178Y-146338062D01*
X168669452Y-145613792D01*
X168317555Y-144945330D01*
X168290548Y-144904912D01*
X167800881Y-144544724D01*
X165279605Y-147066000D01*
X164920395Y-147066000D01*
X162399119Y-144544724D01*
X161909452Y-144904912D01*
X161549151Y-145568882D01*
X161325306Y-146290385D01*
X161246520Y-147041695D01*
X127485406Y-147041695D01*
X127389774Y-146946063D01*
X127220256Y-146832795D01*
X127031898Y-146754774D01*
X126831939Y-146715000D01*
X126628061Y-146715000D01*
X126428102Y-146754774D01*
X126239744Y-146832795D01*
X126070226Y-146946063D01*
X126010000Y-147006289D01*
X125929774Y-146926063D01*
X125760256Y-146812795D01*
X125744455Y-146806250D01*
X125760256Y-146799705D01*
X125929774Y-146686437D01*
X126073937Y-146542274D01*
X126187205Y-146372756D01*
X126265226Y-146184398D01*
X126305000Y-145984439D01*
X126305000Y-145780561D01*
X126265226Y-145580602D01*
X126187205Y-145392244D01*
X126073937Y-145222726D01*
X125929774Y-145078563D01*
X125760256Y-144965295D01*
X125744455Y-144958750D01*
X125760256Y-144952205D01*
X125929774Y-144838937D01*
X126073937Y-144694774D01*
X126187205Y-144525256D01*
X126253536Y-144365119D01*
X162578724Y-144365119D01*
X165100000Y-146886395D01*
X167621276Y-144365119D01*
X167261088Y-143875452D01*
X166597118Y-143515151D01*
X165875615Y-143291306D01*
X165124305Y-143212520D01*
X164372062Y-143281822D01*
X163647792Y-143496548D01*
X162979330Y-143848445D01*
X162938912Y-143875452D01*
X162578724Y-144365119D01*
X126253536Y-144365119D01*
X126265226Y-144336898D01*
X126305000Y-144136939D01*
X126305000Y-143933061D01*
X126265226Y-143733102D01*
X126187205Y-143544744D01*
X126073937Y-143375226D01*
X125929774Y-143231063D01*
X125760256Y-143117795D01*
X125744455Y-143111250D01*
X125760256Y-143104705D01*
X125929774Y-142991437D01*
X126073937Y-142847274D01*
X126187205Y-142677756D01*
X126265226Y-142489398D01*
X126305000Y-142289439D01*
X126305000Y-142085561D01*
X126265226Y-141885602D01*
X126187205Y-141697244D01*
X126073937Y-141527726D01*
X125929774Y-141383563D01*
X125760256Y-141270295D01*
X125744455Y-141263750D01*
X125760256Y-141257205D01*
X125929774Y-141143937D01*
X126073937Y-140999774D01*
X126187205Y-140830256D01*
X126265226Y-140641898D01*
X126305000Y-140441939D01*
X126305000Y-140238061D01*
X126265226Y-140038102D01*
X126187205Y-139849744D01*
X126073937Y-139680226D01*
X125929774Y-139536063D01*
X125760256Y-139422795D01*
X125571898Y-139344774D01*
X125371939Y-139305000D01*
X125168061Y-139305000D01*
X124968102Y-139344774D01*
X124779744Y-139422795D01*
X124610226Y-139536063D01*
X124466063Y-139680226D01*
X124352795Y-139849744D01*
X124274774Y-140038102D01*
X124235000Y-140238061D01*
X97180000Y-140238061D01*
X97180000Y-131724061D01*
X136887000Y-131724061D01*
X136887000Y-131927939D01*
X136926774Y-132127898D01*
X137004795Y-132316256D01*
X137118063Y-132485774D01*
X137262226Y-132629937D01*
X137431744Y-132743205D01*
X137576525Y-132803176D01*
X137546745Y-132847744D01*
X137468724Y-133036102D01*
X137428950Y-133236061D01*
X137428950Y-133439939D01*
X137468724Y-133639898D01*
X137546745Y-133828256D01*
X137660013Y-133997774D01*
X137804176Y-134141937D01*
X137973694Y-134255205D01*
X138162052Y-134333226D01*
X138362011Y-134373000D01*
X138565889Y-134373000D01*
X138765848Y-134333226D01*
X138954206Y-134255205D01*
X139123724Y-134141937D01*
X139267887Y-133997774D01*
X139381155Y-133828256D01*
X139459176Y-133639898D01*
X139498950Y-133439939D01*
X139498950Y-133236061D01*
X139459176Y-133036102D01*
X139381155Y-132847744D01*
X139267887Y-132678226D01*
X139123724Y-132534063D01*
X138954206Y-132420795D01*
X138809425Y-132360824D01*
X138839205Y-132316256D01*
X138917226Y-132127898D01*
X138957000Y-131927939D01*
X138957000Y-131724061D01*
X138917226Y-131524102D01*
X138839205Y-131335744D01*
X138725937Y-131166226D01*
X138581774Y-131022063D01*
X138412256Y-130908795D01*
X138223898Y-130830774D01*
X138023939Y-130791000D01*
X137820061Y-130791000D01*
X137620102Y-130830774D01*
X137431744Y-130908795D01*
X137262226Y-131022063D01*
X137118063Y-131166226D01*
X137004795Y-131335744D01*
X136926774Y-131524102D01*
X136887000Y-131724061D01*
X97180000Y-131724061D01*
X97180000Y-129692061D01*
X114535000Y-129692061D01*
X114535000Y-129895939D01*
X114574774Y-130095898D01*
X114652795Y-130284256D01*
X114766063Y-130453774D01*
X114910226Y-130597937D01*
X115079744Y-130711205D01*
X115268102Y-130789226D01*
X115468061Y-130829000D01*
X115671939Y-130829000D01*
X115871898Y-130789226D01*
X116060256Y-130711205D01*
X116229774Y-130597937D01*
X116332000Y-130495711D01*
X116434226Y-130597937D01*
X116603744Y-130711205D01*
X116792102Y-130789226D01*
X116992061Y-130829000D01*
X117195939Y-130829000D01*
X117395898Y-130789226D01*
X117584256Y-130711205D01*
X117753774Y-130597937D01*
X117897937Y-130453774D01*
X118011205Y-130284256D01*
X118089226Y-130095898D01*
X118129000Y-129895939D01*
X118129000Y-129692061D01*
X118089226Y-129492102D01*
X118011205Y-129303744D01*
X117897937Y-129134226D01*
X117753774Y-128990063D01*
X117584256Y-128876795D01*
X117395898Y-128798774D01*
X117195939Y-128759000D01*
X116992061Y-128759000D01*
X116792102Y-128798774D01*
X116603744Y-128876795D01*
X116434226Y-128990063D01*
X116332000Y-129092289D01*
X116229774Y-128990063D01*
X116060256Y-128876795D01*
X115871898Y-128798774D01*
X115671939Y-128759000D01*
X115468061Y-128759000D01*
X115268102Y-128798774D01*
X115079744Y-128876795D01*
X114910226Y-128990063D01*
X114766063Y-129134226D01*
X114652795Y-129303744D01*
X114574774Y-129492102D01*
X114535000Y-129692061D01*
X97180000Y-129692061D01*
X97180000Y-127406061D01*
X115043000Y-127406061D01*
X115043000Y-127609939D01*
X115082774Y-127809898D01*
X115160795Y-127998256D01*
X115274063Y-128167774D01*
X115418226Y-128311937D01*
X115587744Y-128425205D01*
X115776102Y-128503226D01*
X115976061Y-128543000D01*
X116179939Y-128543000D01*
X116379898Y-128503226D01*
X116568256Y-128425205D01*
X116737774Y-128311937D01*
X116799094Y-128250617D01*
X116992061Y-128289000D01*
X117195939Y-128289000D01*
X117395898Y-128249226D01*
X117584256Y-128171205D01*
X117753774Y-128057937D01*
X117897937Y-127913774D01*
X118011205Y-127744256D01*
X118089226Y-127555898D01*
X118129000Y-127355939D01*
X118129000Y-127152061D01*
X118089226Y-126952102D01*
X118011205Y-126763744D01*
X117897937Y-126594226D01*
X117778711Y-126475000D01*
X120756928Y-126475000D01*
X120756928Y-127525000D01*
X120769188Y-127649482D01*
X120805498Y-127769180D01*
X120864463Y-127879494D01*
X120943815Y-127976185D01*
X121040506Y-128055537D01*
X121150820Y-128114502D01*
X121270518Y-128150812D01*
X121395000Y-128163072D01*
X122445000Y-128163072D01*
X122569482Y-128150812D01*
X122689180Y-128114502D01*
X122799494Y-128055537D01*
X122848685Y-128015167D01*
X123050244Y-128105412D01*
X123273004Y-128156308D01*
X123501413Y-128162767D01*
X123726693Y-128124542D01*
X123940187Y-128043102D01*
X123998307Y-128012036D01*
X124036471Y-127796076D01*
X123420000Y-127179605D01*
X123405858Y-127193748D01*
X123226253Y-127014143D01*
X123240395Y-127000000D01*
X123599605Y-127000000D01*
X124216076Y-127616471D01*
X124432036Y-127578307D01*
X124525412Y-127369756D01*
X124528783Y-127355000D01*
X141326928Y-127355000D01*
X141326928Y-128405000D01*
X141339188Y-128529482D01*
X141375498Y-128649180D01*
X141434463Y-128759494D01*
X141513815Y-128856185D01*
X141610506Y-128935537D01*
X141720820Y-128994502D01*
X141840518Y-129030812D01*
X141965000Y-129043072D01*
X143015000Y-129043072D01*
X143139482Y-129030812D01*
X143259180Y-128994502D01*
X143369494Y-128935537D01*
X143418685Y-128895167D01*
X143620244Y-128985412D01*
X143843004Y-129036308D01*
X144071413Y-129042767D01*
X144296693Y-129004542D01*
X144510187Y-128923102D01*
X144568307Y-128892036D01*
X144606471Y-128676076D01*
X143990000Y-128059605D01*
X143975858Y-128073748D01*
X143796253Y-127894143D01*
X143810395Y-127880000D01*
X144169605Y-127880000D01*
X144786076Y-128496471D01*
X145002036Y-128458307D01*
X145095412Y-128249756D01*
X145146308Y-128026996D01*
X145152767Y-127798587D01*
X145114542Y-127573307D01*
X145033102Y-127359813D01*
X145002036Y-127301693D01*
X144786076Y-127263529D01*
X144169605Y-127880000D01*
X143810395Y-127880000D01*
X143796253Y-127865858D01*
X143975858Y-127686253D01*
X143990000Y-127700395D01*
X144606471Y-127083924D01*
X144568307Y-126867964D01*
X144359756Y-126774588D01*
X144136996Y-126723692D01*
X143908587Y-126717233D01*
X143683307Y-126755458D01*
X143469813Y-126836898D01*
X143418238Y-126864466D01*
X143369494Y-126824463D01*
X143259180Y-126765498D01*
X143139482Y-126729188D01*
X143015000Y-126716928D01*
X141965000Y-126716928D01*
X141840518Y-126729188D01*
X141720820Y-126765498D01*
X141610506Y-126824463D01*
X141513815Y-126903815D01*
X141434463Y-127000506D01*
X141375498Y-127110820D01*
X141339188Y-127230518D01*
X141326928Y-127355000D01*
X124528783Y-127355000D01*
X124576308Y-127146996D01*
X124582767Y-126918587D01*
X124544542Y-126693307D01*
X124463102Y-126479813D01*
X124432036Y-126421693D01*
X124216076Y-126383529D01*
X123599605Y-127000000D01*
X123240395Y-127000000D01*
X123226253Y-126985858D01*
X123405858Y-126806253D01*
X123420000Y-126820395D01*
X124036471Y-126203924D01*
X123998307Y-125987964D01*
X123789756Y-125894588D01*
X123566996Y-125843692D01*
X123338587Y-125837233D01*
X123113307Y-125875458D01*
X122899813Y-125956898D01*
X122848238Y-125984466D01*
X122799494Y-125944463D01*
X122689180Y-125885498D01*
X122569482Y-125849188D01*
X122445000Y-125836928D01*
X121395000Y-125836928D01*
X121270518Y-125849188D01*
X121150820Y-125885498D01*
X121040506Y-125944463D01*
X120943815Y-126023815D01*
X120864463Y-126120506D01*
X120805498Y-126230820D01*
X120769188Y-126350518D01*
X120756928Y-126475000D01*
X117778711Y-126475000D01*
X117753774Y-126450063D01*
X117584256Y-126336795D01*
X117395898Y-126258774D01*
X117195939Y-126219000D01*
X116992061Y-126219000D01*
X116792102Y-126258774D01*
X116603744Y-126336795D01*
X116434226Y-126450063D01*
X116372906Y-126511383D01*
X116179939Y-126473000D01*
X115976061Y-126473000D01*
X115776102Y-126512774D01*
X115587744Y-126590795D01*
X115418226Y-126704063D01*
X115274063Y-126848226D01*
X115160795Y-127017744D01*
X115082774Y-127206102D01*
X115043000Y-127406061D01*
X97180000Y-127406061D01*
X97180000Y-123548059D01*
X114281000Y-123548059D01*
X114281000Y-123751937D01*
X114320774Y-123951896D01*
X114398795Y-124140254D01*
X114512063Y-124309772D01*
X114656226Y-124453935D01*
X114825744Y-124567203D01*
X115014102Y-124645224D01*
X115214061Y-124684998D01*
X115417939Y-124684998D01*
X115617898Y-124645224D01*
X115806256Y-124567203D01*
X115975774Y-124453935D01*
X116119937Y-124309772D01*
X116233205Y-124140254D01*
X116311226Y-123951896D01*
X116351000Y-123751937D01*
X116351000Y-123596061D01*
X119107000Y-123596061D01*
X119107000Y-123799939D01*
X119146774Y-123999898D01*
X119224795Y-124188256D01*
X119338063Y-124357774D01*
X119482226Y-124501937D01*
X119651744Y-124615205D01*
X119840102Y-124693226D01*
X120040061Y-124733000D01*
X120243939Y-124733000D01*
X120443898Y-124693226D01*
X120632256Y-124615205D01*
X120801774Y-124501937D01*
X120945937Y-124357774D01*
X121059205Y-124188256D01*
X121137226Y-123999898D01*
X121177000Y-123799939D01*
X121177000Y-123596061D01*
X130029000Y-123596061D01*
X130029000Y-123799939D01*
X130068774Y-123999898D01*
X130146795Y-124188256D01*
X130260063Y-124357774D01*
X130404226Y-124501937D01*
X130573744Y-124615205D01*
X130762102Y-124693226D01*
X130962061Y-124733000D01*
X131165939Y-124733000D01*
X131365898Y-124693226D01*
X131554256Y-124615205D01*
X131723774Y-124501937D01*
X131867937Y-124357774D01*
X131981205Y-124188256D01*
X132059226Y-123999898D01*
X132099000Y-123799939D01*
X132099000Y-123596061D01*
X132059226Y-123396102D01*
X131981205Y-123207744D01*
X131867937Y-123038226D01*
X131723774Y-122894063D01*
X131554256Y-122780795D01*
X131365898Y-122702774D01*
X131165939Y-122663000D01*
X130962061Y-122663000D01*
X130762102Y-122702774D01*
X130573744Y-122780795D01*
X130404226Y-122894063D01*
X130260063Y-123038226D01*
X130146795Y-123207744D01*
X130068774Y-123396102D01*
X130029000Y-123596061D01*
X121177000Y-123596061D01*
X121137226Y-123396102D01*
X121059205Y-123207744D01*
X120945937Y-123038226D01*
X120801774Y-122894063D01*
X120632256Y-122780795D01*
X120443898Y-122702774D01*
X120243939Y-122663000D01*
X120040061Y-122663000D01*
X119840102Y-122702774D01*
X119651744Y-122780795D01*
X119482226Y-122894063D01*
X119338063Y-123038226D01*
X119224795Y-123207744D01*
X119146774Y-123396102D01*
X119107000Y-123596061D01*
X116351000Y-123596061D01*
X116351000Y-123548059D01*
X116334081Y-123463000D01*
X116433939Y-123463000D01*
X116633898Y-123423226D01*
X116822256Y-123345205D01*
X116991774Y-123231937D01*
X117135937Y-123087774D01*
X117249205Y-122918256D01*
X117327226Y-122729898D01*
X117367000Y-122529939D01*
X117367000Y-122326061D01*
X117327226Y-122126102D01*
X117249205Y-121937744D01*
X117135937Y-121768226D01*
X116991774Y-121624063D01*
X116967826Y-121608061D01*
X138745000Y-121608061D01*
X138745000Y-121811939D01*
X138784774Y-122011898D01*
X138862795Y-122200256D01*
X138976063Y-122369774D01*
X139120226Y-122513937D01*
X139289744Y-122627205D01*
X139478102Y-122705226D01*
X139678061Y-122745000D01*
X139881939Y-122745000D01*
X140081898Y-122705226D01*
X140270256Y-122627205D01*
X140439774Y-122513937D01*
X140583937Y-122369774D01*
X140697205Y-122200256D01*
X140775226Y-122011898D01*
X140815000Y-121811939D01*
X140815000Y-121608061D01*
X140775226Y-121408102D01*
X140697205Y-121219744D01*
X140583937Y-121050226D01*
X140439774Y-120906063D01*
X140270256Y-120792795D01*
X140081898Y-120714774D01*
X139881939Y-120675000D01*
X139678061Y-120675000D01*
X139478102Y-120714774D01*
X139289744Y-120792795D01*
X139120226Y-120906063D01*
X138976063Y-121050226D01*
X138862795Y-121219744D01*
X138784774Y-121408102D01*
X138745000Y-121608061D01*
X116967826Y-121608061D01*
X116822256Y-121510795D01*
X116633898Y-121432774D01*
X116433939Y-121393000D01*
X116230061Y-121393000D01*
X116030102Y-121432774D01*
X115841744Y-121510795D01*
X115672226Y-121624063D01*
X115528063Y-121768226D01*
X115414795Y-121937744D01*
X115336774Y-122126102D01*
X115297000Y-122326061D01*
X115297000Y-122529939D01*
X115313919Y-122614998D01*
X115214061Y-122614998D01*
X115014102Y-122654772D01*
X114825744Y-122732793D01*
X114656226Y-122846061D01*
X114512063Y-122990224D01*
X114398795Y-123159742D01*
X114320774Y-123348100D01*
X114281000Y-123548059D01*
X97180000Y-123548059D01*
X97180000Y-120294061D01*
X110725000Y-120294061D01*
X110725000Y-120497939D01*
X110764774Y-120697898D01*
X110842795Y-120886256D01*
X110956063Y-121055774D01*
X111058289Y-121158000D01*
X110956063Y-121260226D01*
X110842795Y-121429744D01*
X110764774Y-121618102D01*
X110725000Y-121818061D01*
X110725000Y-122021939D01*
X110764774Y-122221898D01*
X110842795Y-122410256D01*
X110956063Y-122579774D01*
X111100226Y-122723937D01*
X111269744Y-122837205D01*
X111458102Y-122915226D01*
X111658061Y-122955000D01*
X111861939Y-122955000D01*
X112061898Y-122915226D01*
X112250256Y-122837205D01*
X112419774Y-122723937D01*
X112563937Y-122579774D01*
X112677205Y-122410256D01*
X112755226Y-122221898D01*
X112795000Y-122021939D01*
X112795000Y-121818061D01*
X112755226Y-121618102D01*
X112677205Y-121429744D01*
X112563937Y-121260226D01*
X112461711Y-121158000D01*
X112563937Y-121055774D01*
X112677205Y-120886256D01*
X112755226Y-120697898D01*
X112795000Y-120497939D01*
X112795000Y-120294061D01*
X112755226Y-120094102D01*
X112677205Y-119905744D01*
X112563937Y-119736226D01*
X112419774Y-119592063D01*
X112250256Y-119478795D01*
X112061898Y-119400774D01*
X111861939Y-119361000D01*
X111658061Y-119361000D01*
X111458102Y-119400774D01*
X111269744Y-119478795D01*
X111100226Y-119592063D01*
X110956063Y-119736226D01*
X110842795Y-119905744D01*
X110764774Y-120094102D01*
X110725000Y-120294061D01*
X97180000Y-120294061D01*
X97180000Y-118008061D01*
X110979000Y-118008061D01*
X110979000Y-118211939D01*
X111018774Y-118411898D01*
X111096795Y-118600256D01*
X111210063Y-118769774D01*
X111354226Y-118913937D01*
X111523744Y-119027205D01*
X111712102Y-119105226D01*
X111912061Y-119145000D01*
X112115939Y-119145000D01*
X112315898Y-119105226D01*
X112358270Y-119087675D01*
X112366795Y-119108256D01*
X112480063Y-119277774D01*
X112624226Y-119421937D01*
X112793744Y-119535205D01*
X112982102Y-119613226D01*
X113182061Y-119653000D01*
X113385939Y-119653000D01*
X113585898Y-119613226D01*
X113774256Y-119535205D01*
X113943774Y-119421937D01*
X114087650Y-119278061D01*
X114535000Y-119278061D01*
X114535000Y-119481939D01*
X114574774Y-119681898D01*
X114652795Y-119870256D01*
X114766063Y-120039774D01*
X114910226Y-120183937D01*
X115079744Y-120297205D01*
X115268102Y-120375226D01*
X115468061Y-120415000D01*
X115671939Y-120415000D01*
X115871898Y-120375226D01*
X116060256Y-120297205D01*
X116229774Y-120183937D01*
X116373937Y-120039774D01*
X116487205Y-119870256D01*
X116565226Y-119681898D01*
X116605000Y-119481939D01*
X116605000Y-119278061D01*
X119361000Y-119278061D01*
X119361000Y-119481939D01*
X119400774Y-119681898D01*
X119478795Y-119870256D01*
X119592063Y-120039774D01*
X119736226Y-120183937D01*
X119905744Y-120297205D01*
X120094102Y-120375226D01*
X120294061Y-120415000D01*
X120497939Y-120415000D01*
X120697898Y-120375226D01*
X120886256Y-120297205D01*
X121055774Y-120183937D01*
X121199937Y-120039774D01*
X121313205Y-119870256D01*
X121391226Y-119681898D01*
X121431000Y-119481939D01*
X121431000Y-119278061D01*
X121391226Y-119078102D01*
X121313205Y-118889744D01*
X121199937Y-118720226D01*
X121055774Y-118576063D01*
X120886256Y-118462795D01*
X120697898Y-118384774D01*
X120497939Y-118345000D01*
X120294061Y-118345000D01*
X120094102Y-118384774D01*
X119905744Y-118462795D01*
X119736226Y-118576063D01*
X119592063Y-118720226D01*
X119478795Y-118889744D01*
X119400774Y-119078102D01*
X119361000Y-119278061D01*
X116605000Y-119278061D01*
X116565226Y-119078102D01*
X116487205Y-118889744D01*
X116373937Y-118720226D01*
X116229774Y-118576063D01*
X116060256Y-118462795D01*
X115871898Y-118384774D01*
X115671939Y-118345000D01*
X115468061Y-118345000D01*
X115268102Y-118384774D01*
X115079744Y-118462795D01*
X114910226Y-118576063D01*
X114766063Y-118720226D01*
X114652795Y-118889744D01*
X114574774Y-119078102D01*
X114535000Y-119278061D01*
X114087650Y-119278061D01*
X114087937Y-119277774D01*
X114201205Y-119108256D01*
X114279226Y-118919898D01*
X114319000Y-118719939D01*
X114319000Y-118516061D01*
X114279226Y-118316102D01*
X114201205Y-118127744D01*
X114087937Y-117958226D01*
X113943774Y-117814063D01*
X113853975Y-117754061D01*
X131045000Y-117754061D01*
X131045000Y-117957939D01*
X131084774Y-118157898D01*
X131162795Y-118346256D01*
X131276063Y-118515774D01*
X131420226Y-118659937D01*
X131589744Y-118773205D01*
X131778102Y-118851226D01*
X131978061Y-118891000D01*
X132181939Y-118891000D01*
X132381898Y-118851226D01*
X132570256Y-118773205D01*
X132739774Y-118659937D01*
X132821650Y-118578061D01*
X144745000Y-118578061D01*
X144745000Y-118781939D01*
X144784774Y-118981898D01*
X144862795Y-119170256D01*
X144976063Y-119339774D01*
X145120226Y-119483937D01*
X145289744Y-119597205D01*
X145478102Y-119675226D01*
X145678061Y-119715000D01*
X145881939Y-119715000D01*
X146081898Y-119675226D01*
X146270256Y-119597205D01*
X146439774Y-119483937D01*
X146583937Y-119339774D01*
X146697205Y-119170256D01*
X146775226Y-118981898D01*
X146815000Y-118781939D01*
X146815000Y-118578061D01*
X146775226Y-118378102D01*
X146697205Y-118189744D01*
X146583937Y-118020226D01*
X146439774Y-117876063D01*
X146270256Y-117762795D01*
X146081898Y-117684774D01*
X145881939Y-117645000D01*
X145678061Y-117645000D01*
X145478102Y-117684774D01*
X145289744Y-117762795D01*
X145120226Y-117876063D01*
X144976063Y-118020226D01*
X144862795Y-118189744D01*
X144784774Y-118378102D01*
X144745000Y-118578061D01*
X132821650Y-118578061D01*
X132883937Y-118515774D01*
X132997205Y-118346256D01*
X133075226Y-118157898D01*
X133115000Y-117957939D01*
X133115000Y-117754061D01*
X133075226Y-117554102D01*
X132997205Y-117365744D01*
X132883937Y-117196226D01*
X132739774Y-117052063D01*
X132570256Y-116938795D01*
X132381898Y-116860774D01*
X132181939Y-116821000D01*
X131978061Y-116821000D01*
X131778102Y-116860774D01*
X131589744Y-116938795D01*
X131420226Y-117052063D01*
X131276063Y-117196226D01*
X131162795Y-117365744D01*
X131084774Y-117554102D01*
X131045000Y-117754061D01*
X113853975Y-117754061D01*
X113774256Y-117700795D01*
X113585898Y-117622774D01*
X113385939Y-117583000D01*
X113182061Y-117583000D01*
X112982102Y-117622774D01*
X112939730Y-117640325D01*
X112931205Y-117619744D01*
X112817937Y-117450226D01*
X112673774Y-117306063D01*
X112504256Y-117192795D01*
X112315898Y-117114774D01*
X112115939Y-117075000D01*
X111912061Y-117075000D01*
X111712102Y-117114774D01*
X111523744Y-117192795D01*
X111354226Y-117306063D01*
X111210063Y-117450226D01*
X111096795Y-117619744D01*
X111018774Y-117808102D01*
X110979000Y-118008061D01*
X97180000Y-118008061D01*
X97180000Y-116265953D01*
X119071108Y-116265953D01*
X119071108Y-116469831D01*
X119110882Y-116669790D01*
X119188903Y-116858148D01*
X119302171Y-117027666D01*
X119446334Y-117171829D01*
X119615852Y-117285097D01*
X119804210Y-117363118D01*
X120004169Y-117402892D01*
X120208047Y-117402892D01*
X120408006Y-117363118D01*
X120596364Y-117285097D01*
X120765882Y-117171829D01*
X120910045Y-117027666D01*
X121023313Y-116858148D01*
X121101334Y-116669790D01*
X121141108Y-116469831D01*
X121141108Y-116265953D01*
X121101334Y-116065994D01*
X121023313Y-115877636D01*
X120910045Y-115708118D01*
X120901818Y-115699891D01*
X120921744Y-115713205D01*
X121110102Y-115791226D01*
X121310061Y-115831000D01*
X121513939Y-115831000D01*
X121713898Y-115791226D01*
X121902256Y-115713205D01*
X122071774Y-115599937D01*
X122215937Y-115455774D01*
X122329205Y-115286256D01*
X122407226Y-115097898D01*
X122447000Y-114897939D01*
X122447000Y-114694061D01*
X122407226Y-114494102D01*
X122329205Y-114305744D01*
X122215937Y-114136226D01*
X122071774Y-113992063D01*
X121902256Y-113878795D01*
X121713898Y-113800774D01*
X121513939Y-113761000D01*
X121310061Y-113761000D01*
X121110102Y-113800774D01*
X120921744Y-113878795D01*
X120752226Y-113992063D01*
X120608063Y-114136226D01*
X120494795Y-114305744D01*
X120416774Y-114494102D01*
X120377000Y-114694061D01*
X120377000Y-114897939D01*
X120416774Y-115097898D01*
X120494795Y-115286256D01*
X120608063Y-115455774D01*
X120616290Y-115464001D01*
X120596364Y-115450687D01*
X120408006Y-115372666D01*
X120208047Y-115332892D01*
X120004169Y-115332892D01*
X119804210Y-115372666D01*
X119615852Y-115450687D01*
X119446334Y-115563955D01*
X119302171Y-115708118D01*
X119188903Y-115877636D01*
X119110882Y-116065994D01*
X119071108Y-116265953D01*
X97180000Y-116265953D01*
X97180000Y-112928061D01*
X124949000Y-112928061D01*
X124949000Y-113131939D01*
X124988774Y-113331898D01*
X125066795Y-113520256D01*
X125180063Y-113689774D01*
X125324226Y-113833937D01*
X125493744Y-113947205D01*
X125682102Y-114025226D01*
X125882061Y-114065000D01*
X126034956Y-114065000D01*
X125913771Y-114089105D01*
X125725413Y-114167126D01*
X125555895Y-114280394D01*
X125411732Y-114424557D01*
X125298464Y-114594075D01*
X125220443Y-114782433D01*
X125180669Y-114982392D01*
X125180669Y-115186270D01*
X125220443Y-115386229D01*
X125298464Y-115574587D01*
X125411732Y-115744105D01*
X125555895Y-115888268D01*
X125725413Y-116001536D01*
X125913771Y-116079557D01*
X126113730Y-116119331D01*
X126317608Y-116119331D01*
X126517567Y-116079557D01*
X126705925Y-116001536D01*
X126875443Y-115888268D01*
X127019606Y-115744105D01*
X127132874Y-115574587D01*
X127210895Y-115386229D01*
X127245141Y-115214061D01*
X129521000Y-115214061D01*
X129521000Y-115417939D01*
X129560774Y-115617898D01*
X129638795Y-115806256D01*
X129752063Y-115975774D01*
X129896226Y-116119937D01*
X130065744Y-116233205D01*
X130254102Y-116311226D01*
X130454061Y-116351000D01*
X130657939Y-116351000D01*
X130857898Y-116311226D01*
X131046256Y-116233205D01*
X131215774Y-116119937D01*
X131353066Y-115982645D01*
X131394464Y-116082587D01*
X131507732Y-116252105D01*
X131651895Y-116396268D01*
X131821413Y-116509536D01*
X132009771Y-116587557D01*
X132209730Y-116627331D01*
X132413608Y-116627331D01*
X132613567Y-116587557D01*
X132801925Y-116509536D01*
X132971443Y-116396268D01*
X133115606Y-116252105D01*
X133228874Y-116082587D01*
X133306895Y-115894229D01*
X133346669Y-115694270D01*
X133346669Y-115572730D01*
X133480331Y-115572730D01*
X133480331Y-115776608D01*
X133520105Y-115976567D01*
X133598126Y-116164925D01*
X133711394Y-116334443D01*
X133855557Y-116478606D01*
X134025075Y-116591874D01*
X134213433Y-116669895D01*
X134413392Y-116709669D01*
X134418160Y-116709669D01*
X134464795Y-116822256D01*
X134578063Y-116991774D01*
X134722226Y-117135937D01*
X134891744Y-117249205D01*
X135080102Y-117327226D01*
X135280061Y-117367000D01*
X135483939Y-117367000D01*
X135683898Y-117327226D01*
X135872256Y-117249205D01*
X136041774Y-117135937D01*
X136185937Y-116991774D01*
X136299205Y-116822256D01*
X136377226Y-116633898D01*
X136417000Y-116433939D01*
X136417000Y-116230061D01*
X136377226Y-116030102D01*
X136299205Y-115841744D01*
X136185937Y-115672226D01*
X136041774Y-115528063D01*
X135872256Y-115414795D01*
X135683898Y-115336774D01*
X135483939Y-115297000D01*
X135479171Y-115297000D01*
X135432536Y-115184413D01*
X135319268Y-115014895D01*
X135175105Y-114870732D01*
X135005587Y-114757464D01*
X134817229Y-114679443D01*
X134617270Y-114639669D01*
X134413392Y-114639669D01*
X134213433Y-114679443D01*
X134025075Y-114757464D01*
X133855557Y-114870732D01*
X133711394Y-115014895D01*
X133598126Y-115184413D01*
X133520105Y-115372771D01*
X133480331Y-115572730D01*
X133346669Y-115572730D01*
X133346669Y-115490392D01*
X133306895Y-115290433D01*
X133228874Y-115102075D01*
X133115606Y-114932557D01*
X132999081Y-114816032D01*
X133143898Y-114787226D01*
X133332256Y-114709205D01*
X133501774Y-114595937D01*
X133645937Y-114451774D01*
X133759205Y-114282256D01*
X133837226Y-114093898D01*
X133867030Y-113944061D01*
X138157000Y-113944061D01*
X138157000Y-114147939D01*
X138196774Y-114347898D01*
X138274795Y-114536256D01*
X138388063Y-114705774D01*
X138532226Y-114849937D01*
X138701744Y-114963205D01*
X138890102Y-115041226D01*
X139090061Y-115081000D01*
X139293939Y-115081000D01*
X139493898Y-115041226D01*
X139682256Y-114963205D01*
X139851774Y-114849937D01*
X139995937Y-114705774D01*
X140109205Y-114536256D01*
X140187226Y-114347898D01*
X140227000Y-114147939D01*
X140227000Y-113944061D01*
X140187226Y-113744102D01*
X140109205Y-113555744D01*
X139995937Y-113386226D01*
X139851774Y-113242063D01*
X139682256Y-113128795D01*
X139493898Y-113050774D01*
X139293939Y-113011000D01*
X139090061Y-113011000D01*
X138890102Y-113050774D01*
X138701744Y-113128795D01*
X138532226Y-113242063D01*
X138388063Y-113386226D01*
X138274795Y-113555744D01*
X138196774Y-113744102D01*
X138157000Y-113944061D01*
X133867030Y-113944061D01*
X133877000Y-113893939D01*
X133877000Y-113690061D01*
X133837226Y-113490102D01*
X133759205Y-113301744D01*
X133645937Y-113132226D01*
X133501774Y-112988063D01*
X133332256Y-112874795D01*
X133143898Y-112796774D01*
X132943939Y-112757000D01*
X132740061Y-112757000D01*
X132540102Y-112796774D01*
X132351744Y-112874795D01*
X132182226Y-112988063D01*
X132038063Y-113132226D01*
X131924795Y-113301744D01*
X131846774Y-113490102D01*
X131807000Y-113690061D01*
X131807000Y-113893939D01*
X131846774Y-114093898D01*
X131924795Y-114282256D01*
X132038063Y-114451774D01*
X132154588Y-114568299D01*
X132009771Y-114597105D01*
X131821413Y-114675126D01*
X131651895Y-114788394D01*
X131514603Y-114925686D01*
X131473205Y-114825744D01*
X131359937Y-114656226D01*
X131215774Y-114512063D01*
X131046256Y-114398795D01*
X130857898Y-114320774D01*
X130657939Y-114281000D01*
X130454061Y-114281000D01*
X130254102Y-114320774D01*
X130065744Y-114398795D01*
X129896226Y-114512063D01*
X129752063Y-114656226D01*
X129638795Y-114825744D01*
X129560774Y-115014102D01*
X129521000Y-115214061D01*
X127245141Y-115214061D01*
X127250669Y-115186270D01*
X127250669Y-114982392D01*
X127210895Y-114782433D01*
X127132874Y-114594075D01*
X127019606Y-114424557D01*
X126875443Y-114280394D01*
X126705925Y-114167126D01*
X126517567Y-114089105D01*
X126317608Y-114049331D01*
X126164713Y-114049331D01*
X126285898Y-114025226D01*
X126474256Y-113947205D01*
X126643774Y-113833937D01*
X126787937Y-113689774D01*
X126901205Y-113520256D01*
X126979226Y-113331898D01*
X127019000Y-113131939D01*
X127019000Y-112928061D01*
X126979226Y-112728102D01*
X126901205Y-112539744D01*
X126787937Y-112370226D01*
X126643774Y-112226063D01*
X126474256Y-112112795D01*
X126285898Y-112034774D01*
X126085939Y-111995000D01*
X125882061Y-111995000D01*
X125682102Y-112034774D01*
X125493744Y-112112795D01*
X125324226Y-112226063D01*
X125180063Y-112370226D01*
X125066795Y-112539744D01*
X124988774Y-112728102D01*
X124949000Y-112928061D01*
X97180000Y-112928061D01*
X97180000Y-110134061D01*
X105645000Y-110134061D01*
X105645000Y-110337939D01*
X105684774Y-110537898D01*
X105762795Y-110726256D01*
X105876063Y-110895774D01*
X106020226Y-111039937D01*
X106189744Y-111153205D01*
X106378102Y-111231226D01*
X106578061Y-111271000D01*
X106781939Y-111271000D01*
X106981898Y-111231226D01*
X107170256Y-111153205D01*
X107188000Y-111141349D01*
X107205744Y-111153205D01*
X107394102Y-111231226D01*
X107594061Y-111271000D01*
X107797939Y-111271000D01*
X107997898Y-111231226D01*
X108186256Y-111153205D01*
X108355774Y-111039937D01*
X108499937Y-110895774D01*
X108613205Y-110726256D01*
X108691226Y-110537898D01*
X108731000Y-110337939D01*
X108731000Y-110134061D01*
X108691226Y-109934102D01*
X108668842Y-109880061D01*
X127997000Y-109880061D01*
X127997000Y-110083939D01*
X128036774Y-110283898D01*
X128114795Y-110472256D01*
X128228063Y-110641774D01*
X128372226Y-110785937D01*
X128541744Y-110899205D01*
X128730102Y-110977226D01*
X128787381Y-110988619D01*
X128798774Y-111045898D01*
X128876795Y-111234256D01*
X128990063Y-111403774D01*
X129134226Y-111547937D01*
X129303744Y-111661205D01*
X129492102Y-111739226D01*
X129692061Y-111779000D01*
X129895939Y-111779000D01*
X130095898Y-111739226D01*
X130284256Y-111661205D01*
X130453774Y-111547937D01*
X130597937Y-111403774D01*
X130711205Y-111234256D01*
X130789226Y-111045898D01*
X130829000Y-110845939D01*
X130829000Y-110642061D01*
X130789226Y-110442102D01*
X130711205Y-110253744D01*
X130597937Y-110084226D01*
X130453774Y-109940063D01*
X130284256Y-109826795D01*
X130095898Y-109748774D01*
X130038619Y-109737381D01*
X130027226Y-109680102D01*
X129949205Y-109491744D01*
X129835937Y-109322226D01*
X129691774Y-109178063D01*
X129601975Y-109118061D01*
X130791000Y-109118061D01*
X130791000Y-109321939D01*
X130830774Y-109521898D01*
X130908795Y-109710256D01*
X131022063Y-109879774D01*
X131166226Y-110023937D01*
X131335744Y-110137205D01*
X131524102Y-110215226D01*
X131724061Y-110255000D01*
X131927939Y-110255000D01*
X132127898Y-110215226D01*
X132316256Y-110137205D01*
X132485774Y-110023937D01*
X132629937Y-109879774D01*
X132743205Y-109710256D01*
X132821226Y-109521898D01*
X132861000Y-109321939D01*
X132861000Y-109118061D01*
X132834533Y-108985000D01*
X132943939Y-108985000D01*
X133110039Y-108951961D01*
X133077000Y-109118061D01*
X133077000Y-109321939D01*
X133116774Y-109521898D01*
X133194795Y-109710256D01*
X133308063Y-109879774D01*
X133452226Y-110023937D01*
X133621744Y-110137205D01*
X133810102Y-110215226D01*
X134010061Y-110255000D01*
X134213939Y-110255000D01*
X134413898Y-110215226D01*
X134602256Y-110137205D01*
X134771774Y-110023937D01*
X134915937Y-109879774D01*
X135029205Y-109710256D01*
X135107226Y-109521898D01*
X135147000Y-109321939D01*
X135147000Y-109118061D01*
X135107226Y-108918102D01*
X135029205Y-108729744D01*
X134934315Y-108587730D01*
X137671331Y-108587730D01*
X137671331Y-108791608D01*
X137711105Y-108991567D01*
X137789126Y-109179925D01*
X137902394Y-109349443D01*
X138046557Y-109493606D01*
X138216075Y-109606874D01*
X138404433Y-109684895D01*
X138604392Y-109724669D01*
X138808270Y-109724669D01*
X138919000Y-109702644D01*
X138919000Y-109829939D01*
X138958774Y-110029898D01*
X139036795Y-110218256D01*
X139150063Y-110387774D01*
X139294226Y-110531937D01*
X139463744Y-110645205D01*
X139652102Y-110723226D01*
X139852061Y-110763000D01*
X139979356Y-110763000D01*
X139957331Y-110873730D01*
X139957331Y-111077608D01*
X139997105Y-111277567D01*
X140075126Y-111465925D01*
X140188394Y-111635443D01*
X140332557Y-111779606D01*
X140502075Y-111892874D01*
X140690433Y-111970895D01*
X140890392Y-112010669D01*
X141094270Y-112010669D01*
X141294229Y-111970895D01*
X141482587Y-111892874D01*
X141652105Y-111779606D01*
X141796268Y-111635443D01*
X141909536Y-111465925D01*
X141987557Y-111277567D01*
X142027331Y-111077608D01*
X142027331Y-110873730D01*
X141987557Y-110673771D01*
X141909536Y-110485413D01*
X141796268Y-110315895D01*
X141652105Y-110171732D01*
X141482587Y-110058464D01*
X141294229Y-109980443D01*
X141094270Y-109940669D01*
X140966975Y-109940669D01*
X140989000Y-109829939D01*
X140989000Y-109626061D01*
X140949226Y-109426102D01*
X140871205Y-109237744D01*
X140757937Y-109068226D01*
X140613774Y-108924063D01*
X140444256Y-108810795D01*
X140255898Y-108732774D01*
X140055939Y-108693000D01*
X139852061Y-108693000D01*
X139741331Y-108715025D01*
X139741331Y-108610061D01*
X142221000Y-108610061D01*
X142221000Y-108813939D01*
X142260774Y-109013898D01*
X142338795Y-109202256D01*
X142452063Y-109371774D01*
X142596226Y-109515937D01*
X142765744Y-109629205D01*
X142954102Y-109707226D01*
X143154061Y-109747000D01*
X143357939Y-109747000D01*
X143557898Y-109707226D01*
X143746256Y-109629205D01*
X143915774Y-109515937D01*
X144059937Y-109371774D01*
X144173205Y-109202256D01*
X144251226Y-109013898D01*
X144291000Y-108813939D01*
X144291000Y-108610061D01*
X144251226Y-108410102D01*
X144173205Y-108221744D01*
X144059937Y-108052226D01*
X143915774Y-107908063D01*
X143746256Y-107794795D01*
X143557898Y-107716774D01*
X143357939Y-107677000D01*
X143154061Y-107677000D01*
X142954102Y-107716774D01*
X142765744Y-107794795D01*
X142596226Y-107908063D01*
X142452063Y-108052226D01*
X142338795Y-108221744D01*
X142260774Y-108410102D01*
X142221000Y-108610061D01*
X139741331Y-108610061D01*
X139741331Y-108587730D01*
X139701557Y-108387771D01*
X139623536Y-108199413D01*
X139510268Y-108029895D01*
X139366105Y-107885732D01*
X139196587Y-107772464D01*
X139008229Y-107694443D01*
X138808270Y-107654669D01*
X138604392Y-107654669D01*
X138404433Y-107694443D01*
X138216075Y-107772464D01*
X138046557Y-107885732D01*
X137902394Y-108029895D01*
X137789126Y-108199413D01*
X137711105Y-108387771D01*
X137671331Y-108587730D01*
X134934315Y-108587730D01*
X134915937Y-108560226D01*
X134771774Y-108416063D01*
X134602256Y-108302795D01*
X134535423Y-108275112D01*
X134732905Y-108319731D01*
X134956406Y-108325511D01*
X135176740Y-108287577D01*
X135385440Y-108207387D01*
X135437450Y-108179588D01*
X135452070Y-108090720D01*
X135606376Y-108193824D01*
X135812933Y-108279383D01*
X136032212Y-108323000D01*
X136255788Y-108323000D01*
X136475067Y-108279383D01*
X136681624Y-108193824D01*
X136867520Y-108069612D01*
X137025612Y-107911520D01*
X137149824Y-107725624D01*
X137235383Y-107519067D01*
X137279000Y-107299788D01*
X137279000Y-107076212D01*
X137235383Y-106856933D01*
X137149824Y-106650376D01*
X137084759Y-106553000D01*
X137149824Y-106455624D01*
X137235383Y-106249067D01*
X137279000Y-106029788D01*
X137279000Y-105806212D01*
X137235383Y-105586933D01*
X137149824Y-105380376D01*
X137084759Y-105283000D01*
X137149824Y-105185624D01*
X137235383Y-104979067D01*
X137275431Y-104777730D01*
X137671331Y-104777730D01*
X137671331Y-104981608D01*
X137711105Y-105181567D01*
X137789126Y-105369925D01*
X137902394Y-105539443D01*
X138046557Y-105683606D01*
X138216075Y-105796874D01*
X138404433Y-105874895D01*
X138604392Y-105914669D01*
X138808270Y-105914669D01*
X139008229Y-105874895D01*
X139196587Y-105796874D01*
X139366105Y-105683606D01*
X139510268Y-105539443D01*
X139623536Y-105369925D01*
X139701557Y-105181567D01*
X139741331Y-104981608D01*
X139741331Y-104777730D01*
X139701557Y-104577771D01*
X139623536Y-104389413D01*
X139510268Y-104219895D01*
X139366105Y-104075732D01*
X139196587Y-103962464D01*
X139008229Y-103884443D01*
X138808270Y-103844669D01*
X138604392Y-103844669D01*
X138404433Y-103884443D01*
X138216075Y-103962464D01*
X138046557Y-104075732D01*
X137902394Y-104219895D01*
X137789126Y-104389413D01*
X137711105Y-104577771D01*
X137671331Y-104777730D01*
X137275431Y-104777730D01*
X137279000Y-104759788D01*
X137279000Y-104536212D01*
X137235383Y-104316933D01*
X137149824Y-104110376D01*
X137084759Y-104013000D01*
X137149824Y-103915624D01*
X137235383Y-103709067D01*
X137279000Y-103489788D01*
X137279000Y-103266212D01*
X137235383Y-103046933D01*
X137149824Y-102840376D01*
X137084759Y-102743000D01*
X137149824Y-102645624D01*
X137235383Y-102439067D01*
X137279000Y-102219788D01*
X137279000Y-102173589D01*
X146225000Y-102173589D01*
X146225000Y-102446411D01*
X146278225Y-102713989D01*
X146382629Y-102966043D01*
X146534201Y-103192886D01*
X146727114Y-103385799D01*
X146953957Y-103537371D01*
X147206011Y-103641775D01*
X147473589Y-103695000D01*
X147746411Y-103695000D01*
X148013989Y-103641775D01*
X148266043Y-103537371D01*
X148492886Y-103385799D01*
X148685799Y-103192886D01*
X148837371Y-102966043D01*
X148941775Y-102713989D01*
X148995000Y-102446411D01*
X148995000Y-102173589D01*
X150725000Y-102173589D01*
X150725000Y-102446411D01*
X150778225Y-102713989D01*
X150882629Y-102966043D01*
X151034201Y-103192886D01*
X151227114Y-103385799D01*
X151453957Y-103537371D01*
X151706011Y-103641775D01*
X151973589Y-103695000D01*
X152246411Y-103695000D01*
X152513989Y-103641775D01*
X152766043Y-103537371D01*
X152992886Y-103385799D01*
X153185799Y-103192886D01*
X153337371Y-102966043D01*
X153441775Y-102713989D01*
X153495000Y-102446411D01*
X153495000Y-102173589D01*
X153441775Y-101906011D01*
X153337371Y-101653957D01*
X153185799Y-101427114D01*
X152992886Y-101234201D01*
X152766043Y-101082629D01*
X152513989Y-100978225D01*
X152246411Y-100925000D01*
X151973589Y-100925000D01*
X151706011Y-100978225D01*
X151453957Y-101082629D01*
X151227114Y-101234201D01*
X151034201Y-101427114D01*
X150882629Y-101653957D01*
X150778225Y-101906011D01*
X150725000Y-102173589D01*
X148995000Y-102173589D01*
X148941775Y-101906011D01*
X148837371Y-101653957D01*
X148685799Y-101427114D01*
X148492886Y-101234201D01*
X148266043Y-101082629D01*
X148013989Y-100978225D01*
X147746411Y-100925000D01*
X147473589Y-100925000D01*
X147206011Y-100978225D01*
X146953957Y-101082629D01*
X146727114Y-101234201D01*
X146534201Y-101427114D01*
X146382629Y-101653957D01*
X146278225Y-101906011D01*
X146225000Y-102173589D01*
X137279000Y-102173589D01*
X137279000Y-101996212D01*
X137235383Y-101776933D01*
X137149824Y-101570376D01*
X137046720Y-101416070D01*
X137135588Y-101401450D01*
X137226458Y-101197174D01*
X137275731Y-100979095D01*
X137281511Y-100755594D01*
X137243577Y-100535260D01*
X137163387Y-100326560D01*
X137135588Y-100274550D01*
X137046720Y-100259930D01*
X137149824Y-100105624D01*
X137235383Y-99899067D01*
X137261676Y-99766881D01*
X162578724Y-99766881D01*
X162938912Y-100256548D01*
X163602882Y-100616849D01*
X164324385Y-100840694D01*
X165075695Y-100919480D01*
X165827938Y-100850178D01*
X166552208Y-100635452D01*
X167220670Y-100283555D01*
X167261088Y-100256548D01*
X167621276Y-99766881D01*
X165100000Y-97245605D01*
X162578724Y-99766881D01*
X137261676Y-99766881D01*
X137279000Y-99679788D01*
X137279000Y-99456212D01*
X137235383Y-99236933D01*
X137149824Y-99030376D01*
X137084759Y-98933000D01*
X137149824Y-98835624D01*
X137235383Y-98629067D01*
X137279000Y-98409788D01*
X137279000Y-98186212D01*
X137235383Y-97966933D01*
X137149824Y-97760376D01*
X137025612Y-97574480D01*
X136867520Y-97416388D01*
X136681624Y-97292176D01*
X136475067Y-97206617D01*
X136255788Y-97163000D01*
X136032212Y-97163000D01*
X135812933Y-97206617D01*
X135606376Y-97292176D01*
X135509000Y-97357241D01*
X135411624Y-97292176D01*
X135205067Y-97206617D01*
X134985788Y-97163000D01*
X134762212Y-97163000D01*
X134542933Y-97206617D01*
X134336376Y-97292176D01*
X134150480Y-97416388D01*
X133992388Y-97574480D01*
X133868176Y-97760376D01*
X133782617Y-97966933D01*
X133739000Y-98186212D01*
X133739000Y-98409788D01*
X133782617Y-98629067D01*
X133868176Y-98835624D01*
X133933241Y-98933000D01*
X133868176Y-99030376D01*
X133782617Y-99236933D01*
X133739000Y-99456212D01*
X133739000Y-99679788D01*
X133782617Y-99899067D01*
X133868176Y-100105624D01*
X133933241Y-100203000D01*
X133868176Y-100300376D01*
X133838861Y-100371150D01*
X133755774Y-100288063D01*
X133586256Y-100174795D01*
X133397898Y-100096774D01*
X133197939Y-100057000D01*
X132994061Y-100057000D01*
X132794102Y-100096774D01*
X132605744Y-100174795D01*
X132436226Y-100288063D01*
X132292063Y-100432226D01*
X132178795Y-100601744D01*
X132100774Y-100790102D01*
X132061000Y-100990061D01*
X132061000Y-101193939D01*
X132100774Y-101393898D01*
X132178795Y-101582256D01*
X132292063Y-101751774D01*
X132436226Y-101895937D01*
X132605744Y-102009205D01*
X132794102Y-102087226D01*
X132994061Y-102127000D01*
X133197939Y-102127000D01*
X133397898Y-102087226D01*
X133586256Y-102009205D01*
X133755774Y-101895937D01*
X133759733Y-101891978D01*
X133739000Y-101996212D01*
X133739000Y-102219788D01*
X133782617Y-102439067D01*
X133868176Y-102645624D01*
X133933241Y-102743000D01*
X133868176Y-102840376D01*
X133782617Y-103046933D01*
X133739000Y-103266212D01*
X133739000Y-103489788D01*
X133782617Y-103709067D01*
X133868176Y-103915624D01*
X133933241Y-104013000D01*
X133868176Y-104110376D01*
X133782617Y-104316933D01*
X133739000Y-104536212D01*
X133739000Y-104759788D01*
X133782617Y-104979067D01*
X133868176Y-105185624D01*
X133933241Y-105283000D01*
X133868176Y-105380376D01*
X133782617Y-105586933D01*
X133739000Y-105806212D01*
X133739000Y-106029788D01*
X133782617Y-106249067D01*
X133868176Y-106455624D01*
X133971280Y-106609930D01*
X133882412Y-106624550D01*
X133791542Y-106828826D01*
X133742269Y-107046905D01*
X133736489Y-107270406D01*
X133774423Y-107490740D01*
X133804912Y-107570089D01*
X133759205Y-107459744D01*
X133645937Y-107290226D01*
X133501774Y-107146063D01*
X133332256Y-107032795D01*
X133143898Y-106954774D01*
X132943939Y-106915000D01*
X132740061Y-106915000D01*
X132540102Y-106954774D01*
X132351744Y-107032795D01*
X132182226Y-107146063D01*
X132038063Y-107290226D01*
X131924795Y-107459744D01*
X131846774Y-107648102D01*
X131807000Y-107848061D01*
X131807000Y-108051939D01*
X131833467Y-108185000D01*
X131724061Y-108185000D01*
X131524102Y-108224774D01*
X131335744Y-108302795D01*
X131166226Y-108416063D01*
X131022063Y-108560226D01*
X130908795Y-108729744D01*
X130830774Y-108918102D01*
X130791000Y-109118061D01*
X129601975Y-109118061D01*
X129522256Y-109064795D01*
X129333898Y-108986774D01*
X129133939Y-108947000D01*
X128930061Y-108947000D01*
X128730102Y-108986774D01*
X128541744Y-109064795D01*
X128372226Y-109178063D01*
X128228063Y-109322226D01*
X128114795Y-109491744D01*
X128036774Y-109680102D01*
X127997000Y-109880061D01*
X108668842Y-109880061D01*
X108613205Y-109745744D01*
X108499937Y-109576226D01*
X108355774Y-109432063D01*
X108186256Y-109318795D01*
X107997898Y-109240774D01*
X107797939Y-109201000D01*
X107594061Y-109201000D01*
X107394102Y-109240774D01*
X107205744Y-109318795D01*
X107188000Y-109330651D01*
X107170256Y-109318795D01*
X106981898Y-109240774D01*
X106781939Y-109201000D01*
X106578061Y-109201000D01*
X106378102Y-109240774D01*
X106189744Y-109318795D01*
X106020226Y-109432063D01*
X105876063Y-109576226D01*
X105762795Y-109745744D01*
X105684774Y-109934102D01*
X105645000Y-110134061D01*
X97180000Y-110134061D01*
X97180000Y-105816061D01*
X119361000Y-105816061D01*
X119361000Y-106019939D01*
X119400774Y-106219898D01*
X119478795Y-106408256D01*
X119592063Y-106577774D01*
X119736226Y-106721937D01*
X119905744Y-106835205D01*
X120094102Y-106913226D01*
X120294061Y-106953000D01*
X120497939Y-106953000D01*
X120697898Y-106913226D01*
X120886256Y-106835205D01*
X121055774Y-106721937D01*
X121199937Y-106577774D01*
X121313205Y-106408256D01*
X121391226Y-106219898D01*
X121431000Y-106019939D01*
X121431000Y-105816061D01*
X121391226Y-105616102D01*
X121368842Y-105562061D01*
X130029000Y-105562061D01*
X130029000Y-105765939D01*
X130068774Y-105965898D01*
X130146795Y-106154256D01*
X130260063Y-106323774D01*
X130404226Y-106467937D01*
X130573744Y-106581205D01*
X130762102Y-106659226D01*
X130962061Y-106699000D01*
X131165939Y-106699000D01*
X131365898Y-106659226D01*
X131554256Y-106581205D01*
X131723774Y-106467937D01*
X131867937Y-106323774D01*
X131981205Y-106154256D01*
X132059226Y-105965898D01*
X132099000Y-105765939D01*
X132099000Y-105562061D01*
X132059226Y-105362102D01*
X131981205Y-105173744D01*
X131867937Y-105004226D01*
X131723774Y-104860063D01*
X131554256Y-104746795D01*
X131365898Y-104668774D01*
X131165939Y-104629000D01*
X130962061Y-104629000D01*
X130762102Y-104668774D01*
X130573744Y-104746795D01*
X130404226Y-104860063D01*
X130260063Y-105004226D01*
X130146795Y-105173744D01*
X130068774Y-105362102D01*
X130029000Y-105562061D01*
X121368842Y-105562061D01*
X121313205Y-105427744D01*
X121199937Y-105258226D01*
X121055774Y-105114063D01*
X120886256Y-105000795D01*
X120697898Y-104922774D01*
X120497939Y-104883000D01*
X120294061Y-104883000D01*
X120094102Y-104922774D01*
X119905744Y-105000795D01*
X119736226Y-105114063D01*
X119592063Y-105258226D01*
X119478795Y-105427744D01*
X119400774Y-105616102D01*
X119361000Y-105816061D01*
X97180000Y-105816061D01*
X97180000Y-99766881D01*
X100094724Y-99766881D01*
X100454912Y-100256548D01*
X101118882Y-100616849D01*
X101840385Y-100840694D01*
X102591695Y-100919480D01*
X103343938Y-100850178D01*
X104068208Y-100635452D01*
X104736670Y-100283555D01*
X104777088Y-100256548D01*
X105137276Y-99766881D01*
X102616000Y-97245605D01*
X100094724Y-99766881D01*
X97180000Y-99766881D01*
X97180000Y-97054507D01*
X97181030Y-97041695D01*
X98762520Y-97041695D01*
X98831822Y-97793938D01*
X99046548Y-98518208D01*
X99398445Y-99186670D01*
X99425452Y-99227088D01*
X99915119Y-99587276D01*
X102436395Y-97066000D01*
X102795605Y-97066000D01*
X105316881Y-99587276D01*
X105806548Y-99227088D01*
X106166849Y-98563118D01*
X106390694Y-97841615D01*
X106460067Y-97180061D01*
X128251000Y-97180061D01*
X128251000Y-97383939D01*
X128290774Y-97583898D01*
X128368795Y-97772256D01*
X128482063Y-97941774D01*
X128626226Y-98085937D01*
X128795744Y-98199205D01*
X128984102Y-98277226D01*
X129184061Y-98317000D01*
X129387939Y-98317000D01*
X129587898Y-98277226D01*
X129776256Y-98199205D01*
X129945774Y-98085937D01*
X130089937Y-97941774D01*
X130203205Y-97772256D01*
X130281226Y-97583898D01*
X130321000Y-97383939D01*
X130321000Y-97180061D01*
X130281226Y-96980102D01*
X130203205Y-96791744D01*
X130186667Y-96766993D01*
X146832612Y-96766993D01*
X146898137Y-97005860D01*
X147145116Y-97121760D01*
X147409960Y-97187250D01*
X147682492Y-97199812D01*
X147952238Y-97158965D01*
X148208832Y-97066277D01*
X148321863Y-97005860D01*
X148387388Y-96766993D01*
X147610000Y-95989605D01*
X146832612Y-96766993D01*
X130186667Y-96766993D01*
X130089937Y-96622226D01*
X129945774Y-96478063D01*
X129776256Y-96364795D01*
X129587898Y-96286774D01*
X129387939Y-96247000D01*
X129184061Y-96247000D01*
X128984102Y-96286774D01*
X128795744Y-96364795D01*
X128626226Y-96478063D01*
X128482063Y-96622226D01*
X128368795Y-96791744D01*
X128290774Y-96980102D01*
X128251000Y-97180061D01*
X106460067Y-97180061D01*
X106469480Y-97090305D01*
X106400178Y-96338062D01*
X106265115Y-95882492D01*
X146220188Y-95882492D01*
X146261035Y-96152238D01*
X146353723Y-96408832D01*
X146414140Y-96521863D01*
X146653007Y-96587388D01*
X147430395Y-95810000D01*
X147789605Y-95810000D01*
X148566993Y-96587388D01*
X148805860Y-96521863D01*
X148921760Y-96274884D01*
X148987250Y-96010040D01*
X148999812Y-95737508D01*
X148990133Y-95673589D01*
X150725000Y-95673589D01*
X150725000Y-95946411D01*
X150778225Y-96213989D01*
X150882629Y-96466043D01*
X151034201Y-96692886D01*
X151227114Y-96885799D01*
X151453957Y-97037371D01*
X151706011Y-97141775D01*
X151973589Y-97195000D01*
X152246411Y-97195000D01*
X152513989Y-97141775D01*
X152755603Y-97041695D01*
X161246520Y-97041695D01*
X161315822Y-97793938D01*
X161530548Y-98518208D01*
X161882445Y-99186670D01*
X161909452Y-99227088D01*
X162399119Y-99587276D01*
X164920395Y-97066000D01*
X165279605Y-97066000D01*
X167800881Y-99587276D01*
X168290548Y-99227088D01*
X168650849Y-98563118D01*
X168874694Y-97841615D01*
X168953480Y-97090305D01*
X168884178Y-96338062D01*
X168669452Y-95613792D01*
X168317555Y-94945330D01*
X168290548Y-94904912D01*
X167800881Y-94544724D01*
X165279605Y-97066000D01*
X164920395Y-97066000D01*
X162399119Y-94544724D01*
X161909452Y-94904912D01*
X161549151Y-95568882D01*
X161325306Y-96290385D01*
X161246520Y-97041695D01*
X152755603Y-97041695D01*
X152766043Y-97037371D01*
X152992886Y-96885799D01*
X153185799Y-96692886D01*
X153337371Y-96466043D01*
X153441775Y-96213989D01*
X153495000Y-95946411D01*
X153495000Y-95673589D01*
X153441775Y-95406011D01*
X153337371Y-95153957D01*
X153185799Y-94927114D01*
X152992886Y-94734201D01*
X152766043Y-94582629D01*
X152513989Y-94478225D01*
X152246411Y-94425000D01*
X151973589Y-94425000D01*
X151706011Y-94478225D01*
X151453957Y-94582629D01*
X151227114Y-94734201D01*
X151034201Y-94927114D01*
X150882629Y-95153957D01*
X150778225Y-95406011D01*
X150725000Y-95673589D01*
X148990133Y-95673589D01*
X148958965Y-95467762D01*
X148866277Y-95211168D01*
X148805860Y-95098137D01*
X148566993Y-95032612D01*
X147789605Y-95810000D01*
X147430395Y-95810000D01*
X146653007Y-95032612D01*
X146414140Y-95098137D01*
X146298240Y-95345116D01*
X146232750Y-95609960D01*
X146220188Y-95882492D01*
X106265115Y-95882492D01*
X106185452Y-95613792D01*
X105833555Y-94945330D01*
X105806548Y-94904912D01*
X105735985Y-94853007D01*
X146832612Y-94853007D01*
X147610000Y-95630395D01*
X148387388Y-94853007D01*
X148321863Y-94614140D01*
X148074884Y-94498240D01*
X147810040Y-94432750D01*
X147537508Y-94420188D01*
X147267762Y-94461035D01*
X147011168Y-94553723D01*
X146898137Y-94614140D01*
X146832612Y-94853007D01*
X105735985Y-94853007D01*
X105316881Y-94544724D01*
X102795605Y-97066000D01*
X102436395Y-97066000D01*
X99915119Y-94544724D01*
X99425452Y-94904912D01*
X99065151Y-95568882D01*
X98841306Y-96290385D01*
X98762520Y-97041695D01*
X97181030Y-97041695D01*
X97252032Y-96159229D01*
X97459935Y-95312800D01*
X97800487Y-94510510D01*
X97892044Y-94365119D01*
X100094724Y-94365119D01*
X102616000Y-96886395D01*
X105137276Y-94365119D01*
X162578724Y-94365119D01*
X165100000Y-96886395D01*
X167621276Y-94365119D01*
X167261088Y-93875452D01*
X166597118Y-93515151D01*
X165875615Y-93291306D01*
X165124305Y-93212520D01*
X164372062Y-93281822D01*
X163647792Y-93496548D01*
X162979330Y-93848445D01*
X162938912Y-93875452D01*
X162578724Y-94365119D01*
X105137276Y-94365119D01*
X104777088Y-93875452D01*
X104113118Y-93515151D01*
X103391615Y-93291306D01*
X102640305Y-93212520D01*
X101888062Y-93281822D01*
X101163792Y-93496548D01*
X100495330Y-93848445D01*
X100454912Y-93875452D01*
X100094724Y-94365119D01*
X97892044Y-94365119D01*
X98264932Y-93772985D01*
X98841317Y-93119206D01*
X99514819Y-92565983D01*
X100268101Y-92127563D01*
X101081791Y-91815216D01*
X101940627Y-91635796D01*
X102636747Y-91592000D01*
X165073493Y-91592000D01*
X165968771Y-91664032D01*
G04 #@! TA.AperFunction,Conductor*
D20*
G36*
X165968771Y-91664032D02*
G01*
X166815200Y-91871935D01*
X167617490Y-92212487D01*
X168355015Y-92676932D01*
X169008794Y-93253317D01*
X169562017Y-93926819D01*
X170000437Y-94680101D01*
X170312784Y-95493791D01*
X170492204Y-96352627D01*
X170536000Y-97048747D01*
X170536001Y-147039479D01*
X170463968Y-147934775D01*
X170256065Y-148781199D01*
X169915513Y-149583491D01*
X169451068Y-150321015D01*
X168874680Y-150974798D01*
X168201182Y-151528016D01*
X167447899Y-151966437D01*
X166634209Y-152278784D01*
X165775373Y-152458204D01*
X165079253Y-152502000D01*
X138433368Y-152502000D01*
X138504511Y-152368901D01*
X138575130Y-152136101D01*
X138593000Y-151954664D01*
X138593000Y-151133335D01*
X138575130Y-150951898D01*
X138504511Y-150719099D01*
X138389833Y-150504551D01*
X138235502Y-150316498D01*
X138047448Y-150162167D01*
X137832900Y-150047489D01*
X137600101Y-149976870D01*
X137358000Y-149953025D01*
X137115898Y-149976870D01*
X137105965Y-149979883D01*
X137224949Y-149900381D01*
X137358449Y-149766881D01*
X162578724Y-149766881D01*
X162938912Y-150256548D01*
X163602882Y-150616849D01*
X164324385Y-150840694D01*
X165075695Y-150919480D01*
X165827938Y-150850178D01*
X166552208Y-150635452D01*
X167220670Y-150283555D01*
X167261088Y-150256548D01*
X167621276Y-149766881D01*
X165100000Y-147245605D01*
X162578724Y-149766881D01*
X137358449Y-149766881D01*
X137414381Y-149710949D01*
X137563216Y-149488201D01*
X137665736Y-149240697D01*
X137718000Y-148977948D01*
X137718000Y-148710052D01*
X137665736Y-148447303D01*
X137563216Y-148199799D01*
X137414381Y-147977051D01*
X137224949Y-147787619D01*
X137002201Y-147638784D01*
X136754697Y-147536264D01*
X136491948Y-147484000D01*
X136224052Y-147484000D01*
X135961303Y-147536264D01*
X135713799Y-147638784D01*
X135491051Y-147787619D01*
X135301619Y-147977051D01*
X135152784Y-148199799D01*
X135050264Y-148447303D01*
X134998000Y-148710052D01*
X134998000Y-148977948D01*
X135050264Y-149240697D01*
X135152784Y-149488201D01*
X135301619Y-149710949D01*
X135491051Y-149900381D01*
X135713799Y-150049216D01*
X135961303Y-150151736D01*
X136224052Y-150204000D01*
X136491948Y-150204000D01*
X136657768Y-150171016D01*
X136480498Y-150316498D01*
X136326167Y-150504552D01*
X136211489Y-150719100D01*
X136140870Y-150951899D01*
X136123000Y-151133336D01*
X136123000Y-151954665D01*
X136140870Y-152136102D01*
X136211489Y-152368901D01*
X136282632Y-152502000D01*
X131433368Y-152502000D01*
X131504511Y-152368901D01*
X131575130Y-152136102D01*
X131593000Y-151954665D01*
X131593000Y-151133336D01*
X131575130Y-150951899D01*
X131504511Y-150719099D01*
X131389833Y-150504551D01*
X131235502Y-150316498D01*
X131058232Y-150171016D01*
X131224052Y-150204000D01*
X131491948Y-150204000D01*
X131754697Y-150151736D01*
X132002201Y-150049216D01*
X132224949Y-149900381D01*
X132414381Y-149710949D01*
X132563216Y-149488201D01*
X132665736Y-149240697D01*
X132718000Y-148977948D01*
X132718000Y-148710052D01*
X132665736Y-148447303D01*
X132563216Y-148199799D01*
X132414381Y-147977051D01*
X132224949Y-147787619D01*
X132002201Y-147638784D01*
X131754697Y-147536264D01*
X131491948Y-147484000D01*
X131224052Y-147484000D01*
X130961303Y-147536264D01*
X130713799Y-147638784D01*
X130491051Y-147787619D01*
X130301619Y-147977051D01*
X130152784Y-148199799D01*
X130050264Y-148447303D01*
X129998000Y-148710052D01*
X129998000Y-148977948D01*
X130050264Y-149240697D01*
X130152784Y-149488201D01*
X130301619Y-149710949D01*
X130491051Y-149900381D01*
X130610035Y-149979883D01*
X130600102Y-149976870D01*
X130358000Y-149953025D01*
X130115899Y-149976870D01*
X129883100Y-150047489D01*
X129668552Y-150162167D01*
X129480499Y-150316498D01*
X129326168Y-150504551D01*
X129211489Y-150719099D01*
X129140870Y-150951898D01*
X129123000Y-151133335D01*
X129123000Y-151954664D01*
X129140870Y-152136101D01*
X129211489Y-152368900D01*
X129282632Y-152502000D01*
X102642508Y-152502000D01*
X101747225Y-152429968D01*
X100900801Y-152222065D01*
X100098509Y-151881513D01*
X99360985Y-151417068D01*
X98707202Y-150840680D01*
X98153984Y-150167182D01*
X97921004Y-149766881D01*
X100094724Y-149766881D01*
X100454912Y-150256548D01*
X101118882Y-150616849D01*
X101840385Y-150840694D01*
X102591695Y-150919480D01*
X103343938Y-150850178D01*
X104068208Y-150635452D01*
X104736670Y-150283555D01*
X104777088Y-150256548D01*
X105137276Y-149766881D01*
X102616000Y-147245605D01*
X100094724Y-149766881D01*
X97921004Y-149766881D01*
X97715563Y-149413899D01*
X97403216Y-148600209D01*
X97223796Y-147741373D01*
X97180000Y-147045253D01*
X97180000Y-147041695D01*
X98762520Y-147041695D01*
X98831822Y-147793938D01*
X99046548Y-148518208D01*
X99398445Y-149186670D01*
X99425452Y-149227088D01*
X99915119Y-149587276D01*
X102436395Y-147066000D01*
X102795605Y-147066000D01*
X105316881Y-149587276D01*
X105806548Y-149227088D01*
X106166849Y-148563118D01*
X106390694Y-147841615D01*
X106469480Y-147090305D01*
X106400178Y-146338062D01*
X106185452Y-145613792D01*
X105833555Y-144945330D01*
X105806548Y-144904912D01*
X105316881Y-144544724D01*
X102795605Y-147066000D01*
X102436395Y-147066000D01*
X99915119Y-144544724D01*
X99425452Y-144904912D01*
X99065151Y-145568882D01*
X98841306Y-146290385D01*
X98762520Y-147041695D01*
X97180000Y-147041695D01*
X97180000Y-144365119D01*
X100094724Y-144365119D01*
X102616000Y-146886395D01*
X105137276Y-144365119D01*
X104777088Y-143875452D01*
X104113118Y-143515151D01*
X103391615Y-143291306D01*
X102640305Y-143212520D01*
X101888062Y-143281822D01*
X101163792Y-143496548D01*
X100495330Y-143848445D01*
X100454912Y-143875452D01*
X100094724Y-144365119D01*
X97180000Y-144365119D01*
X97180000Y-140238061D01*
X124235000Y-140238061D01*
X124235000Y-140441939D01*
X124274774Y-140641898D01*
X124352795Y-140830256D01*
X124466063Y-140999774D01*
X124610226Y-141143937D01*
X124779744Y-141257205D01*
X124795545Y-141263750D01*
X124779744Y-141270295D01*
X124610226Y-141383563D01*
X124466063Y-141527726D01*
X124352795Y-141697244D01*
X124274774Y-141885602D01*
X124235000Y-142085561D01*
X124235000Y-142289439D01*
X124274774Y-142489398D01*
X124352795Y-142677756D01*
X124466063Y-142847274D01*
X124610226Y-142991437D01*
X124779744Y-143104705D01*
X124795545Y-143111250D01*
X124779744Y-143117795D01*
X124610226Y-143231063D01*
X124466063Y-143375226D01*
X124352795Y-143544744D01*
X124274774Y-143733102D01*
X124235000Y-143933061D01*
X124235000Y-144136939D01*
X124274774Y-144336898D01*
X124352795Y-144525256D01*
X124466063Y-144694774D01*
X124610226Y-144838937D01*
X124779744Y-144952205D01*
X124795545Y-144958750D01*
X124779744Y-144965295D01*
X124610226Y-145078563D01*
X124466063Y-145222726D01*
X124352795Y-145392244D01*
X124274774Y-145580602D01*
X124235000Y-145780561D01*
X124235000Y-145984439D01*
X124274774Y-146184398D01*
X124352795Y-146372756D01*
X124466063Y-146542274D01*
X124610226Y-146686437D01*
X124779744Y-146799705D01*
X124795545Y-146806250D01*
X124779744Y-146812795D01*
X124610226Y-146926063D01*
X124466063Y-147070226D01*
X124352795Y-147239744D01*
X124274774Y-147428102D01*
X124235000Y-147628061D01*
X124235000Y-147831939D01*
X124274774Y-148031898D01*
X124352795Y-148220256D01*
X124466063Y-148389774D01*
X124610226Y-148533937D01*
X124779744Y-148647205D01*
X124968102Y-148725226D01*
X125168061Y-148765000D01*
X125371939Y-148765000D01*
X125571898Y-148725226D01*
X125760256Y-148647205D01*
X125929774Y-148533937D01*
X125990000Y-148473711D01*
X126070226Y-148553937D01*
X126239744Y-148667205D01*
X126428102Y-148745226D01*
X126628061Y-148785000D01*
X126831939Y-148785000D01*
X127031898Y-148745226D01*
X127220256Y-148667205D01*
X127389774Y-148553937D01*
X127533937Y-148409774D01*
X127647205Y-148240256D01*
X127725226Y-148051898D01*
X127765000Y-147851939D01*
X127765000Y-147648061D01*
X127725226Y-147448102D01*
X127647205Y-147259744D01*
X127533937Y-147090226D01*
X127485406Y-147041695D01*
X161246520Y-147041695D01*
X161315822Y-147793938D01*
X161530548Y-148518208D01*
X161882445Y-149186670D01*
X161909452Y-149227088D01*
X162399119Y-149587276D01*
X164920395Y-147066000D01*
X165279605Y-147066000D01*
X167800881Y-149587276D01*
X168290548Y-149227088D01*
X168650849Y-148563118D01*
X168874694Y-147841615D01*
X168953480Y-147090305D01*
X168884178Y-146338062D01*
X168669452Y-145613792D01*
X168317555Y-144945330D01*
X168290548Y-144904912D01*
X167800881Y-144544724D01*
X165279605Y-147066000D01*
X164920395Y-147066000D01*
X162399119Y-144544724D01*
X161909452Y-144904912D01*
X161549151Y-145568882D01*
X161325306Y-146290385D01*
X161246520Y-147041695D01*
X127485406Y-147041695D01*
X127389774Y-146946063D01*
X127220256Y-146832795D01*
X127031898Y-146754774D01*
X126831939Y-146715000D01*
X126628061Y-146715000D01*
X126428102Y-146754774D01*
X126239744Y-146832795D01*
X126070226Y-146946063D01*
X126010000Y-147006289D01*
X125929774Y-146926063D01*
X125760256Y-146812795D01*
X125744455Y-146806250D01*
X125760256Y-146799705D01*
X125929774Y-146686437D01*
X126073937Y-146542274D01*
X126187205Y-146372756D01*
X126265226Y-146184398D01*
X126305000Y-145984439D01*
X126305000Y-145780561D01*
X126265226Y-145580602D01*
X126187205Y-145392244D01*
X126073937Y-145222726D01*
X125929774Y-145078563D01*
X125760256Y-144965295D01*
X125744455Y-144958750D01*
X125760256Y-144952205D01*
X125929774Y-144838937D01*
X126073937Y-144694774D01*
X126187205Y-144525256D01*
X126253536Y-144365119D01*
X162578724Y-144365119D01*
X165100000Y-146886395D01*
X167621276Y-144365119D01*
X167261088Y-143875452D01*
X166597118Y-143515151D01*
X165875615Y-143291306D01*
X165124305Y-143212520D01*
X164372062Y-143281822D01*
X163647792Y-143496548D01*
X162979330Y-143848445D01*
X162938912Y-143875452D01*
X162578724Y-144365119D01*
X126253536Y-144365119D01*
X126265226Y-144336898D01*
X126305000Y-144136939D01*
X126305000Y-143933061D01*
X126265226Y-143733102D01*
X126187205Y-143544744D01*
X126073937Y-143375226D01*
X125929774Y-143231063D01*
X125760256Y-143117795D01*
X125744455Y-143111250D01*
X125760256Y-143104705D01*
X125929774Y-142991437D01*
X126073937Y-142847274D01*
X126187205Y-142677756D01*
X126265226Y-142489398D01*
X126305000Y-142289439D01*
X126305000Y-142085561D01*
X126265226Y-141885602D01*
X126187205Y-141697244D01*
X126073937Y-141527726D01*
X125929774Y-141383563D01*
X125760256Y-141270295D01*
X125744455Y-141263750D01*
X125760256Y-141257205D01*
X125929774Y-141143937D01*
X126073937Y-140999774D01*
X126187205Y-140830256D01*
X126265226Y-140641898D01*
X126305000Y-140441939D01*
X126305000Y-140238061D01*
X126265226Y-140038102D01*
X126187205Y-139849744D01*
X126073937Y-139680226D01*
X125929774Y-139536063D01*
X125760256Y-139422795D01*
X125571898Y-139344774D01*
X125371939Y-139305000D01*
X125168061Y-139305000D01*
X124968102Y-139344774D01*
X124779744Y-139422795D01*
X124610226Y-139536063D01*
X124466063Y-139680226D01*
X124352795Y-139849744D01*
X124274774Y-140038102D01*
X124235000Y-140238061D01*
X97180000Y-140238061D01*
X97180000Y-131724061D01*
X136887000Y-131724061D01*
X136887000Y-131927939D01*
X136926774Y-132127898D01*
X137004795Y-132316256D01*
X137118063Y-132485774D01*
X137262226Y-132629937D01*
X137431744Y-132743205D01*
X137576525Y-132803176D01*
X137546745Y-132847744D01*
X137468724Y-133036102D01*
X137428950Y-133236061D01*
X137428950Y-133439939D01*
X137468724Y-133639898D01*
X137546745Y-133828256D01*
X137660013Y-133997774D01*
X137804176Y-134141937D01*
X137973694Y-134255205D01*
X138162052Y-134333226D01*
X138362011Y-134373000D01*
X138565889Y-134373000D01*
X138765848Y-134333226D01*
X138954206Y-134255205D01*
X139123724Y-134141937D01*
X139267887Y-133997774D01*
X139381155Y-133828256D01*
X139459176Y-133639898D01*
X139498950Y-133439939D01*
X139498950Y-133236061D01*
X139459176Y-133036102D01*
X139381155Y-132847744D01*
X139267887Y-132678226D01*
X139123724Y-132534063D01*
X138954206Y-132420795D01*
X138809425Y-132360824D01*
X138839205Y-132316256D01*
X138917226Y-132127898D01*
X138957000Y-131927939D01*
X138957000Y-131724061D01*
X138917226Y-131524102D01*
X138839205Y-131335744D01*
X138725937Y-131166226D01*
X138581774Y-131022063D01*
X138412256Y-130908795D01*
X138223898Y-130830774D01*
X138023939Y-130791000D01*
X137820061Y-130791000D01*
X137620102Y-130830774D01*
X137431744Y-130908795D01*
X137262226Y-131022063D01*
X137118063Y-131166226D01*
X137004795Y-131335744D01*
X136926774Y-131524102D01*
X136887000Y-131724061D01*
X97180000Y-131724061D01*
X97180000Y-129692061D01*
X114535000Y-129692061D01*
X114535000Y-129895939D01*
X114574774Y-130095898D01*
X114652795Y-130284256D01*
X114766063Y-130453774D01*
X114910226Y-130597937D01*
X115079744Y-130711205D01*
X115268102Y-130789226D01*
X115468061Y-130829000D01*
X115671939Y-130829000D01*
X115871898Y-130789226D01*
X116060256Y-130711205D01*
X116229774Y-130597937D01*
X116332000Y-130495711D01*
X116434226Y-130597937D01*
X116603744Y-130711205D01*
X116792102Y-130789226D01*
X116992061Y-130829000D01*
X117195939Y-130829000D01*
X117395898Y-130789226D01*
X117584256Y-130711205D01*
X117753774Y-130597937D01*
X117897937Y-130453774D01*
X118011205Y-130284256D01*
X118089226Y-130095898D01*
X118129000Y-129895939D01*
X118129000Y-129692061D01*
X118089226Y-129492102D01*
X118011205Y-129303744D01*
X117897937Y-129134226D01*
X117753774Y-128990063D01*
X117584256Y-128876795D01*
X117395898Y-128798774D01*
X117195939Y-128759000D01*
X116992061Y-128759000D01*
X116792102Y-128798774D01*
X116603744Y-128876795D01*
X116434226Y-128990063D01*
X116332000Y-129092289D01*
X116229774Y-128990063D01*
X116060256Y-128876795D01*
X115871898Y-128798774D01*
X115671939Y-128759000D01*
X115468061Y-128759000D01*
X115268102Y-128798774D01*
X115079744Y-128876795D01*
X114910226Y-128990063D01*
X114766063Y-129134226D01*
X114652795Y-129303744D01*
X114574774Y-129492102D01*
X114535000Y-129692061D01*
X97180000Y-129692061D01*
X97180000Y-127406061D01*
X115043000Y-127406061D01*
X115043000Y-127609939D01*
X115082774Y-127809898D01*
X115160795Y-127998256D01*
X115274063Y-128167774D01*
X115418226Y-128311937D01*
X115587744Y-128425205D01*
X115776102Y-128503226D01*
X115976061Y-128543000D01*
X116179939Y-128543000D01*
X116379898Y-128503226D01*
X116568256Y-128425205D01*
X116737774Y-128311937D01*
X116799094Y-128250617D01*
X116992061Y-128289000D01*
X117195939Y-128289000D01*
X117395898Y-128249226D01*
X117584256Y-128171205D01*
X117753774Y-128057937D01*
X117897937Y-127913774D01*
X118011205Y-127744256D01*
X118089226Y-127555898D01*
X118129000Y-127355939D01*
X118129000Y-127152061D01*
X118089226Y-126952102D01*
X118011205Y-126763744D01*
X117897937Y-126594226D01*
X117778711Y-126475000D01*
X120756928Y-126475000D01*
X120756928Y-127525000D01*
X120769188Y-127649482D01*
X120805498Y-127769180D01*
X120864463Y-127879494D01*
X120943815Y-127976185D01*
X121040506Y-128055537D01*
X121150820Y-128114502D01*
X121270518Y-128150812D01*
X121395000Y-128163072D01*
X122445000Y-128163072D01*
X122569482Y-128150812D01*
X122689180Y-128114502D01*
X122799494Y-128055537D01*
X122848685Y-128015167D01*
X123050244Y-128105412D01*
X123273004Y-128156308D01*
X123501413Y-128162767D01*
X123726693Y-128124542D01*
X123940187Y-128043102D01*
X123998307Y-128012036D01*
X124036471Y-127796076D01*
X123420000Y-127179605D01*
X123405858Y-127193748D01*
X123226253Y-127014143D01*
X123240395Y-127000000D01*
X123599605Y-127000000D01*
X124216076Y-127616471D01*
X124432036Y-127578307D01*
X124525412Y-127369756D01*
X124528783Y-127355000D01*
X141326928Y-127355000D01*
X141326928Y-128405000D01*
X141339188Y-128529482D01*
X141375498Y-128649180D01*
X141434463Y-128759494D01*
X141513815Y-128856185D01*
X141610506Y-128935537D01*
X141720820Y-128994502D01*
X141840518Y-129030812D01*
X141965000Y-129043072D01*
X143015000Y-129043072D01*
X143139482Y-129030812D01*
X143259180Y-128994502D01*
X143369494Y-128935537D01*
X143418685Y-128895167D01*
X143620244Y-128985412D01*
X143843004Y-129036308D01*
X144071413Y-129042767D01*
X144296693Y-129004542D01*
X144510187Y-128923102D01*
X144568307Y-128892036D01*
X144606471Y-128676076D01*
X143990000Y-128059605D01*
X143975858Y-128073748D01*
X143796253Y-127894143D01*
X143810395Y-127880000D01*
X144169605Y-127880000D01*
X144786076Y-128496471D01*
X145002036Y-128458307D01*
X145095412Y-128249756D01*
X145146308Y-128026996D01*
X145152767Y-127798587D01*
X145114542Y-127573307D01*
X145033102Y-127359813D01*
X145002036Y-127301693D01*
X144786076Y-127263529D01*
X144169605Y-127880000D01*
X143810395Y-127880000D01*
X143796253Y-127865858D01*
X143975858Y-127686253D01*
X143990000Y-127700395D01*
X144606471Y-127083924D01*
X144568307Y-126867964D01*
X144359756Y-126774588D01*
X144136996Y-126723692D01*
X143908587Y-126717233D01*
X143683307Y-126755458D01*
X143469813Y-126836898D01*
X143418238Y-126864466D01*
X143369494Y-126824463D01*
X143259180Y-126765498D01*
X143139482Y-126729188D01*
X143015000Y-126716928D01*
X141965000Y-126716928D01*
X141840518Y-126729188D01*
X141720820Y-126765498D01*
X141610506Y-126824463D01*
X141513815Y-126903815D01*
X141434463Y-127000506D01*
X141375498Y-127110820D01*
X141339188Y-127230518D01*
X141326928Y-127355000D01*
X124528783Y-127355000D01*
X124576308Y-127146996D01*
X124582767Y-126918587D01*
X124544542Y-126693307D01*
X124463102Y-126479813D01*
X124432036Y-126421693D01*
X124216076Y-126383529D01*
X123599605Y-127000000D01*
X123240395Y-127000000D01*
X123226253Y-126985858D01*
X123405858Y-126806253D01*
X123420000Y-126820395D01*
X124036471Y-126203924D01*
X123998307Y-125987964D01*
X123789756Y-125894588D01*
X123566996Y-125843692D01*
X123338587Y-125837233D01*
X123113307Y-125875458D01*
X122899813Y-125956898D01*
X122848238Y-125984466D01*
X122799494Y-125944463D01*
X122689180Y-125885498D01*
X122569482Y-125849188D01*
X122445000Y-125836928D01*
X121395000Y-125836928D01*
X121270518Y-125849188D01*
X121150820Y-125885498D01*
X121040506Y-125944463D01*
X120943815Y-126023815D01*
X120864463Y-126120506D01*
X120805498Y-126230820D01*
X120769188Y-126350518D01*
X120756928Y-126475000D01*
X117778711Y-126475000D01*
X117753774Y-126450063D01*
X117584256Y-126336795D01*
X117395898Y-126258774D01*
X117195939Y-126219000D01*
X116992061Y-126219000D01*
X116792102Y-126258774D01*
X116603744Y-126336795D01*
X116434226Y-126450063D01*
X116372906Y-126511383D01*
X116179939Y-126473000D01*
X115976061Y-126473000D01*
X115776102Y-126512774D01*
X115587744Y-126590795D01*
X115418226Y-126704063D01*
X115274063Y-126848226D01*
X115160795Y-127017744D01*
X115082774Y-127206102D01*
X115043000Y-127406061D01*
X97180000Y-127406061D01*
X97180000Y-123548059D01*
X114281000Y-123548059D01*
X114281000Y-123751937D01*
X114320774Y-123951896D01*
X114398795Y-124140254D01*
X114512063Y-124309772D01*
X114656226Y-124453935D01*
X114825744Y-124567203D01*
X115014102Y-124645224D01*
X115214061Y-124684998D01*
X115417939Y-124684998D01*
X115617898Y-124645224D01*
X115806256Y-124567203D01*
X115975774Y-124453935D01*
X116119937Y-124309772D01*
X116233205Y-124140254D01*
X116311226Y-123951896D01*
X116351000Y-123751937D01*
X116351000Y-123596061D01*
X119107000Y-123596061D01*
X119107000Y-123799939D01*
X119146774Y-123999898D01*
X119224795Y-124188256D01*
X119338063Y-124357774D01*
X119482226Y-124501937D01*
X119651744Y-124615205D01*
X119840102Y-124693226D01*
X120040061Y-124733000D01*
X120243939Y-124733000D01*
X120443898Y-124693226D01*
X120632256Y-124615205D01*
X120801774Y-124501937D01*
X120945937Y-124357774D01*
X121059205Y-124188256D01*
X121137226Y-123999898D01*
X121177000Y-123799939D01*
X121177000Y-123596061D01*
X130029000Y-123596061D01*
X130029000Y-123799939D01*
X130068774Y-123999898D01*
X130146795Y-124188256D01*
X130260063Y-124357774D01*
X130404226Y-124501937D01*
X130573744Y-124615205D01*
X130762102Y-124693226D01*
X130962061Y-124733000D01*
X131165939Y-124733000D01*
X131365898Y-124693226D01*
X131554256Y-124615205D01*
X131723774Y-124501937D01*
X131867937Y-124357774D01*
X131981205Y-124188256D01*
X132059226Y-123999898D01*
X132099000Y-123799939D01*
X132099000Y-123596061D01*
X132059226Y-123396102D01*
X131981205Y-123207744D01*
X131867937Y-123038226D01*
X131723774Y-122894063D01*
X131554256Y-122780795D01*
X131365898Y-122702774D01*
X131165939Y-122663000D01*
X130962061Y-122663000D01*
X130762102Y-122702774D01*
X130573744Y-122780795D01*
X130404226Y-122894063D01*
X130260063Y-123038226D01*
X130146795Y-123207744D01*
X130068774Y-123396102D01*
X130029000Y-123596061D01*
X121177000Y-123596061D01*
X121137226Y-123396102D01*
X121059205Y-123207744D01*
X120945937Y-123038226D01*
X120801774Y-122894063D01*
X120632256Y-122780795D01*
X120443898Y-122702774D01*
X120243939Y-122663000D01*
X120040061Y-122663000D01*
X119840102Y-122702774D01*
X119651744Y-122780795D01*
X119482226Y-122894063D01*
X119338063Y-123038226D01*
X119224795Y-123207744D01*
X119146774Y-123396102D01*
X119107000Y-123596061D01*
X116351000Y-123596061D01*
X116351000Y-123548059D01*
X116334081Y-123463000D01*
X116433939Y-123463000D01*
X116633898Y-123423226D01*
X116822256Y-123345205D01*
X116991774Y-123231937D01*
X117135937Y-123087774D01*
X117249205Y-122918256D01*
X117327226Y-122729898D01*
X117367000Y-122529939D01*
X117367000Y-122326061D01*
X117327226Y-122126102D01*
X117249205Y-121937744D01*
X117135937Y-121768226D01*
X116991774Y-121624063D01*
X116967826Y-121608061D01*
X138745000Y-121608061D01*
X138745000Y-121811939D01*
X138784774Y-122011898D01*
X138862795Y-122200256D01*
X138976063Y-122369774D01*
X139120226Y-122513937D01*
X139289744Y-122627205D01*
X139478102Y-122705226D01*
X139678061Y-122745000D01*
X139881939Y-122745000D01*
X140081898Y-122705226D01*
X140270256Y-122627205D01*
X140439774Y-122513937D01*
X140583937Y-122369774D01*
X140697205Y-122200256D01*
X140775226Y-122011898D01*
X140815000Y-121811939D01*
X140815000Y-121608061D01*
X140775226Y-121408102D01*
X140697205Y-121219744D01*
X140583937Y-121050226D01*
X140439774Y-120906063D01*
X140270256Y-120792795D01*
X140081898Y-120714774D01*
X139881939Y-120675000D01*
X139678061Y-120675000D01*
X139478102Y-120714774D01*
X139289744Y-120792795D01*
X139120226Y-120906063D01*
X138976063Y-121050226D01*
X138862795Y-121219744D01*
X138784774Y-121408102D01*
X138745000Y-121608061D01*
X116967826Y-121608061D01*
X116822256Y-121510795D01*
X116633898Y-121432774D01*
X116433939Y-121393000D01*
X116230061Y-121393000D01*
X116030102Y-121432774D01*
X115841744Y-121510795D01*
X115672226Y-121624063D01*
X115528063Y-121768226D01*
X115414795Y-121937744D01*
X115336774Y-122126102D01*
X115297000Y-122326061D01*
X115297000Y-122529939D01*
X115313919Y-122614998D01*
X115214061Y-122614998D01*
X115014102Y-122654772D01*
X114825744Y-122732793D01*
X114656226Y-122846061D01*
X114512063Y-122990224D01*
X114398795Y-123159742D01*
X114320774Y-123348100D01*
X114281000Y-123548059D01*
X97180000Y-123548059D01*
X97180000Y-120294061D01*
X110725000Y-120294061D01*
X110725000Y-120497939D01*
X110764774Y-120697898D01*
X110842795Y-120886256D01*
X110956063Y-121055774D01*
X111058289Y-121158000D01*
X110956063Y-121260226D01*
X110842795Y-121429744D01*
X110764774Y-121618102D01*
X110725000Y-121818061D01*
X110725000Y-122021939D01*
X110764774Y-122221898D01*
X110842795Y-122410256D01*
X110956063Y-122579774D01*
X111100226Y-122723937D01*
X111269744Y-122837205D01*
X111458102Y-122915226D01*
X111658061Y-122955000D01*
X111861939Y-122955000D01*
X112061898Y-122915226D01*
X112250256Y-122837205D01*
X112419774Y-122723937D01*
X112563937Y-122579774D01*
X112677205Y-122410256D01*
X112755226Y-122221898D01*
X112795000Y-122021939D01*
X112795000Y-121818061D01*
X112755226Y-121618102D01*
X112677205Y-121429744D01*
X112563937Y-121260226D01*
X112461711Y-121158000D01*
X112563937Y-121055774D01*
X112677205Y-120886256D01*
X112755226Y-120697898D01*
X112795000Y-120497939D01*
X112795000Y-120294061D01*
X112755226Y-120094102D01*
X112677205Y-119905744D01*
X112563937Y-119736226D01*
X112419774Y-119592063D01*
X112250256Y-119478795D01*
X112061898Y-119400774D01*
X111861939Y-119361000D01*
X111658061Y-119361000D01*
X111458102Y-119400774D01*
X111269744Y-119478795D01*
X111100226Y-119592063D01*
X110956063Y-119736226D01*
X110842795Y-119905744D01*
X110764774Y-120094102D01*
X110725000Y-120294061D01*
X97180000Y-120294061D01*
X97180000Y-118008061D01*
X110979000Y-118008061D01*
X110979000Y-118211939D01*
X111018774Y-118411898D01*
X111096795Y-118600256D01*
X111210063Y-118769774D01*
X111354226Y-118913937D01*
X111523744Y-119027205D01*
X111712102Y-119105226D01*
X111912061Y-119145000D01*
X112115939Y-119145000D01*
X112315898Y-119105226D01*
X112358270Y-119087675D01*
X112366795Y-119108256D01*
X112480063Y-119277774D01*
X112624226Y-119421937D01*
X112793744Y-119535205D01*
X112982102Y-119613226D01*
X113182061Y-119653000D01*
X113385939Y-119653000D01*
X113585898Y-119613226D01*
X113774256Y-119535205D01*
X113943774Y-119421937D01*
X114087650Y-119278061D01*
X114535000Y-119278061D01*
X114535000Y-119481939D01*
X114574774Y-119681898D01*
X114652795Y-119870256D01*
X114766063Y-120039774D01*
X114910226Y-120183937D01*
X115079744Y-120297205D01*
X115268102Y-120375226D01*
X115468061Y-120415000D01*
X115671939Y-120415000D01*
X115871898Y-120375226D01*
X116060256Y-120297205D01*
X116229774Y-120183937D01*
X116373937Y-120039774D01*
X116487205Y-119870256D01*
X116565226Y-119681898D01*
X116605000Y-119481939D01*
X116605000Y-119278061D01*
X119361000Y-119278061D01*
X119361000Y-119481939D01*
X119400774Y-119681898D01*
X119478795Y-119870256D01*
X119592063Y-120039774D01*
X119736226Y-120183937D01*
X119905744Y-120297205D01*
X120094102Y-120375226D01*
X120294061Y-120415000D01*
X120497939Y-120415000D01*
X120697898Y-120375226D01*
X120886256Y-120297205D01*
X121055774Y-120183937D01*
X121199937Y-120039774D01*
X121313205Y-119870256D01*
X121391226Y-119681898D01*
X121431000Y-119481939D01*
X121431000Y-119278061D01*
X121391226Y-119078102D01*
X121313205Y-118889744D01*
X121199937Y-118720226D01*
X121055774Y-118576063D01*
X120886256Y-118462795D01*
X120697898Y-118384774D01*
X120497939Y-118345000D01*
X120294061Y-118345000D01*
X120094102Y-118384774D01*
X119905744Y-118462795D01*
X119736226Y-118576063D01*
X119592063Y-118720226D01*
X119478795Y-118889744D01*
X119400774Y-119078102D01*
X119361000Y-119278061D01*
X116605000Y-119278061D01*
X116565226Y-119078102D01*
X116487205Y-118889744D01*
X116373937Y-118720226D01*
X116229774Y-118576063D01*
X116060256Y-118462795D01*
X115871898Y-118384774D01*
X115671939Y-118345000D01*
X115468061Y-118345000D01*
X115268102Y-118384774D01*
X115079744Y-118462795D01*
X114910226Y-118576063D01*
X114766063Y-118720226D01*
X114652795Y-118889744D01*
X114574774Y-119078102D01*
X114535000Y-119278061D01*
X114087650Y-119278061D01*
X114087937Y-119277774D01*
X114201205Y-119108256D01*
X114279226Y-118919898D01*
X114319000Y-118719939D01*
X114319000Y-118516061D01*
X114279226Y-118316102D01*
X114201205Y-118127744D01*
X114087937Y-117958226D01*
X113943774Y-117814063D01*
X113853975Y-117754061D01*
X131045000Y-117754061D01*
X131045000Y-117957939D01*
X131084774Y-118157898D01*
X131162795Y-118346256D01*
X131276063Y-118515774D01*
X131420226Y-118659937D01*
X131589744Y-118773205D01*
X131778102Y-118851226D01*
X131978061Y-118891000D01*
X132181939Y-118891000D01*
X132381898Y-118851226D01*
X132570256Y-118773205D01*
X132739774Y-118659937D01*
X132821650Y-118578061D01*
X144745000Y-118578061D01*
X144745000Y-118781939D01*
X144784774Y-118981898D01*
X144862795Y-119170256D01*
X144976063Y-119339774D01*
X145120226Y-119483937D01*
X145289744Y-119597205D01*
X145478102Y-119675226D01*
X145678061Y-119715000D01*
X145881939Y-119715000D01*
X146081898Y-119675226D01*
X146270256Y-119597205D01*
X146439774Y-119483937D01*
X146583937Y-119339774D01*
X146697205Y-119170256D01*
X146775226Y-118981898D01*
X146815000Y-118781939D01*
X146815000Y-118578061D01*
X146775226Y-118378102D01*
X146697205Y-118189744D01*
X146583937Y-118020226D01*
X146439774Y-117876063D01*
X146270256Y-117762795D01*
X146081898Y-117684774D01*
X145881939Y-117645000D01*
X145678061Y-117645000D01*
X145478102Y-117684774D01*
X145289744Y-117762795D01*
X145120226Y-117876063D01*
X144976063Y-118020226D01*
X144862795Y-118189744D01*
X144784774Y-118378102D01*
X144745000Y-118578061D01*
X132821650Y-118578061D01*
X132883937Y-118515774D01*
X132997205Y-118346256D01*
X133075226Y-118157898D01*
X133115000Y-117957939D01*
X133115000Y-117754061D01*
X133075226Y-117554102D01*
X132997205Y-117365744D01*
X132883937Y-117196226D01*
X132739774Y-117052063D01*
X132570256Y-116938795D01*
X132381898Y-116860774D01*
X132181939Y-116821000D01*
X131978061Y-116821000D01*
X131778102Y-116860774D01*
X131589744Y-116938795D01*
X131420226Y-117052063D01*
X131276063Y-117196226D01*
X131162795Y-117365744D01*
X131084774Y-117554102D01*
X131045000Y-117754061D01*
X113853975Y-117754061D01*
X113774256Y-117700795D01*
X113585898Y-117622774D01*
X113385939Y-117583000D01*
X113182061Y-117583000D01*
X112982102Y-117622774D01*
X112939730Y-117640325D01*
X112931205Y-117619744D01*
X112817937Y-117450226D01*
X112673774Y-117306063D01*
X112504256Y-117192795D01*
X112315898Y-117114774D01*
X112115939Y-117075000D01*
X111912061Y-117075000D01*
X111712102Y-117114774D01*
X111523744Y-117192795D01*
X111354226Y-117306063D01*
X111210063Y-117450226D01*
X111096795Y-117619744D01*
X111018774Y-117808102D01*
X110979000Y-118008061D01*
X97180000Y-118008061D01*
X97180000Y-116265953D01*
X119071108Y-116265953D01*
X119071108Y-116469831D01*
X119110882Y-116669790D01*
X119188903Y-116858148D01*
X119302171Y-117027666D01*
X119446334Y-117171829D01*
X119615852Y-117285097D01*
X119804210Y-117363118D01*
X120004169Y-117402892D01*
X120208047Y-117402892D01*
X120408006Y-117363118D01*
X120596364Y-117285097D01*
X120765882Y-117171829D01*
X120910045Y-117027666D01*
X121023313Y-116858148D01*
X121101334Y-116669790D01*
X121141108Y-116469831D01*
X121141108Y-116265953D01*
X121101334Y-116065994D01*
X121023313Y-115877636D01*
X120910045Y-115708118D01*
X120901818Y-115699891D01*
X120921744Y-115713205D01*
X121110102Y-115791226D01*
X121310061Y-115831000D01*
X121513939Y-115831000D01*
X121713898Y-115791226D01*
X121902256Y-115713205D01*
X122071774Y-115599937D01*
X122215937Y-115455774D01*
X122329205Y-115286256D01*
X122407226Y-115097898D01*
X122447000Y-114897939D01*
X122447000Y-114694061D01*
X122407226Y-114494102D01*
X122329205Y-114305744D01*
X122215937Y-114136226D01*
X122071774Y-113992063D01*
X121902256Y-113878795D01*
X121713898Y-113800774D01*
X121513939Y-113761000D01*
X121310061Y-113761000D01*
X121110102Y-113800774D01*
X120921744Y-113878795D01*
X120752226Y-113992063D01*
X120608063Y-114136226D01*
X120494795Y-114305744D01*
X120416774Y-114494102D01*
X120377000Y-114694061D01*
X120377000Y-114897939D01*
X120416774Y-115097898D01*
X120494795Y-115286256D01*
X120608063Y-115455774D01*
X120616290Y-115464001D01*
X120596364Y-115450687D01*
X120408006Y-115372666D01*
X120208047Y-115332892D01*
X120004169Y-115332892D01*
X119804210Y-115372666D01*
X119615852Y-115450687D01*
X119446334Y-115563955D01*
X119302171Y-115708118D01*
X119188903Y-115877636D01*
X119110882Y-116065994D01*
X119071108Y-116265953D01*
X97180000Y-116265953D01*
X97180000Y-112928061D01*
X124949000Y-112928061D01*
X124949000Y-113131939D01*
X124988774Y-113331898D01*
X125066795Y-113520256D01*
X125180063Y-113689774D01*
X125324226Y-113833937D01*
X125493744Y-113947205D01*
X125682102Y-114025226D01*
X125882061Y-114065000D01*
X126034956Y-114065000D01*
X125913771Y-114089105D01*
X125725413Y-114167126D01*
X125555895Y-114280394D01*
X125411732Y-114424557D01*
X125298464Y-114594075D01*
X125220443Y-114782433D01*
X125180669Y-114982392D01*
X125180669Y-115186270D01*
X125220443Y-115386229D01*
X125298464Y-115574587D01*
X125411732Y-115744105D01*
X125555895Y-115888268D01*
X125725413Y-116001536D01*
X125913771Y-116079557D01*
X126113730Y-116119331D01*
X126317608Y-116119331D01*
X126517567Y-116079557D01*
X126705925Y-116001536D01*
X126875443Y-115888268D01*
X127019606Y-115744105D01*
X127132874Y-115574587D01*
X127210895Y-115386229D01*
X127245141Y-115214061D01*
X129521000Y-115214061D01*
X129521000Y-115417939D01*
X129560774Y-115617898D01*
X129638795Y-115806256D01*
X129752063Y-115975774D01*
X129896226Y-116119937D01*
X130065744Y-116233205D01*
X130254102Y-116311226D01*
X130454061Y-116351000D01*
X130657939Y-116351000D01*
X130857898Y-116311226D01*
X131046256Y-116233205D01*
X131215774Y-116119937D01*
X131353066Y-115982645D01*
X131394464Y-116082587D01*
X131507732Y-116252105D01*
X131651895Y-116396268D01*
X131821413Y-116509536D01*
X132009771Y-116587557D01*
X132209730Y-116627331D01*
X132413608Y-116627331D01*
X132613567Y-116587557D01*
X132801925Y-116509536D01*
X132971443Y-116396268D01*
X133115606Y-116252105D01*
X133228874Y-116082587D01*
X133306895Y-115894229D01*
X133346669Y-115694270D01*
X133346669Y-115572730D01*
X133480331Y-115572730D01*
X133480331Y-115776608D01*
X133520105Y-115976567D01*
X133598126Y-116164925D01*
X133711394Y-116334443D01*
X133855557Y-116478606D01*
X134025075Y-116591874D01*
X134213433Y-116669895D01*
X134413392Y-116709669D01*
X134418160Y-116709669D01*
X134464795Y-116822256D01*
X134578063Y-116991774D01*
X134722226Y-117135937D01*
X134891744Y-117249205D01*
X135080102Y-117327226D01*
X135280061Y-117367000D01*
X135483939Y-117367000D01*
X135683898Y-117327226D01*
X135872256Y-117249205D01*
X136041774Y-117135937D01*
X136185937Y-116991774D01*
X136299205Y-116822256D01*
X136377226Y-116633898D01*
X136417000Y-116433939D01*
X136417000Y-116230061D01*
X136377226Y-116030102D01*
X136299205Y-115841744D01*
X136185937Y-115672226D01*
X136041774Y-115528063D01*
X135872256Y-115414795D01*
X135683898Y-115336774D01*
X135483939Y-115297000D01*
X135479171Y-115297000D01*
X135432536Y-115184413D01*
X135319268Y-115014895D01*
X135175105Y-114870732D01*
X135005587Y-114757464D01*
X134817229Y-114679443D01*
X134617270Y-114639669D01*
X134413392Y-114639669D01*
X134213433Y-114679443D01*
X134025075Y-114757464D01*
X133855557Y-114870732D01*
X133711394Y-115014895D01*
X133598126Y-115184413D01*
X133520105Y-115372771D01*
X133480331Y-115572730D01*
X133346669Y-115572730D01*
X133346669Y-115490392D01*
X133306895Y-115290433D01*
X133228874Y-115102075D01*
X133115606Y-114932557D01*
X132999081Y-114816032D01*
X133143898Y-114787226D01*
X133332256Y-114709205D01*
X133501774Y-114595937D01*
X133645937Y-114451774D01*
X133759205Y-114282256D01*
X133837226Y-114093898D01*
X133867030Y-113944061D01*
X138157000Y-113944061D01*
X138157000Y-114147939D01*
X138196774Y-114347898D01*
X138274795Y-114536256D01*
X138388063Y-114705774D01*
X138532226Y-114849937D01*
X138701744Y-114963205D01*
X138890102Y-115041226D01*
X139090061Y-115081000D01*
X139293939Y-115081000D01*
X139493898Y-115041226D01*
X139682256Y-114963205D01*
X139851774Y-114849937D01*
X139995937Y-114705774D01*
X140109205Y-114536256D01*
X140187226Y-114347898D01*
X140227000Y-114147939D01*
X140227000Y-113944061D01*
X140187226Y-113744102D01*
X140109205Y-113555744D01*
X139995937Y-113386226D01*
X139851774Y-113242063D01*
X139682256Y-113128795D01*
X139493898Y-113050774D01*
X139293939Y-113011000D01*
X139090061Y-113011000D01*
X138890102Y-113050774D01*
X138701744Y-113128795D01*
X138532226Y-113242063D01*
X138388063Y-113386226D01*
X138274795Y-113555744D01*
X138196774Y-113744102D01*
X138157000Y-113944061D01*
X133867030Y-113944061D01*
X133877000Y-113893939D01*
X133877000Y-113690061D01*
X133837226Y-113490102D01*
X133759205Y-113301744D01*
X133645937Y-113132226D01*
X133501774Y-112988063D01*
X133332256Y-112874795D01*
X133143898Y-112796774D01*
X132943939Y-112757000D01*
X132740061Y-112757000D01*
X132540102Y-112796774D01*
X132351744Y-112874795D01*
X132182226Y-112988063D01*
X132038063Y-113132226D01*
X131924795Y-113301744D01*
X131846774Y-113490102D01*
X131807000Y-113690061D01*
X131807000Y-113893939D01*
X131846774Y-114093898D01*
X131924795Y-114282256D01*
X132038063Y-114451774D01*
X132154588Y-114568299D01*
X132009771Y-114597105D01*
X131821413Y-114675126D01*
X131651895Y-114788394D01*
X131514603Y-114925686D01*
X131473205Y-114825744D01*
X131359937Y-114656226D01*
X131215774Y-114512063D01*
X131046256Y-114398795D01*
X130857898Y-114320774D01*
X130657939Y-114281000D01*
X130454061Y-114281000D01*
X130254102Y-114320774D01*
X130065744Y-114398795D01*
X129896226Y-114512063D01*
X129752063Y-114656226D01*
X129638795Y-114825744D01*
X129560774Y-115014102D01*
X129521000Y-115214061D01*
X127245141Y-115214061D01*
X127250669Y-115186270D01*
X127250669Y-114982392D01*
X127210895Y-114782433D01*
X127132874Y-114594075D01*
X127019606Y-114424557D01*
X126875443Y-114280394D01*
X126705925Y-114167126D01*
X126517567Y-114089105D01*
X126317608Y-114049331D01*
X126164713Y-114049331D01*
X126285898Y-114025226D01*
X126474256Y-113947205D01*
X126643774Y-113833937D01*
X126787937Y-113689774D01*
X126901205Y-113520256D01*
X126979226Y-113331898D01*
X127019000Y-113131939D01*
X127019000Y-112928061D01*
X126979226Y-112728102D01*
X126901205Y-112539744D01*
X126787937Y-112370226D01*
X126643774Y-112226063D01*
X126474256Y-112112795D01*
X126285898Y-112034774D01*
X126085939Y-111995000D01*
X125882061Y-111995000D01*
X125682102Y-112034774D01*
X125493744Y-112112795D01*
X125324226Y-112226063D01*
X125180063Y-112370226D01*
X125066795Y-112539744D01*
X124988774Y-112728102D01*
X124949000Y-112928061D01*
X97180000Y-112928061D01*
X97180000Y-110134061D01*
X105645000Y-110134061D01*
X105645000Y-110337939D01*
X105684774Y-110537898D01*
X105762795Y-110726256D01*
X105876063Y-110895774D01*
X106020226Y-111039937D01*
X106189744Y-111153205D01*
X106378102Y-111231226D01*
X106578061Y-111271000D01*
X106781939Y-111271000D01*
X106981898Y-111231226D01*
X107170256Y-111153205D01*
X107188000Y-111141349D01*
X107205744Y-111153205D01*
X107394102Y-111231226D01*
X107594061Y-111271000D01*
X107797939Y-111271000D01*
X107997898Y-111231226D01*
X108186256Y-111153205D01*
X108355774Y-111039937D01*
X108499937Y-110895774D01*
X108613205Y-110726256D01*
X108691226Y-110537898D01*
X108731000Y-110337939D01*
X108731000Y-110134061D01*
X108691226Y-109934102D01*
X108668842Y-109880061D01*
X127997000Y-109880061D01*
X127997000Y-110083939D01*
X128036774Y-110283898D01*
X128114795Y-110472256D01*
X128228063Y-110641774D01*
X128372226Y-110785937D01*
X128541744Y-110899205D01*
X128730102Y-110977226D01*
X128787381Y-110988619D01*
X128798774Y-111045898D01*
X128876795Y-111234256D01*
X128990063Y-111403774D01*
X129134226Y-111547937D01*
X129303744Y-111661205D01*
X129492102Y-111739226D01*
X129692061Y-111779000D01*
X129895939Y-111779000D01*
X130095898Y-111739226D01*
X130284256Y-111661205D01*
X130453774Y-111547937D01*
X130597937Y-111403774D01*
X130711205Y-111234256D01*
X130789226Y-111045898D01*
X130829000Y-110845939D01*
X130829000Y-110642061D01*
X130789226Y-110442102D01*
X130711205Y-110253744D01*
X130597937Y-110084226D01*
X130453774Y-109940063D01*
X130284256Y-109826795D01*
X130095898Y-109748774D01*
X130038619Y-109737381D01*
X130027226Y-109680102D01*
X129949205Y-109491744D01*
X129835937Y-109322226D01*
X129691774Y-109178063D01*
X129601975Y-109118061D01*
X130791000Y-109118061D01*
X130791000Y-109321939D01*
X130830774Y-109521898D01*
X130908795Y-109710256D01*
X131022063Y-109879774D01*
X131166226Y-110023937D01*
X131335744Y-110137205D01*
X131524102Y-110215226D01*
X131724061Y-110255000D01*
X131927939Y-110255000D01*
X132127898Y-110215226D01*
X132316256Y-110137205D01*
X132485774Y-110023937D01*
X132629937Y-109879774D01*
X132743205Y-109710256D01*
X132821226Y-109521898D01*
X132861000Y-109321939D01*
X132861000Y-109118061D01*
X132834533Y-108985000D01*
X132943939Y-108985000D01*
X133110039Y-108951961D01*
X133077000Y-109118061D01*
X133077000Y-109321939D01*
X133116774Y-109521898D01*
X133194795Y-109710256D01*
X133308063Y-109879774D01*
X133452226Y-110023937D01*
X133621744Y-110137205D01*
X133810102Y-110215226D01*
X134010061Y-110255000D01*
X134213939Y-110255000D01*
X134413898Y-110215226D01*
X134602256Y-110137205D01*
X134771774Y-110023937D01*
X134915937Y-109879774D01*
X135029205Y-109710256D01*
X135107226Y-109521898D01*
X135147000Y-109321939D01*
X135147000Y-109118061D01*
X135107226Y-108918102D01*
X135029205Y-108729744D01*
X134934315Y-108587730D01*
X137671331Y-108587730D01*
X137671331Y-108791608D01*
X137711105Y-108991567D01*
X137789126Y-109179925D01*
X137902394Y-109349443D01*
X138046557Y-109493606D01*
X138216075Y-109606874D01*
X138404433Y-109684895D01*
X138604392Y-109724669D01*
X138808270Y-109724669D01*
X138919000Y-109702644D01*
X138919000Y-109829939D01*
X138958774Y-110029898D01*
X139036795Y-110218256D01*
X139150063Y-110387774D01*
X139294226Y-110531937D01*
X139463744Y-110645205D01*
X139652102Y-110723226D01*
X139852061Y-110763000D01*
X139979356Y-110763000D01*
X139957331Y-110873730D01*
X139957331Y-111077608D01*
X139997105Y-111277567D01*
X140075126Y-111465925D01*
X140188394Y-111635443D01*
X140332557Y-111779606D01*
X140502075Y-111892874D01*
X140690433Y-111970895D01*
X140890392Y-112010669D01*
X141094270Y-112010669D01*
X141294229Y-111970895D01*
X141482587Y-111892874D01*
X141652105Y-111779606D01*
X141796268Y-111635443D01*
X141909536Y-111465925D01*
X141987557Y-111277567D01*
X142027331Y-111077608D01*
X142027331Y-110873730D01*
X141987557Y-110673771D01*
X141909536Y-110485413D01*
X141796268Y-110315895D01*
X141652105Y-110171732D01*
X141482587Y-110058464D01*
X141294229Y-109980443D01*
X141094270Y-109940669D01*
X140966975Y-109940669D01*
X140989000Y-109829939D01*
X140989000Y-109626061D01*
X140949226Y-109426102D01*
X140871205Y-109237744D01*
X140757937Y-109068226D01*
X140613774Y-108924063D01*
X140444256Y-108810795D01*
X140255898Y-108732774D01*
X140055939Y-108693000D01*
X139852061Y-108693000D01*
X139741331Y-108715025D01*
X139741331Y-108610061D01*
X142221000Y-108610061D01*
X142221000Y-108813939D01*
X142260774Y-109013898D01*
X142338795Y-109202256D01*
X142452063Y-109371774D01*
X142596226Y-109515937D01*
X142765744Y-109629205D01*
X142954102Y-109707226D01*
X143154061Y-109747000D01*
X143357939Y-109747000D01*
X143557898Y-109707226D01*
X143746256Y-109629205D01*
X143915774Y-109515937D01*
X144059937Y-109371774D01*
X144173205Y-109202256D01*
X144251226Y-109013898D01*
X144291000Y-108813939D01*
X144291000Y-108610061D01*
X144251226Y-108410102D01*
X144173205Y-108221744D01*
X144059937Y-108052226D01*
X143915774Y-107908063D01*
X143746256Y-107794795D01*
X143557898Y-107716774D01*
X143357939Y-107677000D01*
X143154061Y-107677000D01*
X142954102Y-107716774D01*
X142765744Y-107794795D01*
X142596226Y-107908063D01*
X142452063Y-108052226D01*
X142338795Y-108221744D01*
X142260774Y-108410102D01*
X142221000Y-108610061D01*
X139741331Y-108610061D01*
X139741331Y-108587730D01*
X139701557Y-108387771D01*
X139623536Y-108199413D01*
X139510268Y-108029895D01*
X139366105Y-107885732D01*
X139196587Y-107772464D01*
X139008229Y-107694443D01*
X138808270Y-107654669D01*
X138604392Y-107654669D01*
X138404433Y-107694443D01*
X138216075Y-107772464D01*
X138046557Y-107885732D01*
X137902394Y-108029895D01*
X137789126Y-108199413D01*
X137711105Y-108387771D01*
X137671331Y-108587730D01*
X134934315Y-108587730D01*
X134915937Y-108560226D01*
X134771774Y-108416063D01*
X134602256Y-108302795D01*
X134535423Y-108275112D01*
X134732905Y-108319731D01*
X134956406Y-108325511D01*
X135176740Y-108287577D01*
X135385440Y-108207387D01*
X135437450Y-108179588D01*
X135452070Y-108090720D01*
X135606376Y-108193824D01*
X135812933Y-108279383D01*
X136032212Y-108323000D01*
X136255788Y-108323000D01*
X136475067Y-108279383D01*
X136681624Y-108193824D01*
X136867520Y-108069612D01*
X137025612Y-107911520D01*
X137149824Y-107725624D01*
X137235383Y-107519067D01*
X137279000Y-107299788D01*
X137279000Y-107076212D01*
X137235383Y-106856933D01*
X137149824Y-106650376D01*
X137084759Y-106553000D01*
X137149824Y-106455624D01*
X137235383Y-106249067D01*
X137279000Y-106029788D01*
X137279000Y-105806212D01*
X137235383Y-105586933D01*
X137149824Y-105380376D01*
X137084759Y-105283000D01*
X137149824Y-105185624D01*
X137235383Y-104979067D01*
X137275431Y-104777730D01*
X137671331Y-104777730D01*
X137671331Y-104981608D01*
X137711105Y-105181567D01*
X137789126Y-105369925D01*
X137902394Y-105539443D01*
X138046557Y-105683606D01*
X138216075Y-105796874D01*
X138404433Y-105874895D01*
X138604392Y-105914669D01*
X138808270Y-105914669D01*
X139008229Y-105874895D01*
X139196587Y-105796874D01*
X139366105Y-105683606D01*
X139510268Y-105539443D01*
X139623536Y-105369925D01*
X139701557Y-105181567D01*
X139741331Y-104981608D01*
X139741331Y-104777730D01*
X139701557Y-104577771D01*
X139623536Y-104389413D01*
X139510268Y-104219895D01*
X139366105Y-104075732D01*
X139196587Y-103962464D01*
X139008229Y-103884443D01*
X138808270Y-103844669D01*
X138604392Y-103844669D01*
X138404433Y-103884443D01*
X138216075Y-103962464D01*
X138046557Y-104075732D01*
X137902394Y-104219895D01*
X137789126Y-104389413D01*
X137711105Y-104577771D01*
X137671331Y-104777730D01*
X137275431Y-104777730D01*
X137279000Y-104759788D01*
X137279000Y-104536212D01*
X137235383Y-104316933D01*
X137149824Y-104110376D01*
X137084759Y-104013000D01*
X137149824Y-103915624D01*
X137235383Y-103709067D01*
X137279000Y-103489788D01*
X137279000Y-103266212D01*
X137235383Y-103046933D01*
X137149824Y-102840376D01*
X137084759Y-102743000D01*
X137149824Y-102645624D01*
X137235383Y-102439067D01*
X137279000Y-102219788D01*
X137279000Y-102173589D01*
X146225000Y-102173589D01*
X146225000Y-102446411D01*
X146278225Y-102713989D01*
X146382629Y-102966043D01*
X146534201Y-103192886D01*
X146727114Y-103385799D01*
X146953957Y-103537371D01*
X147206011Y-103641775D01*
X147473589Y-103695000D01*
X147746411Y-103695000D01*
X148013989Y-103641775D01*
X148266043Y-103537371D01*
X148492886Y-103385799D01*
X148685799Y-103192886D01*
X148837371Y-102966043D01*
X148941775Y-102713989D01*
X148995000Y-102446411D01*
X148995000Y-102173589D01*
X150725000Y-102173589D01*
X150725000Y-102446411D01*
X150778225Y-102713989D01*
X150882629Y-102966043D01*
X151034201Y-103192886D01*
X151227114Y-103385799D01*
X151453957Y-103537371D01*
X151706011Y-103641775D01*
X151973589Y-103695000D01*
X152246411Y-103695000D01*
X152513989Y-103641775D01*
X152766043Y-103537371D01*
X152992886Y-103385799D01*
X153185799Y-103192886D01*
X153337371Y-102966043D01*
X153441775Y-102713989D01*
X153495000Y-102446411D01*
X153495000Y-102173589D01*
X153441775Y-101906011D01*
X153337371Y-101653957D01*
X153185799Y-101427114D01*
X152992886Y-101234201D01*
X152766043Y-101082629D01*
X152513989Y-100978225D01*
X152246411Y-100925000D01*
X151973589Y-100925000D01*
X151706011Y-100978225D01*
X151453957Y-101082629D01*
X151227114Y-101234201D01*
X151034201Y-101427114D01*
X150882629Y-101653957D01*
X150778225Y-101906011D01*
X150725000Y-102173589D01*
X148995000Y-102173589D01*
X148941775Y-101906011D01*
X148837371Y-101653957D01*
X148685799Y-101427114D01*
X148492886Y-101234201D01*
X148266043Y-101082629D01*
X148013989Y-100978225D01*
X147746411Y-100925000D01*
X147473589Y-100925000D01*
X147206011Y-100978225D01*
X146953957Y-101082629D01*
X146727114Y-101234201D01*
X146534201Y-101427114D01*
X146382629Y-101653957D01*
X146278225Y-101906011D01*
X146225000Y-102173589D01*
X137279000Y-102173589D01*
X137279000Y-101996212D01*
X137235383Y-101776933D01*
X137149824Y-101570376D01*
X137046720Y-101416070D01*
X137135588Y-101401450D01*
X137226458Y-101197174D01*
X137275731Y-100979095D01*
X137281511Y-100755594D01*
X137243577Y-100535260D01*
X137163387Y-100326560D01*
X137135588Y-100274550D01*
X137046720Y-100259930D01*
X137149824Y-100105624D01*
X137235383Y-99899067D01*
X137261676Y-99766881D01*
X162578724Y-99766881D01*
X162938912Y-100256548D01*
X163602882Y-100616849D01*
X164324385Y-100840694D01*
X165075695Y-100919480D01*
X165827938Y-100850178D01*
X166552208Y-100635452D01*
X167220670Y-100283555D01*
X167261088Y-100256548D01*
X167621276Y-99766881D01*
X165100000Y-97245605D01*
X162578724Y-99766881D01*
X137261676Y-99766881D01*
X137279000Y-99679788D01*
X137279000Y-99456212D01*
X137235383Y-99236933D01*
X137149824Y-99030376D01*
X137084759Y-98933000D01*
X137149824Y-98835624D01*
X137235383Y-98629067D01*
X137279000Y-98409788D01*
X137279000Y-98186212D01*
X137235383Y-97966933D01*
X137149824Y-97760376D01*
X137025612Y-97574480D01*
X136867520Y-97416388D01*
X136681624Y-97292176D01*
X136475067Y-97206617D01*
X136255788Y-97163000D01*
X136032212Y-97163000D01*
X135812933Y-97206617D01*
X135606376Y-97292176D01*
X135509000Y-97357241D01*
X135411624Y-97292176D01*
X135205067Y-97206617D01*
X134985788Y-97163000D01*
X134762212Y-97163000D01*
X134542933Y-97206617D01*
X134336376Y-97292176D01*
X134150480Y-97416388D01*
X133992388Y-97574480D01*
X133868176Y-97760376D01*
X133782617Y-97966933D01*
X133739000Y-98186212D01*
X133739000Y-98409788D01*
X133782617Y-98629067D01*
X133868176Y-98835624D01*
X133933241Y-98933000D01*
X133868176Y-99030376D01*
X133782617Y-99236933D01*
X133739000Y-99456212D01*
X133739000Y-99679788D01*
X133782617Y-99899067D01*
X133868176Y-100105624D01*
X133933241Y-100203000D01*
X133868176Y-100300376D01*
X133838861Y-100371150D01*
X133755774Y-100288063D01*
X133586256Y-100174795D01*
X133397898Y-100096774D01*
X133197939Y-100057000D01*
X132994061Y-100057000D01*
X132794102Y-100096774D01*
X132605744Y-100174795D01*
X132436226Y-100288063D01*
X132292063Y-100432226D01*
X132178795Y-100601744D01*
X132100774Y-100790102D01*
X132061000Y-100990061D01*
X132061000Y-101193939D01*
X132100774Y-101393898D01*
X132178795Y-101582256D01*
X132292063Y-101751774D01*
X132436226Y-101895937D01*
X132605744Y-102009205D01*
X132794102Y-102087226D01*
X132994061Y-102127000D01*
X133197939Y-102127000D01*
X133397898Y-102087226D01*
X133586256Y-102009205D01*
X133755774Y-101895937D01*
X133759733Y-101891978D01*
X133739000Y-101996212D01*
X133739000Y-102219788D01*
X133782617Y-102439067D01*
X133868176Y-102645624D01*
X133933241Y-102743000D01*
X133868176Y-102840376D01*
X133782617Y-103046933D01*
X133739000Y-103266212D01*
X133739000Y-103489788D01*
X133782617Y-103709067D01*
X133868176Y-103915624D01*
X133933241Y-104013000D01*
X133868176Y-104110376D01*
X133782617Y-104316933D01*
X133739000Y-104536212D01*
X133739000Y-104759788D01*
X133782617Y-104979067D01*
X133868176Y-105185624D01*
X133933241Y-105283000D01*
X133868176Y-105380376D01*
X133782617Y-105586933D01*
X133739000Y-105806212D01*
X133739000Y-106029788D01*
X133782617Y-106249067D01*
X133868176Y-106455624D01*
X133971280Y-106609930D01*
X133882412Y-106624550D01*
X133791542Y-106828826D01*
X133742269Y-107046905D01*
X133736489Y-107270406D01*
X133774423Y-107490740D01*
X133804912Y-107570089D01*
X133759205Y-107459744D01*
X133645937Y-107290226D01*
X133501774Y-107146063D01*
X133332256Y-107032795D01*
X133143898Y-106954774D01*
X132943939Y-106915000D01*
X132740061Y-106915000D01*
X132540102Y-106954774D01*
X132351744Y-107032795D01*
X132182226Y-107146063D01*
X132038063Y-107290226D01*
X131924795Y-107459744D01*
X131846774Y-107648102D01*
X131807000Y-107848061D01*
X131807000Y-108051939D01*
X131833467Y-108185000D01*
X131724061Y-108185000D01*
X131524102Y-108224774D01*
X131335744Y-108302795D01*
X131166226Y-108416063D01*
X131022063Y-108560226D01*
X130908795Y-108729744D01*
X130830774Y-108918102D01*
X130791000Y-109118061D01*
X129601975Y-109118061D01*
X129522256Y-109064795D01*
X129333898Y-108986774D01*
X129133939Y-108947000D01*
X128930061Y-108947000D01*
X128730102Y-108986774D01*
X128541744Y-109064795D01*
X128372226Y-109178063D01*
X128228063Y-109322226D01*
X128114795Y-109491744D01*
X128036774Y-109680102D01*
X127997000Y-109880061D01*
X108668842Y-109880061D01*
X108613205Y-109745744D01*
X108499937Y-109576226D01*
X108355774Y-109432063D01*
X108186256Y-109318795D01*
X107997898Y-109240774D01*
X107797939Y-109201000D01*
X107594061Y-109201000D01*
X107394102Y-109240774D01*
X107205744Y-109318795D01*
X107188000Y-109330651D01*
X107170256Y-109318795D01*
X106981898Y-109240774D01*
X106781939Y-109201000D01*
X106578061Y-109201000D01*
X106378102Y-109240774D01*
X106189744Y-109318795D01*
X106020226Y-109432063D01*
X105876063Y-109576226D01*
X105762795Y-109745744D01*
X105684774Y-109934102D01*
X105645000Y-110134061D01*
X97180000Y-110134061D01*
X97180000Y-105816061D01*
X119361000Y-105816061D01*
X119361000Y-106019939D01*
X119400774Y-106219898D01*
X119478795Y-106408256D01*
X119592063Y-106577774D01*
X119736226Y-106721937D01*
X119905744Y-106835205D01*
X120094102Y-106913226D01*
X120294061Y-106953000D01*
X120497939Y-106953000D01*
X120697898Y-106913226D01*
X120886256Y-106835205D01*
X121055774Y-106721937D01*
X121199937Y-106577774D01*
X121313205Y-106408256D01*
X121391226Y-106219898D01*
X121431000Y-106019939D01*
X121431000Y-105816061D01*
X121391226Y-105616102D01*
X121368842Y-105562061D01*
X130029000Y-105562061D01*
X130029000Y-105765939D01*
X130068774Y-105965898D01*
X130146795Y-106154256D01*
X130260063Y-106323774D01*
X130404226Y-106467937D01*
X130573744Y-106581205D01*
X130762102Y-106659226D01*
X130962061Y-106699000D01*
X131165939Y-106699000D01*
X131365898Y-106659226D01*
X131554256Y-106581205D01*
X131723774Y-106467937D01*
X131867937Y-106323774D01*
X131981205Y-106154256D01*
X132059226Y-105965898D01*
X132099000Y-105765939D01*
X132099000Y-105562061D01*
X132059226Y-105362102D01*
X131981205Y-105173744D01*
X131867937Y-105004226D01*
X131723774Y-104860063D01*
X131554256Y-104746795D01*
X131365898Y-104668774D01*
X131165939Y-104629000D01*
X130962061Y-104629000D01*
X130762102Y-104668774D01*
X130573744Y-104746795D01*
X130404226Y-104860063D01*
X130260063Y-105004226D01*
X130146795Y-105173744D01*
X130068774Y-105362102D01*
X130029000Y-105562061D01*
X121368842Y-105562061D01*
X121313205Y-105427744D01*
X121199937Y-105258226D01*
X121055774Y-105114063D01*
X120886256Y-105000795D01*
X120697898Y-104922774D01*
X120497939Y-104883000D01*
X120294061Y-104883000D01*
X120094102Y-104922774D01*
X119905744Y-105000795D01*
X119736226Y-105114063D01*
X119592063Y-105258226D01*
X119478795Y-105427744D01*
X119400774Y-105616102D01*
X119361000Y-105816061D01*
X97180000Y-105816061D01*
X97180000Y-99766881D01*
X100094724Y-99766881D01*
X100454912Y-100256548D01*
X101118882Y-100616849D01*
X101840385Y-100840694D01*
X102591695Y-100919480D01*
X103343938Y-100850178D01*
X104068208Y-100635452D01*
X104736670Y-100283555D01*
X104777088Y-100256548D01*
X105137276Y-99766881D01*
X102616000Y-97245605D01*
X100094724Y-99766881D01*
X97180000Y-99766881D01*
X97180000Y-97054507D01*
X97181030Y-97041695D01*
X98762520Y-97041695D01*
X98831822Y-97793938D01*
X99046548Y-98518208D01*
X99398445Y-99186670D01*
X99425452Y-99227088D01*
X99915119Y-99587276D01*
X102436395Y-97066000D01*
X102795605Y-97066000D01*
X105316881Y-99587276D01*
X105806548Y-99227088D01*
X106166849Y-98563118D01*
X106390694Y-97841615D01*
X106460067Y-97180061D01*
X128251000Y-97180061D01*
X128251000Y-97383939D01*
X128290774Y-97583898D01*
X128368795Y-97772256D01*
X128482063Y-97941774D01*
X128626226Y-98085937D01*
X128795744Y-98199205D01*
X128984102Y-98277226D01*
X129184061Y-98317000D01*
X129387939Y-98317000D01*
X129587898Y-98277226D01*
X129776256Y-98199205D01*
X129945774Y-98085937D01*
X130089937Y-97941774D01*
X130203205Y-97772256D01*
X130281226Y-97583898D01*
X130321000Y-97383939D01*
X130321000Y-97180061D01*
X130281226Y-96980102D01*
X130203205Y-96791744D01*
X130186667Y-96766993D01*
X146832612Y-96766993D01*
X146898137Y-97005860D01*
X147145116Y-97121760D01*
X147409960Y-97187250D01*
X147682492Y-97199812D01*
X147952238Y-97158965D01*
X148208832Y-97066277D01*
X148321863Y-97005860D01*
X148387388Y-96766993D01*
X147610000Y-95989605D01*
X146832612Y-96766993D01*
X130186667Y-96766993D01*
X130089937Y-96622226D01*
X129945774Y-96478063D01*
X129776256Y-96364795D01*
X129587898Y-96286774D01*
X129387939Y-96247000D01*
X129184061Y-96247000D01*
X128984102Y-96286774D01*
X128795744Y-96364795D01*
X128626226Y-96478063D01*
X128482063Y-96622226D01*
X128368795Y-96791744D01*
X128290774Y-96980102D01*
X128251000Y-97180061D01*
X106460067Y-97180061D01*
X106469480Y-97090305D01*
X106400178Y-96338062D01*
X106265115Y-95882492D01*
X146220188Y-95882492D01*
X146261035Y-96152238D01*
X146353723Y-96408832D01*
X146414140Y-96521863D01*
X146653007Y-96587388D01*
X147430395Y-95810000D01*
X147789605Y-95810000D01*
X148566993Y-96587388D01*
X148805860Y-96521863D01*
X148921760Y-96274884D01*
X148987250Y-96010040D01*
X148999812Y-95737508D01*
X148990133Y-95673589D01*
X150725000Y-95673589D01*
X150725000Y-95946411D01*
X150778225Y-96213989D01*
X150882629Y-96466043D01*
X151034201Y-96692886D01*
X151227114Y-96885799D01*
X151453957Y-97037371D01*
X151706011Y-97141775D01*
X151973589Y-97195000D01*
X152246411Y-97195000D01*
X152513989Y-97141775D01*
X152755603Y-97041695D01*
X161246520Y-97041695D01*
X161315822Y-97793938D01*
X161530548Y-98518208D01*
X161882445Y-99186670D01*
X161909452Y-99227088D01*
X162399119Y-99587276D01*
X164920395Y-97066000D01*
X165279605Y-97066000D01*
X167800881Y-99587276D01*
X168290548Y-99227088D01*
X168650849Y-98563118D01*
X168874694Y-97841615D01*
X168953480Y-97090305D01*
X168884178Y-96338062D01*
X168669452Y-95613792D01*
X168317555Y-94945330D01*
X168290548Y-94904912D01*
X167800881Y-94544724D01*
X165279605Y-97066000D01*
X164920395Y-97066000D01*
X162399119Y-94544724D01*
X161909452Y-94904912D01*
X161549151Y-95568882D01*
X161325306Y-96290385D01*
X161246520Y-97041695D01*
X152755603Y-97041695D01*
X152766043Y-97037371D01*
X152992886Y-96885799D01*
X153185799Y-96692886D01*
X153337371Y-96466043D01*
X153441775Y-96213989D01*
X153495000Y-95946411D01*
X153495000Y-95673589D01*
X153441775Y-95406011D01*
X153337371Y-95153957D01*
X153185799Y-94927114D01*
X152992886Y-94734201D01*
X152766043Y-94582629D01*
X152513989Y-94478225D01*
X152246411Y-94425000D01*
X151973589Y-94425000D01*
X151706011Y-94478225D01*
X151453957Y-94582629D01*
X151227114Y-94734201D01*
X151034201Y-94927114D01*
X150882629Y-95153957D01*
X150778225Y-95406011D01*
X150725000Y-95673589D01*
X148990133Y-95673589D01*
X148958965Y-95467762D01*
X148866277Y-95211168D01*
X148805860Y-95098137D01*
X148566993Y-95032612D01*
X147789605Y-95810000D01*
X147430395Y-95810000D01*
X146653007Y-95032612D01*
X146414140Y-95098137D01*
X146298240Y-95345116D01*
X146232750Y-95609960D01*
X146220188Y-95882492D01*
X106265115Y-95882492D01*
X106185452Y-95613792D01*
X105833555Y-94945330D01*
X105806548Y-94904912D01*
X105735985Y-94853007D01*
X146832612Y-94853007D01*
X147610000Y-95630395D01*
X148387388Y-94853007D01*
X148321863Y-94614140D01*
X148074884Y-94498240D01*
X147810040Y-94432750D01*
X147537508Y-94420188D01*
X147267762Y-94461035D01*
X147011168Y-94553723D01*
X146898137Y-94614140D01*
X146832612Y-94853007D01*
X105735985Y-94853007D01*
X105316881Y-94544724D01*
X102795605Y-97066000D01*
X102436395Y-97066000D01*
X99915119Y-94544724D01*
X99425452Y-94904912D01*
X99065151Y-95568882D01*
X98841306Y-96290385D01*
X98762520Y-97041695D01*
X97181030Y-97041695D01*
X97252032Y-96159229D01*
X97459935Y-95312800D01*
X97800487Y-94510510D01*
X97892044Y-94365119D01*
X100094724Y-94365119D01*
X102616000Y-96886395D01*
X105137276Y-94365119D01*
X162578724Y-94365119D01*
X165100000Y-96886395D01*
X167621276Y-94365119D01*
X167261088Y-93875452D01*
X166597118Y-93515151D01*
X165875615Y-93291306D01*
X165124305Y-93212520D01*
X164372062Y-93281822D01*
X163647792Y-93496548D01*
X162979330Y-93848445D01*
X162938912Y-93875452D01*
X162578724Y-94365119D01*
X105137276Y-94365119D01*
X104777088Y-93875452D01*
X104113118Y-93515151D01*
X103391615Y-93291306D01*
X102640305Y-93212520D01*
X101888062Y-93281822D01*
X101163792Y-93496548D01*
X100495330Y-93848445D01*
X100454912Y-93875452D01*
X100094724Y-94365119D01*
X97892044Y-94365119D01*
X98264932Y-93772985D01*
X98841317Y-93119206D01*
X99514819Y-92565983D01*
X100268101Y-92127563D01*
X101081791Y-91815216D01*
X101940627Y-91635796D01*
X102636747Y-91592000D01*
X165073493Y-91592000D01*
X165968771Y-91664032D01*
G37*
G04 #@! TD.AperFunction*
D19*
X135009000Y-107115110D02*
X135009000Y-107260890D01*
X134888143Y-107381748D01*
X134874000Y-107367605D01*
X134275439Y-107966166D01*
X134310550Y-108179588D01*
X134410697Y-108224137D01*
X134213939Y-108185000D01*
X134010061Y-108185000D01*
X133843961Y-108218039D01*
X133877000Y-108051939D01*
X133877000Y-107848061D01*
X133839736Y-107660723D01*
X133854613Y-107699440D01*
X133882412Y-107751450D01*
X134095834Y-107786561D01*
X134694395Y-107188000D01*
X134680253Y-107173858D01*
X134801110Y-107053000D01*
X134946890Y-107053000D01*
X135009000Y-107115110D01*
G04 #@! TA.AperFunction,Conductor*
D20*
G36*
X135009000Y-107115110D02*
G01*
X135009000Y-107260890D01*
X134888143Y-107381748D01*
X134874000Y-107367605D01*
X134275439Y-107966166D01*
X134310550Y-108179588D01*
X134410697Y-108224137D01*
X134213939Y-108185000D01*
X134010061Y-108185000D01*
X133843961Y-108218039D01*
X133877000Y-108051939D01*
X133877000Y-107848061D01*
X133839736Y-107660723D01*
X133854613Y-107699440D01*
X133882412Y-107751450D01*
X134095834Y-107786561D01*
X134694395Y-107188000D01*
X134680253Y-107173858D01*
X134801110Y-107053000D01*
X134946890Y-107053000D01*
X135009000Y-107115110D01*
G37*
G04 #@! TD.AperFunction*
D19*
X136337748Y-100823858D02*
X136323605Y-100838000D01*
X136337748Y-100852143D01*
X136216890Y-100973000D01*
X136071110Y-100973000D01*
X136009000Y-100910890D01*
X136009000Y-100765110D01*
X136071110Y-100703000D01*
X136216890Y-100703000D01*
X136337748Y-100823858D01*
G04 #@! TA.AperFunction,Conductor*
D20*
G36*
X136337748Y-100823858D02*
G01*
X136323605Y-100838000D01*
X136337748Y-100852143D01*
X136216890Y-100973000D01*
X136071110Y-100973000D01*
X136009000Y-100910890D01*
X136009000Y-100765110D01*
X136071110Y-100703000D01*
X136216890Y-100703000D01*
X136337748Y-100823858D01*
G37*
G04 #@! TD.AperFunction*
M02*
