G04 #@! TF.GenerationSoftware,KiCad,Pcbnew,(5.1.9)-1*
G04 #@! TF.CreationDate,2021-05-02T01:08:58+02:00*
G04 #@! TF.ProjectId,atmega32,61746d65-6761-4333-922e-6b696361645f,rev?*
G04 #@! TF.SameCoordinates,Original*
G04 #@! TF.FileFunction,Copper,L1,Top*
G04 #@! TF.FilePolarity,Positive*
%FSLAX46Y46*%
G04 Gerber Fmt 4.6, Leading zero omitted, Abs format (unit mm)*
G04 Created by KiCad (PCBNEW (5.1.9)-1) date 2021-05-02 01:08:58*
%MOMM*%
%LPD*%
G01*
G04 APERTURE LIST*
G04 #@! TA.AperFunction,ComponentPad*
%ADD10C,1.500000*%
G04 #@! TD*
G04 #@! TA.AperFunction,SMDPad,CuDef*
%ADD11R,1.020000X1.820000*%
G04 #@! TD*
G04 #@! TA.AperFunction,ComponentPad*
%ADD12R,1.050000X1.050000*%
G04 #@! TD*
G04 #@! TA.AperFunction,ComponentPad*
%ADD13C,1.050000*%
G04 #@! TD*
G04 #@! TA.AperFunction,SMDPad,CuDef*
%ADD14R,2.000000X5.500000*%
G04 #@! TD*
G04 #@! TA.AperFunction,SMDPad,CuDef*
%ADD15R,1.820000X1.020000*%
G04 #@! TD*
G04 #@! TA.AperFunction,SMDPad,CuDef*
%ADD16R,1.050000X1.800000*%
G04 #@! TD*
G04 #@! TA.AperFunction,SMDPad,CuDef*
%ADD17R,1.100000X1.550000*%
G04 #@! TD*
G04 #@! TA.AperFunction,ComponentPad*
%ADD18C,1.000000*%
G04 #@! TD*
G04 #@! TA.AperFunction,ComponentPad*
%ADD19C,0.800000*%
G04 #@! TD*
G04 #@! TA.AperFunction,ComponentPad*
%ADD20C,6.400000*%
G04 #@! TD*
G04 #@! TA.AperFunction,SMDPad,CuDef*
%ADD21R,1.700000X1.100000*%
G04 #@! TD*
G04 #@! TA.AperFunction,SMDPad,CuDef*
%ADD22R,1.100000X1.700000*%
G04 #@! TD*
G04 #@! TA.AperFunction,SMDPad,CuDef*
%ADD23R,0.850000X3.430000*%
G04 #@! TD*
G04 #@! TA.AperFunction,SMDPad,CuDef*
%ADD24R,0.960000X1.390000*%
G04 #@! TD*
G04 #@! TA.AperFunction,SMDPad,CuDef*
%ADD25R,0.450000X1.750000*%
G04 #@! TD*
G04 #@! TA.AperFunction,SMDPad,CuDef*
%ADD26R,0.550000X1.600000*%
G04 #@! TD*
G04 #@! TA.AperFunction,SMDPad,CuDef*
%ADD27R,1.600000X0.550000*%
G04 #@! TD*
G04 #@! TA.AperFunction,SMDPad,CuDef*
%ADD28R,1.200000X1.900000*%
G04 #@! TD*
G04 #@! TA.AperFunction,ComponentPad*
%ADD29O,1.200000X1.900000*%
G04 #@! TD*
G04 #@! TA.AperFunction,SMDPad,CuDef*
%ADD30R,1.500000X1.900000*%
G04 #@! TD*
G04 #@! TA.AperFunction,ComponentPad*
%ADD31C,1.450000*%
G04 #@! TD*
G04 #@! TA.AperFunction,SMDPad,CuDef*
%ADD32R,0.400000X1.350000*%
G04 #@! TD*
G04 #@! TA.AperFunction,ViaPad*
%ADD33C,0.800000*%
G04 #@! TD*
G04 #@! TA.AperFunction,Conductor*
%ADD34C,0.500000*%
G04 #@! TD*
G04 #@! TA.AperFunction,Conductor*
%ADD35C,0.300000*%
G04 #@! TD*
G04 #@! TA.AperFunction,Conductor*
%ADD36C,0.261112*%
G04 #@! TD*
G04 #@! TA.AperFunction,Conductor*
%ADD37C,1.000000*%
G04 #@! TD*
G04 #@! TA.AperFunction,Conductor*
%ADD38C,0.254000*%
G04 #@! TD*
G04 #@! TA.AperFunction,Conductor*
%ADD39C,0.100000*%
G04 #@! TD*
G04 APERTURE END LIST*
D10*
X147610000Y-102310000D03*
X147610000Y-95810000D03*
X152110000Y-102310000D03*
X152110000Y-95810000D03*
D11*
X123574000Y-121158000D03*
X120774000Y-121158000D03*
X104394000Y-118364000D03*
X107194000Y-118364000D03*
X104388000Y-116078000D03*
X107188000Y-116078000D03*
D12*
X121920000Y-127000000D03*
D13*
X123420000Y-127000000D03*
D14*
X102630000Y-125900000D03*
X102630000Y-135400000D03*
D15*
X106770000Y-123320000D03*
X106770000Y-120520000D03*
X107188000Y-133350000D03*
X107188000Y-136150000D03*
D16*
X121555000Y-135500000D03*
X118555000Y-135500000D03*
D17*
X118330000Y-132530000D03*
X121330000Y-132530000D03*
D16*
X148240000Y-108960000D03*
X145240000Y-108960000D03*
D11*
X151990000Y-111980000D03*
X149190000Y-111980000D03*
D16*
X111506000Y-112522000D03*
X114506000Y-112522000D03*
X112824000Y-109982000D03*
X115824000Y-109982000D03*
D11*
X139680000Y-134710000D03*
X142480000Y-134710000D03*
D16*
X155490000Y-132485000D03*
X158490000Y-132485000D03*
D17*
X163450000Y-132410000D03*
X160450000Y-132410000D03*
D12*
X142490000Y-127880000D03*
D13*
X143990000Y-127880000D03*
D18*
X136144000Y-107188000D03*
X134874000Y-107188000D03*
X136144000Y-105918000D03*
X134874000Y-105918000D03*
X136144000Y-104648000D03*
X134874000Y-104648000D03*
X136144000Y-103378000D03*
X134874000Y-103378000D03*
X136144000Y-102108000D03*
X134874000Y-102108000D03*
X136144000Y-100838000D03*
X134874000Y-100838000D03*
X136144000Y-99568000D03*
X134874000Y-99568000D03*
X136144000Y-98298000D03*
X134874000Y-98298000D03*
D19*
X166797056Y-145368944D03*
X165100000Y-144666000D03*
X163402944Y-145368944D03*
X162700000Y-147066000D03*
X163402944Y-148763056D03*
X165100000Y-149466000D03*
X166797056Y-148763056D03*
X167500000Y-147066000D03*
D20*
X165100000Y-147066000D03*
D19*
X166797056Y-95368944D03*
X165100000Y-94666000D03*
X163402944Y-95368944D03*
X162700000Y-97066000D03*
X163402944Y-98763056D03*
X165100000Y-99466000D03*
X166797056Y-98763056D03*
X167500000Y-97066000D03*
D20*
X165100000Y-97066000D03*
D19*
X104313056Y-145368944D03*
X102616000Y-144666000D03*
X100918944Y-145368944D03*
X100216000Y-147066000D03*
X100918944Y-148763056D03*
X102616000Y-149466000D03*
X104313056Y-148763056D03*
X105016000Y-147066000D03*
D20*
X102616000Y-147066000D03*
D19*
X104313056Y-95368944D03*
X102616000Y-94666000D03*
X100918944Y-95368944D03*
X100216000Y-97066000D03*
X100918944Y-98763056D03*
X102616000Y-99466000D03*
X104313056Y-98763056D03*
X105016000Y-97066000D03*
D20*
X102616000Y-97066000D03*
D21*
X136652000Y-138430000D03*
X136652000Y-135530000D03*
X134366000Y-138430000D03*
X134366000Y-135530000D03*
D22*
X136144000Y-146304000D03*
X139044000Y-146304000D03*
D23*
X131318000Y-145034000D03*
X126718000Y-145034000D03*
D15*
X145420000Y-113640000D03*
X145420000Y-110840000D03*
D11*
X126746000Y-141478000D03*
X129546000Y-141478000D03*
D24*
X140120000Y-138440000D03*
X138500000Y-138440000D03*
X130762000Y-138430000D03*
X132382000Y-138430000D03*
D16*
X155490000Y-129367500D03*
X158490000Y-129367500D03*
X155490000Y-126250000D03*
X158490000Y-126250000D03*
D25*
X147375000Y-124040000D03*
X146725000Y-124040000D03*
X146075000Y-124040000D03*
X145425000Y-124040000D03*
X144775000Y-124040000D03*
X144125000Y-124040000D03*
X143475000Y-124040000D03*
X142825000Y-124040000D03*
X142175000Y-124040000D03*
X141525000Y-124040000D03*
X140875000Y-124040000D03*
X140225000Y-124040000D03*
X139575000Y-124040000D03*
X138925000Y-124040000D03*
X138925000Y-116840000D03*
X139575000Y-116840000D03*
X140225000Y-116840000D03*
X140875000Y-116840000D03*
X141525000Y-116840000D03*
X142175000Y-116840000D03*
X142825000Y-116840000D03*
X143475000Y-116840000D03*
X144125000Y-116840000D03*
X144775000Y-116840000D03*
X145425000Y-116840000D03*
X146075000Y-116840000D03*
X146725000Y-116840000D03*
X147375000Y-116840000D03*
D17*
X163450000Y-129292500D03*
X160450000Y-129292500D03*
D26*
X111300000Y-116550000D03*
X112100000Y-116550000D03*
X112900000Y-116550000D03*
X113700000Y-116550000D03*
X114500000Y-116550000D03*
X115300000Y-116550000D03*
X116100000Y-116550000D03*
X116900000Y-116550000D03*
D27*
X118350000Y-118000000D03*
X118350000Y-118800000D03*
X118350000Y-119600000D03*
X118350000Y-120400000D03*
X118350000Y-121200000D03*
X118350000Y-122000000D03*
X118350000Y-122800000D03*
X118350000Y-123600000D03*
D26*
X116900000Y-125050000D03*
X116100000Y-125050000D03*
X115300000Y-125050000D03*
X114500000Y-125050000D03*
X113700000Y-125050000D03*
X112900000Y-125050000D03*
X112100000Y-125050000D03*
X111300000Y-125050000D03*
D27*
X109850000Y-123600000D03*
X109850000Y-122800000D03*
X109850000Y-122000000D03*
X109850000Y-121200000D03*
X109850000Y-120400000D03*
X109850000Y-119600000D03*
X109850000Y-118800000D03*
X109850000Y-118000000D03*
D28*
X130958000Y-151544000D03*
X136758000Y-151544000D03*
D29*
X137358000Y-151544000D03*
X130358000Y-151544000D03*
D30*
X132858000Y-151544000D03*
D31*
X136358000Y-148844000D03*
D32*
X133858000Y-148844000D03*
X134508000Y-148844000D03*
X135158000Y-148844000D03*
X132558000Y-148844000D03*
X133208000Y-148844000D03*
D31*
X131358000Y-148844000D03*
D30*
X134858000Y-151544000D03*
D17*
X163450000Y-126175000D03*
X160450000Y-126175000D03*
D33*
X107188000Y-137922000D03*
X105156000Y-120650000D03*
X104394000Y-120142000D03*
X104394000Y-114300000D03*
X141540000Y-138470000D03*
X155480000Y-134500000D03*
X130810000Y-140716000D03*
X130810000Y-142494000D03*
X129540000Y-139700000D03*
X138463950Y-133338000D03*
X137922000Y-131826000D03*
X139780000Y-121710000D03*
X132311669Y-115592331D03*
X139192000Y-114046000D03*
X133096000Y-101092000D03*
X129286000Y-97282000D03*
X125984000Y-113030000D03*
X129032000Y-109982000D03*
X120142000Y-123698000D03*
X107696000Y-110236000D03*
X117094000Y-129794000D03*
X116078000Y-127508000D03*
X117094000Y-127254000D03*
X106680000Y-110236000D03*
X115570000Y-129794000D03*
X136144000Y-146304000D03*
X135450000Y-144460000D03*
X136730000Y-144380000D03*
X143820000Y-134690000D03*
X142230000Y-121720000D03*
X143690000Y-121650000D03*
X145820000Y-121610000D03*
X143480000Y-118460000D03*
X116586000Y-120650000D03*
X111061202Y-121150000D03*
X112706932Y-119610001D03*
X124714000Y-121158000D03*
X117094000Y-135636000D03*
X143510000Y-110236000D03*
X137264669Y-101749331D03*
X134620000Y-108204000D03*
X138706331Y-108689669D03*
X132842000Y-113792000D03*
X130556000Y-115316000D03*
X113284000Y-118618000D03*
X129794000Y-110744000D03*
X139954000Y-109728000D03*
X134515331Y-115674669D03*
X115316000Y-123649998D03*
X131064000Y-123698000D03*
X132080000Y-117856000D03*
X120396000Y-119380000D03*
X140992331Y-110975669D03*
X135382000Y-116332000D03*
X115570000Y-119380000D03*
X121412000Y-114796000D03*
X120106108Y-116367892D03*
X131064000Y-105664000D03*
X112014000Y-118110000D03*
X138706331Y-104879669D03*
X134112000Y-109220000D03*
X131826000Y-109220000D03*
X120396000Y-105918000D03*
X132842000Y-107950000D03*
X126215669Y-115084331D03*
X125270000Y-142187500D03*
X125270000Y-145882500D03*
X125270000Y-147730000D03*
X126730000Y-147750000D03*
X125270000Y-144035000D03*
X125270000Y-140340000D03*
X145780000Y-118680000D03*
X111760000Y-120396000D03*
X111760000Y-121920000D03*
X116332000Y-122428000D03*
X143256000Y-108712000D03*
D34*
X139044000Y-146304000D02*
X138938000Y-146304000D01*
X138938000Y-146304000D02*
X136398000Y-148844000D01*
X136398000Y-148844000D02*
X137414000Y-149860000D01*
X137414000Y-149860000D02*
X137414000Y-151638000D01*
X137358000Y-151544000D02*
X130396000Y-151544000D01*
X130396000Y-151544000D02*
X130302000Y-151450000D01*
X130302000Y-151450000D02*
X130302000Y-149860000D01*
X130302000Y-149860000D02*
X131318000Y-148844000D01*
D35*
X158490000Y-126250000D02*
X160260000Y-126250000D01*
X158490000Y-129367500D02*
X160402500Y-129367500D01*
X154665000Y-126250000D02*
X154120000Y-126795000D01*
X155490000Y-126250000D02*
X154665000Y-126250000D01*
X154120000Y-128320000D02*
X153510010Y-128929990D01*
X154120000Y-126795000D02*
X154120000Y-128320000D01*
X153510010Y-128929990D02*
X147897110Y-128929990D01*
X147897110Y-128929990D02*
X144123560Y-125156440D01*
X144123560Y-125156440D02*
X144130000Y-125150000D01*
X144130000Y-125100000D02*
X144160000Y-125070000D01*
X144130000Y-125150000D02*
X144130000Y-125100000D01*
X144160000Y-125070000D02*
X144160000Y-124050000D01*
X143475000Y-125215000D02*
X147690000Y-129430000D01*
X143475000Y-124040000D02*
X143475000Y-125215000D01*
X147690000Y-129430000D02*
X155450000Y-129430000D01*
D36*
X133765156Y-143677164D02*
X135614156Y-141828164D01*
X135614156Y-141828164D02*
X135614156Y-140462550D01*
X133858000Y-147831499D02*
X133765156Y-147738655D01*
X133765156Y-147738655D02*
X133765156Y-143677164D01*
X133858000Y-148844000D02*
X133858000Y-147831499D01*
X135614156Y-140462550D02*
X135614156Y-139510086D01*
D35*
X136652000Y-138430000D02*
X135636000Y-139446000D01*
X138500000Y-138440000D02*
X136662000Y-138440000D01*
X136662000Y-138440000D02*
X136672000Y-138430000D01*
D36*
X135149844Y-141635836D02*
X135149844Y-140654878D01*
X133208000Y-147831499D02*
X133300844Y-147738655D01*
X133300844Y-143484836D02*
X135149844Y-141635836D01*
X133208000Y-148844000D02*
X133208000Y-147831499D01*
X133300844Y-147738655D02*
X133300844Y-143484836D01*
X135149844Y-140654878D02*
X135149844Y-139510086D01*
D35*
X134366000Y-138430000D02*
X135128000Y-139192000D01*
X135133590Y-139493832D02*
X135133590Y-139510086D01*
X135128000Y-139488242D02*
X135133590Y-139493832D01*
X135128000Y-139192000D02*
X135128000Y-139488242D01*
X134366000Y-138430000D02*
X132334000Y-138430000D01*
X132558000Y-148844000D02*
X132558000Y-146274000D01*
X132558000Y-146274000D02*
X131318000Y-145034000D01*
X134366000Y-135530000D02*
X137308000Y-132588000D01*
X138822002Y-132588000D02*
X139446000Y-131964002D01*
X137308000Y-132588000D02*
X138822002Y-132588000D01*
X139446000Y-131964002D02*
X139446000Y-131826000D01*
X139446000Y-131826000D02*
X139446000Y-130810000D01*
X139446000Y-130810000D02*
X139560000Y-130696000D01*
X139560000Y-130696000D02*
X139560000Y-125420000D01*
X139560000Y-125420000D02*
X139560000Y-124230000D01*
X136652000Y-135530000D02*
X136652000Y-134874000D01*
X136652000Y-134874000D02*
X136652000Y-134620000D01*
X136398000Y-134366000D02*
X136398000Y-134205120D01*
X136652000Y-134620000D02*
X136398000Y-134366000D01*
X137265120Y-133338000D02*
X138463950Y-133338000D01*
X136398000Y-134205120D02*
X137265120Y-133338000D01*
X137922000Y-131826000D02*
X138684000Y-131064000D01*
X138938000Y-127612000D02*
X138920000Y-127594000D01*
X138920000Y-127594000D02*
X138920000Y-124060000D01*
X138945990Y-130944010D02*
X138945990Y-130602890D01*
X138826000Y-131064000D02*
X138945990Y-130944010D01*
X138684000Y-131064000D02*
X138826000Y-131064000D01*
X138920000Y-130576900D02*
X138920000Y-127594000D01*
X138945990Y-130602890D02*
X138920000Y-130576900D01*
X139680000Y-134710000D02*
X141320000Y-136350000D01*
X141320000Y-136350000D02*
X162760000Y-136350000D01*
X162760000Y-136350000D02*
X163490000Y-135620000D01*
X163490000Y-135620000D02*
X163490000Y-129230000D01*
X163490000Y-129230000D02*
X163530000Y-129190000D01*
X163450000Y-129292500D02*
X163450000Y-126210000D01*
X140225000Y-125215000D02*
X140710000Y-125700000D01*
X140225000Y-124040000D02*
X140225000Y-125215000D01*
X140710000Y-125700000D02*
X141210000Y-125700000D01*
X141210000Y-125700000D02*
X141560000Y-126050000D01*
X141560000Y-126050000D02*
X141560000Y-132810000D01*
X141560000Y-132810000D02*
X139810000Y-134560000D01*
X140225000Y-122155000D02*
X139780000Y-121710000D01*
X140225000Y-124040000D02*
X140225000Y-122155000D01*
X158490000Y-132485000D02*
X160525000Y-132485000D01*
X112900000Y-115450000D02*
X112776000Y-115326000D01*
X112900000Y-116550000D02*
X112900000Y-115450000D01*
X112824000Y-115374000D02*
X112900000Y-115450000D01*
X112824000Y-110236000D02*
X112824000Y-115374000D01*
X115824000Y-110236000D02*
X128016000Y-110236000D01*
X137210001Y-119430001D02*
X146507999Y-119430001D01*
X128016000Y-110236000D02*
X137210001Y-119430001D01*
X146507999Y-119430001D02*
X147320000Y-118618000D01*
X147320000Y-117094000D02*
X147300001Y-117074001D01*
X147320000Y-118618000D02*
X147320000Y-117094000D01*
X112100000Y-116550000D02*
X112100000Y-113116000D01*
X112100000Y-113116000D02*
X111506000Y-112522000D01*
X144775000Y-116840000D02*
X144775000Y-115759998D01*
X129241338Y-112522000D02*
X132311669Y-115592331D01*
X143061002Y-114046000D02*
X143666501Y-114651499D01*
X139192000Y-114046000D02*
X143061002Y-114046000D01*
X144775000Y-115759998D02*
X143666501Y-114651499D01*
X129241338Y-112522000D02*
X129241338Y-112477338D01*
X129241338Y-112477338D02*
X127508000Y-110744000D01*
X127508000Y-110744000D02*
X117094000Y-110744000D01*
X117094000Y-110744000D02*
X115062000Y-112776000D01*
X115062000Y-112776000D02*
X114808000Y-112776000D01*
X151990000Y-111980000D02*
X151990000Y-109010000D01*
X148240000Y-108960000D02*
X152050000Y-108960000D01*
X151990000Y-102540000D02*
X151990000Y-109180000D01*
X115878000Y-113272000D02*
X120996230Y-113272000D01*
X113700000Y-115450000D02*
X115878000Y-113272000D01*
X113700000Y-116550000D02*
X113700000Y-115450000D01*
X129032000Y-105156000D02*
X129032000Y-109982000D01*
X133096000Y-101092000D02*
X129032000Y-105156000D01*
X148240000Y-108960000D02*
X148240000Y-104552000D01*
X148240000Y-104552000D02*
X138430000Y-94742000D01*
X138430000Y-94742000D02*
X131318000Y-94742000D01*
X129286000Y-96774000D02*
X129286000Y-97282000D01*
X131318000Y-94742000D02*
X129286000Y-96774000D01*
X120996230Y-113272000D02*
X125718000Y-113272000D01*
X125742000Y-113272000D02*
X125984000Y-113030000D01*
X125718000Y-113272000D02*
X125742000Y-113272000D01*
X149190000Y-111980000D02*
X148980000Y-111980000D01*
X146510000Y-115544998D02*
X146690000Y-115724998D01*
X146510000Y-114600002D02*
X146510000Y-115544998D01*
X148980000Y-112130002D02*
X146510000Y-114600002D01*
X148980000Y-111980000D02*
X148980000Y-112130002D01*
X146690000Y-115724998D02*
X146690000Y-116730000D01*
X118350000Y-123600000D02*
X118350000Y-132574000D01*
X118350000Y-123600000D02*
X119450000Y-123600000D01*
X120044000Y-123600000D02*
X120142000Y-123698000D01*
X119450000Y-123600000D02*
X120044000Y-123600000D01*
X118364000Y-99568000D02*
X107696000Y-110236000D01*
X134874000Y-99568000D02*
X118364000Y-99568000D01*
X117094000Y-129794000D02*
X117094000Y-131572000D01*
X117094000Y-131572000D02*
X117856000Y-132334000D01*
X117856000Y-132334000D02*
X118364000Y-132334000D01*
X121330000Y-132530000D02*
X121330000Y-135046000D01*
X116100000Y-127486000D02*
X116078000Y-127508000D01*
X116100000Y-125050000D02*
X116100000Y-127486000D01*
X109850000Y-123600000D02*
X108228000Y-125222000D01*
X107429998Y-125222000D02*
X104902000Y-127749998D01*
X108228000Y-125222000D02*
X107429998Y-125222000D01*
X106426000Y-133350000D02*
X104902000Y-131826000D01*
X107188000Y-133350000D02*
X106426000Y-133350000D01*
X104902000Y-131826000D02*
X104902000Y-132842000D01*
X104902000Y-127749998D02*
X104902000Y-131826000D01*
X104902000Y-133096000D02*
X104902000Y-133350000D01*
X104902000Y-132842000D02*
X104902000Y-133096000D01*
X104902000Y-133350000D02*
X102870000Y-135382000D01*
X109850000Y-122800000D02*
X107324000Y-122800000D01*
X107324000Y-122800000D02*
X106680000Y-123444000D01*
X106680000Y-123444000D02*
X105664000Y-123444000D01*
X105664000Y-123444000D02*
X102870000Y-126238000D01*
X116900000Y-127060000D02*
X117094000Y-127254000D01*
X116900000Y-125050000D02*
X116900000Y-127060000D01*
X134874000Y-98298000D02*
X117602000Y-98298000D01*
X106680000Y-109220000D02*
X106680000Y-110236000D01*
X117602000Y-98298000D02*
X106680000Y-109220000D01*
X117094000Y-128270000D02*
X117094000Y-127254000D01*
X115570000Y-129794000D02*
X117094000Y-128270000D01*
X129540000Y-139700000D02*
X129540000Y-141478000D01*
D37*
X130810000Y-142494000D02*
X130810000Y-140716000D01*
X130556000Y-140716000D02*
X129540000Y-139700000D01*
X130810000Y-140716000D02*
X130556000Y-140716000D01*
X129540000Y-139700000D02*
X129540000Y-141732000D01*
X130810000Y-140716000D02*
X129794000Y-141732000D01*
X129794000Y-141732000D02*
X129540000Y-141732000D01*
X130048000Y-141732000D02*
X130810000Y-142494000D01*
X129540000Y-141732000D02*
X130048000Y-141732000D01*
D35*
X135294000Y-146304000D02*
X135128000Y-146470000D01*
X136144000Y-146304000D02*
X136144000Y-146304000D01*
X135128000Y-146470000D02*
X135128000Y-149098000D01*
X155480000Y-134500000D02*
X155480000Y-132410000D01*
X136144000Y-146304000D02*
X135294000Y-146304000D01*
X143800000Y-134710000D02*
X143820000Y-134690000D01*
X142480000Y-134710000D02*
X143800000Y-134710000D01*
X141540000Y-138470000D02*
X140380000Y-138470000D01*
X140380000Y-138470000D02*
X140340000Y-138510000D01*
X140340000Y-138510000D02*
X140290000Y-138460000D01*
X130762000Y-138478000D02*
X129540000Y-139700000D01*
X130762000Y-138430000D02*
X130762000Y-138478000D01*
X142825000Y-126534998D02*
X143980000Y-127689998D01*
X142825000Y-124040000D02*
X142825000Y-126534998D01*
X145425000Y-124040000D02*
X146100000Y-124040000D01*
X146100000Y-124040000D02*
X146120000Y-124020000D01*
X146120000Y-124020000D02*
X146120000Y-122440000D01*
X146120000Y-122440000D02*
X146120000Y-122330000D01*
X146120000Y-122330000D02*
X146000000Y-122210000D01*
X141650000Y-122210000D02*
X140900000Y-122960000D01*
X140900000Y-122960000D02*
X140900000Y-124000000D01*
X142825000Y-122945000D02*
X143560000Y-122210000D01*
X142825000Y-124040000D02*
X142825000Y-122945000D01*
X143560000Y-122210000D02*
X141650000Y-122210000D01*
X146000000Y-122210000D02*
X143560000Y-122210000D01*
X143980000Y-127689998D02*
X143980000Y-127689998D01*
X143690000Y-122080000D02*
X143560000Y-122210000D01*
X143690000Y-121650000D02*
X143690000Y-122080000D01*
X145820000Y-122030000D02*
X146000000Y-122210000D01*
X145820000Y-121610000D02*
X145820000Y-122030000D01*
X141740000Y-122210000D02*
X141650000Y-122210000D01*
X142230000Y-121720000D02*
X141740000Y-122210000D01*
X143480000Y-118460000D02*
X143480000Y-116950000D01*
X116836000Y-120400000D02*
X116586000Y-120650000D01*
X118350000Y-120400000D02*
X116836000Y-120400000D01*
X104388000Y-114306000D02*
X104394000Y-114300000D01*
X104388000Y-116078000D02*
X104388000Y-114306000D01*
X104388000Y-116078000D02*
X104388000Y-118612000D01*
X104388000Y-118612000D02*
X104394000Y-118618000D01*
X104394000Y-118618000D02*
X104394000Y-120142000D01*
X105156000Y-120650000D02*
X106680000Y-120650000D01*
X104394000Y-118618000D02*
X104394000Y-118618000D01*
X111011202Y-121200000D02*
X111061202Y-121150000D01*
X109850000Y-121200000D02*
X111011202Y-121200000D01*
X107188000Y-137922000D02*
X107188000Y-136144000D01*
X112696931Y-119600000D02*
X112706932Y-119610001D01*
X109850000Y-119600000D02*
X112696931Y-119600000D01*
X123574000Y-121158000D02*
X124714000Y-121158000D01*
X117230000Y-135500000D02*
X117094000Y-135636000D01*
X118555000Y-135500000D02*
X117230000Y-135500000D01*
X144114000Y-110840000D02*
X143510000Y-110236000D01*
X145420000Y-110840000D02*
X144114000Y-110840000D01*
X136353338Y-100838000D02*
X137264669Y-101749331D01*
X136144000Y-100838000D02*
X136353338Y-100838000D01*
X118350000Y-121200000D02*
X120862000Y-121200000D01*
X115904000Y-114046000D02*
X120142000Y-114046000D01*
X114500000Y-115450000D02*
X115904000Y-114046000D01*
X114500000Y-116550000D02*
X114500000Y-115450000D01*
X138706331Y-108689669D02*
X135912331Y-108689669D01*
X135912331Y-108689669D02*
X135382000Y-109220000D01*
X135382000Y-111252000D02*
X132842000Y-113792000D01*
X135382000Y-109220000D02*
X135382000Y-111252000D01*
X120142000Y-114046000D02*
X125730000Y-114046000D01*
X125730000Y-114046000D02*
X126238000Y-114046000D01*
X126238000Y-114046000D02*
X127508000Y-115316000D01*
X127508000Y-115316000D02*
X130556000Y-115316000D01*
X113041999Y-118860001D02*
X113284000Y-118618000D01*
X109910001Y-118860001D02*
X113041999Y-118860001D01*
X109850000Y-118800000D02*
X109910001Y-118860001D01*
X134874000Y-104648000D02*
X131064000Y-108458000D01*
X131064000Y-109474000D02*
X129794000Y-110744000D01*
X131064000Y-108458000D02*
X131064000Y-109474000D01*
X112400002Y-123649998D02*
X113792000Y-123649998D01*
X112100000Y-123950000D02*
X112400002Y-123649998D01*
X112100000Y-125050000D02*
X112100000Y-123950000D01*
X139954000Y-109728000D02*
X139954000Y-110490000D01*
X134769331Y-115674669D02*
X134515331Y-115674669D01*
X139954000Y-110490000D02*
X134769331Y-115674669D01*
X113792000Y-123649998D02*
X115316000Y-123649998D01*
X132080000Y-122682000D02*
X132080000Y-117856000D01*
X131064000Y-123698000D02*
X132080000Y-122682000D01*
X120176000Y-119600000D02*
X120396000Y-119380000D01*
X118350000Y-119600000D02*
X120176000Y-119600000D01*
X135636000Y-116332000D02*
X135382000Y-116332000D01*
X140992331Y-110975669D02*
X135636000Y-116332000D01*
X115570000Y-120744002D02*
X115570000Y-119380000D01*
X116225999Y-121400001D02*
X115570000Y-120744002D01*
X116650001Y-121400001D02*
X116225999Y-121400001D01*
X117250000Y-122000000D02*
X116650001Y-121400001D01*
X118350000Y-122000000D02*
X117250000Y-122000000D01*
X121412000Y-115062000D02*
X120106108Y-116367892D01*
X121412000Y-114796000D02*
X121412000Y-115062000D01*
X133350000Y-103378000D02*
X134112000Y-103378000D01*
X131064000Y-105664000D02*
X133350000Y-103378000D01*
X134874000Y-103378000D02*
X134112000Y-103378000D01*
X111904000Y-118000000D02*
X112014000Y-118110000D01*
X109850000Y-118000000D02*
X111904000Y-118000000D01*
X138706331Y-107419669D02*
X137936341Y-108189659D01*
X138706331Y-104879669D02*
X138706331Y-107419669D01*
X135705221Y-108189659D02*
X134620000Y-109274880D01*
X137936341Y-108189659D02*
X135705221Y-108189659D01*
X134166880Y-109274880D02*
X134112000Y-109220000D01*
X134620000Y-109274880D02*
X134166880Y-109274880D01*
X131826000Y-109220000D02*
X134112000Y-109220000D01*
X111300000Y-116550000D02*
X111300000Y-115364000D01*
X111300000Y-115364000D02*
X109982000Y-114046000D01*
X109982000Y-110768998D02*
X113054998Y-107696000D01*
X109982000Y-114046000D02*
X109982000Y-110768998D01*
X118618000Y-107696000D02*
X118364000Y-107696000D01*
X120396000Y-105918000D02*
X118618000Y-107696000D01*
X113054998Y-107696000D02*
X118364000Y-107696000D01*
X132842000Y-107950000D02*
X134874000Y-105918000D01*
X126215669Y-115084331D02*
X126193338Y-115062000D01*
X120396000Y-117856000D02*
X123444000Y-117856000D01*
X123444000Y-117856000D02*
X124460000Y-116840000D01*
X117602000Y-115062000D02*
X120396000Y-117856000D01*
X115300000Y-115644998D02*
X115882998Y-115062000D01*
X124460000Y-116840000D02*
X126215669Y-115084331D01*
X115882998Y-115062000D02*
X117602000Y-115062000D01*
X115300000Y-116550000D02*
X115300000Y-115644998D01*
X126718000Y-145034000D02*
X126718000Y-145034000D01*
X126718000Y-141532000D02*
X126718000Y-141506000D01*
X126718000Y-145034000D02*
X126718000Y-141532000D01*
X142175000Y-124040000D02*
X142175000Y-127435000D01*
X142175000Y-127435000D02*
X142520000Y-127780000D01*
X145425000Y-116840000D02*
X145425000Y-113795000D01*
X145425000Y-113795000D02*
X145425000Y-113795000D01*
X145425000Y-118325000D02*
X145780000Y-118680000D01*
X145425000Y-116840000D02*
X145425000Y-118325000D01*
X108944998Y-120400000D02*
X108458000Y-119913002D01*
X109850000Y-120400000D02*
X108944998Y-120400000D01*
X108458000Y-119913002D02*
X108458000Y-117094000D01*
X108458000Y-117094000D02*
X107442000Y-116078000D01*
X108030001Y-121085003D02*
X108030001Y-118952001D01*
X108944998Y-122000000D02*
X108030001Y-121085003D01*
X109850000Y-122000000D02*
X108944998Y-122000000D01*
X108030001Y-118952001D02*
X107442000Y-118364000D01*
X111756000Y-120400000D02*
X111760000Y-120396000D01*
X109850000Y-120400000D02*
X111756000Y-120400000D01*
X111680000Y-122000000D02*
X111760000Y-121920000D01*
X109850000Y-122000000D02*
X111680000Y-122000000D01*
X116704000Y-122800000D02*
X116332000Y-122428000D01*
X118350000Y-122800000D02*
X116704000Y-122800000D01*
X143504000Y-108960000D02*
X143256000Y-108712000D01*
X145240000Y-108960000D02*
X143504000Y-108960000D01*
D38*
X128143000Y-148463000D02*
X124841000Y-148463000D01*
X124841000Y-146749000D01*
X125654928Y-146749000D01*
X125667188Y-146873482D01*
X125703498Y-146993180D01*
X125762463Y-147103494D01*
X125841815Y-147200185D01*
X125938506Y-147279537D01*
X126048820Y-147338502D01*
X126168518Y-147374812D01*
X126293000Y-147387072D01*
X126432250Y-147384000D01*
X126591000Y-147225250D01*
X126591000Y-145161000D01*
X126845000Y-145161000D01*
X126845000Y-147225250D01*
X127003750Y-147384000D01*
X127143000Y-147387072D01*
X127267482Y-147374812D01*
X127387180Y-147338502D01*
X127497494Y-147279537D01*
X127594185Y-147200185D01*
X127673537Y-147103494D01*
X127732502Y-146993180D01*
X127768812Y-146873482D01*
X127781072Y-146749000D01*
X127778000Y-145319750D01*
X127619250Y-145161000D01*
X126845000Y-145161000D01*
X126591000Y-145161000D01*
X125816750Y-145161000D01*
X125658000Y-145319750D01*
X125654928Y-146749000D01*
X124841000Y-146749000D01*
X124841000Y-142388000D01*
X125597928Y-142388000D01*
X125610188Y-142512482D01*
X125646498Y-142632180D01*
X125705463Y-142742494D01*
X125784815Y-142839185D01*
X125832915Y-142878660D01*
X125762463Y-142964506D01*
X125703498Y-143074820D01*
X125667188Y-143194518D01*
X125654928Y-143319000D01*
X125658000Y-144748250D01*
X125816750Y-144907000D01*
X126591000Y-144907000D01*
X126591000Y-142892250D01*
X126619000Y-142864250D01*
X126619000Y-142842750D01*
X126845000Y-142842750D01*
X126845000Y-144907000D01*
X127619250Y-144907000D01*
X127778000Y-144748250D01*
X127781072Y-143319000D01*
X127768812Y-143194518D01*
X127732502Y-143074820D01*
X127673537Y-142964506D01*
X127625622Y-142906122D01*
X127707185Y-142839185D01*
X127786537Y-142742494D01*
X127845502Y-142632180D01*
X127881812Y-142512482D01*
X127894072Y-142388000D01*
X127891000Y-141763750D01*
X127732250Y-141605000D01*
X126873000Y-141605000D01*
X126873000Y-142814750D01*
X126845000Y-142842750D01*
X126619000Y-142842750D01*
X126619000Y-141605000D01*
X125759750Y-141605000D01*
X125601000Y-141763750D01*
X125597928Y-142388000D01*
X124841000Y-142388000D01*
X124841000Y-140568000D01*
X125597928Y-140568000D01*
X125601000Y-141192250D01*
X125759750Y-141351000D01*
X126619000Y-141351000D01*
X126619000Y-140091750D01*
X126873000Y-140091750D01*
X126873000Y-141351000D01*
X127732250Y-141351000D01*
X127891000Y-141192250D01*
X127894072Y-140568000D01*
X127881812Y-140443518D01*
X127845502Y-140323820D01*
X127786537Y-140213506D01*
X127707185Y-140116815D01*
X127610494Y-140037463D01*
X127500180Y-139978498D01*
X127380482Y-139942188D01*
X127256000Y-139929928D01*
X127031750Y-139933000D01*
X126873000Y-140091750D01*
X126619000Y-140091750D01*
X126460250Y-139933000D01*
X126236000Y-139929928D01*
X126111518Y-139942188D01*
X125991820Y-139978498D01*
X125881506Y-140037463D01*
X125784815Y-140116815D01*
X125705463Y-140213506D01*
X125646498Y-140323820D01*
X125610188Y-140443518D01*
X125597928Y-140568000D01*
X124841000Y-140568000D01*
X124841000Y-139827000D01*
X128143000Y-139827000D01*
X128143000Y-148463000D01*
G04 #@! TA.AperFunction,Conductor*
D39*
G36*
X128143000Y-148463000D02*
G01*
X124841000Y-148463000D01*
X124841000Y-146749000D01*
X125654928Y-146749000D01*
X125667188Y-146873482D01*
X125703498Y-146993180D01*
X125762463Y-147103494D01*
X125841815Y-147200185D01*
X125938506Y-147279537D01*
X126048820Y-147338502D01*
X126168518Y-147374812D01*
X126293000Y-147387072D01*
X126432250Y-147384000D01*
X126591000Y-147225250D01*
X126591000Y-145161000D01*
X126845000Y-145161000D01*
X126845000Y-147225250D01*
X127003750Y-147384000D01*
X127143000Y-147387072D01*
X127267482Y-147374812D01*
X127387180Y-147338502D01*
X127497494Y-147279537D01*
X127594185Y-147200185D01*
X127673537Y-147103494D01*
X127732502Y-146993180D01*
X127768812Y-146873482D01*
X127781072Y-146749000D01*
X127778000Y-145319750D01*
X127619250Y-145161000D01*
X126845000Y-145161000D01*
X126591000Y-145161000D01*
X125816750Y-145161000D01*
X125658000Y-145319750D01*
X125654928Y-146749000D01*
X124841000Y-146749000D01*
X124841000Y-142388000D01*
X125597928Y-142388000D01*
X125610188Y-142512482D01*
X125646498Y-142632180D01*
X125705463Y-142742494D01*
X125784815Y-142839185D01*
X125832915Y-142878660D01*
X125762463Y-142964506D01*
X125703498Y-143074820D01*
X125667188Y-143194518D01*
X125654928Y-143319000D01*
X125658000Y-144748250D01*
X125816750Y-144907000D01*
X126591000Y-144907000D01*
X126591000Y-142892250D01*
X126619000Y-142864250D01*
X126619000Y-142842750D01*
X126845000Y-142842750D01*
X126845000Y-144907000D01*
X127619250Y-144907000D01*
X127778000Y-144748250D01*
X127781072Y-143319000D01*
X127768812Y-143194518D01*
X127732502Y-143074820D01*
X127673537Y-142964506D01*
X127625622Y-142906122D01*
X127707185Y-142839185D01*
X127786537Y-142742494D01*
X127845502Y-142632180D01*
X127881812Y-142512482D01*
X127894072Y-142388000D01*
X127891000Y-141763750D01*
X127732250Y-141605000D01*
X126873000Y-141605000D01*
X126873000Y-142814750D01*
X126845000Y-142842750D01*
X126619000Y-142842750D01*
X126619000Y-141605000D01*
X125759750Y-141605000D01*
X125601000Y-141763750D01*
X125597928Y-142388000D01*
X124841000Y-142388000D01*
X124841000Y-140568000D01*
X125597928Y-140568000D01*
X125601000Y-141192250D01*
X125759750Y-141351000D01*
X126619000Y-141351000D01*
X126619000Y-140091750D01*
X126873000Y-140091750D01*
X126873000Y-141351000D01*
X127732250Y-141351000D01*
X127891000Y-141192250D01*
X127894072Y-140568000D01*
X127881812Y-140443518D01*
X127845502Y-140323820D01*
X127786537Y-140213506D01*
X127707185Y-140116815D01*
X127610494Y-140037463D01*
X127500180Y-139978498D01*
X127380482Y-139942188D01*
X127256000Y-139929928D01*
X127031750Y-139933000D01*
X126873000Y-140091750D01*
X126619000Y-140091750D01*
X126460250Y-139933000D01*
X126236000Y-139929928D01*
X126111518Y-139942188D01*
X125991820Y-139978498D01*
X125881506Y-140037463D01*
X125784815Y-140116815D01*
X125705463Y-140213506D01*
X125646498Y-140323820D01*
X125610188Y-140443518D01*
X125597928Y-140568000D01*
X124841000Y-140568000D01*
X124841000Y-139827000D01*
X128143000Y-139827000D01*
X128143000Y-148463000D01*
G37*
G04 #@! TD.AperFunction*
D38*
X137263372Y-143696510D02*
X137267736Y-145180325D01*
X137224537Y-145099506D01*
X137145185Y-145002815D01*
X137048494Y-144923463D01*
X136938180Y-144864498D01*
X136818482Y-144828188D01*
X136694000Y-144815928D01*
X136429750Y-144819000D01*
X136271000Y-144977750D01*
X136271000Y-146177000D01*
X136291000Y-146177000D01*
X136291000Y-146431000D01*
X136271000Y-146431000D01*
X136271000Y-146451000D01*
X136017000Y-146451000D01*
X136017000Y-146431000D01*
X135117750Y-146431000D01*
X134959000Y-146589750D01*
X134957673Y-146833533D01*
X134937000Y-146833453D01*
X134937000Y-145454000D01*
X134955928Y-145454000D01*
X134959000Y-146018250D01*
X135117750Y-146177000D01*
X136017000Y-146177000D01*
X136017000Y-144977750D01*
X135858250Y-144819000D01*
X135594000Y-144815928D01*
X135469518Y-144828188D01*
X135349820Y-144864498D01*
X135239506Y-144923463D01*
X135142815Y-145002815D01*
X135063463Y-145099506D01*
X135004498Y-145209820D01*
X134968188Y-145329518D01*
X134955928Y-145454000D01*
X134937000Y-145454000D01*
X134937000Y-143687493D01*
X137263372Y-143696510D01*
G04 #@! TA.AperFunction,Conductor*
D39*
G36*
X137263372Y-143696510D02*
G01*
X137267736Y-145180325D01*
X137224537Y-145099506D01*
X137145185Y-145002815D01*
X137048494Y-144923463D01*
X136938180Y-144864498D01*
X136818482Y-144828188D01*
X136694000Y-144815928D01*
X136429750Y-144819000D01*
X136271000Y-144977750D01*
X136271000Y-146177000D01*
X136291000Y-146177000D01*
X136291000Y-146431000D01*
X136271000Y-146431000D01*
X136271000Y-146451000D01*
X136017000Y-146451000D01*
X136017000Y-146431000D01*
X135117750Y-146431000D01*
X134959000Y-146589750D01*
X134957673Y-146833533D01*
X134937000Y-146833453D01*
X134937000Y-145454000D01*
X134955928Y-145454000D01*
X134959000Y-146018250D01*
X135117750Y-146177000D01*
X136017000Y-146177000D01*
X136017000Y-144977750D01*
X135858250Y-144819000D01*
X135594000Y-144815928D01*
X135469518Y-144828188D01*
X135349820Y-144864498D01*
X135239506Y-144923463D01*
X135142815Y-145002815D01*
X135063463Y-145099506D01*
X135004498Y-145209820D01*
X134968188Y-145329518D01*
X134955928Y-145454000D01*
X134937000Y-145454000D01*
X134937000Y-143687493D01*
X137263372Y-143696510D01*
G37*
G04 #@! TD.AperFunction*
M02*
