G04 #@! TF.GenerationSoftware,KiCad,Pcbnew,(5.1.9)-1*
G04 #@! TF.CreationDate,2021-05-02T01:08:58+02:00*
G04 #@! TF.ProjectId,atmega32,61746d65-6761-4333-922e-6b696361645f,rev?*
G04 #@! TF.SameCoordinates,Original*
G04 #@! TF.FileFunction,Legend,Top*
G04 #@! TF.FilePolarity,Positive*
%FSLAX46Y46*%
G04 Gerber Fmt 4.6, Leading zero omitted, Abs format (unit mm)*
G04 Created by KiCad (PCBNEW (5.1.9)-1) date 2021-05-02 01:08:58*
%MOMM*%
%LPD*%
G01*
G04 APERTURE LIST*
%ADD10C,0.250000*%
%ADD11C,0.010000*%
%ADD12C,0.254000*%
%ADD13C,0.200000*%
%ADD14C,0.100000*%
%ADD15C,0.150000*%
%ADD16C,0.120000*%
%ADD17C,1.500000*%
%ADD18R,1.020000X1.820000*%
%ADD19R,1.050000X1.050000*%
%ADD20C,1.050000*%
%ADD21R,2.000000X5.500000*%
%ADD22R,1.820000X1.020000*%
%ADD23R,1.050000X1.800000*%
%ADD24R,1.100000X1.550000*%
%ADD25C,1.000000*%
%ADD26C,0.800000*%
%ADD27C,6.400000*%
%ADD28R,1.700000X1.100000*%
%ADD29R,1.100000X1.700000*%
%ADD30R,0.850000X3.430000*%
%ADD31R,0.960000X1.390000*%
%ADD32R,0.450000X1.750000*%
%ADD33R,0.550000X1.600000*%
%ADD34R,1.600000X0.550000*%
%ADD35R,1.200000X1.900000*%
%ADD36O,1.200000X1.900000*%
%ADD37R,1.500000X1.900000*%
%ADD38C,1.450000*%
%ADD39R,0.400000X1.350000*%
G04 APERTURE END LIST*
D10*
X140560976Y-149405666D02*
X141037166Y-149405666D01*
X140465738Y-149691380D02*
X140799071Y-148691380D01*
X141132404Y-149691380D01*
X141322880Y-149024714D02*
X141703833Y-149024714D01*
X141465738Y-148691380D02*
X141465738Y-149548523D01*
X141513357Y-149643761D01*
X141608595Y-149691380D01*
X141703833Y-149691380D01*
X142037166Y-149691380D02*
X142037166Y-149024714D01*
X142037166Y-149119952D02*
X142084785Y-149072333D01*
X142180023Y-149024714D01*
X142322880Y-149024714D01*
X142418119Y-149072333D01*
X142465738Y-149167571D01*
X142465738Y-149691380D01*
X142465738Y-149167571D02*
X142513357Y-149072333D01*
X142608595Y-149024714D01*
X142751452Y-149024714D01*
X142846690Y-149072333D01*
X142894309Y-149167571D01*
X142894309Y-149691380D01*
X143751452Y-149643761D02*
X143656214Y-149691380D01*
X143465738Y-149691380D01*
X143370500Y-149643761D01*
X143322880Y-149548523D01*
X143322880Y-149167571D01*
X143370500Y-149072333D01*
X143465738Y-149024714D01*
X143656214Y-149024714D01*
X143751452Y-149072333D01*
X143799071Y-149167571D01*
X143799071Y-149262809D01*
X143322880Y-149358047D01*
X144656214Y-149024714D02*
X144656214Y-149834238D01*
X144608595Y-149929476D01*
X144560976Y-149977095D01*
X144465738Y-150024714D01*
X144322880Y-150024714D01*
X144227642Y-149977095D01*
X144656214Y-149643761D02*
X144560976Y-149691380D01*
X144370500Y-149691380D01*
X144275261Y-149643761D01*
X144227642Y-149596142D01*
X144180023Y-149500904D01*
X144180023Y-149215190D01*
X144227642Y-149119952D01*
X144275261Y-149072333D01*
X144370500Y-149024714D01*
X144560976Y-149024714D01*
X144656214Y-149072333D01*
X145560976Y-149691380D02*
X145560976Y-149167571D01*
X145513357Y-149072333D01*
X145418119Y-149024714D01*
X145227642Y-149024714D01*
X145132404Y-149072333D01*
X145560976Y-149643761D02*
X145465738Y-149691380D01*
X145227642Y-149691380D01*
X145132404Y-149643761D01*
X145084785Y-149548523D01*
X145084785Y-149453285D01*
X145132404Y-149358047D01*
X145227642Y-149310428D01*
X145465738Y-149310428D01*
X145560976Y-149262809D01*
X145941928Y-148691380D02*
X146560976Y-148691380D01*
X146227642Y-149072333D01*
X146370500Y-149072333D01*
X146465738Y-149119952D01*
X146513357Y-149167571D01*
X146560976Y-149262809D01*
X146560976Y-149500904D01*
X146513357Y-149596142D01*
X146465738Y-149643761D01*
X146370500Y-149691380D01*
X146084785Y-149691380D01*
X145989547Y-149643761D01*
X145941928Y-149596142D01*
X146941928Y-148786619D02*
X146989547Y-148739000D01*
X147084785Y-148691380D01*
X147322880Y-148691380D01*
X147418119Y-148739000D01*
X147465738Y-148786619D01*
X147513357Y-148881857D01*
X147513357Y-148977095D01*
X147465738Y-149119952D01*
X146894309Y-149691380D01*
X147513357Y-149691380D01*
X148703833Y-149167571D02*
X149037166Y-149167571D01*
X149180023Y-149691380D02*
X148703833Y-149691380D01*
X148703833Y-148691380D01*
X149180023Y-148691380D01*
X149513357Y-149024714D02*
X149751452Y-149691380D01*
X149989547Y-149024714D01*
X150799071Y-149691380D02*
X150799071Y-149167571D01*
X150751452Y-149072333D01*
X150656214Y-149024714D01*
X150465738Y-149024714D01*
X150370500Y-149072333D01*
X150799071Y-149643761D02*
X150703833Y-149691380D01*
X150465738Y-149691380D01*
X150370500Y-149643761D01*
X150322880Y-149548523D01*
X150322880Y-149453285D01*
X150370500Y-149358047D01*
X150465738Y-149310428D01*
X150703833Y-149310428D01*
X150799071Y-149262809D01*
X151418119Y-149691380D02*
X151322880Y-149643761D01*
X151275261Y-149548523D01*
X151275261Y-148691380D01*
X151799071Y-149691380D02*
X151799071Y-148691380D01*
X151799071Y-149072333D02*
X151894309Y-149024714D01*
X152084785Y-149024714D01*
X152180023Y-149072333D01*
X152227642Y-149119952D01*
X152275261Y-149215190D01*
X152275261Y-149500904D01*
X152227642Y-149596142D01*
X152180023Y-149643761D01*
X152084785Y-149691380D01*
X151894309Y-149691380D01*
X151799071Y-149643761D01*
X152846690Y-149691380D02*
X152751452Y-149643761D01*
X152703833Y-149596142D01*
X152656214Y-149500904D01*
X152656214Y-149215190D01*
X152703833Y-149119952D01*
X152751452Y-149072333D01*
X152846690Y-149024714D01*
X152989547Y-149024714D01*
X153084785Y-149072333D01*
X153132404Y-149119952D01*
X153180023Y-149215190D01*
X153180023Y-149500904D01*
X153132404Y-149596142D01*
X153084785Y-149643761D01*
X152989547Y-149691380D01*
X152846690Y-149691380D01*
X154037166Y-149691380D02*
X154037166Y-149167571D01*
X153989547Y-149072333D01*
X153894309Y-149024714D01*
X153703833Y-149024714D01*
X153608595Y-149072333D01*
X154037166Y-149643761D02*
X153941928Y-149691380D01*
X153703833Y-149691380D01*
X153608595Y-149643761D01*
X153560976Y-149548523D01*
X153560976Y-149453285D01*
X153608595Y-149358047D01*
X153703833Y-149310428D01*
X153941928Y-149310428D01*
X154037166Y-149262809D01*
X154513357Y-149691380D02*
X154513357Y-149024714D01*
X154513357Y-149215190D02*
X154560976Y-149119952D01*
X154608595Y-149072333D01*
X154703833Y-149024714D01*
X154799071Y-149024714D01*
X155560976Y-149691380D02*
X155560976Y-148691380D01*
X155560976Y-149643761D02*
X155465738Y-149691380D01*
X155275261Y-149691380D01*
X155180023Y-149643761D01*
X155132404Y-149596142D01*
X155084785Y-149500904D01*
X155084785Y-149215190D01*
X155132404Y-149119952D01*
X155180023Y-149072333D01*
X155275261Y-149024714D01*
X155465738Y-149024714D01*
X155560976Y-149072333D01*
X156799071Y-149691380D02*
X156799071Y-148691380D01*
X156799071Y-149072333D02*
X156894309Y-149024714D01*
X157084785Y-149024714D01*
X157180023Y-149072333D01*
X157227642Y-149119952D01*
X157275261Y-149215190D01*
X157275261Y-149500904D01*
X157227642Y-149596142D01*
X157180023Y-149643761D01*
X157084785Y-149691380D01*
X156894309Y-149691380D01*
X156799071Y-149643761D01*
X157608595Y-149024714D02*
X157846690Y-149691380D01*
X158084785Y-149024714D02*
X157846690Y-149691380D01*
X157751452Y-149929476D01*
X157703833Y-149977095D01*
X157608595Y-150024714D01*
X140608595Y-151441380D02*
X140608595Y-150441380D01*
X140941928Y-151155666D01*
X141275261Y-150441380D01*
X141275261Y-151441380D01*
X142180023Y-151441380D02*
X142180023Y-150917571D01*
X142132404Y-150822333D01*
X142037166Y-150774714D01*
X141846690Y-150774714D01*
X141751452Y-150822333D01*
X142180023Y-151393761D02*
X142084785Y-151441380D01*
X141846690Y-151441380D01*
X141751452Y-151393761D01*
X141703833Y-151298523D01*
X141703833Y-151203285D01*
X141751452Y-151108047D01*
X141846690Y-151060428D01*
X142084785Y-151060428D01*
X142180023Y-151012809D01*
X142560976Y-151441380D02*
X143084785Y-150774714D01*
X142560976Y-150774714D02*
X143084785Y-151441380D01*
X143465738Y-151441380D02*
X143465738Y-150774714D01*
X143465738Y-150441380D02*
X143418119Y-150489000D01*
X143465738Y-150536619D01*
X143513357Y-150489000D01*
X143465738Y-150441380D01*
X143465738Y-150536619D01*
X143941928Y-151441380D02*
X143941928Y-150774714D01*
X143941928Y-150869952D02*
X143989547Y-150822333D01*
X144084785Y-150774714D01*
X144227642Y-150774714D01*
X144322880Y-150822333D01*
X144370500Y-150917571D01*
X144370500Y-151441380D01*
X144370500Y-150917571D02*
X144418119Y-150822333D01*
X144513357Y-150774714D01*
X144656214Y-150774714D01*
X144751452Y-150822333D01*
X144799071Y-150917571D01*
X144799071Y-151441380D01*
X145275261Y-151441380D02*
X145275261Y-150774714D01*
X145275261Y-150441380D02*
X145227642Y-150489000D01*
X145275261Y-150536619D01*
X145322880Y-150489000D01*
X145275261Y-150441380D01*
X145275261Y-150536619D01*
X145894309Y-151441380D02*
X145799071Y-151393761D01*
X145751452Y-151298523D01*
X145751452Y-150441380D01*
X146275261Y-151441380D02*
X146275261Y-150774714D01*
X146275261Y-150441380D02*
X146227642Y-150489000D01*
X146275261Y-150536619D01*
X146322880Y-150489000D01*
X146275261Y-150441380D01*
X146275261Y-150536619D01*
X147180023Y-151441380D02*
X147180023Y-150917571D01*
X147132404Y-150822333D01*
X147037166Y-150774714D01*
X146846690Y-150774714D01*
X146751452Y-150822333D01*
X147180023Y-151393761D02*
X147084785Y-151441380D01*
X146846690Y-151441380D01*
X146751452Y-151393761D01*
X146703833Y-151298523D01*
X146703833Y-151203285D01*
X146751452Y-151108047D01*
X146846690Y-151060428D01*
X147084785Y-151060428D01*
X147180023Y-151012809D01*
X147656214Y-150774714D02*
X147656214Y-151441380D01*
X147656214Y-150869952D02*
X147703833Y-150822333D01*
X147799071Y-150774714D01*
X147941928Y-150774714D01*
X148037166Y-150822333D01*
X148084785Y-150917571D01*
X148084785Y-151441380D01*
X149275261Y-151155666D02*
X149751452Y-151155666D01*
X149180023Y-151441380D02*
X149513357Y-150441380D01*
X149846690Y-151441380D01*
X150322880Y-151441380D02*
X150227642Y-151393761D01*
X150180023Y-151298523D01*
X150180023Y-150441380D01*
X150560976Y-150774714D02*
X150941928Y-150774714D01*
X150703833Y-150441380D02*
X150703833Y-151298523D01*
X150751452Y-151393761D01*
X150846690Y-151441380D01*
X150941928Y-151441380D01*
X151275261Y-151441380D02*
X151275261Y-150774714D01*
X151275261Y-150965190D02*
X151322880Y-150869952D01*
X151370500Y-150822333D01*
X151465738Y-150774714D01*
X151560976Y-150774714D01*
X151894309Y-151441380D02*
X151894309Y-150774714D01*
X151894309Y-150441380D02*
X151846690Y-150489000D01*
X151894309Y-150536619D01*
X151941928Y-150489000D01*
X151894309Y-150441380D01*
X151894309Y-150536619D01*
X152799071Y-151393761D02*
X152703833Y-151441380D01*
X152513357Y-151441380D01*
X152418119Y-151393761D01*
X152370500Y-151346142D01*
X152322880Y-151250904D01*
X152322880Y-150965190D01*
X152370500Y-150869952D01*
X152418119Y-150822333D01*
X152513357Y-150774714D01*
X152703833Y-150774714D01*
X152799071Y-150822333D01*
X153227642Y-151441380D02*
X153227642Y-150441380D01*
X153656214Y-151441380D02*
X153656214Y-150917571D01*
X153608595Y-150822333D01*
X153513357Y-150774714D01*
X153370500Y-150774714D01*
X153275261Y-150822333D01*
X153227642Y-150869952D01*
X153989547Y-150774714D02*
X154370500Y-150774714D01*
X154132404Y-150441380D02*
X154132404Y-151298523D01*
X154180023Y-151393761D01*
X154275261Y-151441380D01*
X154370500Y-151441380D01*
X155084785Y-151393761D02*
X154989547Y-151441380D01*
X154799071Y-151441380D01*
X154703833Y-151393761D01*
X154656214Y-151298523D01*
X154656214Y-150917571D01*
X154703833Y-150822333D01*
X154799071Y-150774714D01*
X154989547Y-150774714D01*
X155084785Y-150822333D01*
X155132404Y-150917571D01*
X155132404Y-151012809D01*
X154656214Y-151108047D01*
X155560976Y-151441380D02*
X155560976Y-150774714D01*
X155560976Y-150965190D02*
X155608595Y-150869952D01*
X155656214Y-150822333D01*
X155751452Y-150774714D01*
X155846690Y-150774714D01*
D11*
G36*
X145131070Y-146867828D02*
G01*
X145128125Y-147047676D01*
X145124883Y-147184482D01*
X145120493Y-147285999D01*
X145114107Y-147359981D01*
X145104875Y-147414182D01*
X145091946Y-147456357D01*
X145074471Y-147494259D01*
X145059400Y-147521831D01*
X144970956Y-147629501D01*
X144848016Y-147708037D01*
X144699844Y-147754107D01*
X144535704Y-147764380D01*
X144424438Y-147750201D01*
X144288737Y-147703241D01*
X144179742Y-147619078D01*
X144133869Y-147564288D01*
X144116954Y-147538618D01*
X144103962Y-147508091D01*
X144094259Y-147465809D01*
X144087209Y-147404872D01*
X144082178Y-147318384D01*
X144078531Y-147199446D01*
X144075633Y-147041159D01*
X144073822Y-146911807D01*
X144066145Y-146329400D01*
X144348200Y-146329400D01*
X144348200Y-146838661D01*
X144349183Y-147042967D01*
X144353580Y-147202104D01*
X144363558Y-147321684D01*
X144381285Y-147407322D01*
X144408929Y-147464633D01*
X144448659Y-147499230D01*
X144502642Y-147516729D01*
X144573047Y-147522743D01*
X144612549Y-147523200D01*
X144702283Y-147512286D01*
X144765365Y-147474696D01*
X144775041Y-147464978D01*
X144793346Y-147442996D01*
X144807182Y-147416548D01*
X144817292Y-147378492D01*
X144824421Y-147321690D01*
X144829314Y-147238999D01*
X144832715Y-147123281D01*
X144835368Y-146967395D01*
X144836618Y-146874428D01*
X144843500Y-146342100D01*
X144991370Y-146334428D01*
X145139241Y-146326756D01*
X145131070Y-146867828D01*
G37*
X145131070Y-146867828D02*
X145128125Y-147047676D01*
X145124883Y-147184482D01*
X145120493Y-147285999D01*
X145114107Y-147359981D01*
X145104875Y-147414182D01*
X145091946Y-147456357D01*
X145074471Y-147494259D01*
X145059400Y-147521831D01*
X144970956Y-147629501D01*
X144848016Y-147708037D01*
X144699844Y-147754107D01*
X144535704Y-147764380D01*
X144424438Y-147750201D01*
X144288737Y-147703241D01*
X144179742Y-147619078D01*
X144133869Y-147564288D01*
X144116954Y-147538618D01*
X144103962Y-147508091D01*
X144094259Y-147465809D01*
X144087209Y-147404872D01*
X144082178Y-147318384D01*
X144078531Y-147199446D01*
X144075633Y-147041159D01*
X144073822Y-146911807D01*
X144066145Y-146329400D01*
X144348200Y-146329400D01*
X144348200Y-146838661D01*
X144349183Y-147042967D01*
X144353580Y-147202104D01*
X144363558Y-147321684D01*
X144381285Y-147407322D01*
X144408929Y-147464633D01*
X144448659Y-147499230D01*
X144502642Y-147516729D01*
X144573047Y-147522743D01*
X144612549Y-147523200D01*
X144702283Y-147512286D01*
X144765365Y-147474696D01*
X144775041Y-147464978D01*
X144793346Y-147442996D01*
X144807182Y-147416548D01*
X144817292Y-147378492D01*
X144824421Y-147321690D01*
X144829314Y-147238999D01*
X144832715Y-147123281D01*
X144835368Y-146967395D01*
X144836618Y-146874428D01*
X144843500Y-146342100D01*
X144991370Y-146334428D01*
X145139241Y-146326756D01*
X145131070Y-146867828D01*
G36*
X148469890Y-146319009D02*
G01*
X148541405Y-146327922D01*
X148598018Y-146348506D01*
X148657645Y-146385238D01*
X148668974Y-146393132D01*
X148775790Y-146489503D01*
X148850461Y-146609271D01*
X148896275Y-146759839D01*
X148916522Y-146948610D01*
X148916593Y-146950374D01*
X148914274Y-147162298D01*
X148887888Y-147335068D01*
X148836143Y-147474942D01*
X148794080Y-147543353D01*
X148688558Y-147647735D01*
X148551613Y-147720720D01*
X148394481Y-147758496D01*
X148228397Y-147757248D01*
X148185068Y-147750048D01*
X148041948Y-147696982D01*
X147925240Y-147602455D01*
X147837264Y-147469729D01*
X147780337Y-147302067D01*
X147759098Y-147150857D01*
X147759820Y-147033685D01*
X148061266Y-147033685D01*
X148065512Y-147160830D01*
X148080729Y-147263903D01*
X148126285Y-147385786D01*
X148197567Y-147466589D01*
X148300345Y-147511950D01*
X148343165Y-147520253D01*
X148377933Y-147513233D01*
X148437137Y-147492164D01*
X148446738Y-147488224D01*
X148518827Y-147442721D01*
X148568994Y-147371792D01*
X148599813Y-147268629D01*
X148613859Y-147126423D01*
X148615400Y-147042295D01*
X148608473Y-146876092D01*
X148586312Y-146751891D01*
X148546843Y-146662628D01*
X148487994Y-146601239D01*
X148485431Y-146599419D01*
X148392784Y-146562817D01*
X148291092Y-146566188D01*
X148196183Y-146605211D01*
X148123888Y-146675567D01*
X148108973Y-146702145D01*
X148083898Y-146786404D01*
X148067695Y-146902897D01*
X148061266Y-147033685D01*
X147759820Y-147033685D01*
X147760441Y-146933024D01*
X147794657Y-146741308D01*
X147859989Y-146580212D01*
X147954679Y-146454241D01*
X148061639Y-146375623D01*
X148138748Y-146342307D01*
X148223414Y-146324185D01*
X148334857Y-146317568D01*
X148365561Y-146317288D01*
X148469890Y-146319009D01*
G37*
X148469890Y-146319009D02*
X148541405Y-146327922D01*
X148598018Y-146348506D01*
X148657645Y-146385238D01*
X148668974Y-146393132D01*
X148775790Y-146489503D01*
X148850461Y-146609271D01*
X148896275Y-146759839D01*
X148916522Y-146948610D01*
X148916593Y-146950374D01*
X148914274Y-147162298D01*
X148887888Y-147335068D01*
X148836143Y-147474942D01*
X148794080Y-147543353D01*
X148688558Y-147647735D01*
X148551613Y-147720720D01*
X148394481Y-147758496D01*
X148228397Y-147757248D01*
X148185068Y-147750048D01*
X148041948Y-147696982D01*
X147925240Y-147602455D01*
X147837264Y-147469729D01*
X147780337Y-147302067D01*
X147759098Y-147150857D01*
X147759820Y-147033685D01*
X148061266Y-147033685D01*
X148065512Y-147160830D01*
X148080729Y-147263903D01*
X148126285Y-147385786D01*
X148197567Y-147466589D01*
X148300345Y-147511950D01*
X148343165Y-147520253D01*
X148377933Y-147513233D01*
X148437137Y-147492164D01*
X148446738Y-147488224D01*
X148518827Y-147442721D01*
X148568994Y-147371792D01*
X148599813Y-147268629D01*
X148613859Y-147126423D01*
X148615400Y-147042295D01*
X148608473Y-146876092D01*
X148586312Y-146751891D01*
X148546843Y-146662628D01*
X148487994Y-146601239D01*
X148485431Y-146599419D01*
X148392784Y-146562817D01*
X148291092Y-146566188D01*
X148196183Y-146605211D01*
X148123888Y-146675567D01*
X148108973Y-146702145D01*
X148083898Y-146786404D01*
X148067695Y-146902897D01*
X148061266Y-147033685D01*
X147759820Y-147033685D01*
X147760441Y-146933024D01*
X147794657Y-146741308D01*
X147859989Y-146580212D01*
X147954679Y-146454241D01*
X148061639Y-146375623D01*
X148138748Y-146342307D01*
X148223414Y-146324185D01*
X148334857Y-146317568D01*
X148365561Y-146317288D01*
X148469890Y-146319009D01*
G36*
X140808603Y-146332920D02*
G01*
X140858970Y-146334680D01*
X141052855Y-146342100D01*
X141264657Y-147027900D01*
X141319444Y-147205901D01*
X141369022Y-147368143D01*
X141411480Y-147508275D01*
X141444905Y-147619946D01*
X141467386Y-147696807D01*
X141477011Y-147732506D01*
X141477229Y-147733962D01*
X141454583Y-147743348D01*
X141394744Y-147747803D01*
X141319379Y-147746662D01*
X141160759Y-147739100D01*
X141125205Y-147605750D01*
X141089650Y-147472400D01*
X140591595Y-147472400D01*
X140547559Y-147612100D01*
X140503522Y-147751800D01*
X140368461Y-147751800D01*
X140293410Y-147747879D01*
X140244371Y-147737796D01*
X140233400Y-147728703D01*
X140240542Y-147698525D01*
X140260395Y-147627617D01*
X140290598Y-147523763D01*
X140328792Y-147394744D01*
X140372615Y-147248346D01*
X140380130Y-147223449D01*
X140670936Y-147223449D01*
X140691886Y-147236910D01*
X140744917Y-147242699D01*
X140823104Y-147243800D01*
X140909392Y-147241902D01*
X140973490Y-147236949D01*
X141000121Y-147230611D01*
X140998932Y-147202762D01*
X140985878Y-147138806D01*
X140964256Y-147050597D01*
X140937366Y-146949992D01*
X140908507Y-146848847D01*
X140880976Y-146759016D01*
X140858073Y-146692356D01*
X140843096Y-146660722D01*
X140841260Y-146659638D01*
X140834037Y-146667489D01*
X140822487Y-146694666D01*
X140804918Y-146746560D01*
X140779638Y-146828561D01*
X140744959Y-146946061D01*
X140699188Y-147104451D01*
X140671990Y-147199350D01*
X140670936Y-147223449D01*
X140380130Y-147223449D01*
X140419707Y-147092349D01*
X140467708Y-146934538D01*
X140514258Y-146782696D01*
X140556995Y-146644605D01*
X140593560Y-146528049D01*
X140621591Y-146440811D01*
X140638730Y-146390673D01*
X140640768Y-146385480D01*
X140656767Y-146356051D01*
X140682080Y-146339342D01*
X140728696Y-146332562D01*
X140808603Y-146332920D01*
G37*
X140808603Y-146332920D02*
X140858970Y-146334680D01*
X141052855Y-146342100D01*
X141264657Y-147027900D01*
X141319444Y-147205901D01*
X141369022Y-147368143D01*
X141411480Y-147508275D01*
X141444905Y-147619946D01*
X141467386Y-147696807D01*
X141477011Y-147732506D01*
X141477229Y-147733962D01*
X141454583Y-147743348D01*
X141394744Y-147747803D01*
X141319379Y-147746662D01*
X141160759Y-147739100D01*
X141125205Y-147605750D01*
X141089650Y-147472400D01*
X140591595Y-147472400D01*
X140547559Y-147612100D01*
X140503522Y-147751800D01*
X140368461Y-147751800D01*
X140293410Y-147747879D01*
X140244371Y-147737796D01*
X140233400Y-147728703D01*
X140240542Y-147698525D01*
X140260395Y-147627617D01*
X140290598Y-147523763D01*
X140328792Y-147394744D01*
X140372615Y-147248346D01*
X140380130Y-147223449D01*
X140670936Y-147223449D01*
X140691886Y-147236910D01*
X140744917Y-147242699D01*
X140823104Y-147243800D01*
X140909392Y-147241902D01*
X140973490Y-147236949D01*
X141000121Y-147230611D01*
X140998932Y-147202762D01*
X140985878Y-147138806D01*
X140964256Y-147050597D01*
X140937366Y-146949992D01*
X140908507Y-146848847D01*
X140880976Y-146759016D01*
X140858073Y-146692356D01*
X140843096Y-146660722D01*
X140841260Y-146659638D01*
X140834037Y-146667489D01*
X140822487Y-146694666D01*
X140804918Y-146746560D01*
X140779638Y-146828561D01*
X140744959Y-146946061D01*
X140699188Y-147104451D01*
X140671990Y-147199350D01*
X140670936Y-147223449D01*
X140380130Y-147223449D01*
X140419707Y-147092349D01*
X140467708Y-146934538D01*
X140514258Y-146782696D01*
X140556995Y-146644605D01*
X140593560Y-146528049D01*
X140621591Y-146440811D01*
X140638730Y-146390673D01*
X140640768Y-146385480D01*
X140656767Y-146356051D01*
X140682080Y-146339342D01*
X140728696Y-146332562D01*
X140808603Y-146332920D01*
G36*
X141903450Y-146330511D02*
G01*
X142096690Y-146336550D01*
X142246954Y-146354373D01*
X142361111Y-146385966D01*
X142446031Y-146433314D01*
X142508584Y-146498404D01*
X142514710Y-146507200D01*
X142550490Y-146570837D01*
X142565872Y-146635749D01*
X142565632Y-146724445D01*
X142564502Y-146741802D01*
X142536289Y-146878118D01*
X142472963Y-146978038D01*
X142374008Y-147042364D01*
X142369997Y-147043940D01*
X142328544Y-147064493D01*
X142330466Y-147088535D01*
X142351030Y-147113187D01*
X142374275Y-147148411D01*
X142413099Y-147216863D01*
X142462093Y-147307968D01*
X142515845Y-147411149D01*
X142568946Y-147515833D01*
X142615987Y-147611444D01*
X142651557Y-147687406D01*
X142670246Y-147733145D01*
X142671800Y-147740210D01*
X142648716Y-147746365D01*
X142588504Y-147748561D01*
X142513050Y-147746662D01*
X142354300Y-147739100D01*
X142227300Y-147477682D01*
X142164011Y-147351125D01*
X142114655Y-147264139D01*
X142073234Y-147209567D01*
X142033750Y-147180251D01*
X141990207Y-147169036D01*
X141967781Y-147167988D01*
X141943343Y-147170191D01*
X141926930Y-147183011D01*
X141916603Y-147215159D01*
X141910423Y-147275350D01*
X141906451Y-147372297D01*
X141904281Y-147453350D01*
X141897100Y-147739100D01*
X141769124Y-147746591D01*
X141692152Y-147747586D01*
X141637429Y-147741832D01*
X141623074Y-147736007D01*
X141618326Y-147706806D01*
X141614045Y-147633537D01*
X141610402Y-147522933D01*
X141607566Y-147381726D01*
X141605709Y-147216647D01*
X141605002Y-147034428D01*
X141605000Y-147023666D01*
X141605000Y-146558000D01*
X141909800Y-146558000D01*
X141909800Y-146939000D01*
X142020674Y-146939000D01*
X142139017Y-146919583D01*
X142198474Y-146886356D01*
X142248757Y-146818799D01*
X142267507Y-146732909D01*
X142250529Y-146651300D01*
X142244175Y-146640085D01*
X142202388Y-146609052D01*
X142128462Y-146581301D01*
X142040996Y-146562608D01*
X141979817Y-146558000D01*
X141909800Y-146558000D01*
X141605000Y-146558000D01*
X141605000Y-146329400D01*
X141903450Y-146330511D01*
G37*
X141903450Y-146330511D02*
X142096690Y-146336550D01*
X142246954Y-146354373D01*
X142361111Y-146385966D01*
X142446031Y-146433314D01*
X142508584Y-146498404D01*
X142514710Y-146507200D01*
X142550490Y-146570837D01*
X142565872Y-146635749D01*
X142565632Y-146724445D01*
X142564502Y-146741802D01*
X142536289Y-146878118D01*
X142472963Y-146978038D01*
X142374008Y-147042364D01*
X142369997Y-147043940D01*
X142328544Y-147064493D01*
X142330466Y-147088535D01*
X142351030Y-147113187D01*
X142374275Y-147148411D01*
X142413099Y-147216863D01*
X142462093Y-147307968D01*
X142515845Y-147411149D01*
X142568946Y-147515833D01*
X142615987Y-147611444D01*
X142651557Y-147687406D01*
X142670246Y-147733145D01*
X142671800Y-147740210D01*
X142648716Y-147746365D01*
X142588504Y-147748561D01*
X142513050Y-147746662D01*
X142354300Y-147739100D01*
X142227300Y-147477682D01*
X142164011Y-147351125D01*
X142114655Y-147264139D01*
X142073234Y-147209567D01*
X142033750Y-147180251D01*
X141990207Y-147169036D01*
X141967781Y-147167988D01*
X141943343Y-147170191D01*
X141926930Y-147183011D01*
X141916603Y-147215159D01*
X141910423Y-147275350D01*
X141906451Y-147372297D01*
X141904281Y-147453350D01*
X141897100Y-147739100D01*
X141769124Y-147746591D01*
X141692152Y-147747586D01*
X141637429Y-147741832D01*
X141623074Y-147736007D01*
X141618326Y-147706806D01*
X141614045Y-147633537D01*
X141610402Y-147522933D01*
X141607566Y-147381726D01*
X141605709Y-147216647D01*
X141605002Y-147034428D01*
X141605000Y-147023666D01*
X141605000Y-146558000D01*
X141909800Y-146558000D01*
X141909800Y-146939000D01*
X142020674Y-146939000D01*
X142139017Y-146919583D01*
X142198474Y-146886356D01*
X142248757Y-146818799D01*
X142267507Y-146732909D01*
X142250529Y-146651300D01*
X142244175Y-146640085D01*
X142202388Y-146609052D01*
X142128462Y-146581301D01*
X142040996Y-146562608D01*
X141979817Y-146558000D01*
X141909800Y-146558000D01*
X141605000Y-146558000D01*
X141605000Y-146329400D01*
X141903450Y-146330511D01*
G36*
X143300742Y-146334418D02*
G01*
X143449007Y-146351139D01*
X143565657Y-146382063D01*
X143659863Y-146429690D01*
X143740798Y-146496520D01*
X143746689Y-146502478D01*
X143835916Y-146624175D01*
X143891477Y-146774503D01*
X143915208Y-146959043D01*
X143916400Y-147018349D01*
X143900185Y-147219497D01*
X143850440Y-147386262D01*
X143765516Y-147519998D01*
X143643762Y-147622059D01*
X143483529Y-147693800D01*
X143283165Y-147736574D01*
X143041021Y-147751737D01*
X143022735Y-147751800D01*
X142824200Y-147751800D01*
X142824200Y-147497800D01*
X143103600Y-147497800D01*
X143220411Y-147497800D01*
X143314147Y-147488528D01*
X143402993Y-147465460D01*
X143422488Y-147457338D01*
X143515887Y-147385760D01*
X143577156Y-147275231D01*
X143606061Y-147126338D01*
X143606557Y-146993147D01*
X143588601Y-146837338D01*
X143551557Y-146723761D01*
X143489538Y-146645592D01*
X143396659Y-146596011D01*
X143267033Y-146568193D01*
X143236950Y-146564720D01*
X143103600Y-146550892D01*
X143103600Y-147497800D01*
X142824200Y-147497800D01*
X142824200Y-146329400D01*
X143111689Y-146329400D01*
X143300742Y-146334418D01*
G37*
X143300742Y-146334418D02*
X143449007Y-146351139D01*
X143565657Y-146382063D01*
X143659863Y-146429690D01*
X143740798Y-146496520D01*
X143746689Y-146502478D01*
X143835916Y-146624175D01*
X143891477Y-146774503D01*
X143915208Y-146959043D01*
X143916400Y-147018349D01*
X143900185Y-147219497D01*
X143850440Y-147386262D01*
X143765516Y-147519998D01*
X143643762Y-147622059D01*
X143483529Y-147693800D01*
X143283165Y-147736574D01*
X143041021Y-147751737D01*
X143022735Y-147751800D01*
X142824200Y-147751800D01*
X142824200Y-147497800D01*
X143103600Y-147497800D01*
X143220411Y-147497800D01*
X143314147Y-147488528D01*
X143402993Y-147465460D01*
X143422488Y-147457338D01*
X143515887Y-147385760D01*
X143577156Y-147275231D01*
X143606061Y-147126338D01*
X143606557Y-146993147D01*
X143588601Y-146837338D01*
X143551557Y-146723761D01*
X143489538Y-146645592D01*
X143396659Y-146596011D01*
X143267033Y-146568193D01*
X143236950Y-146564720D01*
X143103600Y-146550892D01*
X143103600Y-147497800D01*
X142824200Y-147497800D01*
X142824200Y-146329400D01*
X143111689Y-146329400D01*
X143300742Y-146334418D01*
G36*
X146304000Y-146558000D02*
G01*
X145999200Y-146558000D01*
X145999200Y-147497800D01*
X146304000Y-147497800D01*
X146304000Y-147751800D01*
X145389600Y-147751800D01*
X145389600Y-147497800D01*
X145694400Y-147497800D01*
X145694400Y-146558000D01*
X145389600Y-146558000D01*
X145389600Y-146329400D01*
X146304000Y-146329400D01*
X146304000Y-146558000D01*
G37*
X146304000Y-146558000D02*
X145999200Y-146558000D01*
X145999200Y-147497800D01*
X146304000Y-147497800D01*
X146304000Y-147751800D01*
X145389600Y-147751800D01*
X145389600Y-147497800D01*
X145694400Y-147497800D01*
X145694400Y-146558000D01*
X145389600Y-146558000D01*
X145389600Y-146329400D01*
X146304000Y-146329400D01*
X146304000Y-146558000D01*
G36*
X147031153Y-146577050D02*
G01*
X147094827Y-146710819D01*
X147164998Y-146857385D01*
X147230056Y-146992526D01*
X147253329Y-147040600D01*
X147358100Y-147256500D01*
X147365022Y-146792950D01*
X147371945Y-146329400D01*
X147624800Y-146329400D01*
X147624800Y-147754121D01*
X147453785Y-147746610D01*
X147282771Y-147739100D01*
X147066435Y-147272472D01*
X146850100Y-146805844D01*
X146824700Y-147739100D01*
X146558000Y-147754454D01*
X146558000Y-146329400D01*
X146913748Y-146329400D01*
X147031153Y-146577050D01*
G37*
X147031153Y-146577050D02*
X147094827Y-146710819D01*
X147164998Y-146857385D01*
X147230056Y-146992526D01*
X147253329Y-147040600D01*
X147358100Y-147256500D01*
X147365022Y-146792950D01*
X147371945Y-146329400D01*
X147624800Y-146329400D01*
X147624800Y-147754121D01*
X147453785Y-147746610D01*
X147282771Y-147739100D01*
X147066435Y-147272472D01*
X146850100Y-146805844D01*
X146824700Y-147739100D01*
X146558000Y-147754454D01*
X146558000Y-146329400D01*
X146913748Y-146329400D01*
X147031153Y-146577050D01*
G36*
X142301761Y-141804765D02*
G01*
X142641668Y-141827441D01*
X142963188Y-141894877D01*
X143267904Y-142007946D01*
X143557401Y-142167524D01*
X143833262Y-142374486D01*
X144097071Y-142629707D01*
X144350411Y-142934062D01*
X144353759Y-142938500D01*
X144419832Y-143024751D01*
X144474977Y-143094029D01*
X144511924Y-143137349D01*
X144522768Y-143147341D01*
X144544240Y-143131119D01*
X144583869Y-143083275D01*
X144624023Y-143027244D01*
X144843841Y-142740227D01*
X145090552Y-142484738D01*
X145358945Y-142264436D01*
X145643808Y-142082978D01*
X145939929Y-141944020D01*
X146242096Y-141851221D01*
X146323553Y-141834642D01*
X146444647Y-141819564D01*
X146597684Y-141810440D01*
X146766047Y-141807297D01*
X146933120Y-141810163D01*
X147082288Y-141819062D01*
X147193000Y-141833264D01*
X147497118Y-141915594D01*
X147787869Y-142043032D01*
X148058227Y-142210904D01*
X148301169Y-142414536D01*
X148509672Y-142649253D01*
X148589739Y-142762774D01*
X148741568Y-143038552D01*
X148846118Y-143323797D01*
X148905018Y-143614237D01*
X148919897Y-143905601D01*
X148892383Y-144193616D01*
X148824105Y-144474012D01*
X148716691Y-144742518D01*
X148571770Y-144994861D01*
X148390971Y-145226771D01*
X148175922Y-145433976D01*
X147928252Y-145612205D01*
X147649590Y-145757186D01*
X147415145Y-145843410D01*
X147204567Y-145893410D01*
X146966215Y-145925852D01*
X146720575Y-145939043D01*
X146488131Y-145931291D01*
X146427372Y-145925036D01*
X146125530Y-145868712D01*
X145843064Y-145774069D01*
X145576789Y-145638946D01*
X145323521Y-145461183D01*
X145080077Y-145238619D01*
X144843272Y-144969092D01*
X144663095Y-144727685D01*
X144520761Y-144524558D01*
X144395989Y-144705679D01*
X144159770Y-145021297D01*
X143918607Y-145287663D01*
X143669528Y-145506290D01*
X143409563Y-145678688D01*
X143135742Y-145806367D01*
X142845092Y-145890839D01*
X142534645Y-145933614D01*
X142201427Y-145936203D01*
X142006385Y-145920941D01*
X141889487Y-145902467D01*
X141750094Y-145871490D01*
X141613123Y-145833750D01*
X141574585Y-145821421D01*
X141275794Y-145697307D01*
X141008060Y-145537199D01*
X140772880Y-145345410D01*
X140571755Y-145126254D01*
X140406184Y-144884044D01*
X140277666Y-144623091D01*
X140187701Y-144347710D01*
X140137787Y-144062213D01*
X140132045Y-143862194D01*
X140846794Y-143862194D01*
X140870281Y-144112631D01*
X140882110Y-144168036D01*
X140960966Y-144395294D01*
X141083449Y-144606522D01*
X141243363Y-144795608D01*
X141434512Y-144956440D01*
X141650701Y-145082910D01*
X141885735Y-145168905D01*
X141900781Y-145172764D01*
X142029306Y-145194399D01*
X142187910Y-145205357D01*
X142361643Y-145206141D01*
X142535556Y-145197252D01*
X142694700Y-145179191D01*
X142824126Y-145152460D01*
X142861305Y-145140540D01*
X143056832Y-145049046D01*
X143248365Y-144918789D01*
X143438319Y-144747375D01*
X143629111Y-144532410D01*
X143823155Y-144271499D01*
X143980381Y-144031250D01*
X144091314Y-143853264D01*
X144979808Y-143853264D01*
X144998170Y-143915746D01*
X145040907Y-143993358D01*
X145108578Y-144096584D01*
X145173555Y-144193403D01*
X145365566Y-144463762D01*
X145550960Y-144687375D01*
X145733185Y-144867290D01*
X145915692Y-145006552D01*
X146101932Y-145108209D01*
X146281257Y-145171604D01*
X146398635Y-145192894D01*
X146549185Y-145205562D01*
X146716011Y-145209575D01*
X146882215Y-145204898D01*
X147030902Y-145191497D01*
X147130513Y-145173318D01*
X147377224Y-145087412D01*
X147598066Y-144964453D01*
X147789695Y-144809426D01*
X147948766Y-144627316D01*
X148071936Y-144423108D01*
X148155860Y-144201786D01*
X148197194Y-143968337D01*
X148192595Y-143727745D01*
X148174383Y-143617216D01*
X148096552Y-143366370D01*
X147976315Y-143141421D01*
X147816565Y-142945273D01*
X147620194Y-142780832D01*
X147390097Y-142651003D01*
X147129167Y-142558691D01*
X147117117Y-142555560D01*
X146964180Y-142530530D01*
X146782191Y-142522640D01*
X146589631Y-142531113D01*
X146404984Y-142555171D01*
X146253200Y-142591923D01*
X146014021Y-142694484D01*
X145778715Y-142846400D01*
X145548913Y-143046275D01*
X145326247Y-143292712D01*
X145138897Y-143544938D01*
X145065365Y-143651748D01*
X145013966Y-143731750D01*
X144985260Y-143795427D01*
X144979808Y-143853264D01*
X144091314Y-143853264D01*
X144100602Y-143838363D01*
X143961684Y-143629731D01*
X143758824Y-143344916D01*
X143559696Y-143107525D01*
X143360320Y-142914768D01*
X143156718Y-142763858D01*
X142944910Y-142652007D01*
X142720919Y-142576426D01*
X142480764Y-142534328D01*
X142387593Y-142526713D01*
X142169545Y-142523920D01*
X141978353Y-142546089D01*
X141794743Y-142596906D01*
X141608561Y-142675658D01*
X141387654Y-142808015D01*
X141200721Y-142973937D01*
X141050465Y-143167870D01*
X140939589Y-143384260D01*
X140870798Y-143617552D01*
X140846794Y-143862194D01*
X140132045Y-143862194D01*
X140129424Y-143770914D01*
X140164111Y-143478124D01*
X140243347Y-143188156D01*
X140368632Y-142905325D01*
X140491046Y-142704359D01*
X140653867Y-142503877D01*
X140855097Y-142315047D01*
X141082394Y-142147304D01*
X141323414Y-142010082D01*
X141495457Y-141936591D01*
X141688164Y-141874295D01*
X141872620Y-141833624D01*
X142067777Y-141811477D01*
X142292588Y-141804758D01*
X142301761Y-141804765D01*
G37*
X142301761Y-141804765D02*
X142641668Y-141827441D01*
X142963188Y-141894877D01*
X143267904Y-142007946D01*
X143557401Y-142167524D01*
X143833262Y-142374486D01*
X144097071Y-142629707D01*
X144350411Y-142934062D01*
X144353759Y-142938500D01*
X144419832Y-143024751D01*
X144474977Y-143094029D01*
X144511924Y-143137349D01*
X144522768Y-143147341D01*
X144544240Y-143131119D01*
X144583869Y-143083275D01*
X144624023Y-143027244D01*
X144843841Y-142740227D01*
X145090552Y-142484738D01*
X145358945Y-142264436D01*
X145643808Y-142082978D01*
X145939929Y-141944020D01*
X146242096Y-141851221D01*
X146323553Y-141834642D01*
X146444647Y-141819564D01*
X146597684Y-141810440D01*
X146766047Y-141807297D01*
X146933120Y-141810163D01*
X147082288Y-141819062D01*
X147193000Y-141833264D01*
X147497118Y-141915594D01*
X147787869Y-142043032D01*
X148058227Y-142210904D01*
X148301169Y-142414536D01*
X148509672Y-142649253D01*
X148589739Y-142762774D01*
X148741568Y-143038552D01*
X148846118Y-143323797D01*
X148905018Y-143614237D01*
X148919897Y-143905601D01*
X148892383Y-144193616D01*
X148824105Y-144474012D01*
X148716691Y-144742518D01*
X148571770Y-144994861D01*
X148390971Y-145226771D01*
X148175922Y-145433976D01*
X147928252Y-145612205D01*
X147649590Y-145757186D01*
X147415145Y-145843410D01*
X147204567Y-145893410D01*
X146966215Y-145925852D01*
X146720575Y-145939043D01*
X146488131Y-145931291D01*
X146427372Y-145925036D01*
X146125530Y-145868712D01*
X145843064Y-145774069D01*
X145576789Y-145638946D01*
X145323521Y-145461183D01*
X145080077Y-145238619D01*
X144843272Y-144969092D01*
X144663095Y-144727685D01*
X144520761Y-144524558D01*
X144395989Y-144705679D01*
X144159770Y-145021297D01*
X143918607Y-145287663D01*
X143669528Y-145506290D01*
X143409563Y-145678688D01*
X143135742Y-145806367D01*
X142845092Y-145890839D01*
X142534645Y-145933614D01*
X142201427Y-145936203D01*
X142006385Y-145920941D01*
X141889487Y-145902467D01*
X141750094Y-145871490D01*
X141613123Y-145833750D01*
X141574585Y-145821421D01*
X141275794Y-145697307D01*
X141008060Y-145537199D01*
X140772880Y-145345410D01*
X140571755Y-145126254D01*
X140406184Y-144884044D01*
X140277666Y-144623091D01*
X140187701Y-144347710D01*
X140137787Y-144062213D01*
X140132045Y-143862194D01*
X140846794Y-143862194D01*
X140870281Y-144112631D01*
X140882110Y-144168036D01*
X140960966Y-144395294D01*
X141083449Y-144606522D01*
X141243363Y-144795608D01*
X141434512Y-144956440D01*
X141650701Y-145082910D01*
X141885735Y-145168905D01*
X141900781Y-145172764D01*
X142029306Y-145194399D01*
X142187910Y-145205357D01*
X142361643Y-145206141D01*
X142535556Y-145197252D01*
X142694700Y-145179191D01*
X142824126Y-145152460D01*
X142861305Y-145140540D01*
X143056832Y-145049046D01*
X143248365Y-144918789D01*
X143438319Y-144747375D01*
X143629111Y-144532410D01*
X143823155Y-144271499D01*
X143980381Y-144031250D01*
X144091314Y-143853264D01*
X144979808Y-143853264D01*
X144998170Y-143915746D01*
X145040907Y-143993358D01*
X145108578Y-144096584D01*
X145173555Y-144193403D01*
X145365566Y-144463762D01*
X145550960Y-144687375D01*
X145733185Y-144867290D01*
X145915692Y-145006552D01*
X146101932Y-145108209D01*
X146281257Y-145171604D01*
X146398635Y-145192894D01*
X146549185Y-145205562D01*
X146716011Y-145209575D01*
X146882215Y-145204898D01*
X147030902Y-145191497D01*
X147130513Y-145173318D01*
X147377224Y-145087412D01*
X147598066Y-144964453D01*
X147789695Y-144809426D01*
X147948766Y-144627316D01*
X148071936Y-144423108D01*
X148155860Y-144201786D01*
X148197194Y-143968337D01*
X148192595Y-143727745D01*
X148174383Y-143617216D01*
X148096552Y-143366370D01*
X147976315Y-143141421D01*
X147816565Y-142945273D01*
X147620194Y-142780832D01*
X147390097Y-142651003D01*
X147129167Y-142558691D01*
X147117117Y-142555560D01*
X146964180Y-142530530D01*
X146782191Y-142522640D01*
X146589631Y-142531113D01*
X146404984Y-142555171D01*
X146253200Y-142591923D01*
X146014021Y-142694484D01*
X145778715Y-142846400D01*
X145548913Y-143046275D01*
X145326247Y-143292712D01*
X145138897Y-143544938D01*
X145065365Y-143651748D01*
X145013966Y-143731750D01*
X144985260Y-143795427D01*
X144979808Y-143853264D01*
X144091314Y-143853264D01*
X144100602Y-143838363D01*
X143961684Y-143629731D01*
X143758824Y-143344916D01*
X143559696Y-143107525D01*
X143360320Y-142914768D01*
X143156718Y-142763858D01*
X142944910Y-142652007D01*
X142720919Y-142576426D01*
X142480764Y-142534328D01*
X142387593Y-142526713D01*
X142169545Y-142523920D01*
X141978353Y-142546089D01*
X141794743Y-142596906D01*
X141608561Y-142675658D01*
X141387654Y-142808015D01*
X141200721Y-142973937D01*
X141050465Y-143167870D01*
X140939589Y-143384260D01*
X140870798Y-143617552D01*
X140846794Y-143862194D01*
X140132045Y-143862194D01*
X140129424Y-143770914D01*
X140164111Y-143478124D01*
X140243347Y-143188156D01*
X140368632Y-142905325D01*
X140491046Y-142704359D01*
X140653867Y-142503877D01*
X140855097Y-142315047D01*
X141082394Y-142147304D01*
X141323414Y-142010082D01*
X141495457Y-141936591D01*
X141688164Y-141874295D01*
X141872620Y-141833624D01*
X142067777Y-141811477D01*
X142292588Y-141804758D01*
X142301761Y-141804765D01*
G36*
X148592049Y-141964516D02*
G01*
X148632020Y-141978758D01*
X148654503Y-142013191D01*
X148660951Y-142030450D01*
X148685336Y-142100300D01*
X148703921Y-142030450D01*
X148726916Y-141973733D01*
X148748525Y-141965160D01*
X148762823Y-142002279D01*
X148765268Y-142055850D01*
X148762456Y-142112371D01*
X148756620Y-142122091D01*
X148745183Y-142089009D01*
X148744783Y-142087600D01*
X148726831Y-142024100D01*
X148710925Y-142083805D01*
X148686766Y-142123087D01*
X148657656Y-142119484D01*
X148639161Y-142076586D01*
X148638268Y-142067050D01*
X148631215Y-142052281D01*
X148616126Y-142085354D01*
X148615400Y-142087600D01*
X148601503Y-142126663D01*
X148595295Y-142121994D01*
X148592579Y-142070097D01*
X148592531Y-142068550D01*
X148583347Y-142009292D01*
X148555625Y-141987236D01*
X148540809Y-141986000D01*
X148502774Y-142001128D01*
X148483528Y-142053554D01*
X148481374Y-142068550D01*
X148471129Y-142151100D01*
X148467064Y-142070666D01*
X148455167Y-142010885D01*
X148432059Y-141977774D01*
X148431250Y-141977421D01*
X148434611Y-141969711D01*
X148478204Y-141964144D01*
X148518033Y-141962605D01*
X148592049Y-141964516D01*
G37*
X148592049Y-141964516D02*
X148632020Y-141978758D01*
X148654503Y-142013191D01*
X148660951Y-142030450D01*
X148685336Y-142100300D01*
X148703921Y-142030450D01*
X148726916Y-141973733D01*
X148748525Y-141965160D01*
X148762823Y-142002279D01*
X148765268Y-142055850D01*
X148762456Y-142112371D01*
X148756620Y-142122091D01*
X148745183Y-142089009D01*
X148744783Y-142087600D01*
X148726831Y-142024100D01*
X148710925Y-142083805D01*
X148686766Y-142123087D01*
X148657656Y-142119484D01*
X148639161Y-142076586D01*
X148638268Y-142067050D01*
X148631215Y-142052281D01*
X148616126Y-142085354D01*
X148615400Y-142087600D01*
X148601503Y-142126663D01*
X148595295Y-142121994D01*
X148592579Y-142070097D01*
X148592531Y-142068550D01*
X148583347Y-142009292D01*
X148555625Y-141987236D01*
X148540809Y-141986000D01*
X148502774Y-142001128D01*
X148483528Y-142053554D01*
X148481374Y-142068550D01*
X148471129Y-142151100D01*
X148467064Y-142070666D01*
X148455167Y-142010885D01*
X148432059Y-141977774D01*
X148431250Y-141977421D01*
X148434611Y-141969711D01*
X148478204Y-141964144D01*
X148518033Y-141962605D01*
X148592049Y-141964516D01*
G36*
X143052800Y-143967200D02*
G01*
X142333133Y-143967200D01*
X142146803Y-143966624D01*
X141977209Y-143964998D01*
X141830943Y-143962474D01*
X141714595Y-143959203D01*
X141634754Y-143955336D01*
X141598012Y-143951026D01*
X141596533Y-143950266D01*
X141587020Y-143917197D01*
X141580877Y-143850618D01*
X141579600Y-143797866D01*
X141579600Y-143662400D01*
X143052800Y-143662400D01*
X143052800Y-143967200D01*
G37*
X143052800Y-143967200D02*
X142333133Y-143967200D01*
X142146803Y-143966624D01*
X141977209Y-143964998D01*
X141830943Y-143962474D01*
X141714595Y-143959203D01*
X141634754Y-143955336D01*
X141598012Y-143951026D01*
X141596533Y-143950266D01*
X141587020Y-143917197D01*
X141580877Y-143850618D01*
X141579600Y-143797866D01*
X141579600Y-143662400D01*
X143052800Y-143662400D01*
X143052800Y-143967200D01*
G36*
X146868081Y-143402050D02*
G01*
X146875500Y-143598900D01*
X147269200Y-143613736D01*
X147269200Y-143990463D01*
X147072350Y-143997881D01*
X146875500Y-144005300D01*
X146868081Y-144202150D01*
X146860663Y-144399000D01*
X146483936Y-144399000D01*
X146469100Y-144005300D01*
X146272250Y-143997881D01*
X146075400Y-143990463D01*
X146075400Y-143613736D01*
X146469100Y-143598900D01*
X146483936Y-143205200D01*
X146860663Y-143205200D01*
X146868081Y-143402050D01*
G37*
X146868081Y-143402050D02*
X146875500Y-143598900D01*
X147269200Y-143613736D01*
X147269200Y-143990463D01*
X147072350Y-143997881D01*
X146875500Y-144005300D01*
X146868081Y-144202150D01*
X146860663Y-144399000D01*
X146483936Y-144399000D01*
X146469100Y-144005300D01*
X146272250Y-143997881D01*
X146075400Y-143990463D01*
X146075400Y-143613736D01*
X146469100Y-143598900D01*
X146483936Y-143205200D01*
X146860663Y-143205200D01*
X146868081Y-143402050D01*
D12*
X152855000Y-96560000D02*
X152855000Y-101560000D01*
X151115670Y-96065000D02*
X148680000Y-96065000D01*
X151172330Y-102055000D02*
X148580670Y-102055000D01*
X146865000Y-96560000D02*
X146865000Y-101560000D01*
X152716005Y-94555665D02*
G75*
G03*
X152716005Y-94555665I-99335J0D01*
G01*
D13*
X122174000Y-120458000D02*
X122174000Y-121858000D01*
X105794000Y-119064000D02*
X105794000Y-117664000D01*
X105788000Y-116778000D02*
X105788000Y-115378000D01*
X125170000Y-127000000D02*
G75*
G03*
X125170000Y-127000000I-2500000J0D01*
G01*
D14*
X101130000Y-136350000D02*
X100230000Y-136350000D01*
X100230000Y-136350000D02*
X100230000Y-124950000D01*
X100230000Y-124950000D02*
X101130000Y-124950000D01*
X104130000Y-136350000D02*
X105030000Y-136350000D01*
X105030000Y-136350000D02*
X105030000Y-124950000D01*
X105030000Y-124950000D02*
X104130000Y-124950000D01*
D13*
X107470000Y-121920000D02*
X106070000Y-121920000D01*
X106488000Y-134750000D02*
X107888000Y-134750000D01*
X120055000Y-134800000D02*
X120055000Y-136200000D01*
X122230000Y-131405000D02*
X118330000Y-131405000D01*
X122230000Y-133655000D02*
X122230000Y-131405000D01*
X118330000Y-133655000D02*
X122230000Y-133655000D01*
X146740000Y-108260000D02*
X146740000Y-109660000D01*
X150590000Y-111280000D02*
X150590000Y-112680000D01*
X113006000Y-113222000D02*
X113006000Y-111822000D01*
X114324000Y-110682000D02*
X114324000Y-109282000D01*
X141080000Y-135410000D02*
X141080000Y-134010000D01*
X156990000Y-133185000D02*
X156990000Y-131785000D01*
X163450000Y-131285000D02*
X159550000Y-131285000D01*
X159550000Y-131285000D02*
X159550000Y-133535000D01*
X159550000Y-133535000D02*
X163450000Y-133535000D01*
X145740000Y-127880000D02*
G75*
G03*
X145740000Y-127880000I-2500000J0D01*
G01*
X132874000Y-98098000D02*
X132874000Y-98098000D01*
X132874000Y-98298000D02*
X132874000Y-98298000D01*
D14*
X133794000Y-107823000D02*
X133794000Y-107823000D01*
X133794000Y-97663000D02*
X133794000Y-107823000D01*
X134239000Y-97663000D02*
X133794000Y-97663000D01*
X137224000Y-107823000D02*
X136779000Y-107823000D01*
X137224000Y-97663000D02*
X137224000Y-107823000D01*
X136779000Y-97663000D02*
X137224000Y-97663000D01*
D13*
X132874000Y-98298000D02*
G75*
G02*
X132874000Y-98098000I0J100000D01*
G01*
X132874000Y-98098000D02*
G75*
G02*
X132874000Y-98298000I0J-100000D01*
G01*
X137327000Y-136980000D02*
X135977000Y-136980000D01*
X135041000Y-136980000D02*
X133691000Y-136980000D01*
X137594000Y-146979000D02*
X137594000Y-145629000D01*
X129018000Y-143514000D02*
X129018000Y-146554000D01*
X146120000Y-112240000D02*
X144720000Y-112240000D01*
X128146000Y-142178000D02*
X128146000Y-140778000D01*
X156990000Y-130067500D02*
X156990000Y-128667500D01*
X156990000Y-126950000D02*
X156990000Y-125550000D01*
D15*
X147900000Y-117565000D02*
X147900000Y-115965000D01*
X137825000Y-117565000D02*
X137825000Y-123315000D01*
X148475000Y-117565000D02*
X148475000Y-123315000D01*
X137825000Y-117565000D02*
X138475000Y-117565000D01*
X137825000Y-123315000D02*
X138475000Y-123315000D01*
X148475000Y-123315000D02*
X147825000Y-123315000D01*
X148475000Y-117565000D02*
X147900000Y-117565000D01*
D13*
X163450000Y-128167500D02*
X159550000Y-128167500D01*
X159550000Y-128167500D02*
X159550000Y-130417500D01*
X159550000Y-130417500D02*
X163450000Y-130417500D01*
D15*
X110475000Y-117175000D02*
X110475000Y-117400000D01*
X117725000Y-117175000D02*
X117725000Y-117500000D01*
X117725000Y-124425000D02*
X117725000Y-124100000D01*
X110475000Y-124425000D02*
X110475000Y-124100000D01*
X110475000Y-117175000D02*
X110800000Y-117175000D01*
X110475000Y-124425000D02*
X110800000Y-124425000D01*
X117725000Y-124425000D02*
X117400000Y-124425000D01*
X117725000Y-117175000D02*
X117400000Y-117175000D01*
X110475000Y-117400000D02*
X109050000Y-117400000D01*
D16*
X129958000Y-148544000D02*
X130408000Y-148544000D01*
X129958000Y-150394000D02*
X129958000Y-148544000D01*
X137758000Y-152944000D02*
X137758000Y-152694000D01*
X129958000Y-152944000D02*
X129958000Y-152694000D01*
X137758000Y-150394000D02*
X137758000Y-148544000D01*
X137758000Y-148544000D02*
X137308000Y-148544000D01*
X132158000Y-147994000D02*
X132608000Y-147994000D01*
X132158000Y-147994000D02*
X132158000Y-148444000D01*
D13*
X159550000Y-127300000D02*
X163450000Y-127300000D01*
X159550000Y-125050000D02*
X159550000Y-127300000D01*
X163450000Y-125050000D02*
X159550000Y-125050000D01*
D12*
X150383377Y-100299003D02*
X150443853Y-100117574D01*
X150443853Y-99815193D01*
X150383377Y-99694241D01*
X150322901Y-99633765D01*
X150201949Y-99573289D01*
X150080996Y-99573289D01*
X149960044Y-99633765D01*
X149899568Y-99694241D01*
X149839091Y-99815193D01*
X149778615Y-100057098D01*
X149718139Y-100178050D01*
X149657663Y-100238527D01*
X149536710Y-100299003D01*
X149415758Y-100299003D01*
X149294806Y-100238527D01*
X149234330Y-100178050D01*
X149173853Y-100057098D01*
X149173853Y-99754717D01*
X149234330Y-99573289D01*
X149173853Y-99149955D02*
X150443853Y-98847574D01*
X149536710Y-98605670D01*
X150443853Y-98363765D01*
X149173853Y-98061384D01*
X150443853Y-96912336D02*
X150443853Y-97638050D01*
X150443853Y-97275193D02*
X149173853Y-97275193D01*
X149355282Y-97396146D01*
X149476234Y-97517098D01*
X149536710Y-97638050D01*
X121357571Y-119791571D02*
X121297095Y-119852047D01*
X121115666Y-119912523D01*
X120994714Y-119912523D01*
X120813285Y-119852047D01*
X120692333Y-119731095D01*
X120631857Y-119610142D01*
X120571380Y-119368238D01*
X120571380Y-119186809D01*
X120631857Y-118944904D01*
X120692333Y-118823952D01*
X120813285Y-118703000D01*
X120994714Y-118642523D01*
X121115666Y-118642523D01*
X121297095Y-118703000D01*
X121357571Y-118763476D01*
X122567095Y-119912523D02*
X121841380Y-119912523D01*
X122204238Y-119912523D02*
X122204238Y-118642523D01*
X122083285Y-118823952D01*
X121962333Y-118944904D01*
X121841380Y-119005380D01*
X122990428Y-118642523D02*
X123776619Y-118642523D01*
X123353285Y-119126333D01*
X123534714Y-119126333D01*
X123655666Y-119186809D01*
X123716142Y-119247285D01*
X123776619Y-119368238D01*
X123776619Y-119670619D01*
X123716142Y-119791571D01*
X123655666Y-119852047D01*
X123534714Y-119912523D01*
X123171857Y-119912523D01*
X123050904Y-119852047D01*
X122990428Y-119791571D01*
X101037571Y-118817571D02*
X100977095Y-118878047D01*
X100795666Y-118938523D01*
X100674714Y-118938523D01*
X100493285Y-118878047D01*
X100372333Y-118757095D01*
X100311857Y-118636142D01*
X100251380Y-118394238D01*
X100251380Y-118212809D01*
X100311857Y-117970904D01*
X100372333Y-117849952D01*
X100493285Y-117729000D01*
X100674714Y-117668523D01*
X100795666Y-117668523D01*
X100977095Y-117729000D01*
X101037571Y-117789476D01*
X102247095Y-118938523D02*
X101521380Y-118938523D01*
X101884238Y-118938523D02*
X101884238Y-117668523D01*
X101763285Y-117849952D01*
X101642333Y-117970904D01*
X101521380Y-118031380D01*
X102730904Y-117789476D02*
X102791380Y-117729000D01*
X102912333Y-117668523D01*
X103214714Y-117668523D01*
X103335666Y-117729000D01*
X103396142Y-117789476D01*
X103456619Y-117910428D01*
X103456619Y-118031380D01*
X103396142Y-118212809D01*
X102670428Y-118938523D01*
X103456619Y-118938523D01*
X101037571Y-116531571D02*
X100977095Y-116592047D01*
X100795666Y-116652523D01*
X100674714Y-116652523D01*
X100493285Y-116592047D01*
X100372333Y-116471095D01*
X100311857Y-116350142D01*
X100251380Y-116108238D01*
X100251380Y-115926809D01*
X100311857Y-115684904D01*
X100372333Y-115563952D01*
X100493285Y-115443000D01*
X100674714Y-115382523D01*
X100795666Y-115382523D01*
X100977095Y-115443000D01*
X101037571Y-115503476D01*
X102247095Y-116652523D02*
X101521380Y-116652523D01*
X101884238Y-116652523D02*
X101884238Y-115382523D01*
X101763285Y-115563952D01*
X101642333Y-115684904D01*
X101521380Y-115745380D01*
X103456619Y-116652523D02*
X102730904Y-116652523D01*
X103093761Y-116652523D02*
X103093761Y-115382523D01*
X102972809Y-115563952D01*
X102851857Y-115684904D01*
X102730904Y-115745380D01*
X121813571Y-124023571D02*
X121753095Y-124084047D01*
X121571666Y-124144523D01*
X121450714Y-124144523D01*
X121269285Y-124084047D01*
X121148333Y-123963095D01*
X121087857Y-123842142D01*
X121027380Y-123600238D01*
X121027380Y-123418809D01*
X121087857Y-123176904D01*
X121148333Y-123055952D01*
X121269285Y-122935000D01*
X121450714Y-122874523D01*
X121571666Y-122874523D01*
X121753095Y-122935000D01*
X121813571Y-122995476D01*
X123023095Y-124144523D02*
X122297380Y-124144523D01*
X122660238Y-124144523D02*
X122660238Y-122874523D01*
X122539285Y-123055952D01*
X122418333Y-123176904D01*
X122297380Y-123237380D01*
X123809285Y-122874523D02*
X123930238Y-122874523D01*
X124051190Y-122935000D01*
X124111666Y-122995476D01*
X124172142Y-123116428D01*
X124232619Y-123358333D01*
X124232619Y-123660714D01*
X124172142Y-123902619D01*
X124111666Y-124023571D01*
X124051190Y-124084047D01*
X123930238Y-124144523D01*
X123809285Y-124144523D01*
X123688333Y-124084047D01*
X123627857Y-124023571D01*
X123567380Y-123902619D01*
X123506904Y-123660714D01*
X123506904Y-123358333D01*
X123567380Y-123116428D01*
X123627857Y-122995476D01*
X123688333Y-122935000D01*
X123809285Y-122874523D01*
X102599761Y-131254761D02*
X103204523Y-131254761D01*
X101934523Y-131678095D02*
X102599761Y-131254761D01*
X101934523Y-130831428D01*
X103204523Y-129742857D02*
X103204523Y-130468571D01*
X103204523Y-130105714D02*
X101934523Y-130105714D01*
X102115952Y-130226666D01*
X102236904Y-130347619D01*
X102297380Y-130468571D01*
X109043571Y-122131666D02*
X109104047Y-122192142D01*
X109164523Y-122373571D01*
X109164523Y-122494523D01*
X109104047Y-122675952D01*
X108983095Y-122796904D01*
X108862142Y-122857380D01*
X108620238Y-122917857D01*
X108438809Y-122917857D01*
X108196904Y-122857380D01*
X108075952Y-122796904D01*
X107955000Y-122675952D01*
X107894523Y-122494523D01*
X107894523Y-122373571D01*
X107955000Y-122192142D01*
X108015476Y-122131666D01*
X109164523Y-121526904D02*
X109164523Y-121285000D01*
X109104047Y-121164047D01*
X109043571Y-121103571D01*
X108862142Y-120982619D01*
X108620238Y-120922142D01*
X108136428Y-120922142D01*
X108015476Y-120982619D01*
X107955000Y-121043095D01*
X107894523Y-121164047D01*
X107894523Y-121405952D01*
X107955000Y-121526904D01*
X108015476Y-121587380D01*
X108136428Y-121647857D01*
X108438809Y-121647857D01*
X108559761Y-121587380D01*
X108620238Y-121526904D01*
X108680714Y-121405952D01*
X108680714Y-121164047D01*
X108620238Y-121043095D01*
X108559761Y-120982619D01*
X108438809Y-120922142D01*
X105821571Y-134961666D02*
X105882047Y-135022142D01*
X105942523Y-135203571D01*
X105942523Y-135324523D01*
X105882047Y-135505952D01*
X105761095Y-135626904D01*
X105640142Y-135687380D01*
X105398238Y-135747857D01*
X105216809Y-135747857D01*
X104974904Y-135687380D01*
X104853952Y-135626904D01*
X104733000Y-135505952D01*
X104672523Y-135324523D01*
X104672523Y-135203571D01*
X104733000Y-135022142D01*
X104793476Y-134961666D01*
X105216809Y-134235952D02*
X105156333Y-134356904D01*
X105095857Y-134417380D01*
X104974904Y-134477857D01*
X104914428Y-134477857D01*
X104793476Y-134417380D01*
X104733000Y-134356904D01*
X104672523Y-134235952D01*
X104672523Y-133994047D01*
X104733000Y-133873095D01*
X104793476Y-133812619D01*
X104914428Y-133752142D01*
X104974904Y-133752142D01*
X105095857Y-133812619D01*
X105156333Y-133873095D01*
X105216809Y-133994047D01*
X105216809Y-134235952D01*
X105277285Y-134356904D01*
X105337761Y-134417380D01*
X105458714Y-134477857D01*
X105700619Y-134477857D01*
X105821571Y-134417380D01*
X105882047Y-134356904D01*
X105942523Y-134235952D01*
X105942523Y-133994047D01*
X105882047Y-133873095D01*
X105821571Y-133812619D01*
X105700619Y-133752142D01*
X105458714Y-133752142D01*
X105337761Y-133812619D01*
X105277285Y-133873095D01*
X105216809Y-133994047D01*
X119223571Y-138474523D02*
X118800238Y-137869761D01*
X118497857Y-138474523D02*
X118497857Y-137204523D01*
X118981666Y-137204523D01*
X119102619Y-137265000D01*
X119163095Y-137325476D01*
X119223571Y-137446428D01*
X119223571Y-137627857D01*
X119163095Y-137748809D01*
X119102619Y-137809285D01*
X118981666Y-137869761D01*
X118497857Y-137869761D01*
X120433095Y-138474523D02*
X119707380Y-138474523D01*
X120070238Y-138474523D02*
X120070238Y-137204523D01*
X119949285Y-137385952D01*
X119828333Y-137506904D01*
X119707380Y-137567380D01*
X121219285Y-137204523D02*
X121340238Y-137204523D01*
X121461190Y-137265000D01*
X121521666Y-137325476D01*
X121582142Y-137446428D01*
X121642619Y-137688333D01*
X121642619Y-137990714D01*
X121582142Y-138232619D01*
X121521666Y-138353571D01*
X121461190Y-138414047D01*
X121340238Y-138474523D01*
X121219285Y-138474523D01*
X121098333Y-138414047D01*
X121037857Y-138353571D01*
X120977380Y-138232619D01*
X120916904Y-137990714D01*
X120916904Y-137688333D01*
X120977380Y-137446428D01*
X121037857Y-137325476D01*
X121098333Y-137265000D01*
X121219285Y-137204523D01*
X146528333Y-107614523D02*
X146105000Y-107009761D01*
X145802619Y-107614523D02*
X145802619Y-106344523D01*
X146286428Y-106344523D01*
X146407380Y-106405000D01*
X146467857Y-106465476D01*
X146528333Y-106586428D01*
X146528333Y-106767857D01*
X146467857Y-106888809D01*
X146407380Y-106949285D01*
X146286428Y-107009761D01*
X145802619Y-107009761D01*
X147133095Y-107614523D02*
X147375000Y-107614523D01*
X147495952Y-107554047D01*
X147556428Y-107493571D01*
X147677380Y-107312142D01*
X147737857Y-107070238D01*
X147737857Y-106586428D01*
X147677380Y-106465476D01*
X147616904Y-106405000D01*
X147495952Y-106344523D01*
X147254047Y-106344523D01*
X147133095Y-106405000D01*
X147072619Y-106465476D01*
X147012142Y-106586428D01*
X147012142Y-106888809D01*
X147072619Y-107009761D01*
X147133095Y-107070238D01*
X147254047Y-107130714D01*
X147495952Y-107130714D01*
X147616904Y-107070238D01*
X147677380Y-107009761D01*
X147737857Y-106888809D01*
X150378333Y-110613571D02*
X150317857Y-110674047D01*
X150136428Y-110734523D01*
X150015476Y-110734523D01*
X149834047Y-110674047D01*
X149713095Y-110553095D01*
X149652619Y-110432142D01*
X149592142Y-110190238D01*
X149592142Y-110008809D01*
X149652619Y-109766904D01*
X149713095Y-109645952D01*
X149834047Y-109525000D01*
X150015476Y-109464523D01*
X150136428Y-109464523D01*
X150317857Y-109525000D01*
X150378333Y-109585476D01*
X150801666Y-109464523D02*
X151648333Y-109464523D01*
X151104047Y-110734523D01*
X112944333Y-110936523D02*
X112521000Y-110331761D01*
X112218619Y-110936523D02*
X112218619Y-109666523D01*
X112702428Y-109666523D01*
X112823380Y-109727000D01*
X112883857Y-109787476D01*
X112944333Y-109908428D01*
X112944333Y-110089857D01*
X112883857Y-110210809D01*
X112823380Y-110271285D01*
X112702428Y-110331761D01*
X112218619Y-110331761D01*
X113670047Y-110210809D02*
X113549095Y-110150333D01*
X113488619Y-110089857D01*
X113428142Y-109968904D01*
X113428142Y-109908428D01*
X113488619Y-109787476D01*
X113549095Y-109727000D01*
X113670047Y-109666523D01*
X113911952Y-109666523D01*
X114032904Y-109727000D01*
X114093380Y-109787476D01*
X114153857Y-109908428D01*
X114153857Y-109968904D01*
X114093380Y-110089857D01*
X114032904Y-110150333D01*
X113911952Y-110210809D01*
X113670047Y-110210809D01*
X113549095Y-110271285D01*
X113488619Y-110331761D01*
X113428142Y-110452714D01*
X113428142Y-110694619D01*
X113488619Y-110815571D01*
X113549095Y-110876047D01*
X113670047Y-110936523D01*
X113911952Y-110936523D01*
X114032904Y-110876047D01*
X114093380Y-110815571D01*
X114153857Y-110694619D01*
X114153857Y-110452714D01*
X114093380Y-110331761D01*
X114032904Y-110271285D01*
X113911952Y-110210809D01*
X114142333Y-113346523D02*
X113719000Y-112741761D01*
X113416619Y-113346523D02*
X113416619Y-112076523D01*
X113900428Y-112076523D01*
X114021380Y-112137000D01*
X114081857Y-112197476D01*
X114142333Y-112318428D01*
X114142333Y-112499857D01*
X114081857Y-112620809D01*
X114021380Y-112681285D01*
X113900428Y-112741761D01*
X113416619Y-112741761D01*
X114565666Y-112076523D02*
X115412333Y-112076523D01*
X114868047Y-113346523D01*
X142308333Y-137123571D02*
X142247857Y-137184047D01*
X142066428Y-137244523D01*
X141945476Y-137244523D01*
X141764047Y-137184047D01*
X141643095Y-137063095D01*
X141582619Y-136942142D01*
X141522142Y-136700238D01*
X141522142Y-136518809D01*
X141582619Y-136276904D01*
X141643095Y-136155952D01*
X141764047Y-136035000D01*
X141945476Y-135974523D01*
X142066428Y-135974523D01*
X142247857Y-136035000D01*
X142308333Y-136095476D01*
X143396904Y-135974523D02*
X143155000Y-135974523D01*
X143034047Y-136035000D01*
X142973571Y-136095476D01*
X142852619Y-136276904D01*
X142792142Y-136518809D01*
X142792142Y-137002619D01*
X142852619Y-137123571D01*
X142913095Y-137184047D01*
X143034047Y-137244523D01*
X143275952Y-137244523D01*
X143396904Y-137184047D01*
X143457380Y-137123571D01*
X143517857Y-137002619D01*
X143517857Y-136700238D01*
X143457380Y-136579285D01*
X143396904Y-136518809D01*
X143275952Y-136458333D01*
X143034047Y-136458333D01*
X142913095Y-136518809D01*
X142852619Y-136579285D01*
X142792142Y-136700238D01*
X153268333Y-133074523D02*
X152845000Y-132469761D01*
X152542619Y-133074523D02*
X152542619Y-131804523D01*
X153026428Y-131804523D01*
X153147380Y-131865000D01*
X153207857Y-131925476D01*
X153268333Y-132046428D01*
X153268333Y-132227857D01*
X153207857Y-132348809D01*
X153147380Y-132409285D01*
X153026428Y-132469761D01*
X152542619Y-132469761D01*
X154356904Y-131804523D02*
X154115000Y-131804523D01*
X153994047Y-131865000D01*
X153933571Y-131925476D01*
X153812619Y-132106904D01*
X153752142Y-132348809D01*
X153752142Y-132832619D01*
X153812619Y-132953571D01*
X153873095Y-133014047D01*
X153994047Y-133074523D01*
X154235952Y-133074523D01*
X154356904Y-133014047D01*
X154417380Y-132953571D01*
X154477857Y-132832619D01*
X154477857Y-132530238D01*
X154417380Y-132409285D01*
X154356904Y-132348809D01*
X154235952Y-132288333D01*
X153994047Y-132288333D01*
X153873095Y-132348809D01*
X153812619Y-132409285D01*
X153752142Y-132530238D01*
X142928333Y-131933571D02*
X142867857Y-131994047D01*
X142686428Y-132054523D01*
X142565476Y-132054523D01*
X142384047Y-131994047D01*
X142263095Y-131873095D01*
X142202619Y-131752142D01*
X142142142Y-131510238D01*
X142142142Y-131328809D01*
X142202619Y-131086904D01*
X142263095Y-130965952D01*
X142384047Y-130845000D01*
X142565476Y-130784523D01*
X142686428Y-130784523D01*
X142867857Y-130845000D01*
X142928333Y-130905476D01*
X144016904Y-131207857D02*
X144016904Y-132054523D01*
X143714523Y-130724047D02*
X143412142Y-131631190D01*
X144198333Y-131631190D01*
X134303523Y-103166333D02*
X135210666Y-103166333D01*
X135392095Y-103226809D01*
X135513047Y-103347761D01*
X135573523Y-103529190D01*
X135573523Y-103650142D01*
X134424476Y-102622047D02*
X134364000Y-102561571D01*
X134303523Y-102440619D01*
X134303523Y-102138238D01*
X134364000Y-102017285D01*
X134424476Y-101956809D01*
X134545428Y-101896333D01*
X134666380Y-101896333D01*
X134847809Y-101956809D01*
X135573523Y-102682523D01*
X135573523Y-101896333D01*
X138726333Y-137226523D02*
X138303000Y-136621761D01*
X138000619Y-137226523D02*
X138000619Y-135956523D01*
X138484428Y-135956523D01*
X138605380Y-136017000D01*
X138665857Y-136077476D01*
X138726333Y-136198428D01*
X138726333Y-136379857D01*
X138665857Y-136500809D01*
X138605380Y-136561285D01*
X138484428Y-136621761D01*
X138000619Y-136621761D01*
X139875380Y-135956523D02*
X139270619Y-135956523D01*
X139210142Y-136561285D01*
X139270619Y-136500809D01*
X139391571Y-136440333D01*
X139693952Y-136440333D01*
X139814904Y-136500809D01*
X139875380Y-136561285D01*
X139935857Y-136682238D01*
X139935857Y-136984619D01*
X139875380Y-137105571D01*
X139814904Y-137166047D01*
X139693952Y-137226523D01*
X139391571Y-137226523D01*
X139270619Y-137166047D01*
X139210142Y-137105571D01*
X131868333Y-137374523D02*
X131445000Y-136769761D01*
X131142619Y-137374523D02*
X131142619Y-136104523D01*
X131626428Y-136104523D01*
X131747380Y-136165000D01*
X131807857Y-136225476D01*
X131868333Y-136346428D01*
X131868333Y-136527857D01*
X131807857Y-136648809D01*
X131747380Y-136709285D01*
X131626428Y-136769761D01*
X131142619Y-136769761D01*
X132956904Y-136527857D02*
X132956904Y-137374523D01*
X132654523Y-136044047D02*
X132352142Y-136951190D01*
X133138333Y-136951190D01*
X137382333Y-148818523D02*
X136959000Y-148213761D01*
X136656619Y-148818523D02*
X136656619Y-147548523D01*
X137140428Y-147548523D01*
X137261380Y-147609000D01*
X137321857Y-147669476D01*
X137382333Y-147790428D01*
X137382333Y-147971857D01*
X137321857Y-148092809D01*
X137261380Y-148153285D01*
X137140428Y-148213761D01*
X136656619Y-148213761D01*
X137805666Y-147548523D02*
X138591857Y-147548523D01*
X138168523Y-148032333D01*
X138349952Y-148032333D01*
X138470904Y-148092809D01*
X138531380Y-148153285D01*
X138591857Y-148274238D01*
X138591857Y-148576619D01*
X138531380Y-148697571D01*
X138470904Y-148758047D01*
X138349952Y-148818523D01*
X137987095Y-148818523D01*
X137866142Y-148758047D01*
X137805666Y-148697571D01*
X124290666Y-144943285D02*
X123867333Y-144943285D01*
X123867333Y-145608523D02*
X123867333Y-144338523D01*
X124472095Y-144338523D01*
X125621142Y-145608523D02*
X124895428Y-145608523D01*
X125258285Y-145608523D02*
X125258285Y-144338523D01*
X125137333Y-144519952D01*
X125016380Y-144640904D01*
X124895428Y-144701380D01*
X147693571Y-112451666D02*
X147754047Y-112512142D01*
X147814523Y-112693571D01*
X147814523Y-112814523D01*
X147754047Y-112995952D01*
X147633095Y-113116904D01*
X147512142Y-113177380D01*
X147270238Y-113237857D01*
X147088809Y-113237857D01*
X146846904Y-113177380D01*
X146725952Y-113116904D01*
X146605000Y-112995952D01*
X146544523Y-112814523D01*
X146544523Y-112693571D01*
X146605000Y-112512142D01*
X146665476Y-112451666D01*
X146544523Y-111302619D02*
X146544523Y-111907380D01*
X147149285Y-111967857D01*
X147088809Y-111907380D01*
X147028333Y-111786428D01*
X147028333Y-111484047D01*
X147088809Y-111363095D01*
X147149285Y-111302619D01*
X147270238Y-111242142D01*
X147572619Y-111242142D01*
X147693571Y-111302619D01*
X147754047Y-111363095D01*
X147814523Y-111484047D01*
X147814523Y-111786428D01*
X147754047Y-111907380D01*
X147693571Y-111967857D01*
X124502333Y-142185571D02*
X124441857Y-142246047D01*
X124260428Y-142306523D01*
X124139476Y-142306523D01*
X123958047Y-142246047D01*
X123837095Y-142125095D01*
X123776619Y-142004142D01*
X123716142Y-141762238D01*
X123716142Y-141580809D01*
X123776619Y-141338904D01*
X123837095Y-141217952D01*
X123958047Y-141097000D01*
X124139476Y-141036523D01*
X124260428Y-141036523D01*
X124441857Y-141097000D01*
X124502333Y-141157476D01*
X124925666Y-141036523D02*
X125711857Y-141036523D01*
X125288523Y-141520333D01*
X125469952Y-141520333D01*
X125590904Y-141580809D01*
X125651380Y-141641285D01*
X125711857Y-141762238D01*
X125711857Y-142064619D01*
X125651380Y-142185571D01*
X125590904Y-142246047D01*
X125469952Y-142306523D01*
X125107095Y-142306523D01*
X124986142Y-142246047D01*
X124925666Y-142185571D01*
X139218333Y-140513571D02*
X139157857Y-140574047D01*
X138976428Y-140634523D01*
X138855476Y-140634523D01*
X138674047Y-140574047D01*
X138553095Y-140453095D01*
X138492619Y-140332142D01*
X138432142Y-140090238D01*
X138432142Y-139908809D01*
X138492619Y-139666904D01*
X138553095Y-139545952D01*
X138674047Y-139425000D01*
X138855476Y-139364523D01*
X138976428Y-139364523D01*
X139157857Y-139425000D01*
X139218333Y-139485476D01*
X139702142Y-139485476D02*
X139762619Y-139425000D01*
X139883571Y-139364523D01*
X140185952Y-139364523D01*
X140306904Y-139425000D01*
X140367380Y-139485476D01*
X140427857Y-139606428D01*
X140427857Y-139727380D01*
X140367380Y-139908809D01*
X139641666Y-140634523D01*
X140427857Y-140634523D01*
X132376333Y-140661571D02*
X132315857Y-140722047D01*
X132134428Y-140782523D01*
X132013476Y-140782523D01*
X131832047Y-140722047D01*
X131711095Y-140601095D01*
X131650619Y-140480142D01*
X131590142Y-140238238D01*
X131590142Y-140056809D01*
X131650619Y-139814904D01*
X131711095Y-139693952D01*
X131832047Y-139573000D01*
X132013476Y-139512523D01*
X132134428Y-139512523D01*
X132315857Y-139573000D01*
X132376333Y-139633476D01*
X133585857Y-140782523D02*
X132860142Y-140782523D01*
X133223000Y-140782523D02*
X133223000Y-139512523D01*
X133102047Y-139693952D01*
X132981095Y-139814904D01*
X132860142Y-139875380D01*
X153168333Y-129724523D02*
X152745000Y-129119761D01*
X152442619Y-129724523D02*
X152442619Y-128454523D01*
X152926428Y-128454523D01*
X153047380Y-128515000D01*
X153107857Y-128575476D01*
X153168333Y-128696428D01*
X153168333Y-128877857D01*
X153107857Y-128998809D01*
X153047380Y-129059285D01*
X152926428Y-129119761D01*
X152442619Y-129119761D01*
X153652142Y-128575476D02*
X153712619Y-128515000D01*
X153833571Y-128454523D01*
X154135952Y-128454523D01*
X154256904Y-128515000D01*
X154317380Y-128575476D01*
X154377857Y-128696428D01*
X154377857Y-128817380D01*
X154317380Y-128998809D01*
X153591666Y-129724523D01*
X154377857Y-129724523D01*
X153298333Y-126844523D02*
X152875000Y-126239761D01*
X152572619Y-126844523D02*
X152572619Y-125574523D01*
X153056428Y-125574523D01*
X153177380Y-125635000D01*
X153237857Y-125695476D01*
X153298333Y-125816428D01*
X153298333Y-125997857D01*
X153237857Y-126118809D01*
X153177380Y-126179285D01*
X153056428Y-126239761D01*
X152572619Y-126239761D01*
X154507857Y-126844523D02*
X153782142Y-126844523D01*
X154145000Y-126844523D02*
X154145000Y-125574523D01*
X154024047Y-125755952D01*
X153903095Y-125876904D01*
X153782142Y-125937380D01*
D15*
X148852380Y-121201904D02*
X149661904Y-121201904D01*
X149757142Y-121154285D01*
X149804761Y-121106666D01*
X149852380Y-121011428D01*
X149852380Y-120820952D01*
X149804761Y-120725714D01*
X149757142Y-120678095D01*
X149661904Y-120630476D01*
X148852380Y-120630476D01*
X148947619Y-120201904D02*
X148900000Y-120154285D01*
X148852380Y-120059047D01*
X148852380Y-119820952D01*
X148900000Y-119725714D01*
X148947619Y-119678095D01*
X149042857Y-119630476D01*
X149138095Y-119630476D01*
X149280952Y-119678095D01*
X149852380Y-120249523D01*
X149852380Y-119630476D01*
X113338095Y-114202380D02*
X113338095Y-115011904D01*
X113385714Y-115107142D01*
X113433333Y-115154761D01*
X113528571Y-115202380D01*
X113719047Y-115202380D01*
X113814285Y-115154761D01*
X113861904Y-115107142D01*
X113909523Y-115011904D01*
X113909523Y-114202380D01*
X114909523Y-115202380D02*
X114338095Y-115202380D01*
X114623809Y-115202380D02*
X114623809Y-114202380D01*
X114528571Y-114345238D01*
X114433333Y-114440476D01*
X114338095Y-114488095D01*
X133524666Y-146646380D02*
X133524666Y-147360666D01*
X133477047Y-147503523D01*
X133381809Y-147598761D01*
X133238952Y-147646380D01*
X133143714Y-147646380D01*
X134524666Y-147646380D02*
X133953238Y-147646380D01*
X134238952Y-147646380D02*
X134238952Y-146646380D01*
X134143714Y-146789238D01*
X134048476Y-146884476D01*
X133953238Y-146932095D01*
%LPC*%
D17*
X147610000Y-102310000D03*
X147610000Y-95810000D03*
X152110000Y-102310000D03*
X152110000Y-95810000D03*
D18*
X123574000Y-121158000D03*
X120774000Y-121158000D03*
X104394000Y-118364000D03*
X107194000Y-118364000D03*
X104388000Y-116078000D03*
X107188000Y-116078000D03*
D19*
X121920000Y-127000000D03*
D20*
X123420000Y-127000000D03*
D21*
X102630000Y-125900000D03*
X102630000Y-135400000D03*
D22*
X106770000Y-123320000D03*
X106770000Y-120520000D03*
X107188000Y-133350000D03*
X107188000Y-136150000D03*
D23*
X121555000Y-135500000D03*
X118555000Y-135500000D03*
D24*
X118330000Y-132530000D03*
X121330000Y-132530000D03*
D23*
X148240000Y-108960000D03*
X145240000Y-108960000D03*
D18*
X151990000Y-111980000D03*
X149190000Y-111980000D03*
D23*
X111506000Y-112522000D03*
X114506000Y-112522000D03*
X112824000Y-109982000D03*
X115824000Y-109982000D03*
D18*
X139680000Y-134710000D03*
X142480000Y-134710000D03*
D23*
X155490000Y-132485000D03*
X158490000Y-132485000D03*
D24*
X163450000Y-132410000D03*
X160450000Y-132410000D03*
D19*
X142490000Y-127880000D03*
D20*
X143990000Y-127880000D03*
D25*
X136144000Y-107188000D03*
X134874000Y-107188000D03*
X136144000Y-105918000D03*
X134874000Y-105918000D03*
X136144000Y-104648000D03*
X134874000Y-104648000D03*
X136144000Y-103378000D03*
X134874000Y-103378000D03*
X136144000Y-102108000D03*
X134874000Y-102108000D03*
X136144000Y-100838000D03*
X134874000Y-100838000D03*
X136144000Y-99568000D03*
X134874000Y-99568000D03*
X136144000Y-98298000D03*
X134874000Y-98298000D03*
D26*
X166797056Y-145368944D03*
X165100000Y-144666000D03*
X163402944Y-145368944D03*
X162700000Y-147066000D03*
X163402944Y-148763056D03*
X165100000Y-149466000D03*
X166797056Y-148763056D03*
X167500000Y-147066000D03*
D27*
X165100000Y-147066000D03*
D26*
X166797056Y-95368944D03*
X165100000Y-94666000D03*
X163402944Y-95368944D03*
X162700000Y-97066000D03*
X163402944Y-98763056D03*
X165100000Y-99466000D03*
X166797056Y-98763056D03*
X167500000Y-97066000D03*
D27*
X165100000Y-97066000D03*
D26*
X104313056Y-145368944D03*
X102616000Y-144666000D03*
X100918944Y-145368944D03*
X100216000Y-147066000D03*
X100918944Y-148763056D03*
X102616000Y-149466000D03*
X104313056Y-148763056D03*
X105016000Y-147066000D03*
D27*
X102616000Y-147066000D03*
D26*
X104313056Y-95368944D03*
X102616000Y-94666000D03*
X100918944Y-95368944D03*
X100216000Y-97066000D03*
X100918944Y-98763056D03*
X102616000Y-99466000D03*
X104313056Y-98763056D03*
X105016000Y-97066000D03*
D27*
X102616000Y-97066000D03*
D28*
X136652000Y-138430000D03*
X136652000Y-135530000D03*
X134366000Y-138430000D03*
X134366000Y-135530000D03*
D29*
X136144000Y-146304000D03*
X139044000Y-146304000D03*
D30*
X131318000Y-145034000D03*
X126718000Y-145034000D03*
D22*
X145420000Y-113640000D03*
X145420000Y-110840000D03*
D18*
X126746000Y-141478000D03*
X129546000Y-141478000D03*
D31*
X140120000Y-138440000D03*
X138500000Y-138440000D03*
X130762000Y-138430000D03*
X132382000Y-138430000D03*
D23*
X155490000Y-129367500D03*
X158490000Y-129367500D03*
X155490000Y-126250000D03*
X158490000Y-126250000D03*
D32*
X147375000Y-124040000D03*
X146725000Y-124040000D03*
X146075000Y-124040000D03*
X145425000Y-124040000D03*
X144775000Y-124040000D03*
X144125000Y-124040000D03*
X143475000Y-124040000D03*
X142825000Y-124040000D03*
X142175000Y-124040000D03*
X141525000Y-124040000D03*
X140875000Y-124040000D03*
X140225000Y-124040000D03*
X139575000Y-124040000D03*
X138925000Y-124040000D03*
X138925000Y-116840000D03*
X139575000Y-116840000D03*
X140225000Y-116840000D03*
X140875000Y-116840000D03*
X141525000Y-116840000D03*
X142175000Y-116840000D03*
X142825000Y-116840000D03*
X143475000Y-116840000D03*
X144125000Y-116840000D03*
X144775000Y-116840000D03*
X145425000Y-116840000D03*
X146075000Y-116840000D03*
X146725000Y-116840000D03*
X147375000Y-116840000D03*
D24*
X163450000Y-129292500D03*
X160450000Y-129292500D03*
D33*
X111300000Y-116550000D03*
X112100000Y-116550000D03*
X112900000Y-116550000D03*
X113700000Y-116550000D03*
X114500000Y-116550000D03*
X115300000Y-116550000D03*
X116100000Y-116550000D03*
X116900000Y-116550000D03*
D34*
X118350000Y-118000000D03*
X118350000Y-118800000D03*
X118350000Y-119600000D03*
X118350000Y-120400000D03*
X118350000Y-121200000D03*
X118350000Y-122000000D03*
X118350000Y-122800000D03*
X118350000Y-123600000D03*
D33*
X116900000Y-125050000D03*
X116100000Y-125050000D03*
X115300000Y-125050000D03*
X114500000Y-125050000D03*
X113700000Y-125050000D03*
X112900000Y-125050000D03*
X112100000Y-125050000D03*
X111300000Y-125050000D03*
D34*
X109850000Y-123600000D03*
X109850000Y-122800000D03*
X109850000Y-122000000D03*
X109850000Y-121200000D03*
X109850000Y-120400000D03*
X109850000Y-119600000D03*
X109850000Y-118800000D03*
X109850000Y-118000000D03*
D35*
X130958000Y-151544000D03*
X136758000Y-151544000D03*
D36*
X137358000Y-151544000D03*
X130358000Y-151544000D03*
D37*
X132858000Y-151544000D03*
D38*
X136358000Y-148844000D03*
D39*
X133858000Y-148844000D03*
X134508000Y-148844000D03*
X135158000Y-148844000D03*
X132558000Y-148844000D03*
X133208000Y-148844000D03*
D38*
X131358000Y-148844000D03*
D37*
X134858000Y-151544000D03*
D24*
X163450000Y-126175000D03*
X160450000Y-126175000D03*
M02*
