M48
; DRILL file {KiCad (5.1.9)-1} date 05/02/21 01:09:01
; FORMAT={-:-/ absolute / metric / decimal}
; #@! TF.CreationDate,2021-05-02T01:09:01+02:00
; #@! TF.GenerationSoftware,Kicad,Pcbnew,(5.1.9)-1
; #@! TF.FileFunction,Plated,1,4,PTH
FMAT,2
METRIC
T1C0.400
T2C0.500
T3C0.600
T4C0.650
T5C0.850
T6C1.000
T7C3.200
%
G90
G05
T1
X104.394Y-114.3
X104.394Y-120.142
X105.156Y-120.65
X106.68Y-110.236
X107.188Y-137.922
X107.696Y-110.236
X111.061Y-121.15
X111.76Y-120.396
X111.76Y-121.92
X112.014Y-118.11
X112.707Y-119.61
X113.284Y-118.618
X115.316Y-123.65
X115.57Y-119.38
X115.57Y-129.794
X116.078Y-127.508
X116.332Y-122.428
X116.586Y-120.65
X117.094Y-127.254
X117.094Y-129.794
X117.094Y-135.636
X120.106Y-116.368
X120.142Y-123.698
X120.396Y-105.918
X120.396Y-119.38
X121.412Y-114.796
X124.714Y-121.158
X125.27Y-140.34
X125.27Y-142.188
X125.27Y-144.035
X125.27Y-145.882
X125.27Y-147.73
X125.984Y-113.03
X126.216Y-115.084
X126.73Y-147.75
X129.032Y-109.982
X129.286Y-97.282
X129.54Y-139.7
X129.794Y-110.744
X130.556Y-115.316
X130.81Y-140.716
X130.81Y-142.494
X131.064Y-105.664
X131.064Y-123.698
X131.826Y-109.22
X132.08Y-117.856
X132.312Y-115.592
X132.842Y-107.95
X132.842Y-113.792
X133.096Y-101.092
X134.112Y-109.22
X134.515Y-115.675
X134.62Y-108.204
X135.382Y-116.332
X135.45Y-144.46
X136.144Y-146.304
X136.73Y-144.38
X137.265Y-101.749
X137.922Y-131.826
X138.464Y-133.338
X138.706Y-104.88
X138.706Y-108.69
X139.192Y-114.046
X139.78Y-121.71
X139.954Y-109.728
X140.992Y-110.976
X141.54Y-138.47
X142.23Y-121.72
X143.256Y-108.712
X143.48Y-118.46
X143.51Y-110.236
X143.69Y-121.65
X143.82Y-134.69
X145.78Y-118.68
X145.82Y-121.61
X155.48Y-134.5
T2
X100.216Y-97.066
X100.216Y-147.066
X100.919Y-95.369
X100.919Y-98.763
X100.919Y-145.369
X100.919Y-148.763
X102.616Y-94.666
X102.616Y-99.466
X102.616Y-144.666
X102.616Y-149.466
X104.313Y-95.369
X104.313Y-98.763
X104.313Y-145.369
X104.313Y-148.763
X105.016Y-97.066
X105.016Y-147.066
X162.7Y-97.066
X162.7Y-147.066
X163.403Y-95.369
X163.403Y-98.763
X163.403Y-145.369
X163.403Y-148.763
X165.1Y-94.666
X165.1Y-99.466
X165.1Y-144.666
X165.1Y-149.466
X166.797Y-95.369
X166.797Y-98.763
X166.797Y-145.369
X166.797Y-148.763
X167.5Y-97.066
X167.5Y-147.066
T4
X121.92Y-127.0
X123.42Y-127.0
X134.874Y-98.298
X134.874Y-99.568
X134.874Y-100.838
X134.874Y-102.108
X134.874Y-103.378
X134.874Y-104.648
X134.874Y-105.918
X134.874Y-107.188
X136.144Y-98.298
X136.144Y-99.568
X136.144Y-100.838
X136.144Y-102.108
X136.144Y-103.378
X136.144Y-104.648
X136.144Y-105.918
X136.144Y-107.188
X142.49Y-127.88
X143.99Y-127.88
T5
X131.358Y-148.844
X136.358Y-148.844
T6
X147.61Y-95.81
X147.61Y-102.31
X152.11Y-95.81
X152.11Y-102.31
T7
X102.616Y-97.066
X102.616Y-147.066
X165.1Y-97.066
X165.1Y-147.066
T3
X130.358Y-151.894G85X130.358Y-151.194
G05
X137.358Y-151.194G85X137.358Y-151.894
G05
T0
M30
