G04 #@! TF.GenerationSoftware,KiCad,Pcbnew,(5.1.9)-1*
G04 #@! TF.CreationDate,2021-05-02T01:08:58+02:00*
G04 #@! TF.ProjectId,atmega32,61746d65-6761-4333-922e-6b696361645f,rev?*
G04 #@! TF.SameCoordinates,Original*
G04 #@! TF.FileFunction,Paste,Top*
G04 #@! TF.FilePolarity,Positive*
%FSLAX46Y46*%
G04 Gerber Fmt 4.6, Leading zero omitted, Abs format (unit mm)*
G04 Created by KiCad (PCBNEW (5.1.9)-1) date 2021-05-02 01:08:58*
%MOMM*%
%LPD*%
G01*
G04 APERTURE LIST*
%ADD10R,1.020000X1.820000*%
%ADD11R,2.000000X5.500000*%
%ADD12R,1.820000X1.020000*%
%ADD13R,1.050000X1.800000*%
%ADD14R,1.100000X1.550000*%
%ADD15R,1.700000X1.100000*%
%ADD16R,1.100000X1.700000*%
%ADD17R,0.850000X3.430000*%
%ADD18R,0.960000X1.390000*%
%ADD19R,0.450000X1.750000*%
%ADD20R,0.550000X1.600000*%
%ADD21R,1.600000X0.550000*%
%ADD22R,1.500000X1.900000*%
%ADD23R,0.400000X1.350000*%
G04 APERTURE END LIST*
D10*
X123574000Y-121158000D03*
X120774000Y-121158000D03*
X104394000Y-118364000D03*
X107194000Y-118364000D03*
X104388000Y-116078000D03*
X107188000Y-116078000D03*
D11*
X102630000Y-125900000D03*
X102630000Y-135400000D03*
D12*
X106770000Y-123320000D03*
X106770000Y-120520000D03*
X107188000Y-133350000D03*
X107188000Y-136150000D03*
D13*
X121555000Y-135500000D03*
X118555000Y-135500000D03*
D14*
X118330000Y-132530000D03*
X121330000Y-132530000D03*
D13*
X148240000Y-108960000D03*
X145240000Y-108960000D03*
D10*
X151990000Y-111980000D03*
X149190000Y-111980000D03*
D13*
X111506000Y-112522000D03*
X114506000Y-112522000D03*
X112824000Y-109982000D03*
X115824000Y-109982000D03*
D10*
X139680000Y-134710000D03*
X142480000Y-134710000D03*
D13*
X155490000Y-132485000D03*
X158490000Y-132485000D03*
D14*
X163450000Y-132410000D03*
X160450000Y-132410000D03*
D15*
X136652000Y-138430000D03*
X136652000Y-135530000D03*
X134366000Y-138430000D03*
X134366000Y-135530000D03*
D16*
X136144000Y-146304000D03*
X139044000Y-146304000D03*
D17*
X131318000Y-145034000D03*
X126718000Y-145034000D03*
D12*
X145420000Y-113640000D03*
X145420000Y-110840000D03*
D10*
X126746000Y-141478000D03*
X129546000Y-141478000D03*
D18*
X140120000Y-138440000D03*
X138500000Y-138440000D03*
X130762000Y-138430000D03*
X132382000Y-138430000D03*
D13*
X155490000Y-129367500D03*
X158490000Y-129367500D03*
X155490000Y-126250000D03*
X158490000Y-126250000D03*
D19*
X147375000Y-124040000D03*
X146725000Y-124040000D03*
X146075000Y-124040000D03*
X145425000Y-124040000D03*
X144775000Y-124040000D03*
X144125000Y-124040000D03*
X143475000Y-124040000D03*
X142825000Y-124040000D03*
X142175000Y-124040000D03*
X141525000Y-124040000D03*
X140875000Y-124040000D03*
X140225000Y-124040000D03*
X139575000Y-124040000D03*
X138925000Y-124040000D03*
X138925000Y-116840000D03*
X139575000Y-116840000D03*
X140225000Y-116840000D03*
X140875000Y-116840000D03*
X141525000Y-116840000D03*
X142175000Y-116840000D03*
X142825000Y-116840000D03*
X143475000Y-116840000D03*
X144125000Y-116840000D03*
X144775000Y-116840000D03*
X145425000Y-116840000D03*
X146075000Y-116840000D03*
X146725000Y-116840000D03*
X147375000Y-116840000D03*
D14*
X163450000Y-129292500D03*
X160450000Y-129292500D03*
D20*
X111300000Y-116550000D03*
X112100000Y-116550000D03*
X112900000Y-116550000D03*
X113700000Y-116550000D03*
X114500000Y-116550000D03*
X115300000Y-116550000D03*
X116100000Y-116550000D03*
X116900000Y-116550000D03*
D21*
X118350000Y-118000000D03*
X118350000Y-118800000D03*
X118350000Y-119600000D03*
X118350000Y-120400000D03*
X118350000Y-121200000D03*
X118350000Y-122000000D03*
X118350000Y-122800000D03*
X118350000Y-123600000D03*
D20*
X116900000Y-125050000D03*
X116100000Y-125050000D03*
X115300000Y-125050000D03*
X114500000Y-125050000D03*
X113700000Y-125050000D03*
X112900000Y-125050000D03*
X112100000Y-125050000D03*
X111300000Y-125050000D03*
D21*
X109850000Y-123600000D03*
X109850000Y-122800000D03*
X109850000Y-122000000D03*
X109850000Y-121200000D03*
X109850000Y-120400000D03*
X109850000Y-119600000D03*
X109850000Y-118800000D03*
X109850000Y-118000000D03*
D22*
X132858000Y-151544000D03*
D23*
X133858000Y-148844000D03*
X134508000Y-148844000D03*
X135158000Y-148844000D03*
X132558000Y-148844000D03*
X133208000Y-148844000D03*
D22*
X134858000Y-151544000D03*
D14*
X163450000Y-126175000D03*
X160450000Y-126175000D03*
M02*
