G04 #@! TF.GenerationSoftware,KiCad,Pcbnew,(5.1.9)-1*
G04 #@! TF.CreationDate,2021-05-01T17:45:06+02:00*
G04 #@! TF.ProjectId,sh_control,73685f63-6f6e-4747-926f-6c2e6b696361,3.2*
G04 #@! TF.SameCoordinates,Original*
G04 #@! TF.FileFunction,Copper,L1,Top*
G04 #@! TF.FilePolarity,Positive*
%FSLAX46Y46*%
G04 Gerber Fmt 4.6, Leading zero omitted, Abs format (unit mm)*
G04 Created by KiCad (PCBNEW (5.1.9)-1) date 2021-05-01 17:45:06*
%MOMM*%
%LPD*%
G01*
G04 APERTURE LIST*
G04 #@! TA.AperFunction,ComponentPad*
%ADD10C,1.500000*%
G04 #@! TD*
G04 #@! TA.AperFunction,SMDPad,CuDef*
%ADD11R,1.700000X1.100000*%
G04 #@! TD*
G04 #@! TA.AperFunction,SMDPad,CuDef*
%ADD12R,1.800000X1.200000*%
G04 #@! TD*
G04 #@! TA.AperFunction,ComponentPad*
%ADD13C,1.600000*%
G04 #@! TD*
G04 #@! TA.AperFunction,ComponentPad*
%ADD14R,1.500000X1.600000*%
G04 #@! TD*
G04 #@! TA.AperFunction,ComponentPad*
%ADD15C,3.000000*%
G04 #@! TD*
G04 #@! TA.AperFunction,ComponentPad*
%ADD16C,1.050000*%
G04 #@! TD*
G04 #@! TA.AperFunction,ComponentPad*
%ADD17R,1.050000X1.050000*%
G04 #@! TD*
G04 #@! TA.AperFunction,SMDPad,CuDef*
%ADD18R,0.960000X1.390000*%
G04 #@! TD*
G04 #@! TA.AperFunction,ComponentPad*
%ADD19C,1.192000*%
G04 #@! TD*
G04 #@! TA.AperFunction,SMDPad,CuDef*
%ADD20C,2.500000*%
G04 #@! TD*
G04 #@! TA.AperFunction,SMDPad,CuDef*
%ADD21R,1.100000X1.700000*%
G04 #@! TD*
G04 #@! TA.AperFunction,SMDPad,CuDef*
%ADD22R,1.400000X1.050000*%
G04 #@! TD*
G04 #@! TA.AperFunction,SMDPad,CuDef*
%ADD23R,1.050000X1.800000*%
G04 #@! TD*
G04 #@! TA.AperFunction,SMDPad,CuDef*
%ADD24R,1.050000X1.400000*%
G04 #@! TD*
G04 #@! TA.AperFunction,SMDPad,CuDef*
%ADD25R,1.800000X1.050000*%
G04 #@! TD*
G04 #@! TA.AperFunction,SMDPad,CuDef*
%ADD26R,1.200000X1.800000*%
G04 #@! TD*
G04 #@! TA.AperFunction,ComponentPad*
%ADD27C,1.725000*%
G04 #@! TD*
G04 #@! TA.AperFunction,ComponentPad*
%ADD28R,1.725000X1.725000*%
G04 #@! TD*
G04 #@! TA.AperFunction,SMDPad,CuDef*
%ADD29R,1.200000X1.900000*%
G04 #@! TD*
G04 #@! TA.AperFunction,ComponentPad*
%ADD30O,1.200000X1.900000*%
G04 #@! TD*
G04 #@! TA.AperFunction,SMDPad,CuDef*
%ADD31R,1.500000X1.900000*%
G04 #@! TD*
G04 #@! TA.AperFunction,ComponentPad*
%ADD32C,1.450000*%
G04 #@! TD*
G04 #@! TA.AperFunction,SMDPad,CuDef*
%ADD33R,0.400000X1.350000*%
G04 #@! TD*
G04 #@! TA.AperFunction,SMDPad,CuDef*
%ADD34R,0.450000X1.475000*%
G04 #@! TD*
G04 #@! TA.AperFunction,SMDPad,CuDef*
%ADD35R,1.525000X0.650000*%
G04 #@! TD*
G04 #@! TA.AperFunction,SMDPad,CuDef*
%ADD36R,1.475000X0.600000*%
G04 #@! TD*
G04 #@! TA.AperFunction,SMDPad,CuDef*
%ADD37R,0.600000X1.475000*%
G04 #@! TD*
G04 #@! TA.AperFunction,SMDPad,CuDef*
%ADD38R,1.846000X2.150000*%
G04 #@! TD*
G04 #@! TA.AperFunction,SMDPad,CuDef*
%ADD39R,1.400000X0.450000*%
G04 #@! TD*
G04 #@! TA.AperFunction,SMDPad,CuDef*
%ADD40R,0.230000X0.825000*%
G04 #@! TD*
G04 #@! TA.AperFunction,SMDPad,CuDef*
%ADD41R,1.500000X1.750000*%
G04 #@! TD*
G04 #@! TA.AperFunction,SMDPad,CuDef*
%ADD42R,0.600000X0.310000*%
G04 #@! TD*
G04 #@! TA.AperFunction,SMDPad,CuDef*
%ADD43R,1.750000X3.200000*%
G04 #@! TD*
G04 #@! TA.AperFunction,SMDPad,CuDef*
%ADD44R,1.750000X0.950000*%
G04 #@! TD*
G04 #@! TA.AperFunction,SMDPad,CuDef*
%ADD45R,1.475000X0.450000*%
G04 #@! TD*
G04 #@! TA.AperFunction,ComponentPad*
%ADD46C,0.800000*%
G04 #@! TD*
G04 #@! TA.AperFunction,ComponentPad*
%ADD47C,6.400000*%
G04 #@! TD*
G04 #@! TA.AperFunction,SMDPad,CuDef*
%ADD48R,1.100000X1.550000*%
G04 #@! TD*
G04 #@! TA.AperFunction,ComponentPad*
%ADD49R,1.575000X1.575000*%
G04 #@! TD*
G04 #@! TA.AperFunction,ComponentPad*
%ADD50C,1.575000*%
G04 #@! TD*
G04 #@! TA.AperFunction,SMDPad,CuDef*
%ADD51R,1.390000X0.960000*%
G04 #@! TD*
G04 #@! TA.AperFunction,SMDPad,CuDef*
%ADD52R,1.030000X1.870000*%
G04 #@! TD*
G04 #@! TA.AperFunction,SMDPad,CuDef*
%ADD53R,1.870000X1.030000*%
G04 #@! TD*
G04 #@! TA.AperFunction,SMDPad,CuDef*
%ADD54R,1.820000X1.020000*%
G04 #@! TD*
G04 #@! TA.AperFunction,SMDPad,CuDef*
%ADD55R,1.020000X1.820000*%
G04 #@! TD*
G04 #@! TA.AperFunction,ComponentPad*
%ADD56C,0.900000*%
G04 #@! TD*
G04 #@! TA.AperFunction,SMDPad,CuDef*
%ADD57R,2.110000X1.350000*%
G04 #@! TD*
G04 #@! TA.AperFunction,SMDPad,CuDef*
%ADD58R,1.350000X2.110000*%
G04 #@! TD*
G04 #@! TA.AperFunction,SMDPad,CuDef*
%ADD59R,1.820000X1.050000*%
G04 #@! TD*
G04 #@! TA.AperFunction,ViaPad*
%ADD60C,0.800000*%
G04 #@! TD*
G04 #@! TA.AperFunction,Conductor*
%ADD61C,0.300000*%
G04 #@! TD*
G04 #@! TA.AperFunction,Conductor*
%ADD62C,0.500000*%
G04 #@! TD*
G04 #@! TA.AperFunction,Conductor*
%ADD63C,0.250000*%
G04 #@! TD*
G04 #@! TA.AperFunction,Conductor*
%ADD64C,1.000000*%
G04 #@! TD*
G04 #@! TA.AperFunction,Conductor*
%ADD65C,0.261112*%
G04 #@! TD*
G04 #@! TA.AperFunction,Conductor*
%ADD66C,0.254000*%
G04 #@! TD*
G04 #@! TA.AperFunction,Conductor*
%ADD67C,0.100000*%
G04 #@! TD*
G04 APERTURE END LIST*
D10*
X168742800Y-110717400D03*
X168742800Y-104217400D03*
X173242800Y-110717400D03*
X173242800Y-104217400D03*
D11*
X149860000Y-75268000D03*
X149860000Y-72368000D03*
D12*
X183134000Y-71120000D03*
X183134000Y-74120000D03*
X183007000Y-109474000D03*
X183007000Y-112474000D03*
X183134000Y-67516000D03*
X183134000Y-64516000D03*
X183007000Y-106680000D03*
X183007000Y-103680000D03*
D11*
X152400000Y-75268000D03*
X152400000Y-72368000D03*
X159766000Y-75819000D03*
X159766000Y-72919000D03*
X162052000Y-75798000D03*
X162052000Y-72898000D03*
D13*
X188722000Y-65898000D03*
X188722000Y-68398000D03*
X188722000Y-70398000D03*
D14*
X188722000Y-72898000D03*
D15*
X191432000Y-62828000D03*
X191432000Y-75968000D03*
D13*
X188722000Y-104760000D03*
X188722000Y-107260000D03*
X188722000Y-109260000D03*
D14*
X188722000Y-111760000D03*
D15*
X191432000Y-101690000D03*
X191432000Y-114830000D03*
D16*
X188722000Y-82510000D03*
D17*
X188722000Y-80010000D03*
D16*
X188722000Y-98004000D03*
D17*
X188722000Y-95504000D03*
D18*
X150416000Y-76962000D03*
X148796000Y-76962000D03*
X158846000Y-77724000D03*
X157226000Y-77724000D03*
X151892000Y-76962000D03*
X153512000Y-76962000D03*
X160147000Y-77724000D03*
X161767000Y-77724000D03*
D19*
X141795500Y-86623500D03*
X141795500Y-91503500D03*
D20*
X134576000Y-56034000D03*
X147320000Y-124460000D03*
X162560000Y-124460000D03*
D12*
X126746000Y-67945000D03*
X126746000Y-64945000D03*
X128143000Y-107164000D03*
X128143000Y-104164000D03*
X126746000Y-70231000D03*
X126746000Y-73231000D03*
X128143000Y-108990000D03*
X128143000Y-111990000D03*
D21*
X165227000Y-80391000D03*
X168127000Y-80391000D03*
X165227000Y-82804000D03*
X168127000Y-82804000D03*
X165227000Y-88265000D03*
X168127000Y-88265000D03*
X165248000Y-90678000D03*
X168148000Y-90678000D03*
D22*
X147955000Y-85720000D03*
X147955000Y-83820000D03*
D23*
X182529000Y-41148000D03*
X179529000Y-41148000D03*
X158780000Y-41148000D03*
X155780000Y-41148000D03*
X135031000Y-41148000D03*
X132031000Y-41148000D03*
D24*
X162174000Y-102108000D03*
X160274000Y-102108000D03*
D25*
X160528000Y-96726000D03*
X160528000Y-93726000D03*
D23*
X149864000Y-42064000D03*
X152864000Y-42064000D03*
D26*
X152864000Y-44858000D03*
X149864000Y-44858000D03*
D22*
X157988000Y-104013000D03*
X157988000Y-102113000D03*
D11*
X147530000Y-42064000D03*
X147530000Y-44964000D03*
X154940000Y-115021360D03*
X154940000Y-112121360D03*
X157480000Y-115030000D03*
X157480000Y-112130000D03*
D23*
X180550000Y-47652000D03*
X183550000Y-47652000D03*
D11*
X148531580Y-121566260D03*
X148531580Y-118666260D03*
D13*
X121158000Y-72532000D03*
X121158000Y-70032000D03*
X121158000Y-68032000D03*
D14*
X121158000Y-65532000D03*
D15*
X118448000Y-75602000D03*
X118448000Y-62462000D03*
D13*
X121158000Y-111648000D03*
X121158000Y-109148000D03*
X121158000Y-107148000D03*
D14*
X121158000Y-104648000D03*
D15*
X118448000Y-114718000D03*
X118448000Y-101578000D03*
D27*
X167640000Y-65024000D03*
X167640000Y-67564000D03*
X165100000Y-65024000D03*
X165100000Y-67564000D03*
X162560000Y-65024000D03*
D28*
X162560000Y-67564000D03*
D27*
X147574000Y-65024000D03*
X147574000Y-67564000D03*
X145034000Y-65024000D03*
X145034000Y-67564000D03*
X142494000Y-65024000D03*
D28*
X142494000Y-67564000D03*
D29*
X152040000Y-126459500D03*
X157840000Y-126459500D03*
D30*
X158440000Y-126459500D03*
X151440000Y-126459500D03*
D31*
X153940000Y-126459500D03*
D32*
X157440000Y-123759500D03*
D33*
X154940000Y-123759500D03*
X155590000Y-123759500D03*
X156240000Y-123759500D03*
X153640000Y-123759500D03*
X154290000Y-123759500D03*
D32*
X152440000Y-123759500D03*
D31*
X155940000Y-126459500D03*
D34*
X133055000Y-90822000D03*
X132405000Y-90822000D03*
X131755000Y-90822000D03*
X131105000Y-90822000D03*
X131105000Y-84946000D03*
X131755000Y-84946000D03*
X132405000Y-84946000D03*
X133055000Y-84946000D03*
D35*
X178898000Y-93091000D03*
X178898000Y-91821000D03*
X178898000Y-90551000D03*
X178898000Y-89281000D03*
X178898000Y-88011000D03*
X178898000Y-86741000D03*
X178898000Y-85471000D03*
X178898000Y-84201000D03*
X184322000Y-84201000D03*
X184322000Y-85471000D03*
X184322000Y-86741000D03*
X184322000Y-88011000D03*
X184322000Y-89281000D03*
X184322000Y-90551000D03*
X184322000Y-91821000D03*
X184322000Y-93091000D03*
D36*
X150702000Y-88398000D03*
X150702000Y-87598000D03*
X150702000Y-86798000D03*
X150702000Y-85998000D03*
X150702000Y-85198000D03*
X150702000Y-84398000D03*
X150702000Y-83598000D03*
X150702000Y-82798000D03*
D37*
X152140000Y-81360000D03*
X152940000Y-81360000D03*
X153740000Y-81360000D03*
X154540000Y-81360000D03*
X155340000Y-81360000D03*
X156140000Y-81360000D03*
X156940000Y-81360000D03*
X157740000Y-81360000D03*
D36*
X159178000Y-82798000D03*
X159178000Y-83598000D03*
X159178000Y-84398000D03*
X159178000Y-85198000D03*
X159178000Y-85998000D03*
X159178000Y-86798000D03*
X159178000Y-87598000D03*
X159178000Y-88398000D03*
D37*
X157740000Y-89836000D03*
X156940000Y-89836000D03*
X156140000Y-89836000D03*
X155340000Y-89836000D03*
X154540000Y-89836000D03*
X153740000Y-89836000D03*
X152940000Y-89836000D03*
X152140000Y-89836000D03*
D38*
X132376000Y-49979000D03*
D39*
X134576000Y-49004000D03*
X134576000Y-49654000D03*
X134576000Y-50304000D03*
X134576000Y-50954000D03*
X130176000Y-50954000D03*
X130176000Y-50304000D03*
X130176000Y-49654000D03*
X130176000Y-49004000D03*
D40*
X177065000Y-53258000D03*
X176415000Y-53258000D03*
X177065000Y-50682000D03*
X176415000Y-50682000D03*
D41*
X176740000Y-51970000D03*
D42*
X178140000Y-50995000D03*
X178140000Y-51645000D03*
X178140000Y-52295000D03*
X178140000Y-52945000D03*
X175340000Y-52945000D03*
X175340000Y-52295000D03*
X175340000Y-51645000D03*
X175340000Y-50995000D03*
D43*
X159214000Y-51462000D03*
D44*
X152914000Y-53762000D03*
X152914000Y-51462000D03*
X152914000Y-49162000D03*
D45*
X166260000Y-119294000D03*
X166260000Y-119944000D03*
X166260000Y-120594000D03*
X166260000Y-121244000D03*
X160384000Y-121244000D03*
X160384000Y-120594000D03*
X160384000Y-119944000D03*
X160384000Y-119294000D03*
D46*
X118537056Y-121238944D03*
X116840000Y-120536000D03*
X115142944Y-121238944D03*
X114440000Y-122936000D03*
X115142944Y-124633056D03*
X116840000Y-125336000D03*
X118537056Y-124633056D03*
X119240000Y-122936000D03*
D47*
X116840000Y-122936000D03*
D46*
X194737056Y-36630944D03*
X193040000Y-35928000D03*
X191342944Y-36630944D03*
X190640000Y-38328000D03*
X191342944Y-40025056D03*
X193040000Y-40728000D03*
X194737056Y-40025056D03*
X195440000Y-38328000D03*
D47*
X193040000Y-38328000D03*
D46*
X118537056Y-36630944D03*
X116840000Y-35928000D03*
X115142944Y-36630944D03*
X114440000Y-38328000D03*
X115142944Y-40025056D03*
X116840000Y-40728000D03*
X118537056Y-40025056D03*
X119240000Y-38328000D03*
D47*
X116840000Y-38328000D03*
D46*
X194737056Y-121238944D03*
X193040000Y-120536000D03*
X191342944Y-121238944D03*
X190640000Y-122936000D03*
X191342944Y-124633056D03*
X193040000Y-125336000D03*
X194737056Y-124633056D03*
X195440000Y-122936000D03*
D47*
X193040000Y-122936000D03*
D48*
X182304000Y-36730000D03*
X179304000Y-36730000D03*
X158555000Y-36730000D03*
X155555000Y-36730000D03*
X134806000Y-36730000D03*
X131806000Y-36730000D03*
D49*
X152864000Y-58828000D03*
D50*
X166964000Y-58828000D03*
D49*
X169758000Y-45112000D03*
D50*
X155658000Y-45112000D03*
D16*
X121158000Y-79542000D03*
D17*
X121158000Y-82042000D03*
D16*
X121158000Y-95036000D03*
D17*
X121158000Y-97536000D03*
D51*
X163449000Y-80899000D03*
X163449000Y-79279000D03*
X163449000Y-86868000D03*
X163449000Y-85248000D03*
X163449000Y-82296000D03*
X163449000Y-83916000D03*
X163322000Y-89106000D03*
X163322000Y-90726000D03*
D52*
X148953500Y-81851500D03*
X146113500Y-81851500D03*
D53*
X148272500Y-90297000D03*
X148272500Y-87457000D03*
D17*
X155448000Y-94234000D03*
D16*
X156948000Y-94234000D03*
D17*
X143002000Y-78994000D03*
D16*
X143002000Y-80494000D03*
D18*
X160147000Y-104013000D03*
X161767000Y-104013000D03*
X153876000Y-97790000D03*
X155496000Y-97790000D03*
D54*
X163068000Y-100076000D03*
X163068000Y-97276000D03*
X164294000Y-54262000D03*
X164294000Y-51462000D03*
D17*
X164338000Y-113284000D03*
D16*
X164338000Y-114784000D03*
D55*
X150849680Y-118920260D03*
X153649680Y-118920260D03*
D56*
X126712000Y-49554000D03*
X126712000Y-51044000D03*
D57*
X172168000Y-55272000D03*
X172168000Y-52512000D03*
D58*
X177502000Y-47652000D03*
X174742000Y-47652000D03*
D18*
X156972000Y-107315000D03*
X158592000Y-107315000D03*
D54*
X146768000Y-56542000D03*
X146768000Y-53742000D03*
D18*
X155448000Y-107315000D03*
X153828000Y-107315000D03*
D59*
X150324000Y-56542000D03*
X150324000Y-53762000D03*
D57*
X147784000Y-47686000D03*
X147784000Y-50446000D03*
X137624000Y-50954000D03*
X137624000Y-48194000D03*
D58*
X183310000Y-50192000D03*
X180550000Y-50192000D03*
D60*
X163893500Y-91821000D03*
X148272500Y-91567000D03*
X148971000Y-80010000D03*
X161988500Y-79311500D03*
X162941000Y-77660500D03*
X155829000Y-77470000D03*
X183134000Y-75374500D03*
X183134000Y-63182500D03*
X183070500Y-102362000D03*
X185991500Y-88074500D03*
X184404000Y-94170500D03*
X146748500Y-57658000D03*
X150368000Y-57658000D03*
X176212500Y-54419500D03*
X184785000Y-50228500D03*
X177800000Y-45910500D03*
X164274500Y-55435500D03*
X172212000Y-56642000D03*
X183959500Y-41148000D03*
X160210500Y-41084500D03*
X145923000Y-47688500D03*
X130175000Y-52133500D03*
X136525000Y-41084500D03*
X157734000Y-121666000D03*
X128206500Y-102806500D03*
X128143000Y-113347500D03*
X131762500Y-83502500D03*
X129984500Y-90868500D03*
X120142000Y-94234000D03*
X144208500Y-80391000D03*
X157353000Y-95440500D03*
X164655500Y-100901500D03*
X152654000Y-107378500D03*
X159893000Y-107251500D03*
X161734500Y-105600500D03*
X126873000Y-63627000D03*
X126746000Y-74549000D03*
X183007000Y-113919000D03*
X164338000Y-119253000D03*
X151003000Y-120650000D03*
X162433000Y-119126000D03*
X164211000Y-121158000D03*
X162560000Y-120650000D03*
X146939000Y-118491000D03*
X149987000Y-117221000D03*
X128460500Y-64198500D03*
X128397000Y-73977500D03*
X155511500Y-99187000D03*
X133096000Y-83502500D03*
X132397500Y-92202000D03*
X162560000Y-124333000D03*
X156210000Y-122301000D03*
X156340000Y-124909498D03*
X128206500Y-52070000D03*
X132270500Y-49847500D03*
X132461000Y-52133500D03*
X139509500Y-50927000D03*
X137604500Y-52387500D03*
X135953500Y-51117500D03*
X177101500Y-54419500D03*
X176403000Y-49593500D03*
X177292000Y-49593500D03*
X147383500Y-77470000D03*
X154749500Y-77724000D03*
X158813500Y-89598500D03*
X158877000Y-90868500D03*
X156400500Y-90907500D03*
X152590500Y-84455000D03*
X152590500Y-84455000D03*
X152590500Y-85407500D03*
X162230732Y-83299475D03*
X144208500Y-78994000D03*
X155448000Y-93091000D03*
X158940500Y-96774000D03*
X156591000Y-101981000D03*
X161226500Y-100520500D03*
X155448000Y-95440500D03*
X154305000Y-94234000D03*
X167640000Y-62928500D03*
X165100000Y-62992000D03*
X162560000Y-63055500D03*
X156499012Y-121286660D03*
X154305000Y-120904000D03*
X146431000Y-122301000D03*
X152908000Y-121158000D03*
X154051000Y-116713000D03*
X136271000Y-110934500D03*
X136017000Y-78994000D03*
X154622500Y-84391500D03*
X174548800Y-85801200D03*
X155733994Y-83121500D03*
X183397631Y-82966031D03*
X177365712Y-83210400D03*
X174498000Y-82194400D03*
X157734000Y-83121500D03*
X167995600Y-85344000D03*
X183073569Y-81168769D03*
X186232800Y-85242400D03*
X161798000Y-84201000D03*
X170281600Y-86473600D03*
X161036000Y-85217000D03*
X166725600Y-84988400D03*
X183946800Y-80213200D03*
X186029600Y-89255600D03*
X161798000Y-89471500D03*
X175006000Y-89471500D03*
X177365712Y-89725500D03*
X177990500Y-94361000D03*
X161353500Y-90614500D03*
X174117000Y-96710500D03*
X159321500Y-68516500D03*
X158115000Y-39116000D03*
X149796500Y-46609000D03*
X177698400Y-39065200D03*
X183819800Y-38658800D03*
X151511000Y-100711000D03*
X171132500Y-98107500D03*
X149542500Y-95948500D03*
X166116000Y-95186500D03*
X156733997Y-83121500D03*
X169011600Y-86372000D03*
X141986000Y-45148500D03*
X179324000Y-53149500D03*
X185991500Y-48768000D03*
X180657500Y-86804500D03*
X150628400Y-69381628D03*
X179731315Y-69749315D03*
X151631600Y-69381628D03*
X180440685Y-70458685D03*
X169291000Y-74368712D03*
X180340000Y-107575400D03*
X169291000Y-75371912D03*
X180340000Y-108578600D03*
X170059400Y-78613000D03*
X129667000Y-69462600D03*
X135559800Y-75361800D03*
X171062600Y-78613000D03*
X129667000Y-68459400D03*
X137769600Y-74295000D03*
X149960685Y-101319685D03*
X171169685Y-93445685D03*
X135280400Y-95021400D03*
X134035800Y-109016800D03*
X149251315Y-100610315D03*
X170460315Y-92736315D03*
X134281780Y-94968842D03*
X134112000Y-107061000D03*
X155575000Y-105918000D03*
X156591000Y-104140000D03*
D61*
X156240000Y-123759500D02*
X156240000Y-123414000D01*
X160384000Y-119294000D02*
X161331000Y-119294000D01*
X161331000Y-119294000D02*
X161925000Y-119888000D01*
X161219000Y-120594000D02*
X160384000Y-120594000D01*
X161925000Y-119888000D02*
X161219000Y-120594000D01*
X166260000Y-121244000D02*
X164932000Y-121244000D01*
X164932000Y-121244000D02*
X164719000Y-121031000D01*
X165222500Y-119944000D02*
X166260000Y-119944000D01*
X164719000Y-120447500D02*
X165222500Y-119944000D01*
X164719000Y-121031000D02*
X164719000Y-120447500D01*
X162560000Y-121539000D02*
X162306000Y-121285000D01*
X162560000Y-124460000D02*
X162560000Y-124460000D01*
X150849680Y-120496680D02*
X151003000Y-120650000D01*
X148785580Y-118920260D02*
X148531580Y-118666260D01*
X150849680Y-118920260D02*
X148785580Y-118920260D01*
X162560000Y-124333000D02*
X162560000Y-124333000D01*
X162560000Y-124333000D02*
X162560000Y-124333000D01*
X162560000Y-123571000D02*
X162560000Y-121539000D01*
X162560000Y-124460000D02*
X162560000Y-124333000D01*
D62*
X148356320Y-118491000D02*
X148531580Y-118666260D01*
X146939000Y-118491000D02*
X148356320Y-118491000D01*
X149987000Y-118057580D02*
X150849680Y-118920260D01*
X149987000Y-117221000D02*
X149987000Y-118057580D01*
X151003000Y-119073580D02*
X150849680Y-118920260D01*
X151003000Y-120650000D02*
X151003000Y-119073580D01*
X183007000Y-112474000D02*
X183007000Y-113919000D01*
X126746000Y-73231000D02*
X126746000Y-74549000D01*
X126873000Y-64818000D02*
X126746000Y-64945000D01*
X126873000Y-63627000D02*
X126873000Y-64818000D01*
X127492500Y-64198500D02*
X126746000Y-64945000D01*
X128460500Y-64198500D02*
X127492500Y-64198500D01*
X127492500Y-73977500D02*
X126746000Y-73231000D01*
X128397000Y-73977500D02*
X127492500Y-73977500D01*
X161734500Y-104045500D02*
X161767000Y-104013000D01*
X161734500Y-105600500D02*
X161734500Y-104045500D01*
X158655500Y-107251500D02*
X158592000Y-107315000D01*
X159893000Y-107251500D02*
X158655500Y-107251500D01*
X153764500Y-107378500D02*
X153828000Y-107315000D01*
X152654000Y-107378500D02*
X153764500Y-107378500D01*
X163893500Y-100901500D02*
X163131500Y-100139500D01*
X164655500Y-100901500D02*
X163893500Y-100901500D01*
X163131500Y-100139500D02*
X163068000Y-100076000D01*
X155496000Y-99171500D02*
X155511500Y-99187000D01*
X155496000Y-97790000D02*
X155496000Y-99171500D01*
D61*
X156948000Y-95035500D02*
X157353000Y-95440500D01*
X156948000Y-94234000D02*
X156948000Y-95035500D01*
D62*
X143105000Y-80391000D02*
X143002000Y-80494000D01*
X144208500Y-80391000D02*
X143105000Y-80391000D01*
X120944000Y-95036000D02*
X120142000Y-94234000D01*
X121158000Y-95036000D02*
X120944000Y-95036000D01*
D61*
X132405000Y-92194500D02*
X132397500Y-92202000D01*
X132405000Y-90822000D02*
X132405000Y-92194500D01*
X130031000Y-90822000D02*
X129984500Y-90868500D01*
X131105000Y-90822000D02*
X130031000Y-90822000D01*
X131755000Y-83510000D02*
X131762500Y-83502500D01*
X131755000Y-84946000D02*
X131755000Y-83510000D01*
X133096000Y-84905000D02*
X133055000Y-84946000D01*
X133096000Y-83502500D02*
X133096000Y-84905000D01*
D62*
X128143000Y-113347500D02*
X128143000Y-111990000D01*
X128206500Y-104100500D02*
X128143000Y-104164000D01*
X128206500Y-102806500D02*
X128206500Y-104100500D01*
D61*
X162560000Y-124460000D02*
X162560000Y-124460000D01*
D63*
X156240000Y-123160000D02*
X156240000Y-123759500D01*
X157734000Y-121666000D02*
X156240000Y-123160000D01*
D61*
X162560000Y-124333000D02*
X162560000Y-123571000D01*
D63*
X156240000Y-122331000D02*
X156210000Y-122301000D01*
X156240000Y-123759500D02*
X156240000Y-122331000D01*
X156240000Y-124809498D02*
X156340000Y-124909498D01*
X156240000Y-123759500D02*
X156240000Y-124809498D01*
D61*
X135094500Y-41084500D02*
X135031000Y-41148000D01*
X136525000Y-41084500D02*
X135094500Y-41084500D01*
X130176000Y-52132500D02*
X130175000Y-52133500D01*
X130176000Y-50954000D02*
X130176000Y-52132500D01*
X132701000Y-50304000D02*
X132376000Y-49979000D01*
X134576000Y-50304000D02*
X132701000Y-50304000D01*
X136974000Y-50304000D02*
X137624000Y-50954000D01*
X134576000Y-50304000D02*
X136974000Y-50304000D01*
X137460500Y-51117500D02*
X137624000Y-50954000D01*
X135953500Y-51117500D02*
X137460500Y-51117500D01*
X137624000Y-52368000D02*
X137604500Y-52387500D01*
X137624000Y-50954000D02*
X137624000Y-52368000D01*
X139482500Y-50954000D02*
X139509500Y-50927000D01*
X137624000Y-50954000D02*
X139482500Y-50954000D01*
X147781500Y-47688500D02*
X147784000Y-47686000D01*
X145923000Y-47688500D02*
X147781500Y-47688500D01*
D62*
X160147000Y-41148000D02*
X160210500Y-41084500D01*
X158780000Y-41148000D02*
X160147000Y-41148000D01*
X182529000Y-41148000D02*
X183959500Y-41148000D01*
X146768000Y-57638500D02*
X146748500Y-57658000D01*
X146768000Y-56542000D02*
X146768000Y-57638500D01*
X150324000Y-57614000D02*
X150368000Y-57658000D01*
X150324000Y-56542000D02*
X150324000Y-57614000D01*
D61*
X164294000Y-55416000D02*
X164274500Y-55435500D01*
X164294000Y-54262000D02*
X164294000Y-55416000D01*
X172168000Y-56598000D02*
X172212000Y-56642000D01*
X172168000Y-55272000D02*
X172168000Y-56598000D01*
X176403000Y-49593500D02*
X177292000Y-49593500D01*
D62*
X176403000Y-50670000D02*
X176415000Y-50682000D01*
X177065000Y-49820500D02*
X177292000Y-49593500D01*
X177065000Y-50682000D02*
X177065000Y-49820500D01*
X177065000Y-50682000D02*
X176415000Y-50682000D01*
X176403000Y-50020000D02*
X177065000Y-50682000D01*
X176403000Y-49593500D02*
X176403000Y-50020000D01*
X177292000Y-49593500D02*
X176403000Y-50482500D01*
X176403000Y-50482500D02*
X176403000Y-50546000D01*
X176403000Y-50546000D02*
X176403000Y-50670000D01*
X176403000Y-49593500D02*
X176403000Y-50546000D01*
X176415000Y-53733000D02*
X177101500Y-54419500D01*
X176415000Y-53258000D02*
X176415000Y-53733000D01*
X177065000Y-53567000D02*
X176212500Y-54419500D01*
X177065000Y-53258000D02*
X177065000Y-53567000D01*
X177065000Y-54383000D02*
X177101500Y-54419500D01*
X177065000Y-53258000D02*
X177065000Y-54383000D01*
X176415000Y-54217000D02*
X176212500Y-54419500D01*
X176415000Y-53258000D02*
X177065000Y-53258000D01*
X176993000Y-53258000D02*
X176415000Y-53836000D01*
X177065000Y-53258000D02*
X176993000Y-53258000D01*
X176415000Y-53836000D02*
X176415000Y-54217000D01*
X176415000Y-53258000D02*
X176415000Y-53836000D01*
X183346500Y-50228500D02*
X183310000Y-50192000D01*
X184785000Y-50228500D02*
X183346500Y-50228500D01*
X177800000Y-47354000D02*
X177502000Y-47652000D01*
X177800000Y-45910500D02*
X177800000Y-47354000D01*
X176740000Y-52933000D02*
X177065000Y-53258000D01*
X176740000Y-51970000D02*
X176740000Y-52933000D01*
X176102000Y-52945000D02*
X176415000Y-53258000D01*
X175340000Y-52945000D02*
X176102000Y-52945000D01*
X147530000Y-47432000D02*
X147784000Y-47686000D01*
X147530000Y-44964000D02*
X147530000Y-47432000D01*
X184322000Y-94088500D02*
X184404000Y-94170500D01*
X184322000Y-93091000D02*
X184322000Y-94088500D01*
X184385500Y-88074500D02*
X184322000Y-88011000D01*
X185991500Y-88074500D02*
X184385500Y-88074500D01*
X183070500Y-103616500D02*
X183007000Y-103680000D01*
X183070500Y-102362000D02*
X183070500Y-103616500D01*
X183134000Y-75374500D02*
X183134000Y-74120000D01*
X183134000Y-63182500D02*
X183134000Y-64516000D01*
X148288000Y-77470000D02*
X148796000Y-76962000D01*
X147383500Y-77470000D02*
X148288000Y-77470000D01*
X153987500Y-76962000D02*
X154749500Y-77724000D01*
X153512000Y-76962000D02*
X153987500Y-76962000D01*
X156908500Y-77406500D02*
X157226000Y-77724000D01*
X162941000Y-78771000D02*
X163449000Y-79279000D01*
X162941000Y-77660500D02*
X162941000Y-78771000D01*
X161767000Y-79090000D02*
X161988500Y-79311500D01*
X161767000Y-77724000D02*
X161767000Y-79090000D01*
X162021000Y-79279000D02*
X161988500Y-79311500D01*
X162877500Y-77724000D02*
X162941000Y-77660500D01*
X161767000Y-77724000D02*
X162877500Y-77724000D01*
X162941000Y-78359000D02*
X161988500Y-79311500D01*
X162941000Y-77660500D02*
X162941000Y-78359000D01*
X163449000Y-79279000D02*
X163322000Y-79279000D01*
X162941000Y-77660500D02*
X162354000Y-78247500D01*
X162354000Y-78247500D02*
X162354000Y-78311000D01*
X162354000Y-78311000D02*
X161767000Y-77724000D01*
X161988500Y-79311500D02*
X161988500Y-78740000D01*
X162354000Y-78374500D02*
X162354000Y-78311000D01*
X161988500Y-78740000D02*
X162354000Y-78374500D01*
X162529000Y-79279000D02*
X162529000Y-79215500D01*
X162893750Y-78850750D02*
X162354000Y-78311000D01*
X163322000Y-79279000D02*
X162893750Y-78850750D01*
X162529000Y-79215500D02*
X162893750Y-78850750D01*
X163449000Y-79279000D02*
X162529000Y-79279000D01*
X162529000Y-79279000D02*
X162021000Y-79279000D01*
X156083000Y-77724000D02*
X155829000Y-77470000D01*
X157226000Y-77724000D02*
X156083000Y-77724000D01*
X156140000Y-89836000D02*
X157740000Y-89836000D01*
X156940000Y-90265500D02*
X156940000Y-89836000D01*
X157740000Y-89836000D02*
X157740000Y-89836000D01*
X156140000Y-90647000D02*
X156400500Y-90907500D01*
X156140000Y-89836000D02*
X156140000Y-90647000D01*
X158576000Y-89836000D02*
X158813500Y-89598500D01*
X157740000Y-89836000D02*
X158576000Y-89836000D01*
X158772500Y-90868500D02*
X157740000Y-89836000D01*
X158877000Y-90868500D02*
X158772500Y-90868500D01*
X150702000Y-84398000D02*
X150702000Y-85198000D01*
X152533500Y-84398000D02*
X152590500Y-84455000D01*
X150702000Y-84398000D02*
X152533500Y-84398000D01*
X152381000Y-85198000D02*
X152590500Y-85407500D01*
X150702000Y-85198000D02*
X152381000Y-85198000D01*
X152590500Y-84455000D02*
X152590500Y-85407500D01*
X151581000Y-84398000D02*
X150702000Y-84398000D01*
X152590500Y-85407500D02*
X151581000Y-84398000D01*
X152590500Y-84455000D02*
X151445000Y-84455000D01*
X152590500Y-85407500D02*
X152019000Y-85407500D01*
X151287500Y-84676000D02*
X151224000Y-84676000D01*
X152019000Y-85407500D02*
X151287500Y-84676000D01*
X151224000Y-84676000D02*
X150702000Y-85198000D01*
X151445000Y-84455000D02*
X151224000Y-84676000D01*
X152590500Y-86757002D02*
X152590500Y-85407500D01*
X151749502Y-87598000D02*
X152590500Y-86757002D01*
X150702000Y-87598000D02*
X151749502Y-87598000D01*
X148971000Y-81834000D02*
X148953500Y-81851500D01*
X148971000Y-80010000D02*
X148971000Y-81834000D01*
X148272500Y-91567000D02*
X148272500Y-90297000D01*
X163893500Y-91297500D02*
X163322000Y-90726000D01*
X163893500Y-91821000D02*
X163893500Y-91297500D01*
D61*
X163449000Y-85248000D02*
X163449000Y-83916000D01*
X163449000Y-83916000D02*
X163537000Y-83916000D01*
D62*
X163449000Y-79279000D02*
X163449000Y-79279000D01*
D61*
X162847257Y-83916000D02*
X162230732Y-83299475D01*
X163449000Y-83916000D02*
X162847257Y-83916000D01*
D62*
X157856000Y-101981000D02*
X157988000Y-102113000D01*
X156591000Y-101981000D02*
X157856000Y-101981000D01*
X161226500Y-101160500D02*
X162174000Y-102108000D01*
X161226500Y-100520500D02*
X161226500Y-101160500D01*
X160480000Y-96774000D02*
X160528000Y-96726000D01*
X158940500Y-96774000D02*
X160480000Y-96774000D01*
D61*
X155448000Y-93091000D02*
X155448000Y-94234000D01*
X154305000Y-94234000D02*
X155448000Y-94234000D01*
X155448000Y-95440500D02*
X155448000Y-94234000D01*
D62*
X144208500Y-78994000D02*
X143002000Y-78994000D01*
X167640000Y-65024000D02*
X165100000Y-65024000D01*
X162560000Y-65024000D02*
X165100000Y-65024000D01*
X167640000Y-65024000D02*
X167640000Y-62928500D01*
X162560000Y-65024000D02*
X162560000Y-63055500D01*
X150702000Y-82798000D02*
X150702000Y-83598000D01*
X150702000Y-82798000D02*
X153219500Y-82798000D01*
X153740000Y-83318500D02*
X153740000Y-89836000D01*
X153219500Y-82798000D02*
X153740000Y-83318500D01*
D61*
X153740000Y-91383000D02*
X153740000Y-89836000D01*
X155448000Y-93091000D02*
X153740000Y-91383000D01*
X154290000Y-122904498D02*
X154290000Y-123759500D01*
X154940000Y-122254498D02*
X154290000Y-122904498D01*
X159346500Y-121244000D02*
X159131000Y-121028500D01*
X160384000Y-121244000D02*
X159346500Y-121244000D01*
X159131000Y-120650000D02*
X158925010Y-120444010D01*
X159131000Y-121028500D02*
X159131000Y-120650000D01*
X157341662Y-120444010D02*
X156499012Y-121286660D01*
X158925010Y-120444010D02*
X157341662Y-120444010D01*
X154686000Y-120904000D02*
X154940000Y-121158000D01*
X154305000Y-120904000D02*
X154686000Y-120904000D01*
X154940000Y-121158000D02*
X154940000Y-122254498D01*
X154940000Y-115021360D02*
X154940000Y-121158000D01*
X157480000Y-115880000D02*
X157028000Y-116332000D01*
X157480000Y-115030000D02*
X157480000Y-115880000D01*
X155956000Y-116332000D02*
X155440010Y-116847990D01*
X157028000Y-116332000D02*
X155956000Y-116332000D01*
X154940000Y-122961618D02*
X154940000Y-123759500D01*
X155440010Y-122461608D02*
X154940000Y-122961618D01*
X160384000Y-119944000D02*
X156781010Y-119944000D01*
X155440010Y-121285000D02*
X155440010Y-121531010D01*
X156781010Y-119944000D02*
X155440010Y-121285000D01*
X155440010Y-121531010D02*
X155440010Y-122461608D01*
X155440010Y-116847990D02*
X155440010Y-121531010D01*
D62*
X152908000Y-119661940D02*
X153649680Y-118920260D01*
X152908000Y-121158000D02*
X152908000Y-119661940D01*
X153640000Y-121890000D02*
X152908000Y-121158000D01*
X153640000Y-123759500D02*
X153640000Y-121890000D01*
X146431000Y-123571000D02*
X147320000Y-124460000D01*
X146431000Y-122301000D02*
X146431000Y-123571000D01*
X153649680Y-117114320D02*
X154051000Y-116713000D01*
X153649680Y-118920260D02*
X153649680Y-117114320D01*
X142494000Y-67564000D02*
X147574000Y-67564000D01*
X147320000Y-124460000D02*
X145351500Y-124460000D01*
X136271000Y-115379500D02*
X136271000Y-110934500D01*
X145351500Y-124460000D02*
X136271000Y-115379500D01*
X142494000Y-72517000D02*
X142494000Y-67564000D01*
X136017000Y-78994000D02*
X142494000Y-72517000D01*
X183059500Y-96213500D02*
X170688000Y-108585000D01*
X169037000Y-108585000D02*
X164338000Y-113284000D01*
X170688000Y-108585000D02*
X169037000Y-108585000D01*
X187007500Y-92825002D02*
X187007500Y-90198000D01*
X183619002Y-96213500D02*
X187007500Y-92825002D01*
X183059500Y-96213500D02*
X183619002Y-96213500D01*
X185384500Y-91821000D02*
X184322000Y-91821000D01*
X187007500Y-90198000D02*
X185384500Y-91821000D01*
X185916002Y-86741000D02*
X184322000Y-86741000D01*
X187007500Y-87832498D02*
X185916002Y-86741000D01*
X187007500Y-90198000D02*
X187007500Y-87832498D01*
X150702000Y-86798000D02*
X149549000Y-86798000D01*
X148890000Y-87457000D02*
X148272500Y-87457000D01*
X149549000Y-86798000D02*
X148890000Y-87457000D01*
X145842000Y-87457000D02*
X141795500Y-91503500D01*
X148272500Y-87457000D02*
X145842000Y-87457000D01*
X148233000Y-85998000D02*
X150702000Y-85998000D01*
X147955000Y-85720000D02*
X148233000Y-85998000D01*
D61*
X153740000Y-82469958D02*
X154622500Y-83352458D01*
X154622500Y-83352458D02*
X154622500Y-84391500D01*
X153740000Y-81360000D02*
X153740000Y-82469958D01*
X176149000Y-84201000D02*
X176707800Y-84201000D01*
X174548800Y-85801200D02*
X176149000Y-84201000D01*
X178898000Y-84201000D02*
X176707800Y-84201000D01*
X155264000Y-83121500D02*
X155733994Y-83121500D01*
X154540000Y-82397500D02*
X155264000Y-83121500D01*
X154540000Y-81360000D02*
X154540000Y-82397500D01*
X184322000Y-83890400D02*
X183397631Y-82966031D01*
X184322000Y-84201000D02*
X184322000Y-83890400D01*
X175514000Y-83210400D02*
X174498000Y-82194400D01*
X177365712Y-83210400D02*
X175514000Y-83210400D01*
X157740000Y-83115500D02*
X157734000Y-83121500D01*
X157740000Y-81360000D02*
X157740000Y-83115500D01*
X182797939Y-81444399D02*
X183073569Y-81168769D01*
X171895201Y-81444399D02*
X182797939Y-81444399D01*
X167995600Y-85344000D02*
X171895201Y-81444399D01*
X184550600Y-85242400D02*
X184322000Y-85471000D01*
X186232800Y-85242400D02*
X184550600Y-85242400D01*
X161601000Y-84398000D02*
X161798000Y-84201000D01*
X159178000Y-84398000D02*
X161601000Y-84398000D01*
X171558497Y-88721499D02*
X178338499Y-88721499D01*
X178338499Y-88721499D02*
X178898000Y-89281000D01*
X170281600Y-87444602D02*
X171558497Y-88721499D01*
X170281600Y-86473600D02*
X170281600Y-87444602D01*
D63*
X161017000Y-85198000D02*
X161036000Y-85217000D01*
X159178000Y-85198000D02*
X161017000Y-85198000D01*
D61*
X166725600Y-84988400D02*
X166725600Y-78689200D01*
X166725600Y-78689200D02*
X167995600Y-77419200D01*
X170978802Y-77419200D02*
X173874402Y-80314800D01*
X167995600Y-77419200D02*
X170978802Y-77419200D01*
X183845200Y-80314800D02*
X183946800Y-80213200D01*
X173874402Y-80314800D02*
X183845200Y-80314800D01*
X184347400Y-89255600D02*
X184322000Y-89281000D01*
X186029600Y-89255600D02*
X184347400Y-89255600D01*
X161798000Y-89180500D02*
X161798000Y-89471500D01*
X160215500Y-87598000D02*
X161798000Y-89180500D01*
X159178000Y-87598000D02*
X160215500Y-87598000D01*
X177111712Y-89471500D02*
X177365712Y-89725500D01*
X175006000Y-89471500D02*
X177111712Y-89471500D01*
X177990500Y-93998500D02*
X178898000Y-93091000D01*
X177990500Y-94361000D02*
X177990500Y-93998500D01*
X159178000Y-88439000D02*
X161353500Y-90614500D01*
X159178000Y-88398000D02*
X159178000Y-88439000D01*
X183259500Y-90551000D02*
X180530500Y-93280000D01*
X184322000Y-90551000D02*
X183259500Y-90551000D01*
X180530500Y-93280000D02*
X180530500Y-95504000D01*
X180530500Y-95504000D02*
X179260500Y-96774000D01*
X174180500Y-96774000D02*
X174117000Y-96710500D01*
X179260500Y-96774000D02*
X174180500Y-96774000D01*
D62*
X163068000Y-97276000D02*
X163068000Y-94615000D01*
X162179000Y-93726000D02*
X160528000Y-93726000D01*
X163068000Y-94615000D02*
X162179000Y-93726000D01*
X160528000Y-93726000D02*
X158877000Y-93726000D01*
X158877000Y-93726000D02*
X156908500Y-91757500D01*
X155413998Y-91757500D02*
X154540000Y-90883502D01*
X154540000Y-90883502D02*
X154540000Y-89836000D01*
X156908500Y-91757500D02*
X155413998Y-91757500D01*
D63*
X168742800Y-104217400D02*
X168742800Y-100543800D01*
X163643010Y-97514176D02*
X163474593Y-97682593D01*
X165713176Y-97514176D02*
X163643010Y-97514176D01*
X168742800Y-100543800D02*
X165713176Y-97514176D01*
D64*
X159214000Y-51462000D02*
X164294000Y-51462000D01*
D61*
X166964000Y-58828000D02*
X166964000Y-52600500D01*
X165825500Y-51462000D02*
X164294000Y-51462000D01*
X166964000Y-52600500D02*
X165825500Y-51462000D01*
X169758000Y-45998000D02*
X164294000Y-51462000D01*
X169758000Y-45112000D02*
X169758000Y-45998000D01*
D62*
X152864000Y-58828000D02*
X147737500Y-58828000D01*
X145034000Y-61531500D02*
X145034000Y-65024000D01*
X147737500Y-58828000D02*
X145034000Y-61531500D01*
D64*
X146788000Y-53762000D02*
X146768000Y-53742000D01*
X152914000Y-53762000D02*
X146788000Y-53762000D01*
D62*
X152864000Y-53812000D02*
X152914000Y-53762000D01*
X152864000Y-58828000D02*
X152864000Y-53812000D01*
X159321500Y-68516500D02*
X159321500Y-62103000D01*
X159321500Y-62103000D02*
X158305500Y-61087000D01*
X158305500Y-61087000D02*
X155702000Y-61087000D01*
X155702000Y-61087000D02*
X155194000Y-60579000D01*
X155194000Y-53742000D02*
X152914000Y-51462000D01*
X155194000Y-60579000D02*
X155194000Y-53742000D01*
X148800000Y-51462000D02*
X147784000Y-50446000D01*
X152914000Y-51462000D02*
X148800000Y-51462000D01*
X158555000Y-38676000D02*
X158115000Y-39116000D01*
X158555000Y-36730000D02*
X158555000Y-38676000D01*
X149864000Y-46541500D02*
X149796500Y-46609000D01*
X149864000Y-44858000D02*
X149864000Y-46541500D01*
X147784000Y-50446000D02*
X148817000Y-50446000D01*
X149796500Y-49466500D02*
X149796500Y-46609000D01*
X148817000Y-50446000D02*
X149796500Y-49466500D01*
X147574000Y-65024000D02*
X154241500Y-65024000D01*
X154241500Y-65024000D02*
X158813500Y-69596000D01*
X158813500Y-69596000D02*
X169672000Y-69596000D01*
X180550000Y-58718000D02*
X180550000Y-50192000D01*
X169672000Y-69596000D02*
X180550000Y-58718000D01*
X179747000Y-50995000D02*
X180550000Y-50192000D01*
X178140000Y-50995000D02*
X179747000Y-50995000D01*
D61*
X175340000Y-48250000D02*
X174742000Y-47652000D01*
X175340000Y-50995000D02*
X175340000Y-48250000D01*
D62*
X173567000Y-47652000D02*
X169672000Y-51547000D01*
X174742000Y-47652000D02*
X173567000Y-47652000D01*
X169672000Y-65532000D02*
X167640000Y-67564000D01*
X169672000Y-51547000D02*
X169672000Y-65532000D01*
D61*
X174742000Y-47652000D02*
X174742000Y-41031000D01*
X174742000Y-41031000D02*
X176707800Y-39065200D01*
X176707800Y-39065200D02*
X177698400Y-39065200D01*
X183819800Y-38245800D02*
X182304000Y-36730000D01*
X183819800Y-38658800D02*
X183819800Y-38245800D01*
D62*
X121158000Y-104648000D02*
X121158000Y-97536000D01*
D61*
X148336000Y-97536000D02*
X151511000Y-100711000D01*
X121158000Y-97536000D02*
X148336000Y-97536000D01*
X177673000Y-91821000D02*
X175133000Y-94361000D01*
X178898000Y-91821000D02*
X177673000Y-91821000D01*
X174879000Y-94361000D02*
X175133000Y-94361000D01*
X171132500Y-98107500D02*
X174879000Y-94361000D01*
D62*
X121158000Y-82042000D02*
X118681500Y-82042000D01*
X118681500Y-82042000D02*
X115189000Y-78549500D01*
X115189000Y-78549500D02*
X115189000Y-69469000D01*
X119126000Y-65532000D02*
X121158000Y-65532000D01*
X115189000Y-69469000D02*
X119126000Y-65532000D01*
D61*
X121158000Y-82042000D02*
X121158000Y-83152002D01*
X121158000Y-83152002D02*
X121158000Y-86550500D01*
X130556000Y-95948500D02*
X149542500Y-95948500D01*
X121158000Y-86550500D02*
X130556000Y-95948500D01*
X166116000Y-95186500D02*
X172593000Y-95186500D01*
X177228500Y-90551000D02*
X172593000Y-95186500D01*
X178898000Y-90551000D02*
X177228500Y-90551000D01*
X156940000Y-82915497D02*
X156733997Y-83121500D01*
X156940000Y-81360000D02*
X156940000Y-82915497D01*
X178898000Y-88011000D02*
X173863000Y-88011000D01*
X169660001Y-85723599D02*
X169011600Y-86372000D01*
X171575599Y-85723599D02*
X169660001Y-85723599D01*
X173863000Y-88011000D02*
X171575599Y-85723599D01*
X136814000Y-49004000D02*
X137624000Y-48194000D01*
X134576000Y-49004000D02*
X136814000Y-49004000D01*
D62*
X137624000Y-48194000D02*
X141158000Y-48194000D01*
X142494000Y-49530000D02*
X142494000Y-65024000D01*
X141158000Y-48194000D02*
X142494000Y-49530000D01*
D61*
X126812000Y-49654000D02*
X126712000Y-49554000D01*
X130176000Y-49654000D02*
X126812000Y-49654000D01*
X130176000Y-49004000D02*
X130176000Y-49654000D01*
D62*
X134806000Y-36730000D02*
X136171000Y-36730000D01*
X136171000Y-36730000D02*
X138303000Y-38862000D01*
X138303000Y-42672000D02*
X136017000Y-44958000D01*
X136017000Y-44958000D02*
X132016500Y-44958000D01*
X130176000Y-46798500D02*
X130176000Y-49004000D01*
X132016500Y-44958000D02*
X130176000Y-46798500D01*
X141986000Y-43688000D02*
X138303000Y-40005000D01*
X138303000Y-40005000D02*
X138303000Y-42672000D01*
X141986000Y-45148500D02*
X141986000Y-43688000D01*
X138303000Y-38862000D02*
X138303000Y-40005000D01*
X147955000Y-83693000D02*
X146113500Y-81851500D01*
X147955000Y-83820000D02*
X147955000Y-83693000D01*
X146113500Y-82305500D02*
X141795500Y-86623500D01*
X146113500Y-81851500D02*
X146113500Y-82305500D01*
D64*
X153940000Y-126459500D02*
X155940000Y-126459500D01*
X155940000Y-126459500D02*
X157840000Y-126459500D01*
X157440000Y-126059500D02*
X157840000Y-126459500D01*
X157440000Y-123759500D02*
X157440000Y-126059500D01*
X152040000Y-124159500D02*
X152440000Y-123759500D01*
X152040000Y-126459500D02*
X152040000Y-124159500D01*
X153940000Y-126459500D02*
X152040000Y-126459500D01*
D61*
X157440000Y-125459500D02*
X158440000Y-126459500D01*
X157440000Y-123759500D02*
X157440000Y-125459500D01*
X152440000Y-125459500D02*
X151440000Y-126459500D01*
X152440000Y-123759500D02*
X152440000Y-125459500D01*
D64*
X150724820Y-123759500D02*
X148531580Y-121566260D01*
X152440000Y-123759500D02*
X150724820Y-123759500D01*
D61*
X172385000Y-52295000D02*
X175340000Y-52295000D01*
X172168000Y-52512000D02*
X172385000Y-52295000D01*
D62*
X152864000Y-42064000D02*
X153379500Y-42064000D01*
X153379500Y-42064000D02*
X154241500Y-42926000D01*
X154241500Y-47834500D02*
X152914000Y-49162000D01*
X153516000Y-44858000D02*
X154241500Y-44132500D01*
X152864000Y-44858000D02*
X153516000Y-44858000D01*
X154241500Y-44132500D02*
X154241500Y-47834500D01*
X154241500Y-42926000D02*
X154241500Y-44132500D01*
X179119500Y-52945000D02*
X179324000Y-53149500D01*
X178140000Y-52945000D02*
X179119500Y-52945000D01*
X185991500Y-48768000D02*
X185991500Y-48069500D01*
X185574000Y-47652000D02*
X183550000Y-47652000D01*
X185991500Y-48069500D02*
X185574000Y-47652000D01*
X147530000Y-42064000D02*
X149864000Y-42064000D01*
X188722000Y-111760000D02*
X190881000Y-111760000D01*
X190881000Y-111760000D02*
X194119500Y-108521500D01*
X194119500Y-108521500D02*
X194119500Y-99250500D01*
X190373000Y-95504000D02*
X188722000Y-95504000D01*
X194119500Y-99250500D02*
X190373000Y-95504000D01*
D61*
X178961500Y-86804500D02*
X178898000Y-86741000D01*
X180657500Y-86804500D02*
X178961500Y-86804500D01*
D62*
X188722000Y-72898000D02*
X188722000Y-80010000D01*
D61*
X178898000Y-85471000D02*
X179832000Y-85471000D01*
X185293000Y-80010000D02*
X188722000Y-80010000D01*
X179832000Y-85471000D02*
X185293000Y-80010000D01*
X131806000Y-40923000D02*
X132031000Y-41148000D01*
X131806000Y-36730000D02*
X131806000Y-40923000D01*
D62*
X155780000Y-36955000D02*
X155555000Y-36730000D01*
X155780000Y-41148000D02*
X155780000Y-36955000D01*
X179529000Y-36955000D02*
X179304000Y-36730000D01*
X179529000Y-41148000D02*
X179529000Y-36955000D01*
D65*
X152772156Y-78661519D02*
X151892000Y-77781363D01*
X151892000Y-77781363D02*
X151892000Y-76962000D01*
X152772156Y-80085905D02*
X152772156Y-78661519D01*
X152940000Y-80253749D02*
X152772156Y-80085905D01*
X152940000Y-81360000D02*
X152940000Y-80253749D01*
D61*
X152400000Y-76454000D02*
X151892000Y-76962000D01*
X152400000Y-75268000D02*
X152400000Y-76454000D01*
D65*
X151081443Y-77627443D02*
X150416000Y-76962000D01*
X151147554Y-77987557D02*
X151081443Y-77921446D01*
X151441557Y-77987557D02*
X151147554Y-77987557D01*
X151081443Y-77921446D02*
X151081443Y-77627443D01*
X152307844Y-78853844D02*
X151441557Y-77987557D01*
X152307844Y-80085905D02*
X152307844Y-78853844D01*
X152140000Y-80253749D02*
X152307844Y-80085905D01*
X152140000Y-81360000D02*
X152140000Y-80253749D01*
D61*
X149860000Y-76406000D02*
X150416000Y-76962000D01*
X149860000Y-75268000D02*
X149860000Y-76406000D01*
D65*
X150897844Y-69651072D02*
X150628400Y-69381628D01*
X150897844Y-71330156D02*
X150897844Y-69651072D01*
X149860000Y-72368000D02*
X150897844Y-71330156D01*
X182834000Y-67516000D02*
X183134000Y-67516000D01*
X181264156Y-69085844D02*
X182834000Y-67516000D01*
X180775837Y-69085844D02*
X181264156Y-69085844D01*
X180112366Y-69749315D02*
X180775837Y-69085844D01*
X179731315Y-69749315D02*
X180112366Y-69749315D01*
X187378637Y-68398000D02*
X188722000Y-68398000D01*
X183134000Y-67516000D02*
X186496637Y-67516000D01*
X186496637Y-67516000D02*
X187378637Y-68398000D01*
X151362156Y-71330156D02*
X151362156Y-69651072D01*
X151362156Y-69651072D02*
X151631600Y-69381628D01*
X152400000Y-72368000D02*
X151362156Y-71330156D01*
X182834000Y-71120000D02*
X183134000Y-71120000D01*
X181264156Y-69550156D02*
X182834000Y-71120000D01*
X180968163Y-69550156D02*
X181264156Y-69550156D01*
X180440685Y-70077634D02*
X180968163Y-69550156D01*
X180440685Y-70458685D02*
X180440685Y-70077634D01*
X186304312Y-67980312D02*
X187050318Y-68726318D01*
X187050318Y-68726318D02*
X188722000Y-70398000D01*
X186273688Y-67980312D02*
X186304312Y-67980312D01*
X183134000Y-71120000D02*
X186273688Y-67980312D01*
X155972156Y-80754656D02*
X155972156Y-80576164D01*
X156140000Y-80922500D02*
X155972156Y-80754656D01*
X156140000Y-81360000D02*
X156140000Y-80922500D01*
X155972156Y-80576164D02*
X156814164Y-79734156D01*
X159656557Y-78683446D02*
X159656557Y-78214443D01*
X159590446Y-78749557D02*
X159656557Y-78683446D01*
X159121443Y-78749557D02*
X159590446Y-78749557D01*
X156814164Y-79734156D02*
X158136844Y-79734156D01*
X159656557Y-78214443D02*
X160147000Y-77724000D01*
X158136844Y-79734156D02*
X159121443Y-78749557D01*
D61*
X161858000Y-75798000D02*
X162052000Y-75798000D01*
X160147000Y-77509000D02*
X161858000Y-75798000D01*
X160147000Y-77724000D02*
X160147000Y-77509000D01*
D65*
X155507844Y-80754656D02*
X155507844Y-80383836D01*
X155340000Y-80922500D02*
X155507844Y-80754656D01*
X155340000Y-81360000D02*
X155340000Y-80922500D01*
X155507844Y-80383836D02*
X156621836Y-79269844D01*
X158846000Y-78368363D02*
X158846000Y-77724000D01*
X157944519Y-79269844D02*
X158846000Y-78368363D01*
X156621836Y-79269844D02*
X157944519Y-79269844D01*
D61*
X158846000Y-76739000D02*
X159766000Y-75819000D01*
X158846000Y-77724000D02*
X158846000Y-76739000D01*
D65*
X167803476Y-74638156D02*
X169021556Y-74638156D01*
X161924156Y-70760844D02*
X163926164Y-70760844D01*
X159766000Y-72919000D02*
X161924156Y-70760844D01*
X163926164Y-70760844D02*
X167803476Y-74638156D01*
X169021556Y-74638156D02*
X169291000Y-74368712D01*
X182707000Y-106680000D02*
X183007000Y-106680000D01*
X181542156Y-107844844D02*
X182707000Y-106680000D01*
X180609444Y-107844844D02*
X181542156Y-107844844D01*
X180340000Y-107575400D02*
X180609444Y-107844844D01*
X187378637Y-107260000D02*
X188722000Y-107260000D01*
X186798637Y-106680000D02*
X187378637Y-107260000D01*
X183007000Y-106680000D02*
X186798637Y-106680000D01*
X169021556Y-75102468D02*
X169291000Y-75371912D01*
X167611148Y-75102468D02*
X169021556Y-75102468D01*
X163733836Y-71225156D02*
X167611148Y-75102468D01*
X162052000Y-71289637D02*
X162116481Y-71225156D01*
X162116481Y-71225156D02*
X163733836Y-71225156D01*
X162052000Y-72898000D02*
X162052000Y-71289637D01*
X181542156Y-108309156D02*
X182707000Y-109474000D01*
X182707000Y-109474000D02*
X183007000Y-109474000D01*
X180609444Y-108309156D02*
X181542156Y-108309156D01*
X180340000Y-108578600D02*
X180609444Y-108309156D01*
X187050318Y-107588318D02*
X188722000Y-109260000D01*
X186606312Y-107144312D02*
X187050318Y-107588318D01*
X185336688Y-107144312D02*
X186606312Y-107144312D01*
X183007000Y-109474000D02*
X185336688Y-107144312D01*
X159178000Y-83598000D02*
X160284251Y-83598000D01*
X160284251Y-83598000D02*
X160452095Y-83430156D01*
D61*
X164719000Y-82296000D02*
X165227000Y-82804000D01*
X163449000Y-82296000D02*
X164719000Y-82296000D01*
X163449000Y-82296000D02*
X161801561Y-82296000D01*
D65*
X160667405Y-83430156D02*
X161801561Y-82296000D01*
X160452095Y-83430156D02*
X160667405Y-83430156D01*
D61*
X164719000Y-80899000D02*
X165227000Y-80391000D01*
X163449000Y-80899000D02*
X164719000Y-80899000D01*
X162454000Y-80899000D02*
X162356800Y-80996200D01*
X163449000Y-80899000D02*
X162454000Y-80899000D01*
X162356800Y-81584800D02*
X162153600Y-81788000D01*
X162356800Y-80996200D02*
X162356800Y-81584800D01*
X162153600Y-81788000D02*
X161602441Y-81788000D01*
D65*
X160592441Y-82798000D02*
X161602441Y-81788000D01*
X159178000Y-82798000D02*
X160592441Y-82798000D01*
X170328844Y-78882444D02*
X170059400Y-78613000D01*
X170328844Y-79945519D02*
X170328844Y-78882444D01*
X169883363Y-80391000D02*
X170328844Y-79945519D01*
X168127000Y-80391000D02*
X169883363Y-80391000D01*
X128567688Y-68409312D02*
X126746000Y-70231000D01*
X128613712Y-68409312D02*
X128567688Y-68409312D01*
X128936443Y-68732043D02*
X128613712Y-68409312D01*
X128936443Y-68810068D02*
X128936443Y-68732043D01*
X129316332Y-69189957D02*
X128936443Y-68810068D01*
X129394357Y-69189957D02*
X129316332Y-69189957D01*
X129667000Y-69462600D02*
X129394357Y-69189957D01*
X122501363Y-70032000D02*
X121158000Y-70032000D01*
X122700363Y-70231000D02*
X122501363Y-70032000D01*
X126746000Y-70231000D02*
X122700363Y-70231000D01*
D63*
X130619999Y-86008501D02*
X130403600Y-85792102D01*
X132240001Y-86008501D02*
X130619999Y-86008501D01*
X132405000Y-85843502D02*
X132240001Y-86008501D01*
X132405000Y-84946000D02*
X132405000Y-85843502D01*
X130403600Y-80518000D02*
X135559800Y-75361800D01*
X130403600Y-85792102D02*
X130403600Y-80518000D01*
D65*
X170793156Y-80137844D02*
X170793156Y-78882444D01*
X168127000Y-82804000D02*
X170793156Y-80137844D01*
X170793156Y-78882444D02*
X171062600Y-78613000D01*
X128806037Y-67945000D02*
X128567688Y-67945000D01*
X129320437Y-68459400D02*
X128806037Y-67945000D01*
X128567688Y-67945000D02*
X126746000Y-67945000D01*
X129667000Y-68459400D02*
X129320437Y-68459400D01*
X124924312Y-69766688D02*
X122892688Y-69766688D01*
X126746000Y-67945000D02*
X124924312Y-69766688D01*
X122892688Y-69766688D02*
X122829682Y-69703682D01*
X122829682Y-69703682D02*
X121158000Y-68032000D01*
D61*
X131012499Y-81052101D02*
X137769600Y-74295000D01*
X131012499Y-84853499D02*
X131012499Y-81052101D01*
X131105000Y-84946000D02*
X131012499Y-84853499D01*
D65*
X160284251Y-86798000D02*
X160452095Y-86630156D01*
X159178000Y-86798000D02*
X160284251Y-86798000D01*
X160452095Y-86630156D02*
X160723836Y-86630156D01*
X160723836Y-86630156D02*
X162236550Y-88142870D01*
D63*
X163322000Y-89106000D02*
X163322000Y-88773000D01*
X162691870Y-88142870D02*
X162236550Y-88142870D01*
X163322000Y-88773000D02*
X162691870Y-88142870D01*
X163676000Y-89106000D02*
X163322000Y-89106000D01*
X165248000Y-90678000D02*
X163676000Y-89106000D01*
D65*
X160452095Y-86165844D02*
X160916164Y-86165844D01*
X160284251Y-85998000D02*
X160452095Y-86165844D01*
X159178000Y-85998000D02*
X160284251Y-85998000D01*
X160916164Y-86165844D02*
X162428878Y-87678558D01*
D61*
X163449000Y-86868000D02*
X163449000Y-87122000D01*
X163449000Y-87122000D02*
X163195000Y-87376000D01*
D63*
X162892442Y-87678558D02*
X163195000Y-87376000D01*
X162428878Y-87678558D02*
X162892442Y-87678558D01*
X163830000Y-86868000D02*
X165227000Y-88265000D01*
X163449000Y-86868000D02*
X163830000Y-86868000D01*
D65*
X122693688Y-109148000D02*
X121158000Y-109148000D01*
X126815637Y-109148000D02*
X122693688Y-109148000D01*
X126973637Y-108990000D02*
X126815637Y-109148000D01*
X128143000Y-108990000D02*
X126973637Y-108990000D01*
X149579634Y-101319685D02*
X149960685Y-101319685D01*
X142590163Y-108309156D02*
X149579634Y-101319685D01*
X128143000Y-108990000D02*
X129493001Y-108990000D01*
X129493001Y-108990000D02*
X130173845Y-108309156D01*
X130173845Y-108309156D02*
X142590163Y-108309156D01*
X171169685Y-93064634D02*
X172190156Y-92044163D01*
X171169685Y-93445685D02*
X171169685Y-93064634D01*
X172190156Y-92044163D02*
X172190156Y-90581836D01*
X170858164Y-89249844D02*
X169111844Y-89249844D01*
X169111844Y-89249844D02*
X168127000Y-88265000D01*
X172190156Y-90581836D02*
X170858164Y-89249844D01*
D61*
X135280400Y-93047400D02*
X135280400Y-95021400D01*
X133055000Y-90822000D02*
X135280400Y-93047400D01*
X133422644Y-108403644D02*
X133422644Y-108325410D01*
X134035800Y-109016800D02*
X133422644Y-108403644D01*
D65*
X126978554Y-108059443D02*
X126354309Y-108683688D01*
X122693688Y-108683688D02*
X121158000Y-107148000D01*
X126354309Y-108683688D02*
X122693688Y-108683688D01*
X127247557Y-108059443D02*
X126978554Y-108059443D01*
X128143000Y-107164000D02*
X127247557Y-108059443D01*
X142397837Y-107844844D02*
X149251315Y-100991366D01*
X130173845Y-107844844D02*
X142397837Y-107844844D01*
X129493001Y-107164000D02*
X130173845Y-107844844D01*
X128143000Y-107164000D02*
X129493001Y-107164000D01*
X149251315Y-100991366D02*
X149251315Y-100610315D01*
X170841366Y-92736315D02*
X171725844Y-91851837D01*
X170460315Y-92736315D02*
X170841366Y-92736315D01*
X171725844Y-91851837D02*
X171725844Y-90774164D01*
X169111844Y-89714156D02*
X168148000Y-90678000D01*
X170665836Y-89714156D02*
X169111844Y-89714156D01*
X171725844Y-90774164D02*
X170665836Y-89714156D01*
D61*
X134054340Y-94968842D02*
X134281780Y-94968842D01*
X131647499Y-91841999D02*
X131647499Y-92562001D01*
X131647499Y-92562001D02*
X134054340Y-94968842D01*
X131755000Y-91734498D02*
X131647499Y-91841999D01*
X131755000Y-90822000D02*
X131755000Y-91734498D01*
X133353556Y-107819444D02*
X133353556Y-107825400D01*
X134112000Y-107061000D02*
X133353556Y-107819444D01*
D65*
X155973524Y-111087836D02*
X155973524Y-110017156D01*
X154940000Y-112121360D02*
X155973524Y-111087836D01*
X155977844Y-108887345D02*
X155448000Y-108357501D01*
X155977844Y-110012836D02*
X155977844Y-108887345D01*
X155973524Y-110017156D02*
X155977844Y-110012836D01*
X155448000Y-108357501D02*
X155448000Y-107315000D01*
X152772156Y-91110095D02*
X152772156Y-101135836D01*
X152940000Y-90942251D02*
X152772156Y-91110095D01*
X152940000Y-89836000D02*
X152940000Y-90942251D01*
D61*
X155448000Y-106045000D02*
X155575000Y-105918000D01*
X155448000Y-107315000D02*
X155448000Y-106045000D01*
D63*
X156591000Y-104140000D02*
X156718000Y-104013000D01*
D65*
X152772156Y-101135836D02*
X155934156Y-104297836D01*
D63*
X156433164Y-104297836D02*
X156591000Y-104140000D01*
X155934156Y-104297836D02*
X156433164Y-104297836D01*
D61*
X153876000Y-97790000D02*
X153876000Y-98727000D01*
X152788410Y-99814590D02*
X152788410Y-100067156D01*
X153876000Y-98727000D02*
X152788410Y-99814590D01*
D65*
X156437836Y-111087836D02*
X156437836Y-110209484D01*
X157480000Y-112130000D02*
X156437836Y-111087836D01*
X156972000Y-108357501D02*
X156972000Y-107315000D01*
X156442156Y-108887345D02*
X156972000Y-108357501D01*
X156442156Y-110205164D02*
X156442156Y-108887345D01*
X156437836Y-110209484D02*
X156442156Y-110205164D01*
D61*
X157988000Y-104013000D02*
X160147000Y-104013000D01*
X160274000Y-103886000D02*
X160147000Y-104013000D01*
X160274000Y-102108000D02*
X160274000Y-103886000D01*
D65*
X152307844Y-91110095D02*
X152307844Y-101328164D01*
X152140000Y-90942251D02*
X152307844Y-91110095D01*
X152140000Y-89836000D02*
X152140000Y-90942251D01*
X152307844Y-101328164D02*
X155469844Y-104490164D01*
D61*
X156972000Y-106015302D02*
X155458353Y-104501655D01*
X156972000Y-107315000D02*
X156972000Y-106015302D01*
X156972000Y-105029000D02*
X157988000Y-104013000D01*
X156972000Y-106015302D02*
X156972000Y-105029000D01*
X134576000Y-50954000D02*
X134576000Y-56034000D01*
D66*
X165100000Y-118594274D02*
X165071315Y-118617815D01*
X164991963Y-118714506D01*
X164932998Y-118824820D01*
X164896688Y-118944518D01*
X164884428Y-119069000D01*
X164884428Y-119519000D01*
X164894591Y-119622191D01*
X164887500Y-119687250D01*
X164919747Y-119719497D01*
X164932998Y-119763180D01*
X164991963Y-119873494D01*
X165049826Y-119944000D01*
X164991963Y-120014506D01*
X164932998Y-120124820D01*
X164919747Y-120168503D01*
X164887500Y-120200750D01*
X164894591Y-120265809D01*
X164884428Y-120369000D01*
X164884428Y-120819000D01*
X164894591Y-120922191D01*
X164887500Y-120987250D01*
X164919747Y-121019497D01*
X164932998Y-121063180D01*
X164991963Y-121173494D01*
X165071315Y-121270185D01*
X165100000Y-121293726D01*
X165100000Y-121342000D01*
X165046250Y-121342000D01*
X164887500Y-121500750D01*
X164898632Y-121602883D01*
X164936739Y-121722021D01*
X164997356Y-121831436D01*
X165078154Y-121926922D01*
X165100000Y-121944307D01*
X165100000Y-122174000D01*
X161544000Y-122174000D01*
X161544000Y-121943726D01*
X161572685Y-121920185D01*
X161652037Y-121823494D01*
X161711002Y-121713180D01*
X161747312Y-121593482D01*
X161759572Y-121469000D01*
X161759572Y-121019000D01*
X161749409Y-120915809D01*
X161756500Y-120850750D01*
X161724253Y-120818503D01*
X161711002Y-120774820D01*
X161652037Y-120664506D01*
X161594174Y-120594000D01*
X161652037Y-120523494D01*
X161711002Y-120413180D01*
X161724253Y-120369497D01*
X161756500Y-120337250D01*
X161749409Y-120272191D01*
X161759572Y-120169000D01*
X161759572Y-119719000D01*
X161749409Y-119615809D01*
X161756500Y-119550750D01*
X161724253Y-119518503D01*
X161711002Y-119474820D01*
X161652037Y-119364506D01*
X161572685Y-119267815D01*
X161544000Y-119244274D01*
X161544000Y-119196000D01*
X161597750Y-119196000D01*
X161756500Y-119037250D01*
X161745368Y-118935117D01*
X161707261Y-118815979D01*
X161646644Y-118706564D01*
X161565846Y-118611078D01*
X161544000Y-118593693D01*
X161544000Y-118237000D01*
X165100000Y-118237000D01*
X165100000Y-118594274D01*
G04 #@! TA.AperFunction,Conductor*
D67*
G36*
X165100000Y-118594274D02*
G01*
X165071315Y-118617815D01*
X164991963Y-118714506D01*
X164932998Y-118824820D01*
X164896688Y-118944518D01*
X164884428Y-119069000D01*
X164884428Y-119519000D01*
X164894591Y-119622191D01*
X164887500Y-119687250D01*
X164919747Y-119719497D01*
X164932998Y-119763180D01*
X164991963Y-119873494D01*
X165049826Y-119944000D01*
X164991963Y-120014506D01*
X164932998Y-120124820D01*
X164919747Y-120168503D01*
X164887500Y-120200750D01*
X164894591Y-120265809D01*
X164884428Y-120369000D01*
X164884428Y-120819000D01*
X164894591Y-120922191D01*
X164887500Y-120987250D01*
X164919747Y-121019497D01*
X164932998Y-121063180D01*
X164991963Y-121173494D01*
X165071315Y-121270185D01*
X165100000Y-121293726D01*
X165100000Y-121342000D01*
X165046250Y-121342000D01*
X164887500Y-121500750D01*
X164898632Y-121602883D01*
X164936739Y-121722021D01*
X164997356Y-121831436D01*
X165078154Y-121926922D01*
X165100000Y-121944307D01*
X165100000Y-122174000D01*
X161544000Y-122174000D01*
X161544000Y-121943726D01*
X161572685Y-121920185D01*
X161652037Y-121823494D01*
X161711002Y-121713180D01*
X161747312Y-121593482D01*
X161759572Y-121469000D01*
X161759572Y-121019000D01*
X161749409Y-120915809D01*
X161756500Y-120850750D01*
X161724253Y-120818503D01*
X161711002Y-120774820D01*
X161652037Y-120664506D01*
X161594174Y-120594000D01*
X161652037Y-120523494D01*
X161711002Y-120413180D01*
X161724253Y-120369497D01*
X161756500Y-120337250D01*
X161749409Y-120272191D01*
X161759572Y-120169000D01*
X161759572Y-119719000D01*
X161749409Y-119615809D01*
X161756500Y-119550750D01*
X161724253Y-119518503D01*
X161711002Y-119474820D01*
X161652037Y-119364506D01*
X161572685Y-119267815D01*
X161544000Y-119244274D01*
X161544000Y-119196000D01*
X161597750Y-119196000D01*
X161756500Y-119037250D01*
X161745368Y-118935117D01*
X161707261Y-118815979D01*
X161646644Y-118706564D01*
X161565846Y-118611078D01*
X161544000Y-118593693D01*
X161544000Y-118237000D01*
X165100000Y-118237000D01*
X165100000Y-118594274D01*
G37*
G04 #@! TD.AperFunction*
D66*
X133032500Y-48267213D02*
X132661750Y-48269000D01*
X132503000Y-48427750D01*
X132503000Y-49852000D01*
X132523000Y-49852000D01*
X132523000Y-50106000D01*
X132503000Y-50106000D01*
X132503000Y-51530250D01*
X132661750Y-51689000D01*
X133032500Y-51690787D01*
X133032500Y-52514500D01*
X125476000Y-52514500D01*
X125476000Y-51786322D01*
X126149283Y-51786322D01*
X126178275Y-51994675D01*
X126373997Y-52080532D01*
X126582710Y-52126556D01*
X126796390Y-52130979D01*
X127006828Y-52093629D01*
X127205936Y-52015943D01*
X127245725Y-51994675D01*
X127274717Y-51786322D01*
X126712000Y-51223605D01*
X126149283Y-51786322D01*
X125476000Y-51786322D01*
X125476000Y-50609500D01*
X125717798Y-50609500D01*
X125675468Y-50705997D01*
X125629444Y-50914710D01*
X125625021Y-51128390D01*
X125662371Y-51338828D01*
X125740057Y-51537936D01*
X125761325Y-51577725D01*
X125969678Y-51606717D01*
X126532395Y-51044000D01*
X126518253Y-51029858D01*
X126697858Y-50850253D01*
X126712000Y-50864395D01*
X126726143Y-50850253D01*
X126905748Y-51029858D01*
X126891605Y-51044000D01*
X127454322Y-51606717D01*
X127662675Y-51577725D01*
X127748532Y-51382003D01*
X127794556Y-51173290D01*
X127798979Y-50959610D01*
X127783059Y-50869914D01*
X127783403Y-50870557D01*
X127799197Y-50889803D01*
X127818443Y-50905597D01*
X127840399Y-50917333D01*
X127864224Y-50924560D01*
X127889000Y-50927000D01*
X128981167Y-50927000D01*
X129024815Y-50980185D01*
X129112322Y-51052000D01*
X128999750Y-51052000D01*
X128841000Y-51210750D01*
X128852206Y-51313229D01*
X128890379Y-51432346D01*
X128951057Y-51541727D01*
X129031908Y-51637169D01*
X129129826Y-51715003D01*
X129241046Y-51772239D01*
X129361296Y-51806677D01*
X129485954Y-51816994D01*
X129890250Y-51814000D01*
X130049000Y-51655250D01*
X130049000Y-51167072D01*
X130303000Y-51167072D01*
X130303000Y-51655250D01*
X130461750Y-51814000D01*
X130866046Y-51816994D01*
X130990704Y-51806677D01*
X131110954Y-51772239D01*
X131222174Y-51715003D01*
X131283591Y-51666183D01*
X131328518Y-51679812D01*
X131453000Y-51692072D01*
X132090250Y-51689000D01*
X132249000Y-51530250D01*
X132249000Y-50106000D01*
X132229000Y-50106000D01*
X132229000Y-49852000D01*
X132249000Y-49852000D01*
X132249000Y-48427750D01*
X132090250Y-48269000D01*
X131635500Y-48266808D01*
X131635500Y-47879000D01*
X133032500Y-47879000D01*
X133032500Y-48267213D01*
G04 #@! TA.AperFunction,Conductor*
D67*
G36*
X133032500Y-48267213D02*
G01*
X132661750Y-48269000D01*
X132503000Y-48427750D01*
X132503000Y-49852000D01*
X132523000Y-49852000D01*
X132523000Y-50106000D01*
X132503000Y-50106000D01*
X132503000Y-51530250D01*
X132661750Y-51689000D01*
X133032500Y-51690787D01*
X133032500Y-52514500D01*
X125476000Y-52514500D01*
X125476000Y-51786322D01*
X126149283Y-51786322D01*
X126178275Y-51994675D01*
X126373997Y-52080532D01*
X126582710Y-52126556D01*
X126796390Y-52130979D01*
X127006828Y-52093629D01*
X127205936Y-52015943D01*
X127245725Y-51994675D01*
X127274717Y-51786322D01*
X126712000Y-51223605D01*
X126149283Y-51786322D01*
X125476000Y-51786322D01*
X125476000Y-50609500D01*
X125717798Y-50609500D01*
X125675468Y-50705997D01*
X125629444Y-50914710D01*
X125625021Y-51128390D01*
X125662371Y-51338828D01*
X125740057Y-51537936D01*
X125761325Y-51577725D01*
X125969678Y-51606717D01*
X126532395Y-51044000D01*
X126518253Y-51029858D01*
X126697858Y-50850253D01*
X126712000Y-50864395D01*
X126726143Y-50850253D01*
X126905748Y-51029858D01*
X126891605Y-51044000D01*
X127454322Y-51606717D01*
X127662675Y-51577725D01*
X127748532Y-51382003D01*
X127794556Y-51173290D01*
X127798979Y-50959610D01*
X127783059Y-50869914D01*
X127783403Y-50870557D01*
X127799197Y-50889803D01*
X127818443Y-50905597D01*
X127840399Y-50917333D01*
X127864224Y-50924560D01*
X127889000Y-50927000D01*
X128981167Y-50927000D01*
X129024815Y-50980185D01*
X129112322Y-51052000D01*
X128999750Y-51052000D01*
X128841000Y-51210750D01*
X128852206Y-51313229D01*
X128890379Y-51432346D01*
X128951057Y-51541727D01*
X129031908Y-51637169D01*
X129129826Y-51715003D01*
X129241046Y-51772239D01*
X129361296Y-51806677D01*
X129485954Y-51816994D01*
X129890250Y-51814000D01*
X130049000Y-51655250D01*
X130049000Y-51167072D01*
X130303000Y-51167072D01*
X130303000Y-51655250D01*
X130461750Y-51814000D01*
X130866046Y-51816994D01*
X130990704Y-51806677D01*
X131110954Y-51772239D01*
X131222174Y-51715003D01*
X131283591Y-51666183D01*
X131328518Y-51679812D01*
X131453000Y-51692072D01*
X132090250Y-51689000D01*
X132249000Y-51530250D01*
X132249000Y-50106000D01*
X132229000Y-50106000D01*
X132229000Y-49852000D01*
X132249000Y-49852000D01*
X132249000Y-48427750D01*
X132090250Y-48269000D01*
X131635500Y-48266808D01*
X131635500Y-47879000D01*
X133032500Y-47879000D01*
X133032500Y-48267213D01*
G37*
G04 #@! TD.AperFunction*
D66*
X130683000Y-48142362D02*
X130461750Y-48144000D01*
X130303000Y-48302750D01*
X130303000Y-48906000D01*
X130323000Y-48906000D01*
X130323000Y-48932750D01*
X130303000Y-48952750D01*
X130303000Y-49151000D01*
X130049000Y-49151000D01*
X130049000Y-48952750D01*
X130002250Y-48906000D01*
X130049000Y-48906000D01*
X130049000Y-48302750D01*
X129890250Y-48144000D01*
X129485954Y-48141006D01*
X129361296Y-48151323D01*
X129241046Y-48185761D01*
X129129826Y-48242997D01*
X129031908Y-48320831D01*
X128951057Y-48416273D01*
X128890379Y-48525654D01*
X128852206Y-48644771D01*
X128841000Y-48747250D01*
X128999750Y-48906000D01*
X129113468Y-48906000D01*
X129031908Y-48970831D01*
X128951057Y-49066273D01*
X128890379Y-49175654D01*
X128873535Y-49228215D01*
X128841000Y-49260750D01*
X128848463Y-49329000D01*
X128841000Y-49397250D01*
X128873535Y-49429785D01*
X128890379Y-49482346D01*
X128951057Y-49591727D01*
X129003564Y-49653710D01*
X128945463Y-49724506D01*
X128899871Y-49809802D01*
X127763272Y-49825161D01*
X127794556Y-49683290D01*
X127798979Y-49469610D01*
X127761629Y-49259172D01*
X127683943Y-49060064D01*
X127662675Y-49020275D01*
X127454322Y-48991283D01*
X126891605Y-49554000D01*
X126905748Y-49568143D01*
X126726143Y-49747748D01*
X126712000Y-49733605D01*
X126697858Y-49747748D01*
X126518253Y-49568143D01*
X126532395Y-49554000D01*
X126518253Y-49539858D01*
X126697858Y-49360253D01*
X126712000Y-49374395D01*
X127274717Y-48811678D01*
X127245725Y-48603325D01*
X127050003Y-48517468D01*
X126841290Y-48471444D01*
X126627610Y-48467021D01*
X126417172Y-48504371D01*
X126238000Y-48574279D01*
X126238000Y-47815500D01*
X130683000Y-47815500D01*
X130683000Y-48142362D01*
G04 #@! TA.AperFunction,Conductor*
D67*
G36*
X130683000Y-48142362D02*
G01*
X130461750Y-48144000D01*
X130303000Y-48302750D01*
X130303000Y-48906000D01*
X130323000Y-48906000D01*
X130323000Y-48932750D01*
X130303000Y-48952750D01*
X130303000Y-49151000D01*
X130049000Y-49151000D01*
X130049000Y-48952750D01*
X130002250Y-48906000D01*
X130049000Y-48906000D01*
X130049000Y-48302750D01*
X129890250Y-48144000D01*
X129485954Y-48141006D01*
X129361296Y-48151323D01*
X129241046Y-48185761D01*
X129129826Y-48242997D01*
X129031908Y-48320831D01*
X128951057Y-48416273D01*
X128890379Y-48525654D01*
X128852206Y-48644771D01*
X128841000Y-48747250D01*
X128999750Y-48906000D01*
X129113468Y-48906000D01*
X129031908Y-48970831D01*
X128951057Y-49066273D01*
X128890379Y-49175654D01*
X128873535Y-49228215D01*
X128841000Y-49260750D01*
X128848463Y-49329000D01*
X128841000Y-49397250D01*
X128873535Y-49429785D01*
X128890379Y-49482346D01*
X128951057Y-49591727D01*
X129003564Y-49653710D01*
X128945463Y-49724506D01*
X128899871Y-49809802D01*
X127763272Y-49825161D01*
X127794556Y-49683290D01*
X127798979Y-49469610D01*
X127761629Y-49259172D01*
X127683943Y-49060064D01*
X127662675Y-49020275D01*
X127454322Y-48991283D01*
X126891605Y-49554000D01*
X126905748Y-49568143D01*
X126726143Y-49747748D01*
X126712000Y-49733605D01*
X126697858Y-49747748D01*
X126518253Y-49568143D01*
X126532395Y-49554000D01*
X126518253Y-49539858D01*
X126697858Y-49360253D01*
X126712000Y-49374395D01*
X127274717Y-48811678D01*
X127245725Y-48603325D01*
X127050003Y-48517468D01*
X126841290Y-48471444D01*
X126627610Y-48467021D01*
X126417172Y-48504371D01*
X126238000Y-48574279D01*
X126238000Y-47815500D01*
X130683000Y-47815500D01*
X130683000Y-48142362D01*
G37*
G04 #@! TD.AperFunction*
D66*
X181864000Y-51564674D02*
X181774197Y-51566585D01*
X181814502Y-51491180D01*
X181850812Y-51371482D01*
X181863072Y-51247000D01*
X181860000Y-50477750D01*
X181701250Y-50319000D01*
X180677000Y-50319000D01*
X180677000Y-50339000D01*
X180423000Y-50339000D01*
X180423000Y-50319000D01*
X179398750Y-50319000D01*
X179240000Y-50477750D01*
X179236928Y-51247000D01*
X179249188Y-51371482D01*
X179285498Y-51491180D01*
X179344463Y-51601494D01*
X179358003Y-51617992D01*
X179133500Y-51622769D01*
X179133500Y-49137000D01*
X179236928Y-49137000D01*
X179240000Y-49906250D01*
X179398750Y-50065000D01*
X180423000Y-50065000D01*
X180423000Y-47779000D01*
X180677000Y-47779000D01*
X180677000Y-50065000D01*
X181701250Y-50065000D01*
X181860000Y-49906250D01*
X181863072Y-49137000D01*
X181850812Y-49012518D01*
X181814502Y-48892820D01*
X181755537Y-48782506D01*
X181692099Y-48705206D01*
X181700812Y-48676482D01*
X181713072Y-48552000D01*
X181710000Y-47937750D01*
X181551250Y-47779000D01*
X180677000Y-47779000D01*
X180423000Y-47779000D01*
X179548750Y-47779000D01*
X179390000Y-47937750D01*
X179386928Y-48552000D01*
X179399188Y-48676482D01*
X179407901Y-48705206D01*
X179344463Y-48782506D01*
X179285498Y-48892820D01*
X179249188Y-49012518D01*
X179236928Y-49137000D01*
X179133500Y-49137000D01*
X179133500Y-46752000D01*
X179386928Y-46752000D01*
X179390000Y-47366250D01*
X179548750Y-47525000D01*
X180423000Y-47525000D01*
X180423000Y-46275750D01*
X180677000Y-46275750D01*
X180677000Y-47525000D01*
X181551250Y-47525000D01*
X181710000Y-47366250D01*
X181713072Y-46752000D01*
X181700812Y-46627518D01*
X181664502Y-46507820D01*
X181605537Y-46397506D01*
X181526185Y-46300815D01*
X181429494Y-46221463D01*
X181319180Y-46162498D01*
X181199482Y-46126188D01*
X181075000Y-46113928D01*
X180835750Y-46117000D01*
X180677000Y-46275750D01*
X180423000Y-46275750D01*
X180264250Y-46117000D01*
X180025000Y-46113928D01*
X179900518Y-46126188D01*
X179780820Y-46162498D01*
X179670506Y-46221463D01*
X179573815Y-46300815D01*
X179494463Y-46397506D01*
X179435498Y-46507820D01*
X179399188Y-46627518D01*
X179386928Y-46752000D01*
X179133500Y-46752000D01*
X179133500Y-46101000D01*
X181864000Y-46101000D01*
X181864000Y-51564674D01*
G04 #@! TA.AperFunction,Conductor*
D67*
G36*
X181864000Y-51564674D02*
G01*
X181774197Y-51566585D01*
X181814502Y-51491180D01*
X181850812Y-51371482D01*
X181863072Y-51247000D01*
X181860000Y-50477750D01*
X181701250Y-50319000D01*
X180677000Y-50319000D01*
X180677000Y-50339000D01*
X180423000Y-50339000D01*
X180423000Y-50319000D01*
X179398750Y-50319000D01*
X179240000Y-50477750D01*
X179236928Y-51247000D01*
X179249188Y-51371482D01*
X179285498Y-51491180D01*
X179344463Y-51601494D01*
X179358003Y-51617992D01*
X179133500Y-51622769D01*
X179133500Y-49137000D01*
X179236928Y-49137000D01*
X179240000Y-49906250D01*
X179398750Y-50065000D01*
X180423000Y-50065000D01*
X180423000Y-47779000D01*
X180677000Y-47779000D01*
X180677000Y-50065000D01*
X181701250Y-50065000D01*
X181860000Y-49906250D01*
X181863072Y-49137000D01*
X181850812Y-49012518D01*
X181814502Y-48892820D01*
X181755537Y-48782506D01*
X181692099Y-48705206D01*
X181700812Y-48676482D01*
X181713072Y-48552000D01*
X181710000Y-47937750D01*
X181551250Y-47779000D01*
X180677000Y-47779000D01*
X180423000Y-47779000D01*
X179548750Y-47779000D01*
X179390000Y-47937750D01*
X179386928Y-48552000D01*
X179399188Y-48676482D01*
X179407901Y-48705206D01*
X179344463Y-48782506D01*
X179285498Y-48892820D01*
X179249188Y-49012518D01*
X179236928Y-49137000D01*
X179133500Y-49137000D01*
X179133500Y-46752000D01*
X179386928Y-46752000D01*
X179390000Y-47366250D01*
X179548750Y-47525000D01*
X180423000Y-47525000D01*
X180423000Y-46275750D01*
X180677000Y-46275750D01*
X180677000Y-47525000D01*
X181551250Y-47525000D01*
X181710000Y-47366250D01*
X181713072Y-46752000D01*
X181700812Y-46627518D01*
X181664502Y-46507820D01*
X181605537Y-46397506D01*
X181526185Y-46300815D01*
X181429494Y-46221463D01*
X181319180Y-46162498D01*
X181199482Y-46126188D01*
X181075000Y-46113928D01*
X180835750Y-46117000D01*
X180677000Y-46275750D01*
X180423000Y-46275750D01*
X180264250Y-46117000D01*
X180025000Y-46113928D01*
X179900518Y-46126188D01*
X179780820Y-46162498D01*
X179670506Y-46221463D01*
X179573815Y-46300815D01*
X179494463Y-46397506D01*
X179435498Y-46507820D01*
X179399188Y-46627518D01*
X179386928Y-46752000D01*
X179133500Y-46752000D01*
X179133500Y-46101000D01*
X181864000Y-46101000D01*
X181864000Y-51564674D01*
G37*
G04 #@! TD.AperFunction*
M02*
