M48
; DRILL file {KiCad (5.1.9)-1} date 04/13/21 17:12:19
; FORMAT={-:-/ absolute / metric / decimal}
; #@! TF.CreationDate,2021-04-13T17:12:19+02:00
; #@! TF.GenerationSoftware,Kicad,Pcbnew,(5.1.9)-1
; #@! TF.FileFunction,Plated,1,4,PTH
FMAT,2
METRIC
T1C0.400
T2C0.500
T3C0.650
T4C1.150
%
G90
G05
T1
X53.848Y-112.014
X54.71Y-118.27
X54.837Y-116.274
X55.88Y-112.485
X57.05Y-91.69
X57.25Y-116.65
X57.404Y-119.634
X57.56Y-123.13
X59.436Y-105.255
X59.944Y-112.585
X60.3Y-99.74
X60.47Y-116.58
X60.47Y-126.29
X61.88Y-102.75
X63.04Y-89.975
X63.06Y-92.58
X63.75Y-124.66
X66.04Y-103.632
X66.27Y-89.03
X67.88Y-89.42
X67.98Y-111.99
X69.45Y-93.17
X69.46Y-96.55
X69.48Y-88.53
X69.57Y-125.58
X69.84Y-105.46
X69.98Y-115.94
X70.06Y-91.08
X70.38Y-114.08
X70.8Y-117.58
X70.88Y-105.44
X71.26Y-100.71
X71.374Y-103.632
X71.57Y-125.14
X72.06Y-85.28
X72.97Y-117.345
X73.15Y-97.41
X73.37Y-131.68
X73.865Y-116.115
X74.443Y-114.622
X75.258Y-112.956
X75.335Y-116.56
X75.433Y-105.923
X75.438Y-107.03
X75.438Y-108.966
X75.455Y-82.095
X75.544Y-98.584
X76.568Y-96.24
X76.85Y-76.46
X76.98Y-111.84
X77.53Y-120.905
X77.978Y-105.918
X77.99Y-112.4
X78.26Y-110.22
X78.745Y-119.677
X78.94Y-117.35
X78.95Y-82.82
X79.1Y-126.95
X79.37Y-115.62
X80.521Y-113.55
X80.82Y-125.42
X81.51Y-115.05
X82.06Y-80.96
X82.49Y-78.25
X83.07Y-125.16
X83.61Y-96.565
X83.651Y-112.49
X83.675Y-107.691
X83.79Y-110.383
X84.02Y-115.77
X84.04Y-113.63
X84.78Y-112.83
X85.39Y-116.15
X85.62Y-125.471
X85.852Y-135.382
X85.96Y-106.22
X86.23Y-104.34
X86.679Y-90.146
X86.868Y-131.064
X87.61Y-90.51
X87.63Y-135.382
X87.72Y-100.84
X88.26Y-118.28
X88.482Y-98.335
X88.49Y-113.65
X88.72Y-112.56
X88.9Y-109.474
X89.19Y-82.73
X89.29Y-78.38
X89.916Y-131.318
X90.19Y-119.163
X90.42Y-91.235
X90.678Y-130.302
X90.932Y-109.728
X92.51Y-76.29
X92.52Y-90.15
X92.55Y-81.81
X92.964Y-105.156
X92.965Y-118.805
X93.59Y-136.54
X98.085Y-116.97
X99.314Y-85.598
X100.076Y-91.44
X102.362Y-85.598
X102.67Y-108.92
X103.124Y-90.505
X103.886Y-104.902
X108.29Y-101.19
X109.11Y-111.87
X111.76Y-98.552
X112.45Y-109.95
T3
X69.46Y-102.35
X72.54Y-78.95
X72.54Y-86.95
X74.34Y-102.35
X75.04Y-78.95
X75.04Y-86.95
X99.04Y-78.95
X99.04Y-86.95
X101.5Y-111.48
X101.5Y-113.98
X101.54Y-78.95
X101.54Y-86.95
T4
X99.314Y-119.634
X99.314Y-122.174
X101.854Y-119.634
X101.854Y-122.174
X104.394Y-119.634
X104.394Y-122.174
X107.95Y-119.634
X107.95Y-122.174
X110.49Y-119.634
X110.49Y-122.174
X113.03Y-119.634
X113.03Y-122.174
T2
X82.464Y-140.011G85X82.464Y-140.611
G05
X82.824Y-134.061G85X82.824Y-134.661
G05
X91.084Y-134.061G85X91.084Y-134.661
G05
X91.444Y-140.011G85X91.444Y-140.611
G05
T0
M30
