G04 #@! TF.GenerationSoftware,KiCad,Pcbnew,(5.1.9)-1*
G04 #@! TF.CreationDate,2021-04-13T17:11:41+02:00*
G04 #@! TF.ProjectId,sh_control,73685f63-6f6e-4747-926f-6c2e6b696361,rev?*
G04 #@! TF.SameCoordinates,Original*
G04 #@! TF.FileFunction,Legend,Bot*
G04 #@! TF.FilePolarity,Positive*
%FSLAX46Y46*%
G04 Gerber Fmt 4.6, Leading zero omitted, Abs format (unit mm)*
G04 Created by KiCad (PCBNEW (5.1.9)-1) date 2021-04-13 17:11:41*
%MOMM*%
%LPD*%
G01*
G04 APERTURE LIST*
%ADD10C,0.200000*%
%ADD11C,0.120000*%
%ADD12C,0.100000*%
%ADD13C,0.400000*%
%ADD14C,0.254000*%
%ADD15C,0.150000*%
%ADD16R,1.800000X1.050000*%
%ADD17R,2.000000X2.000000*%
%ADD18R,2.000000X5.500000*%
%ADD19C,1.192000*%
%ADD20R,1.050000X1.800000*%
%ADD21R,1.200000X1.800000*%
%ADD22R,1.500000X0.900000*%
%ADD23R,1.100000X1.550000*%
%ADD24C,1.725000*%
%ADD25R,1.725000X1.725000*%
%ADD26O,0.800000X1.600000*%
%ADD27C,0.650000*%
%ADD28R,1.700000X0.450000*%
%ADD29R,1.500000X0.600000*%
%ADD30R,0.600000X1.500000*%
%ADD31C,3.200000*%
%ADD32R,2.110000X1.350000*%
%ADD33R,1.820000X1.020000*%
%ADD34C,1.050000*%
%ADD35R,1.050000X1.050000*%
%ADD36R,1.050000X1.820000*%
%ADD37R,1.020000X1.820000*%
%ADD38R,1.390000X0.960000*%
G04 APERTURE END LIST*
D10*
X56850000Y-97400000D02*
X58250000Y-97400000D01*
D11*
X101530000Y-126680000D02*
X101530000Y-129080000D01*
X103930000Y-126680000D02*
X101530000Y-126680000D01*
X103930000Y-129080000D02*
X103930000Y-126680000D01*
X101530000Y-129080000D02*
X103930000Y-129080000D01*
X96251665Y-126680000D02*
X96251665Y-129080000D01*
X98651665Y-126680000D02*
X96251665Y-126680000D01*
X98651665Y-129080000D02*
X98651665Y-126680000D01*
X96251665Y-129080000D02*
X98651665Y-129080000D01*
X90973332Y-126680000D02*
X90973332Y-129080000D01*
X93373332Y-126680000D02*
X90973332Y-126680000D01*
X93373332Y-129080000D02*
X93373332Y-126680000D01*
X90973332Y-129080000D02*
X93373332Y-129080000D01*
X85694999Y-126680000D02*
X85694999Y-129080000D01*
X88094999Y-126680000D02*
X85694999Y-126680000D01*
X88094999Y-129080000D02*
X88094999Y-126680000D01*
X85694999Y-129080000D02*
X88094999Y-129080000D01*
X80416666Y-126680000D02*
X80416666Y-129080000D01*
X82816666Y-126680000D02*
X80416666Y-126680000D01*
X82816666Y-129080000D02*
X82816666Y-126680000D01*
X80416666Y-129080000D02*
X82816666Y-129080000D01*
X75138333Y-126680000D02*
X75138333Y-129080000D01*
X77538333Y-126680000D02*
X75138333Y-126680000D01*
X77538333Y-129080000D02*
X77538333Y-126680000D01*
X75138333Y-129080000D02*
X77538333Y-129080000D01*
X69860000Y-126680000D02*
X69860000Y-129080000D01*
X72260000Y-126680000D02*
X69860000Y-126680000D01*
X72260000Y-129080000D02*
X72260000Y-126680000D01*
X69860000Y-129080000D02*
X72260000Y-129080000D01*
D12*
X105820000Y-104770000D02*
X104920000Y-104770000D01*
X104920000Y-104770000D02*
X104920000Y-116170000D01*
X104920000Y-116170000D02*
X105820000Y-116170000D01*
X108820000Y-104770000D02*
X109720000Y-104770000D01*
X109720000Y-104770000D02*
X109720000Y-116170000D01*
X109720000Y-116170000D02*
X108820000Y-116170000D01*
D10*
X61460000Y-109040000D02*
X61460000Y-110440000D01*
X61440000Y-106540000D02*
X61440000Y-107940000D01*
X93010000Y-121430000D02*
X94410000Y-121430000D01*
X81026000Y-111568000D02*
X81026000Y-112968000D01*
X81050000Y-107634000D02*
X81050000Y-106234000D01*
X99220000Y-107680000D02*
X99220000Y-109080000D01*
X80542000Y-105094000D02*
X80542000Y-103694000D01*
D12*
X107520000Y-98140000D02*
X112520000Y-98140000D01*
X107520000Y-93140000D02*
X112520000Y-93140000D01*
X107520000Y-94640000D02*
X107520000Y-96640000D01*
X112520000Y-94640000D02*
X112520000Y-96640000D01*
D10*
X106320000Y-97140000D02*
X106320000Y-97140000D01*
X106320000Y-97340000D02*
X106320000Y-97340000D01*
X106320000Y-97140000D02*
G75*
G02*
X106320000Y-97340000I0J-100000D01*
G01*
X106320000Y-97340000D02*
G75*
G02*
X106320000Y-97140000I0J100000D01*
G01*
D12*
X98406000Y-98140000D02*
X103406000Y-98140000D01*
X98406000Y-93140000D02*
X103406000Y-93140000D01*
X98406000Y-94640000D02*
X98406000Y-96640000D01*
X103406000Y-94640000D02*
X103406000Y-96640000D01*
D10*
X97206000Y-97140000D02*
X97206000Y-97140000D01*
X97206000Y-97340000D02*
X97206000Y-97340000D01*
X97206000Y-97140000D02*
G75*
G02*
X97206000Y-97340000I0J-100000D01*
G01*
X97206000Y-97340000D02*
G75*
G02*
X97206000Y-97140000I0J100000D01*
G01*
D12*
X89292000Y-98140000D02*
X94292000Y-98140000D01*
X89292000Y-93140000D02*
X94292000Y-93140000D01*
X89292000Y-94640000D02*
X89292000Y-96640000D01*
X94292000Y-94640000D02*
X94292000Y-96640000D01*
D10*
X88092000Y-97140000D02*
X88092000Y-97140000D01*
X88092000Y-97340000D02*
X88092000Y-97340000D01*
X88092000Y-97140000D02*
G75*
G02*
X88092000Y-97340000I0J-100000D01*
G01*
X88092000Y-97340000D02*
G75*
G02*
X88092000Y-97140000I0J100000D01*
G01*
D12*
X80178000Y-98140000D02*
X85178000Y-98140000D01*
X80178000Y-93140000D02*
X85178000Y-93140000D01*
X80178000Y-94640000D02*
X80178000Y-96640000D01*
X85178000Y-94640000D02*
X85178000Y-96640000D01*
D10*
X78978000Y-97140000D02*
X78978000Y-97140000D01*
X78978000Y-97340000D02*
X78978000Y-97340000D01*
X78978000Y-97140000D02*
G75*
G02*
X78978000Y-97340000I0J-100000D01*
G01*
X78978000Y-97340000D02*
G75*
G02*
X78978000Y-97140000I0J100000D01*
G01*
D12*
X71064000Y-98140000D02*
X76064000Y-98140000D01*
X71064000Y-93140000D02*
X76064000Y-93140000D01*
X71064000Y-94640000D02*
X71064000Y-96640000D01*
X76064000Y-94640000D02*
X76064000Y-96640000D01*
D10*
X69864000Y-97140000D02*
X69864000Y-97140000D01*
X69864000Y-97340000D02*
X69864000Y-97340000D01*
X69864000Y-97140000D02*
G75*
G02*
X69864000Y-97340000I0J-100000D01*
G01*
X69864000Y-97340000D02*
G75*
G02*
X69864000Y-97140000I0J100000D01*
G01*
D12*
X61950000Y-98140000D02*
X66950000Y-98140000D01*
X61950000Y-93140000D02*
X66950000Y-93140000D01*
X61950000Y-94640000D02*
X61950000Y-96640000D01*
X66950000Y-94640000D02*
X66950000Y-96640000D01*
D10*
X60750000Y-97140000D02*
X60750000Y-97140000D01*
X60750000Y-97340000D02*
X60750000Y-97340000D01*
X60750000Y-97140000D02*
G75*
G02*
X60750000Y-97340000I0J-100000D01*
G01*
X60750000Y-97340000D02*
G75*
G02*
X60750000Y-97140000I0J100000D01*
G01*
X57590000Y-110885000D02*
X53690000Y-110885000D01*
X53690000Y-110885000D02*
X53690000Y-108635000D01*
X53690000Y-108635000D02*
X57590000Y-108635000D01*
X57610000Y-108195000D02*
X53710000Y-108195000D01*
X53710000Y-108195000D02*
X53710000Y-105945000D01*
X53710000Y-105945000D02*
X57610000Y-105945000D01*
X91340000Y-123565000D02*
X87440000Y-123565000D01*
X87440000Y-123565000D02*
X87440000Y-121315000D01*
X87440000Y-121315000D02*
X91340000Y-121315000D01*
X71780000Y-104892000D02*
X67180000Y-104892000D01*
X67180000Y-104892000D02*
X67180000Y-115168000D01*
X67180000Y-115168000D02*
X71780000Y-115168000D01*
X71780000Y-115168000D02*
X71780000Y-104892000D01*
X73830000Y-105230000D02*
X72130000Y-105230000D01*
X87740000Y-108770000D02*
X87740000Y-115070000D01*
X87740000Y-115070000D02*
X94040000Y-115070000D01*
X94040000Y-115070000D02*
X94040000Y-108770000D01*
X94040000Y-108770000D02*
X87740000Y-108770000D01*
D13*
X87090000Y-107320000D02*
G75*
G03*
X87090000Y-107320000I-200000J0D01*
G01*
D10*
X76570000Y-121010000D02*
X77970000Y-121010000D01*
X73640000Y-121010000D02*
X75040000Y-121010000D01*
X70710000Y-121010000D02*
X72110000Y-121010000D01*
X67780000Y-121010000D02*
X69180000Y-121010000D01*
X64850000Y-121010000D02*
X66250000Y-121010000D01*
X62070000Y-121155000D02*
X63470000Y-121155000D01*
X59440000Y-121155000D02*
X60840000Y-121155000D01*
X63710000Y-113390000D02*
X62310000Y-113390000D01*
X111894000Y-99884000D02*
X111894000Y-101284000D01*
X102870000Y-99884000D02*
X102870000Y-101284000D01*
X93726000Y-99884000D02*
X93726000Y-101284000D01*
X84716000Y-99630000D02*
X84716000Y-101030000D01*
X75438000Y-99630000D02*
X75438000Y-101030000D01*
X66428000Y-99884000D02*
X66428000Y-101284000D01*
X89690000Y-120690000D02*
X89690000Y-119290000D01*
X81280000Y-110174000D02*
X81280000Y-108774000D01*
X81780000Y-120140000D02*
X83180000Y-120140000D01*
D14*
X55574523Y-98263571D02*
X54969761Y-97840238D01*
X55574523Y-97537857D02*
X54304523Y-97537857D01*
X54304523Y-98021666D01*
X54365000Y-98142619D01*
X54425476Y-98203095D01*
X54546428Y-98263571D01*
X54727857Y-98263571D01*
X54848809Y-98203095D01*
X54909285Y-98142619D01*
X54969761Y-98021666D01*
X54969761Y-97537857D01*
X54304523Y-98686904D02*
X54304523Y-99473095D01*
X54788333Y-99049761D01*
X54788333Y-99231190D01*
X54848809Y-99352142D01*
X54909285Y-99412619D01*
X55030238Y-99473095D01*
X55332619Y-99473095D01*
X55453571Y-99412619D01*
X55514047Y-99352142D01*
X55574523Y-99231190D01*
X55574523Y-98868333D01*
X55514047Y-98747380D01*
X55453571Y-98686904D01*
X54304523Y-99896428D02*
X54304523Y-100682619D01*
X54788333Y-100259285D01*
X54788333Y-100440714D01*
X54848809Y-100561666D01*
X54909285Y-100622142D01*
X55030238Y-100682619D01*
X55332619Y-100682619D01*
X55453571Y-100622142D01*
X55514047Y-100561666D01*
X55574523Y-100440714D01*
X55574523Y-100077857D01*
X55514047Y-99956904D01*
X55453571Y-99896428D01*
D15*
X103968095Y-129378000D02*
X104063333Y-129330380D01*
X104206190Y-129330380D01*
X104349047Y-129378000D01*
X104444285Y-129473238D01*
X104491904Y-129568476D01*
X104539523Y-129758952D01*
X104539523Y-129901809D01*
X104491904Y-130092285D01*
X104444285Y-130187523D01*
X104349047Y-130282761D01*
X104206190Y-130330380D01*
X104110952Y-130330380D01*
X103968095Y-130282761D01*
X103920476Y-130235142D01*
X103920476Y-129901809D01*
X104110952Y-129901809D01*
X103491904Y-130330380D02*
X103491904Y-129330380D01*
X102920476Y-130330380D01*
X102920476Y-129330380D01*
X102444285Y-130330380D02*
X102444285Y-129330380D01*
X102206190Y-129330380D01*
X102063333Y-129378000D01*
X101968095Y-129473238D01*
X101920476Y-129568476D01*
X101872857Y-129758952D01*
X101872857Y-129901809D01*
X101920476Y-130092285D01*
X101968095Y-130187523D01*
X102063333Y-130282761D01*
X102206190Y-130330380D01*
X102444285Y-130330380D01*
X101491904Y-129425619D02*
X101444285Y-129378000D01*
X101349047Y-129330380D01*
X101110952Y-129330380D01*
X101015714Y-129378000D01*
X100968095Y-129425619D01*
X100920476Y-129520857D01*
X100920476Y-129616095D01*
X100968095Y-129758952D01*
X101539523Y-130330380D01*
X100920476Y-130330380D01*
X98689760Y-129378000D02*
X98784998Y-129330380D01*
X98927855Y-129330380D01*
X99070712Y-129378000D01*
X99165950Y-129473238D01*
X99213569Y-129568476D01*
X99261188Y-129758952D01*
X99261188Y-129901809D01*
X99213569Y-130092285D01*
X99165950Y-130187523D01*
X99070712Y-130282761D01*
X98927855Y-130330380D01*
X98832617Y-130330380D01*
X98689760Y-130282761D01*
X98642141Y-130235142D01*
X98642141Y-129901809D01*
X98832617Y-129901809D01*
X98213569Y-130330380D02*
X98213569Y-129330380D01*
X97642141Y-130330380D01*
X97642141Y-129330380D01*
X97165950Y-130330380D02*
X97165950Y-129330380D01*
X96927855Y-129330380D01*
X96784998Y-129378000D01*
X96689760Y-129473238D01*
X96642141Y-129568476D01*
X96594522Y-129758952D01*
X96594522Y-129901809D01*
X96642141Y-130092285D01*
X96689760Y-130187523D01*
X96784998Y-130282761D01*
X96927855Y-130330380D01*
X97165950Y-130330380D01*
X95642141Y-130330380D02*
X96213569Y-130330380D01*
X95927855Y-130330380D02*
X95927855Y-129330380D01*
X96023093Y-129473238D01*
X96118331Y-129568476D01*
X96213569Y-129616095D01*
X93411427Y-130330380D02*
X93411427Y-129330380D01*
X93030474Y-129330380D01*
X92935236Y-129378000D01*
X92887617Y-129425619D01*
X92839998Y-129520857D01*
X92839998Y-129663714D01*
X92887617Y-129758952D01*
X92935236Y-129806571D01*
X93030474Y-129854190D01*
X93411427Y-129854190D01*
X92411427Y-130330380D02*
X92411427Y-129330380D01*
X92173332Y-129330380D01*
X92030474Y-129378000D01*
X91935236Y-129473238D01*
X91887617Y-129568476D01*
X91839998Y-129758952D01*
X91839998Y-129901809D01*
X91887617Y-130092285D01*
X91935236Y-130187523D01*
X92030474Y-130282761D01*
X92173332Y-130330380D01*
X92411427Y-130330380D01*
X91506665Y-129330380D02*
X90839998Y-129330380D01*
X91268570Y-130330380D01*
X88133094Y-130330380D02*
X88133094Y-129330380D01*
X87752141Y-129330380D01*
X87656903Y-129378000D01*
X87609284Y-129425619D01*
X87561665Y-129520857D01*
X87561665Y-129663714D01*
X87609284Y-129758952D01*
X87656903Y-129806571D01*
X87752141Y-129854190D01*
X88133094Y-129854190D01*
X87133094Y-130330380D02*
X87133094Y-129330380D01*
X86894999Y-129330380D01*
X86752141Y-129378000D01*
X86656903Y-129473238D01*
X86609284Y-129568476D01*
X86561665Y-129758952D01*
X86561665Y-129901809D01*
X86609284Y-130092285D01*
X86656903Y-130187523D01*
X86752141Y-130282761D01*
X86894999Y-130330380D01*
X87133094Y-130330380D01*
X86228332Y-129330380D02*
X85609284Y-129330380D01*
X85942618Y-129711333D01*
X85799760Y-129711333D01*
X85704522Y-129758952D01*
X85656903Y-129806571D01*
X85609284Y-129901809D01*
X85609284Y-130139904D01*
X85656903Y-130235142D01*
X85704522Y-130282761D01*
X85799760Y-130330380D01*
X86085475Y-130330380D01*
X86180713Y-130282761D01*
X86228332Y-130235142D01*
X82854761Y-130330380D02*
X82854761Y-129330380D01*
X82473808Y-129330380D01*
X82378570Y-129378000D01*
X82330951Y-129425619D01*
X82283332Y-129520857D01*
X82283332Y-129663714D01*
X82330951Y-129758952D01*
X82378570Y-129806571D01*
X82473808Y-129854190D01*
X82854761Y-129854190D01*
X81854761Y-130330380D02*
X81854761Y-129330380D01*
X81616666Y-129330380D01*
X81473808Y-129378000D01*
X81378570Y-129473238D01*
X81330951Y-129568476D01*
X81283332Y-129758952D01*
X81283332Y-129901809D01*
X81330951Y-130092285D01*
X81378570Y-130187523D01*
X81473808Y-130282761D01*
X81616666Y-130330380D01*
X81854761Y-130330380D01*
X80902380Y-129425619D02*
X80854761Y-129378000D01*
X80759523Y-129330380D01*
X80521427Y-129330380D01*
X80426189Y-129378000D01*
X80378570Y-129425619D01*
X80330951Y-129520857D01*
X80330951Y-129616095D01*
X80378570Y-129758952D01*
X80949999Y-130330380D01*
X80330951Y-130330380D01*
X77576428Y-130330380D02*
X77576428Y-129330380D01*
X77195475Y-129330380D01*
X77100237Y-129378000D01*
X77052618Y-129425619D01*
X77004999Y-129520857D01*
X77004999Y-129663714D01*
X77052618Y-129758952D01*
X77100237Y-129806571D01*
X77195475Y-129854190D01*
X77576428Y-129854190D01*
X76004999Y-130235142D02*
X76052618Y-130282761D01*
X76195475Y-130330380D01*
X76290713Y-130330380D01*
X76433571Y-130282761D01*
X76528809Y-130187523D01*
X76576428Y-130092285D01*
X76624047Y-129901809D01*
X76624047Y-129758952D01*
X76576428Y-129568476D01*
X76528809Y-129473238D01*
X76433571Y-129378000D01*
X76290713Y-129330380D01*
X76195475Y-129330380D01*
X76052618Y-129378000D01*
X76004999Y-129425619D01*
X75100237Y-129330380D02*
X75576428Y-129330380D01*
X75624047Y-129806571D01*
X75576428Y-129758952D01*
X75481190Y-129711333D01*
X75243094Y-129711333D01*
X75147856Y-129758952D01*
X75100237Y-129806571D01*
X75052618Y-129901809D01*
X75052618Y-130139904D01*
X75100237Y-130235142D01*
X75147856Y-130282761D01*
X75243094Y-130330380D01*
X75481190Y-130330380D01*
X75576428Y-130282761D01*
X75624047Y-130235142D01*
X72298095Y-130330380D02*
X72298095Y-129330380D01*
X71917142Y-129330380D01*
X71821904Y-129378000D01*
X71774285Y-129425619D01*
X71726666Y-129520857D01*
X71726666Y-129663714D01*
X71774285Y-129758952D01*
X71821904Y-129806571D01*
X71917142Y-129854190D01*
X72298095Y-129854190D01*
X70964761Y-129806571D02*
X70821904Y-129854190D01*
X70774285Y-129901809D01*
X70726666Y-129997047D01*
X70726666Y-130139904D01*
X70774285Y-130235142D01*
X70821904Y-130282761D01*
X70917142Y-130330380D01*
X71298095Y-130330380D01*
X71298095Y-129330380D01*
X70964761Y-129330380D01*
X70869523Y-129378000D01*
X70821904Y-129425619D01*
X70774285Y-129520857D01*
X70774285Y-129616095D01*
X70821904Y-129711333D01*
X70869523Y-129758952D01*
X70964761Y-129806571D01*
X71298095Y-129806571D01*
X70107619Y-129330380D02*
X70012380Y-129330380D01*
X69917142Y-129378000D01*
X69869523Y-129425619D01*
X69821904Y-129520857D01*
X69774285Y-129711333D01*
X69774285Y-129949428D01*
X69821904Y-130139904D01*
X69869523Y-130235142D01*
X69917142Y-130282761D01*
X70012380Y-130330380D01*
X70107619Y-130330380D01*
X70202857Y-130282761D01*
X70250476Y-130235142D01*
X70298095Y-130139904D01*
X70345714Y-129949428D01*
X70345714Y-129711333D01*
X70298095Y-129520857D01*
X70250476Y-129425619D01*
X70202857Y-129378000D01*
X70107619Y-129330380D01*
D14*
X110809761Y-110005238D02*
X111414523Y-110005238D01*
X110144523Y-109581904D02*
X110809761Y-110005238D01*
X110144523Y-110428571D01*
X110265476Y-110791428D02*
X110205000Y-110851904D01*
X110144523Y-110972857D01*
X110144523Y-111275238D01*
X110205000Y-111396190D01*
X110265476Y-111456666D01*
X110386428Y-111517142D01*
X110507380Y-111517142D01*
X110688809Y-111456666D01*
X111414523Y-110730952D01*
X111414523Y-111517142D01*
X65344523Y-108657571D02*
X64739761Y-108234238D01*
X65344523Y-107931857D02*
X64074523Y-107931857D01*
X64074523Y-108415666D01*
X64135000Y-108536619D01*
X64195476Y-108597095D01*
X64316428Y-108657571D01*
X64497857Y-108657571D01*
X64618809Y-108597095D01*
X64679285Y-108536619D01*
X64739761Y-108415666D01*
X64739761Y-107931857D01*
X64074523Y-109080904D02*
X64074523Y-109867095D01*
X64558333Y-109443761D01*
X64558333Y-109625190D01*
X64618809Y-109746142D01*
X64679285Y-109806619D01*
X64800238Y-109867095D01*
X65102619Y-109867095D01*
X65223571Y-109806619D01*
X65284047Y-109746142D01*
X65344523Y-109625190D01*
X65344523Y-109262333D01*
X65284047Y-109141380D01*
X65223571Y-109080904D01*
X64074523Y-110653285D02*
X64074523Y-110774238D01*
X64135000Y-110895190D01*
X64195476Y-110955666D01*
X64316428Y-111016142D01*
X64558333Y-111076619D01*
X64860714Y-111076619D01*
X65102619Y-111016142D01*
X65223571Y-110955666D01*
X65284047Y-110895190D01*
X65344523Y-110774238D01*
X65344523Y-110653285D01*
X65284047Y-110532333D01*
X65223571Y-110471857D01*
X65102619Y-110411380D01*
X64860714Y-110350904D01*
X64558333Y-110350904D01*
X64316428Y-110411380D01*
X64195476Y-110471857D01*
X64135000Y-110532333D01*
X64074523Y-110653285D01*
X62284428Y-105476523D02*
X62707761Y-104871761D01*
X63010142Y-105476523D02*
X63010142Y-104206523D01*
X62526333Y-104206523D01*
X62405380Y-104267000D01*
X62344904Y-104327476D01*
X62284428Y-104448428D01*
X62284428Y-104629857D01*
X62344904Y-104750809D01*
X62405380Y-104811285D01*
X62526333Y-104871761D01*
X63010142Y-104871761D01*
X61800619Y-104327476D02*
X61740142Y-104267000D01*
X61619190Y-104206523D01*
X61316809Y-104206523D01*
X61195857Y-104267000D01*
X61135380Y-104327476D01*
X61074904Y-104448428D01*
X61074904Y-104569380D01*
X61135380Y-104750809D01*
X61861095Y-105476523D01*
X61074904Y-105476523D01*
X60470142Y-105476523D02*
X60228238Y-105476523D01*
X60107285Y-105416047D01*
X60046809Y-105355571D01*
X59925857Y-105174142D01*
X59865380Y-104932238D01*
X59865380Y-104448428D01*
X59925857Y-104327476D01*
X59986333Y-104267000D01*
X60107285Y-104206523D01*
X60349190Y-104206523D01*
X60470142Y-104267000D01*
X60530619Y-104327476D01*
X60591095Y-104448428D01*
X60591095Y-104750809D01*
X60530619Y-104871761D01*
X60470142Y-104932238D01*
X60349190Y-104992714D01*
X60107285Y-104992714D01*
X59986333Y-104932238D01*
X59925857Y-104871761D01*
X59865380Y-104750809D01*
X96304523Y-120883571D02*
X95699761Y-120460238D01*
X96304523Y-120157857D02*
X95034523Y-120157857D01*
X95034523Y-120641666D01*
X95095000Y-120762619D01*
X95155476Y-120823095D01*
X95276428Y-120883571D01*
X95457857Y-120883571D01*
X95578809Y-120823095D01*
X95639285Y-120762619D01*
X95699761Y-120641666D01*
X95699761Y-120157857D01*
X95155476Y-121367380D02*
X95095000Y-121427857D01*
X95034523Y-121548809D01*
X95034523Y-121851190D01*
X95095000Y-121972142D01*
X95155476Y-122032619D01*
X95276428Y-122093095D01*
X95397380Y-122093095D01*
X95578809Y-122032619D01*
X96304523Y-121306904D01*
X96304523Y-122093095D01*
X95578809Y-122818809D02*
X95518333Y-122697857D01*
X95457857Y-122637380D01*
X95336904Y-122576904D01*
X95276428Y-122576904D01*
X95155476Y-122637380D01*
X95095000Y-122697857D01*
X95034523Y-122818809D01*
X95034523Y-123060714D01*
X95095000Y-123181666D01*
X95155476Y-123242142D01*
X95276428Y-123302619D01*
X95336904Y-123302619D01*
X95457857Y-123242142D01*
X95518333Y-123181666D01*
X95578809Y-123060714D01*
X95578809Y-122818809D01*
X95639285Y-122697857D01*
X95699761Y-122637380D01*
X95820714Y-122576904D01*
X96062619Y-122576904D01*
X96183571Y-122637380D01*
X96244047Y-122697857D01*
X96304523Y-122818809D01*
X96304523Y-123060714D01*
X96244047Y-123181666D01*
X96183571Y-123242142D01*
X96062619Y-123302619D01*
X95820714Y-123302619D01*
X95699761Y-123242142D01*
X95639285Y-123181666D01*
X95578809Y-123060714D01*
X82096428Y-115128523D02*
X82519761Y-114523761D01*
X82822142Y-115128523D02*
X82822142Y-113858523D01*
X82338333Y-113858523D01*
X82217380Y-113919000D01*
X82156904Y-113979476D01*
X82096428Y-114100428D01*
X82096428Y-114281857D01*
X82156904Y-114402809D01*
X82217380Y-114463285D01*
X82338333Y-114523761D01*
X82822142Y-114523761D01*
X81612619Y-113979476D02*
X81552142Y-113919000D01*
X81431190Y-113858523D01*
X81128809Y-113858523D01*
X81007857Y-113919000D01*
X80947380Y-113979476D01*
X80886904Y-114100428D01*
X80886904Y-114221380D01*
X80947380Y-114402809D01*
X81673095Y-115128523D01*
X80886904Y-115128523D01*
X80463571Y-113858523D02*
X79616904Y-113858523D01*
X80161190Y-115128523D01*
X77524428Y-107508523D02*
X77947761Y-106903761D01*
X78250142Y-107508523D02*
X78250142Y-106238523D01*
X77766333Y-106238523D01*
X77645380Y-106299000D01*
X77584904Y-106359476D01*
X77524428Y-106480428D01*
X77524428Y-106661857D01*
X77584904Y-106782809D01*
X77645380Y-106843285D01*
X77766333Y-106903761D01*
X78250142Y-106903761D01*
X77040619Y-106359476D02*
X76980142Y-106299000D01*
X76859190Y-106238523D01*
X76556809Y-106238523D01*
X76435857Y-106299000D01*
X76375380Y-106359476D01*
X76314904Y-106480428D01*
X76314904Y-106601380D01*
X76375380Y-106782809D01*
X77101095Y-107508523D01*
X76314904Y-107508523D01*
X75226333Y-106238523D02*
X75468238Y-106238523D01*
X75589190Y-106299000D01*
X75649666Y-106359476D01*
X75770619Y-106540904D01*
X75831095Y-106782809D01*
X75831095Y-107266619D01*
X75770619Y-107387571D01*
X75710142Y-107448047D01*
X75589190Y-107508523D01*
X75347285Y-107508523D01*
X75226333Y-107448047D01*
X75165857Y-107387571D01*
X75105380Y-107266619D01*
X75105380Y-106964238D01*
X75165857Y-106843285D01*
X75226333Y-106782809D01*
X75347285Y-106722333D01*
X75589190Y-106722333D01*
X75710142Y-106782809D01*
X75770619Y-106843285D01*
X75831095Y-106964238D01*
X100006428Y-106864523D02*
X100429761Y-106259761D01*
X100732142Y-106864523D02*
X100732142Y-105594523D01*
X100248333Y-105594523D01*
X100127380Y-105655000D01*
X100066904Y-105715476D01*
X100006428Y-105836428D01*
X100006428Y-106017857D01*
X100066904Y-106138809D01*
X100127380Y-106199285D01*
X100248333Y-106259761D01*
X100732142Y-106259761D01*
X99522619Y-105715476D02*
X99462142Y-105655000D01*
X99341190Y-105594523D01*
X99038809Y-105594523D01*
X98917857Y-105655000D01*
X98857380Y-105715476D01*
X98796904Y-105836428D01*
X98796904Y-105957380D01*
X98857380Y-106138809D01*
X99583095Y-106864523D01*
X98796904Y-106864523D01*
X97647857Y-105594523D02*
X98252619Y-105594523D01*
X98313095Y-106199285D01*
X98252619Y-106138809D01*
X98131666Y-106078333D01*
X97829285Y-106078333D01*
X97708333Y-106138809D01*
X97647857Y-106199285D01*
X97587380Y-106320238D01*
X97587380Y-106622619D01*
X97647857Y-106743571D01*
X97708333Y-106804047D01*
X97829285Y-106864523D01*
X98131666Y-106864523D01*
X98252619Y-106804047D01*
X98313095Y-106743571D01*
X85652428Y-104714523D02*
X86075761Y-104109761D01*
X86378142Y-104714523D02*
X86378142Y-103444523D01*
X85894333Y-103444523D01*
X85773380Y-103505000D01*
X85712904Y-103565476D01*
X85652428Y-103686428D01*
X85652428Y-103867857D01*
X85712904Y-103988809D01*
X85773380Y-104049285D01*
X85894333Y-104109761D01*
X86378142Y-104109761D01*
X85168619Y-103565476D02*
X85108142Y-103505000D01*
X84987190Y-103444523D01*
X84684809Y-103444523D01*
X84563857Y-103505000D01*
X84503380Y-103565476D01*
X84442904Y-103686428D01*
X84442904Y-103807380D01*
X84503380Y-103988809D01*
X85229095Y-104714523D01*
X84442904Y-104714523D01*
X83354333Y-103867857D02*
X83354333Y-104714523D01*
X83656714Y-103384047D02*
X83959095Y-104291190D01*
X83172904Y-104291190D01*
X110895190Y-92522523D02*
X111499952Y-92522523D01*
X111499952Y-91252523D01*
X110471857Y-91857285D02*
X110048523Y-91857285D01*
X109867095Y-92522523D02*
X110471857Y-92522523D01*
X110471857Y-91252523D01*
X109867095Y-91252523D01*
X109322809Y-92522523D02*
X109322809Y-91252523D01*
X109020428Y-91252523D01*
X108839000Y-91313000D01*
X108718047Y-91433952D01*
X108657571Y-91554904D01*
X108597095Y-91796809D01*
X108597095Y-91978238D01*
X108657571Y-92220142D01*
X108718047Y-92341095D01*
X108839000Y-92462047D01*
X109020428Y-92522523D01*
X109322809Y-92522523D01*
X107992333Y-92522523D02*
X107750428Y-92522523D01*
X107629476Y-92462047D01*
X107569000Y-92401571D01*
X107448047Y-92220142D01*
X107387571Y-91978238D01*
X107387571Y-91494428D01*
X107448047Y-91373476D01*
X107508523Y-91313000D01*
X107629476Y-91252523D01*
X107871380Y-91252523D01*
X107992333Y-91313000D01*
X108052809Y-91373476D01*
X108113285Y-91494428D01*
X108113285Y-91796809D01*
X108052809Y-91917761D01*
X107992333Y-91978238D01*
X107871380Y-92038714D01*
X107629476Y-92038714D01*
X107508523Y-91978238D01*
X107448047Y-91917761D01*
X107387571Y-91796809D01*
X101751190Y-92522523D02*
X102355952Y-92522523D01*
X102355952Y-91252523D01*
X101327857Y-91857285D02*
X100904523Y-91857285D01*
X100723095Y-92522523D02*
X101327857Y-92522523D01*
X101327857Y-91252523D01*
X100723095Y-91252523D01*
X100178809Y-92522523D02*
X100178809Y-91252523D01*
X99876428Y-91252523D01*
X99695000Y-91313000D01*
X99574047Y-91433952D01*
X99513571Y-91554904D01*
X99453095Y-91796809D01*
X99453095Y-91978238D01*
X99513571Y-92220142D01*
X99574047Y-92341095D01*
X99695000Y-92462047D01*
X99876428Y-92522523D01*
X100178809Y-92522523D01*
X98727380Y-91796809D02*
X98848333Y-91736333D01*
X98908809Y-91675857D01*
X98969285Y-91554904D01*
X98969285Y-91494428D01*
X98908809Y-91373476D01*
X98848333Y-91313000D01*
X98727380Y-91252523D01*
X98485476Y-91252523D01*
X98364523Y-91313000D01*
X98304047Y-91373476D01*
X98243571Y-91494428D01*
X98243571Y-91554904D01*
X98304047Y-91675857D01*
X98364523Y-91736333D01*
X98485476Y-91796809D01*
X98727380Y-91796809D01*
X98848333Y-91857285D01*
X98908809Y-91917761D01*
X98969285Y-92038714D01*
X98969285Y-92280619D01*
X98908809Y-92401571D01*
X98848333Y-92462047D01*
X98727380Y-92522523D01*
X98485476Y-92522523D01*
X98364523Y-92462047D01*
X98304047Y-92401571D01*
X98243571Y-92280619D01*
X98243571Y-92038714D01*
X98304047Y-91917761D01*
X98364523Y-91857285D01*
X98485476Y-91796809D01*
X92861190Y-92522523D02*
X93465952Y-92522523D01*
X93465952Y-91252523D01*
X92437857Y-91857285D02*
X92014523Y-91857285D01*
X91833095Y-92522523D02*
X92437857Y-92522523D01*
X92437857Y-91252523D01*
X91833095Y-91252523D01*
X91288809Y-92522523D02*
X91288809Y-91252523D01*
X90986428Y-91252523D01*
X90805000Y-91313000D01*
X90684047Y-91433952D01*
X90623571Y-91554904D01*
X90563095Y-91796809D01*
X90563095Y-91978238D01*
X90623571Y-92220142D01*
X90684047Y-92341095D01*
X90805000Y-92462047D01*
X90986428Y-92522523D01*
X91288809Y-92522523D01*
X90139761Y-91252523D02*
X89293095Y-91252523D01*
X89837380Y-92522523D01*
X83717190Y-92522523D02*
X84321952Y-92522523D01*
X84321952Y-91252523D01*
X83293857Y-91857285D02*
X82870523Y-91857285D01*
X82689095Y-92522523D02*
X83293857Y-92522523D01*
X83293857Y-91252523D01*
X82689095Y-91252523D01*
X82144809Y-92522523D02*
X82144809Y-91252523D01*
X81842428Y-91252523D01*
X81661000Y-91313000D01*
X81540047Y-91433952D01*
X81479571Y-91554904D01*
X81419095Y-91796809D01*
X81419095Y-91978238D01*
X81479571Y-92220142D01*
X81540047Y-92341095D01*
X81661000Y-92462047D01*
X81842428Y-92522523D01*
X82144809Y-92522523D01*
X80330523Y-91252523D02*
X80572428Y-91252523D01*
X80693380Y-91313000D01*
X80753857Y-91373476D01*
X80874809Y-91554904D01*
X80935285Y-91796809D01*
X80935285Y-92280619D01*
X80874809Y-92401571D01*
X80814333Y-92462047D01*
X80693380Y-92522523D01*
X80451476Y-92522523D01*
X80330523Y-92462047D01*
X80270047Y-92401571D01*
X80209571Y-92280619D01*
X80209571Y-91978238D01*
X80270047Y-91857285D01*
X80330523Y-91796809D01*
X80451476Y-91736333D01*
X80693380Y-91736333D01*
X80814333Y-91796809D01*
X80874809Y-91857285D01*
X80935285Y-91978238D01*
X74573190Y-92522523D02*
X75177952Y-92522523D01*
X75177952Y-91252523D01*
X74149857Y-91857285D02*
X73726523Y-91857285D01*
X73545095Y-92522523D02*
X74149857Y-92522523D01*
X74149857Y-91252523D01*
X73545095Y-91252523D01*
X73000809Y-92522523D02*
X73000809Y-91252523D01*
X72698428Y-91252523D01*
X72517000Y-91313000D01*
X72396047Y-91433952D01*
X72335571Y-91554904D01*
X72275095Y-91796809D01*
X72275095Y-91978238D01*
X72335571Y-92220142D01*
X72396047Y-92341095D01*
X72517000Y-92462047D01*
X72698428Y-92522523D01*
X73000809Y-92522523D01*
X71126047Y-91252523D02*
X71730809Y-91252523D01*
X71791285Y-91857285D01*
X71730809Y-91796809D01*
X71609857Y-91736333D01*
X71307476Y-91736333D01*
X71186523Y-91796809D01*
X71126047Y-91857285D01*
X71065571Y-91978238D01*
X71065571Y-92280619D01*
X71126047Y-92401571D01*
X71186523Y-92462047D01*
X71307476Y-92522523D01*
X71609857Y-92522523D01*
X71730809Y-92462047D01*
X71791285Y-92401571D01*
X65429190Y-92522523D02*
X66033952Y-92522523D01*
X66033952Y-91252523D01*
X65005857Y-91857285D02*
X64582523Y-91857285D01*
X64401095Y-92522523D02*
X65005857Y-92522523D01*
X65005857Y-91252523D01*
X64401095Y-91252523D01*
X63856809Y-92522523D02*
X63856809Y-91252523D01*
X63554428Y-91252523D01*
X63373000Y-91313000D01*
X63252047Y-91433952D01*
X63191571Y-91554904D01*
X63131095Y-91796809D01*
X63131095Y-91978238D01*
X63191571Y-92220142D01*
X63252047Y-92341095D01*
X63373000Y-92462047D01*
X63554428Y-92522523D01*
X63856809Y-92522523D01*
X62042523Y-91675857D02*
X62042523Y-92522523D01*
X62344904Y-91192047D02*
X62647285Y-92099190D01*
X61861095Y-92099190D01*
X57511190Y-112842523D02*
X58115952Y-112842523D01*
X58115952Y-111572523D01*
X57087857Y-112177285D02*
X56664523Y-112177285D01*
X56483095Y-112842523D02*
X57087857Y-112842523D01*
X57087857Y-111572523D01*
X56483095Y-111572523D01*
X55938809Y-112842523D02*
X55938809Y-111572523D01*
X55636428Y-111572523D01*
X55455000Y-111633000D01*
X55334047Y-111753952D01*
X55273571Y-111874904D01*
X55213095Y-112116809D01*
X55213095Y-112298238D01*
X55273571Y-112540142D01*
X55334047Y-112661095D01*
X55455000Y-112782047D01*
X55636428Y-112842523D01*
X55938809Y-112842523D01*
X54789761Y-111572523D02*
X54003571Y-111572523D01*
X54426904Y-112056333D01*
X54245476Y-112056333D01*
X54124523Y-112116809D01*
X54064047Y-112177285D01*
X54003571Y-112298238D01*
X54003571Y-112600619D01*
X54064047Y-112721571D01*
X54124523Y-112782047D01*
X54245476Y-112842523D01*
X54608333Y-112842523D01*
X54729285Y-112782047D01*
X54789761Y-112721571D01*
X57531190Y-105222523D02*
X58135952Y-105222523D01*
X58135952Y-103952523D01*
X57107857Y-104557285D02*
X56684523Y-104557285D01*
X56503095Y-105222523D02*
X57107857Y-105222523D01*
X57107857Y-103952523D01*
X56503095Y-103952523D01*
X55958809Y-105222523D02*
X55958809Y-103952523D01*
X55656428Y-103952523D01*
X55475000Y-104013000D01*
X55354047Y-104133952D01*
X55293571Y-104254904D01*
X55233095Y-104496809D01*
X55233095Y-104678238D01*
X55293571Y-104920142D01*
X55354047Y-105041095D01*
X55475000Y-105162047D01*
X55656428Y-105222523D01*
X55958809Y-105222523D01*
X54749285Y-104073476D02*
X54688809Y-104013000D01*
X54567857Y-103952523D01*
X54265476Y-103952523D01*
X54144523Y-104013000D01*
X54084047Y-104073476D01*
X54023571Y-104194428D01*
X54023571Y-104315380D01*
X54084047Y-104496809D01*
X54809761Y-105222523D01*
X54023571Y-105222523D01*
X91091190Y-125874523D02*
X91695952Y-125874523D01*
X91695952Y-124604523D01*
X90667857Y-125209285D02*
X90244523Y-125209285D01*
X90063095Y-125874523D02*
X90667857Y-125874523D01*
X90667857Y-124604523D01*
X90063095Y-124604523D01*
X89518809Y-125874523D02*
X89518809Y-124604523D01*
X89216428Y-124604523D01*
X89035000Y-124665000D01*
X88914047Y-124785952D01*
X88853571Y-124906904D01*
X88793095Y-125148809D01*
X88793095Y-125330238D01*
X88853571Y-125572142D01*
X88914047Y-125693095D01*
X89035000Y-125814047D01*
X89216428Y-125874523D01*
X89518809Y-125874523D01*
X87583571Y-125874523D02*
X88309285Y-125874523D01*
X87946428Y-125874523D02*
X87946428Y-124604523D01*
X88067380Y-124785952D01*
X88188333Y-124906904D01*
X88309285Y-124967380D01*
X70835761Y-104206523D02*
X70835761Y-102936523D01*
X69505285Y-104085571D02*
X69565761Y-104146047D01*
X69747190Y-104206523D01*
X69868142Y-104206523D01*
X70049571Y-104146047D01*
X70170523Y-104025095D01*
X70231000Y-103904142D01*
X70291476Y-103662238D01*
X70291476Y-103480809D01*
X70231000Y-103238904D01*
X70170523Y-103117952D01*
X70049571Y-102997000D01*
X69868142Y-102936523D01*
X69747190Y-102936523D01*
X69565761Y-102997000D01*
X69505285Y-103057476D01*
X68416714Y-103359857D02*
X68416714Y-104206523D01*
X68719095Y-102876047D02*
X69021476Y-103783190D01*
X68235285Y-103783190D01*
X92129761Y-106238523D02*
X92129761Y-104968523D01*
X90799285Y-106117571D02*
X90859761Y-106178047D01*
X91041190Y-106238523D01*
X91162142Y-106238523D01*
X91343571Y-106178047D01*
X91464523Y-106057095D01*
X91525000Y-105936142D01*
X91585476Y-105694238D01*
X91585476Y-105512809D01*
X91525000Y-105270904D01*
X91464523Y-105149952D01*
X91343571Y-105029000D01*
X91162142Y-104968523D01*
X91041190Y-104968523D01*
X90859761Y-105029000D01*
X90799285Y-105089476D01*
X90375952Y-104968523D02*
X89589761Y-104968523D01*
X90013095Y-105452333D01*
X89831666Y-105452333D01*
X89710714Y-105512809D01*
X89650238Y-105573285D01*
X89589761Y-105694238D01*
X89589761Y-105996619D01*
X89650238Y-106117571D01*
X89710714Y-106178047D01*
X89831666Y-106238523D01*
X90194523Y-106238523D01*
X90315476Y-106178047D01*
X90375952Y-106117571D01*
X78032428Y-118309571D02*
X78092904Y-118370047D01*
X78274333Y-118430523D01*
X78395285Y-118430523D01*
X78576714Y-118370047D01*
X78697666Y-118249095D01*
X78758142Y-118128142D01*
X78818619Y-117886238D01*
X78818619Y-117704809D01*
X78758142Y-117462904D01*
X78697666Y-117341952D01*
X78576714Y-117221000D01*
X78395285Y-117160523D01*
X78274333Y-117160523D01*
X78092904Y-117221000D01*
X78032428Y-117281476D01*
X77609095Y-117160523D02*
X76822904Y-117160523D01*
X77246238Y-117644333D01*
X77064809Y-117644333D01*
X76943857Y-117704809D01*
X76883380Y-117765285D01*
X76822904Y-117886238D01*
X76822904Y-118188619D01*
X76883380Y-118309571D01*
X76943857Y-118370047D01*
X77064809Y-118430523D01*
X77427666Y-118430523D01*
X77548619Y-118370047D01*
X77609095Y-118309571D01*
X75673857Y-117160523D02*
X76278619Y-117160523D01*
X76339095Y-117765285D01*
X76278619Y-117704809D01*
X76157666Y-117644333D01*
X75855285Y-117644333D01*
X75734333Y-117704809D01*
X75673857Y-117765285D01*
X75613380Y-117886238D01*
X75613380Y-118188619D01*
X75673857Y-118309571D01*
X75734333Y-118370047D01*
X75855285Y-118430523D01*
X76157666Y-118430523D01*
X76278619Y-118370047D01*
X76339095Y-118309571D01*
X75238428Y-124913571D02*
X75298904Y-124974047D01*
X75480333Y-125034523D01*
X75601285Y-125034523D01*
X75782714Y-124974047D01*
X75903666Y-124853095D01*
X75964142Y-124732142D01*
X76024619Y-124490238D01*
X76024619Y-124308809D01*
X75964142Y-124066904D01*
X75903666Y-123945952D01*
X75782714Y-123825000D01*
X75601285Y-123764523D01*
X75480333Y-123764523D01*
X75298904Y-123825000D01*
X75238428Y-123885476D01*
X74815095Y-123764523D02*
X74028904Y-123764523D01*
X74452238Y-124248333D01*
X74270809Y-124248333D01*
X74149857Y-124308809D01*
X74089380Y-124369285D01*
X74028904Y-124490238D01*
X74028904Y-124792619D01*
X74089380Y-124913571D01*
X74149857Y-124974047D01*
X74270809Y-125034523D01*
X74633666Y-125034523D01*
X74754619Y-124974047D01*
X74815095Y-124913571D01*
X72940333Y-124187857D02*
X72940333Y-125034523D01*
X73242714Y-123704047D02*
X73545095Y-124611190D01*
X72758904Y-124611190D01*
X72226428Y-118309571D02*
X72286904Y-118370047D01*
X72468333Y-118430523D01*
X72589285Y-118430523D01*
X72770714Y-118370047D01*
X72891666Y-118249095D01*
X72952142Y-118128142D01*
X73012619Y-117886238D01*
X73012619Y-117704809D01*
X72952142Y-117462904D01*
X72891666Y-117341952D01*
X72770714Y-117221000D01*
X72589285Y-117160523D01*
X72468333Y-117160523D01*
X72286904Y-117221000D01*
X72226428Y-117281476D01*
X71803095Y-117160523D02*
X71016904Y-117160523D01*
X71440238Y-117644333D01*
X71258809Y-117644333D01*
X71137857Y-117704809D01*
X71077380Y-117765285D01*
X71016904Y-117886238D01*
X71016904Y-118188619D01*
X71077380Y-118309571D01*
X71137857Y-118370047D01*
X71258809Y-118430523D01*
X71621666Y-118430523D01*
X71742619Y-118370047D01*
X71803095Y-118309571D01*
X70593571Y-117160523D02*
X69807380Y-117160523D01*
X70230714Y-117644333D01*
X70049285Y-117644333D01*
X69928333Y-117704809D01*
X69867857Y-117765285D01*
X69807380Y-117886238D01*
X69807380Y-118188619D01*
X69867857Y-118309571D01*
X69928333Y-118370047D01*
X70049285Y-118430523D01*
X70412142Y-118430523D01*
X70533095Y-118370047D01*
X70593571Y-118309571D01*
X69296428Y-124913571D02*
X69356904Y-124974047D01*
X69538333Y-125034523D01*
X69659285Y-125034523D01*
X69840714Y-124974047D01*
X69961666Y-124853095D01*
X70022142Y-124732142D01*
X70082619Y-124490238D01*
X70082619Y-124308809D01*
X70022142Y-124066904D01*
X69961666Y-123945952D01*
X69840714Y-123825000D01*
X69659285Y-123764523D01*
X69538333Y-123764523D01*
X69356904Y-123825000D01*
X69296428Y-123885476D01*
X68873095Y-123764523D02*
X68086904Y-123764523D01*
X68510238Y-124248333D01*
X68328809Y-124248333D01*
X68207857Y-124308809D01*
X68147380Y-124369285D01*
X68086904Y-124490238D01*
X68086904Y-124792619D01*
X68147380Y-124913571D01*
X68207857Y-124974047D01*
X68328809Y-125034523D01*
X68691666Y-125034523D01*
X68812619Y-124974047D01*
X68873095Y-124913571D01*
X67603095Y-123885476D02*
X67542619Y-123825000D01*
X67421666Y-123764523D01*
X67119285Y-123764523D01*
X66998333Y-123825000D01*
X66937857Y-123885476D01*
X66877380Y-124006428D01*
X66877380Y-124127380D01*
X66937857Y-124308809D01*
X67663571Y-125034523D01*
X66877380Y-125034523D01*
X66366428Y-118309571D02*
X66426904Y-118370047D01*
X66608333Y-118430523D01*
X66729285Y-118430523D01*
X66910714Y-118370047D01*
X67031666Y-118249095D01*
X67092142Y-118128142D01*
X67152619Y-117886238D01*
X67152619Y-117704809D01*
X67092142Y-117462904D01*
X67031666Y-117341952D01*
X66910714Y-117221000D01*
X66729285Y-117160523D01*
X66608333Y-117160523D01*
X66426904Y-117221000D01*
X66366428Y-117281476D01*
X65943095Y-117160523D02*
X65156904Y-117160523D01*
X65580238Y-117644333D01*
X65398809Y-117644333D01*
X65277857Y-117704809D01*
X65217380Y-117765285D01*
X65156904Y-117886238D01*
X65156904Y-118188619D01*
X65217380Y-118309571D01*
X65277857Y-118370047D01*
X65398809Y-118430523D01*
X65761666Y-118430523D01*
X65882619Y-118370047D01*
X65943095Y-118309571D01*
X63947380Y-118430523D02*
X64673095Y-118430523D01*
X64310238Y-118430523D02*
X64310238Y-117160523D01*
X64431190Y-117341952D01*
X64552142Y-117462904D01*
X64673095Y-117523380D01*
X63586428Y-124913571D02*
X63646904Y-124974047D01*
X63828333Y-125034523D01*
X63949285Y-125034523D01*
X64130714Y-124974047D01*
X64251666Y-124853095D01*
X64312142Y-124732142D01*
X64372619Y-124490238D01*
X64372619Y-124308809D01*
X64312142Y-124066904D01*
X64251666Y-123945952D01*
X64130714Y-123825000D01*
X63949285Y-123764523D01*
X63828333Y-123764523D01*
X63646904Y-123825000D01*
X63586428Y-123885476D01*
X63163095Y-123764523D02*
X62376904Y-123764523D01*
X62800238Y-124248333D01*
X62618809Y-124248333D01*
X62497857Y-124308809D01*
X62437380Y-124369285D01*
X62376904Y-124490238D01*
X62376904Y-124792619D01*
X62437380Y-124913571D01*
X62497857Y-124974047D01*
X62618809Y-125034523D01*
X62981666Y-125034523D01*
X63102619Y-124974047D01*
X63163095Y-124913571D01*
X61590714Y-123764523D02*
X61469761Y-123764523D01*
X61348809Y-123825000D01*
X61288333Y-123885476D01*
X61227857Y-124006428D01*
X61167380Y-124248333D01*
X61167380Y-124550714D01*
X61227857Y-124792619D01*
X61288333Y-124913571D01*
X61348809Y-124974047D01*
X61469761Y-125034523D01*
X61590714Y-125034523D01*
X61711666Y-124974047D01*
X61772142Y-124913571D01*
X61832619Y-124792619D01*
X61893095Y-124550714D01*
X61893095Y-124248333D01*
X61832619Y-124006428D01*
X61772142Y-123885476D01*
X61711666Y-123825000D01*
X61590714Y-123764523D01*
X61014428Y-118309571D02*
X61074904Y-118370047D01*
X61256333Y-118430523D01*
X61377285Y-118430523D01*
X61558714Y-118370047D01*
X61679666Y-118249095D01*
X61740142Y-118128142D01*
X61800619Y-117886238D01*
X61800619Y-117704809D01*
X61740142Y-117462904D01*
X61679666Y-117341952D01*
X61558714Y-117221000D01*
X61377285Y-117160523D01*
X61256333Y-117160523D01*
X61074904Y-117221000D01*
X61014428Y-117281476D01*
X60530619Y-117281476D02*
X60470142Y-117221000D01*
X60349190Y-117160523D01*
X60046809Y-117160523D01*
X59925857Y-117221000D01*
X59865380Y-117281476D01*
X59804904Y-117402428D01*
X59804904Y-117523380D01*
X59865380Y-117704809D01*
X60591095Y-118430523D01*
X59804904Y-118430523D01*
X59200142Y-118430523D02*
X58958238Y-118430523D01*
X58837285Y-118370047D01*
X58776809Y-118309571D01*
X58655857Y-118128142D01*
X58595380Y-117886238D01*
X58595380Y-117402428D01*
X58655857Y-117281476D01*
X58716333Y-117221000D01*
X58837285Y-117160523D01*
X59079190Y-117160523D01*
X59200142Y-117221000D01*
X59260619Y-117281476D01*
X59321095Y-117402428D01*
X59321095Y-117704809D01*
X59260619Y-117825761D01*
X59200142Y-117886238D01*
X59079190Y-117946714D01*
X58837285Y-117946714D01*
X58716333Y-117886238D01*
X58655857Y-117825761D01*
X58595380Y-117704809D01*
X61393571Y-112633571D02*
X61454047Y-112573095D01*
X61514523Y-112391666D01*
X61514523Y-112270714D01*
X61454047Y-112089285D01*
X61333095Y-111968333D01*
X61212142Y-111907857D01*
X60970238Y-111847380D01*
X60788809Y-111847380D01*
X60546904Y-111907857D01*
X60425952Y-111968333D01*
X60305000Y-112089285D01*
X60244523Y-112270714D01*
X60244523Y-112391666D01*
X60305000Y-112573095D01*
X60365476Y-112633571D01*
X60365476Y-113117380D02*
X60305000Y-113177857D01*
X60244523Y-113298809D01*
X60244523Y-113601190D01*
X60305000Y-113722142D01*
X60365476Y-113782619D01*
X60486428Y-113843095D01*
X60607380Y-113843095D01*
X60788809Y-113782619D01*
X61514523Y-113056904D01*
X61514523Y-113843095D01*
X60788809Y-114568809D02*
X60728333Y-114447857D01*
X60667857Y-114387380D01*
X60546904Y-114326904D01*
X60486428Y-114326904D01*
X60365476Y-114387380D01*
X60305000Y-114447857D01*
X60244523Y-114568809D01*
X60244523Y-114810714D01*
X60305000Y-114931666D01*
X60365476Y-114992142D01*
X60486428Y-115052619D01*
X60546904Y-115052619D01*
X60667857Y-114992142D01*
X60728333Y-114931666D01*
X60788809Y-114810714D01*
X60788809Y-114568809D01*
X60849285Y-114447857D01*
X60909761Y-114387380D01*
X61030714Y-114326904D01*
X61272619Y-114326904D01*
X61393571Y-114387380D01*
X61454047Y-114447857D01*
X61514523Y-114568809D01*
X61514523Y-114810714D01*
X61454047Y-114931666D01*
X61393571Y-114992142D01*
X61272619Y-115052619D01*
X61030714Y-115052619D01*
X60909761Y-114992142D01*
X60849285Y-114931666D01*
X60788809Y-114810714D01*
X108767829Y-101037571D02*
X108828305Y-101098047D01*
X109009734Y-101158523D01*
X109130686Y-101158523D01*
X109312115Y-101098047D01*
X109433067Y-100977095D01*
X109493543Y-100856142D01*
X109554020Y-100614238D01*
X109554020Y-100432809D01*
X109493543Y-100190904D01*
X109433067Y-100069952D01*
X109312115Y-99949000D01*
X109130686Y-99888523D01*
X109009734Y-99888523D01*
X108828305Y-99949000D01*
X108767829Y-100009476D01*
X108284020Y-100009476D02*
X108223543Y-99949000D01*
X108102591Y-99888523D01*
X107800210Y-99888523D01*
X107679258Y-99949000D01*
X107618781Y-100009476D01*
X107558305Y-100130428D01*
X107558305Y-100251380D01*
X107618781Y-100432809D01*
X108344496Y-101158523D01*
X107558305Y-101158523D01*
X107134972Y-99888523D02*
X106348781Y-99888523D01*
X106772115Y-100372333D01*
X106590686Y-100372333D01*
X106469734Y-100432809D01*
X106409258Y-100493285D01*
X106348781Y-100614238D01*
X106348781Y-100916619D01*
X106409258Y-101037571D01*
X106469734Y-101098047D01*
X106590686Y-101158523D01*
X106953543Y-101158523D01*
X107074496Y-101098047D01*
X107134972Y-101037571D01*
X99742428Y-101037571D02*
X99802904Y-101098047D01*
X99984333Y-101158523D01*
X100105285Y-101158523D01*
X100286714Y-101098047D01*
X100407666Y-100977095D01*
X100468142Y-100856142D01*
X100528619Y-100614238D01*
X100528619Y-100432809D01*
X100468142Y-100190904D01*
X100407666Y-100069952D01*
X100286714Y-99949000D01*
X100105285Y-99888523D01*
X99984333Y-99888523D01*
X99802904Y-99949000D01*
X99742428Y-100009476D01*
X99258619Y-100009476D02*
X99198142Y-99949000D01*
X99077190Y-99888523D01*
X98774809Y-99888523D01*
X98653857Y-99949000D01*
X98593380Y-100009476D01*
X98532904Y-100130428D01*
X98532904Y-100251380D01*
X98593380Y-100432809D01*
X99319095Y-101158523D01*
X98532904Y-101158523D01*
X98049095Y-100009476D02*
X97988619Y-99949000D01*
X97867666Y-99888523D01*
X97565285Y-99888523D01*
X97444333Y-99949000D01*
X97383857Y-100009476D01*
X97323380Y-100130428D01*
X97323380Y-100251380D01*
X97383857Y-100432809D01*
X98109571Y-101158523D01*
X97323380Y-101158523D01*
X90669829Y-101037571D02*
X90730305Y-101098047D01*
X90911734Y-101158523D01*
X91032686Y-101158523D01*
X91214115Y-101098047D01*
X91335067Y-100977095D01*
X91395543Y-100856142D01*
X91456020Y-100614238D01*
X91456020Y-100432809D01*
X91395543Y-100190904D01*
X91335067Y-100069952D01*
X91214115Y-99949000D01*
X91032686Y-99888523D01*
X90911734Y-99888523D01*
X90730305Y-99949000D01*
X90669829Y-100009476D01*
X90186020Y-100009476D02*
X90125543Y-99949000D01*
X90004591Y-99888523D01*
X89702210Y-99888523D01*
X89581258Y-99949000D01*
X89520781Y-100009476D01*
X89460305Y-100130428D01*
X89460305Y-100251380D01*
X89520781Y-100432809D01*
X90246496Y-101158523D01*
X89460305Y-101158523D01*
X88250781Y-101158523D02*
X88976496Y-101158523D01*
X88613639Y-101158523D02*
X88613639Y-99888523D01*
X88734591Y-100069952D01*
X88855543Y-100190904D01*
X88976496Y-100251380D01*
X81588428Y-100783571D02*
X81648904Y-100844047D01*
X81830333Y-100904523D01*
X81951285Y-100904523D01*
X82132714Y-100844047D01*
X82253666Y-100723095D01*
X82314142Y-100602142D01*
X82374619Y-100360238D01*
X82374619Y-100178809D01*
X82314142Y-99936904D01*
X82253666Y-99815952D01*
X82132714Y-99695000D01*
X81951285Y-99634523D01*
X81830333Y-99634523D01*
X81648904Y-99695000D01*
X81588428Y-99755476D01*
X81104619Y-99755476D02*
X81044142Y-99695000D01*
X80923190Y-99634523D01*
X80620809Y-99634523D01*
X80499857Y-99695000D01*
X80439380Y-99755476D01*
X80378904Y-99876428D01*
X80378904Y-99997380D01*
X80439380Y-100178809D01*
X81165095Y-100904523D01*
X80378904Y-100904523D01*
X79592714Y-99634523D02*
X79471761Y-99634523D01*
X79350809Y-99695000D01*
X79290333Y-99755476D01*
X79229857Y-99876428D01*
X79169380Y-100118333D01*
X79169380Y-100420714D01*
X79229857Y-100662619D01*
X79290333Y-100783571D01*
X79350809Y-100844047D01*
X79471761Y-100904523D01*
X79592714Y-100904523D01*
X79713666Y-100844047D01*
X79774142Y-100783571D01*
X79834619Y-100662619D01*
X79895095Y-100420714D01*
X79895095Y-100118333D01*
X79834619Y-99876428D01*
X79774142Y-99755476D01*
X79713666Y-99695000D01*
X79592714Y-99634523D01*
X72517829Y-100824250D02*
X72578305Y-100884726D01*
X72759734Y-100945202D01*
X72880686Y-100945202D01*
X73062115Y-100884726D01*
X73183067Y-100763774D01*
X73243543Y-100642821D01*
X73304020Y-100400917D01*
X73304020Y-100219488D01*
X73243543Y-99977583D01*
X73183067Y-99856631D01*
X73062115Y-99735679D01*
X72880686Y-99675202D01*
X72759734Y-99675202D01*
X72578305Y-99735679D01*
X72517829Y-99796155D01*
X71308305Y-100945202D02*
X72034020Y-100945202D01*
X71671162Y-100945202D02*
X71671162Y-99675202D01*
X71792115Y-99856631D01*
X71913067Y-99977583D01*
X72034020Y-100038059D01*
X70703543Y-100945202D02*
X70461639Y-100945202D01*
X70340686Y-100884726D01*
X70280210Y-100824250D01*
X70159258Y-100642821D01*
X70098781Y-100400917D01*
X70098781Y-99917107D01*
X70159258Y-99796155D01*
X70219734Y-99735679D01*
X70340686Y-99675202D01*
X70582591Y-99675202D01*
X70703543Y-99735679D01*
X70764020Y-99796155D01*
X70824496Y-99917107D01*
X70824496Y-100219488D01*
X70764020Y-100340440D01*
X70703543Y-100400917D01*
X70582591Y-100461393D01*
X70340686Y-100461393D01*
X70219734Y-100400917D01*
X70159258Y-100340440D01*
X70098781Y-100219488D01*
X63046428Y-101291571D02*
X63106904Y-101352047D01*
X63288333Y-101412523D01*
X63409285Y-101412523D01*
X63590714Y-101352047D01*
X63711666Y-101231095D01*
X63772142Y-101110142D01*
X63832619Y-100868238D01*
X63832619Y-100686809D01*
X63772142Y-100444904D01*
X63711666Y-100323952D01*
X63590714Y-100203000D01*
X63409285Y-100142523D01*
X63288333Y-100142523D01*
X63106904Y-100203000D01*
X63046428Y-100263476D01*
X61836904Y-101412523D02*
X62562619Y-101412523D01*
X62199761Y-101412523D02*
X62199761Y-100142523D01*
X62320714Y-100323952D01*
X62441666Y-100444904D01*
X62562619Y-100505380D01*
X61111190Y-100686809D02*
X61232142Y-100626333D01*
X61292619Y-100565857D01*
X61353095Y-100444904D01*
X61353095Y-100384428D01*
X61292619Y-100263476D01*
X61232142Y-100203000D01*
X61111190Y-100142523D01*
X60869285Y-100142523D01*
X60748333Y-100203000D01*
X60687857Y-100263476D01*
X60627380Y-100384428D01*
X60627380Y-100444904D01*
X60687857Y-100565857D01*
X60748333Y-100626333D01*
X60869285Y-100686809D01*
X61111190Y-100686809D01*
X61232142Y-100747285D01*
X61292619Y-100807761D01*
X61353095Y-100928714D01*
X61353095Y-101170619D01*
X61292619Y-101291571D01*
X61232142Y-101352047D01*
X61111190Y-101412523D01*
X60869285Y-101412523D01*
X60748333Y-101352047D01*
X60687857Y-101291571D01*
X60627380Y-101170619D01*
X60627380Y-100928714D01*
X60687857Y-100807761D01*
X60748333Y-100747285D01*
X60869285Y-100686809D01*
X90636428Y-118523571D02*
X90696904Y-118584047D01*
X90878333Y-118644523D01*
X90999285Y-118644523D01*
X91180714Y-118584047D01*
X91301666Y-118463095D01*
X91362142Y-118342142D01*
X91422619Y-118100238D01*
X91422619Y-117918809D01*
X91362142Y-117676904D01*
X91301666Y-117555952D01*
X91180714Y-117435000D01*
X90999285Y-117374523D01*
X90878333Y-117374523D01*
X90696904Y-117435000D01*
X90636428Y-117495476D01*
X89426904Y-118644523D02*
X90152619Y-118644523D01*
X89789761Y-118644523D02*
X89789761Y-117374523D01*
X89910714Y-117555952D01*
X90031666Y-117676904D01*
X90152619Y-117737380D01*
X88943095Y-117495476D02*
X88882619Y-117435000D01*
X88761666Y-117374523D01*
X88459285Y-117374523D01*
X88338333Y-117435000D01*
X88277857Y-117495476D01*
X88217380Y-117616428D01*
X88217380Y-117737380D01*
X88277857Y-117918809D01*
X89003571Y-118644523D01*
X88217380Y-118644523D01*
X78032428Y-109927571D02*
X78092904Y-109988047D01*
X78274333Y-110048523D01*
X78395285Y-110048523D01*
X78576714Y-109988047D01*
X78697666Y-109867095D01*
X78758142Y-109746142D01*
X78818619Y-109504238D01*
X78818619Y-109322809D01*
X78758142Y-109080904D01*
X78697666Y-108959952D01*
X78576714Y-108839000D01*
X78395285Y-108778523D01*
X78274333Y-108778523D01*
X78092904Y-108839000D01*
X78032428Y-108899476D01*
X76822904Y-110048523D02*
X77548619Y-110048523D01*
X77185761Y-110048523D02*
X77185761Y-108778523D01*
X77306714Y-108959952D01*
X77427666Y-109080904D01*
X77548619Y-109141380D01*
X75613380Y-110048523D02*
X76339095Y-110048523D01*
X75976238Y-110048523D02*
X75976238Y-108778523D01*
X76097190Y-108959952D01*
X76218142Y-109080904D01*
X76339095Y-109141380D01*
X83366428Y-123897571D02*
X83426904Y-123958047D01*
X83608333Y-124018523D01*
X83729285Y-124018523D01*
X83910714Y-123958047D01*
X84031666Y-123837095D01*
X84092142Y-123716142D01*
X84152619Y-123474238D01*
X84152619Y-123292809D01*
X84092142Y-123050904D01*
X84031666Y-122929952D01*
X83910714Y-122809000D01*
X83729285Y-122748523D01*
X83608333Y-122748523D01*
X83426904Y-122809000D01*
X83366428Y-122869476D01*
X82156904Y-124018523D02*
X82882619Y-124018523D01*
X82519761Y-124018523D02*
X82519761Y-122748523D01*
X82640714Y-122929952D01*
X82761666Y-123050904D01*
X82882619Y-123111380D01*
X81370714Y-122748523D02*
X81249761Y-122748523D01*
X81128809Y-122809000D01*
X81068333Y-122869476D01*
X81007857Y-122990428D01*
X80947380Y-123232333D01*
X80947380Y-123534714D01*
X81007857Y-123776619D01*
X81068333Y-123897571D01*
X81128809Y-123958047D01*
X81249761Y-124018523D01*
X81370714Y-124018523D01*
X81491666Y-123958047D01*
X81552142Y-123897571D01*
X81612619Y-123776619D01*
X81673095Y-123534714D01*
X81673095Y-123232333D01*
X81612619Y-122990428D01*
X81552142Y-122869476D01*
X81491666Y-122809000D01*
X81370714Y-122748523D01*
X113903571Y-114098333D02*
X113964047Y-114037857D01*
X114024523Y-113856428D01*
X114024523Y-113735476D01*
X113964047Y-113554047D01*
X113843095Y-113433095D01*
X113722142Y-113372619D01*
X113480238Y-113312142D01*
X113298809Y-113312142D01*
X113056904Y-113372619D01*
X112935952Y-113433095D01*
X112815000Y-113554047D01*
X112754523Y-113735476D01*
X112754523Y-113856428D01*
X112815000Y-114037857D01*
X112875476Y-114098333D01*
X114024523Y-114703095D02*
X114024523Y-114945000D01*
X113964047Y-115065952D01*
X113903571Y-115126428D01*
X113722142Y-115247380D01*
X113480238Y-115307857D01*
X112996428Y-115307857D01*
X112875476Y-115247380D01*
X112815000Y-115186904D01*
X112754523Y-115065952D01*
X112754523Y-114824047D01*
X112815000Y-114703095D01*
X112875476Y-114642619D01*
X112996428Y-114582142D01*
X113298809Y-114582142D01*
X113419761Y-114642619D01*
X113480238Y-114703095D01*
X113540714Y-114824047D01*
X113540714Y-115065952D01*
X113480238Y-115186904D01*
X113419761Y-115247380D01*
X113298809Y-115307857D01*
X113743571Y-106048333D02*
X113804047Y-105987857D01*
X113864523Y-105806428D01*
X113864523Y-105685476D01*
X113804047Y-105504047D01*
X113683095Y-105383095D01*
X113562142Y-105322619D01*
X113320238Y-105262142D01*
X113138809Y-105262142D01*
X112896904Y-105322619D01*
X112775952Y-105383095D01*
X112655000Y-105504047D01*
X112594523Y-105685476D01*
X112594523Y-105806428D01*
X112655000Y-105987857D01*
X112715476Y-106048333D01*
X113138809Y-106774047D02*
X113078333Y-106653095D01*
X113017857Y-106592619D01*
X112896904Y-106532142D01*
X112836428Y-106532142D01*
X112715476Y-106592619D01*
X112655000Y-106653095D01*
X112594523Y-106774047D01*
X112594523Y-107015952D01*
X112655000Y-107136904D01*
X112715476Y-107197380D01*
X112836428Y-107257857D01*
X112896904Y-107257857D01*
X113017857Y-107197380D01*
X113078333Y-107136904D01*
X113138809Y-107015952D01*
X113138809Y-106774047D01*
X113199285Y-106653095D01*
X113259761Y-106592619D01*
X113380714Y-106532142D01*
X113622619Y-106532142D01*
X113743571Y-106592619D01*
X113804047Y-106653095D01*
X113864523Y-106774047D01*
X113864523Y-107015952D01*
X113804047Y-107136904D01*
X113743571Y-107197380D01*
X113622619Y-107257857D01*
X113380714Y-107257857D01*
X113259761Y-107197380D01*
X113199285Y-107136904D01*
X113138809Y-107015952D01*
%LPC*%
D16*
X57550000Y-98900000D03*
X57550000Y-95900000D03*
D17*
X102730000Y-127880000D03*
X97451665Y-127880000D03*
X92173332Y-127880000D03*
X86894999Y-127880000D03*
X81616666Y-127880000D03*
X76338333Y-127880000D03*
X71060000Y-127880000D03*
D18*
X107320000Y-115220000D03*
X107320000Y-105720000D03*
D19*
X69460000Y-102350000D03*
X74340000Y-102350000D03*
D20*
X59960000Y-109740000D03*
X62960000Y-109740000D03*
X59940000Y-107240000D03*
X62940000Y-107240000D03*
D16*
X93710000Y-122930000D03*
X93710000Y-119930000D03*
D20*
X79526000Y-112268000D03*
X82526000Y-112268000D03*
X82550000Y-106934000D03*
X79550000Y-106934000D03*
D21*
X97720000Y-108380000D03*
X100720000Y-108380000D03*
D20*
X82042000Y-104394000D03*
X79042000Y-104394000D03*
D22*
X112470000Y-97290000D03*
X112470000Y-93990000D03*
X107570000Y-93990000D03*
X107570000Y-97290000D03*
X103356000Y-97290000D03*
X103356000Y-93990000D03*
X98456000Y-93990000D03*
X98456000Y-97290000D03*
X94242000Y-97290000D03*
X94242000Y-93990000D03*
X89342000Y-93990000D03*
X89342000Y-97290000D03*
X85128000Y-97290000D03*
X85128000Y-93990000D03*
X80228000Y-93990000D03*
X80228000Y-97290000D03*
X76014000Y-97290000D03*
X76014000Y-93990000D03*
X71114000Y-93990000D03*
X71114000Y-97290000D03*
X66900000Y-97290000D03*
X66900000Y-93990000D03*
X62000000Y-93990000D03*
X62000000Y-97290000D03*
D23*
X57590000Y-109760000D03*
X54590000Y-109760000D03*
X57610000Y-107070000D03*
X54610000Y-107070000D03*
X91340000Y-122440000D03*
X88340000Y-122440000D03*
D24*
X113030000Y-119634000D03*
X113030000Y-122174000D03*
X110490000Y-119634000D03*
X110490000Y-122174000D03*
X107950000Y-119634000D03*
D25*
X107950000Y-122174000D03*
D24*
X104394000Y-119634000D03*
X104394000Y-122174000D03*
X101854000Y-119634000D03*
X101854000Y-122174000D03*
X99314000Y-119634000D03*
D25*
X99314000Y-122174000D03*
D26*
X82824360Y-134361240D03*
X91084360Y-134361240D03*
X91444360Y-140311240D03*
D27*
X83354360Y-133111240D03*
D26*
X82464360Y-140311240D03*
D28*
X65980000Y-105805000D03*
X65980000Y-106455000D03*
X65980000Y-107105000D03*
X65980000Y-107755000D03*
X65980000Y-108405000D03*
X65980000Y-109055000D03*
X65980000Y-109705000D03*
X65980000Y-110355000D03*
X65980000Y-111005000D03*
X65980000Y-111655000D03*
X65980000Y-112305000D03*
X65980000Y-112955000D03*
X65980000Y-113605000D03*
X65980000Y-114255000D03*
X72980000Y-114255000D03*
X72980000Y-113605000D03*
X72980000Y-112955000D03*
X72980000Y-112305000D03*
X72980000Y-111655000D03*
X72980000Y-111005000D03*
X72980000Y-110355000D03*
X72980000Y-109705000D03*
X72980000Y-109055000D03*
X72980000Y-108405000D03*
X72980000Y-107755000D03*
X72980000Y-107105000D03*
X72980000Y-106455000D03*
X72980000Y-105805000D03*
D29*
X86640000Y-109120000D03*
X86640000Y-109920000D03*
X86640000Y-110720000D03*
X86640000Y-111520000D03*
X86640000Y-112320000D03*
X86640000Y-113120000D03*
X86640000Y-113920000D03*
X86640000Y-114720000D03*
D30*
X88090000Y-116170000D03*
X88890000Y-116170000D03*
X89690000Y-116170000D03*
X90490000Y-116170000D03*
X91290000Y-116170000D03*
X92090000Y-116170000D03*
X92890000Y-116170000D03*
X93690000Y-116170000D03*
D29*
X95140000Y-114720000D03*
X95140000Y-113920000D03*
X95140000Y-113120000D03*
X95140000Y-112320000D03*
X95140000Y-111520000D03*
X95140000Y-110720000D03*
X95140000Y-109920000D03*
X95140000Y-109120000D03*
D30*
X93690000Y-107670000D03*
X92890000Y-107670000D03*
X92090000Y-107670000D03*
X91290000Y-107670000D03*
X90490000Y-107670000D03*
X89690000Y-107670000D03*
X88890000Y-107670000D03*
X88090000Y-107670000D03*
D31*
X109010000Y-127520000D03*
X65020000Y-127520000D03*
X108760000Y-85290000D03*
X65440000Y-85290000D03*
D32*
X77270000Y-122390000D03*
X77270000Y-119630000D03*
X74340000Y-122390000D03*
X74340000Y-119630000D03*
X71410000Y-122390000D03*
X71410000Y-119630000D03*
X68480000Y-122390000D03*
X68480000Y-119630000D03*
X65550000Y-122390000D03*
X65550000Y-119630000D03*
D33*
X62770000Y-122555000D03*
X62770000Y-119755000D03*
X60140000Y-122555000D03*
X60140000Y-119755000D03*
X63010000Y-111990000D03*
X63010000Y-114790000D03*
D34*
X101540000Y-86950000D03*
D35*
X99040000Y-86950000D03*
D34*
X101540000Y-78950000D03*
D35*
X99040000Y-78950000D03*
D34*
X75040000Y-86950000D03*
D35*
X72540000Y-86950000D03*
D34*
X75040000Y-78950000D03*
D35*
X72540000Y-78950000D03*
D36*
X110504000Y-100584000D03*
X113284000Y-100584000D03*
X101480000Y-100584000D03*
X104260000Y-100584000D03*
X92336000Y-100584000D03*
X95116000Y-100584000D03*
X83326000Y-100330000D03*
X86106000Y-100330000D03*
X74048000Y-100330000D03*
X76828000Y-100330000D03*
X65038000Y-100584000D03*
X67818000Y-100584000D03*
D34*
X101500000Y-111480000D03*
D35*
X101500000Y-113980000D03*
D37*
X91090000Y-119990000D03*
X88290000Y-119990000D03*
X82680000Y-109474000D03*
X79880000Y-109474000D03*
D33*
X82480000Y-121540000D03*
X82480000Y-118740000D03*
D38*
X111400000Y-115210000D03*
X111400000Y-113590000D03*
X111420000Y-105950000D03*
X111420000Y-107570000D03*
M02*
