G04 #@! TF.GenerationSoftware,KiCad,Pcbnew,(5.1.9)-1*
G04 #@! TF.CreationDate,2021-05-01T17:45:06+02:00*
G04 #@! TF.ProjectId,sh_control,73685f63-6f6e-4747-926f-6c2e6b696361,3.2*
G04 #@! TF.SameCoordinates,Original*
G04 #@! TF.FileFunction,Legend,Top*
G04 #@! TF.FilePolarity,Positive*
%FSLAX46Y46*%
G04 Gerber Fmt 4.6, Leading zero omitted, Abs format (unit mm)*
G04 Created by KiCad (PCBNEW (5.1.9)-1) date 2021-05-01 17:45:06*
%MOMM*%
%LPD*%
G01*
G04 APERTURE LIST*
%ADD10C,0.300000*%
%ADD11C,0.150000*%
%ADD12C,0.254000*%
%ADD13C,0.200000*%
%ADD14C,0.120000*%
%ADD15C,0.100000*%
%ADD16C,0.400000*%
%ADD17C,1.500000*%
%ADD18R,1.700000X1.100000*%
%ADD19R,1.800000X1.200000*%
%ADD20C,1.600000*%
%ADD21R,1.500000X1.600000*%
%ADD22C,3.000000*%
%ADD23C,1.050000*%
%ADD24R,1.050000X1.050000*%
%ADD25R,0.960000X1.390000*%
%ADD26C,1.192000*%
%ADD27C,2.500000*%
%ADD28R,1.100000X1.700000*%
%ADD29R,1.400000X1.050000*%
%ADD30R,1.050000X1.800000*%
%ADD31R,1.050000X1.400000*%
%ADD32R,1.800000X1.050000*%
%ADD33R,1.200000X1.800000*%
%ADD34C,1.725000*%
%ADD35R,1.725000X1.725000*%
%ADD36R,1.200000X1.900000*%
%ADD37O,1.200000X1.900000*%
%ADD38R,1.500000X1.900000*%
%ADD39C,1.450000*%
%ADD40R,0.400000X1.350000*%
%ADD41R,0.450000X1.475000*%
%ADD42R,1.525000X0.650000*%
%ADD43R,1.475000X0.600000*%
%ADD44R,0.600000X1.475000*%
%ADD45R,1.846000X2.150000*%
%ADD46R,1.400000X0.450000*%
%ADD47R,0.230000X0.825000*%
%ADD48R,1.500000X1.750000*%
%ADD49R,0.600000X0.310000*%
%ADD50R,1.750000X3.200000*%
%ADD51R,1.750000X0.950000*%
%ADD52R,1.475000X0.450000*%
%ADD53C,0.800000*%
%ADD54C,6.400000*%
%ADD55R,1.100000X1.550000*%
%ADD56R,1.575000X1.575000*%
%ADD57C,1.575000*%
%ADD58R,1.390000X0.960000*%
%ADD59R,1.030000X1.870000*%
%ADD60R,1.870000X1.030000*%
%ADD61R,1.820000X1.020000*%
%ADD62R,1.020000X1.820000*%
%ADD63C,0.900000*%
%ADD64R,2.110000X1.350000*%
%ADD65R,1.350000X2.110000*%
%ADD66R,1.820000X1.050000*%
G04 APERTURE END LIST*
D10*
X121154523Y-122369095D02*
X121154523Y-123421476D01*
X121216428Y-123545285D01*
X121278333Y-123607190D01*
X121402142Y-123669095D01*
X121649761Y-123669095D01*
X121773571Y-123607190D01*
X121835476Y-123545285D01*
X121897380Y-123421476D01*
X121897380Y-122369095D01*
X122454523Y-123607190D02*
X122640238Y-123669095D01*
X122949761Y-123669095D01*
X123073571Y-123607190D01*
X123135476Y-123545285D01*
X123197380Y-123421476D01*
X123197380Y-123297666D01*
X123135476Y-123173857D01*
X123073571Y-123111952D01*
X122949761Y-123050047D01*
X122702142Y-122988142D01*
X122578333Y-122926238D01*
X122516428Y-122864333D01*
X122454523Y-122740523D01*
X122454523Y-122616714D01*
X122516428Y-122492904D01*
X122578333Y-122431000D01*
X122702142Y-122369095D01*
X123011666Y-122369095D01*
X123197380Y-122431000D01*
X124187857Y-122988142D02*
X124373571Y-123050047D01*
X124435476Y-123111952D01*
X124497380Y-123235761D01*
X124497380Y-123421476D01*
X124435476Y-123545285D01*
X124373571Y-123607190D01*
X124249761Y-123669095D01*
X123754523Y-123669095D01*
X123754523Y-122369095D01*
X124187857Y-122369095D01*
X124311666Y-122431000D01*
X124373571Y-122492904D01*
X124435476Y-122616714D01*
X124435476Y-122740523D01*
X124373571Y-122864333D01*
X124311666Y-122926238D01*
X124187857Y-122988142D01*
X123754523Y-122988142D01*
X126045000Y-123669095D02*
X126045000Y-122369095D01*
X126045000Y-122988142D02*
X126787857Y-122988142D01*
X126787857Y-123669095D02*
X126787857Y-122369095D01*
X127406904Y-122369095D02*
X127406904Y-123421476D01*
X127468809Y-123545285D01*
X127530714Y-123607190D01*
X127654523Y-123669095D01*
X127902142Y-123669095D01*
X128025952Y-123607190D01*
X128087857Y-123545285D01*
X128149761Y-123421476D01*
X128149761Y-122369095D01*
X129202142Y-122988142D02*
X129387857Y-123050047D01*
X129449761Y-123111952D01*
X129511666Y-123235761D01*
X129511666Y-123421476D01*
X129449761Y-123545285D01*
X129387857Y-123607190D01*
X129264047Y-123669095D01*
X128768809Y-123669095D01*
X128768809Y-122369095D01*
X129202142Y-122369095D01*
X129325952Y-122431000D01*
X129387857Y-122492904D01*
X129449761Y-122616714D01*
X129449761Y-122740523D01*
X129387857Y-122864333D01*
X129325952Y-122926238D01*
X129202142Y-122988142D01*
X128768809Y-122988142D01*
X130935476Y-122802428D02*
X131245000Y-123669095D01*
X131554523Y-122802428D01*
X131925952Y-122369095D02*
X132730714Y-122369095D01*
X132297380Y-122864333D01*
X132483095Y-122864333D01*
X132606904Y-122926238D01*
X132668809Y-122988142D01*
X132730714Y-123111952D01*
X132730714Y-123421476D01*
X132668809Y-123545285D01*
X132606904Y-123607190D01*
X132483095Y-123669095D01*
X132111666Y-123669095D01*
X131987857Y-123607190D01*
X131925952Y-123545285D01*
X133287857Y-123545285D02*
X133349761Y-123607190D01*
X133287857Y-123669095D01*
X133225952Y-123607190D01*
X133287857Y-123545285D01*
X133287857Y-123669095D01*
X133845000Y-122492904D02*
X133906904Y-122431000D01*
X134030714Y-122369095D01*
X134340238Y-122369095D01*
X134464047Y-122431000D01*
X134525952Y-122492904D01*
X134587857Y-122616714D01*
X134587857Y-122740523D01*
X134525952Y-122926238D01*
X133783095Y-123669095D01*
X134587857Y-123669095D01*
X135145000Y-123173857D02*
X136135476Y-123173857D01*
X136754523Y-122988142D02*
X137187857Y-122988142D01*
X137373571Y-123669095D02*
X136754523Y-123669095D01*
X136754523Y-122369095D01*
X137373571Y-122369095D01*
X138364047Y-122988142D02*
X138549761Y-123050047D01*
X138611666Y-123111952D01*
X138673571Y-123235761D01*
X138673571Y-123421476D01*
X138611666Y-123545285D01*
X138549761Y-123607190D01*
X138425952Y-123669095D01*
X137930714Y-123669095D01*
X137930714Y-122369095D01*
X138364047Y-122369095D01*
X138487857Y-122431000D01*
X138549761Y-122492904D01*
X138611666Y-122616714D01*
X138611666Y-122740523D01*
X138549761Y-122864333D01*
X138487857Y-122926238D01*
X138364047Y-122988142D01*
X137930714Y-122988142D01*
X140221190Y-123669095D02*
X140221190Y-122369095D01*
X140221190Y-122864333D02*
X140345000Y-122802428D01*
X140592619Y-122802428D01*
X140716428Y-122864333D01*
X140778333Y-122926238D01*
X140840238Y-123050047D01*
X140840238Y-123421476D01*
X140778333Y-123545285D01*
X140716428Y-123607190D01*
X140592619Y-123669095D01*
X140345000Y-123669095D01*
X140221190Y-123607190D01*
X141273571Y-122802428D02*
X141583095Y-123669095D01*
X141892619Y-122802428D02*
X141583095Y-123669095D01*
X141459285Y-123978619D01*
X141397380Y-124040523D01*
X141273571Y-124102428D01*
X121154523Y-125919095D02*
X121154523Y-124619095D01*
X121587857Y-125547666D01*
X122021190Y-124619095D01*
X122021190Y-125919095D01*
X123197380Y-125919095D02*
X123197380Y-125238142D01*
X123135476Y-125114333D01*
X123011666Y-125052428D01*
X122764047Y-125052428D01*
X122640238Y-125114333D01*
X123197380Y-125857190D02*
X123073571Y-125919095D01*
X122764047Y-125919095D01*
X122640238Y-125857190D01*
X122578333Y-125733380D01*
X122578333Y-125609571D01*
X122640238Y-125485761D01*
X122764047Y-125423857D01*
X123073571Y-125423857D01*
X123197380Y-125361952D01*
X123692619Y-125919095D02*
X124373571Y-125052428D01*
X123692619Y-125052428D02*
X124373571Y-125919095D01*
X124868809Y-125919095D02*
X124868809Y-125052428D01*
X124868809Y-124619095D02*
X124806904Y-124681000D01*
X124868809Y-124742904D01*
X124930714Y-124681000D01*
X124868809Y-124619095D01*
X124868809Y-124742904D01*
X125487857Y-125919095D02*
X125487857Y-125052428D01*
X125487857Y-125176238D02*
X125549761Y-125114333D01*
X125673571Y-125052428D01*
X125859285Y-125052428D01*
X125983095Y-125114333D01*
X126045000Y-125238142D01*
X126045000Y-125919095D01*
X126045000Y-125238142D02*
X126106904Y-125114333D01*
X126230714Y-125052428D01*
X126416428Y-125052428D01*
X126540238Y-125114333D01*
X126602142Y-125238142D01*
X126602142Y-125919095D01*
X127221190Y-125919095D02*
X127221190Y-125052428D01*
X127221190Y-124619095D02*
X127159285Y-124681000D01*
X127221190Y-124742904D01*
X127283095Y-124681000D01*
X127221190Y-124619095D01*
X127221190Y-124742904D01*
X128025952Y-125919095D02*
X127902142Y-125857190D01*
X127840238Y-125733380D01*
X127840238Y-124619095D01*
X128521190Y-125919095D02*
X128521190Y-125052428D01*
X128521190Y-124619095D02*
X128459285Y-124681000D01*
X128521190Y-124742904D01*
X128583095Y-124681000D01*
X128521190Y-124619095D01*
X128521190Y-124742904D01*
X129697380Y-125919095D02*
X129697380Y-125238142D01*
X129635476Y-125114333D01*
X129511666Y-125052428D01*
X129264047Y-125052428D01*
X129140238Y-125114333D01*
X129697380Y-125857190D02*
X129573571Y-125919095D01*
X129264047Y-125919095D01*
X129140238Y-125857190D01*
X129078333Y-125733380D01*
X129078333Y-125609571D01*
X129140238Y-125485761D01*
X129264047Y-125423857D01*
X129573571Y-125423857D01*
X129697380Y-125361952D01*
X130316428Y-125052428D02*
X130316428Y-125919095D01*
X130316428Y-125176238D02*
X130378333Y-125114333D01*
X130502142Y-125052428D01*
X130687857Y-125052428D01*
X130811666Y-125114333D01*
X130873571Y-125238142D01*
X130873571Y-125919095D01*
X132421190Y-125547666D02*
X133040238Y-125547666D01*
X132297380Y-125919095D02*
X132730714Y-124619095D01*
X133164047Y-125919095D01*
X133783095Y-125919095D02*
X133659285Y-125857190D01*
X133597380Y-125733380D01*
X133597380Y-124619095D01*
X134092619Y-125052428D02*
X134587857Y-125052428D01*
X134278333Y-124619095D02*
X134278333Y-125733380D01*
X134340238Y-125857190D01*
X134464047Y-125919095D01*
X134587857Y-125919095D01*
X135021190Y-125919095D02*
X135021190Y-125052428D01*
X135021190Y-125300047D02*
X135083095Y-125176238D01*
X135145000Y-125114333D01*
X135268809Y-125052428D01*
X135392619Y-125052428D01*
X135825952Y-125919095D02*
X135825952Y-125052428D01*
X135825952Y-124619095D02*
X135764047Y-124681000D01*
X135825952Y-124742904D01*
X135887857Y-124681000D01*
X135825952Y-124619095D01*
X135825952Y-124742904D01*
X137002142Y-125857190D02*
X136878333Y-125919095D01*
X136630714Y-125919095D01*
X136506904Y-125857190D01*
X136445000Y-125795285D01*
X136383095Y-125671476D01*
X136383095Y-125300047D01*
X136445000Y-125176238D01*
X136506904Y-125114333D01*
X136630714Y-125052428D01*
X136878333Y-125052428D01*
X137002142Y-125114333D01*
X137559285Y-125919095D02*
X137559285Y-124619095D01*
X138116428Y-125919095D02*
X138116428Y-125238142D01*
X138054523Y-125114333D01*
X137930714Y-125052428D01*
X137745000Y-125052428D01*
X137621190Y-125114333D01*
X137559285Y-125176238D01*
X138549761Y-125052428D02*
X139045000Y-125052428D01*
X138735476Y-124619095D02*
X138735476Y-125733380D01*
X138797380Y-125857190D01*
X138921190Y-125919095D01*
X139045000Y-125919095D01*
X139973571Y-125857190D02*
X139849761Y-125919095D01*
X139602142Y-125919095D01*
X139478333Y-125857190D01*
X139416428Y-125733380D01*
X139416428Y-125238142D01*
X139478333Y-125114333D01*
X139602142Y-125052428D01*
X139849761Y-125052428D01*
X139973571Y-125114333D01*
X140035476Y-125238142D01*
X140035476Y-125361952D01*
X139416428Y-125485761D01*
X140592619Y-125919095D02*
X140592619Y-125052428D01*
X140592619Y-125300047D02*
X140654523Y-125176238D01*
X140716428Y-125114333D01*
X140840238Y-125052428D01*
X140964047Y-125052428D01*
D11*
X141462571Y-62666571D02*
X141605428Y-62714190D01*
X141653047Y-62761809D01*
X141700666Y-62857047D01*
X141700666Y-62999904D01*
X141653047Y-63095142D01*
X141605428Y-63142761D01*
X141510190Y-63190380D01*
X141129238Y-63190380D01*
X141129238Y-62190380D01*
X141462571Y-62190380D01*
X141557809Y-62238000D01*
X141605428Y-62285619D01*
X141653047Y-62380857D01*
X141653047Y-62476095D01*
X141605428Y-62571333D01*
X141557809Y-62618952D01*
X141462571Y-62666571D01*
X141129238Y-62666571D01*
X142653047Y-63190380D02*
X142081619Y-63190380D01*
X142367333Y-63190380D02*
X142367333Y-62190380D01*
X142272095Y-62333238D01*
X142176857Y-62428476D01*
X142081619Y-62476095D01*
X144176857Y-62666571D02*
X144319714Y-62714190D01*
X144367333Y-62761809D01*
X144414952Y-62857047D01*
X144414952Y-62999904D01*
X144367333Y-63095142D01*
X144319714Y-63142761D01*
X144224476Y-63190380D01*
X143843523Y-63190380D01*
X143843523Y-62190380D01*
X144176857Y-62190380D01*
X144272095Y-62238000D01*
X144319714Y-62285619D01*
X144367333Y-62380857D01*
X144367333Y-62476095D01*
X144319714Y-62571333D01*
X144272095Y-62618952D01*
X144176857Y-62666571D01*
X143843523Y-62666571D01*
X144795904Y-62285619D02*
X144843523Y-62238000D01*
X144938761Y-62190380D01*
X145176857Y-62190380D01*
X145272095Y-62238000D01*
X145319714Y-62285619D01*
X145367333Y-62380857D01*
X145367333Y-62476095D01*
X145319714Y-62618952D01*
X144748285Y-63190380D01*
X145367333Y-63190380D01*
X147034000Y-63190380D02*
X146557809Y-63190380D01*
X146557809Y-62190380D01*
X147367333Y-63190380D02*
X147367333Y-62190380D01*
X147605428Y-62190380D01*
X147748285Y-62238000D01*
X147843523Y-62333238D01*
X147891142Y-62428476D01*
X147938761Y-62618952D01*
X147938761Y-62761809D01*
X147891142Y-62952285D01*
X147843523Y-63047523D01*
X147748285Y-63142761D01*
X147605428Y-63190380D01*
X147367333Y-63190380D01*
X148557809Y-62190380D02*
X148748285Y-62190380D01*
X148843523Y-62238000D01*
X148938761Y-62333238D01*
X148986380Y-62523714D01*
X148986380Y-62857047D01*
X148938761Y-63047523D01*
X148843523Y-63142761D01*
X148748285Y-63190380D01*
X148557809Y-63190380D01*
X148462571Y-63142761D01*
X148367333Y-63047523D01*
X148319714Y-62857047D01*
X148319714Y-62523714D01*
X148367333Y-62333238D01*
X148462571Y-62238000D01*
X148557809Y-62190380D01*
X158830190Y-69302380D02*
X159449238Y-69302380D01*
X159115904Y-69683333D01*
X159258761Y-69683333D01*
X159354000Y-69730952D01*
X159401619Y-69778571D01*
X159449238Y-69873809D01*
X159449238Y-70111904D01*
X159401619Y-70207142D01*
X159354000Y-70254761D01*
X159258761Y-70302380D01*
X158973047Y-70302380D01*
X158877809Y-70254761D01*
X158830190Y-70207142D01*
X159734952Y-69302380D02*
X160068285Y-70302380D01*
X160401619Y-69302380D01*
X160639714Y-69302380D02*
X161258761Y-69302380D01*
X160925428Y-69683333D01*
X161068285Y-69683333D01*
X161163523Y-69730952D01*
X161211142Y-69778571D01*
X161258761Y-69873809D01*
X161258761Y-70111904D01*
X161211142Y-70207142D01*
X161163523Y-70254761D01*
X161068285Y-70302380D01*
X160782571Y-70302380D01*
X160687333Y-70254761D01*
X160639714Y-70207142D01*
X161449238Y-70397619D02*
X162211142Y-70397619D01*
X162973047Y-70302380D02*
X162401619Y-70302380D01*
X162687333Y-70302380D02*
X162687333Y-69302380D01*
X162592095Y-69445238D01*
X162496857Y-69540476D01*
X162401619Y-69588095D01*
X164068285Y-69302380D02*
X164687333Y-69302380D01*
X164354000Y-69683333D01*
X164496857Y-69683333D01*
X164592095Y-69730952D01*
X164639714Y-69778571D01*
X164687333Y-69873809D01*
X164687333Y-70111904D01*
X164639714Y-70207142D01*
X164592095Y-70254761D01*
X164496857Y-70302380D01*
X164211142Y-70302380D01*
X164115904Y-70254761D01*
X164068285Y-70207142D01*
X164973047Y-69302380D02*
X165306380Y-70302380D01*
X165639714Y-69302380D01*
X165877809Y-69302380D02*
X166496857Y-69302380D01*
X166163523Y-69683333D01*
X166306380Y-69683333D01*
X166401619Y-69730952D01*
X166449238Y-69778571D01*
X166496857Y-69873809D01*
X166496857Y-70111904D01*
X166449238Y-70207142D01*
X166401619Y-70254761D01*
X166306380Y-70302380D01*
X166020666Y-70302380D01*
X165925428Y-70254761D01*
X165877809Y-70207142D01*
X166687333Y-70397619D02*
X167449238Y-70397619D01*
X167639714Y-69397619D02*
X167687333Y-69350000D01*
X167782571Y-69302380D01*
X168020666Y-69302380D01*
X168115904Y-69350000D01*
X168163523Y-69397619D01*
X168211142Y-69492857D01*
X168211142Y-69588095D01*
X168163523Y-69730952D01*
X167592095Y-70302380D01*
X168211142Y-70302380D01*
X169877809Y-70302380D02*
X169401619Y-70302380D01*
X169401619Y-69302380D01*
X170211142Y-70302380D02*
X170211142Y-69302380D01*
X170449238Y-69302380D01*
X170592095Y-69350000D01*
X170687333Y-69445238D01*
X170734952Y-69540476D01*
X170782571Y-69730952D01*
X170782571Y-69873809D01*
X170734952Y-70064285D01*
X170687333Y-70159523D01*
X170592095Y-70254761D01*
X170449238Y-70302380D01*
X170211142Y-70302380D01*
X171401619Y-69302380D02*
X171592095Y-69302380D01*
X171687333Y-69350000D01*
X171782571Y-69445238D01*
X171830190Y-69635714D01*
X171830190Y-69969047D01*
X171782571Y-70159523D01*
X171687333Y-70254761D01*
X171592095Y-70302380D01*
X171401619Y-70302380D01*
X171306380Y-70254761D01*
X171211142Y-70159523D01*
X171163523Y-69969047D01*
X171163523Y-69635714D01*
X171211142Y-69445238D01*
X171306380Y-69350000D01*
X171401619Y-69302380D01*
D12*
X173848805Y-102963065D02*
G75*
G03*
X173848805Y-102963065I-99335J0D01*
G01*
X167997800Y-104967400D02*
X167997800Y-109967400D01*
X172305130Y-110462400D02*
X169713470Y-110462400D01*
X172248470Y-104472400D02*
X169812800Y-104472400D01*
X173987800Y-104967400D02*
X173987800Y-109967400D01*
D13*
X150535000Y-73818000D02*
X149185000Y-73818000D01*
X182434000Y-72620000D02*
X183834000Y-72620000D01*
X182307000Y-110974000D02*
X183707000Y-110974000D01*
X183834000Y-66016000D02*
X182434000Y-66016000D01*
X183707000Y-105180000D02*
X182307000Y-105180000D01*
X153075000Y-73818000D02*
X151725000Y-73818000D01*
X160441000Y-74369000D02*
X159091000Y-74369000D01*
X162727000Y-74348000D02*
X161377000Y-74348000D01*
D14*
X201302000Y-76058000D02*
X193192000Y-76058000D01*
X201302000Y-76058000D02*
X201302000Y-76708000D01*
X186342000Y-76058000D02*
X186342000Y-62738000D01*
X186342000Y-76058000D02*
X189672000Y-76058000D01*
X186342000Y-62738000D02*
X189672000Y-62738000D01*
X201822000Y-62088000D02*
X201302000Y-62088000D01*
X201822000Y-76708000D02*
X201822000Y-62088000D01*
X193192000Y-62738000D02*
X201302000Y-62738000D01*
X201302000Y-76708000D02*
X201822000Y-76708000D01*
X201302000Y-62088000D02*
X201302000Y-62738000D01*
X186122000Y-73798000D02*
X186122000Y-71998000D01*
X201302000Y-114920000D02*
X193192000Y-114920000D01*
X201302000Y-114920000D02*
X201302000Y-115570000D01*
X186342000Y-114920000D02*
X186342000Y-101600000D01*
X186342000Y-114920000D02*
X189672000Y-114920000D01*
X186342000Y-101600000D02*
X189672000Y-101600000D01*
X201822000Y-100950000D02*
X201302000Y-100950000D01*
X201822000Y-115570000D02*
X201822000Y-100950000D01*
X193192000Y-101600000D02*
X201302000Y-101600000D01*
X201302000Y-115570000D02*
X201822000Y-115570000D01*
X201302000Y-100950000D02*
X201302000Y-101600000D01*
X186122000Y-112660000D02*
X186122000Y-110860000D01*
D13*
X191872000Y-81260000D02*
G75*
G03*
X191872000Y-81260000I-3150000J0D01*
G01*
X191872000Y-96754000D02*
G75*
G03*
X191872000Y-96754000I-3150000J0D01*
G01*
D15*
X139445500Y-94588500D02*
X139445500Y-83538500D01*
X139445500Y-83538500D02*
X144145500Y-83538500D01*
X144145500Y-83538500D02*
X144145500Y-94588500D01*
X144145500Y-94588500D02*
X139445500Y-94588500D01*
D14*
X136026000Y-56034000D02*
G75*
G03*
X136026000Y-56034000I-1450000J0D01*
G01*
X148770000Y-124460000D02*
G75*
G03*
X148770000Y-124460000I-1450000J0D01*
G01*
X164010000Y-124460000D02*
G75*
G03*
X164010000Y-124460000I-1450000J0D01*
G01*
D13*
X127446000Y-66445000D02*
X126046000Y-66445000D01*
X128843000Y-105664000D02*
X127443000Y-105664000D01*
X126046000Y-71731000D02*
X127446000Y-71731000D01*
X127443000Y-110490000D02*
X128843000Y-110490000D01*
X166677000Y-81066000D02*
X166677000Y-79716000D01*
X166677000Y-83479000D02*
X166677000Y-82129000D01*
X166677000Y-88940000D02*
X166677000Y-87590000D01*
X166698000Y-91353000D02*
X166698000Y-90003000D01*
X147430000Y-84770000D02*
X148480000Y-84770000D01*
X181029000Y-40448000D02*
X181029000Y-41848000D01*
X157280000Y-40448000D02*
X157280000Y-41848000D01*
X133531000Y-40448000D02*
X133531000Y-41848000D01*
X161224000Y-102633000D02*
X161224000Y-101583000D01*
X161228000Y-95226000D02*
X159828000Y-95226000D01*
X151364000Y-41364000D02*
X151364000Y-42764000D01*
X151364000Y-44158000D02*
X151364000Y-45558000D01*
X157463000Y-103063000D02*
X158513000Y-103063000D01*
X146855000Y-43514000D02*
X148205000Y-43514000D01*
X155615000Y-113571360D02*
X154265000Y-113571360D01*
X158155000Y-113580000D02*
X156805000Y-113580000D01*
X182050000Y-46952000D02*
X182050000Y-48352000D01*
X149206580Y-120116260D02*
X147856580Y-120116260D01*
D14*
X108578000Y-62372000D02*
X116688000Y-62372000D01*
X108578000Y-62372000D02*
X108578000Y-61722000D01*
X123538000Y-62372000D02*
X123538000Y-75692000D01*
X123538000Y-62372000D02*
X120208000Y-62372000D01*
X123538000Y-75692000D02*
X120208000Y-75692000D01*
X108058000Y-76342000D02*
X108578000Y-76342000D01*
X108058000Y-61722000D02*
X108058000Y-76342000D01*
X116688000Y-75692000D02*
X108578000Y-75692000D01*
X108578000Y-61722000D02*
X108058000Y-61722000D01*
X108578000Y-76342000D02*
X108578000Y-75692000D01*
X123758000Y-64632000D02*
X123758000Y-66432000D01*
X108578000Y-101488000D02*
X116688000Y-101488000D01*
X108578000Y-101488000D02*
X108578000Y-100838000D01*
X123538000Y-101488000D02*
X123538000Y-114808000D01*
X123538000Y-101488000D02*
X120208000Y-101488000D01*
X123538000Y-114808000D02*
X120208000Y-114808000D01*
X108058000Y-115458000D02*
X108578000Y-115458000D01*
X108058000Y-100838000D02*
X108058000Y-115458000D01*
X116688000Y-114808000D02*
X108578000Y-114808000D01*
X108578000Y-100838000D02*
X108058000Y-100838000D01*
X108578000Y-115458000D02*
X108578000Y-114808000D01*
X123758000Y-103748000D02*
X123758000Y-105548000D01*
D13*
X161290000Y-67564000D02*
X161290000Y-68709000D01*
X161290000Y-68709000D02*
X168910000Y-68709000D01*
X168910000Y-68709000D02*
X168910000Y-63879000D01*
X168910000Y-63879000D02*
X162560000Y-63879000D01*
X141224000Y-67564000D02*
X141224000Y-68709000D01*
X141224000Y-68709000D02*
X148844000Y-68709000D01*
X148844000Y-68709000D02*
X148844000Y-63879000D01*
X148844000Y-63879000D02*
X142494000Y-63879000D01*
D14*
X151040000Y-123459500D02*
X151490000Y-123459500D01*
X151040000Y-125309500D02*
X151040000Y-123459500D01*
X158840000Y-127859500D02*
X158840000Y-127609500D01*
X151040000Y-127859500D02*
X151040000Y-127609500D01*
X158840000Y-125309500D02*
X158840000Y-123459500D01*
X158840000Y-123459500D02*
X158390000Y-123459500D01*
X153240000Y-122909500D02*
X153690000Y-122909500D01*
X153240000Y-122909500D02*
X153240000Y-123359500D01*
D13*
X133580000Y-86034000D02*
X133580000Y-89734000D01*
X133580000Y-89734000D02*
X130580000Y-89734000D01*
X130580000Y-89734000D02*
X130580000Y-86034000D01*
X130580000Y-86034000D02*
X133580000Y-86034000D01*
X133630000Y-84209000D02*
X133630000Y-85684000D01*
X183210000Y-93596000D02*
X180010000Y-93596000D01*
X180010000Y-93596000D02*
X180010000Y-83696000D01*
X180010000Y-83696000D02*
X183210000Y-83696000D01*
X183210000Y-83696000D02*
X183210000Y-93596000D01*
X185085000Y-93766000D02*
X183560000Y-93766000D01*
X151790000Y-88748000D02*
X151790000Y-82448000D01*
X151790000Y-82448000D02*
X158090000Y-82448000D01*
X158090000Y-82448000D02*
X158090000Y-88748000D01*
X158090000Y-88748000D02*
X151790000Y-88748000D01*
D16*
X151140000Y-90173000D02*
G75*
G03*
X151140000Y-90173000I-200000J0D01*
G01*
D13*
X129476000Y-48429000D02*
X130876000Y-48429000D01*
X174340000Y-50970000D02*
X174340000Y-50970000D01*
X174540000Y-50970000D02*
X174540000Y-50970000D01*
X175940000Y-50470000D02*
X175240000Y-50470000D01*
X175240000Y-50470000D02*
X175240000Y-50570000D01*
X177540000Y-50470000D02*
X178240000Y-50470000D01*
X178240000Y-50470000D02*
X178240000Y-50570000D01*
X177540000Y-53470000D02*
X178240000Y-53470000D01*
X178240000Y-53470000D02*
X178240000Y-53370000D01*
X175940000Y-53470000D02*
X175240000Y-53470000D01*
X175240000Y-53470000D02*
X175240000Y-53370000D01*
X174340000Y-50970000D02*
G75*
G02*
X174540000Y-50970000I100000J0D01*
G01*
X174540000Y-50970000D02*
G75*
G02*
X174340000Y-50970000I-100000J0D01*
G01*
X154314000Y-48212000D02*
X157814000Y-48212000D01*
X157814000Y-48212000D02*
X157814000Y-54712000D01*
X157814000Y-54712000D02*
X154314000Y-54712000D01*
X154314000Y-54712000D02*
X154314000Y-48212000D01*
X152039000Y-48337000D02*
X153789000Y-48337000D01*
X161472000Y-118769000D02*
X165172000Y-118769000D01*
X165172000Y-118769000D02*
X165172000Y-121769000D01*
X165172000Y-121769000D02*
X161472000Y-121769000D01*
X161472000Y-121769000D02*
X161472000Y-118769000D01*
X159647000Y-118719000D02*
X161122000Y-118719000D01*
X182304000Y-35605000D02*
X178404000Y-35605000D01*
X178404000Y-35605000D02*
X178404000Y-37855000D01*
X178404000Y-37855000D02*
X182304000Y-37855000D01*
X158555000Y-35605000D02*
X154655000Y-35605000D01*
X154655000Y-35605000D02*
X154655000Y-37855000D01*
X154655000Y-37855000D02*
X158555000Y-37855000D01*
X134806000Y-35605000D02*
X130906000Y-35605000D01*
X130906000Y-35605000D02*
X130906000Y-37855000D01*
X130906000Y-37855000D02*
X134806000Y-37855000D01*
X157589000Y-57653000D02*
X162239000Y-57653000D01*
X162239000Y-57653000D02*
X162239000Y-60003000D01*
X162239000Y-60003000D02*
X157589000Y-60003000D01*
X157589000Y-60003000D02*
X157589000Y-57653000D01*
X157589000Y-58828000D02*
X158764000Y-57653000D01*
X154002000Y-58828000D02*
X157589000Y-58828000D01*
X162239000Y-58828000D02*
X165826000Y-58828000D01*
X165033000Y-46287000D02*
X160383000Y-46287000D01*
X160383000Y-46287000D02*
X160383000Y-43937000D01*
X160383000Y-43937000D02*
X165033000Y-43937000D01*
X165033000Y-43937000D02*
X165033000Y-46287000D01*
X165033000Y-45112000D02*
X163858000Y-46287000D01*
X168620000Y-45112000D02*
X165033000Y-45112000D01*
X160383000Y-45112000D02*
X156796000Y-45112000D01*
X124308000Y-80792000D02*
G75*
G03*
X124308000Y-80792000I-3150000J0D01*
G01*
X124308000Y-96286000D02*
G75*
G03*
X124308000Y-96286000I-3150000J0D01*
G01*
X147533500Y-81151500D02*
X147533500Y-82551500D01*
X148972500Y-88877000D02*
X147572500Y-88877000D01*
X158698000Y-94234000D02*
G75*
G03*
X158698000Y-94234000I-2500000J0D01*
G01*
X145502000Y-79744000D02*
G75*
G03*
X145502000Y-79744000I-2500000J0D01*
G01*
X163768000Y-98676000D02*
X162368000Y-98676000D01*
X164994000Y-52862000D02*
X163594000Y-52862000D01*
X166838000Y-114034000D02*
G75*
G03*
X166838000Y-114034000I-2500000J0D01*
G01*
X152249680Y-119620260D02*
X152249680Y-118220260D01*
D15*
X126652000Y-48384000D02*
X126652000Y-48384000D01*
X126752000Y-48384000D02*
X126752000Y-48384000D01*
D13*
X126702000Y-48709000D02*
X126702000Y-48709000D01*
X126702000Y-51759000D02*
X126702000Y-51759000D01*
X126702000Y-48709000D02*
G75*
G03*
X126702000Y-51759000I0J-1525000D01*
G01*
X126702000Y-51759000D02*
G75*
G03*
X126702000Y-48709000I0J1525000D01*
G01*
D15*
X126652000Y-48384000D02*
G75*
G03*
X126752000Y-48384000I50000J0D01*
G01*
X126752000Y-48384000D02*
G75*
G03*
X126652000Y-48384000I-50000J0D01*
G01*
D13*
X172868000Y-53892000D02*
X171468000Y-53892000D01*
X176122000Y-46952000D02*
X176122000Y-48352000D01*
X147468000Y-55142000D02*
X146068000Y-55142000D01*
X151024000Y-55152000D02*
X149624000Y-55152000D01*
X147084000Y-49066000D02*
X148484000Y-49066000D01*
X138324000Y-49574000D02*
X136924000Y-49574000D01*
X181930000Y-49492000D02*
X181930000Y-50892000D01*
D12*
X171516177Y-108706403D02*
X171576653Y-108524974D01*
X171576653Y-108222593D01*
X171516177Y-108101641D01*
X171455701Y-108041165D01*
X171334749Y-107980689D01*
X171213796Y-107980689D01*
X171092844Y-108041165D01*
X171032368Y-108101641D01*
X170971891Y-108222593D01*
X170911415Y-108464498D01*
X170850939Y-108585450D01*
X170790463Y-108645927D01*
X170669510Y-108706403D01*
X170548558Y-108706403D01*
X170427606Y-108645927D01*
X170367130Y-108585450D01*
X170306653Y-108464498D01*
X170306653Y-108162117D01*
X170367130Y-107980689D01*
X170306653Y-107557355D02*
X171576653Y-107254974D01*
X170669510Y-107013070D01*
X171576653Y-106771165D01*
X170306653Y-106468784D01*
X171576653Y-105319736D02*
X171576653Y-106045450D01*
X171576653Y-105682593D02*
X170306653Y-105682593D01*
X170488082Y-105803546D01*
X170609034Y-105924498D01*
X170669510Y-106045450D01*
X148402523Y-74730428D02*
X147797761Y-75153761D01*
X148402523Y-75456142D02*
X147132523Y-75456142D01*
X147132523Y-74972333D01*
X147193000Y-74851380D01*
X147253476Y-74790904D01*
X147374428Y-74730428D01*
X147555857Y-74730428D01*
X147676809Y-74790904D01*
X147737285Y-74851380D01*
X147797761Y-74972333D01*
X147797761Y-75456142D01*
X148402523Y-73520904D02*
X148402523Y-74246619D01*
X148402523Y-73883761D02*
X147132523Y-73883761D01*
X147313952Y-74004714D01*
X147434904Y-74125666D01*
X147495380Y-74246619D01*
X147132523Y-73097571D02*
X147132523Y-72250904D01*
X148402523Y-72795190D01*
X181778523Y-73426428D02*
X181173761Y-73849761D01*
X181778523Y-74152142D02*
X180508523Y-74152142D01*
X180508523Y-73668333D01*
X180569000Y-73547380D01*
X180629476Y-73486904D01*
X180750428Y-73426428D01*
X180931857Y-73426428D01*
X181052809Y-73486904D01*
X181113285Y-73547380D01*
X181173761Y-73668333D01*
X181173761Y-74152142D01*
X180508523Y-73003095D02*
X180508523Y-72216904D01*
X180992333Y-72640238D01*
X180992333Y-72458809D01*
X181052809Y-72337857D01*
X181113285Y-72277380D01*
X181234238Y-72216904D01*
X181536619Y-72216904D01*
X181657571Y-72277380D01*
X181718047Y-72337857D01*
X181778523Y-72458809D01*
X181778523Y-72821666D01*
X181718047Y-72942619D01*
X181657571Y-73003095D01*
X180508523Y-71430714D02*
X180508523Y-71309761D01*
X180569000Y-71188809D01*
X180629476Y-71128333D01*
X180750428Y-71067857D01*
X180992333Y-71007380D01*
X181294714Y-71007380D01*
X181536619Y-71067857D01*
X181657571Y-71128333D01*
X181718047Y-71188809D01*
X181778523Y-71309761D01*
X181778523Y-71430714D01*
X181718047Y-71551666D01*
X181657571Y-71612142D01*
X181536619Y-71672619D01*
X181294714Y-71733095D01*
X180992333Y-71733095D01*
X180750428Y-71672619D01*
X180629476Y-71612142D01*
X180569000Y-71551666D01*
X180508523Y-71430714D01*
X181651523Y-111780428D02*
X181046761Y-112203761D01*
X181651523Y-112506142D02*
X180381523Y-112506142D01*
X180381523Y-112022333D01*
X180442000Y-111901380D01*
X180502476Y-111840904D01*
X180623428Y-111780428D01*
X180804857Y-111780428D01*
X180925809Y-111840904D01*
X180986285Y-111901380D01*
X181046761Y-112022333D01*
X181046761Y-112506142D01*
X180502476Y-111296619D02*
X180442000Y-111236142D01*
X180381523Y-111115190D01*
X180381523Y-110812809D01*
X180442000Y-110691857D01*
X180502476Y-110631380D01*
X180623428Y-110570904D01*
X180744380Y-110570904D01*
X180925809Y-110631380D01*
X181651523Y-111357095D01*
X181651523Y-110570904D01*
X181651523Y-109966142D02*
X181651523Y-109724238D01*
X181591047Y-109603285D01*
X181530571Y-109542809D01*
X181349142Y-109421857D01*
X181107238Y-109361380D01*
X180623428Y-109361380D01*
X180502476Y-109421857D01*
X180442000Y-109482333D01*
X180381523Y-109603285D01*
X180381523Y-109845190D01*
X180442000Y-109966142D01*
X180502476Y-110026619D01*
X180623428Y-110087095D01*
X180925809Y-110087095D01*
X181046761Y-110026619D01*
X181107238Y-109966142D01*
X181167714Y-109845190D01*
X181167714Y-109603285D01*
X181107238Y-109482333D01*
X181046761Y-109421857D01*
X180925809Y-109361380D01*
X181676523Y-66842428D02*
X181071761Y-67265761D01*
X181676523Y-67568142D02*
X180406523Y-67568142D01*
X180406523Y-67084333D01*
X180467000Y-66963380D01*
X180527476Y-66902904D01*
X180648428Y-66842428D01*
X180829857Y-66842428D01*
X180950809Y-66902904D01*
X181011285Y-66963380D01*
X181071761Y-67084333D01*
X181071761Y-67568142D01*
X180527476Y-66358619D02*
X180467000Y-66298142D01*
X180406523Y-66177190D01*
X180406523Y-65874809D01*
X180467000Y-65753857D01*
X180527476Y-65693380D01*
X180648428Y-65632904D01*
X180769380Y-65632904D01*
X180950809Y-65693380D01*
X181676523Y-66419095D01*
X181676523Y-65632904D01*
X180950809Y-64907190D02*
X180890333Y-65028142D01*
X180829857Y-65088619D01*
X180708904Y-65149095D01*
X180648428Y-65149095D01*
X180527476Y-65088619D01*
X180467000Y-65028142D01*
X180406523Y-64907190D01*
X180406523Y-64665285D01*
X180467000Y-64544333D01*
X180527476Y-64483857D01*
X180648428Y-64423380D01*
X180708904Y-64423380D01*
X180829857Y-64483857D01*
X180890333Y-64544333D01*
X180950809Y-64665285D01*
X180950809Y-64907190D01*
X181011285Y-65028142D01*
X181071761Y-65088619D01*
X181192714Y-65149095D01*
X181434619Y-65149095D01*
X181555571Y-65088619D01*
X181616047Y-65028142D01*
X181676523Y-64907190D01*
X181676523Y-64665285D01*
X181616047Y-64544333D01*
X181555571Y-64483857D01*
X181434619Y-64423380D01*
X181192714Y-64423380D01*
X181071761Y-64483857D01*
X181011285Y-64544333D01*
X180950809Y-64665285D01*
X181549523Y-106020428D02*
X180944761Y-106443761D01*
X181549523Y-106746142D02*
X180279523Y-106746142D01*
X180279523Y-106262333D01*
X180340000Y-106141380D01*
X180400476Y-106080904D01*
X180521428Y-106020428D01*
X180702857Y-106020428D01*
X180823809Y-106080904D01*
X180884285Y-106141380D01*
X180944761Y-106262333D01*
X180944761Y-106746142D01*
X180400476Y-105536619D02*
X180340000Y-105476142D01*
X180279523Y-105355190D01*
X180279523Y-105052809D01*
X180340000Y-104931857D01*
X180400476Y-104871380D01*
X180521428Y-104810904D01*
X180642380Y-104810904D01*
X180823809Y-104871380D01*
X181549523Y-105597095D01*
X181549523Y-104810904D01*
X180279523Y-104387571D02*
X180279523Y-103540904D01*
X181549523Y-104085190D01*
X155006523Y-74730428D02*
X154401761Y-75153761D01*
X155006523Y-75456142D02*
X153736523Y-75456142D01*
X153736523Y-74972333D01*
X153797000Y-74851380D01*
X153857476Y-74790904D01*
X153978428Y-74730428D01*
X154159857Y-74730428D01*
X154280809Y-74790904D01*
X154341285Y-74851380D01*
X154401761Y-74972333D01*
X154401761Y-75456142D01*
X155006523Y-73520904D02*
X155006523Y-74246619D01*
X155006523Y-73883761D02*
X153736523Y-73883761D01*
X153917952Y-74004714D01*
X154038904Y-74125666D01*
X154099380Y-74246619D01*
X153736523Y-72432333D02*
X153736523Y-72674238D01*
X153797000Y-72795190D01*
X153857476Y-72855666D01*
X154038904Y-72976619D01*
X154280809Y-73037095D01*
X154764619Y-73037095D01*
X154885571Y-72976619D01*
X154946047Y-72916142D01*
X155006523Y-72795190D01*
X155006523Y-72553285D01*
X154946047Y-72432333D01*
X154885571Y-72371857D01*
X154764619Y-72311380D01*
X154462238Y-72311380D01*
X154341285Y-72371857D01*
X154280809Y-72432333D01*
X154220333Y-72553285D01*
X154220333Y-72795190D01*
X154280809Y-72916142D01*
X154341285Y-72976619D01*
X154462238Y-73037095D01*
X157374771Y-71796123D02*
X156951438Y-71191361D01*
X156649057Y-71796123D02*
X156649057Y-70526123D01*
X157132866Y-70526123D01*
X157253819Y-70586600D01*
X157314295Y-70647076D01*
X157374771Y-70768028D01*
X157374771Y-70949457D01*
X157314295Y-71070409D01*
X157253819Y-71130885D01*
X157132866Y-71191361D01*
X156649057Y-71191361D01*
X158584295Y-71796123D02*
X157858580Y-71796123D01*
X158221438Y-71796123D02*
X158221438Y-70526123D01*
X158100485Y-70707552D01*
X157979533Y-70828504D01*
X157858580Y-70888980D01*
X159733342Y-70526123D02*
X159128580Y-70526123D01*
X159068104Y-71130885D01*
X159128580Y-71070409D01*
X159249533Y-71009933D01*
X159551914Y-71009933D01*
X159672866Y-71070409D01*
X159733342Y-71130885D01*
X159793819Y-71251838D01*
X159793819Y-71554219D01*
X159733342Y-71675171D01*
X159672866Y-71735647D01*
X159551914Y-71796123D01*
X159249533Y-71796123D01*
X159128580Y-71735647D01*
X159068104Y-71675171D01*
X164004171Y-75072723D02*
X163580838Y-74467961D01*
X163278457Y-75072723D02*
X163278457Y-73802723D01*
X163762266Y-73802723D01*
X163883219Y-73863200D01*
X163943695Y-73923676D01*
X164004171Y-74044628D01*
X164004171Y-74226057D01*
X163943695Y-74347009D01*
X163883219Y-74407485D01*
X163762266Y-74467961D01*
X163278457Y-74467961D01*
X165213695Y-75072723D02*
X164487980Y-75072723D01*
X164850838Y-75072723D02*
X164850838Y-73802723D01*
X164729885Y-73984152D01*
X164608933Y-74105104D01*
X164487980Y-74165580D01*
X166302266Y-74226057D02*
X166302266Y-75072723D01*
X165999885Y-73742247D02*
X165697504Y-74649390D01*
X166483695Y-74649390D01*
D11*
X185984380Y-71683714D02*
X184984380Y-71683714D01*
X184984380Y-71302761D01*
X185032000Y-71207523D01*
X185079619Y-71159904D01*
X185174857Y-71112285D01*
X185317714Y-71112285D01*
X185412952Y-71159904D01*
X185460571Y-71207523D01*
X185508190Y-71302761D01*
X185508190Y-71683714D01*
X185984380Y-70540857D02*
X185936761Y-70636095D01*
X185889142Y-70683714D01*
X185793904Y-70731333D01*
X185508190Y-70731333D01*
X185412952Y-70683714D01*
X185365333Y-70636095D01*
X185317714Y-70540857D01*
X185317714Y-70398000D01*
X185365333Y-70302761D01*
X185412952Y-70255142D01*
X185508190Y-70207523D01*
X185793904Y-70207523D01*
X185889142Y-70255142D01*
X185936761Y-70302761D01*
X185984380Y-70398000D01*
X185984380Y-70540857D01*
X185984380Y-69778952D02*
X185317714Y-69778952D01*
X185508190Y-69778952D02*
X185412952Y-69731333D01*
X185365333Y-69683714D01*
X185317714Y-69588476D01*
X185317714Y-69493238D01*
X185317714Y-69302761D02*
X185317714Y-68921809D01*
X184984380Y-69159904D02*
X185841523Y-69159904D01*
X185936761Y-69112285D01*
X185984380Y-69017047D01*
X185984380Y-68921809D01*
X185984380Y-68588476D02*
X184984380Y-68588476D01*
X184984380Y-68350380D01*
X185032000Y-68207523D01*
X185127238Y-68112285D01*
X185222476Y-68064666D01*
X185412952Y-68017047D01*
X185555809Y-68017047D01*
X185746285Y-68064666D01*
X185841523Y-68112285D01*
X185936761Y-68207523D01*
X185984380Y-68350380D01*
X185984380Y-68588476D01*
X185984380Y-67064666D02*
X185984380Y-67636095D01*
X185984380Y-67350380D02*
X184984380Y-67350380D01*
X185127238Y-67445619D01*
X185222476Y-67540857D01*
X185270095Y-67636095D01*
X185984380Y-110545714D02*
X184984380Y-110545714D01*
X184984380Y-110164761D01*
X185032000Y-110069523D01*
X185079619Y-110021904D01*
X185174857Y-109974285D01*
X185317714Y-109974285D01*
X185412952Y-110021904D01*
X185460571Y-110069523D01*
X185508190Y-110164761D01*
X185508190Y-110545714D01*
X185984380Y-109402857D02*
X185936761Y-109498095D01*
X185889142Y-109545714D01*
X185793904Y-109593333D01*
X185508190Y-109593333D01*
X185412952Y-109545714D01*
X185365333Y-109498095D01*
X185317714Y-109402857D01*
X185317714Y-109260000D01*
X185365333Y-109164761D01*
X185412952Y-109117142D01*
X185508190Y-109069523D01*
X185793904Y-109069523D01*
X185889142Y-109117142D01*
X185936761Y-109164761D01*
X185984380Y-109260000D01*
X185984380Y-109402857D01*
X185984380Y-108640952D02*
X185317714Y-108640952D01*
X185508190Y-108640952D02*
X185412952Y-108593333D01*
X185365333Y-108545714D01*
X185317714Y-108450476D01*
X185317714Y-108355238D01*
X185317714Y-108164761D02*
X185317714Y-107783809D01*
X184984380Y-108021904D02*
X185841523Y-108021904D01*
X185936761Y-107974285D01*
X185984380Y-107879047D01*
X185984380Y-107783809D01*
X185889142Y-106879047D02*
X185936761Y-106926666D01*
X185984380Y-107069523D01*
X185984380Y-107164761D01*
X185936761Y-107307619D01*
X185841523Y-107402857D01*
X185746285Y-107450476D01*
X185555809Y-107498095D01*
X185412952Y-107498095D01*
X185222476Y-107450476D01*
X185127238Y-107402857D01*
X185032000Y-107307619D01*
X184984380Y-107164761D01*
X184984380Y-107069523D01*
X185032000Y-106926666D01*
X185079619Y-106879047D01*
X185984380Y-105926666D02*
X185984380Y-106498095D01*
X185984380Y-106212380D02*
X184984380Y-106212380D01*
X185127238Y-106307619D01*
X185222476Y-106402857D01*
X185270095Y-106498095D01*
D12*
X187651571Y-86559571D02*
X187591095Y-86620047D01*
X187409666Y-86680523D01*
X187288714Y-86680523D01*
X187107285Y-86620047D01*
X186986333Y-86499095D01*
X186925857Y-86378142D01*
X186865380Y-86136238D01*
X186865380Y-85954809D01*
X186925857Y-85712904D01*
X186986333Y-85591952D01*
X187107285Y-85471000D01*
X187288714Y-85410523D01*
X187409666Y-85410523D01*
X187591095Y-85471000D01*
X187651571Y-85531476D01*
X188074904Y-85410523D02*
X188861095Y-85410523D01*
X188437761Y-85894333D01*
X188619190Y-85894333D01*
X188740142Y-85954809D01*
X188800619Y-86015285D01*
X188861095Y-86136238D01*
X188861095Y-86438619D01*
X188800619Y-86559571D01*
X188740142Y-86620047D01*
X188619190Y-86680523D01*
X188256333Y-86680523D01*
X188135380Y-86620047D01*
X188074904Y-86559571D01*
X189344904Y-85531476D02*
X189405380Y-85471000D01*
X189526333Y-85410523D01*
X189828714Y-85410523D01*
X189949666Y-85471000D01*
X190010142Y-85531476D01*
X190070619Y-85652428D01*
X190070619Y-85773380D01*
X190010142Y-85954809D01*
X189284428Y-86680523D01*
X190070619Y-86680523D01*
X187905571Y-92655571D02*
X187845095Y-92716047D01*
X187663666Y-92776523D01*
X187542714Y-92776523D01*
X187361285Y-92716047D01*
X187240333Y-92595095D01*
X187179857Y-92474142D01*
X187119380Y-92232238D01*
X187119380Y-92050809D01*
X187179857Y-91808904D01*
X187240333Y-91687952D01*
X187361285Y-91567000D01*
X187542714Y-91506523D01*
X187663666Y-91506523D01*
X187845095Y-91567000D01*
X187905571Y-91627476D01*
X188328904Y-91506523D02*
X189115095Y-91506523D01*
X188691761Y-91990333D01*
X188873190Y-91990333D01*
X188994142Y-92050809D01*
X189054619Y-92111285D01*
X189115095Y-92232238D01*
X189115095Y-92534619D01*
X189054619Y-92655571D01*
X188994142Y-92716047D01*
X188873190Y-92776523D01*
X188510333Y-92776523D01*
X188389380Y-92716047D01*
X188328904Y-92655571D01*
X190324619Y-92776523D02*
X189598904Y-92776523D01*
X189961761Y-92776523D02*
X189961761Y-91506523D01*
X189840809Y-91687952D01*
X189719857Y-91808904D01*
X189598904Y-91869380D01*
X146757571Y-79193571D02*
X146697095Y-79254047D01*
X146515666Y-79314523D01*
X146394714Y-79314523D01*
X146213285Y-79254047D01*
X146092333Y-79133095D01*
X146031857Y-79012142D01*
X145971380Y-78770238D01*
X145971380Y-78588809D01*
X146031857Y-78346904D01*
X146092333Y-78225952D01*
X146213285Y-78105000D01*
X146394714Y-78044523D01*
X146515666Y-78044523D01*
X146697095Y-78105000D01*
X146757571Y-78165476D01*
X147180904Y-78044523D02*
X147967095Y-78044523D01*
X147543761Y-78528333D01*
X147725190Y-78528333D01*
X147846142Y-78588809D01*
X147906619Y-78649285D01*
X147967095Y-78770238D01*
X147967095Y-79072619D01*
X147906619Y-79193571D01*
X147846142Y-79254047D01*
X147725190Y-79314523D01*
X147362333Y-79314523D01*
X147241380Y-79254047D01*
X147180904Y-79193571D01*
X148753285Y-78044523D02*
X148874238Y-78044523D01*
X148995190Y-78105000D01*
X149055666Y-78165476D01*
X149116142Y-78286428D01*
X149176619Y-78528333D01*
X149176619Y-78830714D01*
X149116142Y-79072619D01*
X149055666Y-79193571D01*
X148995190Y-79254047D01*
X148874238Y-79314523D01*
X148753285Y-79314523D01*
X148632333Y-79254047D01*
X148571857Y-79193571D01*
X148511380Y-79072619D01*
X148450904Y-78830714D01*
X148450904Y-78528333D01*
X148511380Y-78286428D01*
X148571857Y-78165476D01*
X148632333Y-78105000D01*
X148753285Y-78044523D01*
X156028571Y-76399571D02*
X155968095Y-76460047D01*
X155786666Y-76520523D01*
X155665714Y-76520523D01*
X155484285Y-76460047D01*
X155363333Y-76339095D01*
X155302857Y-76218142D01*
X155242380Y-75976238D01*
X155242380Y-75794809D01*
X155302857Y-75552904D01*
X155363333Y-75431952D01*
X155484285Y-75311000D01*
X155665714Y-75250523D01*
X155786666Y-75250523D01*
X155968095Y-75311000D01*
X156028571Y-75371476D01*
X156512380Y-75371476D02*
X156572857Y-75311000D01*
X156693809Y-75250523D01*
X156996190Y-75250523D01*
X157117142Y-75311000D01*
X157177619Y-75371476D01*
X157238095Y-75492428D01*
X157238095Y-75613380D01*
X157177619Y-75794809D01*
X156451904Y-76520523D01*
X157238095Y-76520523D01*
X157842857Y-76520523D02*
X158084761Y-76520523D01*
X158205714Y-76460047D01*
X158266190Y-76399571D01*
X158387142Y-76218142D01*
X158447619Y-75976238D01*
X158447619Y-75492428D01*
X158387142Y-75371476D01*
X158326666Y-75311000D01*
X158205714Y-75250523D01*
X157963809Y-75250523D01*
X157842857Y-75311000D01*
X157782380Y-75371476D01*
X157721904Y-75492428D01*
X157721904Y-75794809D01*
X157782380Y-75915761D01*
X157842857Y-75976238D01*
X157963809Y-76036714D01*
X158205714Y-76036714D01*
X158326666Y-75976238D01*
X158387142Y-75915761D01*
X158447619Y-75794809D01*
X151837571Y-79295171D02*
X151777095Y-79355647D01*
X151595666Y-79416123D01*
X151474714Y-79416123D01*
X151293285Y-79355647D01*
X151172333Y-79234695D01*
X151111857Y-79113742D01*
X151051380Y-78871838D01*
X151051380Y-78690409D01*
X151111857Y-78448504D01*
X151172333Y-78327552D01*
X151293285Y-78206600D01*
X151474714Y-78146123D01*
X151595666Y-78146123D01*
X151777095Y-78206600D01*
X151837571Y-78267076D01*
X152321380Y-78267076D02*
X152381857Y-78206600D01*
X152502809Y-78146123D01*
X152805190Y-78146123D01*
X152926142Y-78206600D01*
X152986619Y-78267076D01*
X153047095Y-78388028D01*
X153047095Y-78508980D01*
X152986619Y-78690409D01*
X152260904Y-79416123D01*
X153047095Y-79416123D01*
X153772809Y-78690409D02*
X153651857Y-78629933D01*
X153591380Y-78569457D01*
X153530904Y-78448504D01*
X153530904Y-78388028D01*
X153591380Y-78267076D01*
X153651857Y-78206600D01*
X153772809Y-78146123D01*
X154014714Y-78146123D01*
X154135666Y-78206600D01*
X154196142Y-78267076D01*
X154256619Y-78388028D01*
X154256619Y-78448504D01*
X154196142Y-78569457D01*
X154135666Y-78629933D01*
X154014714Y-78690409D01*
X153772809Y-78690409D01*
X153651857Y-78750885D01*
X153591380Y-78811361D01*
X153530904Y-78932314D01*
X153530904Y-79174219D01*
X153591380Y-79295171D01*
X153651857Y-79355647D01*
X153772809Y-79416123D01*
X154014714Y-79416123D01*
X154135666Y-79355647D01*
X154196142Y-79295171D01*
X154256619Y-79174219D01*
X154256619Y-78932314D01*
X154196142Y-78811361D01*
X154135666Y-78750885D01*
X154014714Y-78690409D01*
X163267571Y-78075971D02*
X163207095Y-78136447D01*
X163025666Y-78196923D01*
X162904714Y-78196923D01*
X162723285Y-78136447D01*
X162602333Y-78015495D01*
X162541857Y-77894542D01*
X162481380Y-77652638D01*
X162481380Y-77471209D01*
X162541857Y-77229304D01*
X162602333Y-77108352D01*
X162723285Y-76987400D01*
X162904714Y-76926923D01*
X163025666Y-76926923D01*
X163207095Y-76987400D01*
X163267571Y-77047876D01*
X163751380Y-77047876D02*
X163811857Y-76987400D01*
X163932809Y-76926923D01*
X164235190Y-76926923D01*
X164356142Y-76987400D01*
X164416619Y-77047876D01*
X164477095Y-77168828D01*
X164477095Y-77289780D01*
X164416619Y-77471209D01*
X163690904Y-78196923D01*
X164477095Y-78196923D01*
X164900428Y-76926923D02*
X165747095Y-76926923D01*
X165202809Y-78196923D01*
X141254238Y-96997761D02*
X141254238Y-97602523D01*
X140830904Y-96332523D02*
X141254238Y-96997761D01*
X141677571Y-96332523D01*
X142766142Y-97602523D02*
X142040428Y-97602523D01*
X142403285Y-97602523D02*
X142403285Y-96332523D01*
X142282333Y-96513952D01*
X142161380Y-96634904D01*
X142040428Y-96695380D01*
D11*
X131818404Y-58285071D02*
X132151738Y-58285071D01*
X132294595Y-58808880D02*
X131818404Y-58808880D01*
X131818404Y-57808880D01*
X132294595Y-57808880D01*
X132723166Y-58142214D02*
X132723166Y-58808880D01*
X132723166Y-58237452D02*
X132770785Y-58189833D01*
X132866023Y-58142214D01*
X133008880Y-58142214D01*
X133104119Y-58189833D01*
X133151738Y-58285071D01*
X133151738Y-58808880D01*
X134056500Y-58808880D02*
X134056500Y-58285071D01*
X134008880Y-58189833D01*
X133913642Y-58142214D01*
X133723166Y-58142214D01*
X133627928Y-58189833D01*
X134056500Y-58761261D02*
X133961261Y-58808880D01*
X133723166Y-58808880D01*
X133627928Y-58761261D01*
X133580309Y-58666023D01*
X133580309Y-58570785D01*
X133627928Y-58475547D01*
X133723166Y-58427928D01*
X133961261Y-58427928D01*
X134056500Y-58380309D01*
X134532690Y-58808880D02*
X134532690Y-57808880D01*
X134532690Y-58189833D02*
X134627928Y-58142214D01*
X134818404Y-58142214D01*
X134913642Y-58189833D01*
X134961261Y-58237452D01*
X135008880Y-58332690D01*
X135008880Y-58618404D01*
X134961261Y-58713642D01*
X134913642Y-58761261D01*
X134818404Y-58808880D01*
X134627928Y-58808880D01*
X134532690Y-58761261D01*
X135580309Y-58808880D02*
X135485071Y-58761261D01*
X135437452Y-58666023D01*
X135437452Y-57808880D01*
X136342214Y-58761261D02*
X136246976Y-58808880D01*
X136056500Y-58808880D01*
X135961261Y-58761261D01*
X135913642Y-58666023D01*
X135913642Y-58285071D01*
X135961261Y-58189833D01*
X136056500Y-58142214D01*
X136246976Y-58142214D01*
X136342214Y-58189833D01*
X136389833Y-58285071D01*
X136389833Y-58380309D01*
X135913642Y-58475547D01*
X137342214Y-58808880D02*
X136770785Y-58808880D01*
X137056500Y-58808880D02*
X137056500Y-57808880D01*
X136961261Y-57951738D01*
X136866023Y-58046976D01*
X136770785Y-58094595D01*
X145010476Y-126452380D02*
X145343809Y-127452380D01*
X145677142Y-126452380D01*
X146343809Y-126928571D02*
X146486666Y-126976190D01*
X146534285Y-127023809D01*
X146581904Y-127119047D01*
X146581904Y-127261904D01*
X146534285Y-127357142D01*
X146486666Y-127404761D01*
X146391428Y-127452380D01*
X146010476Y-127452380D01*
X146010476Y-126452380D01*
X146343809Y-126452380D01*
X146439047Y-126500000D01*
X146486666Y-126547619D01*
X146534285Y-126642857D01*
X146534285Y-126738095D01*
X146486666Y-126833333D01*
X146439047Y-126880952D01*
X146343809Y-126928571D01*
X146010476Y-126928571D01*
X147010476Y-126452380D02*
X147010476Y-127261904D01*
X147058095Y-127357142D01*
X147105714Y-127404761D01*
X147200952Y-127452380D01*
X147391428Y-127452380D01*
X147486666Y-127404761D01*
X147534285Y-127357142D01*
X147581904Y-127261904D01*
X147581904Y-126452380D01*
X148010476Y-127404761D02*
X148153333Y-127452380D01*
X148391428Y-127452380D01*
X148486666Y-127404761D01*
X148534285Y-127357142D01*
X148581904Y-127261904D01*
X148581904Y-127166666D01*
X148534285Y-127071428D01*
X148486666Y-127023809D01*
X148391428Y-126976190D01*
X148200952Y-126928571D01*
X148105714Y-126880952D01*
X148058095Y-126833333D01*
X148010476Y-126738095D01*
X148010476Y-126642857D01*
X148058095Y-126547619D01*
X148105714Y-126500000D01*
X148200952Y-126452380D01*
X148439047Y-126452380D01*
X148581904Y-126500000D01*
X149534285Y-127452380D02*
X148962857Y-127452380D01*
X149248571Y-127452380D02*
X149248571Y-126452380D01*
X149153333Y-126595238D01*
X149058095Y-126690476D01*
X148962857Y-126738095D01*
X161321904Y-126500000D02*
X161226666Y-126452380D01*
X161083809Y-126452380D01*
X160940952Y-126500000D01*
X160845714Y-126595238D01*
X160798095Y-126690476D01*
X160750476Y-126880952D01*
X160750476Y-127023809D01*
X160798095Y-127214285D01*
X160845714Y-127309523D01*
X160940952Y-127404761D01*
X161083809Y-127452380D01*
X161179047Y-127452380D01*
X161321904Y-127404761D01*
X161369523Y-127357142D01*
X161369523Y-127023809D01*
X161179047Y-127023809D01*
X161798095Y-127452380D02*
X161798095Y-126452380D01*
X162369523Y-127452380D01*
X162369523Y-126452380D01*
X162845714Y-127452380D02*
X162845714Y-126452380D01*
X163083809Y-126452380D01*
X163226666Y-126500000D01*
X163321904Y-126595238D01*
X163369523Y-126690476D01*
X163417142Y-126880952D01*
X163417142Y-127023809D01*
X163369523Y-127214285D01*
X163321904Y-127309523D01*
X163226666Y-127404761D01*
X163083809Y-127452380D01*
X162845714Y-127452380D01*
X164369523Y-127452380D02*
X163798095Y-127452380D01*
X164083809Y-127452380D02*
X164083809Y-126452380D01*
X163988571Y-126595238D01*
X163893333Y-126690476D01*
X163798095Y-126738095D01*
D12*
X129250523Y-67271428D02*
X128645761Y-67694761D01*
X129250523Y-67997142D02*
X127980523Y-67997142D01*
X127980523Y-67513333D01*
X128041000Y-67392380D01*
X128101476Y-67331904D01*
X128222428Y-67271428D01*
X128403857Y-67271428D01*
X128524809Y-67331904D01*
X128585285Y-67392380D01*
X128645761Y-67513333D01*
X128645761Y-67997142D01*
X128101476Y-66787619D02*
X128041000Y-66727142D01*
X127980523Y-66606190D01*
X127980523Y-66303809D01*
X128041000Y-66182857D01*
X128101476Y-66122380D01*
X128222428Y-66061904D01*
X128343380Y-66061904D01*
X128524809Y-66122380D01*
X129250523Y-66848095D01*
X129250523Y-66061904D01*
X127980523Y-64973333D02*
X127980523Y-65215238D01*
X128041000Y-65336190D01*
X128101476Y-65396666D01*
X128282904Y-65517619D01*
X128524809Y-65578095D01*
X129008619Y-65578095D01*
X129129571Y-65517619D01*
X129190047Y-65457142D01*
X129250523Y-65336190D01*
X129250523Y-65094285D01*
X129190047Y-64973333D01*
X129129571Y-64912857D01*
X129008619Y-64852380D01*
X128706238Y-64852380D01*
X128585285Y-64912857D01*
X128524809Y-64973333D01*
X128464333Y-65094285D01*
X128464333Y-65336190D01*
X128524809Y-65457142D01*
X128585285Y-65517619D01*
X128706238Y-65578095D01*
X130647523Y-106490428D02*
X130042761Y-106913761D01*
X130647523Y-107216142D02*
X129377523Y-107216142D01*
X129377523Y-106732333D01*
X129438000Y-106611380D01*
X129498476Y-106550904D01*
X129619428Y-106490428D01*
X129800857Y-106490428D01*
X129921809Y-106550904D01*
X129982285Y-106611380D01*
X130042761Y-106732333D01*
X130042761Y-107216142D01*
X129498476Y-106006619D02*
X129438000Y-105946142D01*
X129377523Y-105825190D01*
X129377523Y-105522809D01*
X129438000Y-105401857D01*
X129498476Y-105341380D01*
X129619428Y-105280904D01*
X129740380Y-105280904D01*
X129921809Y-105341380D01*
X130647523Y-106067095D01*
X130647523Y-105280904D01*
X129377523Y-104131857D02*
X129377523Y-104736619D01*
X129982285Y-104797095D01*
X129921809Y-104736619D01*
X129861333Y-104615666D01*
X129861333Y-104313285D01*
X129921809Y-104192333D01*
X129982285Y-104131857D01*
X130103238Y-104071380D01*
X130405619Y-104071380D01*
X130526571Y-104131857D01*
X130587047Y-104192333D01*
X130647523Y-104313285D01*
X130647523Y-104615666D01*
X130587047Y-104736619D01*
X130526571Y-104797095D01*
X129352523Y-72537428D02*
X128747761Y-72960761D01*
X129352523Y-73263142D02*
X128082523Y-73263142D01*
X128082523Y-72779333D01*
X128143000Y-72658380D01*
X128203476Y-72597904D01*
X128324428Y-72537428D01*
X128505857Y-72537428D01*
X128626809Y-72597904D01*
X128687285Y-72658380D01*
X128747761Y-72779333D01*
X128747761Y-73263142D01*
X128203476Y-72053619D02*
X128143000Y-71993142D01*
X128082523Y-71872190D01*
X128082523Y-71569809D01*
X128143000Y-71448857D01*
X128203476Y-71388380D01*
X128324428Y-71327904D01*
X128445380Y-71327904D01*
X128626809Y-71388380D01*
X129352523Y-72114095D01*
X129352523Y-71327904D01*
X128505857Y-70239333D02*
X129352523Y-70239333D01*
X128022047Y-70541714D02*
X128929190Y-70844095D01*
X128929190Y-70057904D01*
X130876523Y-111306428D02*
X130271761Y-111729761D01*
X130876523Y-112032142D02*
X129606523Y-112032142D01*
X129606523Y-111548333D01*
X129667000Y-111427380D01*
X129727476Y-111366904D01*
X129848428Y-111306428D01*
X130029857Y-111306428D01*
X130150809Y-111366904D01*
X130211285Y-111427380D01*
X130271761Y-111548333D01*
X130271761Y-112032142D01*
X129727476Y-110822619D02*
X129667000Y-110762142D01*
X129606523Y-110641190D01*
X129606523Y-110338809D01*
X129667000Y-110217857D01*
X129727476Y-110157380D01*
X129848428Y-110096904D01*
X129969380Y-110096904D01*
X130150809Y-110157380D01*
X130876523Y-110883095D01*
X130876523Y-110096904D01*
X129606523Y-109673571D02*
X129606523Y-108887380D01*
X130090333Y-109310714D01*
X130090333Y-109129285D01*
X130150809Y-109008333D01*
X130211285Y-108947857D01*
X130332238Y-108887380D01*
X130634619Y-108887380D01*
X130755571Y-108947857D01*
X130816047Y-109008333D01*
X130876523Y-109129285D01*
X130876523Y-109492142D01*
X130816047Y-109613095D01*
X130755571Y-109673571D01*
X169924571Y-80965523D02*
X169501238Y-80360761D01*
X169198857Y-80965523D02*
X169198857Y-79695523D01*
X169682666Y-79695523D01*
X169803619Y-79756000D01*
X169864095Y-79816476D01*
X169924571Y-79937428D01*
X169924571Y-80118857D01*
X169864095Y-80239809D01*
X169803619Y-80300285D01*
X169682666Y-80360761D01*
X169198857Y-80360761D01*
X170408380Y-79816476D02*
X170468857Y-79756000D01*
X170589809Y-79695523D01*
X170892190Y-79695523D01*
X171013142Y-79756000D01*
X171073619Y-79816476D01*
X171134095Y-79937428D01*
X171134095Y-80058380D01*
X171073619Y-80239809D01*
X170347904Y-80965523D01*
X171134095Y-80965523D01*
X171617904Y-79816476D02*
X171678380Y-79756000D01*
X171799333Y-79695523D01*
X172101714Y-79695523D01*
X172222666Y-79756000D01*
X172283142Y-79816476D01*
X172343619Y-79937428D01*
X172343619Y-80058380D01*
X172283142Y-80239809D01*
X171557428Y-80965523D01*
X172343619Y-80965523D01*
X169744571Y-83378523D02*
X169321238Y-82773761D01*
X169018857Y-83378523D02*
X169018857Y-82108523D01*
X169502666Y-82108523D01*
X169623619Y-82169000D01*
X169684095Y-82229476D01*
X169744571Y-82350428D01*
X169744571Y-82531857D01*
X169684095Y-82652809D01*
X169623619Y-82713285D01*
X169502666Y-82773761D01*
X169018857Y-82773761D01*
X170228380Y-82229476D02*
X170288857Y-82169000D01*
X170409809Y-82108523D01*
X170712190Y-82108523D01*
X170833142Y-82169000D01*
X170893619Y-82229476D01*
X170954095Y-82350428D01*
X170954095Y-82471380D01*
X170893619Y-82652809D01*
X170167904Y-83378523D01*
X170954095Y-83378523D01*
X172163619Y-83378523D02*
X171437904Y-83378523D01*
X171800761Y-83378523D02*
X171800761Y-82108523D01*
X171679809Y-82289952D01*
X171558857Y-82410904D01*
X171437904Y-82471380D01*
X169924571Y-88839523D02*
X169501238Y-88234761D01*
X169198857Y-88839523D02*
X169198857Y-87569523D01*
X169682666Y-87569523D01*
X169803619Y-87630000D01*
X169864095Y-87690476D01*
X169924571Y-87811428D01*
X169924571Y-87992857D01*
X169864095Y-88113809D01*
X169803619Y-88174285D01*
X169682666Y-88234761D01*
X169198857Y-88234761D01*
X170408380Y-87690476D02*
X170468857Y-87630000D01*
X170589809Y-87569523D01*
X170892190Y-87569523D01*
X171013142Y-87630000D01*
X171073619Y-87690476D01*
X171134095Y-87811428D01*
X171134095Y-87932380D01*
X171073619Y-88113809D01*
X170347904Y-88839523D01*
X171134095Y-88839523D01*
X171920285Y-87569523D02*
X172041238Y-87569523D01*
X172162190Y-87630000D01*
X172222666Y-87690476D01*
X172283142Y-87811428D01*
X172343619Y-88053333D01*
X172343619Y-88355714D01*
X172283142Y-88597619D01*
X172222666Y-88718571D01*
X172162190Y-88779047D01*
X172041238Y-88839523D01*
X171920285Y-88839523D01*
X171799333Y-88779047D01*
X171738857Y-88718571D01*
X171678380Y-88597619D01*
X171617904Y-88355714D01*
X171617904Y-88053333D01*
X171678380Y-87811428D01*
X171738857Y-87690476D01*
X171799333Y-87630000D01*
X171920285Y-87569523D01*
X169945571Y-91252523D02*
X169522238Y-90647761D01*
X169219857Y-91252523D02*
X169219857Y-89982523D01*
X169703666Y-89982523D01*
X169824619Y-90043000D01*
X169885095Y-90103476D01*
X169945571Y-90224428D01*
X169945571Y-90405857D01*
X169885095Y-90526809D01*
X169824619Y-90587285D01*
X169703666Y-90647761D01*
X169219857Y-90647761D01*
X171155095Y-91252523D02*
X170429380Y-91252523D01*
X170792238Y-91252523D02*
X170792238Y-89982523D01*
X170671285Y-90163952D01*
X170550333Y-90284904D01*
X170429380Y-90345380D01*
X171759857Y-91252523D02*
X172001761Y-91252523D01*
X172122714Y-91192047D01*
X172183190Y-91131571D01*
X172304142Y-90950142D01*
X172364619Y-90708238D01*
X172364619Y-90224428D01*
X172304142Y-90103476D01*
X172243666Y-90043000D01*
X172122714Y-89982523D01*
X171880809Y-89982523D01*
X171759857Y-90043000D01*
X171699380Y-90103476D01*
X171638904Y-90224428D01*
X171638904Y-90526809D01*
X171699380Y-90647761D01*
X171759857Y-90708238D01*
X171880809Y-90768714D01*
X172122714Y-90768714D01*
X172243666Y-90708238D01*
X172304142Y-90647761D01*
X172364619Y-90526809D01*
X146749523Y-85576428D02*
X146144761Y-85999761D01*
X146749523Y-86302142D02*
X145479523Y-86302142D01*
X145479523Y-85818333D01*
X145540000Y-85697380D01*
X145600476Y-85636904D01*
X145721428Y-85576428D01*
X145902857Y-85576428D01*
X146023809Y-85636904D01*
X146084285Y-85697380D01*
X146144761Y-85818333D01*
X146144761Y-86302142D01*
X146749523Y-84366904D02*
X146749523Y-85092619D01*
X146749523Y-84729761D02*
X145479523Y-84729761D01*
X145660952Y-84850714D01*
X145781904Y-84971666D01*
X145842380Y-85092619D01*
X146023809Y-83641190D02*
X145963333Y-83762142D01*
X145902857Y-83822619D01*
X145781904Y-83883095D01*
X145721428Y-83883095D01*
X145600476Y-83822619D01*
X145540000Y-83762142D01*
X145479523Y-83641190D01*
X145479523Y-83399285D01*
X145540000Y-83278333D01*
X145600476Y-83217857D01*
X145721428Y-83157380D01*
X145781904Y-83157380D01*
X145902857Y-83217857D01*
X145963333Y-83278333D01*
X146023809Y-83399285D01*
X146023809Y-83641190D01*
X146084285Y-83762142D01*
X146144761Y-83822619D01*
X146265714Y-83883095D01*
X146507619Y-83883095D01*
X146628571Y-83822619D01*
X146689047Y-83762142D01*
X146749523Y-83641190D01*
X146749523Y-83399285D01*
X146689047Y-83278333D01*
X146628571Y-83217857D01*
X146507619Y-83157380D01*
X146265714Y-83157380D01*
X146144761Y-83217857D01*
X146084285Y-83278333D01*
X146023809Y-83399285D01*
X180285571Y-44008523D02*
X179862238Y-43403761D01*
X179559857Y-44008523D02*
X179559857Y-42738523D01*
X180043666Y-42738523D01*
X180164619Y-42799000D01*
X180225095Y-42859476D01*
X180285571Y-42980428D01*
X180285571Y-43161857D01*
X180225095Y-43282809D01*
X180164619Y-43343285D01*
X180043666Y-43403761D01*
X179559857Y-43403761D01*
X181495095Y-44008523D02*
X180769380Y-44008523D01*
X181132238Y-44008523D02*
X181132238Y-42738523D01*
X181011285Y-42919952D01*
X180890333Y-43040904D01*
X180769380Y-43101380D01*
X181918428Y-42738523D02*
X182704619Y-42738523D01*
X182281285Y-43222333D01*
X182462714Y-43222333D01*
X182583666Y-43282809D01*
X182644142Y-43343285D01*
X182704619Y-43464238D01*
X182704619Y-43766619D01*
X182644142Y-43887571D01*
X182583666Y-43948047D01*
X182462714Y-44008523D01*
X182099857Y-44008523D01*
X181978904Y-43948047D01*
X181918428Y-43887571D01*
X156463571Y-43754523D02*
X156040238Y-43149761D01*
X155737857Y-43754523D02*
X155737857Y-42484523D01*
X156221666Y-42484523D01*
X156342619Y-42545000D01*
X156403095Y-42605476D01*
X156463571Y-42726428D01*
X156463571Y-42907857D01*
X156403095Y-43028809D01*
X156342619Y-43089285D01*
X156221666Y-43149761D01*
X155737857Y-43149761D01*
X157673095Y-43754523D02*
X156947380Y-43754523D01*
X157310238Y-43754523D02*
X157310238Y-42484523D01*
X157189285Y-42665952D01*
X157068333Y-42786904D01*
X156947380Y-42847380D01*
X158156904Y-42605476D02*
X158217380Y-42545000D01*
X158338333Y-42484523D01*
X158640714Y-42484523D01*
X158761666Y-42545000D01*
X158822142Y-42605476D01*
X158882619Y-42726428D01*
X158882619Y-42847380D01*
X158822142Y-43028809D01*
X158096428Y-43754523D01*
X158882619Y-43754523D01*
X132714571Y-39802523D02*
X132291238Y-39197761D01*
X131988857Y-39802523D02*
X131988857Y-38532523D01*
X132472666Y-38532523D01*
X132593619Y-38593000D01*
X132654095Y-38653476D01*
X132714571Y-38774428D01*
X132714571Y-38955857D01*
X132654095Y-39076809D01*
X132593619Y-39137285D01*
X132472666Y-39197761D01*
X131988857Y-39197761D01*
X133924095Y-39802523D02*
X133198380Y-39802523D01*
X133561238Y-39802523D02*
X133561238Y-38532523D01*
X133440285Y-38713952D01*
X133319333Y-38834904D01*
X133198380Y-38895380D01*
X135133619Y-39802523D02*
X134407904Y-39802523D01*
X134770761Y-39802523D02*
X134770761Y-38532523D01*
X134649809Y-38713952D01*
X134528857Y-38834904D01*
X134407904Y-38895380D01*
X163902571Y-102809523D02*
X163479238Y-102204761D01*
X163176857Y-102809523D02*
X163176857Y-101539523D01*
X163660666Y-101539523D01*
X163781619Y-101600000D01*
X163842095Y-101660476D01*
X163902571Y-101781428D01*
X163902571Y-101962857D01*
X163842095Y-102083809D01*
X163781619Y-102144285D01*
X163660666Y-102204761D01*
X163176857Y-102204761D01*
X165112095Y-102809523D02*
X164386380Y-102809523D01*
X164749238Y-102809523D02*
X164749238Y-101539523D01*
X164628285Y-101720952D01*
X164507333Y-101841904D01*
X164386380Y-101902380D01*
X165898285Y-101539523D02*
X166019238Y-101539523D01*
X166140190Y-101600000D01*
X166200666Y-101660476D01*
X166261142Y-101781428D01*
X166321619Y-102023333D01*
X166321619Y-102325714D01*
X166261142Y-102567619D01*
X166200666Y-102688571D01*
X166140190Y-102749047D01*
X166019238Y-102809523D01*
X165898285Y-102809523D01*
X165777333Y-102749047D01*
X165716857Y-102688571D01*
X165656380Y-102567619D01*
X165595904Y-102325714D01*
X165595904Y-102023333D01*
X165656380Y-101781428D01*
X165716857Y-101660476D01*
X165777333Y-101600000D01*
X165898285Y-101539523D01*
X162804323Y-95461666D02*
X162199561Y-95885000D01*
X162804323Y-96187380D02*
X161534323Y-96187380D01*
X161534323Y-95703571D01*
X161594800Y-95582619D01*
X161655276Y-95522142D01*
X161776228Y-95461666D01*
X161957657Y-95461666D01*
X162078609Y-95522142D01*
X162139085Y-95582619D01*
X162199561Y-95703571D01*
X162199561Y-96187380D01*
X162804323Y-94856904D02*
X162804323Y-94615000D01*
X162743847Y-94494047D01*
X162683371Y-94433571D01*
X162501942Y-94312619D01*
X162260038Y-94252142D01*
X161776228Y-94252142D01*
X161655276Y-94312619D01*
X161594800Y-94373095D01*
X161534323Y-94494047D01*
X161534323Y-94735952D01*
X161594800Y-94856904D01*
X161655276Y-94917380D01*
X161776228Y-94977857D01*
X162078609Y-94977857D01*
X162199561Y-94917380D01*
X162260038Y-94856904D01*
X162320514Y-94735952D01*
X162320514Y-94494047D01*
X162260038Y-94373095D01*
X162199561Y-94312619D01*
X162078609Y-94252142D01*
X151152333Y-40668523D02*
X150729000Y-40063761D01*
X150426619Y-40668523D02*
X150426619Y-39398523D01*
X150910428Y-39398523D01*
X151031380Y-39459000D01*
X151091857Y-39519476D01*
X151152333Y-39640428D01*
X151152333Y-39821857D01*
X151091857Y-39942809D01*
X151031380Y-40003285D01*
X150910428Y-40063761D01*
X150426619Y-40063761D01*
X151878047Y-39942809D02*
X151757095Y-39882333D01*
X151696619Y-39821857D01*
X151636142Y-39700904D01*
X151636142Y-39640428D01*
X151696619Y-39519476D01*
X151757095Y-39459000D01*
X151878047Y-39398523D01*
X152119952Y-39398523D01*
X152240904Y-39459000D01*
X152301380Y-39519476D01*
X152361857Y-39640428D01*
X152361857Y-39700904D01*
X152301380Y-39821857D01*
X152240904Y-39882333D01*
X152119952Y-39942809D01*
X151878047Y-39942809D01*
X151757095Y-40003285D01*
X151696619Y-40063761D01*
X151636142Y-40184714D01*
X151636142Y-40426619D01*
X151696619Y-40547571D01*
X151757095Y-40608047D01*
X151878047Y-40668523D01*
X152119952Y-40668523D01*
X152240904Y-40608047D01*
X152301380Y-40547571D01*
X152361857Y-40426619D01*
X152361857Y-40184714D01*
X152301380Y-40063761D01*
X152240904Y-40003285D01*
X152119952Y-39942809D01*
X151152333Y-47564523D02*
X150729000Y-46959761D01*
X150426619Y-47564523D02*
X150426619Y-46294523D01*
X150910428Y-46294523D01*
X151031380Y-46355000D01*
X151091857Y-46415476D01*
X151152333Y-46536428D01*
X151152333Y-46717857D01*
X151091857Y-46838809D01*
X151031380Y-46899285D01*
X150910428Y-46959761D01*
X150426619Y-46959761D01*
X151575666Y-46294523D02*
X152422333Y-46294523D01*
X151878047Y-47564523D01*
X157816333Y-101071523D02*
X157393000Y-100466761D01*
X157090619Y-101071523D02*
X157090619Y-99801523D01*
X157574428Y-99801523D01*
X157695380Y-99862000D01*
X157755857Y-99922476D01*
X157816333Y-100043428D01*
X157816333Y-100224857D01*
X157755857Y-100345809D01*
X157695380Y-100406285D01*
X157574428Y-100466761D01*
X157090619Y-100466761D01*
X158904904Y-99801523D02*
X158663000Y-99801523D01*
X158542047Y-99862000D01*
X158481571Y-99922476D01*
X158360619Y-100103904D01*
X158300142Y-100345809D01*
X158300142Y-100829619D01*
X158360619Y-100950571D01*
X158421095Y-101011047D01*
X158542047Y-101071523D01*
X158783952Y-101071523D01*
X158904904Y-101011047D01*
X158965380Y-100950571D01*
X159025857Y-100829619D01*
X159025857Y-100527238D01*
X158965380Y-100406285D01*
X158904904Y-100345809D01*
X158783952Y-100285333D01*
X158542047Y-100285333D01*
X158421095Y-100345809D01*
X158360619Y-100406285D01*
X158300142Y-100527238D01*
X147318333Y-40860523D02*
X146895000Y-40255761D01*
X146592619Y-40860523D02*
X146592619Y-39590523D01*
X147076428Y-39590523D01*
X147197380Y-39651000D01*
X147257857Y-39711476D01*
X147318333Y-39832428D01*
X147318333Y-40013857D01*
X147257857Y-40134809D01*
X147197380Y-40195285D01*
X147076428Y-40255761D01*
X146592619Y-40255761D01*
X148467380Y-39590523D02*
X147862619Y-39590523D01*
X147802142Y-40195285D01*
X147862619Y-40134809D01*
X147983571Y-40074333D01*
X148285952Y-40074333D01*
X148406904Y-40134809D01*
X148467380Y-40195285D01*
X148527857Y-40316238D01*
X148527857Y-40618619D01*
X148467380Y-40739571D01*
X148406904Y-40800047D01*
X148285952Y-40860523D01*
X147983571Y-40860523D01*
X147862619Y-40800047D01*
X147802142Y-40739571D01*
X154718173Y-111151223D02*
X154294840Y-110546461D01*
X153992459Y-111151223D02*
X153992459Y-109881223D01*
X154476268Y-109881223D01*
X154597220Y-109941700D01*
X154657697Y-110002176D01*
X154718173Y-110123128D01*
X154718173Y-110304557D01*
X154657697Y-110425509D01*
X154597220Y-110485985D01*
X154476268Y-110546461D01*
X153992459Y-110546461D01*
X155806744Y-110304557D02*
X155806744Y-111151223D01*
X155504363Y-109820747D02*
X155201982Y-110727890D01*
X155988173Y-110727890D01*
X157316593Y-111096023D02*
X156893260Y-110491261D01*
X156590879Y-111096023D02*
X156590879Y-109826023D01*
X157074688Y-109826023D01*
X157195640Y-109886500D01*
X157256117Y-109946976D01*
X157316593Y-110067928D01*
X157316593Y-110249357D01*
X157256117Y-110370309D01*
X157195640Y-110430785D01*
X157074688Y-110491261D01*
X156590879Y-110491261D01*
X157739926Y-109826023D02*
X158526117Y-109826023D01*
X158102783Y-110309833D01*
X158284212Y-110309833D01*
X158405164Y-110370309D01*
X158465640Y-110430785D01*
X158526117Y-110551738D01*
X158526117Y-110854119D01*
X158465640Y-110975071D01*
X158405164Y-111035547D01*
X158284212Y-111096023D01*
X157921355Y-111096023D01*
X157800402Y-111035547D01*
X157739926Y-110975071D01*
X181838333Y-46256523D02*
X181415000Y-45651761D01*
X181112619Y-46256523D02*
X181112619Y-44986523D01*
X181596428Y-44986523D01*
X181717380Y-45047000D01*
X181777857Y-45107476D01*
X181838333Y-45228428D01*
X181838333Y-45409857D01*
X181777857Y-45530809D01*
X181717380Y-45591285D01*
X181596428Y-45651761D01*
X181112619Y-45651761D01*
X182322142Y-45107476D02*
X182382619Y-45047000D01*
X182503571Y-44986523D01*
X182805952Y-44986523D01*
X182926904Y-45047000D01*
X182987380Y-45107476D01*
X183047857Y-45228428D01*
X183047857Y-45349380D01*
X182987380Y-45530809D01*
X182261666Y-46256523D01*
X183047857Y-46256523D01*
X148286893Y-117670723D02*
X147863560Y-117065961D01*
X147561179Y-117670723D02*
X147561179Y-116400723D01*
X148044988Y-116400723D01*
X148165940Y-116461200D01*
X148226417Y-116521676D01*
X148286893Y-116642628D01*
X148286893Y-116824057D01*
X148226417Y-116945009D01*
X148165940Y-117005485D01*
X148044988Y-117065961D01*
X147561179Y-117065961D01*
X149496417Y-117670723D02*
X148770702Y-117670723D01*
X149133560Y-117670723D02*
X149133560Y-116400723D01*
X149012607Y-116582152D01*
X148891655Y-116703104D01*
X148770702Y-116763580D01*
D11*
X124800380Y-71317714D02*
X123800380Y-71317714D01*
X123800380Y-70936761D01*
X123848000Y-70841523D01*
X123895619Y-70793904D01*
X123990857Y-70746285D01*
X124133714Y-70746285D01*
X124228952Y-70793904D01*
X124276571Y-70841523D01*
X124324190Y-70936761D01*
X124324190Y-71317714D01*
X124800380Y-70174857D02*
X124752761Y-70270095D01*
X124705142Y-70317714D01*
X124609904Y-70365333D01*
X124324190Y-70365333D01*
X124228952Y-70317714D01*
X124181333Y-70270095D01*
X124133714Y-70174857D01*
X124133714Y-70032000D01*
X124181333Y-69936761D01*
X124228952Y-69889142D01*
X124324190Y-69841523D01*
X124609904Y-69841523D01*
X124705142Y-69889142D01*
X124752761Y-69936761D01*
X124800380Y-70032000D01*
X124800380Y-70174857D01*
X124800380Y-69412952D02*
X124133714Y-69412952D01*
X124324190Y-69412952D02*
X124228952Y-69365333D01*
X124181333Y-69317714D01*
X124133714Y-69222476D01*
X124133714Y-69127238D01*
X124133714Y-68936761D02*
X124133714Y-68555809D01*
X123800380Y-68793904D02*
X124657523Y-68793904D01*
X124752761Y-68746285D01*
X124800380Y-68651047D01*
X124800380Y-68555809D01*
X124276571Y-67889142D02*
X124324190Y-67746285D01*
X124371809Y-67698666D01*
X124467047Y-67651047D01*
X124609904Y-67651047D01*
X124705142Y-67698666D01*
X124752761Y-67746285D01*
X124800380Y-67841523D01*
X124800380Y-68222476D01*
X123800380Y-68222476D01*
X123800380Y-67889142D01*
X123848000Y-67793904D01*
X123895619Y-67746285D01*
X123990857Y-67698666D01*
X124086095Y-67698666D01*
X124181333Y-67746285D01*
X124228952Y-67793904D01*
X124276571Y-67889142D01*
X124276571Y-68222476D01*
X124800380Y-66698666D02*
X124800380Y-67270095D01*
X124800380Y-66984380D02*
X123800380Y-66984380D01*
X123943238Y-67079619D01*
X124038476Y-67174857D01*
X124086095Y-67270095D01*
X124800380Y-110362285D02*
X123800380Y-110362285D01*
X123800380Y-109981333D01*
X123848000Y-109886095D01*
X123895619Y-109838476D01*
X123990857Y-109790857D01*
X124133714Y-109790857D01*
X124228952Y-109838476D01*
X124276571Y-109886095D01*
X124324190Y-109981333D01*
X124324190Y-110362285D01*
X124800380Y-109219428D02*
X124752761Y-109314666D01*
X124705142Y-109362285D01*
X124609904Y-109409904D01*
X124324190Y-109409904D01*
X124228952Y-109362285D01*
X124181333Y-109314666D01*
X124133714Y-109219428D01*
X124133714Y-109076571D01*
X124181333Y-108981333D01*
X124228952Y-108933714D01*
X124324190Y-108886095D01*
X124609904Y-108886095D01*
X124705142Y-108933714D01*
X124752761Y-108981333D01*
X124800380Y-109076571D01*
X124800380Y-109219428D01*
X124800380Y-108457523D02*
X124133714Y-108457523D01*
X124324190Y-108457523D02*
X124228952Y-108409904D01*
X124181333Y-108362285D01*
X124133714Y-108267047D01*
X124133714Y-108171809D01*
X124133714Y-107981333D02*
X124133714Y-107600380D01*
X123800380Y-107838476D02*
X124657523Y-107838476D01*
X124752761Y-107790857D01*
X124800380Y-107695619D01*
X124800380Y-107600380D01*
X124514666Y-107314666D02*
X124514666Y-106838476D01*
X124800380Y-107409904D02*
X123800380Y-107076571D01*
X124800380Y-106743238D01*
X124800380Y-105886095D02*
X124800380Y-106457523D01*
X124800380Y-106171809D02*
X123800380Y-106171809D01*
X123943238Y-106267047D01*
X124038476Y-106362285D01*
X124086095Y-106457523D01*
D12*
X164422666Y-65852523D02*
X164422666Y-66759666D01*
X164362190Y-66941095D01*
X164241238Y-67062047D01*
X164059809Y-67122523D01*
X163938857Y-67122523D01*
X164906476Y-65852523D02*
X165692666Y-65852523D01*
X165269333Y-66336333D01*
X165450761Y-66336333D01*
X165571714Y-66396809D01*
X165632190Y-66457285D01*
X165692666Y-66578238D01*
X165692666Y-66880619D01*
X165632190Y-67001571D01*
X165571714Y-67062047D01*
X165450761Y-67122523D01*
X165087904Y-67122523D01*
X164966952Y-67062047D01*
X164906476Y-67001571D01*
X142070666Y-66868523D02*
X142070666Y-67775666D01*
X142010190Y-67957095D01*
X141889238Y-68078047D01*
X141707809Y-68138523D01*
X141586857Y-68138523D01*
X142614952Y-66989476D02*
X142675428Y-66929000D01*
X142796380Y-66868523D01*
X143098761Y-66868523D01*
X143219714Y-66929000D01*
X143280190Y-66989476D01*
X143340666Y-67110428D01*
X143340666Y-67231380D01*
X143280190Y-67412809D01*
X142554476Y-68138523D01*
X143340666Y-68138523D01*
D11*
X159821286Y-122919240D02*
X159821286Y-123633526D01*
X159773667Y-123776383D01*
X159678429Y-123871621D01*
X159535572Y-123919240D01*
X159440334Y-123919240D01*
X160821286Y-123919240D02*
X160249858Y-123919240D01*
X160535572Y-123919240D02*
X160535572Y-122919240D01*
X160440334Y-123062098D01*
X160345096Y-123157336D01*
X160249858Y-123204955D01*
D12*
X130840238Y-93538523D02*
X130840238Y-92268523D01*
X132170714Y-93417571D02*
X132110238Y-93478047D01*
X131928809Y-93538523D01*
X131807857Y-93538523D01*
X131626428Y-93478047D01*
X131505476Y-93357095D01*
X131445000Y-93236142D01*
X131384523Y-92994238D01*
X131384523Y-92812809D01*
X131445000Y-92570904D01*
X131505476Y-92449952D01*
X131626428Y-92329000D01*
X131807857Y-92268523D01*
X131928809Y-92268523D01*
X132110238Y-92329000D01*
X132170714Y-92389476D01*
X132594047Y-92268523D02*
X133440714Y-92268523D01*
X132896428Y-93538523D01*
X180370238Y-95849523D02*
X180370238Y-94579523D01*
X181700714Y-95728571D02*
X181640238Y-95789047D01*
X181458809Y-95849523D01*
X181337857Y-95849523D01*
X181156428Y-95789047D01*
X181035476Y-95668095D01*
X180975000Y-95547142D01*
X180914523Y-95305238D01*
X180914523Y-95123809D01*
X180975000Y-94881904D01*
X181035476Y-94760952D01*
X181156428Y-94640000D01*
X181337857Y-94579523D01*
X181458809Y-94579523D01*
X181640238Y-94640000D01*
X181700714Y-94700476D01*
X182789285Y-94579523D02*
X182547380Y-94579523D01*
X182426428Y-94640000D01*
X182365952Y-94700476D01*
X182245000Y-94881904D01*
X182184523Y-95123809D01*
X182184523Y-95607619D01*
X182245000Y-95728571D01*
X182305476Y-95789047D01*
X182426428Y-95849523D01*
X182668333Y-95849523D01*
X182789285Y-95789047D01*
X182849761Y-95728571D01*
X182910238Y-95607619D01*
X182910238Y-95305238D01*
X182849761Y-95184285D01*
X182789285Y-95123809D01*
X182668333Y-95063333D01*
X182426428Y-95063333D01*
X182305476Y-95123809D01*
X182245000Y-95184285D01*
X182184523Y-95305238D01*
X153700238Y-86426523D02*
X153700238Y-85156523D01*
X155030714Y-86305571D02*
X154970238Y-86366047D01*
X154788809Y-86426523D01*
X154667857Y-86426523D01*
X154486428Y-86366047D01*
X154365476Y-86245095D01*
X154305000Y-86124142D01*
X154244523Y-85882238D01*
X154244523Y-85700809D01*
X154305000Y-85458904D01*
X154365476Y-85337952D01*
X154486428Y-85217000D01*
X154667857Y-85156523D01*
X154788809Y-85156523D01*
X154970238Y-85217000D01*
X155030714Y-85277476D01*
X156179761Y-85156523D02*
X155575000Y-85156523D01*
X155514523Y-85761285D01*
X155575000Y-85700809D01*
X155695952Y-85640333D01*
X155998333Y-85640333D01*
X156119285Y-85700809D01*
X156179761Y-85761285D01*
X156240238Y-85882238D01*
X156240238Y-86184619D01*
X156179761Y-86305571D01*
X156119285Y-86366047D01*
X155998333Y-86426523D01*
X155695952Y-86426523D01*
X155575000Y-86366047D01*
X155514523Y-86305571D01*
X133082238Y-47972523D02*
X133082238Y-46702523D01*
X134412714Y-47851571D02*
X134352238Y-47912047D01*
X134170809Y-47972523D01*
X134049857Y-47972523D01*
X133868428Y-47912047D01*
X133747476Y-47791095D01*
X133687000Y-47670142D01*
X133626523Y-47428238D01*
X133626523Y-47246809D01*
X133687000Y-47004904D01*
X133747476Y-46883952D01*
X133868428Y-46763000D01*
X134049857Y-46702523D01*
X134170809Y-46702523D01*
X134352238Y-46763000D01*
X134412714Y-46823476D01*
X135501285Y-47125857D02*
X135501285Y-47972523D01*
X135198904Y-46642047D02*
X134896523Y-47549190D01*
X135682714Y-47549190D01*
X175500238Y-52544523D02*
X175500238Y-51274523D01*
X176830714Y-52423571D02*
X176770238Y-52484047D01*
X176588809Y-52544523D01*
X176467857Y-52544523D01*
X176286428Y-52484047D01*
X176165476Y-52363095D01*
X176105000Y-52242142D01*
X176044523Y-52000238D01*
X176044523Y-51818809D01*
X176105000Y-51576904D01*
X176165476Y-51455952D01*
X176286428Y-51335000D01*
X176467857Y-51274523D01*
X176588809Y-51274523D01*
X176770238Y-51335000D01*
X176830714Y-51395476D01*
X177254047Y-51274523D02*
X178040238Y-51274523D01*
X177616904Y-51758333D01*
X177798333Y-51758333D01*
X177919285Y-51818809D01*
X177979761Y-51879285D01*
X178040238Y-52000238D01*
X178040238Y-52302619D01*
X177979761Y-52423571D01*
X177919285Y-52484047D01*
X177798333Y-52544523D01*
X177435476Y-52544523D01*
X177314523Y-52484047D01*
X177254047Y-52423571D01*
X154824238Y-52036523D02*
X154824238Y-50766523D01*
X156154714Y-51915571D02*
X156094238Y-51976047D01*
X155912809Y-52036523D01*
X155791857Y-52036523D01*
X155610428Y-51976047D01*
X155489476Y-51855095D01*
X155429000Y-51734142D01*
X155368523Y-51492238D01*
X155368523Y-51310809D01*
X155429000Y-51068904D01*
X155489476Y-50947952D01*
X155610428Y-50827000D01*
X155791857Y-50766523D01*
X155912809Y-50766523D01*
X156094238Y-50827000D01*
X156154714Y-50887476D01*
X156638523Y-50887476D02*
X156699000Y-50827000D01*
X156819952Y-50766523D01*
X157122333Y-50766523D01*
X157243285Y-50827000D01*
X157303761Y-50887476D01*
X157364238Y-51008428D01*
X157364238Y-51129380D01*
X157303761Y-51310809D01*
X156578047Y-52036523D01*
X157364238Y-52036523D01*
X162082238Y-118303523D02*
X162082238Y-117033523D01*
X163412714Y-118182571D02*
X163352238Y-118243047D01*
X163170809Y-118303523D01*
X163049857Y-118303523D01*
X162868428Y-118243047D01*
X162747476Y-118122095D01*
X162687000Y-118001142D01*
X162626523Y-117759238D01*
X162626523Y-117577809D01*
X162687000Y-117335904D01*
X162747476Y-117214952D01*
X162868428Y-117094000D01*
X163049857Y-117033523D01*
X163170809Y-117033523D01*
X163352238Y-117094000D01*
X163412714Y-117154476D01*
X164622238Y-118303523D02*
X163896523Y-118303523D01*
X164259380Y-118303523D02*
X164259380Y-117033523D01*
X164138428Y-117214952D01*
X164017476Y-117335904D01*
X163896523Y-117396380D01*
X179292095Y-39590523D02*
X178687333Y-39590523D01*
X178687333Y-38320523D01*
X179715428Y-39590523D02*
X179715428Y-38320523D01*
X180017809Y-38320523D01*
X180199238Y-38381000D01*
X180320190Y-38501952D01*
X180380666Y-38622904D01*
X180441142Y-38864809D01*
X180441142Y-39046238D01*
X180380666Y-39288142D01*
X180320190Y-39409095D01*
X180199238Y-39530047D01*
X180017809Y-39590523D01*
X179715428Y-39590523D01*
X181227333Y-38320523D02*
X181469238Y-38320523D01*
X181590190Y-38381000D01*
X181711142Y-38501952D01*
X181771619Y-38743857D01*
X181771619Y-39167190D01*
X181711142Y-39409095D01*
X181590190Y-39530047D01*
X181469238Y-39590523D01*
X181227333Y-39590523D01*
X181106380Y-39530047D01*
X180985428Y-39409095D01*
X180924952Y-39167190D01*
X180924952Y-38743857D01*
X180985428Y-38501952D01*
X181106380Y-38381000D01*
X181227333Y-38320523D01*
X182981142Y-39590523D02*
X182255428Y-39590523D01*
X182618285Y-39590523D02*
X182618285Y-38320523D01*
X182497333Y-38501952D01*
X182376380Y-38622904D01*
X182255428Y-38683380D01*
X154849285Y-38771285D02*
X155030714Y-38831761D01*
X155091190Y-38892238D01*
X155151666Y-39013190D01*
X155151666Y-39194619D01*
X155091190Y-39315571D01*
X155030714Y-39376047D01*
X154909761Y-39436523D01*
X154425952Y-39436523D01*
X154425952Y-38166523D01*
X154849285Y-38166523D01*
X154970238Y-38227000D01*
X155030714Y-38287476D01*
X155091190Y-38408428D01*
X155091190Y-38529380D01*
X155030714Y-38650333D01*
X154970238Y-38710809D01*
X154849285Y-38771285D01*
X154425952Y-38771285D01*
X156240238Y-38589857D02*
X156240238Y-39436523D01*
X155695952Y-38589857D02*
X155695952Y-39255095D01*
X155756428Y-39376047D01*
X155877380Y-39436523D01*
X156058809Y-39436523D01*
X156179761Y-39376047D01*
X156240238Y-39315571D01*
X157389285Y-39376047D02*
X157268333Y-39436523D01*
X157026428Y-39436523D01*
X156905476Y-39376047D01*
X156845000Y-39315571D01*
X156784523Y-39194619D01*
X156784523Y-38831761D01*
X156845000Y-38710809D01*
X156905476Y-38650333D01*
X157026428Y-38589857D01*
X157268333Y-38589857D01*
X157389285Y-38650333D01*
X157933571Y-39436523D02*
X157933571Y-38166523D01*
X158054523Y-38952714D02*
X158417380Y-39436523D01*
X158417380Y-38589857D02*
X157933571Y-39073666D01*
X158659285Y-39557476D02*
X159626904Y-39557476D01*
X159868809Y-38287476D02*
X159929285Y-38227000D01*
X160050238Y-38166523D01*
X160352619Y-38166523D01*
X160473571Y-38227000D01*
X160534047Y-38287476D01*
X160594523Y-38408428D01*
X160594523Y-38529380D01*
X160534047Y-38710809D01*
X159808333Y-39436523D01*
X160594523Y-39436523D01*
X130973285Y-38771285D02*
X131154714Y-38831761D01*
X131215190Y-38892238D01*
X131275666Y-39013190D01*
X131275666Y-39194619D01*
X131215190Y-39315571D01*
X131154714Y-39376047D01*
X131033761Y-39436523D01*
X130549952Y-39436523D01*
X130549952Y-38166523D01*
X130973285Y-38166523D01*
X131094238Y-38227000D01*
X131154714Y-38287476D01*
X131215190Y-38408428D01*
X131215190Y-38529380D01*
X131154714Y-38650333D01*
X131094238Y-38710809D01*
X130973285Y-38771285D01*
X130549952Y-38771285D01*
X132364238Y-38589857D02*
X132364238Y-39436523D01*
X131819952Y-38589857D02*
X131819952Y-39255095D01*
X131880428Y-39376047D01*
X132001380Y-39436523D01*
X132182809Y-39436523D01*
X132303761Y-39376047D01*
X132364238Y-39315571D01*
X133513285Y-39376047D02*
X133392333Y-39436523D01*
X133150428Y-39436523D01*
X133029476Y-39376047D01*
X132969000Y-39315571D01*
X132908523Y-39194619D01*
X132908523Y-38831761D01*
X132969000Y-38710809D01*
X133029476Y-38650333D01*
X133150428Y-38589857D01*
X133392333Y-38589857D01*
X133513285Y-38650333D01*
X134057571Y-39436523D02*
X134057571Y-38166523D01*
X134178523Y-38952714D02*
X134541380Y-39436523D01*
X134541380Y-38589857D02*
X134057571Y-39073666D01*
X134783285Y-39557476D02*
X135750904Y-39557476D01*
X136718523Y-39436523D02*
X135992809Y-39436523D01*
X136355666Y-39436523D02*
X136355666Y-38166523D01*
X136234714Y-38347952D01*
X136113761Y-38468904D01*
X135992809Y-38529380D01*
X159556619Y-56922523D02*
X159556619Y-55652523D01*
X159859000Y-55652523D01*
X160040428Y-55713000D01*
X160161380Y-55833952D01*
X160221857Y-55954904D01*
X160282333Y-56196809D01*
X160282333Y-56378238D01*
X160221857Y-56620142D01*
X160161380Y-56741095D01*
X160040428Y-56862047D01*
X159859000Y-56922523D01*
X159556619Y-56922523D01*
X160766142Y-55773476D02*
X160826619Y-55713000D01*
X160947571Y-55652523D01*
X161249952Y-55652523D01*
X161370904Y-55713000D01*
X161431380Y-55773476D01*
X161491857Y-55894428D01*
X161491857Y-56015380D01*
X161431380Y-56196809D01*
X160705666Y-56922523D01*
X161491857Y-56922523D01*
X161578619Y-43400523D02*
X161578619Y-42130523D01*
X161881000Y-42130523D01*
X162062428Y-42191000D01*
X162183380Y-42311952D01*
X162243857Y-42432904D01*
X162304333Y-42674809D01*
X162304333Y-42856238D01*
X162243857Y-43098142D01*
X162183380Y-43219095D01*
X162062428Y-43340047D01*
X161881000Y-43400523D01*
X161578619Y-43400523D01*
X163513857Y-43400523D02*
X162788142Y-43400523D01*
X163151000Y-43400523D02*
X163151000Y-42130523D01*
X163030047Y-42311952D01*
X162909095Y-42432904D01*
X162788142Y-42493380D01*
X120341571Y-86051571D02*
X120281095Y-86112047D01*
X120099666Y-86172523D01*
X119978714Y-86172523D01*
X119797285Y-86112047D01*
X119676333Y-85991095D01*
X119615857Y-85870142D01*
X119555380Y-85628238D01*
X119555380Y-85446809D01*
X119615857Y-85204904D01*
X119676333Y-85083952D01*
X119797285Y-84963000D01*
X119978714Y-84902523D01*
X120099666Y-84902523D01*
X120281095Y-84963000D01*
X120341571Y-85023476D01*
X120825380Y-85023476D02*
X120885857Y-84963000D01*
X121006809Y-84902523D01*
X121309190Y-84902523D01*
X121430142Y-84963000D01*
X121490619Y-85023476D01*
X121551095Y-85144428D01*
X121551095Y-85265380D01*
X121490619Y-85446809D01*
X120764904Y-86172523D01*
X121551095Y-86172523D01*
X122639666Y-84902523D02*
X122397761Y-84902523D01*
X122276809Y-84963000D01*
X122216333Y-85023476D01*
X122095380Y-85204904D01*
X122034904Y-85446809D01*
X122034904Y-85930619D01*
X122095380Y-86051571D01*
X122155857Y-86112047D01*
X122276809Y-86172523D01*
X122518714Y-86172523D01*
X122639666Y-86112047D01*
X122700142Y-86051571D01*
X122760619Y-85930619D01*
X122760619Y-85628238D01*
X122700142Y-85507285D01*
X122639666Y-85446809D01*
X122518714Y-85386333D01*
X122276809Y-85386333D01*
X122155857Y-85446809D01*
X122095380Y-85507285D01*
X122034904Y-85628238D01*
X120341571Y-92401571D02*
X120281095Y-92462047D01*
X120099666Y-92522523D01*
X119978714Y-92522523D01*
X119797285Y-92462047D01*
X119676333Y-92341095D01*
X119615857Y-92220142D01*
X119555380Y-91978238D01*
X119555380Y-91796809D01*
X119615857Y-91554904D01*
X119676333Y-91433952D01*
X119797285Y-91313000D01*
X119978714Y-91252523D01*
X120099666Y-91252523D01*
X120281095Y-91313000D01*
X120341571Y-91373476D01*
X120825380Y-91373476D02*
X120885857Y-91313000D01*
X121006809Y-91252523D01*
X121309190Y-91252523D01*
X121430142Y-91313000D01*
X121490619Y-91373476D01*
X121551095Y-91494428D01*
X121551095Y-91615380D01*
X121490619Y-91796809D01*
X120764904Y-92522523D01*
X121551095Y-92522523D01*
X122700142Y-91252523D02*
X122095380Y-91252523D01*
X122034904Y-91857285D01*
X122095380Y-91796809D01*
X122216333Y-91736333D01*
X122518714Y-91736333D01*
X122639666Y-91796809D01*
X122700142Y-91857285D01*
X122760619Y-91978238D01*
X122760619Y-92280619D01*
X122700142Y-92401571D01*
X122639666Y-92462047D01*
X122518714Y-92522523D01*
X122216333Y-92522523D01*
X122095380Y-92462047D01*
X122034904Y-92401571D01*
X166442571Y-78812571D02*
X166382095Y-78873047D01*
X166200666Y-78933523D01*
X166079714Y-78933523D01*
X165898285Y-78873047D01*
X165777333Y-78752095D01*
X165716857Y-78631142D01*
X165656380Y-78389238D01*
X165656380Y-78207809D01*
X165716857Y-77965904D01*
X165777333Y-77844952D01*
X165898285Y-77724000D01*
X166079714Y-77663523D01*
X166200666Y-77663523D01*
X166382095Y-77724000D01*
X166442571Y-77784476D01*
X166926380Y-77784476D02*
X166986857Y-77724000D01*
X167107809Y-77663523D01*
X167410190Y-77663523D01*
X167531142Y-77724000D01*
X167591619Y-77784476D01*
X167652095Y-77905428D01*
X167652095Y-78026380D01*
X167591619Y-78207809D01*
X166865904Y-78933523D01*
X167652095Y-78933523D01*
X168740666Y-78086857D02*
X168740666Y-78933523D01*
X168438285Y-77603047D02*
X168135904Y-78510190D01*
X168922095Y-78510190D01*
X165299571Y-86813571D02*
X165239095Y-86874047D01*
X165057666Y-86934523D01*
X164936714Y-86934523D01*
X164755285Y-86874047D01*
X164634333Y-86753095D01*
X164573857Y-86632142D01*
X164513380Y-86390238D01*
X164513380Y-86208809D01*
X164573857Y-85966904D01*
X164634333Y-85845952D01*
X164755285Y-85725000D01*
X164936714Y-85664523D01*
X165057666Y-85664523D01*
X165239095Y-85725000D01*
X165299571Y-85785476D01*
X165783380Y-85785476D02*
X165843857Y-85725000D01*
X165964809Y-85664523D01*
X166267190Y-85664523D01*
X166388142Y-85725000D01*
X166448619Y-85785476D01*
X166509095Y-85906428D01*
X166509095Y-86027380D01*
X166448619Y-86208809D01*
X165722904Y-86934523D01*
X166509095Y-86934523D01*
X166932428Y-85664523D02*
X167718619Y-85664523D01*
X167295285Y-86148333D01*
X167476714Y-86148333D01*
X167597666Y-86208809D01*
X167658142Y-86269285D01*
X167718619Y-86390238D01*
X167718619Y-86692619D01*
X167658142Y-86813571D01*
X167597666Y-86874047D01*
X167476714Y-86934523D01*
X167113857Y-86934523D01*
X166992904Y-86874047D01*
X166932428Y-86813571D01*
X165299571Y-85289571D02*
X165239095Y-85350047D01*
X165057666Y-85410523D01*
X164936714Y-85410523D01*
X164755285Y-85350047D01*
X164634333Y-85229095D01*
X164573857Y-85108142D01*
X164513380Y-84866238D01*
X164513380Y-84684809D01*
X164573857Y-84442904D01*
X164634333Y-84321952D01*
X164755285Y-84201000D01*
X164936714Y-84140523D01*
X165057666Y-84140523D01*
X165239095Y-84201000D01*
X165299571Y-84261476D01*
X165783380Y-84261476D02*
X165843857Y-84201000D01*
X165964809Y-84140523D01*
X166267190Y-84140523D01*
X166388142Y-84201000D01*
X166448619Y-84261476D01*
X166509095Y-84382428D01*
X166509095Y-84503380D01*
X166448619Y-84684809D01*
X165722904Y-85410523D01*
X166509095Y-85410523D01*
X166992904Y-84261476D02*
X167053380Y-84201000D01*
X167174333Y-84140523D01*
X167476714Y-84140523D01*
X167597666Y-84201000D01*
X167658142Y-84261476D01*
X167718619Y-84382428D01*
X167718619Y-84503380D01*
X167658142Y-84684809D01*
X166932428Y-85410523D01*
X167718619Y-85410523D01*
X163064371Y-93392171D02*
X163003895Y-93452647D01*
X162822466Y-93513123D01*
X162701514Y-93513123D01*
X162520085Y-93452647D01*
X162399133Y-93331695D01*
X162338657Y-93210742D01*
X162278180Y-92968838D01*
X162278180Y-92787409D01*
X162338657Y-92545504D01*
X162399133Y-92424552D01*
X162520085Y-92303600D01*
X162701514Y-92243123D01*
X162822466Y-92243123D01*
X163003895Y-92303600D01*
X163064371Y-92364076D01*
X163548180Y-92364076D02*
X163608657Y-92303600D01*
X163729609Y-92243123D01*
X164031990Y-92243123D01*
X164152942Y-92303600D01*
X164213419Y-92364076D01*
X164273895Y-92485028D01*
X164273895Y-92605980D01*
X164213419Y-92787409D01*
X163487704Y-93513123D01*
X164273895Y-93513123D01*
X165483419Y-93513123D02*
X164757704Y-93513123D01*
X165120561Y-93513123D02*
X165120561Y-92243123D01*
X164999609Y-92424552D01*
X164878657Y-92545504D01*
X164757704Y-92605980D01*
X151693071Y-84191928D02*
X151753547Y-84252404D01*
X151814023Y-84433833D01*
X151814023Y-84554785D01*
X151753547Y-84736214D01*
X151632595Y-84857166D01*
X151511642Y-84917642D01*
X151269738Y-84978119D01*
X151088309Y-84978119D01*
X150846404Y-84917642D01*
X150725452Y-84857166D01*
X150604500Y-84736214D01*
X150544023Y-84554785D01*
X150544023Y-84433833D01*
X150604500Y-84252404D01*
X150664976Y-84191928D01*
X150664976Y-83708119D02*
X150604500Y-83647642D01*
X150544023Y-83526690D01*
X150544023Y-83224309D01*
X150604500Y-83103357D01*
X150664976Y-83042880D01*
X150785928Y-82982404D01*
X150906880Y-82982404D01*
X151088309Y-83042880D01*
X151814023Y-83768595D01*
X151814023Y-82982404D01*
X150544023Y-82196214D02*
X150544023Y-82075261D01*
X150604500Y-81954309D01*
X150664976Y-81893833D01*
X150785928Y-81833357D01*
X151027833Y-81772880D01*
X151330214Y-81772880D01*
X151572119Y-81833357D01*
X151693071Y-81893833D01*
X151753547Y-81954309D01*
X151814023Y-82075261D01*
X151814023Y-82196214D01*
X151753547Y-82317166D01*
X151693071Y-82377642D01*
X151572119Y-82438119D01*
X151330214Y-82498595D01*
X151027833Y-82498595D01*
X150785928Y-82438119D01*
X150664976Y-82377642D01*
X150604500Y-82317166D01*
X150544023Y-82196214D01*
X146694071Y-89589428D02*
X146754547Y-89649904D01*
X146815023Y-89831333D01*
X146815023Y-89952285D01*
X146754547Y-90133714D01*
X146633595Y-90254666D01*
X146512642Y-90315142D01*
X146270738Y-90375619D01*
X146089309Y-90375619D01*
X145847404Y-90315142D01*
X145726452Y-90254666D01*
X145605500Y-90133714D01*
X145545023Y-89952285D01*
X145545023Y-89831333D01*
X145605500Y-89649904D01*
X145665976Y-89589428D01*
X146815023Y-88379904D02*
X146815023Y-89105619D01*
X146815023Y-88742761D02*
X145545023Y-88742761D01*
X145726452Y-88863714D01*
X145847404Y-88984666D01*
X145907880Y-89105619D01*
X146815023Y-87775142D02*
X146815023Y-87533238D01*
X146754547Y-87412285D01*
X146694071Y-87351809D01*
X146512642Y-87230857D01*
X146270738Y-87170380D01*
X145786928Y-87170380D01*
X145665976Y-87230857D01*
X145605500Y-87291333D01*
X145545023Y-87412285D01*
X145545023Y-87654190D01*
X145605500Y-87775142D01*
X145665976Y-87835619D01*
X145786928Y-87896095D01*
X146089309Y-87896095D01*
X146210261Y-87835619D01*
X146270738Y-87775142D01*
X146331214Y-87654190D01*
X146331214Y-87412285D01*
X146270738Y-87291333D01*
X146210261Y-87230857D01*
X146089309Y-87170380D01*
X158949571Y-92401571D02*
X158889095Y-92462047D01*
X158707666Y-92522523D01*
X158586714Y-92522523D01*
X158405285Y-92462047D01*
X158284333Y-92341095D01*
X158223857Y-92220142D01*
X158163380Y-91978238D01*
X158163380Y-91796809D01*
X158223857Y-91554904D01*
X158284333Y-91433952D01*
X158405285Y-91313000D01*
X158586714Y-91252523D01*
X158707666Y-91252523D01*
X158889095Y-91313000D01*
X158949571Y-91373476D01*
X160159095Y-92522523D02*
X159433380Y-92522523D01*
X159796238Y-92522523D02*
X159796238Y-91252523D01*
X159675285Y-91433952D01*
X159554333Y-91554904D01*
X159433380Y-91615380D01*
X160884809Y-91796809D02*
X160763857Y-91736333D01*
X160703380Y-91675857D01*
X160642904Y-91554904D01*
X160642904Y-91494428D01*
X160703380Y-91373476D01*
X160763857Y-91313000D01*
X160884809Y-91252523D01*
X161126714Y-91252523D01*
X161247666Y-91313000D01*
X161308142Y-91373476D01*
X161368619Y-91494428D01*
X161368619Y-91554904D01*
X161308142Y-91675857D01*
X161247666Y-91736333D01*
X161126714Y-91796809D01*
X160884809Y-91796809D01*
X160763857Y-91857285D01*
X160703380Y-91917761D01*
X160642904Y-92038714D01*
X160642904Y-92280619D01*
X160703380Y-92401571D01*
X160763857Y-92462047D01*
X160884809Y-92522523D01*
X161126714Y-92522523D01*
X161247666Y-92462047D01*
X161308142Y-92401571D01*
X161368619Y-92280619D01*
X161368619Y-92038714D01*
X161308142Y-91917761D01*
X161247666Y-91857285D01*
X161126714Y-91796809D01*
X142185571Y-76653571D02*
X142125095Y-76714047D01*
X141943666Y-76774523D01*
X141822714Y-76774523D01*
X141641285Y-76714047D01*
X141520333Y-76593095D01*
X141459857Y-76472142D01*
X141399380Y-76230238D01*
X141399380Y-76048809D01*
X141459857Y-75806904D01*
X141520333Y-75685952D01*
X141641285Y-75565000D01*
X141822714Y-75504523D01*
X141943666Y-75504523D01*
X142125095Y-75565000D01*
X142185571Y-75625476D01*
X143395095Y-76774523D02*
X142669380Y-76774523D01*
X143032238Y-76774523D02*
X143032238Y-75504523D01*
X142911285Y-75685952D01*
X142790333Y-75806904D01*
X142669380Y-75867380D01*
X143818428Y-75504523D02*
X144665095Y-75504523D01*
X144120809Y-76774523D01*
X163394571Y-104593571D02*
X163334095Y-104654047D01*
X163152666Y-104714523D01*
X163031714Y-104714523D01*
X162850285Y-104654047D01*
X162729333Y-104533095D01*
X162668857Y-104412142D01*
X162608380Y-104170238D01*
X162608380Y-103988809D01*
X162668857Y-103746904D01*
X162729333Y-103625952D01*
X162850285Y-103505000D01*
X163031714Y-103444523D01*
X163152666Y-103444523D01*
X163334095Y-103505000D01*
X163394571Y-103565476D01*
X164604095Y-104714523D02*
X163878380Y-104714523D01*
X164241238Y-104714523D02*
X164241238Y-103444523D01*
X164120285Y-103625952D01*
X163999333Y-103746904D01*
X163878380Y-103807380D01*
X165692666Y-103444523D02*
X165450761Y-103444523D01*
X165329809Y-103505000D01*
X165269333Y-103565476D01*
X165148380Y-103746904D01*
X165087904Y-103988809D01*
X165087904Y-104472619D01*
X165148380Y-104593571D01*
X165208857Y-104654047D01*
X165329809Y-104714523D01*
X165571714Y-104714523D01*
X165692666Y-104654047D01*
X165753142Y-104593571D01*
X165813619Y-104472619D01*
X165813619Y-104170238D01*
X165753142Y-104049285D01*
X165692666Y-103988809D01*
X165571714Y-103928333D01*
X165329809Y-103928333D01*
X165208857Y-103988809D01*
X165148380Y-104049285D01*
X165087904Y-104170238D01*
X157171571Y-98751571D02*
X157111095Y-98812047D01*
X156929666Y-98872523D01*
X156808714Y-98872523D01*
X156627285Y-98812047D01*
X156506333Y-98691095D01*
X156445857Y-98570142D01*
X156385380Y-98328238D01*
X156385380Y-98146809D01*
X156445857Y-97904904D01*
X156506333Y-97783952D01*
X156627285Y-97663000D01*
X156808714Y-97602523D01*
X156929666Y-97602523D01*
X157111095Y-97663000D01*
X157171571Y-97723476D01*
X158381095Y-98872523D02*
X157655380Y-98872523D01*
X158018238Y-98872523D02*
X158018238Y-97602523D01*
X157897285Y-97783952D01*
X157776333Y-97904904D01*
X157655380Y-97965380D01*
X159530142Y-97602523D02*
X158925380Y-97602523D01*
X158864904Y-98207285D01*
X158925380Y-98146809D01*
X159046333Y-98086333D01*
X159348714Y-98086333D01*
X159469666Y-98146809D01*
X159530142Y-98207285D01*
X159590619Y-98328238D01*
X159590619Y-98630619D01*
X159530142Y-98751571D01*
X159469666Y-98812047D01*
X159348714Y-98872523D01*
X159046333Y-98872523D01*
X158925380Y-98812047D01*
X158864904Y-98751571D01*
X165341571Y-99492428D02*
X165402047Y-99552904D01*
X165462523Y-99734333D01*
X165462523Y-99855285D01*
X165402047Y-100036714D01*
X165281095Y-100157666D01*
X165160142Y-100218142D01*
X164918238Y-100278619D01*
X164736809Y-100278619D01*
X164494904Y-100218142D01*
X164373952Y-100157666D01*
X164253000Y-100036714D01*
X164192523Y-99855285D01*
X164192523Y-99734333D01*
X164253000Y-99552904D01*
X164313476Y-99492428D01*
X165462523Y-98282904D02*
X165462523Y-99008619D01*
X165462523Y-98645761D02*
X164192523Y-98645761D01*
X164373952Y-98766714D01*
X164494904Y-98887666D01*
X164555380Y-99008619D01*
X164615857Y-97194333D02*
X165462523Y-97194333D01*
X164132047Y-97496714D02*
X165039190Y-97799095D01*
X165039190Y-97012904D01*
X163477571Y-50391571D02*
X163417095Y-50452047D01*
X163235666Y-50512523D01*
X163114714Y-50512523D01*
X162933285Y-50452047D01*
X162812333Y-50331095D01*
X162751857Y-50210142D01*
X162691380Y-49968238D01*
X162691380Y-49786809D01*
X162751857Y-49544904D01*
X162812333Y-49423952D01*
X162933285Y-49303000D01*
X163114714Y-49242523D01*
X163235666Y-49242523D01*
X163417095Y-49303000D01*
X163477571Y-49363476D01*
X164687095Y-50512523D02*
X163961380Y-50512523D01*
X164324238Y-50512523D02*
X164324238Y-49242523D01*
X164203285Y-49423952D01*
X164082333Y-49544904D01*
X163961380Y-49605380D01*
X165110428Y-49242523D02*
X165896619Y-49242523D01*
X165473285Y-49726333D01*
X165654714Y-49726333D01*
X165775666Y-49786809D01*
X165836142Y-49847285D01*
X165896619Y-49968238D01*
X165896619Y-50270619D01*
X165836142Y-50391571D01*
X165775666Y-50452047D01*
X165654714Y-50512523D01*
X165291857Y-50512523D01*
X165170904Y-50452047D01*
X165110428Y-50391571D01*
X163521571Y-110943571D02*
X163461095Y-111004047D01*
X163279666Y-111064523D01*
X163158714Y-111064523D01*
X162977285Y-111004047D01*
X162856333Y-110883095D01*
X162795857Y-110762142D01*
X162735380Y-110520238D01*
X162735380Y-110338809D01*
X162795857Y-110096904D01*
X162856333Y-109975952D01*
X162977285Y-109855000D01*
X163158714Y-109794523D01*
X163279666Y-109794523D01*
X163461095Y-109855000D01*
X163521571Y-109915476D01*
X164731095Y-111064523D02*
X164005380Y-111064523D01*
X164368238Y-111064523D02*
X164368238Y-109794523D01*
X164247285Y-109975952D01*
X164126333Y-110096904D01*
X164005380Y-110157380D01*
X165214904Y-109915476D02*
X165275380Y-109855000D01*
X165396333Y-109794523D01*
X165698714Y-109794523D01*
X165819666Y-109855000D01*
X165880142Y-109915476D01*
X165940619Y-110036428D01*
X165940619Y-110157380D01*
X165880142Y-110338809D01*
X165154428Y-111064523D01*
X165940619Y-111064523D01*
X151423091Y-117529791D02*
X151362615Y-117590267D01*
X151181186Y-117650743D01*
X151060234Y-117650743D01*
X150878805Y-117590267D01*
X150757853Y-117469315D01*
X150697377Y-117348362D01*
X150636900Y-117106458D01*
X150636900Y-116925029D01*
X150697377Y-116683124D01*
X150757853Y-116562172D01*
X150878805Y-116441220D01*
X151060234Y-116380743D01*
X151181186Y-116380743D01*
X151362615Y-116441220D01*
X151423091Y-116501696D01*
X152632615Y-117650743D02*
X151906900Y-117650743D01*
X152269758Y-117650743D02*
X152269758Y-116380743D01*
X152148805Y-116562172D01*
X152027853Y-116683124D01*
X151906900Y-116743600D01*
X153842139Y-117650743D02*
X153116424Y-117650743D01*
X153479281Y-117650743D02*
X153479281Y-116380743D01*
X153358329Y-116562172D01*
X153237377Y-116683124D01*
X153116424Y-116743600D01*
X125885571Y-47851571D02*
X125825095Y-47912047D01*
X125643666Y-47972523D01*
X125522714Y-47972523D01*
X125341285Y-47912047D01*
X125220333Y-47791095D01*
X125159857Y-47670142D01*
X125099380Y-47428238D01*
X125099380Y-47246809D01*
X125159857Y-47004904D01*
X125220333Y-46883952D01*
X125341285Y-46763000D01*
X125522714Y-46702523D01*
X125643666Y-46702523D01*
X125825095Y-46763000D01*
X125885571Y-46823476D01*
X127095095Y-47972523D02*
X126369380Y-47972523D01*
X126732238Y-47972523D02*
X126732238Y-46702523D01*
X126611285Y-46883952D01*
X126490333Y-47004904D01*
X126369380Y-47065380D01*
X127881285Y-46702523D02*
X128002238Y-46702523D01*
X128123190Y-46763000D01*
X128183666Y-46823476D01*
X128244142Y-46944428D01*
X128304619Y-47186333D01*
X128304619Y-47488714D01*
X128244142Y-47730619D01*
X128183666Y-47851571D01*
X128123190Y-47912047D01*
X128002238Y-47972523D01*
X127881285Y-47972523D01*
X127760333Y-47912047D01*
X127699857Y-47851571D01*
X127639380Y-47730619D01*
X127578904Y-47488714D01*
X127578904Y-47186333D01*
X127639380Y-46944428D01*
X127699857Y-46823476D01*
X127760333Y-46763000D01*
X127881285Y-46702523D01*
X171956333Y-51153571D02*
X171895857Y-51214047D01*
X171714428Y-51274523D01*
X171593476Y-51274523D01*
X171412047Y-51214047D01*
X171291095Y-51093095D01*
X171230619Y-50972142D01*
X171170142Y-50730238D01*
X171170142Y-50548809D01*
X171230619Y-50306904D01*
X171291095Y-50185952D01*
X171412047Y-50065000D01*
X171593476Y-50004523D01*
X171714428Y-50004523D01*
X171895857Y-50065000D01*
X171956333Y-50125476D01*
X172561095Y-51274523D02*
X172803000Y-51274523D01*
X172923952Y-51214047D01*
X172984428Y-51153571D01*
X173105380Y-50972142D01*
X173165857Y-50730238D01*
X173165857Y-50246428D01*
X173105380Y-50125476D01*
X173044904Y-50065000D01*
X172923952Y-50004523D01*
X172682047Y-50004523D01*
X172561095Y-50065000D01*
X172500619Y-50125476D01*
X172440142Y-50246428D01*
X172440142Y-50548809D01*
X172500619Y-50669761D01*
X172561095Y-50730238D01*
X172682047Y-50790714D01*
X172923952Y-50790714D01*
X173044904Y-50730238D01*
X173105380Y-50669761D01*
X173165857Y-50548809D01*
X175920333Y-46105571D02*
X175859857Y-46166047D01*
X175678428Y-46226523D01*
X175557476Y-46226523D01*
X175376047Y-46166047D01*
X175255095Y-46045095D01*
X175194619Y-45924142D01*
X175134142Y-45682238D01*
X175134142Y-45500809D01*
X175194619Y-45258904D01*
X175255095Y-45137952D01*
X175376047Y-45017000D01*
X175557476Y-44956523D01*
X175678428Y-44956523D01*
X175859857Y-45017000D01*
X175920333Y-45077476D01*
X176646047Y-45500809D02*
X176525095Y-45440333D01*
X176464619Y-45379857D01*
X176404142Y-45258904D01*
X176404142Y-45198428D01*
X176464619Y-45077476D01*
X176525095Y-45017000D01*
X176646047Y-44956523D01*
X176887952Y-44956523D01*
X177008904Y-45017000D01*
X177069380Y-45077476D01*
X177129857Y-45198428D01*
X177129857Y-45258904D01*
X177069380Y-45379857D01*
X177008904Y-45440333D01*
X176887952Y-45500809D01*
X176646047Y-45500809D01*
X176525095Y-45561285D01*
X176464619Y-45621761D01*
X176404142Y-45742714D01*
X176404142Y-45984619D01*
X176464619Y-46105571D01*
X176525095Y-46166047D01*
X176646047Y-46226523D01*
X176887952Y-46226523D01*
X177008904Y-46166047D01*
X177069380Y-46105571D01*
X177129857Y-45984619D01*
X177129857Y-45742714D01*
X177069380Y-45621761D01*
X177008904Y-45561285D01*
X176887952Y-45500809D01*
X157450333Y-106148571D02*
X157389857Y-106209047D01*
X157208428Y-106269523D01*
X157087476Y-106269523D01*
X156906047Y-106209047D01*
X156785095Y-106088095D01*
X156724619Y-105967142D01*
X156664142Y-105725238D01*
X156664142Y-105543809D01*
X156724619Y-105301904D01*
X156785095Y-105180952D01*
X156906047Y-105060000D01*
X157087476Y-104999523D01*
X157208428Y-104999523D01*
X157389857Y-105060000D01*
X157450333Y-105120476D01*
X157873666Y-104999523D02*
X158720333Y-104999523D01*
X158176047Y-106269523D01*
X146556333Y-52677571D02*
X146495857Y-52738047D01*
X146314428Y-52798523D01*
X146193476Y-52798523D01*
X146012047Y-52738047D01*
X145891095Y-52617095D01*
X145830619Y-52496142D01*
X145770142Y-52254238D01*
X145770142Y-52072809D01*
X145830619Y-51830904D01*
X145891095Y-51709952D01*
X146012047Y-51589000D01*
X146193476Y-51528523D01*
X146314428Y-51528523D01*
X146495857Y-51589000D01*
X146556333Y-51649476D01*
X147644904Y-51528523D02*
X147403000Y-51528523D01*
X147282047Y-51589000D01*
X147221571Y-51649476D01*
X147100619Y-51830904D01*
X147040142Y-52072809D01*
X147040142Y-52556619D01*
X147100619Y-52677571D01*
X147161095Y-52738047D01*
X147282047Y-52798523D01*
X147523952Y-52798523D01*
X147644904Y-52738047D01*
X147705380Y-52677571D01*
X147765857Y-52556619D01*
X147765857Y-52254238D01*
X147705380Y-52133285D01*
X147644904Y-52072809D01*
X147523952Y-52012333D01*
X147282047Y-52012333D01*
X147161095Y-52072809D01*
X147100619Y-52133285D01*
X147040142Y-52254238D01*
X153585333Y-106117571D02*
X153524857Y-106178047D01*
X153343428Y-106238523D01*
X153222476Y-106238523D01*
X153041047Y-106178047D01*
X152920095Y-106057095D01*
X152859619Y-105936142D01*
X152799142Y-105694238D01*
X152799142Y-105512809D01*
X152859619Y-105270904D01*
X152920095Y-105149952D01*
X153041047Y-105029000D01*
X153222476Y-104968523D01*
X153343428Y-104968523D01*
X153524857Y-105029000D01*
X153585333Y-105089476D01*
X154734380Y-104968523D02*
X154129619Y-104968523D01*
X154069142Y-105573285D01*
X154129619Y-105512809D01*
X154250571Y-105452333D01*
X154552952Y-105452333D01*
X154673904Y-105512809D01*
X154734380Y-105573285D01*
X154794857Y-105694238D01*
X154794857Y-105996619D01*
X154734380Y-106117571D01*
X154673904Y-106178047D01*
X154552952Y-106238523D01*
X154250571Y-106238523D01*
X154129619Y-106178047D01*
X154069142Y-106117571D01*
X150112333Y-52677571D02*
X150051857Y-52738047D01*
X149870428Y-52798523D01*
X149749476Y-52798523D01*
X149568047Y-52738047D01*
X149447095Y-52617095D01*
X149386619Y-52496142D01*
X149326142Y-52254238D01*
X149326142Y-52072809D01*
X149386619Y-51830904D01*
X149447095Y-51709952D01*
X149568047Y-51589000D01*
X149749476Y-51528523D01*
X149870428Y-51528523D01*
X150051857Y-51589000D01*
X150112333Y-51649476D01*
X151200904Y-51951857D02*
X151200904Y-52798523D01*
X150898523Y-51468047D02*
X150596142Y-52375190D01*
X151382333Y-52375190D01*
X146237571Y-49267666D02*
X146298047Y-49328142D01*
X146358523Y-49509571D01*
X146358523Y-49630523D01*
X146298047Y-49811952D01*
X146177095Y-49932904D01*
X146056142Y-49993380D01*
X145814238Y-50053857D01*
X145632809Y-50053857D01*
X145390904Y-49993380D01*
X145269952Y-49932904D01*
X145149000Y-49811952D01*
X145088523Y-49630523D01*
X145088523Y-49509571D01*
X145149000Y-49328142D01*
X145209476Y-49267666D01*
X145088523Y-48844333D02*
X145088523Y-48058142D01*
X145572333Y-48481476D01*
X145572333Y-48300047D01*
X145632809Y-48179095D01*
X145693285Y-48118619D01*
X145814238Y-48058142D01*
X146116619Y-48058142D01*
X146237571Y-48118619D01*
X146298047Y-48179095D01*
X146358523Y-48300047D01*
X146358523Y-48662904D01*
X146298047Y-48783857D01*
X146237571Y-48844333D01*
X140077571Y-49795666D02*
X140138047Y-49856142D01*
X140198523Y-50037571D01*
X140198523Y-50158523D01*
X140138047Y-50339952D01*
X140017095Y-50460904D01*
X139896142Y-50521380D01*
X139654238Y-50581857D01*
X139472809Y-50581857D01*
X139230904Y-50521380D01*
X139109952Y-50460904D01*
X138989000Y-50339952D01*
X138928523Y-50158523D01*
X138928523Y-50037571D01*
X138989000Y-49856142D01*
X139049476Y-49795666D01*
X139049476Y-49311857D02*
X138989000Y-49251380D01*
X138928523Y-49130428D01*
X138928523Y-48828047D01*
X138989000Y-48707095D01*
X139049476Y-48646619D01*
X139170428Y-48586142D01*
X139291380Y-48586142D01*
X139472809Y-48646619D01*
X140198523Y-49372333D01*
X140198523Y-48586142D01*
X181728333Y-52677571D02*
X181667857Y-52738047D01*
X181486428Y-52798523D01*
X181365476Y-52798523D01*
X181184047Y-52738047D01*
X181063095Y-52617095D01*
X181002619Y-52496142D01*
X180942142Y-52254238D01*
X180942142Y-52072809D01*
X181002619Y-51830904D01*
X181063095Y-51709952D01*
X181184047Y-51589000D01*
X181365476Y-51528523D01*
X181486428Y-51528523D01*
X181667857Y-51589000D01*
X181728333Y-51649476D01*
X182937857Y-52798523D02*
X182212142Y-52798523D01*
X182575000Y-52798523D02*
X182575000Y-51528523D01*
X182454047Y-51709952D01*
X182333095Y-51830904D01*
X182212142Y-51891380D01*
%LPC*%
D17*
X168742800Y-110717400D03*
X168742800Y-104217400D03*
X173242800Y-110717400D03*
X173242800Y-104217400D03*
D18*
X149860000Y-75268000D03*
X149860000Y-72368000D03*
D19*
X183134000Y-71120000D03*
X183134000Y-74120000D03*
X183007000Y-109474000D03*
X183007000Y-112474000D03*
X183134000Y-67516000D03*
X183134000Y-64516000D03*
X183007000Y-106680000D03*
X183007000Y-103680000D03*
D18*
X152400000Y-75268000D03*
X152400000Y-72368000D03*
X159766000Y-75819000D03*
X159766000Y-72919000D03*
X162052000Y-75798000D03*
X162052000Y-72898000D03*
D20*
X188722000Y-65898000D03*
X188722000Y-68398000D03*
X188722000Y-70398000D03*
D21*
X188722000Y-72898000D03*
D22*
X191432000Y-62828000D03*
X191432000Y-75968000D03*
D20*
X188722000Y-104760000D03*
X188722000Y-107260000D03*
X188722000Y-109260000D03*
D21*
X188722000Y-111760000D03*
D22*
X191432000Y-101690000D03*
X191432000Y-114830000D03*
D23*
X188722000Y-82510000D03*
D24*
X188722000Y-80010000D03*
D23*
X188722000Y-98004000D03*
D24*
X188722000Y-95504000D03*
D25*
X150416000Y-76962000D03*
X148796000Y-76962000D03*
X158846000Y-77724000D03*
X157226000Y-77724000D03*
X151892000Y-76962000D03*
X153512000Y-76962000D03*
X160147000Y-77724000D03*
X161767000Y-77724000D03*
D26*
X141795500Y-86623500D03*
X141795500Y-91503500D03*
D27*
X134576000Y-56034000D03*
X147320000Y-124460000D03*
X162560000Y-124460000D03*
D19*
X126746000Y-67945000D03*
X126746000Y-64945000D03*
X128143000Y-107164000D03*
X128143000Y-104164000D03*
X126746000Y-70231000D03*
X126746000Y-73231000D03*
X128143000Y-108990000D03*
X128143000Y-111990000D03*
D28*
X165227000Y-80391000D03*
X168127000Y-80391000D03*
X165227000Y-82804000D03*
X168127000Y-82804000D03*
X165227000Y-88265000D03*
X168127000Y-88265000D03*
X165248000Y-90678000D03*
X168148000Y-90678000D03*
D29*
X147955000Y-85720000D03*
X147955000Y-83820000D03*
D30*
X182529000Y-41148000D03*
X179529000Y-41148000D03*
X158780000Y-41148000D03*
X155780000Y-41148000D03*
X135031000Y-41148000D03*
X132031000Y-41148000D03*
D31*
X162174000Y-102108000D03*
X160274000Y-102108000D03*
D32*
X160528000Y-96726000D03*
X160528000Y-93726000D03*
D30*
X149864000Y-42064000D03*
X152864000Y-42064000D03*
D33*
X152864000Y-44858000D03*
X149864000Y-44858000D03*
D29*
X157988000Y-104013000D03*
X157988000Y-102113000D03*
D18*
X147530000Y-42064000D03*
X147530000Y-44964000D03*
X154940000Y-115021360D03*
X154940000Y-112121360D03*
X157480000Y-115030000D03*
X157480000Y-112130000D03*
D30*
X180550000Y-47652000D03*
X183550000Y-47652000D03*
D18*
X148531580Y-121566260D03*
X148531580Y-118666260D03*
D20*
X121158000Y-72532000D03*
X121158000Y-70032000D03*
X121158000Y-68032000D03*
D21*
X121158000Y-65532000D03*
D22*
X118448000Y-75602000D03*
X118448000Y-62462000D03*
D20*
X121158000Y-111648000D03*
X121158000Y-109148000D03*
X121158000Y-107148000D03*
D21*
X121158000Y-104648000D03*
D22*
X118448000Y-114718000D03*
X118448000Y-101578000D03*
D34*
X167640000Y-65024000D03*
X167640000Y-67564000D03*
X165100000Y-65024000D03*
X165100000Y-67564000D03*
X162560000Y-65024000D03*
D35*
X162560000Y-67564000D03*
D34*
X147574000Y-65024000D03*
X147574000Y-67564000D03*
X145034000Y-65024000D03*
X145034000Y-67564000D03*
X142494000Y-65024000D03*
D35*
X142494000Y-67564000D03*
D36*
X152040000Y-126459500D03*
X157840000Y-126459500D03*
D37*
X158440000Y-126459500D03*
X151440000Y-126459500D03*
D38*
X153940000Y-126459500D03*
D39*
X157440000Y-123759500D03*
D40*
X154940000Y-123759500D03*
X155590000Y-123759500D03*
X156240000Y-123759500D03*
X153640000Y-123759500D03*
X154290000Y-123759500D03*
D39*
X152440000Y-123759500D03*
D38*
X155940000Y-126459500D03*
D41*
X133055000Y-90822000D03*
X132405000Y-90822000D03*
X131755000Y-90822000D03*
X131105000Y-90822000D03*
X131105000Y-84946000D03*
X131755000Y-84946000D03*
X132405000Y-84946000D03*
X133055000Y-84946000D03*
D42*
X178898000Y-93091000D03*
X178898000Y-91821000D03*
X178898000Y-90551000D03*
X178898000Y-89281000D03*
X178898000Y-88011000D03*
X178898000Y-86741000D03*
X178898000Y-85471000D03*
X178898000Y-84201000D03*
X184322000Y-84201000D03*
X184322000Y-85471000D03*
X184322000Y-86741000D03*
X184322000Y-88011000D03*
X184322000Y-89281000D03*
X184322000Y-90551000D03*
X184322000Y-91821000D03*
X184322000Y-93091000D03*
D43*
X150702000Y-88398000D03*
X150702000Y-87598000D03*
X150702000Y-86798000D03*
X150702000Y-85998000D03*
X150702000Y-85198000D03*
X150702000Y-84398000D03*
X150702000Y-83598000D03*
X150702000Y-82798000D03*
D44*
X152140000Y-81360000D03*
X152940000Y-81360000D03*
X153740000Y-81360000D03*
X154540000Y-81360000D03*
X155340000Y-81360000D03*
X156140000Y-81360000D03*
X156940000Y-81360000D03*
X157740000Y-81360000D03*
D43*
X159178000Y-82798000D03*
X159178000Y-83598000D03*
X159178000Y-84398000D03*
X159178000Y-85198000D03*
X159178000Y-85998000D03*
X159178000Y-86798000D03*
X159178000Y-87598000D03*
X159178000Y-88398000D03*
D44*
X157740000Y-89836000D03*
X156940000Y-89836000D03*
X156140000Y-89836000D03*
X155340000Y-89836000D03*
X154540000Y-89836000D03*
X153740000Y-89836000D03*
X152940000Y-89836000D03*
X152140000Y-89836000D03*
D45*
X132376000Y-49979000D03*
D46*
X134576000Y-49004000D03*
X134576000Y-49654000D03*
X134576000Y-50304000D03*
X134576000Y-50954000D03*
X130176000Y-50954000D03*
X130176000Y-50304000D03*
X130176000Y-49654000D03*
X130176000Y-49004000D03*
D47*
X177065000Y-53258000D03*
X176415000Y-53258000D03*
X177065000Y-50682000D03*
X176415000Y-50682000D03*
D48*
X176740000Y-51970000D03*
D49*
X178140000Y-50995000D03*
X178140000Y-51645000D03*
X178140000Y-52295000D03*
X178140000Y-52945000D03*
X175340000Y-52945000D03*
X175340000Y-52295000D03*
X175340000Y-51645000D03*
X175340000Y-50995000D03*
D50*
X159214000Y-51462000D03*
D51*
X152914000Y-53762000D03*
X152914000Y-51462000D03*
X152914000Y-49162000D03*
D52*
X166260000Y-119294000D03*
X166260000Y-119944000D03*
X166260000Y-120594000D03*
X166260000Y-121244000D03*
X160384000Y-121244000D03*
X160384000Y-120594000D03*
X160384000Y-119944000D03*
X160384000Y-119294000D03*
D53*
X118537056Y-121238944D03*
X116840000Y-120536000D03*
X115142944Y-121238944D03*
X114440000Y-122936000D03*
X115142944Y-124633056D03*
X116840000Y-125336000D03*
X118537056Y-124633056D03*
X119240000Y-122936000D03*
D54*
X116840000Y-122936000D03*
D53*
X194737056Y-36630944D03*
X193040000Y-35928000D03*
X191342944Y-36630944D03*
X190640000Y-38328000D03*
X191342944Y-40025056D03*
X193040000Y-40728000D03*
X194737056Y-40025056D03*
X195440000Y-38328000D03*
D54*
X193040000Y-38328000D03*
D53*
X118537056Y-36630944D03*
X116840000Y-35928000D03*
X115142944Y-36630944D03*
X114440000Y-38328000D03*
X115142944Y-40025056D03*
X116840000Y-40728000D03*
X118537056Y-40025056D03*
X119240000Y-38328000D03*
D54*
X116840000Y-38328000D03*
D53*
X194737056Y-121238944D03*
X193040000Y-120536000D03*
X191342944Y-121238944D03*
X190640000Y-122936000D03*
X191342944Y-124633056D03*
X193040000Y-125336000D03*
X194737056Y-124633056D03*
X195440000Y-122936000D03*
D54*
X193040000Y-122936000D03*
D55*
X182304000Y-36730000D03*
X179304000Y-36730000D03*
X158555000Y-36730000D03*
X155555000Y-36730000D03*
X134806000Y-36730000D03*
X131806000Y-36730000D03*
D56*
X152864000Y-58828000D03*
D57*
X166964000Y-58828000D03*
D56*
X169758000Y-45112000D03*
D57*
X155658000Y-45112000D03*
D23*
X121158000Y-79542000D03*
D24*
X121158000Y-82042000D03*
D23*
X121158000Y-95036000D03*
D24*
X121158000Y-97536000D03*
D58*
X163449000Y-80899000D03*
X163449000Y-79279000D03*
X163449000Y-86868000D03*
X163449000Y-85248000D03*
X163449000Y-82296000D03*
X163449000Y-83916000D03*
X163322000Y-89106000D03*
X163322000Y-90726000D03*
D59*
X148953500Y-81851500D03*
X146113500Y-81851500D03*
D60*
X148272500Y-90297000D03*
X148272500Y-87457000D03*
D24*
X155448000Y-94234000D03*
D23*
X156948000Y-94234000D03*
D24*
X143002000Y-78994000D03*
D23*
X143002000Y-80494000D03*
D25*
X160147000Y-104013000D03*
X161767000Y-104013000D03*
X153876000Y-97790000D03*
X155496000Y-97790000D03*
D61*
X163068000Y-100076000D03*
X163068000Y-97276000D03*
X164294000Y-54262000D03*
X164294000Y-51462000D03*
D24*
X164338000Y-113284000D03*
D23*
X164338000Y-114784000D03*
D62*
X150849680Y-118920260D03*
X153649680Y-118920260D03*
D63*
X126712000Y-49554000D03*
X126712000Y-51044000D03*
D64*
X172168000Y-55272000D03*
X172168000Y-52512000D03*
D65*
X177502000Y-47652000D03*
X174742000Y-47652000D03*
D25*
X156972000Y-107315000D03*
X158592000Y-107315000D03*
D61*
X146768000Y-56542000D03*
X146768000Y-53742000D03*
D25*
X155448000Y-107315000D03*
X153828000Y-107315000D03*
D66*
X150324000Y-56542000D03*
X150324000Y-53762000D03*
D64*
X147784000Y-47686000D03*
X147784000Y-50446000D03*
X137624000Y-50954000D03*
X137624000Y-48194000D03*
D65*
X183310000Y-50192000D03*
X180550000Y-50192000D03*
M02*
