G04 #@! TF.GenerationSoftware,KiCad,Pcbnew,(5.1.9)-1*
G04 #@! TF.CreationDate,2021-05-01T17:45:06+02:00*
G04 #@! TF.ProjectId,sh_control,73685f63-6f6e-4747-926f-6c2e6b696361,3.2*
G04 #@! TF.SameCoordinates,Original*
G04 #@! TF.FileFunction,Soldermask,Top*
G04 #@! TF.FilePolarity,Negative*
%FSLAX46Y46*%
G04 Gerber Fmt 4.6, Leading zero omitted, Abs format (unit mm)*
G04 Created by KiCad (PCBNEW (5.1.9)-1) date 2021-05-01 17:45:06*
%MOMM*%
%LPD*%
G01*
G04 APERTURE LIST*
%ADD10C,1.500000*%
%ADD11R,1.700000X1.100000*%
%ADD12R,1.800000X1.200000*%
%ADD13C,1.600000*%
%ADD14R,1.500000X1.600000*%
%ADD15C,3.000000*%
%ADD16C,1.050000*%
%ADD17R,1.050000X1.050000*%
%ADD18R,0.960000X1.390000*%
%ADD19C,1.192000*%
%ADD20C,2.500000*%
%ADD21R,1.100000X1.700000*%
%ADD22R,1.400000X1.050000*%
%ADD23R,1.050000X1.800000*%
%ADD24R,1.050000X1.400000*%
%ADD25R,1.800000X1.050000*%
%ADD26R,1.200000X1.800000*%
%ADD27C,1.725000*%
%ADD28R,1.725000X1.725000*%
%ADD29R,1.200000X1.900000*%
%ADD30O,1.200000X1.900000*%
%ADD31R,1.500000X1.900000*%
%ADD32C,1.450000*%
%ADD33R,0.400000X1.350000*%
%ADD34R,0.450000X1.475000*%
%ADD35R,1.525000X0.650000*%
%ADD36R,1.475000X0.600000*%
%ADD37R,0.600000X1.475000*%
%ADD38R,1.846000X2.150000*%
%ADD39R,1.400000X0.450000*%
%ADD40R,0.230000X0.825000*%
%ADD41R,1.500000X1.750000*%
%ADD42R,0.600000X0.310000*%
%ADD43R,1.750000X3.200000*%
%ADD44R,1.750000X0.950000*%
%ADD45R,1.475000X0.450000*%
%ADD46C,0.800000*%
%ADD47C,6.400000*%
%ADD48R,1.100000X1.550000*%
%ADD49R,1.575000X1.575000*%
%ADD50C,1.575000*%
%ADD51R,1.390000X0.960000*%
%ADD52R,1.030000X1.870000*%
%ADD53R,1.870000X1.030000*%
%ADD54R,1.820000X1.020000*%
%ADD55R,1.020000X1.820000*%
%ADD56C,0.900000*%
%ADD57R,2.110000X1.350000*%
%ADD58R,1.350000X2.110000*%
%ADD59R,1.820000X1.050000*%
G04 APERTURE END LIST*
D10*
X168742800Y-110717400D03*
X168742800Y-104217400D03*
X173242800Y-110717400D03*
X173242800Y-104217400D03*
D11*
X149860000Y-75268000D03*
X149860000Y-72368000D03*
D12*
X183134000Y-71120000D03*
X183134000Y-74120000D03*
X183007000Y-109474000D03*
X183007000Y-112474000D03*
X183134000Y-67516000D03*
X183134000Y-64516000D03*
X183007000Y-106680000D03*
X183007000Y-103680000D03*
D11*
X152400000Y-75268000D03*
X152400000Y-72368000D03*
X159766000Y-75819000D03*
X159766000Y-72919000D03*
X162052000Y-75798000D03*
X162052000Y-72898000D03*
D13*
X188722000Y-65898000D03*
X188722000Y-68398000D03*
X188722000Y-70398000D03*
D14*
X188722000Y-72898000D03*
D15*
X191432000Y-62828000D03*
X191432000Y-75968000D03*
D13*
X188722000Y-104760000D03*
X188722000Y-107260000D03*
X188722000Y-109260000D03*
D14*
X188722000Y-111760000D03*
D15*
X191432000Y-101690000D03*
X191432000Y-114830000D03*
D16*
X188722000Y-82510000D03*
D17*
X188722000Y-80010000D03*
D16*
X188722000Y-98004000D03*
D17*
X188722000Y-95504000D03*
D18*
X150416000Y-76962000D03*
X148796000Y-76962000D03*
X158846000Y-77724000D03*
X157226000Y-77724000D03*
X151892000Y-76962000D03*
X153512000Y-76962000D03*
X160147000Y-77724000D03*
X161767000Y-77724000D03*
D19*
X141795500Y-86623500D03*
X141795500Y-91503500D03*
D20*
X134576000Y-56034000D03*
X147320000Y-124460000D03*
X162560000Y-124460000D03*
D12*
X126746000Y-67945000D03*
X126746000Y-64945000D03*
X128143000Y-107164000D03*
X128143000Y-104164000D03*
X126746000Y-70231000D03*
X126746000Y-73231000D03*
X128143000Y-108990000D03*
X128143000Y-111990000D03*
D21*
X165227000Y-80391000D03*
X168127000Y-80391000D03*
X165227000Y-82804000D03*
X168127000Y-82804000D03*
X165227000Y-88265000D03*
X168127000Y-88265000D03*
X165248000Y-90678000D03*
X168148000Y-90678000D03*
D22*
X147955000Y-85720000D03*
X147955000Y-83820000D03*
D23*
X182529000Y-41148000D03*
X179529000Y-41148000D03*
X158780000Y-41148000D03*
X155780000Y-41148000D03*
X135031000Y-41148000D03*
X132031000Y-41148000D03*
D24*
X162174000Y-102108000D03*
X160274000Y-102108000D03*
D25*
X160528000Y-96726000D03*
X160528000Y-93726000D03*
D23*
X149864000Y-42064000D03*
X152864000Y-42064000D03*
D26*
X152864000Y-44858000D03*
X149864000Y-44858000D03*
D22*
X157988000Y-104013000D03*
X157988000Y-102113000D03*
D11*
X147530000Y-42064000D03*
X147530000Y-44964000D03*
X154940000Y-115021360D03*
X154940000Y-112121360D03*
X157480000Y-115030000D03*
X157480000Y-112130000D03*
D23*
X180550000Y-47652000D03*
X183550000Y-47652000D03*
D11*
X148531580Y-121566260D03*
X148531580Y-118666260D03*
D13*
X121158000Y-72532000D03*
X121158000Y-70032000D03*
X121158000Y-68032000D03*
D14*
X121158000Y-65532000D03*
D15*
X118448000Y-75602000D03*
X118448000Y-62462000D03*
D13*
X121158000Y-111648000D03*
X121158000Y-109148000D03*
X121158000Y-107148000D03*
D14*
X121158000Y-104648000D03*
D15*
X118448000Y-114718000D03*
X118448000Y-101578000D03*
D27*
X167640000Y-65024000D03*
X167640000Y-67564000D03*
X165100000Y-65024000D03*
X165100000Y-67564000D03*
X162560000Y-65024000D03*
D28*
X162560000Y-67564000D03*
D27*
X147574000Y-65024000D03*
X147574000Y-67564000D03*
X145034000Y-65024000D03*
X145034000Y-67564000D03*
X142494000Y-65024000D03*
D28*
X142494000Y-67564000D03*
D29*
X152040000Y-126459500D03*
X157840000Y-126459500D03*
D30*
X158440000Y-126459500D03*
X151440000Y-126459500D03*
D31*
X153940000Y-126459500D03*
D32*
X157440000Y-123759500D03*
D33*
X154940000Y-123759500D03*
X155590000Y-123759500D03*
X156240000Y-123759500D03*
X153640000Y-123759500D03*
X154290000Y-123759500D03*
D32*
X152440000Y-123759500D03*
D31*
X155940000Y-126459500D03*
D34*
X133055000Y-90822000D03*
X132405000Y-90822000D03*
X131755000Y-90822000D03*
X131105000Y-90822000D03*
X131105000Y-84946000D03*
X131755000Y-84946000D03*
X132405000Y-84946000D03*
X133055000Y-84946000D03*
D35*
X178898000Y-93091000D03*
X178898000Y-91821000D03*
X178898000Y-90551000D03*
X178898000Y-89281000D03*
X178898000Y-88011000D03*
X178898000Y-86741000D03*
X178898000Y-85471000D03*
X178898000Y-84201000D03*
X184322000Y-84201000D03*
X184322000Y-85471000D03*
X184322000Y-86741000D03*
X184322000Y-88011000D03*
X184322000Y-89281000D03*
X184322000Y-90551000D03*
X184322000Y-91821000D03*
X184322000Y-93091000D03*
D36*
X150702000Y-88398000D03*
X150702000Y-87598000D03*
X150702000Y-86798000D03*
X150702000Y-85998000D03*
X150702000Y-85198000D03*
X150702000Y-84398000D03*
X150702000Y-83598000D03*
X150702000Y-82798000D03*
D37*
X152140000Y-81360000D03*
X152940000Y-81360000D03*
X153740000Y-81360000D03*
X154540000Y-81360000D03*
X155340000Y-81360000D03*
X156140000Y-81360000D03*
X156940000Y-81360000D03*
X157740000Y-81360000D03*
D36*
X159178000Y-82798000D03*
X159178000Y-83598000D03*
X159178000Y-84398000D03*
X159178000Y-85198000D03*
X159178000Y-85998000D03*
X159178000Y-86798000D03*
X159178000Y-87598000D03*
X159178000Y-88398000D03*
D37*
X157740000Y-89836000D03*
X156940000Y-89836000D03*
X156140000Y-89836000D03*
X155340000Y-89836000D03*
X154540000Y-89836000D03*
X153740000Y-89836000D03*
X152940000Y-89836000D03*
X152140000Y-89836000D03*
D38*
X132376000Y-49979000D03*
D39*
X134576000Y-49004000D03*
X134576000Y-49654000D03*
X134576000Y-50304000D03*
X134576000Y-50954000D03*
X130176000Y-50954000D03*
X130176000Y-50304000D03*
X130176000Y-49654000D03*
X130176000Y-49004000D03*
D40*
X177065000Y-53258000D03*
X176415000Y-53258000D03*
X177065000Y-50682000D03*
X176415000Y-50682000D03*
D41*
X176740000Y-51970000D03*
D42*
X178140000Y-50995000D03*
X178140000Y-51645000D03*
X178140000Y-52295000D03*
X178140000Y-52945000D03*
X175340000Y-52945000D03*
X175340000Y-52295000D03*
X175340000Y-51645000D03*
X175340000Y-50995000D03*
D43*
X159214000Y-51462000D03*
D44*
X152914000Y-53762000D03*
X152914000Y-51462000D03*
X152914000Y-49162000D03*
D45*
X166260000Y-119294000D03*
X166260000Y-119944000D03*
X166260000Y-120594000D03*
X166260000Y-121244000D03*
X160384000Y-121244000D03*
X160384000Y-120594000D03*
X160384000Y-119944000D03*
X160384000Y-119294000D03*
D46*
X118537056Y-121238944D03*
X116840000Y-120536000D03*
X115142944Y-121238944D03*
X114440000Y-122936000D03*
X115142944Y-124633056D03*
X116840000Y-125336000D03*
X118537056Y-124633056D03*
X119240000Y-122936000D03*
D47*
X116840000Y-122936000D03*
D46*
X194737056Y-36630944D03*
X193040000Y-35928000D03*
X191342944Y-36630944D03*
X190640000Y-38328000D03*
X191342944Y-40025056D03*
X193040000Y-40728000D03*
X194737056Y-40025056D03*
X195440000Y-38328000D03*
D47*
X193040000Y-38328000D03*
D46*
X118537056Y-36630944D03*
X116840000Y-35928000D03*
X115142944Y-36630944D03*
X114440000Y-38328000D03*
X115142944Y-40025056D03*
X116840000Y-40728000D03*
X118537056Y-40025056D03*
X119240000Y-38328000D03*
D47*
X116840000Y-38328000D03*
D46*
X194737056Y-121238944D03*
X193040000Y-120536000D03*
X191342944Y-121238944D03*
X190640000Y-122936000D03*
X191342944Y-124633056D03*
X193040000Y-125336000D03*
X194737056Y-124633056D03*
X195440000Y-122936000D03*
D47*
X193040000Y-122936000D03*
D48*
X182304000Y-36730000D03*
X179304000Y-36730000D03*
X158555000Y-36730000D03*
X155555000Y-36730000D03*
X134806000Y-36730000D03*
X131806000Y-36730000D03*
D49*
X152864000Y-58828000D03*
D50*
X166964000Y-58828000D03*
D49*
X169758000Y-45112000D03*
D50*
X155658000Y-45112000D03*
D16*
X121158000Y-79542000D03*
D17*
X121158000Y-82042000D03*
D16*
X121158000Y-95036000D03*
D17*
X121158000Y-97536000D03*
D51*
X163449000Y-80899000D03*
X163449000Y-79279000D03*
X163449000Y-86868000D03*
X163449000Y-85248000D03*
X163449000Y-82296000D03*
X163449000Y-83916000D03*
X163322000Y-89106000D03*
X163322000Y-90726000D03*
D52*
X148953500Y-81851500D03*
X146113500Y-81851500D03*
D53*
X148272500Y-90297000D03*
X148272500Y-87457000D03*
D17*
X155448000Y-94234000D03*
D16*
X156948000Y-94234000D03*
D17*
X143002000Y-78994000D03*
D16*
X143002000Y-80494000D03*
D18*
X160147000Y-104013000D03*
X161767000Y-104013000D03*
X153876000Y-97790000D03*
X155496000Y-97790000D03*
D54*
X163068000Y-100076000D03*
X163068000Y-97276000D03*
X164294000Y-54262000D03*
X164294000Y-51462000D03*
D17*
X164338000Y-113284000D03*
D16*
X164338000Y-114784000D03*
D55*
X150849680Y-118920260D03*
X153649680Y-118920260D03*
D56*
X126712000Y-49554000D03*
X126712000Y-51044000D03*
D57*
X172168000Y-55272000D03*
X172168000Y-52512000D03*
D58*
X177502000Y-47652000D03*
X174742000Y-47652000D03*
D18*
X156972000Y-107315000D03*
X158592000Y-107315000D03*
D54*
X146768000Y-56542000D03*
X146768000Y-53742000D03*
D18*
X155448000Y-107315000D03*
X153828000Y-107315000D03*
D59*
X150324000Y-56542000D03*
X150324000Y-53762000D03*
D57*
X147784000Y-47686000D03*
X147784000Y-50446000D03*
X137624000Y-50954000D03*
X137624000Y-48194000D03*
D58*
X183310000Y-50192000D03*
X180550000Y-50192000D03*
M02*
