G04 #@! TF.GenerationSoftware,KiCad,Pcbnew,(5.1.9)-1*
G04 #@! TF.CreationDate,2021-05-01T17:45:06+02:00*
G04 #@! TF.ProjectId,sh_control,73685f63-6f6e-4747-926f-6c2e6b696361,3.2*
G04 #@! TF.SameCoordinates,Original*
G04 #@! TF.FileFunction,Copper,L4,Bot*
G04 #@! TF.FilePolarity,Positive*
%FSLAX46Y46*%
G04 Gerber Fmt 4.6, Leading zero omitted, Abs format (unit mm)*
G04 Created by KiCad (PCBNEW (5.1.9)-1) date 2021-05-01 17:45:06*
%MOMM*%
%LPD*%
G01*
G04 APERTURE LIST*
G04 #@! TA.AperFunction,ComponentPad*
%ADD10C,1.500000*%
G04 #@! TD*
G04 #@! TA.AperFunction,ComponentPad*
%ADD11C,1.600000*%
G04 #@! TD*
G04 #@! TA.AperFunction,ComponentPad*
%ADD12R,1.500000X1.600000*%
G04 #@! TD*
G04 #@! TA.AperFunction,ComponentPad*
%ADD13C,3.000000*%
G04 #@! TD*
G04 #@! TA.AperFunction,ComponentPad*
%ADD14C,1.050000*%
G04 #@! TD*
G04 #@! TA.AperFunction,ComponentPad*
%ADD15R,1.050000X1.050000*%
G04 #@! TD*
G04 #@! TA.AperFunction,ComponentPad*
%ADD16C,1.192000*%
G04 #@! TD*
G04 #@! TA.AperFunction,ComponentPad*
%ADD17C,1.725000*%
G04 #@! TD*
G04 #@! TA.AperFunction,ComponentPad*
%ADD18R,1.725000X1.725000*%
G04 #@! TD*
G04 #@! TA.AperFunction,ComponentPad*
%ADD19O,1.200000X1.900000*%
G04 #@! TD*
G04 #@! TA.AperFunction,ComponentPad*
%ADD20C,1.450000*%
G04 #@! TD*
G04 #@! TA.AperFunction,ComponentPad*
%ADD21C,0.800000*%
G04 #@! TD*
G04 #@! TA.AperFunction,ComponentPad*
%ADD22C,6.400000*%
G04 #@! TD*
G04 #@! TA.AperFunction,ComponentPad*
%ADD23R,1.575000X1.575000*%
G04 #@! TD*
G04 #@! TA.AperFunction,ComponentPad*
%ADD24C,1.575000*%
G04 #@! TD*
G04 #@! TA.AperFunction,ComponentPad*
%ADD25C,0.900000*%
G04 #@! TD*
G04 #@! TA.AperFunction,ViaPad*
%ADD26C,0.800000*%
G04 #@! TD*
G04 #@! TA.AperFunction,Conductor*
%ADD27C,0.500000*%
G04 #@! TD*
G04 #@! TA.AperFunction,Conductor*
%ADD28C,0.300000*%
G04 #@! TD*
G04 #@! TA.AperFunction,Conductor*
%ADD29C,0.261112*%
G04 #@! TD*
G04 #@! TA.AperFunction,Conductor*
%ADD30C,0.250000*%
G04 #@! TD*
G04 APERTURE END LIST*
D10*
X168742800Y-110717400D03*
X168742800Y-104217400D03*
X173242800Y-110717400D03*
X173242800Y-104217400D03*
D11*
X188722000Y-65898000D03*
X188722000Y-68398000D03*
X188722000Y-70398000D03*
D12*
X188722000Y-72898000D03*
D13*
X191432000Y-62828000D03*
X191432000Y-75968000D03*
D11*
X188722000Y-104760000D03*
X188722000Y-107260000D03*
X188722000Y-109260000D03*
D12*
X188722000Y-111760000D03*
D13*
X191432000Y-101690000D03*
X191432000Y-114830000D03*
D14*
X188722000Y-82510000D03*
D15*
X188722000Y-80010000D03*
D14*
X188722000Y-98004000D03*
D15*
X188722000Y-95504000D03*
D16*
X141795500Y-86623500D03*
X141795500Y-91503500D03*
D11*
X121158000Y-72532000D03*
X121158000Y-70032000D03*
X121158000Y-68032000D03*
D12*
X121158000Y-65532000D03*
D13*
X118448000Y-75602000D03*
X118448000Y-62462000D03*
D11*
X121158000Y-111648000D03*
X121158000Y-109148000D03*
X121158000Y-107148000D03*
D12*
X121158000Y-104648000D03*
D13*
X118448000Y-114718000D03*
X118448000Y-101578000D03*
D17*
X167640000Y-65024000D03*
X167640000Y-67564000D03*
X165100000Y-65024000D03*
X165100000Y-67564000D03*
X162560000Y-65024000D03*
D18*
X162560000Y-67564000D03*
D17*
X147574000Y-65024000D03*
X147574000Y-67564000D03*
X145034000Y-65024000D03*
X145034000Y-67564000D03*
X142494000Y-65024000D03*
D18*
X142494000Y-67564000D03*
D19*
X158440000Y-126459500D03*
X151440000Y-126459500D03*
D20*
X157440000Y-123759500D03*
X152440000Y-123759500D03*
D21*
X118537056Y-121238944D03*
X116840000Y-120536000D03*
X115142944Y-121238944D03*
X114440000Y-122936000D03*
X115142944Y-124633056D03*
X116840000Y-125336000D03*
X118537056Y-124633056D03*
X119240000Y-122936000D03*
D22*
X116840000Y-122936000D03*
D21*
X194737056Y-36630944D03*
X193040000Y-35928000D03*
X191342944Y-36630944D03*
X190640000Y-38328000D03*
X191342944Y-40025056D03*
X193040000Y-40728000D03*
X194737056Y-40025056D03*
X195440000Y-38328000D03*
D22*
X193040000Y-38328000D03*
D21*
X118537056Y-36630944D03*
X116840000Y-35928000D03*
X115142944Y-36630944D03*
X114440000Y-38328000D03*
X115142944Y-40025056D03*
X116840000Y-40728000D03*
X118537056Y-40025056D03*
X119240000Y-38328000D03*
D22*
X116840000Y-38328000D03*
D21*
X194737056Y-121238944D03*
X193040000Y-120536000D03*
X191342944Y-121238944D03*
X190640000Y-122936000D03*
X191342944Y-124633056D03*
X193040000Y-125336000D03*
X194737056Y-124633056D03*
X195440000Y-122936000D03*
D22*
X193040000Y-122936000D03*
D23*
X152864000Y-58828000D03*
D24*
X166964000Y-58828000D03*
D23*
X169758000Y-45112000D03*
D24*
X155658000Y-45112000D03*
D14*
X121158000Y-79542000D03*
D15*
X121158000Y-82042000D03*
D14*
X121158000Y-95036000D03*
D15*
X121158000Y-97536000D03*
X155448000Y-94234000D03*
D14*
X156948000Y-94234000D03*
D15*
X143002000Y-78994000D03*
D14*
X143002000Y-80494000D03*
D15*
X164338000Y-113284000D03*
D14*
X164338000Y-114784000D03*
D25*
X126712000Y-49554000D03*
X126712000Y-51044000D03*
D26*
X163893500Y-91821000D03*
X148272500Y-91567000D03*
X148971000Y-80010000D03*
X161988500Y-79311500D03*
X162941000Y-77660500D03*
X155829000Y-77470000D03*
X183134000Y-75374500D03*
X183134000Y-63182500D03*
X183070500Y-102362000D03*
X185991500Y-88074500D03*
X184404000Y-94170500D03*
X146748500Y-57658000D03*
X150368000Y-57658000D03*
X176212500Y-54419500D03*
X184785000Y-50228500D03*
X177800000Y-45910500D03*
X164274500Y-55435500D03*
X172212000Y-56642000D03*
X183959500Y-41148000D03*
X160210500Y-41084500D03*
X145923000Y-47688500D03*
X130175000Y-52133500D03*
X136525000Y-41084500D03*
X157734000Y-121666000D03*
X128206500Y-102806500D03*
X128143000Y-113347500D03*
X131762500Y-83502500D03*
X129984500Y-90868500D03*
X120142000Y-94234000D03*
X144208500Y-80391000D03*
X157353000Y-95440500D03*
X164655500Y-100901500D03*
X152654000Y-107378500D03*
X159893000Y-107251500D03*
X161734500Y-105600500D03*
X126873000Y-63627000D03*
X126746000Y-74549000D03*
X183007000Y-113919000D03*
X164338000Y-119253000D03*
X151003000Y-120650000D03*
X162433000Y-119126000D03*
X164211000Y-121158000D03*
X162560000Y-120650000D03*
X146939000Y-118491000D03*
X149987000Y-117221000D03*
X128460500Y-64198500D03*
X128397000Y-73977500D03*
X155511500Y-99187000D03*
X133096000Y-83502500D03*
X132397500Y-92202000D03*
X162560000Y-124333000D03*
X156210000Y-122301000D03*
X156340000Y-124909498D03*
X128206500Y-52070000D03*
X132270500Y-49847500D03*
X132461000Y-52133500D03*
X139509500Y-50927000D03*
X137604500Y-52387500D03*
X135953500Y-51117500D03*
X177101500Y-54419500D03*
X176403000Y-49593500D03*
X177292000Y-49593500D03*
X147383500Y-77470000D03*
X154749500Y-77724000D03*
X158813500Y-89598500D03*
X158877000Y-90868500D03*
X156400500Y-90907500D03*
X152590500Y-84455000D03*
X152590500Y-84455000D03*
X152590500Y-85407500D03*
X162230732Y-83299475D03*
X144208500Y-78994000D03*
X155448000Y-93091000D03*
X158940500Y-96774000D03*
X156591000Y-101981000D03*
X161226500Y-100520500D03*
X155448000Y-95440500D03*
X154305000Y-94234000D03*
X167640000Y-62928500D03*
X165100000Y-62992000D03*
X162560000Y-63055500D03*
X156499012Y-121286660D03*
X154305000Y-120904000D03*
X146431000Y-122301000D03*
X152908000Y-121158000D03*
X154051000Y-116713000D03*
X136271000Y-110934500D03*
X136017000Y-78994000D03*
X154622500Y-84391500D03*
X174548800Y-85801200D03*
X155733994Y-83121500D03*
X183397631Y-82966031D03*
X177365712Y-83210400D03*
X174498000Y-82194400D03*
X157734000Y-83121500D03*
X167995600Y-85344000D03*
X183073569Y-81168769D03*
X186232800Y-85242400D03*
X161798000Y-84201000D03*
X170281600Y-86473600D03*
X161036000Y-85217000D03*
X166725600Y-84988400D03*
X183946800Y-80213200D03*
X186029600Y-89255600D03*
X161798000Y-89471500D03*
X175006000Y-89471500D03*
X177365712Y-89725500D03*
X177990500Y-94361000D03*
X161353500Y-90614500D03*
X174117000Y-96710500D03*
X159321500Y-68516500D03*
X158115000Y-39116000D03*
X149796500Y-46609000D03*
X177698400Y-39065200D03*
X183819800Y-38658800D03*
X151511000Y-100711000D03*
X171132500Y-98107500D03*
X149542500Y-95948500D03*
X166116000Y-95186500D03*
X156733997Y-83121500D03*
X169011600Y-86372000D03*
X141986000Y-45148500D03*
X179324000Y-53149500D03*
X185991500Y-48768000D03*
X180657500Y-86804500D03*
X150628400Y-69381628D03*
X179731315Y-69749315D03*
X151631600Y-69381628D03*
X180440685Y-70458685D03*
X169291000Y-74368712D03*
X180340000Y-107575400D03*
X169291000Y-75371912D03*
X180340000Y-108578600D03*
X170059400Y-78613000D03*
X129667000Y-69462600D03*
X135559800Y-75361800D03*
X171062600Y-78613000D03*
X129667000Y-68459400D03*
X137769600Y-74295000D03*
X149960685Y-101319685D03*
X171169685Y-93445685D03*
X135280400Y-95021400D03*
X134035800Y-109016800D03*
X149251315Y-100610315D03*
X170460315Y-92736315D03*
X134281780Y-94968842D03*
X134112000Y-107061000D03*
X155575000Y-105918000D03*
X156591000Y-104140000D03*
D27*
X165100000Y-65024000D02*
X165100000Y-62992000D01*
D28*
X154687660Y-121286660D02*
X154305000Y-120904000D01*
X156499012Y-121286660D02*
X154687660Y-121286660D01*
D27*
X151765000Y-122301000D02*
X146431000Y-122301000D01*
X152908000Y-121158000D02*
X151765000Y-122301000D01*
X163068000Y-113284000D02*
X164338000Y-113284000D01*
X162433000Y-113919000D02*
X163068000Y-113284000D01*
X162433000Y-115951000D02*
X162433000Y-113919000D01*
X161671000Y-116713000D02*
X162433000Y-115951000D01*
X154051000Y-116713000D02*
X161671000Y-116713000D01*
X136271000Y-79248000D02*
X136017000Y-78994000D01*
X136271000Y-110934500D02*
X136271000Y-79248000D01*
D28*
X154622500Y-84391500D02*
X158178500Y-87947500D01*
X158178500Y-87947500D02*
X171894500Y-87947500D01*
X172402500Y-87947500D02*
X174548800Y-85801200D01*
X171894500Y-87947500D02*
X172402500Y-87947500D01*
X177610081Y-82966031D02*
X177365712Y-83210400D01*
X183397631Y-82966031D02*
X177610081Y-82966031D01*
X155733994Y-84313734D02*
X155733994Y-83121500D01*
X169519600Y-87122000D02*
X158542260Y-87122000D01*
X171357020Y-87223600D02*
X169621200Y-87223600D01*
X158542260Y-87122000D02*
X155733994Y-84313734D01*
X174498000Y-84082620D02*
X171357020Y-87223600D01*
X169621200Y-87223600D02*
X169519600Y-87122000D01*
X174498000Y-82194400D02*
X174498000Y-84082620D01*
X157734000Y-83121500D02*
X157734000Y-84899500D01*
X157734000Y-84899500D02*
X158801501Y-85967001D01*
X167372599Y-85967001D02*
X167995600Y-85344000D01*
X158801501Y-85967001D02*
X167372599Y-85967001D01*
X186232800Y-84328000D02*
X186232800Y-85242400D01*
X183073569Y-81168769D02*
X186232800Y-84328000D01*
X168009000Y-84201000D02*
X170281600Y-86473600D01*
X161798000Y-84201000D02*
X168009000Y-84201000D01*
X166497000Y-85217000D02*
X166725600Y-84988400D01*
X161036000Y-85217000D02*
X166497000Y-85217000D01*
X183946800Y-80213200D02*
X187960000Y-84226400D01*
X187960000Y-87325200D02*
X186029600Y-89255600D01*
X187960000Y-84226400D02*
X187960000Y-87325200D01*
X161798000Y-89471500D02*
X173228000Y-89471500D01*
X173228000Y-89471500D02*
X175006000Y-89471500D01*
X177365712Y-93736212D02*
X177990500Y-94361000D01*
X177365712Y-89725500D02*
X177365712Y-93736212D01*
X174117000Y-96710500D02*
X174117000Y-91884500D01*
X161353500Y-90614500D02*
X172783500Y-90614500D01*
X174053500Y-91884500D02*
X174117000Y-91884500D01*
X172783500Y-90614500D02*
X174053500Y-91884500D01*
D27*
X165100000Y-67564000D02*
X165100000Y-69278500D01*
X165100000Y-69278500D02*
X164338000Y-70040500D01*
X160845500Y-70040500D02*
X159321500Y-68516500D01*
X164338000Y-70040500D02*
X160845500Y-70040500D01*
X155658000Y-41573000D02*
X155658000Y-45112000D01*
X158115000Y-39116000D02*
X155658000Y-41573000D01*
X155658000Y-45112000D02*
X155658000Y-46589500D01*
X155658000Y-46589500D02*
X155194000Y-47053500D01*
X150241000Y-47053500D02*
X149796500Y-46609000D01*
X155194000Y-47053500D02*
X150241000Y-47053500D01*
D28*
X183413400Y-39065200D02*
X183819800Y-38658800D01*
X177698400Y-39065200D02*
X183413400Y-39065200D01*
X155097502Y-100711000D02*
X156812002Y-98996500D01*
X151511000Y-100711000D02*
X155097502Y-100711000D01*
X156812002Y-98996500D02*
X170053000Y-98996500D01*
X170243500Y-98996500D02*
X171132500Y-98107500D01*
X170053000Y-98996500D02*
X170243500Y-98996500D01*
X157555003Y-96348499D02*
X158717002Y-95186500D01*
X149942499Y-96348499D02*
X157555003Y-96348499D01*
X158717002Y-95186500D02*
X166116000Y-95186500D01*
X149542500Y-95948500D02*
X149942499Y-96348499D01*
X156733997Y-84606617D02*
X158677880Y-86550500D01*
X156733997Y-83121500D02*
X156733997Y-84606617D01*
X168833100Y-86550500D02*
X158677880Y-86550500D01*
X169011600Y-86372000D02*
X168833100Y-86550500D01*
D27*
X162560000Y-67564000D02*
X157988000Y-67564000D01*
X157988000Y-67564000D02*
X152400000Y-61976000D01*
X152400000Y-61976000D02*
X148399500Y-61976000D01*
X148399500Y-61976000D02*
X141986000Y-55562500D01*
X141986000Y-55562500D02*
X141986000Y-45148500D01*
X179324000Y-53149500D02*
X185293000Y-53149500D01*
X185293000Y-53149500D02*
X186182000Y-52260500D01*
X186182000Y-48958500D02*
X185991500Y-48768000D01*
X186182000Y-52260500D02*
X186182000Y-48958500D01*
D28*
X180847500Y-86804500D02*
X180657500Y-86804500D01*
X188722000Y-94679000D02*
X180847500Y-86804500D01*
X188722000Y-95504000D02*
X188722000Y-94679000D01*
D29*
X179731315Y-70130366D02*
X179731315Y-69749315D01*
X150628400Y-69381628D02*
X150897844Y-69112184D01*
X150897844Y-69112184D02*
X150897844Y-68483836D01*
X150897844Y-68483836D02*
X151287836Y-68093844D01*
X151287836Y-68093844D02*
X153258164Y-68093844D01*
X153258164Y-68093844D02*
X158338164Y-73173844D01*
X158338164Y-73173844D02*
X176687837Y-73173844D01*
X176687837Y-73173844D02*
X179731315Y-70130366D01*
X176880163Y-73638156D02*
X180059634Y-70458685D01*
X153065836Y-68558156D02*
X158145836Y-73638156D01*
X180059634Y-70458685D02*
X180440685Y-70458685D01*
X158145836Y-73638156D02*
X176880163Y-73638156D01*
X151631600Y-69381628D02*
X151362156Y-69112184D01*
X151480164Y-68558156D02*
X153065836Y-68558156D01*
X151362156Y-69112184D02*
X151362156Y-68676164D01*
X151362156Y-68676164D02*
X151480164Y-68558156D01*
X169560444Y-74638156D02*
X171105476Y-74638156D01*
X169291000Y-74368712D02*
X169560444Y-74638156D01*
X171105476Y-74638156D02*
X176635156Y-80167836D01*
X176635156Y-80167836D02*
X176635156Y-106456836D01*
X178023164Y-107844844D02*
X180070556Y-107844844D01*
X180070556Y-107844844D02*
X180340000Y-107575400D01*
X176635156Y-106456836D02*
X178023164Y-107844844D01*
X169560444Y-75102468D02*
X170913148Y-75102468D01*
X169291000Y-75371912D02*
X169560444Y-75102468D01*
X170913148Y-75102468D02*
X176170844Y-80360164D01*
X176170844Y-80360164D02*
X176170844Y-106649164D01*
X180070556Y-108309156D02*
X180340000Y-108578600D01*
X176170844Y-106649164D02*
X177830836Y-108309156D01*
X177830836Y-108309156D02*
X180070556Y-108309156D01*
X170059400Y-78266437D02*
X168479119Y-76686156D01*
X170059400Y-78613000D02*
X170059400Y-78266437D01*
X168479119Y-76686156D02*
X137825836Y-76686156D01*
X129936444Y-69193156D02*
X129667000Y-69462600D01*
X130332836Y-69193156D02*
X129936444Y-69193156D01*
D30*
X135559800Y-74574400D02*
X135636940Y-74497260D01*
X135559800Y-75361800D02*
X135559800Y-74574400D01*
D29*
X135636940Y-74497260D02*
X130332836Y-69193156D01*
X137825836Y-76686156D02*
X135636940Y-74497260D01*
X170332043Y-77882443D02*
X168671444Y-76221844D01*
X170410068Y-77882443D02*
X170332043Y-77882443D01*
X170789957Y-78262332D02*
X170410068Y-77882443D01*
X170789957Y-78340357D02*
X170789957Y-78262332D01*
X171062600Y-78613000D02*
X170789957Y-78340357D01*
X168671444Y-76221844D02*
X138018164Y-76221844D01*
X129936444Y-68728844D02*
X129667000Y-68459400D01*
X138018164Y-76221844D02*
X130525164Y-68728844D01*
X130525164Y-68728844D02*
X129936444Y-68728844D01*
D28*
X137769600Y-75950298D02*
X137957951Y-76138649D01*
X137769600Y-74295000D02*
X137769600Y-75950298D01*
D29*
X149960685Y-100938634D02*
X152623163Y-98276156D01*
X149960685Y-101319685D02*
X149960685Y-100938634D01*
X170788634Y-93445685D02*
X171169685Y-93445685D01*
X165958163Y-98276156D02*
X170788634Y-93445685D01*
X152623163Y-98276156D02*
X165958163Y-98276156D01*
D28*
X135280400Y-107772200D02*
X134035800Y-109016800D01*
X135280400Y-95021400D02*
X135280400Y-107772200D01*
D29*
X149251315Y-100610315D02*
X149632366Y-100610315D01*
X149632366Y-100610315D02*
X152430837Y-97811844D01*
X170460315Y-93117366D02*
X170460315Y-92736315D01*
X165765837Y-97811844D02*
X170460315Y-93117366D01*
X152430837Y-97811844D02*
X165765837Y-97811844D01*
D28*
X134281780Y-94968842D02*
X134281780Y-95716590D01*
X134281780Y-95716590D02*
X134780390Y-96215200D01*
X134780390Y-106392610D02*
X134112000Y-107061000D01*
X134780390Y-96215200D02*
X134780390Y-106392610D01*
D30*
X155575000Y-105156000D02*
X156591000Y-104140000D01*
X155575000Y-105918000D02*
X155575000Y-105156000D01*
M02*
