G04 #@! TF.GenerationSoftware,KiCad,Pcbnew,(5.1.9)-1*
G04 #@! TF.CreationDate,2021-04-13T17:11:41+02:00*
G04 #@! TF.ProjectId,sh_control,73685f63-6f6e-4747-926f-6c2e6b696361,rev?*
G04 #@! TF.SameCoordinates,Original*
G04 #@! TF.FileFunction,Copper,L2,Inr*
G04 #@! TF.FilePolarity,Positive*
%FSLAX46Y46*%
G04 Gerber Fmt 4.6, Leading zero omitted, Abs format (unit mm)*
G04 Created by KiCad (PCBNEW (5.1.9)-1) date 2021-04-13 17:11:41*
%MOMM*%
%LPD*%
G01*
G04 APERTURE LIST*
G04 #@! TA.AperFunction,ComponentPad*
%ADD10C,1.192000*%
G04 #@! TD*
G04 #@! TA.AperFunction,ComponentPad*
%ADD11C,1.725000*%
G04 #@! TD*
G04 #@! TA.AperFunction,ComponentPad*
%ADD12R,1.725000X1.725000*%
G04 #@! TD*
G04 #@! TA.AperFunction,ComponentPad*
%ADD13O,0.800000X1.600000*%
G04 #@! TD*
G04 #@! TA.AperFunction,ComponentPad*
%ADD14C,1.050000*%
G04 #@! TD*
G04 #@! TA.AperFunction,ComponentPad*
%ADD15R,1.050000X1.050000*%
G04 #@! TD*
G04 #@! TA.AperFunction,ViaPad*
%ADD16C,0.800000*%
G04 #@! TD*
G04 #@! TA.AperFunction,Conductor*
%ADD17C,0.250000*%
G04 #@! TD*
G04 APERTURE END LIST*
D10*
X69460000Y-102350000D03*
X74340000Y-102350000D03*
D11*
X113030000Y-119634000D03*
X113030000Y-122174000D03*
X110490000Y-119634000D03*
X110490000Y-122174000D03*
X107950000Y-119634000D03*
D12*
X107950000Y-122174000D03*
D11*
X104394000Y-119634000D03*
X104394000Y-122174000D03*
X101854000Y-119634000D03*
X101854000Y-122174000D03*
X99314000Y-119634000D03*
D12*
X99314000Y-122174000D03*
D13*
X82824360Y-134361240D03*
X91084360Y-134361240D03*
X91444360Y-140311240D03*
X82464360Y-140311240D03*
D14*
X101540000Y-86950000D03*
D15*
X99040000Y-86950000D03*
D14*
X101540000Y-78950000D03*
D15*
X99040000Y-78950000D03*
D14*
X75040000Y-86950000D03*
D15*
X72540000Y-86950000D03*
D14*
X75040000Y-78950000D03*
D15*
X72540000Y-78950000D03*
D14*
X101500000Y-111480000D03*
D15*
X101500000Y-113980000D03*
D16*
X67980000Y-111990000D03*
X70380000Y-114080000D03*
X73864972Y-116115028D03*
X75257934Y-112955835D03*
X57404000Y-119634000D03*
X88900000Y-109474000D03*
X61880000Y-102750000D03*
X63750000Y-124660000D03*
X109110000Y-111870000D03*
X79370000Y-115620000D03*
X73150000Y-97410000D03*
X75543847Y-98583847D03*
X69450000Y-93170000D03*
X70880000Y-105440000D03*
X71260000Y-100710000D03*
X80520961Y-113550266D03*
X77990000Y-112400000D03*
X78260000Y-110220000D03*
X108290000Y-101190000D03*
X60470000Y-116580000D03*
X69980000Y-115940000D03*
X90932000Y-109728000D03*
X100076000Y-91440000D03*
X103124000Y-90505000D03*
X102362000Y-85598000D03*
X99314000Y-85598000D03*
X78940000Y-117350000D03*
X78745000Y-119677347D03*
X98085010Y-116970000D03*
X92965000Y-118804998D03*
X90190000Y-119163000D03*
X88260000Y-118280000D03*
X75438000Y-108966000D03*
X75438000Y-107030000D03*
X111760000Y-98552000D03*
X78950000Y-82820000D03*
X63060000Y-92580000D03*
X82060000Y-80960000D03*
X67880000Y-89420000D03*
X73370000Y-131680000D03*
X63040000Y-89975000D03*
X89190000Y-82730000D03*
X87610000Y-90510000D03*
X92520000Y-90150000D03*
X92550000Y-81810000D03*
X66270000Y-89030000D03*
X76850000Y-76460000D03*
X82490000Y-78250000D03*
X75454851Y-82095000D03*
X72060000Y-85280000D03*
X69480000Y-88530000D03*
X79100000Y-126950000D03*
X70060000Y-91080000D03*
X86678598Y-90146004D03*
X89290000Y-78380000D03*
X90420000Y-91235000D03*
X92510000Y-76290000D03*
X55880000Y-112485000D03*
X59436000Y-105255000D03*
X66040000Y-103632000D03*
X71374000Y-103632000D03*
X92964000Y-105156000D03*
X103886000Y-104902000D03*
X93590000Y-136540000D03*
X60470000Y-126290000D03*
X57560000Y-123130000D03*
X54710000Y-118270000D03*
X54836749Y-116274347D03*
X57250000Y-116650000D03*
X74443124Y-114621545D03*
X69840000Y-105460000D03*
X76980000Y-111840000D03*
X83610000Y-96565000D03*
X88481756Y-98335000D03*
X87720000Y-100840000D03*
X86230000Y-104340000D03*
X85960000Y-106220000D03*
X83675001Y-107691208D03*
X83790001Y-110382928D03*
X75335250Y-116560000D03*
X69460000Y-96550000D03*
X77530000Y-120905002D03*
X76568191Y-96239998D03*
X71570000Y-125140000D03*
X60300000Y-99740000D03*
X69570000Y-125580000D03*
X57049999Y-91690000D03*
X83070000Y-125160000D03*
X84020000Y-115770000D03*
X88490000Y-113650000D03*
X84040000Y-113630000D03*
X83651002Y-112490000D03*
X80820000Y-125420000D03*
X85620000Y-125471002D03*
X85390000Y-116150000D03*
X84780000Y-112830000D03*
X88720000Y-112560000D03*
X59944000Y-112585000D03*
X53848000Y-112014000D03*
X70800000Y-117580000D03*
X81510000Y-115050000D03*
X72970000Y-117345000D03*
X75433347Y-105922653D03*
X77978000Y-105918000D03*
X85852000Y-135382000D03*
X86868000Y-131064000D03*
X90678000Y-130302000D03*
X87630000Y-135382000D03*
X89916000Y-131318000D03*
X112450000Y-109950000D03*
X102670000Y-108920000D03*
D17*
X96250012Y-118804998D02*
X98085010Y-116970000D01*
X92965000Y-118804998D02*
X96250012Y-118804998D01*
X61059000Y-103632000D02*
X59436000Y-105255000D01*
X66040000Y-103632000D02*
X61059000Y-103632000D01*
M02*
