G04 #@! TF.GenerationSoftware,KiCad,Pcbnew,(5.1.9)-1*
G04 #@! TF.CreationDate,2021-04-13T17:11:41+02:00*
G04 #@! TF.ProjectId,sh_control,73685f63-6f6e-4747-926f-6c2e6b696361,rev?*
G04 #@! TF.SameCoordinates,Original*
G04 #@! TF.FileFunction,Paste,Bot*
G04 #@! TF.FilePolarity,Positive*
%FSLAX46Y46*%
G04 Gerber Fmt 4.6, Leading zero omitted, Abs format (unit mm)*
G04 Created by KiCad (PCBNEW (5.1.9)-1) date 2021-04-13 17:11:41*
%MOMM*%
%LPD*%
G01*
G04 APERTURE LIST*
%ADD10R,1.800000X1.050000*%
%ADD11R,2.000000X5.500000*%
%ADD12R,1.050000X1.800000*%
%ADD13R,1.200000X1.800000*%
%ADD14R,1.500000X0.900000*%
%ADD15R,1.100000X1.550000*%
%ADD16R,1.700000X0.450000*%
%ADD17R,1.500000X0.600000*%
%ADD18R,0.600000X1.500000*%
%ADD19R,2.110000X1.350000*%
%ADD20R,1.820000X1.020000*%
%ADD21R,1.050000X1.820000*%
%ADD22R,1.020000X1.820000*%
%ADD23R,1.390000X0.960000*%
G04 APERTURE END LIST*
D10*
X57550000Y-98900000D03*
X57550000Y-95900000D03*
D11*
X107320000Y-115220000D03*
X107320000Y-105720000D03*
D12*
X59960000Y-109740000D03*
X62960000Y-109740000D03*
X59940000Y-107240000D03*
X62940000Y-107240000D03*
D10*
X93710000Y-122930000D03*
X93710000Y-119930000D03*
D12*
X79526000Y-112268000D03*
X82526000Y-112268000D03*
X82550000Y-106934000D03*
X79550000Y-106934000D03*
D13*
X97720000Y-108380000D03*
X100720000Y-108380000D03*
D12*
X82042000Y-104394000D03*
X79042000Y-104394000D03*
D14*
X112470000Y-97290000D03*
X112470000Y-93990000D03*
X107570000Y-93990000D03*
X107570000Y-97290000D03*
X103356000Y-97290000D03*
X103356000Y-93990000D03*
X98456000Y-93990000D03*
X98456000Y-97290000D03*
X94242000Y-97290000D03*
X94242000Y-93990000D03*
X89342000Y-93990000D03*
X89342000Y-97290000D03*
X85128000Y-97290000D03*
X85128000Y-93990000D03*
X80228000Y-93990000D03*
X80228000Y-97290000D03*
X76014000Y-97290000D03*
X76014000Y-93990000D03*
X71114000Y-93990000D03*
X71114000Y-97290000D03*
X66900000Y-97290000D03*
X66900000Y-93990000D03*
X62000000Y-93990000D03*
X62000000Y-97290000D03*
D15*
X57590000Y-109760000D03*
X54590000Y-109760000D03*
X57610000Y-107070000D03*
X54610000Y-107070000D03*
X91340000Y-122440000D03*
X88340000Y-122440000D03*
D16*
X65980000Y-105805000D03*
X65980000Y-106455000D03*
X65980000Y-107105000D03*
X65980000Y-107755000D03*
X65980000Y-108405000D03*
X65980000Y-109055000D03*
X65980000Y-109705000D03*
X65980000Y-110355000D03*
X65980000Y-111005000D03*
X65980000Y-111655000D03*
X65980000Y-112305000D03*
X65980000Y-112955000D03*
X65980000Y-113605000D03*
X65980000Y-114255000D03*
X72980000Y-114255000D03*
X72980000Y-113605000D03*
X72980000Y-112955000D03*
X72980000Y-112305000D03*
X72980000Y-111655000D03*
X72980000Y-111005000D03*
X72980000Y-110355000D03*
X72980000Y-109705000D03*
X72980000Y-109055000D03*
X72980000Y-108405000D03*
X72980000Y-107755000D03*
X72980000Y-107105000D03*
X72980000Y-106455000D03*
X72980000Y-105805000D03*
D17*
X86640000Y-109120000D03*
X86640000Y-109920000D03*
X86640000Y-110720000D03*
X86640000Y-111520000D03*
X86640000Y-112320000D03*
X86640000Y-113120000D03*
X86640000Y-113920000D03*
X86640000Y-114720000D03*
D18*
X88090000Y-116170000D03*
X88890000Y-116170000D03*
X89690000Y-116170000D03*
X90490000Y-116170000D03*
X91290000Y-116170000D03*
X92090000Y-116170000D03*
X92890000Y-116170000D03*
X93690000Y-116170000D03*
D17*
X95140000Y-114720000D03*
X95140000Y-113920000D03*
X95140000Y-113120000D03*
X95140000Y-112320000D03*
X95140000Y-111520000D03*
X95140000Y-110720000D03*
X95140000Y-109920000D03*
X95140000Y-109120000D03*
D18*
X93690000Y-107670000D03*
X92890000Y-107670000D03*
X92090000Y-107670000D03*
X91290000Y-107670000D03*
X90490000Y-107670000D03*
X89690000Y-107670000D03*
X88890000Y-107670000D03*
X88090000Y-107670000D03*
D19*
X77270000Y-122390000D03*
X77270000Y-119630000D03*
X74340000Y-122390000D03*
X74340000Y-119630000D03*
X71410000Y-122390000D03*
X71410000Y-119630000D03*
X68480000Y-122390000D03*
X68480000Y-119630000D03*
X65550000Y-122390000D03*
X65550000Y-119630000D03*
D20*
X62770000Y-122555000D03*
X62770000Y-119755000D03*
X60140000Y-122555000D03*
X60140000Y-119755000D03*
X63010000Y-111990000D03*
X63010000Y-114790000D03*
D21*
X110504000Y-100584000D03*
X113284000Y-100584000D03*
X101480000Y-100584000D03*
X104260000Y-100584000D03*
X92336000Y-100584000D03*
X95116000Y-100584000D03*
X83326000Y-100330000D03*
X86106000Y-100330000D03*
X74048000Y-100330000D03*
X76828000Y-100330000D03*
X65038000Y-100584000D03*
X67818000Y-100584000D03*
D22*
X91090000Y-119990000D03*
X88290000Y-119990000D03*
X82680000Y-109474000D03*
X79880000Y-109474000D03*
D20*
X82480000Y-121540000D03*
X82480000Y-118740000D03*
D23*
X111400000Y-115210000D03*
X111400000Y-113590000D03*
X111420000Y-105950000D03*
X111420000Y-107570000D03*
M02*
