G04 #@! TF.GenerationSoftware,KiCad,Pcbnew,(5.1.9)-1*
G04 #@! TF.CreationDate,2021-05-01T17:45:06+02:00*
G04 #@! TF.ProjectId,sh_control,73685f63-6f6e-4747-926f-6c2e6b696361,3.2*
G04 #@! TF.SameCoordinates,Original*
G04 #@! TF.FileFunction,Legend,Bot*
G04 #@! TF.FilePolarity,Positive*
%FSLAX46Y46*%
G04 Gerber Fmt 4.6, Leading zero omitted, Abs format (unit mm)*
G04 Created by KiCad (PCBNEW (5.1.9)-1) date 2021-05-01 17:45:06*
%MOMM*%
%LPD*%
G01*
G04 APERTURE LIST*
%ADD10C,1.500000*%
%ADD11C,1.600000*%
%ADD12R,1.500000X1.600000*%
%ADD13C,3.000000*%
%ADD14C,1.050000*%
%ADD15R,1.050000X1.050000*%
%ADD16C,1.192000*%
%ADD17C,1.725000*%
%ADD18R,1.725000X1.725000*%
%ADD19O,1.200000X1.900000*%
%ADD20C,1.450000*%
%ADD21C,0.800000*%
%ADD22C,6.400000*%
%ADD23R,1.575000X1.575000*%
%ADD24C,1.575000*%
%ADD25C,0.900000*%
G04 APERTURE END LIST*
%LPC*%
D10*
X168742800Y-110717400D03*
X168742800Y-104217400D03*
X173242800Y-110717400D03*
X173242800Y-104217400D03*
D11*
X188722000Y-65898000D03*
X188722000Y-68398000D03*
X188722000Y-70398000D03*
D12*
X188722000Y-72898000D03*
D13*
X191432000Y-62828000D03*
X191432000Y-75968000D03*
D11*
X188722000Y-104760000D03*
X188722000Y-107260000D03*
X188722000Y-109260000D03*
D12*
X188722000Y-111760000D03*
D13*
X191432000Y-101690000D03*
X191432000Y-114830000D03*
D14*
X188722000Y-82510000D03*
D15*
X188722000Y-80010000D03*
D14*
X188722000Y-98004000D03*
D15*
X188722000Y-95504000D03*
D16*
X141795500Y-86623500D03*
X141795500Y-91503500D03*
D11*
X121158000Y-72532000D03*
X121158000Y-70032000D03*
X121158000Y-68032000D03*
D12*
X121158000Y-65532000D03*
D13*
X118448000Y-75602000D03*
X118448000Y-62462000D03*
D11*
X121158000Y-111648000D03*
X121158000Y-109148000D03*
X121158000Y-107148000D03*
D12*
X121158000Y-104648000D03*
D13*
X118448000Y-114718000D03*
X118448000Y-101578000D03*
D17*
X167640000Y-65024000D03*
X167640000Y-67564000D03*
X165100000Y-65024000D03*
X165100000Y-67564000D03*
X162560000Y-65024000D03*
D18*
X162560000Y-67564000D03*
D17*
X147574000Y-65024000D03*
X147574000Y-67564000D03*
X145034000Y-65024000D03*
X145034000Y-67564000D03*
X142494000Y-65024000D03*
D18*
X142494000Y-67564000D03*
D19*
X158440000Y-126459500D03*
X151440000Y-126459500D03*
D20*
X157440000Y-123759500D03*
X152440000Y-123759500D03*
D21*
X118537056Y-121238944D03*
X116840000Y-120536000D03*
X115142944Y-121238944D03*
X114440000Y-122936000D03*
X115142944Y-124633056D03*
X116840000Y-125336000D03*
X118537056Y-124633056D03*
X119240000Y-122936000D03*
D22*
X116840000Y-122936000D03*
D21*
X194737056Y-36630944D03*
X193040000Y-35928000D03*
X191342944Y-36630944D03*
X190640000Y-38328000D03*
X191342944Y-40025056D03*
X193040000Y-40728000D03*
X194737056Y-40025056D03*
X195440000Y-38328000D03*
D22*
X193040000Y-38328000D03*
D21*
X118537056Y-36630944D03*
X116840000Y-35928000D03*
X115142944Y-36630944D03*
X114440000Y-38328000D03*
X115142944Y-40025056D03*
X116840000Y-40728000D03*
X118537056Y-40025056D03*
X119240000Y-38328000D03*
D22*
X116840000Y-38328000D03*
D21*
X194737056Y-121238944D03*
X193040000Y-120536000D03*
X191342944Y-121238944D03*
X190640000Y-122936000D03*
X191342944Y-124633056D03*
X193040000Y-125336000D03*
X194737056Y-124633056D03*
X195440000Y-122936000D03*
D22*
X193040000Y-122936000D03*
D23*
X152864000Y-58828000D03*
D24*
X166964000Y-58828000D03*
D23*
X169758000Y-45112000D03*
D24*
X155658000Y-45112000D03*
D14*
X121158000Y-79542000D03*
D15*
X121158000Y-82042000D03*
D14*
X121158000Y-95036000D03*
D15*
X121158000Y-97536000D03*
X155448000Y-94234000D03*
D14*
X156948000Y-94234000D03*
D15*
X143002000Y-78994000D03*
D14*
X143002000Y-80494000D03*
D15*
X164338000Y-113284000D03*
D14*
X164338000Y-114784000D03*
D25*
X126712000Y-49554000D03*
X126712000Y-51044000D03*
M02*
