G04 #@! TF.GenerationSoftware,KiCad,Pcbnew,(5.1.9)-1*
G04 #@! TF.CreationDate,2021-04-13T17:11:41+02:00*
G04 #@! TF.ProjectId,sh_control,73685f63-6f6e-4747-926f-6c2e6b696361,rev?*
G04 #@! TF.SameCoordinates,Original*
G04 #@! TF.FileFunction,Paste,Top*
G04 #@! TF.FilePolarity,Positive*
%FSLAX46Y46*%
G04 Gerber Fmt 4.6, Leading zero omitted, Abs format (unit mm)*
G04 Created by KiCad (PCBNEW (5.1.9)-1) date 2021-04-13 17:11:41*
%MOMM*%
%LPD*%
G01*
G04 APERTURE LIST*
%ADD10R,0.600000X1.475000*%
%ADD11R,1.475000X0.600000*%
%ADD12R,1.050000X1.400000*%
%ADD13R,1.200000X1.800000*%
%ADD14R,1.050000X1.800000*%
%ADD15R,1.800000X1.200000*%
%ADD16R,1.700000X1.100000*%
%ADD17R,1.050000X1.750000*%
%ADD18R,1.800000X1.050000*%
%ADD19R,1.100000X1.700000*%
%ADD20R,0.300000X0.700000*%
%ADD21R,1.750000X3.200000*%
%ADD22R,1.750000X0.950000*%
%ADD23R,1.200000X0.600000*%
%ADD24R,3.430000X0.850000*%
%ADD25R,1.600000X2.250000*%
%ADD26R,2.250000X1.600000*%
%ADD27R,1.820000X1.020000*%
%ADD28R,1.820000X1.050000*%
%ADD29R,2.110000X1.350000*%
%ADD30R,1.020000X1.820000*%
%ADD31R,1.870000X1.030000*%
%ADD32R,1.030000X1.870000*%
G04 APERTURE END LIST*
D10*
X69550000Y-111912000D03*
X70350000Y-111912000D03*
X71150000Y-111912000D03*
X71950000Y-111912000D03*
X72750000Y-111912000D03*
X73550000Y-111912000D03*
X74350000Y-111912000D03*
X75150000Y-111912000D03*
D11*
X76588000Y-113350000D03*
X76588000Y-114150000D03*
X76588000Y-114950000D03*
X76588000Y-115750000D03*
X76588000Y-116550000D03*
X76588000Y-117350000D03*
X76588000Y-118150000D03*
X76588000Y-118950000D03*
D10*
X75150000Y-120388000D03*
X74350000Y-120388000D03*
X73550000Y-120388000D03*
X72750000Y-120388000D03*
X71950000Y-120388000D03*
X71150000Y-120388000D03*
X70350000Y-120388000D03*
X69550000Y-120388000D03*
D11*
X68112000Y-118950000D03*
X68112000Y-118150000D03*
X68112000Y-117350000D03*
X68112000Y-116550000D03*
X68112000Y-115750000D03*
X68112000Y-114950000D03*
X68112000Y-114150000D03*
X68112000Y-113350000D03*
D12*
X68050000Y-109520000D03*
X69950000Y-109520000D03*
D13*
X89686000Y-101854000D03*
X92686000Y-101854000D03*
D14*
X89686000Y-99060000D03*
X92686000Y-99060000D03*
D15*
X73730000Y-92940000D03*
X73730000Y-95940000D03*
X85970000Y-95900000D03*
X85970000Y-92900000D03*
X78540000Y-92950000D03*
X78540000Y-95950000D03*
D16*
X76140000Y-92890000D03*
X76140000Y-95790000D03*
X71250000Y-92930000D03*
X71250000Y-95830000D03*
X88360000Y-92850000D03*
X88360000Y-95750000D03*
X83520000Y-92850000D03*
X83520000Y-95750000D03*
D15*
X67802000Y-91080000D03*
X67802000Y-94080000D03*
D16*
X76810000Y-126850000D03*
X76810000Y-123950000D03*
D17*
X76800000Y-107290000D03*
X73900000Y-107290000D03*
D15*
X65008000Y-91080000D03*
X65008000Y-94080000D03*
D16*
X74260000Y-126910000D03*
X74260000Y-124010000D03*
D15*
X58430000Y-94800000D03*
X58430000Y-97800000D03*
D16*
X60890000Y-97630000D03*
X60890000Y-94730000D03*
D15*
X60920000Y-89250000D03*
X60920000Y-92250000D03*
D16*
X58550000Y-92080000D03*
X58550000Y-89180000D03*
D17*
X67560000Y-123220000D03*
X70460000Y-123220000D03*
D15*
X81110000Y-95900000D03*
X81110000Y-92900000D03*
D12*
X65030000Y-110910000D03*
X63130000Y-110910000D03*
D18*
X59830000Y-121170000D03*
X59830000Y-118170000D03*
D19*
X65030000Y-113310000D03*
X62130000Y-113310000D03*
X65030000Y-115680000D03*
X62130000Y-115680000D03*
D20*
X89704360Y-132451240D03*
X89204360Y-132451240D03*
X88704360Y-132451240D03*
X88204360Y-132451240D03*
X87704360Y-132451240D03*
X87204360Y-132451240D03*
X86704360Y-132451240D03*
X86204360Y-132451240D03*
X85704360Y-132451240D03*
X85204360Y-132451240D03*
X84704360Y-132451240D03*
X83954360Y-134151240D03*
X84454360Y-134151240D03*
X84954360Y-134151240D03*
X85454360Y-134151240D03*
X85954360Y-134151240D03*
X86454360Y-134151240D03*
X86954360Y-134151240D03*
X87454360Y-134151240D03*
X87954360Y-134151240D03*
X88454360Y-134151240D03*
X88954360Y-134151240D03*
X89454360Y-134151240D03*
X84204360Y-132451240D03*
D21*
X101956000Y-104140000D03*
D22*
X95656000Y-106440000D03*
X95656000Y-104140000D03*
X95656000Y-101840000D03*
D23*
X56890000Y-113180000D03*
X56890000Y-114130000D03*
X56890000Y-115080000D03*
X54390000Y-115080000D03*
X54390000Y-114130000D03*
X54390000Y-113180000D03*
D24*
X86106000Y-124446000D03*
X86106000Y-129046000D03*
X90170000Y-124446000D03*
X90170000Y-129046000D03*
D25*
X86360000Y-122174000D03*
X86360000Y-118074000D03*
X90424000Y-122192000D03*
X90424000Y-118092000D03*
D26*
X102126000Y-98298000D03*
X98026000Y-98298000D03*
D27*
X105918000Y-103632000D03*
X105918000Y-100832000D03*
X92964000Y-111128000D03*
X92964000Y-108328000D03*
D28*
X89408000Y-111118000D03*
X89408000Y-108338000D03*
D29*
X85852000Y-108348000D03*
X85852000Y-111108000D03*
D30*
X73850000Y-109750000D03*
X76650000Y-109750000D03*
D28*
X79950000Y-110360000D03*
X79950000Y-107580000D03*
D31*
X64060000Y-99730000D03*
X64060000Y-102570000D03*
D27*
X56620000Y-120860000D03*
X56620000Y-118060000D03*
D32*
X67980000Y-107310000D03*
X70820000Y-107310000D03*
D27*
X64740000Y-118070000D03*
X64740000Y-120870000D03*
D28*
X62360000Y-118070000D03*
X62360000Y-120850000D03*
M02*
