M48
; DRILL file {KiCad (5.1.9)-1} date 05/01/21 17:45:10
; FORMAT={-:-/ absolute / metric / decimal}
; #@! TF.CreationDate,2021-05-01T17:45:10+02:00
; #@! TF.GenerationSoftware,Kicad,Pcbnew,(5.1.9)-1
; #@! TF.FileFunction,Plated,1,4,PTH
FMAT,2
METRIC
T1C0.400
T2C0.500
T3C0.600
T4C0.650
T5C0.850
T6C0.950
T7C1.000
T8C1.050
T9C1.150
T10C2.300
T11C3.200
%
G90
G05
T1
X120.142Y-94.234
X126.746Y-74.549
X126.873Y-63.627
X128.143Y-113.347
X128.207Y-52.07
X128.207Y-102.806
X128.397Y-73.977
X128.46Y-64.198
X129.667Y-68.459
X129.667Y-69.463
X129.984Y-90.868
X130.175Y-52.133
X131.762Y-83.502
X132.27Y-49.847
X132.398Y-92.202
X132.461Y-52.133
X133.096Y-83.502
X134.036Y-109.017
X134.112Y-107.061
X134.282Y-94.969
X135.28Y-95.021
X135.56Y-75.362
X135.953Y-51.117
X136.017Y-78.994
X136.271Y-110.934
X136.525Y-41.084
X137.605Y-52.387
X137.77Y-74.295
X139.51Y-50.927
X141.986Y-45.148
X144.208Y-78.994
X144.208Y-80.391
X145.923Y-47.688
X146.431Y-122.301
X146.749Y-57.658
X146.939Y-118.491
X147.383Y-77.47
X148.272Y-91.567
X148.971Y-80.01
X149.251Y-100.61
X149.542Y-95.948
X149.796Y-46.609
X149.961Y-101.32
X149.987Y-117.221
X150.368Y-57.658
X150.628Y-69.382
X151.003Y-120.65
X151.511Y-100.711
X151.632Y-69.382
X152.59Y-84.455
X152.59Y-84.455
X152.59Y-85.407
X152.654Y-107.378
X152.908Y-121.158
X154.051Y-116.713
X154.305Y-94.234
X154.305Y-120.904
X154.623Y-84.391
X154.749Y-77.724
X155.448Y-93.091
X155.448Y-95.441
X155.511Y-99.187
X155.575Y-105.918
X155.734Y-83.121
X155.829Y-77.47
X156.21Y-122.301
X156.34Y-124.909
X156.4Y-90.907
X156.499Y-121.287
X156.591Y-101.981
X156.591Y-104.14
X156.734Y-83.121
X157.353Y-95.441
X157.734Y-83.121
X157.734Y-121.666
X158.115Y-39.116
X158.814Y-89.599
X158.877Y-90.868
X158.94Y-96.774
X159.321Y-68.516
X159.893Y-107.251
X160.21Y-41.084
X161.036Y-85.217
X161.226Y-100.52
X161.353Y-90.614
X161.734Y-105.6
X161.798Y-84.201
X161.798Y-89.471
X161.988Y-79.311
X162.231Y-83.299
X162.433Y-119.126
X162.56Y-63.055
X162.56Y-120.65
X162.56Y-124.333
X162.941Y-77.66
X163.893Y-91.821
X164.211Y-121.158
X164.274Y-55.435
X164.338Y-119.253
X164.655Y-100.901
X165.1Y-62.992
X166.116Y-95.186
X166.726Y-84.988
X167.64Y-62.928
X167.996Y-85.344
X169.012Y-86.372
X169.291Y-74.369
X169.291Y-75.372
X170.059Y-78.613
X170.282Y-86.474
X170.46Y-92.736
X171.063Y-78.613
X171.132Y-98.108
X171.17Y-93.446
X172.212Y-56.642
X174.117Y-96.71
X174.498Y-82.194
X174.549Y-85.801
X175.006Y-89.471
X176.213Y-54.419
X176.403Y-49.593
X177.101Y-54.419
X177.292Y-49.593
X177.366Y-83.21
X177.366Y-89.725
X177.698Y-39.065
X177.8Y-45.91
X177.99Y-94.361
X179.324Y-53.149
X179.731Y-69.749
X180.34Y-107.575
X180.34Y-108.579
X180.441Y-70.459
X180.657Y-86.804
X183.007Y-113.919
X183.07Y-102.362
X183.074Y-81.169
X183.134Y-63.182
X183.134Y-75.374
X183.398Y-82.966
X183.82Y-38.659
X183.947Y-80.213
X183.959Y-41.148
X184.404Y-94.17
X184.785Y-50.228
X185.992Y-48.768
X185.992Y-88.075
X186.03Y-89.256
X186.233Y-85.242
T2
X114.44Y-38.328
X114.44Y-122.936
X115.143Y-36.631
X115.143Y-40.025
X115.143Y-121.239
X115.143Y-124.633
X116.84Y-35.928
X116.84Y-40.728
X116.84Y-120.536
X116.84Y-125.336
X118.537Y-36.631
X118.537Y-40.025
X118.537Y-121.239
X118.537Y-124.633
X119.24Y-38.328
X119.24Y-122.936
X190.64Y-38.328
X190.64Y-122.936
X191.343Y-36.631
X191.343Y-40.025
X191.343Y-121.239
X191.343Y-124.633
X193.04Y-35.928
X193.04Y-40.728
X193.04Y-120.536
X193.04Y-125.336
X194.737Y-36.631
X194.737Y-40.025
X194.737Y-121.239
X194.737Y-124.633
X195.44Y-38.328
X195.44Y-122.936
T3
X126.712Y-49.554
X126.712Y-51.044
T4
X121.158Y-79.542
X121.158Y-82.042
X121.158Y-95.036
X121.158Y-97.536
X141.796Y-86.623
X141.796Y-91.504
X143.002Y-78.994
X143.002Y-80.494
X155.448Y-94.234
X156.948Y-94.234
X164.338Y-113.284
X164.338Y-114.784
X188.722Y-80.01
X188.722Y-82.51
X188.722Y-95.504
X188.722Y-98.004
T5
X152.44Y-123.759
X157.44Y-123.759
T6
X121.158Y-65.532
X121.158Y-68.032
X121.158Y-70.032
X121.158Y-72.532
X121.158Y-104.648
X121.158Y-107.148
X121.158Y-109.148
X121.158Y-111.648
X188.722Y-65.898
X188.722Y-68.398
X188.722Y-70.398
X188.722Y-72.898
X188.722Y-104.76
X188.722Y-107.26
X188.722Y-109.26
X188.722Y-111.76
T7
X168.743Y-104.217
X168.743Y-110.717
X173.243Y-104.217
X173.243Y-110.717
T8
X152.864Y-58.828
X155.658Y-45.112
X166.964Y-58.828
X169.758Y-45.112
T9
X142.494Y-65.024
X142.494Y-67.564
X145.034Y-65.024
X145.034Y-67.564
X147.574Y-65.024
X147.574Y-67.564
X162.56Y-65.024
X162.56Y-67.564
X165.1Y-65.024
X165.1Y-67.564
X167.64Y-65.024
X167.64Y-67.564
T10
X118.448Y-62.462
X118.448Y-75.602
X118.448Y-101.578
X118.448Y-114.718
X191.432Y-62.828
X191.432Y-75.968
X191.432Y-101.69
X191.432Y-114.83
T11
X116.84Y-38.328
X116.84Y-122.936
X193.04Y-38.328
X193.04Y-122.936
T3
X151.44Y-126.809G85X151.44Y-126.109
G05
X158.44Y-126.109G85X158.44Y-126.809
G05
T0
M30
