%TF.GenerationSoftware,KiCad,Pcbnew,(5.1.10)-1*%
%TF.CreationDate,2021-09-15T18:07:19+02:00*%
%TF.ProjectId,sh_control,73685f63-6f6e-4747-926f-6c2e6b696361,rev?*%
%TF.SameCoordinates,Original*%
%TF.FileFunction,Soldermask,Top*%
%TF.FilePolarity,Negative*%
%FSLAX46Y46*%
G04 Gerber Fmt 4.6, Leading zero omitted, Abs format (unit mm)*
G04 Created by KiCad (PCBNEW (5.1.10)-1) date 2021-09-15 18:07:19*
%MOMM*%
%LPD*%
G01*
G04 APERTURE LIST*
%ADD10O,1.700000X1.950000*%
%ADD11O,1.350000X1.350000*%
%ADD12R,1.350000X1.350000*%
%ADD13R,0.400000X1.200000*%
%ADD14C,0.700000*%
%ADD15C,4.400000*%
%ADD16O,1.950000X1.700000*%
%ADD17R,0.400000X1.600000*%
%ADD18C,2.640000*%
%ADD19C,1.200000*%
%ADD20C,2.000000*%
%ADD21R,2.000000X4.500000*%
%ADD22R,0.550000X1.600000*%
%ADD23R,1.600000X0.550000*%
%ADD24R,0.450000X1.750000*%
%ADD25R,1.200000X1.400000*%
G04 APERTURE END LIST*
%TO.C,F1*%
G36*
G01*
X121401501Y-57565000D02*
X118501499Y-57565000D01*
G75*
G02*
X118251500Y-57315001I0J249999D01*
G01*
X118251500Y-56689999D01*
G75*
G02*
X118501499Y-56440000I249999J0D01*
G01*
X121401501Y-56440000D01*
G75*
G02*
X121651500Y-56689999I0J-249999D01*
G01*
X121651500Y-57315001D01*
G75*
G02*
X121401501Y-57565000I-249999J0D01*
G01*
G37*
G36*
G01*
X121401501Y-61840000D02*
X118501499Y-61840000D01*
G75*
G02*
X118251500Y-61590001I0J249999D01*
G01*
X118251500Y-60964999D01*
G75*
G02*
X118501499Y-60715000I249999J0D01*
G01*
X121401501Y-60715000D01*
G75*
G02*
X121651500Y-60964999I0J-249999D01*
G01*
X121651500Y-61590001D01*
G75*
G02*
X121401501Y-61840000I-249999J0D01*
G01*
G37*
%TD*%
D10*
%TO.C,J2*%
X142120000Y-88265000D03*
X139620000Y-88265000D03*
X137120000Y-88265000D03*
G36*
G01*
X133770000Y-88990000D02*
X133770000Y-87540000D01*
G75*
G02*
X134020000Y-87290000I250000J0D01*
G01*
X135220000Y-87290000D01*
G75*
G02*
X135470000Y-87540000I0J-250000D01*
G01*
X135470000Y-88990000D01*
G75*
G02*
X135220000Y-89240000I-250000J0D01*
G01*
X134020000Y-89240000D01*
G75*
G02*
X133770000Y-88990000I0J250000D01*
G01*
G37*
%TD*%
D11*
%TO.C,J9*%
X159638000Y-43021500D03*
X159638000Y-45021500D03*
X157638000Y-43021500D03*
X157638000Y-45021500D03*
X155638000Y-43021500D03*
X155638000Y-45021500D03*
X153638000Y-43021500D03*
X153638000Y-45021500D03*
X151638000Y-43021500D03*
D12*
X151638000Y-45021500D03*
%TD*%
D11*
%TO.C,J8*%
X152908000Y-72390000D03*
X154908000Y-72390000D03*
X152908000Y-74390000D03*
D12*
X154908000Y-74390000D03*
%TD*%
D11*
%TO.C,J5*%
X167481000Y-54959000D03*
X165481000Y-54959000D03*
X167481000Y-52959000D03*
X165481000Y-52959000D03*
X167481000Y-50959000D03*
D12*
X165481000Y-50959000D03*
%TD*%
D13*
%TO.C,U1*%
X160210500Y-68774000D03*
X160845500Y-68774000D03*
X161480500Y-68774000D03*
X162115500Y-68774000D03*
X162750500Y-68774000D03*
X163385500Y-68774000D03*
X164020500Y-68774000D03*
X164655500Y-68774000D03*
X165290500Y-68774000D03*
X165925500Y-68774000D03*
X166560500Y-68774000D03*
X167195500Y-68774000D03*
X167830500Y-68774000D03*
X168465500Y-68774000D03*
X168465500Y-73974000D03*
X167830500Y-73974000D03*
X167195500Y-73974000D03*
X166560500Y-73974000D03*
X165925500Y-73974000D03*
X165290500Y-73974000D03*
X164655500Y-73974000D03*
X164020500Y-73974000D03*
X163385500Y-73974000D03*
X162750500Y-73974000D03*
X162115500Y-73974000D03*
X161480500Y-73974000D03*
X160845500Y-73974000D03*
X160210500Y-73974000D03*
%TD*%
D14*
%TO.C,TP4*%
X120546726Y-80113274D03*
X119380000Y-79630000D03*
X118213274Y-80113274D03*
X117730000Y-81280000D03*
X118213274Y-82446726D03*
X119380000Y-82930000D03*
X120546726Y-82446726D03*
X121030000Y-81280000D03*
D15*
X119380000Y-81280000D03*
%TD*%
D14*
%TO.C,TP3*%
X120610226Y-42584774D03*
X119443500Y-42101500D03*
X118276774Y-42584774D03*
X117793500Y-43751500D03*
X118276774Y-44918226D03*
X119443500Y-45401500D03*
X120610226Y-44918226D03*
X121093500Y-43751500D03*
D15*
X119443500Y-43751500D03*
%TD*%
D14*
%TO.C,TP2*%
X172107726Y-42902274D03*
X170941000Y-42419000D03*
X169774274Y-42902274D03*
X169291000Y-44069000D03*
X169774274Y-45235726D03*
X170941000Y-45719000D03*
X172107726Y-45235726D03*
X172591000Y-44069000D03*
D15*
X170941000Y-44069000D03*
%TD*%
D14*
%TO.C,TP1*%
X172362726Y-80113274D03*
X171196000Y-79630000D03*
X170029274Y-80113274D03*
X169546000Y-81280000D03*
X170029274Y-82446726D03*
X171196000Y-82930000D03*
X172362726Y-82446726D03*
X172846000Y-81280000D03*
D15*
X171196000Y-81280000D03*
%TD*%
D16*
%TO.C,J7*%
X126174500Y-75889500D03*
X126174500Y-73389500D03*
X126174500Y-70889500D03*
G36*
G01*
X125449500Y-67539500D02*
X126899500Y-67539500D01*
G75*
G02*
X127149500Y-67789500I0J-250000D01*
G01*
X127149500Y-68989500D01*
G75*
G02*
X126899500Y-69239500I-250000J0D01*
G01*
X125449500Y-69239500D01*
G75*
G02*
X125199500Y-68989500I0J250000D01*
G01*
X125199500Y-67789500D01*
G75*
G02*
X125449500Y-67539500I250000J0D01*
G01*
G37*
%TD*%
%TO.C,R15*%
G36*
G01*
X146970000Y-60195750D02*
X146970000Y-60708250D01*
G75*
G02*
X146751250Y-60927000I-218750J0D01*
G01*
X146313750Y-60927000D01*
G75*
G02*
X146095000Y-60708250I0J218750D01*
G01*
X146095000Y-60195750D01*
G75*
G02*
X146313750Y-59977000I218750J0D01*
G01*
X146751250Y-59977000D01*
G75*
G02*
X146970000Y-60195750I0J-218750D01*
G01*
G37*
G36*
G01*
X148545000Y-60195750D02*
X148545000Y-60708250D01*
G75*
G02*
X148326250Y-60927000I-218750J0D01*
G01*
X147888750Y-60927000D01*
G75*
G02*
X147670000Y-60708250I0J218750D01*
G01*
X147670000Y-60195750D01*
G75*
G02*
X147888750Y-59977000I218750J0D01*
G01*
X148326250Y-59977000D01*
G75*
G02*
X148545000Y-60195750I0J-218750D01*
G01*
G37*
%TD*%
%TO.C,R14*%
G36*
G01*
X125532500Y-63116750D02*
X125532500Y-63629250D01*
G75*
G02*
X125313750Y-63848000I-218750J0D01*
G01*
X124876250Y-63848000D01*
G75*
G02*
X124657500Y-63629250I0J218750D01*
G01*
X124657500Y-63116750D01*
G75*
G02*
X124876250Y-62898000I218750J0D01*
G01*
X125313750Y-62898000D01*
G75*
G02*
X125532500Y-63116750I0J-218750D01*
G01*
G37*
G36*
G01*
X127107500Y-63116750D02*
X127107500Y-63629250D01*
G75*
G02*
X126888750Y-63848000I-218750J0D01*
G01*
X126451250Y-63848000D01*
G75*
G02*
X126232500Y-63629250I0J218750D01*
G01*
X126232500Y-63116750D01*
G75*
G02*
X126451250Y-62898000I218750J0D01*
G01*
X126888750Y-62898000D01*
G75*
G02*
X127107500Y-63116750I0J-218750D01*
G01*
G37*
%TD*%
D17*
%TO.C,J6*%
X146461000Y-39449000D03*
X145811000Y-39449000D03*
X145161000Y-39449000D03*
X144511000Y-39449000D03*
X143861000Y-39449000D03*
D18*
X141536000Y-36249000D03*
X148786000Y-36249000D03*
D19*
X142736000Y-38929000D03*
X147586000Y-38929000D03*
%TD*%
%TO.C,D15*%
G36*
G01*
X122740000Y-63629250D02*
X122740000Y-63116750D01*
G75*
G02*
X122958750Y-62898000I218750J0D01*
G01*
X123396250Y-62898000D01*
G75*
G02*
X123615000Y-63116750I0J-218750D01*
G01*
X123615000Y-63629250D01*
G75*
G02*
X123396250Y-63848000I-218750J0D01*
G01*
X122958750Y-63848000D01*
G75*
G02*
X122740000Y-63629250I0J218750D01*
G01*
G37*
G36*
G01*
X121165000Y-63629250D02*
X121165000Y-63116750D01*
G75*
G02*
X121383750Y-62898000I218750J0D01*
G01*
X121821250Y-62898000D01*
G75*
G02*
X122040000Y-63116750I0J-218750D01*
G01*
X122040000Y-63629250D01*
G75*
G02*
X121821250Y-63848000I-218750J0D01*
G01*
X121383750Y-63848000D01*
G75*
G02*
X121165000Y-63629250I0J218750D01*
G01*
G37*
%TD*%
D20*
%TO.C,SW2*%
X118618000Y-47856000D03*
X123118000Y-47856000D03*
X118618000Y-54356000D03*
X123118000Y-54356000D03*
%TD*%
%TO.C,R13*%
G36*
G01*
X161587500Y-57806000D02*
X161587500Y-57256000D01*
G75*
G02*
X161787500Y-57056000I200000J0D01*
G01*
X162187500Y-57056000D01*
G75*
G02*
X162387500Y-57256000I0J-200000D01*
G01*
X162387500Y-57806000D01*
G75*
G02*
X162187500Y-58006000I-200000J0D01*
G01*
X161787500Y-58006000D01*
G75*
G02*
X161587500Y-57806000I0J200000D01*
G01*
G37*
G36*
G01*
X159937500Y-57806000D02*
X159937500Y-57256000D01*
G75*
G02*
X160137500Y-57056000I200000J0D01*
G01*
X160537500Y-57056000D01*
G75*
G02*
X160737500Y-57256000I0J-200000D01*
G01*
X160737500Y-57806000D01*
G75*
G02*
X160537500Y-58006000I-200000J0D01*
G01*
X160137500Y-58006000D01*
G75*
G02*
X159937500Y-57806000I0J200000D01*
G01*
G37*
%TD*%
%TO.C,R12*%
G36*
G01*
X136419000Y-67076000D02*
X135869000Y-67076000D01*
G75*
G02*
X135669000Y-66876000I0J200000D01*
G01*
X135669000Y-66476000D01*
G75*
G02*
X135869000Y-66276000I200000J0D01*
G01*
X136419000Y-66276000D01*
G75*
G02*
X136619000Y-66476000I0J-200000D01*
G01*
X136619000Y-66876000D01*
G75*
G02*
X136419000Y-67076000I-200000J0D01*
G01*
G37*
G36*
G01*
X136419000Y-68726000D02*
X135869000Y-68726000D01*
G75*
G02*
X135669000Y-68526000I0J200000D01*
G01*
X135669000Y-68126000D01*
G75*
G02*
X135869000Y-67926000I200000J0D01*
G01*
X136419000Y-67926000D01*
G75*
G02*
X136619000Y-68126000I0J-200000D01*
G01*
X136619000Y-68526000D01*
G75*
G02*
X136419000Y-68726000I-200000J0D01*
G01*
G37*
%TD*%
%TO.C,R11*%
G36*
G01*
X134895000Y-67076000D02*
X134345000Y-67076000D01*
G75*
G02*
X134145000Y-66876000I0J200000D01*
G01*
X134145000Y-66476000D01*
G75*
G02*
X134345000Y-66276000I200000J0D01*
G01*
X134895000Y-66276000D01*
G75*
G02*
X135095000Y-66476000I0J-200000D01*
G01*
X135095000Y-66876000D01*
G75*
G02*
X134895000Y-67076000I-200000J0D01*
G01*
G37*
G36*
G01*
X134895000Y-68726000D02*
X134345000Y-68726000D01*
G75*
G02*
X134145000Y-68526000I0J200000D01*
G01*
X134145000Y-68126000D01*
G75*
G02*
X134345000Y-67926000I200000J0D01*
G01*
X134895000Y-67926000D01*
G75*
G02*
X135095000Y-68126000I0J-200000D01*
G01*
X135095000Y-68526000D01*
G75*
G02*
X134895000Y-68726000I-200000J0D01*
G01*
G37*
%TD*%
%TO.C,R10*%
G36*
G01*
X148864000Y-74401000D02*
X148864000Y-74951000D01*
G75*
G02*
X148664000Y-75151000I-200000J0D01*
G01*
X148264000Y-75151000D01*
G75*
G02*
X148064000Y-74951000I0J200000D01*
G01*
X148064000Y-74401000D01*
G75*
G02*
X148264000Y-74201000I200000J0D01*
G01*
X148664000Y-74201000D01*
G75*
G02*
X148864000Y-74401000I0J-200000D01*
G01*
G37*
G36*
G01*
X150514000Y-74401000D02*
X150514000Y-74951000D01*
G75*
G02*
X150314000Y-75151000I-200000J0D01*
G01*
X149914000Y-75151000D01*
G75*
G02*
X149714000Y-74951000I0J200000D01*
G01*
X149714000Y-74401000D01*
G75*
G02*
X149914000Y-74201000I200000J0D01*
G01*
X150314000Y-74201000D01*
G75*
G02*
X150514000Y-74401000I0J-200000D01*
G01*
G37*
%TD*%
%TO.C,R9*%
G36*
G01*
X148864000Y-72623000D02*
X148864000Y-73173000D01*
G75*
G02*
X148664000Y-73373000I-200000J0D01*
G01*
X148264000Y-73373000D01*
G75*
G02*
X148064000Y-73173000I0J200000D01*
G01*
X148064000Y-72623000D01*
G75*
G02*
X148264000Y-72423000I200000J0D01*
G01*
X148664000Y-72423000D01*
G75*
G02*
X148864000Y-72623000I0J-200000D01*
G01*
G37*
G36*
G01*
X150514000Y-72623000D02*
X150514000Y-73173000D01*
G75*
G02*
X150314000Y-73373000I-200000J0D01*
G01*
X149914000Y-73373000D01*
G75*
G02*
X149714000Y-73173000I0J200000D01*
G01*
X149714000Y-72623000D01*
G75*
G02*
X149914000Y-72423000I200000J0D01*
G01*
X150314000Y-72423000D01*
G75*
G02*
X150514000Y-72623000I0J-200000D01*
G01*
G37*
%TD*%
%TO.C,R8*%
G36*
G01*
X144251000Y-65132000D02*
X144801000Y-65132000D01*
G75*
G02*
X145001000Y-65332000I0J-200000D01*
G01*
X145001000Y-65732000D01*
G75*
G02*
X144801000Y-65932000I-200000J0D01*
G01*
X144251000Y-65932000D01*
G75*
G02*
X144051000Y-65732000I0J200000D01*
G01*
X144051000Y-65332000D01*
G75*
G02*
X144251000Y-65132000I200000J0D01*
G01*
G37*
G36*
G01*
X144251000Y-63482000D02*
X144801000Y-63482000D01*
G75*
G02*
X145001000Y-63682000I0J-200000D01*
G01*
X145001000Y-64082000D01*
G75*
G02*
X144801000Y-64282000I-200000J0D01*
G01*
X144251000Y-64282000D01*
G75*
G02*
X144051000Y-64082000I0J200000D01*
G01*
X144051000Y-63682000D01*
G75*
G02*
X144251000Y-63482000I200000J0D01*
G01*
G37*
%TD*%
%TO.C,R7*%
G36*
G01*
X157385500Y-58716500D02*
X157385500Y-59266500D01*
G75*
G02*
X157185500Y-59466500I-200000J0D01*
G01*
X156785500Y-59466500D01*
G75*
G02*
X156585500Y-59266500I0J200000D01*
G01*
X156585500Y-58716500D01*
G75*
G02*
X156785500Y-58516500I200000J0D01*
G01*
X157185500Y-58516500D01*
G75*
G02*
X157385500Y-58716500I0J-200000D01*
G01*
G37*
G36*
G01*
X159035500Y-58716500D02*
X159035500Y-59266500D01*
G75*
G02*
X158835500Y-59466500I-200000J0D01*
G01*
X158435500Y-59466500D01*
G75*
G02*
X158235500Y-59266500I0J200000D01*
G01*
X158235500Y-58716500D01*
G75*
G02*
X158435500Y-58516500I200000J0D01*
G01*
X158835500Y-58516500D01*
G75*
G02*
X159035500Y-58716500I0J-200000D01*
G01*
G37*
%TD*%
%TO.C,R6*%
G36*
G01*
X132884500Y-72370500D02*
X133434500Y-72370500D01*
G75*
G02*
X133634500Y-72570500I0J-200000D01*
G01*
X133634500Y-72970500D01*
G75*
G02*
X133434500Y-73170500I-200000J0D01*
G01*
X132884500Y-73170500D01*
G75*
G02*
X132684500Y-72970500I0J200000D01*
G01*
X132684500Y-72570500D01*
G75*
G02*
X132884500Y-72370500I200000J0D01*
G01*
G37*
G36*
G01*
X132884500Y-70720500D02*
X133434500Y-70720500D01*
G75*
G02*
X133634500Y-70920500I0J-200000D01*
G01*
X133634500Y-71320500D01*
G75*
G02*
X133434500Y-71520500I-200000J0D01*
G01*
X132884500Y-71520500D01*
G75*
G02*
X132684500Y-71320500I0J200000D01*
G01*
X132684500Y-70920500D01*
G75*
G02*
X132884500Y-70720500I200000J0D01*
G01*
G37*
%TD*%
%TO.C,R5*%
G36*
G01*
X131106500Y-72370500D02*
X131656500Y-72370500D01*
G75*
G02*
X131856500Y-72570500I0J-200000D01*
G01*
X131856500Y-72970500D01*
G75*
G02*
X131656500Y-73170500I-200000J0D01*
G01*
X131106500Y-73170500D01*
G75*
G02*
X130906500Y-72970500I0J200000D01*
G01*
X130906500Y-72570500D01*
G75*
G02*
X131106500Y-72370500I200000J0D01*
G01*
G37*
G36*
G01*
X131106500Y-70720500D02*
X131656500Y-70720500D01*
G75*
G02*
X131856500Y-70920500I0J-200000D01*
G01*
X131856500Y-71320500D01*
G75*
G02*
X131656500Y-71520500I-200000J0D01*
G01*
X131106500Y-71520500D01*
G75*
G02*
X130906500Y-71320500I0J200000D01*
G01*
X130906500Y-70920500D01*
G75*
G02*
X131106500Y-70720500I200000J0D01*
G01*
G37*
%TD*%
%TO.C,D9*%
G36*
G01*
X136654250Y-62616500D02*
X136141750Y-62616500D01*
G75*
G02*
X135923000Y-62397750I0J218750D01*
G01*
X135923000Y-61960250D01*
G75*
G02*
X136141750Y-61741500I218750J0D01*
G01*
X136654250Y-61741500D01*
G75*
G02*
X136873000Y-61960250I0J-218750D01*
G01*
X136873000Y-62397750D01*
G75*
G02*
X136654250Y-62616500I-218750J0D01*
G01*
G37*
G36*
G01*
X136654250Y-64191500D02*
X136141750Y-64191500D01*
G75*
G02*
X135923000Y-63972750I0J218750D01*
G01*
X135923000Y-63535250D01*
G75*
G02*
X136141750Y-63316500I218750J0D01*
G01*
X136654250Y-63316500D01*
G75*
G02*
X136873000Y-63535250I0J-218750D01*
G01*
X136873000Y-63972750D01*
G75*
G02*
X136654250Y-64191500I-218750J0D01*
G01*
G37*
%TD*%
%TO.C,D8*%
G36*
G01*
X134622250Y-62616500D02*
X134109750Y-62616500D01*
G75*
G02*
X133891000Y-62397750I0J218750D01*
G01*
X133891000Y-61960250D01*
G75*
G02*
X134109750Y-61741500I218750J0D01*
G01*
X134622250Y-61741500D01*
G75*
G02*
X134841000Y-61960250I0J-218750D01*
G01*
X134841000Y-62397750D01*
G75*
G02*
X134622250Y-62616500I-218750J0D01*
G01*
G37*
G36*
G01*
X134622250Y-64191500D02*
X134109750Y-64191500D01*
G75*
G02*
X133891000Y-63972750I0J218750D01*
G01*
X133891000Y-63535250D01*
G75*
G02*
X134109750Y-63316500I218750J0D01*
G01*
X134622250Y-63316500D01*
G75*
G02*
X134841000Y-63535250I0J-218750D01*
G01*
X134841000Y-63972750D01*
G75*
G02*
X134622250Y-64191500I-218750J0D01*
G01*
G37*
%TD*%
%TO.C,3V3*%
G36*
G01*
X144269750Y-68359000D02*
X144782250Y-68359000D01*
G75*
G02*
X145001000Y-68577750I0J-218750D01*
G01*
X145001000Y-69015250D01*
G75*
G02*
X144782250Y-69234000I-218750J0D01*
G01*
X144269750Y-69234000D01*
G75*
G02*
X144051000Y-69015250I0J218750D01*
G01*
X144051000Y-68577750D01*
G75*
G02*
X144269750Y-68359000I218750J0D01*
G01*
G37*
G36*
G01*
X144269750Y-66784000D02*
X144782250Y-66784000D01*
G75*
G02*
X145001000Y-67002750I0J-218750D01*
G01*
X145001000Y-67440250D01*
G75*
G02*
X144782250Y-67659000I-218750J0D01*
G01*
X144269750Y-67659000D01*
G75*
G02*
X144051000Y-67440250I0J218750D01*
G01*
X144051000Y-67002750D01*
G75*
G02*
X144269750Y-66784000I218750J0D01*
G01*
G37*
%TD*%
%TO.C,D6*%
G36*
G01*
X157422000Y-57147750D02*
X157422000Y-57660250D01*
G75*
G02*
X157203250Y-57879000I-218750J0D01*
G01*
X156765750Y-57879000D01*
G75*
G02*
X156547000Y-57660250I0J218750D01*
G01*
X156547000Y-57147750D01*
G75*
G02*
X156765750Y-56929000I218750J0D01*
G01*
X157203250Y-56929000D01*
G75*
G02*
X157422000Y-57147750I0J-218750D01*
G01*
G37*
G36*
G01*
X158997000Y-57147750D02*
X158997000Y-57660250D01*
G75*
G02*
X158778250Y-57879000I-218750J0D01*
G01*
X158340750Y-57879000D01*
G75*
G02*
X158122000Y-57660250I0J218750D01*
G01*
X158122000Y-57147750D01*
G75*
G02*
X158340750Y-56929000I218750J0D01*
G01*
X158778250Y-56929000D01*
G75*
G02*
X158997000Y-57147750I0J-218750D01*
G01*
G37*
%TD*%
%TO.C,C18*%
G36*
G01*
X133520000Y-81538000D02*
X133520000Y-82038000D01*
G75*
G02*
X133295000Y-82263000I-225000J0D01*
G01*
X132845000Y-82263000D01*
G75*
G02*
X132620000Y-82038000I0J225000D01*
G01*
X132620000Y-81538000D01*
G75*
G02*
X132845000Y-81313000I225000J0D01*
G01*
X133295000Y-81313000D01*
G75*
G02*
X133520000Y-81538000I0J-225000D01*
G01*
G37*
G36*
G01*
X135070000Y-81538000D02*
X135070000Y-82038000D01*
G75*
G02*
X134845000Y-82263000I-225000J0D01*
G01*
X134395000Y-82263000D01*
G75*
G02*
X134170000Y-82038000I0J225000D01*
G01*
X134170000Y-81538000D01*
G75*
G02*
X134395000Y-81313000I225000J0D01*
G01*
X134845000Y-81313000D01*
G75*
G02*
X135070000Y-81538000I0J-225000D01*
G01*
G37*
%TD*%
%TO.C,C17*%
G36*
G01*
X138092000Y-81030000D02*
X138092000Y-81530000D01*
G75*
G02*
X137867000Y-81755000I-225000J0D01*
G01*
X137417000Y-81755000D01*
G75*
G02*
X137192000Y-81530000I0J225000D01*
G01*
X137192000Y-81030000D01*
G75*
G02*
X137417000Y-80805000I225000J0D01*
G01*
X137867000Y-80805000D01*
G75*
G02*
X138092000Y-81030000I0J-225000D01*
G01*
G37*
G36*
G01*
X139642000Y-81030000D02*
X139642000Y-81530000D01*
G75*
G02*
X139417000Y-81755000I-225000J0D01*
G01*
X138967000Y-81755000D01*
G75*
G02*
X138742000Y-81530000I0J225000D01*
G01*
X138742000Y-81030000D01*
G75*
G02*
X138967000Y-80805000I225000J0D01*
G01*
X139417000Y-80805000D01*
G75*
G02*
X139642000Y-81030000I0J-225000D01*
G01*
G37*
%TD*%
%TO.C,C16*%
G36*
G01*
X140319999Y-68089000D02*
X141620001Y-68089000D01*
G75*
G02*
X141870000Y-68338999I0J-249999D01*
G01*
X141870000Y-68989001D01*
G75*
G02*
X141620001Y-69239000I-249999J0D01*
G01*
X140319999Y-69239000D01*
G75*
G02*
X140070000Y-68989001I0J249999D01*
G01*
X140070000Y-68338999D01*
G75*
G02*
X140319999Y-68089000I249999J0D01*
G01*
G37*
G36*
G01*
X140319999Y-65139000D02*
X141620001Y-65139000D01*
G75*
G02*
X141870000Y-65388999I0J-249999D01*
G01*
X141870000Y-66039001D01*
G75*
G02*
X141620001Y-66289000I-249999J0D01*
G01*
X140319999Y-66289000D01*
G75*
G02*
X140070000Y-66039001I0J249999D01*
G01*
X140070000Y-65388999D01*
G75*
G02*
X140319999Y-65139000I249999J0D01*
G01*
G37*
%TD*%
%TO.C,C15*%
G36*
G01*
X142752000Y-68334000D02*
X143252000Y-68334000D01*
G75*
G02*
X143477000Y-68559000I0J-225000D01*
G01*
X143477000Y-69009000D01*
G75*
G02*
X143252000Y-69234000I-225000J0D01*
G01*
X142752000Y-69234000D01*
G75*
G02*
X142527000Y-69009000I0J225000D01*
G01*
X142527000Y-68559000D01*
G75*
G02*
X142752000Y-68334000I225000J0D01*
G01*
G37*
G36*
G01*
X142752000Y-66784000D02*
X143252000Y-66784000D01*
G75*
G02*
X143477000Y-67009000I0J-225000D01*
G01*
X143477000Y-67459000D01*
G75*
G02*
X143252000Y-67684000I-225000J0D01*
G01*
X142752000Y-67684000D01*
G75*
G02*
X142527000Y-67459000I0J225000D01*
G01*
X142527000Y-67009000D01*
G75*
G02*
X142752000Y-66784000I225000J0D01*
G01*
G37*
%TD*%
%TO.C,C14*%
G36*
G01*
X149864000Y-78811000D02*
X150364000Y-78811000D01*
G75*
G02*
X150589000Y-79036000I0J-225000D01*
G01*
X150589000Y-79486000D01*
G75*
G02*
X150364000Y-79711000I-225000J0D01*
G01*
X149864000Y-79711000D01*
G75*
G02*
X149639000Y-79486000I0J225000D01*
G01*
X149639000Y-79036000D01*
G75*
G02*
X149864000Y-78811000I225000J0D01*
G01*
G37*
G36*
G01*
X149864000Y-77261000D02*
X150364000Y-77261000D01*
G75*
G02*
X150589000Y-77486000I0J-225000D01*
G01*
X150589000Y-77936000D01*
G75*
G02*
X150364000Y-78161000I-225000J0D01*
G01*
X149864000Y-78161000D01*
G75*
G02*
X149639000Y-77936000I0J225000D01*
G01*
X149639000Y-77486000D01*
G75*
G02*
X149864000Y-77261000I225000J0D01*
G01*
G37*
%TD*%
%TO.C,C13*%
G36*
G01*
X150364000Y-69017000D02*
X149864000Y-69017000D01*
G75*
G02*
X149639000Y-68792000I0J225000D01*
G01*
X149639000Y-68342000D01*
G75*
G02*
X149864000Y-68117000I225000J0D01*
G01*
X150364000Y-68117000D01*
G75*
G02*
X150589000Y-68342000I0J-225000D01*
G01*
X150589000Y-68792000D01*
G75*
G02*
X150364000Y-69017000I-225000J0D01*
G01*
G37*
G36*
G01*
X150364000Y-70567000D02*
X149864000Y-70567000D01*
G75*
G02*
X149639000Y-70342000I0J225000D01*
G01*
X149639000Y-69892000D01*
G75*
G02*
X149864000Y-69667000I225000J0D01*
G01*
X150364000Y-69667000D01*
G75*
G02*
X150589000Y-69892000I0J-225000D01*
G01*
X150589000Y-70342000D01*
G75*
G02*
X150364000Y-70567000I-225000J0D01*
G01*
G37*
%TD*%
%TO.C,C12*%
G36*
G01*
X142236000Y-53028000D02*
X141736000Y-53028000D01*
G75*
G02*
X141511000Y-52803000I0J225000D01*
G01*
X141511000Y-52353000D01*
G75*
G02*
X141736000Y-52128000I225000J0D01*
G01*
X142236000Y-52128000D01*
G75*
G02*
X142461000Y-52353000I0J-225000D01*
G01*
X142461000Y-52803000D01*
G75*
G02*
X142236000Y-53028000I-225000J0D01*
G01*
G37*
G36*
G01*
X142236000Y-54578000D02*
X141736000Y-54578000D01*
G75*
G02*
X141511000Y-54353000I0J225000D01*
G01*
X141511000Y-53903000D01*
G75*
G02*
X141736000Y-53678000I225000J0D01*
G01*
X142236000Y-53678000D01*
G75*
G02*
X142461000Y-53903000I0J-225000D01*
G01*
X142461000Y-54353000D01*
G75*
G02*
X142236000Y-54578000I-225000J0D01*
G01*
G37*
%TD*%
%TO.C,C11*%
G36*
G01*
X141736000Y-50363000D02*
X142236000Y-50363000D01*
G75*
G02*
X142461000Y-50588000I0J-225000D01*
G01*
X142461000Y-51038000D01*
G75*
G02*
X142236000Y-51263000I-225000J0D01*
G01*
X141736000Y-51263000D01*
G75*
G02*
X141511000Y-51038000I0J225000D01*
G01*
X141511000Y-50588000D01*
G75*
G02*
X141736000Y-50363000I225000J0D01*
G01*
G37*
G36*
G01*
X141736000Y-48813000D02*
X142236000Y-48813000D01*
G75*
G02*
X142461000Y-49038000I0J-225000D01*
G01*
X142461000Y-49488000D01*
G75*
G02*
X142236000Y-49713000I-225000J0D01*
G01*
X141736000Y-49713000D01*
G75*
G02*
X141511000Y-49488000I0J225000D01*
G01*
X141511000Y-49038000D01*
G75*
G02*
X141736000Y-48813000I225000J0D01*
G01*
G37*
%TD*%
%TO.C,C10*%
G36*
G01*
X158135500Y-49272000D02*
X158135500Y-48772000D01*
G75*
G02*
X158360500Y-48547000I225000J0D01*
G01*
X158810500Y-48547000D01*
G75*
G02*
X159035500Y-48772000I0J-225000D01*
G01*
X159035500Y-49272000D01*
G75*
G02*
X158810500Y-49497000I-225000J0D01*
G01*
X158360500Y-49497000D01*
G75*
G02*
X158135500Y-49272000I0J225000D01*
G01*
G37*
G36*
G01*
X156585500Y-49272000D02*
X156585500Y-48772000D01*
G75*
G02*
X156810500Y-48547000I225000J0D01*
G01*
X157260500Y-48547000D01*
G75*
G02*
X157485500Y-48772000I0J-225000D01*
G01*
X157485500Y-49272000D01*
G75*
G02*
X157260500Y-49497000I-225000J0D01*
G01*
X156810500Y-49497000D01*
G75*
G02*
X156585500Y-49272000I0J225000D01*
G01*
G37*
%TD*%
%TO.C,C9*%
G36*
G01*
X141736000Y-47251500D02*
X142236000Y-47251500D01*
G75*
G02*
X142461000Y-47476500I0J-225000D01*
G01*
X142461000Y-47926500D01*
G75*
G02*
X142236000Y-48151500I-225000J0D01*
G01*
X141736000Y-48151500D01*
G75*
G02*
X141511000Y-47926500I0J225000D01*
G01*
X141511000Y-47476500D01*
G75*
G02*
X141736000Y-47251500I225000J0D01*
G01*
G37*
G36*
G01*
X141736000Y-45701500D02*
X142236000Y-45701500D01*
G75*
G02*
X142461000Y-45926500I0J-225000D01*
G01*
X142461000Y-46376500D01*
G75*
G02*
X142236000Y-46601500I-225000J0D01*
G01*
X141736000Y-46601500D01*
G75*
G02*
X141511000Y-46376500I0J225000D01*
G01*
X141511000Y-45926500D01*
G75*
G02*
X141736000Y-45701500I225000J0D01*
G01*
G37*
%TD*%
%TO.C,C8*%
G36*
G01*
X143271001Y-58169500D02*
X141970999Y-58169500D01*
G75*
G02*
X141721000Y-57919501I0J249999D01*
G01*
X141721000Y-57269499D01*
G75*
G02*
X141970999Y-57019500I249999J0D01*
G01*
X143271001Y-57019500D01*
G75*
G02*
X143521000Y-57269499I0J-249999D01*
G01*
X143521000Y-57919501D01*
G75*
G02*
X143271001Y-58169500I-249999J0D01*
G01*
G37*
G36*
G01*
X143271001Y-61119500D02*
X141970999Y-61119500D01*
G75*
G02*
X141721000Y-60869501I0J249999D01*
G01*
X141721000Y-60219499D01*
G75*
G02*
X141970999Y-59969500I249999J0D01*
G01*
X143271001Y-59969500D01*
G75*
G02*
X143521000Y-60219499I0J-249999D01*
G01*
X143521000Y-60869501D01*
G75*
G02*
X143271001Y-61119500I-249999J0D01*
G01*
G37*
%TD*%
%TO.C,C7*%
G36*
G01*
X158135500Y-55876000D02*
X158135500Y-55376000D01*
G75*
G02*
X158360500Y-55151000I225000J0D01*
G01*
X158810500Y-55151000D01*
G75*
G02*
X159035500Y-55376000I0J-225000D01*
G01*
X159035500Y-55876000D01*
G75*
G02*
X158810500Y-56101000I-225000J0D01*
G01*
X158360500Y-56101000D01*
G75*
G02*
X158135500Y-55876000I0J225000D01*
G01*
G37*
G36*
G01*
X156585500Y-55876000D02*
X156585500Y-55376000D01*
G75*
G02*
X156810500Y-55151000I225000J0D01*
G01*
X157260500Y-55151000D01*
G75*
G02*
X157485500Y-55376000I0J-225000D01*
G01*
X157485500Y-55876000D01*
G75*
G02*
X157260500Y-56101000I-225000J0D01*
G01*
X156810500Y-56101000D01*
G75*
G02*
X156585500Y-55876000I0J225000D01*
G01*
G37*
%TD*%
D21*
%TO.C,Y2*%
X138430000Y-58030000D03*
X138430000Y-49530000D03*
%TD*%
D22*
%TO.C,U3*%
X146552000Y-48836000D03*
X147352000Y-48836000D03*
X148152000Y-48836000D03*
X148952000Y-48836000D03*
X149752000Y-48836000D03*
X150552000Y-48836000D03*
X151352000Y-48836000D03*
X152152000Y-48836000D03*
D23*
X153602000Y-50286000D03*
X153602000Y-51086000D03*
X153602000Y-51886000D03*
X153602000Y-52686000D03*
X153602000Y-53486000D03*
X153602000Y-54286000D03*
X153602000Y-55086000D03*
X153602000Y-55886000D03*
D22*
X152152000Y-57336000D03*
X151352000Y-57336000D03*
X150552000Y-57336000D03*
X149752000Y-57336000D03*
X148952000Y-57336000D03*
X148152000Y-57336000D03*
X147352000Y-57336000D03*
X146552000Y-57336000D03*
D23*
X145102000Y-55886000D03*
X145102000Y-55086000D03*
X145102000Y-54286000D03*
X145102000Y-53486000D03*
X145102000Y-52686000D03*
X145102000Y-51886000D03*
X145102000Y-51086000D03*
X145102000Y-50286000D03*
%TD*%
D24*
%TO.C,U2*%
X135475000Y-71584000D03*
X136125000Y-71584000D03*
X136775000Y-71584000D03*
X137425000Y-71584000D03*
X138075000Y-71584000D03*
X138725000Y-71584000D03*
X139375000Y-71584000D03*
X140025000Y-71584000D03*
X140675000Y-71584000D03*
X141325000Y-71584000D03*
X141975000Y-71584000D03*
X142625000Y-71584000D03*
X143275000Y-71584000D03*
X143925000Y-71584000D03*
X143925000Y-78784000D03*
X143275000Y-78784000D03*
X142625000Y-78784000D03*
X141975000Y-78784000D03*
X141325000Y-78784000D03*
X140675000Y-78784000D03*
X140025000Y-78784000D03*
X139375000Y-78784000D03*
X138725000Y-78784000D03*
X138075000Y-78784000D03*
X137425000Y-78784000D03*
X136775000Y-78784000D03*
X136125000Y-78784000D03*
X135475000Y-78784000D03*
%TD*%
%TO.C,R3*%
G36*
G01*
X163722000Y-59923000D02*
X163722000Y-60473000D01*
G75*
G02*
X163522000Y-60673000I-200000J0D01*
G01*
X163122000Y-60673000D01*
G75*
G02*
X162922000Y-60473000I0J200000D01*
G01*
X162922000Y-59923000D01*
G75*
G02*
X163122000Y-59723000I200000J0D01*
G01*
X163522000Y-59723000D01*
G75*
G02*
X163722000Y-59923000I0J-200000D01*
G01*
G37*
G36*
G01*
X165372000Y-59923000D02*
X165372000Y-60473000D01*
G75*
G02*
X165172000Y-60673000I-200000J0D01*
G01*
X164772000Y-60673000D01*
G75*
G02*
X164572000Y-60473000I0J200000D01*
G01*
X164572000Y-59923000D01*
G75*
G02*
X164772000Y-59723000I200000J0D01*
G01*
X165172000Y-59723000D01*
G75*
G02*
X165372000Y-59923000I0J-200000D01*
G01*
G37*
%TD*%
%TO.C,R1*%
G36*
G01*
X157459000Y-70529000D02*
X158009000Y-70529000D01*
G75*
G02*
X158209000Y-70729000I0J-200000D01*
G01*
X158209000Y-71129000D01*
G75*
G02*
X158009000Y-71329000I-200000J0D01*
G01*
X157459000Y-71329000D01*
G75*
G02*
X157259000Y-71129000I0J200000D01*
G01*
X157259000Y-70729000D01*
G75*
G02*
X157459000Y-70529000I200000J0D01*
G01*
G37*
G36*
G01*
X157459000Y-68879000D02*
X158009000Y-68879000D01*
G75*
G02*
X158209000Y-69079000I0J-200000D01*
G01*
X158209000Y-69479000D01*
G75*
G02*
X158009000Y-69679000I-200000J0D01*
G01*
X157459000Y-69679000D01*
G75*
G02*
X157259000Y-69479000I0J200000D01*
G01*
X157259000Y-69079000D01*
G75*
G02*
X157459000Y-68879000I200000J0D01*
G01*
G37*
%TD*%
D25*
%TO.C,Y1*%
X160450000Y-79162000D03*
X160450000Y-76962000D03*
X158750000Y-76962000D03*
X158750000Y-79162000D03*
%TD*%
D10*
%TO.C,J4*%
X170060000Y-88265000D03*
X167560000Y-88265000D03*
X165060000Y-88265000D03*
G36*
G01*
X161710000Y-88990000D02*
X161710000Y-87540000D01*
G75*
G02*
X161960000Y-87290000I250000J0D01*
G01*
X163160000Y-87290000D01*
G75*
G02*
X163410000Y-87540000I0J-250000D01*
G01*
X163410000Y-88990000D01*
G75*
G02*
X163160000Y-89240000I-250000J0D01*
G01*
X161960000Y-89240000D01*
G75*
G02*
X161710000Y-88990000I0J250000D01*
G01*
G37*
%TD*%
%TO.C,J3*%
X156090000Y-88265000D03*
X153590000Y-88265000D03*
X151090000Y-88265000D03*
G36*
G01*
X147740000Y-88990000D02*
X147740000Y-87540000D01*
G75*
G02*
X147990000Y-87290000I250000J0D01*
G01*
X149190000Y-87290000D01*
G75*
G02*
X149440000Y-87540000I0J-250000D01*
G01*
X149440000Y-88990000D01*
G75*
G02*
X149190000Y-89240000I-250000J0D01*
G01*
X147990000Y-89240000D01*
G75*
G02*
X147740000Y-88990000I0J250000D01*
G01*
G37*
%TD*%
%TO.C,J1*%
X128150000Y-88265000D03*
X125650000Y-88265000D03*
X123150000Y-88265000D03*
G36*
G01*
X119800000Y-88990000D02*
X119800000Y-87540000D01*
G75*
G02*
X120050000Y-87290000I250000J0D01*
G01*
X121250000Y-87290000D01*
G75*
G02*
X121500000Y-87540000I0J-250000D01*
G01*
X121500000Y-88990000D01*
G75*
G02*
X121250000Y-89240000I-250000J0D01*
G01*
X120050000Y-89240000D01*
G75*
G02*
X119800000Y-88990000I0J250000D01*
G01*
G37*
%TD*%
%TO.C,R4*%
G36*
G01*
X161015000Y-66719000D02*
X161565000Y-66719000D01*
G75*
G02*
X161765000Y-66919000I0J-200000D01*
G01*
X161765000Y-67319000D01*
G75*
G02*
X161565000Y-67519000I-200000J0D01*
G01*
X161015000Y-67519000D01*
G75*
G02*
X160815000Y-67319000I0J200000D01*
G01*
X160815000Y-66919000D01*
G75*
G02*
X161015000Y-66719000I200000J0D01*
G01*
G37*
G36*
G01*
X161015000Y-65069000D02*
X161565000Y-65069000D01*
G75*
G02*
X161765000Y-65269000I0J-200000D01*
G01*
X161765000Y-65669000D01*
G75*
G02*
X161565000Y-65869000I-200000J0D01*
G01*
X161015000Y-65869000D01*
G75*
G02*
X160815000Y-65669000I0J200000D01*
G01*
X160815000Y-65269000D01*
G75*
G02*
X161015000Y-65069000I200000J0D01*
G01*
G37*
%TD*%
%TO.C,R2*%
G36*
G01*
X170963000Y-72981000D02*
X170413000Y-72981000D01*
G75*
G02*
X170213000Y-72781000I0J200000D01*
G01*
X170213000Y-72381000D01*
G75*
G02*
X170413000Y-72181000I200000J0D01*
G01*
X170963000Y-72181000D01*
G75*
G02*
X171163000Y-72381000I0J-200000D01*
G01*
X171163000Y-72781000D01*
G75*
G02*
X170963000Y-72981000I-200000J0D01*
G01*
G37*
G36*
G01*
X170963000Y-74631000D02*
X170413000Y-74631000D01*
G75*
G02*
X170213000Y-74431000I0J200000D01*
G01*
X170213000Y-74031000D01*
G75*
G02*
X170413000Y-73831000I200000J0D01*
G01*
X170963000Y-73831000D01*
G75*
G02*
X171163000Y-74031000I0J-200000D01*
G01*
X171163000Y-74431000D01*
G75*
G02*
X170963000Y-74631000I-200000J0D01*
G01*
G37*
%TD*%
%TO.C,D5*%
G36*
G01*
X162668000Y-64816000D02*
X163468000Y-64816000D01*
G75*
G02*
X163718000Y-65066000I0J-250000D01*
G01*
X163718000Y-65891000D01*
G75*
G02*
X163468000Y-66141000I-250000J0D01*
G01*
X162668000Y-66141000D01*
G75*
G02*
X162418000Y-65891000I0J250000D01*
G01*
X162418000Y-65066000D01*
G75*
G02*
X162668000Y-64816000I250000J0D01*
G01*
G37*
G36*
G01*
X162668000Y-62891000D02*
X163468000Y-62891000D01*
G75*
G02*
X163718000Y-63141000I0J-250000D01*
G01*
X163718000Y-63966000D01*
G75*
G02*
X163468000Y-64216000I-250000J0D01*
G01*
X162668000Y-64216000D01*
G75*
G02*
X162418000Y-63966000I0J250000D01*
G01*
X162418000Y-63141000D01*
G75*
G02*
X162668000Y-62891000I250000J0D01*
G01*
G37*
%TD*%
%TO.C,D4*%
G36*
G01*
X158871500Y-66550250D02*
X158871500Y-66037750D01*
G75*
G02*
X159090250Y-65819000I218750J0D01*
G01*
X159527750Y-65819000D01*
G75*
G02*
X159746500Y-66037750I0J-218750D01*
G01*
X159746500Y-66550250D01*
G75*
G02*
X159527750Y-66769000I-218750J0D01*
G01*
X159090250Y-66769000D01*
G75*
G02*
X158871500Y-66550250I0J218750D01*
G01*
G37*
G36*
G01*
X157296500Y-66550250D02*
X157296500Y-66037750D01*
G75*
G02*
X157515250Y-65819000I218750J0D01*
G01*
X157952750Y-65819000D01*
G75*
G02*
X158171500Y-66037750I0J-218750D01*
G01*
X158171500Y-66550250D01*
G75*
G02*
X157952750Y-66769000I-218750J0D01*
G01*
X157515250Y-66769000D01*
G75*
G02*
X157296500Y-66550250I0J218750D01*
G01*
G37*
%TD*%
%TO.C,D3*%
G36*
G01*
X158871500Y-62994250D02*
X158871500Y-62481750D01*
G75*
G02*
X159090250Y-62263000I218750J0D01*
G01*
X159527750Y-62263000D01*
G75*
G02*
X159746500Y-62481750I0J-218750D01*
G01*
X159746500Y-62994250D01*
G75*
G02*
X159527750Y-63213000I-218750J0D01*
G01*
X159090250Y-63213000D01*
G75*
G02*
X158871500Y-62994250I0J218750D01*
G01*
G37*
G36*
G01*
X157296500Y-62994250D02*
X157296500Y-62481750D01*
G75*
G02*
X157515250Y-62263000I218750J0D01*
G01*
X157952750Y-62263000D01*
G75*
G02*
X158171500Y-62481750I0J-218750D01*
G01*
X158171500Y-62994250D01*
G75*
G02*
X157952750Y-63213000I-218750J0D01*
G01*
X157515250Y-63213000D01*
G75*
G02*
X157296500Y-62994250I0J218750D01*
G01*
G37*
%TD*%
%TO.C,D2*%
G36*
G01*
X158871500Y-64772250D02*
X158871500Y-64259750D01*
G75*
G02*
X159090250Y-64041000I218750J0D01*
G01*
X159527750Y-64041000D01*
G75*
G02*
X159746500Y-64259750I0J-218750D01*
G01*
X159746500Y-64772250D01*
G75*
G02*
X159527750Y-64991000I-218750J0D01*
G01*
X159090250Y-64991000D01*
G75*
G02*
X158871500Y-64772250I0J218750D01*
G01*
G37*
G36*
G01*
X157296500Y-64772250D02*
X157296500Y-64259750D01*
G75*
G02*
X157515250Y-64041000I218750J0D01*
G01*
X157952750Y-64041000D01*
G75*
G02*
X158171500Y-64259750I0J-218750D01*
G01*
X158171500Y-64772250D01*
G75*
G02*
X157952750Y-64991000I-218750J0D01*
G01*
X157515250Y-64991000D01*
G75*
G02*
X157296500Y-64772250I0J218750D01*
G01*
G37*
%TD*%
%TO.C,D1*%
G36*
G01*
X158871500Y-61216250D02*
X158871500Y-60703750D01*
G75*
G02*
X159090250Y-60485000I218750J0D01*
G01*
X159527750Y-60485000D01*
G75*
G02*
X159746500Y-60703750I0J-218750D01*
G01*
X159746500Y-61216250D01*
G75*
G02*
X159527750Y-61435000I-218750J0D01*
G01*
X159090250Y-61435000D01*
G75*
G02*
X158871500Y-61216250I0J218750D01*
G01*
G37*
G36*
G01*
X157296500Y-61216250D02*
X157296500Y-60703750D01*
G75*
G02*
X157515250Y-60485000I218750J0D01*
G01*
X157952750Y-60485000D01*
G75*
G02*
X158171500Y-60703750I0J-218750D01*
G01*
X158171500Y-61216250D01*
G75*
G02*
X157952750Y-61435000I-218750J0D01*
G01*
X157515250Y-61435000D01*
G75*
G02*
X157296500Y-61216250I0J218750D01*
G01*
G37*
%TD*%
%TO.C,C6*%
G36*
G01*
X169997000Y-76196000D02*
X169997000Y-75696000D01*
G75*
G02*
X170222000Y-75471000I225000J0D01*
G01*
X170672000Y-75471000D01*
G75*
G02*
X170897000Y-75696000I0J-225000D01*
G01*
X170897000Y-76196000D01*
G75*
G02*
X170672000Y-76421000I-225000J0D01*
G01*
X170222000Y-76421000D01*
G75*
G02*
X169997000Y-76196000I0J225000D01*
G01*
G37*
G36*
G01*
X168447000Y-76196000D02*
X168447000Y-75696000D01*
G75*
G02*
X168672000Y-75471000I225000J0D01*
G01*
X169122000Y-75471000D01*
G75*
G02*
X169347000Y-75696000I0J-225000D01*
G01*
X169347000Y-76196000D01*
G75*
G02*
X169122000Y-76421000I-225000J0D01*
G01*
X168672000Y-76421000D01*
G75*
G02*
X168447000Y-76196000I0J225000D01*
G01*
G37*
%TD*%
%TO.C,C5*%
G36*
G01*
X170376000Y-78199000D02*
X170376000Y-77249000D01*
G75*
G02*
X170626000Y-76999000I250000J0D01*
G01*
X171126000Y-76999000D01*
G75*
G02*
X171376000Y-77249000I0J-250000D01*
G01*
X171376000Y-78199000D01*
G75*
G02*
X171126000Y-78449000I-250000J0D01*
G01*
X170626000Y-78449000D01*
G75*
G02*
X170376000Y-78199000I0J250000D01*
G01*
G37*
G36*
G01*
X168476000Y-78199000D02*
X168476000Y-77249000D01*
G75*
G02*
X168726000Y-76999000I250000J0D01*
G01*
X169226000Y-76999000D01*
G75*
G02*
X169476000Y-77249000I0J-250000D01*
G01*
X169476000Y-78199000D01*
G75*
G02*
X169226000Y-78449000I-250000J0D01*
G01*
X168726000Y-78449000D01*
G75*
G02*
X168476000Y-78199000I0J250000D01*
G01*
G37*
%TD*%
%TO.C,C4*%
G36*
G01*
X171788000Y-71116000D02*
X171788000Y-70616000D01*
G75*
G02*
X172013000Y-70391000I225000J0D01*
G01*
X172463000Y-70391000D01*
G75*
G02*
X172688000Y-70616000I0J-225000D01*
G01*
X172688000Y-71116000D01*
G75*
G02*
X172463000Y-71341000I-225000J0D01*
G01*
X172013000Y-71341000D01*
G75*
G02*
X171788000Y-71116000I0J225000D01*
G01*
G37*
G36*
G01*
X170238000Y-71116000D02*
X170238000Y-70616000D01*
G75*
G02*
X170463000Y-70391000I225000J0D01*
G01*
X170913000Y-70391000D01*
G75*
G02*
X171138000Y-70616000I0J-225000D01*
G01*
X171138000Y-71116000D01*
G75*
G02*
X170913000Y-71341000I-225000J0D01*
G01*
X170463000Y-71341000D01*
G75*
G02*
X170238000Y-71116000I0J225000D01*
G01*
G37*
%TD*%
%TO.C,C3*%
G36*
G01*
X172133000Y-69309000D02*
X172133000Y-68359000D01*
G75*
G02*
X172383000Y-68109000I250000J0D01*
G01*
X172883000Y-68109000D01*
G75*
G02*
X173133000Y-68359000I0J-250000D01*
G01*
X173133000Y-69309000D01*
G75*
G02*
X172883000Y-69559000I-250000J0D01*
G01*
X172383000Y-69559000D01*
G75*
G02*
X172133000Y-69309000I0J250000D01*
G01*
G37*
G36*
G01*
X170233000Y-69309000D02*
X170233000Y-68359000D01*
G75*
G02*
X170483000Y-68109000I250000J0D01*
G01*
X170983000Y-68109000D01*
G75*
G02*
X171233000Y-68359000I0J-250000D01*
G01*
X171233000Y-69309000D01*
G75*
G02*
X170983000Y-69559000I-250000J0D01*
G01*
X170483000Y-69559000D01*
G75*
G02*
X170233000Y-69309000I0J250000D01*
G01*
G37*
%TD*%
%TO.C,C2*%
G36*
G01*
X167382000Y-64591000D02*
X166882000Y-64591000D01*
G75*
G02*
X166657000Y-64366000I0J225000D01*
G01*
X166657000Y-63916000D01*
G75*
G02*
X166882000Y-63691000I225000J0D01*
G01*
X167382000Y-63691000D01*
G75*
G02*
X167607000Y-63916000I0J-225000D01*
G01*
X167607000Y-64366000D01*
G75*
G02*
X167382000Y-64591000I-225000J0D01*
G01*
G37*
G36*
G01*
X167382000Y-66141000D02*
X166882000Y-66141000D01*
G75*
G02*
X166657000Y-65916000I0J225000D01*
G01*
X166657000Y-65466000D01*
G75*
G02*
X166882000Y-65241000I225000J0D01*
G01*
X167382000Y-65241000D01*
G75*
G02*
X167607000Y-65466000I0J-225000D01*
G01*
X167607000Y-65916000D01*
G75*
G02*
X167382000Y-66141000I-225000J0D01*
G01*
G37*
%TD*%
%TO.C,C1*%
G36*
G01*
X165575000Y-64246000D02*
X164625000Y-64246000D01*
G75*
G02*
X164375000Y-63996000I0J250000D01*
G01*
X164375000Y-63496000D01*
G75*
G02*
X164625000Y-63246000I250000J0D01*
G01*
X165575000Y-63246000D01*
G75*
G02*
X165825000Y-63496000I0J-250000D01*
G01*
X165825000Y-63996000D01*
G75*
G02*
X165575000Y-64246000I-250000J0D01*
G01*
G37*
G36*
G01*
X165575000Y-66146000D02*
X164625000Y-66146000D01*
G75*
G02*
X164375000Y-65896000I0J250000D01*
G01*
X164375000Y-65396000D01*
G75*
G02*
X164625000Y-65146000I250000J0D01*
G01*
X165575000Y-65146000D01*
G75*
G02*
X165825000Y-65396000I0J-250000D01*
G01*
X165825000Y-65896000D01*
G75*
G02*
X165575000Y-66146000I-250000J0D01*
G01*
G37*
%TD*%
M02*
