%TF.GenerationSoftware,KiCad,Pcbnew,(5.1.10)-1*%
%TF.CreationDate,2021-09-15T18:07:19+02:00*%
%TF.ProjectId,sh_control,73685f63-6f6e-4747-926f-6c2e6b696361,rev?*%
%TF.SameCoordinates,Original*%
%TF.FileFunction,Legend,Top*%
%TF.FilePolarity,Positive*%
%FSLAX46Y46*%
G04 Gerber Fmt 4.6, Leading zero omitted, Abs format (unit mm)*
G04 Created by KiCad (PCBNEW (5.1.10)-1) date 2021-09-15 18:07:19*
%MOMM*%
%LPD*%
G01*
G04 APERTURE LIST*
%ADD10C,0.120000*%
%ADD11C,0.150000*%
%ADD12C,0.100000*%
%ADD13C,0.300000*%
%ADD14C,0.254000*%
G04 APERTURE END LIST*
D10*
%TO.C,F1*%
X118241500Y-60526252D02*
X118241500Y-57753748D01*
X121661500Y-60526252D02*
X121661500Y-57753748D01*
%TO.C,J2*%
X138370000Y-95975000D02*
X132060000Y-95975000D01*
X132060000Y-95975000D02*
X132060000Y-84255000D01*
X132060000Y-84255000D02*
X133480000Y-84255000D01*
X133480000Y-84255000D02*
X133480000Y-88755000D01*
X138370000Y-95975000D02*
X144680000Y-95975000D01*
X144680000Y-95975000D02*
X144680000Y-84255000D01*
X144680000Y-84255000D02*
X143260000Y-84255000D01*
X143260000Y-84255000D02*
X143260000Y-88755000D01*
X134370000Y-89865000D02*
X134370000Y-95365000D01*
X134370000Y-95365000D02*
X134870000Y-95365000D01*
X134870000Y-95365000D02*
X134870000Y-89865000D01*
X134870000Y-89865000D02*
X134370000Y-89865000D01*
X136870000Y-89865000D02*
X136870000Y-95365000D01*
X136870000Y-95365000D02*
X137370000Y-95365000D01*
X137370000Y-95365000D02*
X137370000Y-89865000D01*
X137370000Y-89865000D02*
X136870000Y-89865000D01*
X139370000Y-89865000D02*
X139370000Y-95365000D01*
X139370000Y-95365000D02*
X139870000Y-95365000D01*
X139870000Y-95365000D02*
X139870000Y-89865000D01*
X139870000Y-89865000D02*
X139370000Y-89865000D01*
X141870000Y-89865000D02*
X141870000Y-95365000D01*
X141870000Y-95365000D02*
X142370000Y-95365000D01*
X142370000Y-95365000D02*
X142370000Y-89865000D01*
X142370000Y-89865000D02*
X141870000Y-89865000D01*
X134620000Y-86765000D02*
X134320000Y-86165000D01*
X134320000Y-86165000D02*
X134920000Y-86165000D01*
X134920000Y-86165000D02*
X134620000Y-86765000D01*
%TO.C,J9*%
X160698000Y-46081500D02*
X160698000Y-41961500D01*
X152638000Y-46081500D02*
X160698000Y-46081500D01*
X150578000Y-41961500D02*
X160698000Y-41961500D01*
X152638000Y-46081500D02*
X152638000Y-44021500D01*
X152638000Y-44021500D02*
X150578000Y-44021500D01*
X150578000Y-44021500D02*
X150578000Y-41961500D01*
X151638000Y-46081500D02*
X150578000Y-46081500D01*
X150578000Y-46081500D02*
X150578000Y-45021500D01*
%TO.C,J8*%
X155968000Y-71330000D02*
X151848000Y-71330000D01*
X155968000Y-73390000D02*
X155968000Y-71330000D01*
X151848000Y-75450000D02*
X151848000Y-71330000D01*
X155968000Y-73390000D02*
X153908000Y-73390000D01*
X153908000Y-73390000D02*
X153908000Y-75450000D01*
X153908000Y-75450000D02*
X151848000Y-75450000D01*
X155968000Y-74390000D02*
X155968000Y-75450000D01*
X155968000Y-75450000D02*
X154908000Y-75450000D01*
%TO.C,J5*%
X164421000Y-56019000D02*
X168541000Y-56019000D01*
X164421000Y-51959000D02*
X164421000Y-56019000D01*
X168541000Y-49899000D02*
X168541000Y-56019000D01*
X164421000Y-51959000D02*
X166481000Y-51959000D01*
X166481000Y-51959000D02*
X166481000Y-49899000D01*
X166481000Y-49899000D02*
X168541000Y-49899000D01*
X164421000Y-50959000D02*
X164421000Y-49899000D01*
X164421000Y-49899000D02*
X165481000Y-49899000D01*
D11*
%TO.C,U1*%
X159258000Y-73449000D02*
X159738000Y-73449000D01*
X159258000Y-69299000D02*
X159738000Y-69299000D01*
X169418000Y-69299000D02*
X168938000Y-69299000D01*
X169418000Y-73449000D02*
X168938000Y-73449000D01*
X159258000Y-73449000D02*
X159258000Y-69299000D01*
X169418000Y-73449000D02*
X169418000Y-69299000D01*
X159738000Y-73449000D02*
X159738000Y-74574000D01*
D10*
%TO.C,J7*%
X128274500Y-68689500D02*
X127674500Y-68389500D01*
X128274500Y-68089500D02*
X128274500Y-68689500D01*
X127674500Y-68389500D02*
X128274500Y-68089500D01*
X124574500Y-76139500D02*
X124574500Y-75639500D01*
X119074500Y-76139500D02*
X124574500Y-76139500D01*
X119074500Y-75639500D02*
X119074500Y-76139500D01*
X124574500Y-75639500D02*
X119074500Y-75639500D01*
X124574500Y-73639500D02*
X124574500Y-73139500D01*
X119074500Y-73639500D02*
X124574500Y-73639500D01*
X119074500Y-73139500D02*
X119074500Y-73639500D01*
X124574500Y-73139500D02*
X119074500Y-73139500D01*
X124574500Y-71139500D02*
X124574500Y-70639500D01*
X119074500Y-71139500D02*
X124574500Y-71139500D01*
X119074500Y-70639500D02*
X119074500Y-71139500D01*
X124574500Y-70639500D02*
X119074500Y-70639500D01*
X124574500Y-68639500D02*
X124574500Y-68139500D01*
X119074500Y-68639500D02*
X124574500Y-68639500D01*
X119074500Y-68139500D02*
X119074500Y-68639500D01*
X124574500Y-68139500D02*
X119074500Y-68139500D01*
X130184500Y-77029500D02*
X125684500Y-77029500D01*
X130184500Y-78449500D02*
X130184500Y-77029500D01*
X118464500Y-78449500D02*
X130184500Y-78449500D01*
X118464500Y-72139500D02*
X118464500Y-78449500D01*
X130184500Y-67249500D02*
X125684500Y-67249500D01*
X130184500Y-65829500D02*
X130184500Y-67249500D01*
X118464500Y-65829500D02*
X130184500Y-65829500D01*
X118464500Y-72139500D02*
X118464500Y-65829500D01*
%TO.C,R15*%
X147482779Y-60962000D02*
X147157221Y-60962000D01*
X147482779Y-59942000D02*
X147157221Y-59942000D01*
%TO.C,R14*%
X126045279Y-63883000D02*
X125719721Y-63883000D01*
X126045279Y-62863000D02*
X125719721Y-62863000D01*
D12*
%TO.C,J6*%
X149161000Y-33449000D02*
X149161000Y-34649000D01*
X141161000Y-33449000D02*
X149161000Y-33449000D01*
X141161000Y-34649000D02*
X141161000Y-33449000D01*
X149161000Y-39189000D02*
X148361000Y-39189000D01*
X149161000Y-37849000D02*
X149161000Y-39189000D01*
X141161000Y-39189000D02*
X141961000Y-39189000D01*
X141161000Y-37849000D02*
X141161000Y-39189000D01*
X147161000Y-39949000D02*
X147161000Y-39949000D01*
X147161000Y-39849000D02*
X147161000Y-39849000D01*
X147161000Y-39949000D02*
G75*
G02*
X147161000Y-39849000I0J50000D01*
G01*
X147161000Y-39849000D02*
G75*
G02*
X147161000Y-39949000I0J-50000D01*
G01*
D10*
%TO.C,D15*%
X123190000Y-62638000D02*
X120905000Y-62638000D01*
X120905000Y-62638000D02*
X120905000Y-64108000D01*
X120905000Y-64108000D02*
X123190000Y-64108000D01*
%TO.C,SW2*%
X121618000Y-47606000D02*
X120118000Y-47606000D01*
X117618000Y-48856000D02*
X117618000Y-53356000D01*
X120118000Y-54606000D02*
X121618000Y-54606000D01*
X124118000Y-53356000D02*
X124118000Y-48856000D01*
%TO.C,R13*%
X160925242Y-57008500D02*
X161399758Y-57008500D01*
X160925242Y-58053500D02*
X161399758Y-58053500D01*
%TO.C,R12*%
X135621500Y-67738258D02*
X135621500Y-67263742D01*
X136666500Y-67738258D02*
X136666500Y-67263742D01*
%TO.C,R11*%
X134097500Y-67738258D02*
X134097500Y-67263742D01*
X135142500Y-67738258D02*
X135142500Y-67263742D01*
%TO.C,R10*%
X149526258Y-75198500D02*
X149051742Y-75198500D01*
X149526258Y-74153500D02*
X149051742Y-74153500D01*
%TO.C,R9*%
X149526258Y-73420500D02*
X149051742Y-73420500D01*
X149526258Y-72375500D02*
X149051742Y-72375500D01*
%TO.C,R8*%
X145048500Y-64469742D02*
X145048500Y-64944258D01*
X144003500Y-64469742D02*
X144003500Y-64944258D01*
%TO.C,R7*%
X158047758Y-59514000D02*
X157573242Y-59514000D01*
X158047758Y-58469000D02*
X157573242Y-58469000D01*
%TO.C,R6*%
X133682000Y-71708242D02*
X133682000Y-72182758D01*
X132637000Y-71708242D02*
X132637000Y-72182758D01*
%TO.C,R5*%
X131904000Y-71708242D02*
X131904000Y-72182758D01*
X130859000Y-71708242D02*
X130859000Y-72182758D01*
%TO.C,D9*%
X135663000Y-62166500D02*
X135663000Y-64451500D01*
X135663000Y-64451500D02*
X137133000Y-64451500D01*
X137133000Y-64451500D02*
X137133000Y-62166500D01*
%TO.C,D8*%
X133631000Y-62166500D02*
X133631000Y-64451500D01*
X133631000Y-64451500D02*
X135101000Y-64451500D01*
X135101000Y-64451500D02*
X135101000Y-62166500D01*
%TO.C,3V3*%
X145261000Y-68809000D02*
X145261000Y-66524000D01*
X145261000Y-66524000D02*
X143791000Y-66524000D01*
X143791000Y-66524000D02*
X143791000Y-68809000D01*
%TO.C,D6*%
X156972000Y-58139000D02*
X159257000Y-58139000D01*
X159257000Y-58139000D02*
X159257000Y-56669000D01*
X159257000Y-56669000D02*
X156972000Y-56669000D01*
%TO.C,C18*%
X133985580Y-82298000D02*
X133704420Y-82298000D01*
X133985580Y-81278000D02*
X133704420Y-81278000D01*
%TO.C,C17*%
X138557580Y-81790000D02*
X138276420Y-81790000D01*
X138557580Y-80770000D02*
X138276420Y-80770000D01*
%TO.C,C16*%
X141880000Y-66477748D02*
X141880000Y-67900252D01*
X140060000Y-66477748D02*
X140060000Y-67900252D01*
%TO.C,C15*%
X143512000Y-67868420D02*
X143512000Y-68149580D01*
X142492000Y-67868420D02*
X142492000Y-68149580D01*
%TO.C,C14*%
X150624000Y-78345420D02*
X150624000Y-78626580D01*
X149604000Y-78345420D02*
X149604000Y-78626580D01*
%TO.C,C13*%
X149604000Y-69482580D02*
X149604000Y-69201420D01*
X150624000Y-69482580D02*
X150624000Y-69201420D01*
%TO.C,C12*%
X141476000Y-53493580D02*
X141476000Y-53212420D01*
X142496000Y-53493580D02*
X142496000Y-53212420D01*
%TO.C,C11*%
X142496000Y-49897420D02*
X142496000Y-50178580D01*
X141476000Y-49897420D02*
X141476000Y-50178580D01*
%TO.C,C10*%
X157669920Y-48512000D02*
X157951080Y-48512000D01*
X157669920Y-49532000D02*
X157951080Y-49532000D01*
%TO.C,C9*%
X142496000Y-46785920D02*
X142496000Y-47067080D01*
X141476000Y-46785920D02*
X141476000Y-47067080D01*
%TO.C,C8*%
X141711000Y-59780752D02*
X141711000Y-58358248D01*
X143531000Y-59780752D02*
X143531000Y-58358248D01*
%TO.C,C7*%
X157669920Y-55116000D02*
X157951080Y-55116000D01*
X157669920Y-56136000D02*
X157951080Y-56136000D01*
%TO.C,Y2*%
X135880000Y-47080000D02*
X135880000Y-59680000D01*
X140980000Y-47080000D02*
X135880000Y-47080000D01*
X140980000Y-59680000D02*
X140980000Y-47080000D01*
D11*
%TO.C,U3*%
X145727000Y-49461000D02*
X145727000Y-49686000D01*
X152977000Y-49461000D02*
X152977000Y-49786000D01*
X152977000Y-56711000D02*
X152977000Y-56386000D01*
X145727000Y-56711000D02*
X145727000Y-56386000D01*
X145727000Y-49461000D02*
X146052000Y-49461000D01*
X145727000Y-56711000D02*
X146052000Y-56711000D01*
X152977000Y-56711000D02*
X152652000Y-56711000D01*
X152977000Y-49461000D02*
X152652000Y-49461000D01*
X145727000Y-49686000D02*
X144302000Y-49686000D01*
%TO.C,U2*%
X134375000Y-78059000D02*
X134950000Y-78059000D01*
X134375000Y-72309000D02*
X135025000Y-72309000D01*
X145025000Y-72309000D02*
X144375000Y-72309000D01*
X145025000Y-78059000D02*
X144375000Y-78059000D01*
X134375000Y-78059000D02*
X134375000Y-72309000D01*
X145025000Y-78059000D02*
X145025000Y-72309000D01*
X134950000Y-78059000D02*
X134950000Y-79659000D01*
D10*
%TO.C,R3*%
X164384258Y-60720500D02*
X163909742Y-60720500D01*
X164384258Y-59675500D02*
X163909742Y-59675500D01*
%TO.C,R1*%
X158256500Y-69866742D02*
X158256500Y-70341258D01*
X157211500Y-69866742D02*
X157211500Y-70341258D01*
D12*
%TO.C,Y1*%
X159400000Y-76462000D02*
X159800000Y-76462000D01*
X159400000Y-79662000D02*
X159800000Y-79662000D01*
X160850000Y-78362000D02*
X160850000Y-77762000D01*
X158350000Y-78362000D02*
X158350000Y-77762000D01*
D13*
X161300000Y-79362000D02*
X161300000Y-79362000D01*
X161400000Y-79362000D02*
X161400000Y-79362000D01*
X161400000Y-79362000D02*
G75*
G02*
X161300000Y-79362000I-50000J0D01*
G01*
X161300000Y-79362000D02*
G75*
G02*
X161400000Y-79362000I50000J0D01*
G01*
D10*
%TO.C,J4*%
X166310000Y-95975000D02*
X160000000Y-95975000D01*
X160000000Y-95975000D02*
X160000000Y-84255000D01*
X160000000Y-84255000D02*
X161420000Y-84255000D01*
X161420000Y-84255000D02*
X161420000Y-88755000D01*
X166310000Y-95975000D02*
X172620000Y-95975000D01*
X172620000Y-95975000D02*
X172620000Y-84255000D01*
X172620000Y-84255000D02*
X171200000Y-84255000D01*
X171200000Y-84255000D02*
X171200000Y-88755000D01*
X162310000Y-89865000D02*
X162310000Y-95365000D01*
X162310000Y-95365000D02*
X162810000Y-95365000D01*
X162810000Y-95365000D02*
X162810000Y-89865000D01*
X162810000Y-89865000D02*
X162310000Y-89865000D01*
X164810000Y-89865000D02*
X164810000Y-95365000D01*
X164810000Y-95365000D02*
X165310000Y-95365000D01*
X165310000Y-95365000D02*
X165310000Y-89865000D01*
X165310000Y-89865000D02*
X164810000Y-89865000D01*
X167310000Y-89865000D02*
X167310000Y-95365000D01*
X167310000Y-95365000D02*
X167810000Y-95365000D01*
X167810000Y-95365000D02*
X167810000Y-89865000D01*
X167810000Y-89865000D02*
X167310000Y-89865000D01*
X169810000Y-89865000D02*
X169810000Y-95365000D01*
X169810000Y-95365000D02*
X170310000Y-95365000D01*
X170310000Y-95365000D02*
X170310000Y-89865000D01*
X170310000Y-89865000D02*
X169810000Y-89865000D01*
X162560000Y-86765000D02*
X162260000Y-86165000D01*
X162260000Y-86165000D02*
X162860000Y-86165000D01*
X162860000Y-86165000D02*
X162560000Y-86765000D01*
%TO.C,J3*%
X152340000Y-95975000D02*
X146030000Y-95975000D01*
X146030000Y-95975000D02*
X146030000Y-84255000D01*
X146030000Y-84255000D02*
X147450000Y-84255000D01*
X147450000Y-84255000D02*
X147450000Y-88755000D01*
X152340000Y-95975000D02*
X158650000Y-95975000D01*
X158650000Y-95975000D02*
X158650000Y-84255000D01*
X158650000Y-84255000D02*
X157230000Y-84255000D01*
X157230000Y-84255000D02*
X157230000Y-88755000D01*
X148340000Y-89865000D02*
X148340000Y-95365000D01*
X148340000Y-95365000D02*
X148840000Y-95365000D01*
X148840000Y-95365000D02*
X148840000Y-89865000D01*
X148840000Y-89865000D02*
X148340000Y-89865000D01*
X150840000Y-89865000D02*
X150840000Y-95365000D01*
X150840000Y-95365000D02*
X151340000Y-95365000D01*
X151340000Y-95365000D02*
X151340000Y-89865000D01*
X151340000Y-89865000D02*
X150840000Y-89865000D01*
X153340000Y-89865000D02*
X153340000Y-95365000D01*
X153340000Y-95365000D02*
X153840000Y-95365000D01*
X153840000Y-95365000D02*
X153840000Y-89865000D01*
X153840000Y-89865000D02*
X153340000Y-89865000D01*
X155840000Y-89865000D02*
X155840000Y-95365000D01*
X155840000Y-95365000D02*
X156340000Y-95365000D01*
X156340000Y-95365000D02*
X156340000Y-89865000D01*
X156340000Y-89865000D02*
X155840000Y-89865000D01*
X148590000Y-86765000D02*
X148290000Y-86165000D01*
X148290000Y-86165000D02*
X148890000Y-86165000D01*
X148890000Y-86165000D02*
X148590000Y-86765000D01*
%TO.C,J1*%
X124400000Y-95975000D02*
X118090000Y-95975000D01*
X118090000Y-95975000D02*
X118090000Y-84255000D01*
X118090000Y-84255000D02*
X119510000Y-84255000D01*
X119510000Y-84255000D02*
X119510000Y-88755000D01*
X124400000Y-95975000D02*
X130710000Y-95975000D01*
X130710000Y-95975000D02*
X130710000Y-84255000D01*
X130710000Y-84255000D02*
X129290000Y-84255000D01*
X129290000Y-84255000D02*
X129290000Y-88755000D01*
X120400000Y-89865000D02*
X120400000Y-95365000D01*
X120400000Y-95365000D02*
X120900000Y-95365000D01*
X120900000Y-95365000D02*
X120900000Y-89865000D01*
X120900000Y-89865000D02*
X120400000Y-89865000D01*
X122900000Y-89865000D02*
X122900000Y-95365000D01*
X122900000Y-95365000D02*
X123400000Y-95365000D01*
X123400000Y-95365000D02*
X123400000Y-89865000D01*
X123400000Y-89865000D02*
X122900000Y-89865000D01*
X125400000Y-89865000D02*
X125400000Y-95365000D01*
X125400000Y-95365000D02*
X125900000Y-95365000D01*
X125900000Y-95365000D02*
X125900000Y-89865000D01*
X125900000Y-89865000D02*
X125400000Y-89865000D01*
X127900000Y-89865000D02*
X127900000Y-95365000D01*
X127900000Y-95365000D02*
X128400000Y-95365000D01*
X128400000Y-95365000D02*
X128400000Y-89865000D01*
X128400000Y-89865000D02*
X127900000Y-89865000D01*
X120650000Y-86765000D02*
X120350000Y-86165000D01*
X120350000Y-86165000D02*
X120950000Y-86165000D01*
X120950000Y-86165000D02*
X120650000Y-86765000D01*
%TO.C,R4*%
X161812500Y-66056742D02*
X161812500Y-66531258D01*
X160767500Y-66056742D02*
X160767500Y-66531258D01*
%TO.C,R2*%
X170165500Y-73643258D02*
X170165500Y-73168742D01*
X171210500Y-73643258D02*
X171210500Y-73168742D01*
%TO.C,D5*%
X163978000Y-65516000D02*
X163978000Y-62631000D01*
X163978000Y-62631000D02*
X162158000Y-62631000D01*
X162158000Y-62631000D02*
X162158000Y-65516000D01*
%TO.C,D4*%
X159321500Y-65559000D02*
X157036500Y-65559000D01*
X157036500Y-65559000D02*
X157036500Y-67029000D01*
X157036500Y-67029000D02*
X159321500Y-67029000D01*
%TO.C,D3*%
X159321500Y-62003000D02*
X157036500Y-62003000D01*
X157036500Y-62003000D02*
X157036500Y-63473000D01*
X157036500Y-63473000D02*
X159321500Y-63473000D01*
%TO.C,D2*%
X159321500Y-63781000D02*
X157036500Y-63781000D01*
X157036500Y-63781000D02*
X157036500Y-65251000D01*
X157036500Y-65251000D02*
X159321500Y-65251000D01*
%TO.C,D1*%
X159321500Y-60225000D02*
X157036500Y-60225000D01*
X157036500Y-60225000D02*
X157036500Y-61695000D01*
X157036500Y-61695000D02*
X159321500Y-61695000D01*
%TO.C,C6*%
X169531420Y-75436000D02*
X169812580Y-75436000D01*
X169531420Y-76456000D02*
X169812580Y-76456000D01*
%TO.C,C5*%
X169664748Y-76989000D02*
X170187252Y-76989000D01*
X169664748Y-78459000D02*
X170187252Y-78459000D01*
%TO.C,C4*%
X171322420Y-70356000D02*
X171603580Y-70356000D01*
X171322420Y-71376000D02*
X171603580Y-71376000D01*
%TO.C,C3*%
X171421748Y-68099000D02*
X171944252Y-68099000D01*
X171421748Y-69569000D02*
X171944252Y-69569000D01*
%TO.C,C2*%
X166622000Y-65056580D02*
X166622000Y-64775420D01*
X167642000Y-65056580D02*
X167642000Y-64775420D01*
%TO.C,C1*%
X164365000Y-64957252D02*
X164365000Y-64434748D01*
X165835000Y-64957252D02*
X165835000Y-64434748D01*
%TO.C,F1*%
D11*
X122666166Y-56931071D02*
X122332833Y-56931071D01*
X122332833Y-57454880D02*
X122332833Y-56454880D01*
X122809023Y-56454880D01*
X123713785Y-57454880D02*
X123142357Y-57454880D01*
X123428071Y-57454880D02*
X123428071Y-56454880D01*
X123332833Y-56597738D01*
X123237595Y-56692976D01*
X123142357Y-56740595D01*
%TO.C,J2*%
X134322380Y-84542380D02*
X134322380Y-85351904D01*
X134370000Y-85447142D01*
X134417619Y-85494761D01*
X134512857Y-85542380D01*
X134703333Y-85542380D01*
X134798571Y-85494761D01*
X134846190Y-85447142D01*
X134893809Y-85351904D01*
X134893809Y-84542380D01*
X135322380Y-85494761D02*
X135465238Y-85542380D01*
X135703333Y-85542380D01*
X135798571Y-85494761D01*
X135846190Y-85447142D01*
X135893809Y-85351904D01*
X135893809Y-85256666D01*
X135846190Y-85161428D01*
X135798571Y-85113809D01*
X135703333Y-85066190D01*
X135512857Y-85018571D01*
X135417619Y-84970952D01*
X135370000Y-84923333D01*
X135322380Y-84828095D01*
X135322380Y-84732857D01*
X135370000Y-84637619D01*
X135417619Y-84590000D01*
X135512857Y-84542380D01*
X135750952Y-84542380D01*
X135893809Y-84590000D01*
X136655714Y-85018571D02*
X136798571Y-85066190D01*
X136846190Y-85113809D01*
X136893809Y-85209047D01*
X136893809Y-85351904D01*
X136846190Y-85447142D01*
X136798571Y-85494761D01*
X136703333Y-85542380D01*
X136322380Y-85542380D01*
X136322380Y-84542380D01*
X136655714Y-84542380D01*
X136750952Y-84590000D01*
X136798571Y-84637619D01*
X136846190Y-84732857D01*
X136846190Y-84828095D01*
X136798571Y-84923333D01*
X136750952Y-84970952D01*
X136655714Y-85018571D01*
X136322380Y-85018571D01*
X137084285Y-85637619D02*
X137846190Y-85637619D01*
X138084285Y-85542380D02*
X138084285Y-84542380D01*
X138465238Y-84542380D01*
X138560476Y-84590000D01*
X138608095Y-84637619D01*
X138655714Y-84732857D01*
X138655714Y-84875714D01*
X138608095Y-84970952D01*
X138560476Y-85018571D01*
X138465238Y-85066190D01*
X138084285Y-85066190D01*
X139227142Y-85542380D02*
X139131904Y-85494761D01*
X139084285Y-85447142D01*
X139036666Y-85351904D01*
X139036666Y-85066190D01*
X139084285Y-84970952D01*
X139131904Y-84923333D01*
X139227142Y-84875714D01*
X139370000Y-84875714D01*
X139465238Y-84923333D01*
X139512857Y-84970952D01*
X139560476Y-85066190D01*
X139560476Y-85351904D01*
X139512857Y-85447142D01*
X139465238Y-85494761D01*
X139370000Y-85542380D01*
X139227142Y-85542380D01*
X139989047Y-85542380D02*
X139989047Y-84875714D01*
X139989047Y-85066190D02*
X140036666Y-84970952D01*
X140084285Y-84923333D01*
X140179523Y-84875714D01*
X140274761Y-84875714D01*
X140465238Y-84875714D02*
X140846190Y-84875714D01*
X140608095Y-84542380D02*
X140608095Y-85399523D01*
X140655714Y-85494761D01*
X140750952Y-85542380D01*
X140846190Y-85542380D01*
X140941428Y-85637619D02*
X141703333Y-85637619D01*
X141893809Y-84637619D02*
X141941428Y-84590000D01*
X142036666Y-84542380D01*
X142274761Y-84542380D01*
X142370000Y-84590000D01*
X142417619Y-84637619D01*
X142465238Y-84732857D01*
X142465238Y-84828095D01*
X142417619Y-84970952D01*
X141846190Y-85542380D01*
X142465238Y-85542380D01*
%TO.C,J9*%
X149030380Y-44354833D02*
X149744666Y-44354833D01*
X149887523Y-44402452D01*
X149982761Y-44497690D01*
X150030380Y-44640547D01*
X150030380Y-44735785D01*
X150030380Y-43831023D02*
X150030380Y-43640547D01*
X149982761Y-43545309D01*
X149935142Y-43497690D01*
X149792285Y-43402452D01*
X149601809Y-43354833D01*
X149220857Y-43354833D01*
X149125619Y-43402452D01*
X149078000Y-43450071D01*
X149030380Y-43545309D01*
X149030380Y-43735785D01*
X149078000Y-43831023D01*
X149125619Y-43878642D01*
X149220857Y-43926261D01*
X149458952Y-43926261D01*
X149554190Y-43878642D01*
X149601809Y-43831023D01*
X149649428Y-43735785D01*
X149649428Y-43545309D01*
X149601809Y-43450071D01*
X149554190Y-43402452D01*
X149458952Y-43354833D01*
%TO.C,J8*%
X153574666Y-75902380D02*
X153574666Y-76616666D01*
X153527047Y-76759523D01*
X153431809Y-76854761D01*
X153288952Y-76902380D01*
X153193714Y-76902380D01*
X154193714Y-76330952D02*
X154098476Y-76283333D01*
X154050857Y-76235714D01*
X154003238Y-76140476D01*
X154003238Y-76092857D01*
X154050857Y-75997619D01*
X154098476Y-75950000D01*
X154193714Y-75902380D01*
X154384190Y-75902380D01*
X154479428Y-75950000D01*
X154527047Y-75997619D01*
X154574666Y-76092857D01*
X154574666Y-76140476D01*
X154527047Y-76235714D01*
X154479428Y-76283333D01*
X154384190Y-76330952D01*
X154193714Y-76330952D01*
X154098476Y-76378571D01*
X154050857Y-76426190D01*
X154003238Y-76521428D01*
X154003238Y-76711904D01*
X154050857Y-76807142D01*
X154098476Y-76854761D01*
X154193714Y-76902380D01*
X154384190Y-76902380D01*
X154479428Y-76854761D01*
X154527047Y-76807142D01*
X154574666Y-76711904D01*
X154574666Y-76521428D01*
X154527047Y-76426190D01*
X154479428Y-76378571D01*
X154384190Y-76330952D01*
%TO.C,J5*%
X166147666Y-48351380D02*
X166147666Y-49065666D01*
X166100047Y-49208523D01*
X166004809Y-49303761D01*
X165861952Y-49351380D01*
X165766714Y-49351380D01*
X167100047Y-48351380D02*
X166623857Y-48351380D01*
X166576238Y-48827571D01*
X166623857Y-48779952D01*
X166719095Y-48732333D01*
X166957190Y-48732333D01*
X167052428Y-48779952D01*
X167100047Y-48827571D01*
X167147666Y-48922809D01*
X167147666Y-49160904D01*
X167100047Y-49256142D01*
X167052428Y-49303761D01*
X166957190Y-49351380D01*
X166719095Y-49351380D01*
X166623857Y-49303761D01*
X166576238Y-49256142D01*
%TO.C,U1*%
X161250380Y-72135904D02*
X162059904Y-72135904D01*
X162155142Y-72088285D01*
X162202761Y-72040666D01*
X162250380Y-71945428D01*
X162250380Y-71754952D01*
X162202761Y-71659714D01*
X162155142Y-71612095D01*
X162059904Y-71564476D01*
X161250380Y-71564476D01*
X162250380Y-70564476D02*
X162250380Y-71135904D01*
X162250380Y-70850190D02*
X161250380Y-70850190D01*
X161393238Y-70945428D01*
X161488476Y-71040666D01*
X161536095Y-71135904D01*
%TO.C,J7*%
X129858880Y-72683595D02*
X128858880Y-72683595D01*
X128858880Y-72302642D01*
X128906500Y-72207404D01*
X128954119Y-72159785D01*
X129049357Y-72112166D01*
X129192214Y-72112166D01*
X129287452Y-72159785D01*
X129335071Y-72207404D01*
X129382690Y-72302642D01*
X129382690Y-72683595D01*
X129811261Y-71731214D02*
X129858880Y-71588357D01*
X129858880Y-71350261D01*
X129811261Y-71255023D01*
X129763642Y-71207404D01*
X129668404Y-71159785D01*
X129573166Y-71159785D01*
X129477928Y-71207404D01*
X129430309Y-71255023D01*
X129382690Y-71350261D01*
X129335071Y-71540738D01*
X129287452Y-71635976D01*
X129239833Y-71683595D01*
X129144595Y-71731214D01*
X129049357Y-71731214D01*
X128954119Y-71683595D01*
X128906500Y-71635976D01*
X128858880Y-71540738D01*
X128858880Y-71302642D01*
X128906500Y-71159785D01*
%TO.C,R15*%
X149496642Y-60904380D02*
X149163309Y-60428190D01*
X148925214Y-60904380D02*
X148925214Y-59904380D01*
X149306166Y-59904380D01*
X149401404Y-59952000D01*
X149449023Y-59999619D01*
X149496642Y-60094857D01*
X149496642Y-60237714D01*
X149449023Y-60332952D01*
X149401404Y-60380571D01*
X149306166Y-60428190D01*
X148925214Y-60428190D01*
X150449023Y-60904380D02*
X149877595Y-60904380D01*
X150163309Y-60904380D02*
X150163309Y-59904380D01*
X150068071Y-60047238D01*
X149972833Y-60142476D01*
X149877595Y-60190095D01*
X151353785Y-59904380D02*
X150877595Y-59904380D01*
X150829976Y-60380571D01*
X150877595Y-60332952D01*
X150972833Y-60285333D01*
X151210928Y-60285333D01*
X151306166Y-60332952D01*
X151353785Y-60380571D01*
X151401404Y-60475809D01*
X151401404Y-60713904D01*
X151353785Y-60809142D01*
X151306166Y-60856761D01*
X151210928Y-60904380D01*
X150972833Y-60904380D01*
X150877595Y-60856761D01*
X150829976Y-60809142D01*
%TO.C,R14*%
X125595142Y-65222380D02*
X125261809Y-64746190D01*
X125023714Y-65222380D02*
X125023714Y-64222380D01*
X125404666Y-64222380D01*
X125499904Y-64270000D01*
X125547523Y-64317619D01*
X125595142Y-64412857D01*
X125595142Y-64555714D01*
X125547523Y-64650952D01*
X125499904Y-64698571D01*
X125404666Y-64746190D01*
X125023714Y-64746190D01*
X126547523Y-65222380D02*
X125976095Y-65222380D01*
X126261809Y-65222380D02*
X126261809Y-64222380D01*
X126166571Y-64365238D01*
X126071333Y-64460476D01*
X125976095Y-64508095D01*
X127404666Y-64555714D02*
X127404666Y-65222380D01*
X127166571Y-64174761D02*
X126928476Y-64889047D01*
X127547523Y-64889047D01*
%TO.C,J6*%
D14*
X144737666Y-36153523D02*
X144737666Y-37060666D01*
X144677190Y-37242095D01*
X144556238Y-37363047D01*
X144374809Y-37423523D01*
X144253857Y-37423523D01*
X145886714Y-36153523D02*
X145644809Y-36153523D01*
X145523857Y-36214000D01*
X145463380Y-36274476D01*
X145342428Y-36455904D01*
X145281952Y-36697809D01*
X145281952Y-37181619D01*
X145342428Y-37302571D01*
X145402904Y-37363047D01*
X145523857Y-37423523D01*
X145765761Y-37423523D01*
X145886714Y-37363047D01*
X145947190Y-37302571D01*
X146007666Y-37181619D01*
X146007666Y-36879238D01*
X145947190Y-36758285D01*
X145886714Y-36697809D01*
X145765761Y-36637333D01*
X145523857Y-36637333D01*
X145402904Y-36697809D01*
X145342428Y-36758285D01*
X145281952Y-36879238D01*
%TO.C,D15*%
D11*
X119673976Y-65255380D02*
X119673976Y-64255380D01*
X120054928Y-64255380D01*
X120150166Y-64303000D01*
X120197785Y-64350619D01*
X120245404Y-64445857D01*
X120245404Y-64588714D01*
X120197785Y-64683952D01*
X120150166Y-64731571D01*
X120054928Y-64779190D01*
X119673976Y-64779190D01*
X120864452Y-64255380D02*
X121054928Y-64255380D01*
X121150166Y-64303000D01*
X121245404Y-64398238D01*
X121293023Y-64588714D01*
X121293023Y-64922047D01*
X121245404Y-65112523D01*
X121150166Y-65207761D01*
X121054928Y-65255380D01*
X120864452Y-65255380D01*
X120769214Y-65207761D01*
X120673976Y-65112523D01*
X120626357Y-64922047D01*
X120626357Y-64588714D01*
X120673976Y-64398238D01*
X120769214Y-64303000D01*
X120864452Y-64255380D01*
X121626357Y-64255380D02*
X121864452Y-65255380D01*
X122054928Y-64541095D01*
X122245404Y-65255380D01*
X122483500Y-64255380D01*
X122864452Y-64731571D02*
X123197785Y-64731571D01*
X123340642Y-65255380D02*
X122864452Y-65255380D01*
X122864452Y-64255380D01*
X123340642Y-64255380D01*
X124340642Y-65255380D02*
X124007309Y-64779190D01*
X123769214Y-65255380D02*
X123769214Y-64255380D01*
X124150166Y-64255380D01*
X124245404Y-64303000D01*
X124293023Y-64350619D01*
X124340642Y-64445857D01*
X124340642Y-64588714D01*
X124293023Y-64683952D01*
X124245404Y-64731571D01*
X124150166Y-64779190D01*
X123769214Y-64779190D01*
%TO.C,SW2*%
X118006761Y-58737333D02*
X118054380Y-58594476D01*
X118054380Y-58356380D01*
X118006761Y-58261142D01*
X117959142Y-58213523D01*
X117863904Y-58165904D01*
X117768666Y-58165904D01*
X117673428Y-58213523D01*
X117625809Y-58261142D01*
X117578190Y-58356380D01*
X117530571Y-58546857D01*
X117482952Y-58642095D01*
X117435333Y-58689714D01*
X117340095Y-58737333D01*
X117244857Y-58737333D01*
X117149619Y-58689714D01*
X117102000Y-58642095D01*
X117054380Y-58546857D01*
X117054380Y-58308761D01*
X117102000Y-58165904D01*
X117054380Y-57832571D02*
X118054380Y-57594476D01*
X117340095Y-57404000D01*
X118054380Y-57213523D01*
X117054380Y-56975428D01*
X117149619Y-56642095D02*
X117102000Y-56594476D01*
X117054380Y-56499238D01*
X117054380Y-56261142D01*
X117102000Y-56165904D01*
X117149619Y-56118285D01*
X117244857Y-56070666D01*
X117340095Y-56070666D01*
X117482952Y-56118285D01*
X118054380Y-56689714D01*
X118054380Y-56070666D01*
%TO.C,R13*%
X160519642Y-56553380D02*
X160186309Y-56077190D01*
X159948214Y-56553380D02*
X159948214Y-55553380D01*
X160329166Y-55553380D01*
X160424404Y-55601000D01*
X160472023Y-55648619D01*
X160519642Y-55743857D01*
X160519642Y-55886714D01*
X160472023Y-55981952D01*
X160424404Y-56029571D01*
X160329166Y-56077190D01*
X159948214Y-56077190D01*
X161472023Y-56553380D02*
X160900595Y-56553380D01*
X161186309Y-56553380D02*
X161186309Y-55553380D01*
X161091071Y-55696238D01*
X160995833Y-55791476D01*
X160900595Y-55839095D01*
X161805357Y-55553380D02*
X162424404Y-55553380D01*
X162091071Y-55934333D01*
X162233928Y-55934333D01*
X162329166Y-55981952D01*
X162376785Y-56029571D01*
X162424404Y-56124809D01*
X162424404Y-56362904D01*
X162376785Y-56458142D01*
X162329166Y-56505761D01*
X162233928Y-56553380D01*
X161948214Y-56553380D01*
X161852976Y-56505761D01*
X161805357Y-56458142D01*
%TO.C,R12*%
X136263142Y-70302380D02*
X135929809Y-69826190D01*
X135691714Y-70302380D02*
X135691714Y-69302380D01*
X136072666Y-69302380D01*
X136167904Y-69350000D01*
X136215523Y-69397619D01*
X136263142Y-69492857D01*
X136263142Y-69635714D01*
X136215523Y-69730952D01*
X136167904Y-69778571D01*
X136072666Y-69826190D01*
X135691714Y-69826190D01*
X137215523Y-70302380D02*
X136644095Y-70302380D01*
X136929809Y-70302380D02*
X136929809Y-69302380D01*
X136834571Y-69445238D01*
X136739333Y-69540476D01*
X136644095Y-69588095D01*
X137596476Y-69397619D02*
X137644095Y-69350000D01*
X137739333Y-69302380D01*
X137977428Y-69302380D01*
X138072666Y-69350000D01*
X138120285Y-69397619D01*
X138167904Y-69492857D01*
X138167904Y-69588095D01*
X138120285Y-69730952D01*
X137548857Y-70302380D01*
X138167904Y-70302380D01*
%TO.C,R11*%
X133215142Y-70302380D02*
X132881809Y-69826190D01*
X132643714Y-70302380D02*
X132643714Y-69302380D01*
X133024666Y-69302380D01*
X133119904Y-69350000D01*
X133167523Y-69397619D01*
X133215142Y-69492857D01*
X133215142Y-69635714D01*
X133167523Y-69730952D01*
X133119904Y-69778571D01*
X133024666Y-69826190D01*
X132643714Y-69826190D01*
X134167523Y-70302380D02*
X133596095Y-70302380D01*
X133881809Y-70302380D02*
X133881809Y-69302380D01*
X133786571Y-69445238D01*
X133691333Y-69540476D01*
X133596095Y-69588095D01*
X135119904Y-70302380D02*
X134548476Y-70302380D01*
X134834190Y-70302380D02*
X134834190Y-69302380D01*
X134738952Y-69445238D01*
X134643714Y-69540476D01*
X134548476Y-69588095D01*
%TO.C,R10*%
X148837142Y-72080380D02*
X148503809Y-71604190D01*
X148265714Y-72080380D02*
X148265714Y-71080380D01*
X148646666Y-71080380D01*
X148741904Y-71128000D01*
X148789523Y-71175619D01*
X148837142Y-71270857D01*
X148837142Y-71413714D01*
X148789523Y-71508952D01*
X148741904Y-71556571D01*
X148646666Y-71604190D01*
X148265714Y-71604190D01*
X149789523Y-72080380D02*
X149218095Y-72080380D01*
X149503809Y-72080380D02*
X149503809Y-71080380D01*
X149408571Y-71223238D01*
X149313333Y-71318476D01*
X149218095Y-71366095D01*
X150408571Y-71080380D02*
X150503809Y-71080380D01*
X150599047Y-71128000D01*
X150646666Y-71175619D01*
X150694285Y-71270857D01*
X150741904Y-71461333D01*
X150741904Y-71699428D01*
X150694285Y-71889904D01*
X150646666Y-71985142D01*
X150599047Y-72032761D01*
X150503809Y-72080380D01*
X150408571Y-72080380D01*
X150313333Y-72032761D01*
X150265714Y-71985142D01*
X150218095Y-71889904D01*
X150170476Y-71699428D01*
X150170476Y-71461333D01*
X150218095Y-71270857D01*
X150265714Y-71175619D01*
X150313333Y-71128000D01*
X150408571Y-71080380D01*
%TO.C,R9*%
X149185333Y-76652380D02*
X148852000Y-76176190D01*
X148613904Y-76652380D02*
X148613904Y-75652380D01*
X148994857Y-75652380D01*
X149090095Y-75700000D01*
X149137714Y-75747619D01*
X149185333Y-75842857D01*
X149185333Y-75985714D01*
X149137714Y-76080952D01*
X149090095Y-76128571D01*
X148994857Y-76176190D01*
X148613904Y-76176190D01*
X149661523Y-76652380D02*
X149852000Y-76652380D01*
X149947238Y-76604761D01*
X149994857Y-76557142D01*
X150090095Y-76414285D01*
X150137714Y-76223809D01*
X150137714Y-75842857D01*
X150090095Y-75747619D01*
X150042476Y-75700000D01*
X149947238Y-75652380D01*
X149756761Y-75652380D01*
X149661523Y-75700000D01*
X149613904Y-75747619D01*
X149566285Y-75842857D01*
X149566285Y-76080952D01*
X149613904Y-76176190D01*
X149661523Y-76223809D01*
X149756761Y-76271428D01*
X149947238Y-76271428D01*
X150042476Y-76223809D01*
X150090095Y-76176190D01*
X150137714Y-76080952D01*
%TO.C,R8*%
X146408380Y-64873666D02*
X145932190Y-65207000D01*
X146408380Y-65445095D02*
X145408380Y-65445095D01*
X145408380Y-65064142D01*
X145456000Y-64968904D01*
X145503619Y-64921285D01*
X145598857Y-64873666D01*
X145741714Y-64873666D01*
X145836952Y-64921285D01*
X145884571Y-64968904D01*
X145932190Y-65064142D01*
X145932190Y-65445095D01*
X145836952Y-64302238D02*
X145789333Y-64397476D01*
X145741714Y-64445095D01*
X145646476Y-64492714D01*
X145598857Y-64492714D01*
X145503619Y-64445095D01*
X145456000Y-64397476D01*
X145408380Y-64302238D01*
X145408380Y-64111761D01*
X145456000Y-64016523D01*
X145503619Y-63968904D01*
X145598857Y-63921285D01*
X145646476Y-63921285D01*
X145741714Y-63968904D01*
X145789333Y-64016523D01*
X145836952Y-64111761D01*
X145836952Y-64302238D01*
X145884571Y-64397476D01*
X145932190Y-64445095D01*
X146027428Y-64492714D01*
X146217904Y-64492714D01*
X146313142Y-64445095D01*
X146360761Y-64397476D01*
X146408380Y-64302238D01*
X146408380Y-64111761D01*
X146360761Y-64016523D01*
X146313142Y-63968904D01*
X146217904Y-63921285D01*
X146027428Y-63921285D01*
X145932190Y-63968904D01*
X145884571Y-64016523D01*
X145836952Y-64111761D01*
%TO.C,R7*%
X155217833Y-59634380D02*
X154884500Y-59158190D01*
X154646404Y-59634380D02*
X154646404Y-58634380D01*
X155027357Y-58634380D01*
X155122595Y-58682000D01*
X155170214Y-58729619D01*
X155217833Y-58824857D01*
X155217833Y-58967714D01*
X155170214Y-59062952D01*
X155122595Y-59110571D01*
X155027357Y-59158190D01*
X154646404Y-59158190D01*
X155551166Y-58634380D02*
X156217833Y-58634380D01*
X155789261Y-59634380D01*
%TO.C,R6*%
X133119833Y-74683880D02*
X132786500Y-74207690D01*
X132548404Y-74683880D02*
X132548404Y-73683880D01*
X132929357Y-73683880D01*
X133024595Y-73731500D01*
X133072214Y-73779119D01*
X133119833Y-73874357D01*
X133119833Y-74017214D01*
X133072214Y-74112452D01*
X133024595Y-74160071D01*
X132929357Y-74207690D01*
X132548404Y-74207690D01*
X133976976Y-73683880D02*
X133786500Y-73683880D01*
X133691261Y-73731500D01*
X133643642Y-73779119D01*
X133548404Y-73921976D01*
X133500785Y-74112452D01*
X133500785Y-74493404D01*
X133548404Y-74588642D01*
X133596023Y-74636261D01*
X133691261Y-74683880D01*
X133881738Y-74683880D01*
X133976976Y-74636261D01*
X134024595Y-74588642D01*
X134072214Y-74493404D01*
X134072214Y-74255309D01*
X134024595Y-74160071D01*
X133976976Y-74112452D01*
X133881738Y-74064833D01*
X133691261Y-74064833D01*
X133596023Y-74112452D01*
X133548404Y-74160071D01*
X133500785Y-74255309D01*
%TO.C,R5*%
X131087833Y-74683880D02*
X130754500Y-74207690D01*
X130516404Y-74683880D02*
X130516404Y-73683880D01*
X130897357Y-73683880D01*
X130992595Y-73731500D01*
X131040214Y-73779119D01*
X131087833Y-73874357D01*
X131087833Y-74017214D01*
X131040214Y-74112452D01*
X130992595Y-74160071D01*
X130897357Y-74207690D01*
X130516404Y-74207690D01*
X131992595Y-73683880D02*
X131516404Y-73683880D01*
X131468785Y-74160071D01*
X131516404Y-74112452D01*
X131611642Y-74064833D01*
X131849738Y-74064833D01*
X131944976Y-74112452D01*
X131992595Y-74160071D01*
X132040214Y-74255309D01*
X132040214Y-74493404D01*
X131992595Y-74588642D01*
X131944976Y-74636261D01*
X131849738Y-74683880D01*
X131611642Y-74683880D01*
X131516404Y-74636261D01*
X131468785Y-74588642D01*
%TO.C,D9*%
X135636095Y-64730380D02*
X136207523Y-64730380D01*
X135921809Y-65730380D02*
X135921809Y-64730380D01*
X136445619Y-64730380D02*
X137112285Y-65730380D01*
X137112285Y-64730380D02*
X136445619Y-65730380D01*
%TO.C,D8*%
X134199333Y-65730380D02*
X133866000Y-65254190D01*
X133627904Y-65730380D02*
X133627904Y-64730380D01*
X134008857Y-64730380D01*
X134104095Y-64778000D01*
X134151714Y-64825619D01*
X134199333Y-64920857D01*
X134199333Y-65063714D01*
X134151714Y-65158952D01*
X134104095Y-65206571D01*
X134008857Y-65254190D01*
X133627904Y-65254190D01*
X134532666Y-64730380D02*
X135199333Y-65730380D01*
X135199333Y-64730380D02*
X134532666Y-65730380D01*
%TO.C,3V3*%
X145408380Y-69247095D02*
X145408380Y-68628047D01*
X145789333Y-68961380D01*
X145789333Y-68818523D01*
X145836952Y-68723285D01*
X145884571Y-68675666D01*
X145979809Y-68628047D01*
X146217904Y-68628047D01*
X146313142Y-68675666D01*
X146360761Y-68723285D01*
X146408380Y-68818523D01*
X146408380Y-69104238D01*
X146360761Y-69199476D01*
X146313142Y-69247095D01*
X145408380Y-68342333D02*
X146408380Y-68009000D01*
X145408380Y-67675666D01*
X145408380Y-67437571D02*
X145408380Y-66818523D01*
X145789333Y-67151857D01*
X145789333Y-67009000D01*
X145836952Y-66913761D01*
X145884571Y-66866142D01*
X145979809Y-66818523D01*
X146217904Y-66818523D01*
X146313142Y-66866142D01*
X146360761Y-66913761D01*
X146408380Y-67009000D01*
X146408380Y-67294714D01*
X146360761Y-67389952D01*
X146313142Y-67437571D01*
%TO.C,D6*%
X159813785Y-57808761D02*
X159956642Y-57856380D01*
X160194738Y-57856380D01*
X160289976Y-57808761D01*
X160337595Y-57761142D01*
X160385214Y-57665904D01*
X160385214Y-57570666D01*
X160337595Y-57475428D01*
X160289976Y-57427809D01*
X160194738Y-57380190D01*
X160004261Y-57332571D01*
X159909023Y-57284952D01*
X159861404Y-57237333D01*
X159813785Y-57142095D01*
X159813785Y-57046857D01*
X159861404Y-56951619D01*
X159909023Y-56904000D01*
X160004261Y-56856380D01*
X160242357Y-56856380D01*
X160385214Y-56904000D01*
X161385214Y-57761142D02*
X161337595Y-57808761D01*
X161194738Y-57856380D01*
X161099500Y-57856380D01*
X160956642Y-57808761D01*
X160861404Y-57713523D01*
X160813785Y-57618285D01*
X160766166Y-57427809D01*
X160766166Y-57284952D01*
X160813785Y-57094476D01*
X160861404Y-56999238D01*
X160956642Y-56904000D01*
X161099500Y-56856380D01*
X161194738Y-56856380D01*
X161337595Y-56904000D01*
X161385214Y-56951619D01*
X161813785Y-57856380D02*
X161813785Y-56856380D01*
X162385214Y-57856380D02*
X161956642Y-57284952D01*
X162385214Y-56856380D02*
X161813785Y-57427809D01*
%TO.C,C18*%
X129913142Y-82145142D02*
X129865523Y-82192761D01*
X129722666Y-82240380D01*
X129627428Y-82240380D01*
X129484571Y-82192761D01*
X129389333Y-82097523D01*
X129341714Y-82002285D01*
X129294095Y-81811809D01*
X129294095Y-81668952D01*
X129341714Y-81478476D01*
X129389333Y-81383238D01*
X129484571Y-81288000D01*
X129627428Y-81240380D01*
X129722666Y-81240380D01*
X129865523Y-81288000D01*
X129913142Y-81335619D01*
X130865523Y-82240380D02*
X130294095Y-82240380D01*
X130579809Y-82240380D02*
X130579809Y-81240380D01*
X130484571Y-81383238D01*
X130389333Y-81478476D01*
X130294095Y-81526095D01*
X131436952Y-81668952D02*
X131341714Y-81621333D01*
X131294095Y-81573714D01*
X131246476Y-81478476D01*
X131246476Y-81430857D01*
X131294095Y-81335619D01*
X131341714Y-81288000D01*
X131436952Y-81240380D01*
X131627428Y-81240380D01*
X131722666Y-81288000D01*
X131770285Y-81335619D01*
X131817904Y-81430857D01*
X131817904Y-81478476D01*
X131770285Y-81573714D01*
X131722666Y-81621333D01*
X131627428Y-81668952D01*
X131436952Y-81668952D01*
X131341714Y-81716571D01*
X131294095Y-81764190D01*
X131246476Y-81859428D01*
X131246476Y-82049904D01*
X131294095Y-82145142D01*
X131341714Y-82192761D01*
X131436952Y-82240380D01*
X131627428Y-82240380D01*
X131722666Y-82192761D01*
X131770285Y-82145142D01*
X131817904Y-82049904D01*
X131817904Y-81859428D01*
X131770285Y-81764190D01*
X131722666Y-81716571D01*
X131627428Y-81668952D01*
%TO.C,C17*%
X141089142Y-81637142D02*
X141041523Y-81684761D01*
X140898666Y-81732380D01*
X140803428Y-81732380D01*
X140660571Y-81684761D01*
X140565333Y-81589523D01*
X140517714Y-81494285D01*
X140470095Y-81303809D01*
X140470095Y-81160952D01*
X140517714Y-80970476D01*
X140565333Y-80875238D01*
X140660571Y-80780000D01*
X140803428Y-80732380D01*
X140898666Y-80732380D01*
X141041523Y-80780000D01*
X141089142Y-80827619D01*
X142041523Y-81732380D02*
X141470095Y-81732380D01*
X141755809Y-81732380D02*
X141755809Y-80732380D01*
X141660571Y-80875238D01*
X141565333Y-80970476D01*
X141470095Y-81018095D01*
X142374857Y-80732380D02*
X143041523Y-80732380D01*
X142612952Y-81732380D01*
%TO.C,C16*%
X141327142Y-63718857D02*
X141374761Y-63766476D01*
X141422380Y-63909333D01*
X141422380Y-64004571D01*
X141374761Y-64147428D01*
X141279523Y-64242666D01*
X141184285Y-64290285D01*
X140993809Y-64337904D01*
X140850952Y-64337904D01*
X140660476Y-64290285D01*
X140565238Y-64242666D01*
X140470000Y-64147428D01*
X140422380Y-64004571D01*
X140422380Y-63909333D01*
X140470000Y-63766476D01*
X140517619Y-63718857D01*
X141422380Y-62766476D02*
X141422380Y-63337904D01*
X141422380Y-63052190D02*
X140422380Y-63052190D01*
X140565238Y-63147428D01*
X140660476Y-63242666D01*
X140708095Y-63337904D01*
X140422380Y-61909333D02*
X140422380Y-62099809D01*
X140470000Y-62195047D01*
X140517619Y-62242666D01*
X140660476Y-62337904D01*
X140850952Y-62385523D01*
X141231904Y-62385523D01*
X141327142Y-62337904D01*
X141374761Y-62290285D01*
X141422380Y-62195047D01*
X141422380Y-62004571D01*
X141374761Y-61909333D01*
X141327142Y-61861714D01*
X141231904Y-61814095D01*
X140993809Y-61814095D01*
X140898571Y-61861714D01*
X140850952Y-61909333D01*
X140803333Y-62004571D01*
X140803333Y-62195047D01*
X140850952Y-62290285D01*
X140898571Y-62337904D01*
X140993809Y-62385523D01*
%TO.C,C15*%
X143359142Y-65336857D02*
X143406761Y-65384476D01*
X143454380Y-65527333D01*
X143454380Y-65622571D01*
X143406761Y-65765428D01*
X143311523Y-65860666D01*
X143216285Y-65908285D01*
X143025809Y-65955904D01*
X142882952Y-65955904D01*
X142692476Y-65908285D01*
X142597238Y-65860666D01*
X142502000Y-65765428D01*
X142454380Y-65622571D01*
X142454380Y-65527333D01*
X142502000Y-65384476D01*
X142549619Y-65336857D01*
X143454380Y-64384476D02*
X143454380Y-64955904D01*
X143454380Y-64670190D02*
X142454380Y-64670190D01*
X142597238Y-64765428D01*
X142692476Y-64860666D01*
X142740095Y-64955904D01*
X142454380Y-63479714D02*
X142454380Y-63955904D01*
X142930571Y-64003523D01*
X142882952Y-63955904D01*
X142835333Y-63860666D01*
X142835333Y-63622571D01*
X142882952Y-63527333D01*
X142930571Y-63479714D01*
X143025809Y-63432095D01*
X143263904Y-63432095D01*
X143359142Y-63479714D01*
X143406761Y-63527333D01*
X143454380Y-63622571D01*
X143454380Y-63860666D01*
X143406761Y-63955904D01*
X143359142Y-64003523D01*
%TO.C,C14*%
X148947142Y-79128857D02*
X148994761Y-79176476D01*
X149042380Y-79319333D01*
X149042380Y-79414571D01*
X148994761Y-79557428D01*
X148899523Y-79652666D01*
X148804285Y-79700285D01*
X148613809Y-79747904D01*
X148470952Y-79747904D01*
X148280476Y-79700285D01*
X148185238Y-79652666D01*
X148090000Y-79557428D01*
X148042380Y-79414571D01*
X148042380Y-79319333D01*
X148090000Y-79176476D01*
X148137619Y-79128857D01*
X149042380Y-78176476D02*
X149042380Y-78747904D01*
X149042380Y-78462190D02*
X148042380Y-78462190D01*
X148185238Y-78557428D01*
X148280476Y-78652666D01*
X148328095Y-78747904D01*
X148375714Y-77319333D02*
X149042380Y-77319333D01*
X147994761Y-77557428D02*
X148709047Y-77795523D01*
X148709047Y-77176476D01*
%TO.C,C13*%
X149041142Y-69984857D02*
X149088761Y-70032476D01*
X149136380Y-70175333D01*
X149136380Y-70270571D01*
X149088761Y-70413428D01*
X148993523Y-70508666D01*
X148898285Y-70556285D01*
X148707809Y-70603904D01*
X148564952Y-70603904D01*
X148374476Y-70556285D01*
X148279238Y-70508666D01*
X148184000Y-70413428D01*
X148136380Y-70270571D01*
X148136380Y-70175333D01*
X148184000Y-70032476D01*
X148231619Y-69984857D01*
X149136380Y-69032476D02*
X149136380Y-69603904D01*
X149136380Y-69318190D02*
X148136380Y-69318190D01*
X148279238Y-69413428D01*
X148374476Y-69508666D01*
X148422095Y-69603904D01*
X148136380Y-68699142D02*
X148136380Y-68080095D01*
X148517333Y-68413428D01*
X148517333Y-68270571D01*
X148564952Y-68175333D01*
X148612571Y-68127714D01*
X148707809Y-68080095D01*
X148945904Y-68080095D01*
X149041142Y-68127714D01*
X149088761Y-68175333D01*
X149136380Y-68270571D01*
X149136380Y-68556285D01*
X149088761Y-68651523D01*
X149041142Y-68699142D01*
%TO.C,C12*%
X143676642Y-54236857D02*
X143724261Y-54284476D01*
X143771880Y-54427333D01*
X143771880Y-54522571D01*
X143724261Y-54665428D01*
X143629023Y-54760666D01*
X143533785Y-54808285D01*
X143343309Y-54855904D01*
X143200452Y-54855904D01*
X143009976Y-54808285D01*
X142914738Y-54760666D01*
X142819500Y-54665428D01*
X142771880Y-54522571D01*
X142771880Y-54427333D01*
X142819500Y-54284476D01*
X142867119Y-54236857D01*
X143771880Y-53284476D02*
X143771880Y-53855904D01*
X143771880Y-53570190D02*
X142771880Y-53570190D01*
X142914738Y-53665428D01*
X143009976Y-53760666D01*
X143057595Y-53855904D01*
X142867119Y-52903523D02*
X142819500Y-52855904D01*
X142771880Y-52760666D01*
X142771880Y-52522571D01*
X142819500Y-52427333D01*
X142867119Y-52379714D01*
X142962357Y-52332095D01*
X143057595Y-52332095D01*
X143200452Y-52379714D01*
X143771880Y-52951142D01*
X143771880Y-52332095D01*
%TO.C,C11*%
X143740142Y-50490357D02*
X143787761Y-50537976D01*
X143835380Y-50680833D01*
X143835380Y-50776071D01*
X143787761Y-50918928D01*
X143692523Y-51014166D01*
X143597285Y-51061785D01*
X143406809Y-51109404D01*
X143263952Y-51109404D01*
X143073476Y-51061785D01*
X142978238Y-51014166D01*
X142883000Y-50918928D01*
X142835380Y-50776071D01*
X142835380Y-50680833D01*
X142883000Y-50537976D01*
X142930619Y-50490357D01*
X143835380Y-49537976D02*
X143835380Y-50109404D01*
X143835380Y-49823690D02*
X142835380Y-49823690D01*
X142978238Y-49918928D01*
X143073476Y-50014166D01*
X143121095Y-50109404D01*
X143835380Y-48585595D02*
X143835380Y-49157023D01*
X143835380Y-48871309D02*
X142835380Y-48871309D01*
X142978238Y-48966547D01*
X143073476Y-49061785D01*
X143121095Y-49157023D01*
%TO.C,C10*%
X160215642Y-49379142D02*
X160168023Y-49426761D01*
X160025166Y-49474380D01*
X159929928Y-49474380D01*
X159787071Y-49426761D01*
X159691833Y-49331523D01*
X159644214Y-49236285D01*
X159596595Y-49045809D01*
X159596595Y-48902952D01*
X159644214Y-48712476D01*
X159691833Y-48617238D01*
X159787071Y-48522000D01*
X159929928Y-48474380D01*
X160025166Y-48474380D01*
X160168023Y-48522000D01*
X160215642Y-48569619D01*
X161168023Y-49474380D02*
X160596595Y-49474380D01*
X160882309Y-49474380D02*
X160882309Y-48474380D01*
X160787071Y-48617238D01*
X160691833Y-48712476D01*
X160596595Y-48760095D01*
X161787071Y-48474380D02*
X161882309Y-48474380D01*
X161977547Y-48522000D01*
X162025166Y-48569619D01*
X162072785Y-48664857D01*
X162120404Y-48855333D01*
X162120404Y-49093428D01*
X162072785Y-49283904D01*
X162025166Y-49379142D01*
X161977547Y-49426761D01*
X161882309Y-49474380D01*
X161787071Y-49474380D01*
X161691833Y-49426761D01*
X161644214Y-49379142D01*
X161596595Y-49283904D01*
X161548976Y-49093428D01*
X161548976Y-48855333D01*
X161596595Y-48664857D01*
X161644214Y-48569619D01*
X161691833Y-48522000D01*
X161787071Y-48474380D01*
%TO.C,C9*%
X143773142Y-47093166D02*
X143820761Y-47140785D01*
X143868380Y-47283642D01*
X143868380Y-47378880D01*
X143820761Y-47521738D01*
X143725523Y-47616976D01*
X143630285Y-47664595D01*
X143439809Y-47712214D01*
X143296952Y-47712214D01*
X143106476Y-47664595D01*
X143011238Y-47616976D01*
X142916000Y-47521738D01*
X142868380Y-47378880D01*
X142868380Y-47283642D01*
X142916000Y-47140785D01*
X142963619Y-47093166D01*
X143868380Y-46616976D02*
X143868380Y-46426500D01*
X143820761Y-46331261D01*
X143773142Y-46283642D01*
X143630285Y-46188404D01*
X143439809Y-46140785D01*
X143058857Y-46140785D01*
X142963619Y-46188404D01*
X142916000Y-46236023D01*
X142868380Y-46331261D01*
X142868380Y-46521738D01*
X142916000Y-46616976D01*
X142963619Y-46664595D01*
X143058857Y-46712214D01*
X143296952Y-46712214D01*
X143392190Y-46664595D01*
X143439809Y-46616976D01*
X143487428Y-46521738D01*
X143487428Y-46331261D01*
X143439809Y-46236023D01*
X143392190Y-46188404D01*
X143296952Y-46140785D01*
%TO.C,C8*%
X142978142Y-62792166D02*
X143025761Y-62839785D01*
X143073380Y-62982642D01*
X143073380Y-63077880D01*
X143025761Y-63220738D01*
X142930523Y-63315976D01*
X142835285Y-63363595D01*
X142644809Y-63411214D01*
X142501952Y-63411214D01*
X142311476Y-63363595D01*
X142216238Y-63315976D01*
X142121000Y-63220738D01*
X142073380Y-63077880D01*
X142073380Y-62982642D01*
X142121000Y-62839785D01*
X142168619Y-62792166D01*
X142501952Y-62220738D02*
X142454333Y-62315976D01*
X142406714Y-62363595D01*
X142311476Y-62411214D01*
X142263857Y-62411214D01*
X142168619Y-62363595D01*
X142121000Y-62315976D01*
X142073380Y-62220738D01*
X142073380Y-62030261D01*
X142121000Y-61935023D01*
X142168619Y-61887404D01*
X142263857Y-61839785D01*
X142311476Y-61839785D01*
X142406714Y-61887404D01*
X142454333Y-61935023D01*
X142501952Y-62030261D01*
X142501952Y-62220738D01*
X142549571Y-62315976D01*
X142597190Y-62363595D01*
X142692428Y-62411214D01*
X142882904Y-62411214D01*
X142978142Y-62363595D01*
X143025761Y-62315976D01*
X143073380Y-62220738D01*
X143073380Y-62030261D01*
X143025761Y-61935023D01*
X142978142Y-61887404D01*
X142882904Y-61839785D01*
X142692428Y-61839785D01*
X142597190Y-61887404D01*
X142549571Y-61935023D01*
X142501952Y-62030261D01*
%TO.C,C7*%
X157630833Y-54522642D02*
X157583214Y-54570261D01*
X157440357Y-54617880D01*
X157345119Y-54617880D01*
X157202261Y-54570261D01*
X157107023Y-54475023D01*
X157059404Y-54379785D01*
X157011785Y-54189309D01*
X157011785Y-54046452D01*
X157059404Y-53855976D01*
X157107023Y-53760738D01*
X157202261Y-53665500D01*
X157345119Y-53617880D01*
X157440357Y-53617880D01*
X157583214Y-53665500D01*
X157630833Y-53713119D01*
X157964166Y-53617880D02*
X158630833Y-53617880D01*
X158202261Y-54617880D01*
%TO.C,Y2*%
X138406190Y-54070190D02*
X138882380Y-54070190D01*
X137882380Y-54403523D02*
X138406190Y-54070190D01*
X137882380Y-53736857D01*
X137977619Y-53451142D02*
X137930000Y-53403523D01*
X137882380Y-53308285D01*
X137882380Y-53070190D01*
X137930000Y-52974952D01*
X137977619Y-52927333D01*
X138072857Y-52879714D01*
X138168095Y-52879714D01*
X138310952Y-52927333D01*
X138882380Y-53498761D01*
X138882380Y-52879714D01*
%TO.C,U3*%
X148590095Y-50760380D02*
X148590095Y-51569904D01*
X148637714Y-51665142D01*
X148685333Y-51712761D01*
X148780571Y-51760380D01*
X148971047Y-51760380D01*
X149066285Y-51712761D01*
X149113904Y-51665142D01*
X149161523Y-51569904D01*
X149161523Y-50760380D01*
X149542476Y-50760380D02*
X150161523Y-50760380D01*
X149828190Y-51141333D01*
X149971047Y-51141333D01*
X150066285Y-51188952D01*
X150113904Y-51236571D01*
X150161523Y-51331809D01*
X150161523Y-51569904D01*
X150113904Y-51665142D01*
X150066285Y-51712761D01*
X149971047Y-51760380D01*
X149685333Y-51760380D01*
X149590095Y-51712761D01*
X149542476Y-51665142D01*
%TO.C,U2*%
X136104380Y-75945904D02*
X136913904Y-75945904D01*
X137009142Y-75898285D01*
X137056761Y-75850666D01*
X137104380Y-75755428D01*
X137104380Y-75564952D01*
X137056761Y-75469714D01*
X137009142Y-75422095D01*
X136913904Y-75374476D01*
X136104380Y-75374476D01*
X136199619Y-74945904D02*
X136152000Y-74898285D01*
X136104380Y-74803047D01*
X136104380Y-74564952D01*
X136152000Y-74469714D01*
X136199619Y-74422095D01*
X136294857Y-74374476D01*
X136390095Y-74374476D01*
X136532952Y-74422095D01*
X137104380Y-74993523D01*
X137104380Y-74374476D01*
%TO.C,R3*%
X166329333Y-60650380D02*
X165996000Y-60174190D01*
X165757904Y-60650380D02*
X165757904Y-59650380D01*
X166138857Y-59650380D01*
X166234095Y-59698000D01*
X166281714Y-59745619D01*
X166329333Y-59840857D01*
X166329333Y-59983714D01*
X166281714Y-60078952D01*
X166234095Y-60126571D01*
X166138857Y-60174190D01*
X165757904Y-60174190D01*
X166662666Y-59650380D02*
X167281714Y-59650380D01*
X166948380Y-60031333D01*
X167091238Y-60031333D01*
X167186476Y-60078952D01*
X167234095Y-60126571D01*
X167281714Y-60221809D01*
X167281714Y-60459904D01*
X167234095Y-60555142D01*
X167186476Y-60602761D01*
X167091238Y-60650380D01*
X166805523Y-60650380D01*
X166710285Y-60602761D01*
X166662666Y-60555142D01*
%TO.C,R1*%
X158186380Y-67540666D02*
X157710190Y-67874000D01*
X158186380Y-68112095D02*
X157186380Y-68112095D01*
X157186380Y-67731142D01*
X157234000Y-67635904D01*
X157281619Y-67588285D01*
X157376857Y-67540666D01*
X157519714Y-67540666D01*
X157614952Y-67588285D01*
X157662571Y-67635904D01*
X157710190Y-67731142D01*
X157710190Y-68112095D01*
X158186380Y-66588285D02*
X158186380Y-67159714D01*
X158186380Y-66874000D02*
X157186380Y-66874000D01*
X157329238Y-66969238D01*
X157424476Y-67064476D01*
X157472095Y-67159714D01*
%TO.C,Y1*%
D14*
X162385238Y-80487761D02*
X162385238Y-81092523D01*
X161961904Y-79822523D02*
X162385238Y-80487761D01*
X162808571Y-79822523D01*
X163897142Y-81092523D02*
X163171428Y-81092523D01*
X163534285Y-81092523D02*
X163534285Y-79822523D01*
X163413333Y-80003952D01*
X163292380Y-80124904D01*
X163171428Y-80185380D01*
%TO.C,J4*%
D11*
X162262380Y-84542380D02*
X162262380Y-85351904D01*
X162310000Y-85447142D01*
X162357619Y-85494761D01*
X162452857Y-85542380D01*
X162643333Y-85542380D01*
X162738571Y-85494761D01*
X162786190Y-85447142D01*
X162833809Y-85351904D01*
X162833809Y-84542380D01*
X163262380Y-85494761D02*
X163405238Y-85542380D01*
X163643333Y-85542380D01*
X163738571Y-85494761D01*
X163786190Y-85447142D01*
X163833809Y-85351904D01*
X163833809Y-85256666D01*
X163786190Y-85161428D01*
X163738571Y-85113809D01*
X163643333Y-85066190D01*
X163452857Y-85018571D01*
X163357619Y-84970952D01*
X163310000Y-84923333D01*
X163262380Y-84828095D01*
X163262380Y-84732857D01*
X163310000Y-84637619D01*
X163357619Y-84590000D01*
X163452857Y-84542380D01*
X163690952Y-84542380D01*
X163833809Y-84590000D01*
X164595714Y-85018571D02*
X164738571Y-85066190D01*
X164786190Y-85113809D01*
X164833809Y-85209047D01*
X164833809Y-85351904D01*
X164786190Y-85447142D01*
X164738571Y-85494761D01*
X164643333Y-85542380D01*
X164262380Y-85542380D01*
X164262380Y-84542380D01*
X164595714Y-84542380D01*
X164690952Y-84590000D01*
X164738571Y-84637619D01*
X164786190Y-84732857D01*
X164786190Y-84828095D01*
X164738571Y-84923333D01*
X164690952Y-84970952D01*
X164595714Y-85018571D01*
X164262380Y-85018571D01*
X165024285Y-85637619D02*
X165786190Y-85637619D01*
X166024285Y-85542380D02*
X166024285Y-84542380D01*
X166405238Y-84542380D01*
X166500476Y-84590000D01*
X166548095Y-84637619D01*
X166595714Y-84732857D01*
X166595714Y-84875714D01*
X166548095Y-84970952D01*
X166500476Y-85018571D01*
X166405238Y-85066190D01*
X166024285Y-85066190D01*
X167167142Y-85542380D02*
X167071904Y-85494761D01*
X167024285Y-85447142D01*
X166976666Y-85351904D01*
X166976666Y-85066190D01*
X167024285Y-84970952D01*
X167071904Y-84923333D01*
X167167142Y-84875714D01*
X167310000Y-84875714D01*
X167405238Y-84923333D01*
X167452857Y-84970952D01*
X167500476Y-85066190D01*
X167500476Y-85351904D01*
X167452857Y-85447142D01*
X167405238Y-85494761D01*
X167310000Y-85542380D01*
X167167142Y-85542380D01*
X167929047Y-85542380D02*
X167929047Y-84875714D01*
X167929047Y-85066190D02*
X167976666Y-84970952D01*
X168024285Y-84923333D01*
X168119523Y-84875714D01*
X168214761Y-84875714D01*
X168405238Y-84875714D02*
X168786190Y-84875714D01*
X168548095Y-84542380D02*
X168548095Y-85399523D01*
X168595714Y-85494761D01*
X168690952Y-85542380D01*
X168786190Y-85542380D01*
X168881428Y-85637619D02*
X169643333Y-85637619D01*
X170310000Y-84875714D02*
X170310000Y-85542380D01*
X170071904Y-84494761D02*
X169833809Y-85209047D01*
X170452857Y-85209047D01*
%TO.C,J3*%
X148292380Y-84542380D02*
X148292380Y-85351904D01*
X148340000Y-85447142D01*
X148387619Y-85494761D01*
X148482857Y-85542380D01*
X148673333Y-85542380D01*
X148768571Y-85494761D01*
X148816190Y-85447142D01*
X148863809Y-85351904D01*
X148863809Y-84542380D01*
X149292380Y-85494761D02*
X149435238Y-85542380D01*
X149673333Y-85542380D01*
X149768571Y-85494761D01*
X149816190Y-85447142D01*
X149863809Y-85351904D01*
X149863809Y-85256666D01*
X149816190Y-85161428D01*
X149768571Y-85113809D01*
X149673333Y-85066190D01*
X149482857Y-85018571D01*
X149387619Y-84970952D01*
X149340000Y-84923333D01*
X149292380Y-84828095D01*
X149292380Y-84732857D01*
X149340000Y-84637619D01*
X149387619Y-84590000D01*
X149482857Y-84542380D01*
X149720952Y-84542380D01*
X149863809Y-84590000D01*
X150625714Y-85018571D02*
X150768571Y-85066190D01*
X150816190Y-85113809D01*
X150863809Y-85209047D01*
X150863809Y-85351904D01*
X150816190Y-85447142D01*
X150768571Y-85494761D01*
X150673333Y-85542380D01*
X150292380Y-85542380D01*
X150292380Y-84542380D01*
X150625714Y-84542380D01*
X150720952Y-84590000D01*
X150768571Y-84637619D01*
X150816190Y-84732857D01*
X150816190Y-84828095D01*
X150768571Y-84923333D01*
X150720952Y-84970952D01*
X150625714Y-85018571D01*
X150292380Y-85018571D01*
X151054285Y-85637619D02*
X151816190Y-85637619D01*
X152054285Y-85542380D02*
X152054285Y-84542380D01*
X152435238Y-84542380D01*
X152530476Y-84590000D01*
X152578095Y-84637619D01*
X152625714Y-84732857D01*
X152625714Y-84875714D01*
X152578095Y-84970952D01*
X152530476Y-85018571D01*
X152435238Y-85066190D01*
X152054285Y-85066190D01*
X153197142Y-85542380D02*
X153101904Y-85494761D01*
X153054285Y-85447142D01*
X153006666Y-85351904D01*
X153006666Y-85066190D01*
X153054285Y-84970952D01*
X153101904Y-84923333D01*
X153197142Y-84875714D01*
X153340000Y-84875714D01*
X153435238Y-84923333D01*
X153482857Y-84970952D01*
X153530476Y-85066190D01*
X153530476Y-85351904D01*
X153482857Y-85447142D01*
X153435238Y-85494761D01*
X153340000Y-85542380D01*
X153197142Y-85542380D01*
X153959047Y-85542380D02*
X153959047Y-84875714D01*
X153959047Y-85066190D02*
X154006666Y-84970952D01*
X154054285Y-84923333D01*
X154149523Y-84875714D01*
X154244761Y-84875714D01*
X154435238Y-84875714D02*
X154816190Y-84875714D01*
X154578095Y-84542380D02*
X154578095Y-85399523D01*
X154625714Y-85494761D01*
X154720952Y-85542380D01*
X154816190Y-85542380D01*
X154911428Y-85637619D02*
X155673333Y-85637619D01*
X155816190Y-84542380D02*
X156435238Y-84542380D01*
X156101904Y-84923333D01*
X156244761Y-84923333D01*
X156340000Y-84970952D01*
X156387619Y-85018571D01*
X156435238Y-85113809D01*
X156435238Y-85351904D01*
X156387619Y-85447142D01*
X156340000Y-85494761D01*
X156244761Y-85542380D01*
X155959047Y-85542380D01*
X155863809Y-85494761D01*
X155816190Y-85447142D01*
%TO.C,J1*%
X120412380Y-84542380D02*
X120412380Y-85351904D01*
X120460000Y-85447142D01*
X120507619Y-85494761D01*
X120602857Y-85542380D01*
X120793333Y-85542380D01*
X120888571Y-85494761D01*
X120936190Y-85447142D01*
X120983809Y-85351904D01*
X120983809Y-84542380D01*
X121412380Y-85494761D02*
X121555238Y-85542380D01*
X121793333Y-85542380D01*
X121888571Y-85494761D01*
X121936190Y-85447142D01*
X121983809Y-85351904D01*
X121983809Y-85256666D01*
X121936190Y-85161428D01*
X121888571Y-85113809D01*
X121793333Y-85066190D01*
X121602857Y-85018571D01*
X121507619Y-84970952D01*
X121460000Y-84923333D01*
X121412380Y-84828095D01*
X121412380Y-84732857D01*
X121460000Y-84637619D01*
X121507619Y-84590000D01*
X121602857Y-84542380D01*
X121840952Y-84542380D01*
X121983809Y-84590000D01*
X122745714Y-85018571D02*
X122888571Y-85066190D01*
X122936190Y-85113809D01*
X122983809Y-85209047D01*
X122983809Y-85351904D01*
X122936190Y-85447142D01*
X122888571Y-85494761D01*
X122793333Y-85542380D01*
X122412380Y-85542380D01*
X122412380Y-84542380D01*
X122745714Y-84542380D01*
X122840952Y-84590000D01*
X122888571Y-84637619D01*
X122936190Y-84732857D01*
X122936190Y-84828095D01*
X122888571Y-84923333D01*
X122840952Y-84970952D01*
X122745714Y-85018571D01*
X122412380Y-85018571D01*
X123174285Y-85637619D02*
X123936190Y-85637619D01*
X124174285Y-85542380D02*
X124174285Y-84542380D01*
X124555238Y-84542380D01*
X124650476Y-84590000D01*
X124698095Y-84637619D01*
X124745714Y-84732857D01*
X124745714Y-84875714D01*
X124698095Y-84970952D01*
X124650476Y-85018571D01*
X124555238Y-85066190D01*
X124174285Y-85066190D01*
X125317142Y-85542380D02*
X125221904Y-85494761D01*
X125174285Y-85447142D01*
X125126666Y-85351904D01*
X125126666Y-85066190D01*
X125174285Y-84970952D01*
X125221904Y-84923333D01*
X125317142Y-84875714D01*
X125460000Y-84875714D01*
X125555238Y-84923333D01*
X125602857Y-84970952D01*
X125650476Y-85066190D01*
X125650476Y-85351904D01*
X125602857Y-85447142D01*
X125555238Y-85494761D01*
X125460000Y-85542380D01*
X125317142Y-85542380D01*
X126079047Y-85542380D02*
X126079047Y-84875714D01*
X126079047Y-85066190D02*
X126126666Y-84970952D01*
X126174285Y-84923333D01*
X126269523Y-84875714D01*
X126364761Y-84875714D01*
X126555238Y-84875714D02*
X126936190Y-84875714D01*
X126698095Y-84542380D02*
X126698095Y-85399523D01*
X126745714Y-85494761D01*
X126840952Y-85542380D01*
X126936190Y-85542380D01*
X127031428Y-85637619D02*
X127793333Y-85637619D01*
X128555238Y-85542380D02*
X127983809Y-85542380D01*
X128269523Y-85542380D02*
X128269523Y-84542380D01*
X128174285Y-84685238D01*
X128079047Y-84780476D01*
X127983809Y-84828095D01*
%TO.C,R4*%
X161742380Y-63730666D02*
X161266190Y-64064000D01*
X161742380Y-64302095D02*
X160742380Y-64302095D01*
X160742380Y-63921142D01*
X160790000Y-63825904D01*
X160837619Y-63778285D01*
X160932857Y-63730666D01*
X161075714Y-63730666D01*
X161170952Y-63778285D01*
X161218571Y-63825904D01*
X161266190Y-63921142D01*
X161266190Y-64302095D01*
X161075714Y-62873523D02*
X161742380Y-62873523D01*
X160694761Y-63111619D02*
X161409047Y-63349714D01*
X161409047Y-62730666D01*
%TO.C,R2*%
X171394380Y-71222666D02*
X170918190Y-71556000D01*
X171394380Y-71794095D02*
X170394380Y-71794095D01*
X170394380Y-71413142D01*
X170442000Y-71317904D01*
X170489619Y-71270285D01*
X170584857Y-71222666D01*
X170727714Y-71222666D01*
X170822952Y-71270285D01*
X170870571Y-71317904D01*
X170918190Y-71413142D01*
X170918190Y-71794095D01*
X170489619Y-70841714D02*
X170442000Y-70794095D01*
X170394380Y-70698857D01*
X170394380Y-70460761D01*
X170442000Y-70365523D01*
X170489619Y-70317904D01*
X170584857Y-70270285D01*
X170680095Y-70270285D01*
X170822952Y-70317904D01*
X171394380Y-70889333D01*
X171394380Y-70270285D01*
%TO.C,D5*%
X161758476Y-62428380D02*
X161758476Y-61428380D01*
X161758476Y-61904571D02*
X162329904Y-61904571D01*
X162329904Y-62428380D02*
X162329904Y-61428380D01*
X162806095Y-61428380D02*
X162806095Y-62237904D01*
X162853714Y-62333142D01*
X162901333Y-62380761D01*
X162996571Y-62428380D01*
X163187047Y-62428380D01*
X163282285Y-62380761D01*
X163329904Y-62333142D01*
X163377523Y-62237904D01*
X163377523Y-61428380D01*
X164187047Y-61904571D02*
X164329904Y-61952190D01*
X164377523Y-61999809D01*
X164425142Y-62095047D01*
X164425142Y-62237904D01*
X164377523Y-62333142D01*
X164329904Y-62380761D01*
X164234666Y-62428380D01*
X163853714Y-62428380D01*
X163853714Y-61428380D01*
X164187047Y-61428380D01*
X164282285Y-61476000D01*
X164329904Y-61523619D01*
X164377523Y-61618857D01*
X164377523Y-61714095D01*
X164329904Y-61809333D01*
X164282285Y-61856952D01*
X164187047Y-61904571D01*
X163853714Y-61904571D01*
%TO.C,D4*%
X152519333Y-66731380D02*
X152519333Y-65731380D01*
X152900285Y-65731380D01*
X152995523Y-65779000D01*
X153043142Y-65826619D01*
X153090761Y-65921857D01*
X153090761Y-66064714D01*
X153043142Y-66159952D01*
X152995523Y-66207571D01*
X152900285Y-66255190D01*
X152519333Y-66255190D01*
X153662190Y-66731380D02*
X153566952Y-66683761D01*
X153519333Y-66636142D01*
X153471714Y-66540904D01*
X153471714Y-66255190D01*
X153519333Y-66159952D01*
X153566952Y-66112333D01*
X153662190Y-66064714D01*
X153805047Y-66064714D01*
X153900285Y-66112333D01*
X153947904Y-66159952D01*
X153995523Y-66255190D01*
X153995523Y-66540904D01*
X153947904Y-66636142D01*
X153900285Y-66683761D01*
X153805047Y-66731380D01*
X153662190Y-66731380D01*
X154424095Y-66731380D02*
X154424095Y-66064714D01*
X154424095Y-66255190D02*
X154471714Y-66159952D01*
X154519333Y-66112333D01*
X154614571Y-66064714D01*
X154709809Y-66064714D01*
X154900285Y-66064714D02*
X155281238Y-66064714D01*
X155043142Y-65731380D02*
X155043142Y-66588523D01*
X155090761Y-66683761D01*
X155186000Y-66731380D01*
X155281238Y-66731380D01*
X155376476Y-66826619D02*
X156138380Y-66826619D01*
X156805047Y-66064714D02*
X156805047Y-66731380D01*
X156566952Y-65683761D02*
X156328857Y-66398047D01*
X156947904Y-66398047D01*
%TO.C,D3*%
X152519333Y-63175380D02*
X152519333Y-62175380D01*
X152900285Y-62175380D01*
X152995523Y-62223000D01*
X153043142Y-62270619D01*
X153090761Y-62365857D01*
X153090761Y-62508714D01*
X153043142Y-62603952D01*
X152995523Y-62651571D01*
X152900285Y-62699190D01*
X152519333Y-62699190D01*
X153662190Y-63175380D02*
X153566952Y-63127761D01*
X153519333Y-63080142D01*
X153471714Y-62984904D01*
X153471714Y-62699190D01*
X153519333Y-62603952D01*
X153566952Y-62556333D01*
X153662190Y-62508714D01*
X153805047Y-62508714D01*
X153900285Y-62556333D01*
X153947904Y-62603952D01*
X153995523Y-62699190D01*
X153995523Y-62984904D01*
X153947904Y-63080142D01*
X153900285Y-63127761D01*
X153805047Y-63175380D01*
X153662190Y-63175380D01*
X154424095Y-63175380D02*
X154424095Y-62508714D01*
X154424095Y-62699190D02*
X154471714Y-62603952D01*
X154519333Y-62556333D01*
X154614571Y-62508714D01*
X154709809Y-62508714D01*
X154900285Y-62508714D02*
X155281238Y-62508714D01*
X155043142Y-62175380D02*
X155043142Y-63032523D01*
X155090761Y-63127761D01*
X155186000Y-63175380D01*
X155281238Y-63175380D01*
X155376476Y-63270619D02*
X156138380Y-63270619D01*
X156328857Y-62270619D02*
X156376476Y-62223000D01*
X156471714Y-62175380D01*
X156709809Y-62175380D01*
X156805047Y-62223000D01*
X156852666Y-62270619D01*
X156900285Y-62365857D01*
X156900285Y-62461095D01*
X156852666Y-62603952D01*
X156281238Y-63175380D01*
X156900285Y-63175380D01*
%TO.C,D2*%
X152487333Y-64953380D02*
X152487333Y-63953380D01*
X152868285Y-63953380D01*
X152963523Y-64001000D01*
X153011142Y-64048619D01*
X153058761Y-64143857D01*
X153058761Y-64286714D01*
X153011142Y-64381952D01*
X152963523Y-64429571D01*
X152868285Y-64477190D01*
X152487333Y-64477190D01*
X153630190Y-64953380D02*
X153534952Y-64905761D01*
X153487333Y-64858142D01*
X153439714Y-64762904D01*
X153439714Y-64477190D01*
X153487333Y-64381952D01*
X153534952Y-64334333D01*
X153630190Y-64286714D01*
X153773047Y-64286714D01*
X153868285Y-64334333D01*
X153915904Y-64381952D01*
X153963523Y-64477190D01*
X153963523Y-64762904D01*
X153915904Y-64858142D01*
X153868285Y-64905761D01*
X153773047Y-64953380D01*
X153630190Y-64953380D01*
X154392095Y-64953380D02*
X154392095Y-64286714D01*
X154392095Y-64477190D02*
X154439714Y-64381952D01*
X154487333Y-64334333D01*
X154582571Y-64286714D01*
X154677809Y-64286714D01*
X154868285Y-64286714D02*
X155249238Y-64286714D01*
X155011142Y-63953380D02*
X155011142Y-64810523D01*
X155058761Y-64905761D01*
X155154000Y-64953380D01*
X155249238Y-64953380D01*
X155344476Y-65048619D02*
X156106380Y-65048619D01*
X156249238Y-63953380D02*
X156868285Y-63953380D01*
X156534952Y-64334333D01*
X156677809Y-64334333D01*
X156773047Y-64381952D01*
X156820666Y-64429571D01*
X156868285Y-64524809D01*
X156868285Y-64762904D01*
X156820666Y-64858142D01*
X156773047Y-64905761D01*
X156677809Y-64953380D01*
X156392095Y-64953380D01*
X156296857Y-64905761D01*
X156249238Y-64858142D01*
%TO.C,D1*%
X152519333Y-61397380D02*
X152519333Y-60397380D01*
X152900285Y-60397380D01*
X152995523Y-60445000D01*
X153043142Y-60492619D01*
X153090761Y-60587857D01*
X153090761Y-60730714D01*
X153043142Y-60825952D01*
X152995523Y-60873571D01*
X152900285Y-60921190D01*
X152519333Y-60921190D01*
X153662190Y-61397380D02*
X153566952Y-61349761D01*
X153519333Y-61302142D01*
X153471714Y-61206904D01*
X153471714Y-60921190D01*
X153519333Y-60825952D01*
X153566952Y-60778333D01*
X153662190Y-60730714D01*
X153805047Y-60730714D01*
X153900285Y-60778333D01*
X153947904Y-60825952D01*
X153995523Y-60921190D01*
X153995523Y-61206904D01*
X153947904Y-61302142D01*
X153900285Y-61349761D01*
X153805047Y-61397380D01*
X153662190Y-61397380D01*
X154424095Y-61397380D02*
X154424095Y-60730714D01*
X154424095Y-60921190D02*
X154471714Y-60825952D01*
X154519333Y-60778333D01*
X154614571Y-60730714D01*
X154709809Y-60730714D01*
X154900285Y-60730714D02*
X155281238Y-60730714D01*
X155043142Y-60397380D02*
X155043142Y-61254523D01*
X155090761Y-61349761D01*
X155186000Y-61397380D01*
X155281238Y-61397380D01*
X155376476Y-61492619D02*
X156138380Y-61492619D01*
X156900285Y-61397380D02*
X156328857Y-61397380D01*
X156614571Y-61397380D02*
X156614571Y-60397380D01*
X156519333Y-60540238D01*
X156424095Y-60635476D01*
X156328857Y-60683095D01*
%TO.C,C6*%
X172045333Y-76303142D02*
X171997714Y-76350761D01*
X171854857Y-76398380D01*
X171759619Y-76398380D01*
X171616761Y-76350761D01*
X171521523Y-76255523D01*
X171473904Y-76160285D01*
X171426285Y-75969809D01*
X171426285Y-75826952D01*
X171473904Y-75636476D01*
X171521523Y-75541238D01*
X171616761Y-75446000D01*
X171759619Y-75398380D01*
X171854857Y-75398380D01*
X171997714Y-75446000D01*
X172045333Y-75493619D01*
X172902476Y-75398380D02*
X172712000Y-75398380D01*
X172616761Y-75446000D01*
X172569142Y-75493619D01*
X172473904Y-75636476D01*
X172426285Y-75826952D01*
X172426285Y-76207904D01*
X172473904Y-76303142D01*
X172521523Y-76350761D01*
X172616761Y-76398380D01*
X172807238Y-76398380D01*
X172902476Y-76350761D01*
X172950095Y-76303142D01*
X172997714Y-76207904D01*
X172997714Y-75969809D01*
X172950095Y-75874571D01*
X172902476Y-75826952D01*
X172807238Y-75779333D01*
X172616761Y-75779333D01*
X172521523Y-75826952D01*
X172473904Y-75874571D01*
X172426285Y-75969809D01*
%TO.C,C5*%
X172299333Y-78081142D02*
X172251714Y-78128761D01*
X172108857Y-78176380D01*
X172013619Y-78176380D01*
X171870761Y-78128761D01*
X171775523Y-78033523D01*
X171727904Y-77938285D01*
X171680285Y-77747809D01*
X171680285Y-77604952D01*
X171727904Y-77414476D01*
X171775523Y-77319238D01*
X171870761Y-77224000D01*
X172013619Y-77176380D01*
X172108857Y-77176380D01*
X172251714Y-77224000D01*
X172299333Y-77271619D01*
X173204095Y-77176380D02*
X172727904Y-77176380D01*
X172680285Y-77652571D01*
X172727904Y-77604952D01*
X172823142Y-77557333D01*
X173061238Y-77557333D01*
X173156476Y-77604952D01*
X173204095Y-77652571D01*
X173251714Y-77747809D01*
X173251714Y-77985904D01*
X173204095Y-78081142D01*
X173156476Y-78128761D01*
X173061238Y-78176380D01*
X172823142Y-78176380D01*
X172727904Y-78128761D01*
X172680285Y-78081142D01*
%TO.C,C4*%
X173585142Y-72810666D02*
X173632761Y-72858285D01*
X173680380Y-73001142D01*
X173680380Y-73096380D01*
X173632761Y-73239238D01*
X173537523Y-73334476D01*
X173442285Y-73382095D01*
X173251809Y-73429714D01*
X173108952Y-73429714D01*
X172918476Y-73382095D01*
X172823238Y-73334476D01*
X172728000Y-73239238D01*
X172680380Y-73096380D01*
X172680380Y-73001142D01*
X172728000Y-72858285D01*
X172775619Y-72810666D01*
X173013714Y-71953523D02*
X173680380Y-71953523D01*
X172632761Y-72191619D02*
X173347047Y-72429714D01*
X173347047Y-71810666D01*
%TO.C,C3*%
X171537333Y-67413142D02*
X171489714Y-67460761D01*
X171346857Y-67508380D01*
X171251619Y-67508380D01*
X171108761Y-67460761D01*
X171013523Y-67365523D01*
X170965904Y-67270285D01*
X170918285Y-67079809D01*
X170918285Y-66936952D01*
X170965904Y-66746476D01*
X171013523Y-66651238D01*
X171108761Y-66556000D01*
X171251619Y-66508380D01*
X171346857Y-66508380D01*
X171489714Y-66556000D01*
X171537333Y-66603619D01*
X171870666Y-66508380D02*
X172489714Y-66508380D01*
X172156380Y-66889333D01*
X172299238Y-66889333D01*
X172394476Y-66936952D01*
X172442095Y-66984571D01*
X172489714Y-67079809D01*
X172489714Y-67317904D01*
X172442095Y-67413142D01*
X172394476Y-67460761D01*
X172299238Y-67508380D01*
X172013523Y-67508380D01*
X171918285Y-67460761D01*
X171870666Y-67413142D01*
%TO.C,C2*%
X167489142Y-62597166D02*
X167536761Y-62644785D01*
X167584380Y-62787642D01*
X167584380Y-62882880D01*
X167536761Y-63025738D01*
X167441523Y-63120976D01*
X167346285Y-63168595D01*
X167155809Y-63216214D01*
X167012952Y-63216214D01*
X166822476Y-63168595D01*
X166727238Y-63120976D01*
X166632000Y-63025738D01*
X166584380Y-62882880D01*
X166584380Y-62787642D01*
X166632000Y-62644785D01*
X166679619Y-62597166D01*
X166679619Y-62216214D02*
X166632000Y-62168595D01*
X166584380Y-62073357D01*
X166584380Y-61835261D01*
X166632000Y-61740023D01*
X166679619Y-61692404D01*
X166774857Y-61644785D01*
X166870095Y-61644785D01*
X167012952Y-61692404D01*
X167584380Y-62263833D01*
X167584380Y-61644785D01*
%TO.C,C1*%
X165457142Y-62089166D02*
X165504761Y-62136785D01*
X165552380Y-62279642D01*
X165552380Y-62374880D01*
X165504761Y-62517738D01*
X165409523Y-62612976D01*
X165314285Y-62660595D01*
X165123809Y-62708214D01*
X164980952Y-62708214D01*
X164790476Y-62660595D01*
X164695238Y-62612976D01*
X164600000Y-62517738D01*
X164552380Y-62374880D01*
X164552380Y-62279642D01*
X164600000Y-62136785D01*
X164647619Y-62089166D01*
X165552380Y-61136785D02*
X165552380Y-61708214D01*
X165552380Y-61422500D02*
X164552380Y-61422500D01*
X164695238Y-61517738D01*
X164790476Y-61612976D01*
X164838095Y-61708214D01*
%TD*%
M02*
