M48
; DRILL file {KiCad (5.1.10)-1} date 09/15/21 18:06:52
; FORMAT={3:3/ absolute / metric / suppress leading zeros}
; #@! TF.CreationDate,2021-09-15T18:06:52+02:00
; #@! TF.GenerationSoftware,Kicad,Pcbnew,(5.1.10)-1
FMAT,2
METRIC,TZ
T1C0.400
T2C0.700
T3C0.800
T4C0.950
T5C1.100
T6C1.760
T7C2.200
%
G90
G05
T1
X117730Y-81280
X117793Y-43752
X118213Y-80113
X118213Y-82447
X118277Y-42585
X118277Y-44918
X119380Y-79630
X119380Y-82930
X119443Y-42102
X119443Y-45402
X120547Y-80113
X120547Y-82447
X120610Y-42585
X120610Y-44918
X121030Y-81280
X121093Y-43752
X122555Y-61976
X125286Y-42482
X127953Y-63373
X129921Y-54674
X130175Y-61278
X132207Y-58547
X132271Y-53403
X134366Y-52197
X134430Y-57785
X137325Y-76454
X139192Y-66548
X139770Y-69743
X140208Y-74676
X140653Y-46038
X140716Y-81280
X141425Y-69914
X141605Y-40703
X142621Y-56261
X142812Y-40957
X143065Y-51816
X143320Y-48070
X144145Y-41465
X144399Y-60579
X144717Y-46546
X144717Y-61658
X145796Y-47308
X146431Y-51943
X146622Y-50236
X146876Y-54419
X147256Y-40450
X147275Y-53446
X147373Y-52279
X147489Y-50733
X148209Y-45276
X149225Y-50673
X149543Y-60452
X149860Y-47371
X149860Y-81026
X151511Y-47371
X151638Y-68580
X151701Y-53912
X151892Y-54928
X152019Y-50323
X152082Y-52959
X153289Y-58738
X153860Y-59702
X155067Y-47371
X155142Y-51880
X155194Y-55182
X155766Y-58928
X155829Y-52959
X156401Y-53848
X156782Y-51880
X157163Y-50292
X159258Y-74422
X159702Y-47752
X159766Y-61976
X160084Y-54801
X160274Y-49911
X160274Y-58547
X161086Y-63799
X161798Y-42291
X161989Y-55943
X162814Y-51689
X163576Y-53709
X165862Y-67056
X166497Y-45911
X166942Y-62548
X168974Y-70612
X169291Y-44069
X169546Y-81280
X169774Y-42902
X169774Y-45236
X169799Y-51244
X169799Y-53213
X170029Y-80113
X170029Y-82447
X170941Y-42419
X170941Y-45719
X171196Y-79630
X171196Y-82930
X171323Y-66231
X171514Y-49530
X171958Y-72644
X172108Y-42902
X172108Y-45236
X172212Y-75946
X172363Y-80113
X172363Y-82447
X172591Y-44069
X172657Y-65151
X172667Y-62040
X172846Y-81280
X172974Y-53467
T2
X142736Y-38929
X147586Y-38929
T3
X151638Y-43022
X151638Y-45022
X152908Y-72390
X152908Y-74390
X153638Y-43022
X153638Y-45022
X154908Y-72390
X154908Y-74390
X155638Y-43022
X155638Y-45022
X157638Y-43022
X157638Y-45022
X159638Y-43022
X159638Y-45022
X165481Y-50959
X165481Y-52959
X165481Y-54959
X167481Y-50959
X167481Y-52959
X167481Y-54959
T4
X120650Y-88265
X123150Y-88265
X125650Y-88265
X126174Y-68390
X126174Y-70890
X126174Y-73390
X126174Y-75890
X128150Y-88265
X134620Y-88265
X137120Y-88265
X139620Y-88265
X142120Y-88265
X148590Y-88265
X151090Y-88265
X153590Y-88265
X156090Y-88265
X162560Y-88265
X165060Y-88265
X167560Y-88265
X170060Y-88265
T5
X118618Y-47856
X118618Y-54356
X123118Y-47856
X123118Y-54356
T6
X141536Y-36249
X148786Y-36249
T7
X119380Y-81280
X119443Y-43752
X170941Y-44069
X171196Y-81280
T0
M30
