G04 #@! TF.GenerationSoftware,KiCad,Pcbnew,(5.1.10)-1*
G04 #@! TF.CreationDate,2021-06-23T14:01:49+02:00*
G04 #@! TF.ProjectId,sh_control,73685f63-6f6e-4747-926f-6c2e6b696361,3.2*
G04 #@! TF.SameCoordinates,Original*
G04 #@! TF.FileFunction,Paste,Top*
G04 #@! TF.FilePolarity,Positive*
%FSLAX46Y46*%
G04 Gerber Fmt 4.6, Leading zero omitted, Abs format (unit mm)*
G04 Created by KiCad (PCBNEW (5.1.10)-1) date 2021-06-23 14:01:49*
%MOMM*%
%LPD*%
G01*
G04 APERTURE LIST*
%ADD10R,1.525000X0.650000*%
%ADD11R,2.350000X1.350000*%
%ADD12R,1.350000X2.350000*%
%ADD13R,0.800000X0.900000*%
%ADD14R,1.846000X2.150000*%
%ADD15R,1.400000X0.450000*%
%ADD16R,1.900000X1.500000*%
%ADD17R,1.350000X0.400000*%
G04 APERTURE END LIST*
G36*
G01*
X54746999Y-122058000D02*
X55997001Y-122058000D01*
G75*
G02*
X56247000Y-122307999I0J-249999D01*
G01*
X56247000Y-122933001D01*
G75*
G02*
X55997001Y-123183000I-249999J0D01*
G01*
X54746999Y-123183000D01*
G75*
G02*
X54497000Y-122933001I0J249999D01*
G01*
X54497000Y-122307999D01*
G75*
G02*
X54746999Y-122058000I249999J0D01*
G01*
G37*
G36*
G01*
X54746999Y-119133000D02*
X55997001Y-119133000D01*
G75*
G02*
X56247000Y-119382999I0J-249999D01*
G01*
X56247000Y-120008001D01*
G75*
G02*
X55997001Y-120258000I-249999J0D01*
G01*
X54746999Y-120258000D01*
G75*
G02*
X54497000Y-120008001I0J249999D01*
G01*
X54497000Y-119382999D01*
G75*
G02*
X54746999Y-119133000I249999J0D01*
G01*
G37*
G36*
G01*
X55997001Y-78602000D02*
X54746999Y-78602000D01*
G75*
G02*
X54497000Y-78352001I0J249999D01*
G01*
X54497000Y-77726999D01*
G75*
G02*
X54746999Y-77477000I249999J0D01*
G01*
X55997001Y-77477000D01*
G75*
G02*
X56247000Y-77726999I0J-249999D01*
G01*
X56247000Y-78352001D01*
G75*
G02*
X55997001Y-78602000I-249999J0D01*
G01*
G37*
G36*
G01*
X55997001Y-81527000D02*
X54746999Y-81527000D01*
G75*
G02*
X54497000Y-81277001I0J249999D01*
G01*
X54497000Y-80651999D01*
G75*
G02*
X54746999Y-80402000I249999J0D01*
G01*
X55997001Y-80402000D01*
G75*
G02*
X56247000Y-80651999I0J-249999D01*
G01*
X56247000Y-81277001D01*
G75*
G02*
X55997001Y-81527000I-249999J0D01*
G01*
G37*
G36*
G01*
X85047001Y-78602000D02*
X83796999Y-78602000D01*
G75*
G02*
X83547000Y-78352001I0J249999D01*
G01*
X83547000Y-77726999D01*
G75*
G02*
X83796999Y-77477000I249999J0D01*
G01*
X85047001Y-77477000D01*
G75*
G02*
X85297000Y-77726999I0J-249999D01*
G01*
X85297000Y-78352001D01*
G75*
G02*
X85047001Y-78602000I-249999J0D01*
G01*
G37*
G36*
G01*
X85047001Y-81527000D02*
X83796999Y-81527000D01*
G75*
G02*
X83547000Y-81277001I0J249999D01*
G01*
X83547000Y-80651999D01*
G75*
G02*
X83796999Y-80402000I249999J0D01*
G01*
X85047001Y-80402000D01*
G75*
G02*
X85297000Y-80651999I0J-249999D01*
G01*
X85297000Y-81277001D01*
G75*
G02*
X85047001Y-81527000I-249999J0D01*
G01*
G37*
G36*
G01*
X83796999Y-122058000D02*
X85047001Y-122058000D01*
G75*
G02*
X85297000Y-122307999I0J-249999D01*
G01*
X85297000Y-122933001D01*
G75*
G02*
X85047001Y-123183000I-249999J0D01*
G01*
X83796999Y-123183000D01*
G75*
G02*
X83547000Y-122933001I0J249999D01*
G01*
X83547000Y-122307999D01*
G75*
G02*
X83796999Y-122058000I249999J0D01*
G01*
G37*
G36*
G01*
X83796999Y-119133000D02*
X85047001Y-119133000D01*
G75*
G02*
X85297000Y-119382999I0J-249999D01*
G01*
X85297000Y-120008001D01*
G75*
G02*
X85047001Y-120258000I-249999J0D01*
G01*
X83796999Y-120258000D01*
G75*
G02*
X83547000Y-120008001I0J249999D01*
G01*
X83547000Y-119382999D01*
G75*
G02*
X83796999Y-119133000I249999J0D01*
G01*
G37*
G36*
G01*
X55544500Y-124524000D02*
X55199500Y-124524000D01*
G75*
G02*
X55052000Y-124376500I0J147500D01*
G01*
X55052000Y-124081500D01*
G75*
G02*
X55199500Y-123934000I147500J0D01*
G01*
X55544500Y-123934000D01*
G75*
G02*
X55692000Y-124081500I0J-147500D01*
G01*
X55692000Y-124376500D01*
G75*
G02*
X55544500Y-124524000I-147500J0D01*
G01*
G37*
G36*
G01*
X55544500Y-125494000D02*
X55199500Y-125494000D01*
G75*
G02*
X55052000Y-125346500I0J147500D01*
G01*
X55052000Y-125051500D01*
G75*
G02*
X55199500Y-124904000I147500J0D01*
G01*
X55544500Y-124904000D01*
G75*
G02*
X55692000Y-125051500I0J-147500D01*
G01*
X55692000Y-125346500D01*
G75*
G02*
X55544500Y-125494000I-147500J0D01*
G01*
G37*
G36*
G01*
X55199500Y-76159000D02*
X55544500Y-76159000D01*
G75*
G02*
X55692000Y-76306500I0J-147500D01*
G01*
X55692000Y-76601500D01*
G75*
G02*
X55544500Y-76749000I-147500J0D01*
G01*
X55199500Y-76749000D01*
G75*
G02*
X55052000Y-76601500I0J147500D01*
G01*
X55052000Y-76306500D01*
G75*
G02*
X55199500Y-76159000I147500J0D01*
G01*
G37*
G36*
G01*
X55199500Y-75189000D02*
X55544500Y-75189000D01*
G75*
G02*
X55692000Y-75336500I0J-147500D01*
G01*
X55692000Y-75631500D01*
G75*
G02*
X55544500Y-75779000I-147500J0D01*
G01*
X55199500Y-75779000D01*
G75*
G02*
X55052000Y-75631500I0J147500D01*
G01*
X55052000Y-75336500D01*
G75*
G02*
X55199500Y-75189000I147500J0D01*
G01*
G37*
G36*
G01*
X84155500Y-76159000D02*
X84500500Y-76159000D01*
G75*
G02*
X84648000Y-76306500I0J-147500D01*
G01*
X84648000Y-76601500D01*
G75*
G02*
X84500500Y-76749000I-147500J0D01*
G01*
X84155500Y-76749000D01*
G75*
G02*
X84008000Y-76601500I0J147500D01*
G01*
X84008000Y-76306500D01*
G75*
G02*
X84155500Y-76159000I147500J0D01*
G01*
G37*
G36*
G01*
X84155500Y-75189000D02*
X84500500Y-75189000D01*
G75*
G02*
X84648000Y-75336500I0J-147500D01*
G01*
X84648000Y-75631500D01*
G75*
G02*
X84500500Y-75779000I-147500J0D01*
G01*
X84155500Y-75779000D01*
G75*
G02*
X84008000Y-75631500I0J147500D01*
G01*
X84008000Y-75336500D01*
G75*
G02*
X84155500Y-75189000I147500J0D01*
G01*
G37*
G36*
G01*
X84594500Y-124524000D02*
X84249500Y-124524000D01*
G75*
G02*
X84102000Y-124376500I0J147500D01*
G01*
X84102000Y-124081500D01*
G75*
G02*
X84249500Y-123934000I147500J0D01*
G01*
X84594500Y-123934000D01*
G75*
G02*
X84742000Y-124081500I0J-147500D01*
G01*
X84742000Y-124376500D01*
G75*
G02*
X84594500Y-124524000I-147500J0D01*
G01*
G37*
G36*
G01*
X84594500Y-125494000D02*
X84249500Y-125494000D01*
G75*
G02*
X84102000Y-125346500I0J147500D01*
G01*
X84102000Y-125051500D01*
G75*
G02*
X84249500Y-124904000I147500J0D01*
G01*
X84594500Y-124904000D01*
G75*
G02*
X84742000Y-125051500I0J-147500D01*
G01*
X84742000Y-125346500D01*
G75*
G02*
X84594500Y-125494000I-147500J0D01*
G01*
G37*
G36*
G01*
X38692000Y-113075000D02*
X39032000Y-113075000D01*
G75*
G02*
X39172000Y-113215000I0J-140000D01*
G01*
X39172000Y-113495000D01*
G75*
G02*
X39032000Y-113635000I-140000J0D01*
G01*
X38692000Y-113635000D01*
G75*
G02*
X38552000Y-113495000I0J140000D01*
G01*
X38552000Y-113215000D01*
G75*
G02*
X38692000Y-113075000I140000J0D01*
G01*
G37*
G36*
G01*
X38692000Y-112115000D02*
X39032000Y-112115000D01*
G75*
G02*
X39172000Y-112255000I0J-140000D01*
G01*
X39172000Y-112535000D01*
G75*
G02*
X39032000Y-112675000I-140000J0D01*
G01*
X38692000Y-112675000D01*
G75*
G02*
X38552000Y-112535000I0J140000D01*
G01*
X38552000Y-112255000D01*
G75*
G02*
X38692000Y-112115000I140000J0D01*
G01*
G37*
G36*
G01*
X55241000Y-116909000D02*
X54741000Y-116909000D01*
G75*
G02*
X54516000Y-116684000I0J225000D01*
G01*
X54516000Y-116234000D01*
G75*
G02*
X54741000Y-116009000I225000J0D01*
G01*
X55241000Y-116009000D01*
G75*
G02*
X55466000Y-116234000I0J-225000D01*
G01*
X55466000Y-116684000D01*
G75*
G02*
X55241000Y-116909000I-225000J0D01*
G01*
G37*
G36*
G01*
X55241000Y-118459000D02*
X54741000Y-118459000D01*
G75*
G02*
X54516000Y-118234000I0J225000D01*
G01*
X54516000Y-117784000D01*
G75*
G02*
X54741000Y-117559000I225000J0D01*
G01*
X55241000Y-117559000D01*
G75*
G02*
X55466000Y-117784000I0J-225000D01*
G01*
X55466000Y-118234000D01*
G75*
G02*
X55241000Y-118459000I-225000J0D01*
G01*
G37*
G36*
G01*
X112313000Y-94023000D02*
X112313000Y-93683000D01*
G75*
G02*
X112453000Y-93543000I140000J0D01*
G01*
X112733000Y-93543000D01*
G75*
G02*
X112873000Y-93683000I0J-140000D01*
G01*
X112873000Y-94023000D01*
G75*
G02*
X112733000Y-94163000I-140000J0D01*
G01*
X112453000Y-94163000D01*
G75*
G02*
X112313000Y-94023000I0J140000D01*
G01*
G37*
G36*
G01*
X111353000Y-94023000D02*
X111353000Y-93683000D01*
G75*
G02*
X111493000Y-93543000I140000J0D01*
G01*
X111773000Y-93543000D01*
G75*
G02*
X111913000Y-93683000I0J-140000D01*
G01*
X111913000Y-94023000D01*
G75*
G02*
X111773000Y-94163000I-140000J0D01*
G01*
X111493000Y-94163000D01*
G75*
G02*
X111353000Y-94023000I0J140000D01*
G01*
G37*
G36*
G01*
X84586000Y-83764000D02*
X85086000Y-83764000D01*
G75*
G02*
X85311000Y-83989000I0J-225000D01*
G01*
X85311000Y-84439000D01*
G75*
G02*
X85086000Y-84664000I-225000J0D01*
G01*
X84586000Y-84664000D01*
G75*
G02*
X84361000Y-84439000I0J225000D01*
G01*
X84361000Y-83989000D01*
G75*
G02*
X84586000Y-83764000I225000J0D01*
G01*
G37*
G36*
G01*
X84586000Y-82214000D02*
X85086000Y-82214000D01*
G75*
G02*
X85311000Y-82439000I0J-225000D01*
G01*
X85311000Y-82889000D01*
G75*
G02*
X85086000Y-83114000I-225000J0D01*
G01*
X84586000Y-83114000D01*
G75*
G02*
X84361000Y-82889000I0J225000D01*
G01*
X84361000Y-82439000D01*
G75*
G02*
X84586000Y-82214000I225000J0D01*
G01*
G37*
G36*
G01*
X38692000Y-89707000D02*
X39032000Y-89707000D01*
G75*
G02*
X39172000Y-89847000I0J-140000D01*
G01*
X39172000Y-90127000D01*
G75*
G02*
X39032000Y-90267000I-140000J0D01*
G01*
X38692000Y-90267000D01*
G75*
G02*
X38552000Y-90127000I0J140000D01*
G01*
X38552000Y-89847000D01*
G75*
G02*
X38692000Y-89707000I140000J0D01*
G01*
G37*
G36*
G01*
X38692000Y-88747000D02*
X39032000Y-88747000D01*
G75*
G02*
X39172000Y-88887000I0J-140000D01*
G01*
X39172000Y-89167000D01*
G75*
G02*
X39032000Y-89307000I-140000J0D01*
G01*
X38692000Y-89307000D01*
G75*
G02*
X38552000Y-89167000I0J140000D01*
G01*
X38552000Y-88887000D01*
G75*
G02*
X38692000Y-88747000I140000J0D01*
G01*
G37*
G36*
G01*
X54741000Y-83764000D02*
X55241000Y-83764000D01*
G75*
G02*
X55466000Y-83989000I0J-225000D01*
G01*
X55466000Y-84439000D01*
G75*
G02*
X55241000Y-84664000I-225000J0D01*
G01*
X54741000Y-84664000D01*
G75*
G02*
X54516000Y-84439000I0J225000D01*
G01*
X54516000Y-83989000D01*
G75*
G02*
X54741000Y-83764000I225000J0D01*
G01*
G37*
G36*
G01*
X54741000Y-82214000D02*
X55241000Y-82214000D01*
G75*
G02*
X55466000Y-82439000I0J-225000D01*
G01*
X55466000Y-82889000D01*
G75*
G02*
X55241000Y-83114000I-225000J0D01*
G01*
X54741000Y-83114000D01*
G75*
G02*
X54516000Y-82889000I0J225000D01*
G01*
X54516000Y-82439000D01*
G75*
G02*
X54741000Y-82214000I225000J0D01*
G01*
G37*
G36*
G01*
X85086000Y-116769000D02*
X84586000Y-116769000D01*
G75*
G02*
X84361000Y-116544000I0J225000D01*
G01*
X84361000Y-116094000D01*
G75*
G02*
X84586000Y-115869000I225000J0D01*
G01*
X85086000Y-115869000D01*
G75*
G02*
X85311000Y-116094000I0J-225000D01*
G01*
X85311000Y-116544000D01*
G75*
G02*
X85086000Y-116769000I-225000J0D01*
G01*
G37*
G36*
G01*
X85086000Y-118319000D02*
X84586000Y-118319000D01*
G75*
G02*
X84361000Y-118094000I0J225000D01*
G01*
X84361000Y-117644000D01*
G75*
G02*
X84586000Y-117419000I225000J0D01*
G01*
X85086000Y-117419000D01*
G75*
G02*
X85311000Y-117644000I0J-225000D01*
G01*
X85311000Y-118094000D01*
G75*
G02*
X85086000Y-118319000I-225000J0D01*
G01*
G37*
G36*
G01*
X112692000Y-117402000D02*
X112352000Y-117402000D01*
G75*
G02*
X112212000Y-117262000I0J140000D01*
G01*
X112212000Y-116982000D01*
G75*
G02*
X112352000Y-116842000I140000J0D01*
G01*
X112692000Y-116842000D01*
G75*
G02*
X112832000Y-116982000I0J-140000D01*
G01*
X112832000Y-117262000D01*
G75*
G02*
X112692000Y-117402000I-140000J0D01*
G01*
G37*
G36*
G01*
X112692000Y-118362000D02*
X112352000Y-118362000D01*
G75*
G02*
X112212000Y-118222000I0J140000D01*
G01*
X112212000Y-117942000D01*
G75*
G02*
X112352000Y-117802000I140000J0D01*
G01*
X112692000Y-117802000D01*
G75*
G02*
X112832000Y-117942000I0J-140000D01*
G01*
X112832000Y-118222000D01*
G75*
G02*
X112692000Y-118362000I-140000J0D01*
G01*
G37*
D10*
X54162000Y-95885000D03*
X54162000Y-97155000D03*
X54162000Y-98425000D03*
X54162000Y-99695000D03*
X54162000Y-100965000D03*
X54162000Y-102235000D03*
X54162000Y-103505000D03*
X54162000Y-104775000D03*
X48738000Y-104775000D03*
X48738000Y-103505000D03*
X48738000Y-102235000D03*
X48738000Y-100965000D03*
X48738000Y-99695000D03*
X48738000Y-98425000D03*
X48738000Y-97155000D03*
X48738000Y-95885000D03*
D11*
X36830000Y-109450000D03*
X36830000Y-114550000D03*
X28130000Y-114550000D03*
X28130000Y-109450000D03*
X36830000Y-86110000D03*
X36830000Y-91210000D03*
X28130000Y-91210000D03*
X28130000Y-86110000D03*
X111570000Y-86110000D03*
X111570000Y-91210000D03*
X102870000Y-91210000D03*
X102870000Y-86110000D03*
X111570000Y-109450000D03*
X111570000Y-114550000D03*
X102870000Y-114550000D03*
X102870000Y-109450000D03*
G36*
G01*
X108502000Y-95525000D02*
X108502000Y-94975000D01*
G75*
G02*
X108702000Y-94775000I200000J0D01*
G01*
X109102000Y-94775000D01*
G75*
G02*
X109302000Y-94975000I0J-200000D01*
G01*
X109302000Y-95525000D01*
G75*
G02*
X109102000Y-95725000I-200000J0D01*
G01*
X108702000Y-95725000D01*
G75*
G02*
X108502000Y-95525000I0J200000D01*
G01*
G37*
G36*
G01*
X106852000Y-95525000D02*
X106852000Y-94975000D01*
G75*
G02*
X107052000Y-94775000I200000J0D01*
G01*
X107452000Y-94775000D01*
G75*
G02*
X107652000Y-94975000I0J-200000D01*
G01*
X107652000Y-95525000D01*
G75*
G02*
X107452000Y-95725000I-200000J0D01*
G01*
X107052000Y-95725000D01*
G75*
G02*
X106852000Y-95525000I0J200000D01*
G01*
G37*
D12*
X88900000Y-95980000D03*
X94000000Y-95980000D03*
X94000000Y-104680000D03*
X88900000Y-104680000D03*
G36*
G01*
X71189000Y-106541000D02*
X71559000Y-106541000D01*
G75*
G02*
X71694000Y-106676000I0J-135000D01*
G01*
X71694000Y-106946000D01*
G75*
G02*
X71559000Y-107081000I-135000J0D01*
G01*
X71189000Y-107081000D01*
G75*
G02*
X71054000Y-106946000I0J135000D01*
G01*
X71054000Y-106676000D01*
G75*
G02*
X71189000Y-106541000I135000J0D01*
G01*
G37*
G36*
G01*
X71189000Y-105521000D02*
X71559000Y-105521000D01*
G75*
G02*
X71694000Y-105656000I0J-135000D01*
G01*
X71694000Y-105926000D01*
G75*
G02*
X71559000Y-106061000I-135000J0D01*
G01*
X71189000Y-106061000D01*
G75*
G02*
X71054000Y-105926000I0J135000D01*
G01*
X71054000Y-105656000D01*
G75*
G02*
X71189000Y-105521000I135000J0D01*
G01*
G37*
G36*
G01*
X69157000Y-106541000D02*
X69527000Y-106541000D01*
G75*
G02*
X69662000Y-106676000I0J-135000D01*
G01*
X69662000Y-106946000D01*
G75*
G02*
X69527000Y-107081000I-135000J0D01*
G01*
X69157000Y-107081000D01*
G75*
G02*
X69022000Y-106946000I0J135000D01*
G01*
X69022000Y-106676000D01*
G75*
G02*
X69157000Y-106541000I135000J0D01*
G01*
G37*
G36*
G01*
X69157000Y-105521000D02*
X69527000Y-105521000D01*
G75*
G02*
X69662000Y-105656000I0J-135000D01*
G01*
X69662000Y-105926000D01*
G75*
G02*
X69527000Y-106061000I-135000J0D01*
G01*
X69157000Y-106061000D01*
G75*
G02*
X69022000Y-105926000I0J135000D01*
G01*
X69022000Y-105656000D01*
G75*
G02*
X69157000Y-105521000I135000J0D01*
G01*
G37*
G36*
G01*
X72205000Y-106537000D02*
X72575000Y-106537000D01*
G75*
G02*
X72710000Y-106672000I0J-135000D01*
G01*
X72710000Y-106942000D01*
G75*
G02*
X72575000Y-107077000I-135000J0D01*
G01*
X72205000Y-107077000D01*
G75*
G02*
X72070000Y-106942000I0J135000D01*
G01*
X72070000Y-106672000D01*
G75*
G02*
X72205000Y-106537000I135000J0D01*
G01*
G37*
G36*
G01*
X72205000Y-105517000D02*
X72575000Y-105517000D01*
G75*
G02*
X72710000Y-105652000I0J-135000D01*
G01*
X72710000Y-105922000D01*
G75*
G02*
X72575000Y-106057000I-135000J0D01*
G01*
X72205000Y-106057000D01*
G75*
G02*
X72070000Y-105922000I0J135000D01*
G01*
X72070000Y-105652000D01*
G75*
G02*
X72205000Y-105517000I135000J0D01*
G01*
G37*
G36*
G01*
X64443000Y-99779000D02*
X64443000Y-100119000D01*
G75*
G02*
X64303000Y-100259000I-140000J0D01*
G01*
X64023000Y-100259000D01*
G75*
G02*
X63883000Y-100119000I0J140000D01*
G01*
X63883000Y-99779000D01*
G75*
G02*
X64023000Y-99639000I140000J0D01*
G01*
X64303000Y-99639000D01*
G75*
G02*
X64443000Y-99779000I0J-140000D01*
G01*
G37*
G36*
G01*
X65403000Y-99779000D02*
X65403000Y-100119000D01*
G75*
G02*
X65263000Y-100259000I-140000J0D01*
G01*
X64983000Y-100259000D01*
G75*
G02*
X64843000Y-100119000I0J140000D01*
G01*
X64843000Y-99779000D01*
G75*
G02*
X64983000Y-99639000I140000J0D01*
G01*
X65263000Y-99639000D01*
G75*
G02*
X65403000Y-99779000I0J-140000D01*
G01*
G37*
G36*
G01*
X94152000Y-93896000D02*
X94152000Y-93556000D01*
G75*
G02*
X94292000Y-93416000I140000J0D01*
G01*
X94572000Y-93416000D01*
G75*
G02*
X94712000Y-93556000I0J-140000D01*
G01*
X94712000Y-93896000D01*
G75*
G02*
X94572000Y-94036000I-140000J0D01*
G01*
X94292000Y-94036000D01*
G75*
G02*
X94152000Y-93896000I0J140000D01*
G01*
G37*
G36*
G01*
X93192000Y-93896000D02*
X93192000Y-93556000D01*
G75*
G02*
X93332000Y-93416000I140000J0D01*
G01*
X93612000Y-93416000D01*
G75*
G02*
X93752000Y-93556000I0J-140000D01*
G01*
X93752000Y-93896000D01*
G75*
G02*
X93612000Y-94036000I-140000J0D01*
G01*
X93332000Y-94036000D01*
G75*
G02*
X93192000Y-93896000I0J140000D01*
G01*
G37*
G36*
G01*
X45589000Y-96055000D02*
X45089000Y-96055000D01*
G75*
G02*
X44864000Y-95830000I0J225000D01*
G01*
X44864000Y-95380000D01*
G75*
G02*
X45089000Y-95155000I225000J0D01*
G01*
X45589000Y-95155000D01*
G75*
G02*
X45814000Y-95380000I0J-225000D01*
G01*
X45814000Y-95830000D01*
G75*
G02*
X45589000Y-96055000I-225000J0D01*
G01*
G37*
G36*
G01*
X45589000Y-97605000D02*
X45089000Y-97605000D01*
G75*
G02*
X44864000Y-97380000I0J225000D01*
G01*
X44864000Y-96930000D01*
G75*
G02*
X45089000Y-96705000I225000J0D01*
G01*
X45589000Y-96705000D01*
G75*
G02*
X45814000Y-96930000I0J-225000D01*
G01*
X45814000Y-97380000D01*
G75*
G02*
X45589000Y-97605000I-225000J0D01*
G01*
G37*
G36*
G01*
X106355000Y-101858000D02*
X106355000Y-102358000D01*
G75*
G02*
X106130000Y-102583000I-225000J0D01*
G01*
X105680000Y-102583000D01*
G75*
G02*
X105455000Y-102358000I0J225000D01*
G01*
X105455000Y-101858000D01*
G75*
G02*
X105680000Y-101633000I225000J0D01*
G01*
X106130000Y-101633000D01*
G75*
G02*
X106355000Y-101858000I0J-225000D01*
G01*
G37*
G36*
G01*
X107905000Y-101858000D02*
X107905000Y-102358000D01*
G75*
G02*
X107680000Y-102583000I-225000J0D01*
G01*
X107230000Y-102583000D01*
G75*
G02*
X107005000Y-102358000I0J225000D01*
G01*
X107005000Y-101858000D01*
G75*
G02*
X107230000Y-101633000I225000J0D01*
G01*
X107680000Y-101633000D01*
G75*
G02*
X107905000Y-101858000I0J-225000D01*
G01*
G37*
G36*
G01*
X105737000Y-95674000D02*
X105737000Y-95334000D01*
G75*
G02*
X105877000Y-95194000I140000J0D01*
G01*
X106157000Y-95194000D01*
G75*
G02*
X106297000Y-95334000I0J-140000D01*
G01*
X106297000Y-95674000D01*
G75*
G02*
X106157000Y-95814000I-140000J0D01*
G01*
X105877000Y-95814000D01*
G75*
G02*
X105737000Y-95674000I0J140000D01*
G01*
G37*
G36*
G01*
X104777000Y-95674000D02*
X104777000Y-95334000D01*
G75*
G02*
X104917000Y-95194000I140000J0D01*
G01*
X105197000Y-95194000D01*
G75*
G02*
X105337000Y-95334000I0J-140000D01*
G01*
X105337000Y-95674000D01*
G75*
G02*
X105197000Y-95814000I-140000J0D01*
G01*
X104917000Y-95814000D01*
G75*
G02*
X104777000Y-95674000I0J140000D01*
G01*
G37*
D13*
X80348000Y-98064000D03*
X80348000Y-99464000D03*
X79248000Y-99464000D03*
X79248000Y-98064000D03*
G36*
G01*
X76385000Y-95645000D02*
X76015000Y-95645000D01*
G75*
G02*
X75880000Y-95510000I0J135000D01*
G01*
X75880000Y-95240000D01*
G75*
G02*
X76015000Y-95105000I135000J0D01*
G01*
X76385000Y-95105000D01*
G75*
G02*
X76520000Y-95240000I0J-135000D01*
G01*
X76520000Y-95510000D01*
G75*
G02*
X76385000Y-95645000I-135000J0D01*
G01*
G37*
G36*
G01*
X76385000Y-96665000D02*
X76015000Y-96665000D01*
G75*
G02*
X75880000Y-96530000I0J135000D01*
G01*
X75880000Y-96260000D01*
G75*
G02*
X76015000Y-96125000I135000J0D01*
G01*
X76385000Y-96125000D01*
G75*
G02*
X76520000Y-96260000I0J-135000D01*
G01*
X76520000Y-96530000D01*
G75*
G02*
X76385000Y-96665000I-135000J0D01*
G01*
G37*
G36*
G01*
X75168000Y-104706000D02*
X75168000Y-104336000D01*
G75*
G02*
X75303000Y-104201000I135000J0D01*
G01*
X75573000Y-104201000D01*
G75*
G02*
X75708000Y-104336000I0J-135000D01*
G01*
X75708000Y-104706000D01*
G75*
G02*
X75573000Y-104841000I-135000J0D01*
G01*
X75303000Y-104841000D01*
G75*
G02*
X75168000Y-104706000I0J135000D01*
G01*
G37*
G36*
G01*
X74148000Y-104706000D02*
X74148000Y-104336000D01*
G75*
G02*
X74283000Y-104201000I135000J0D01*
G01*
X74553000Y-104201000D01*
G75*
G02*
X74688000Y-104336000I0J-135000D01*
G01*
X74688000Y-104706000D01*
G75*
G02*
X74553000Y-104841000I-135000J0D01*
G01*
X74283000Y-104841000D01*
G75*
G02*
X74148000Y-104706000I0J135000D01*
G01*
G37*
G36*
G01*
X81524001Y-105206500D02*
X80273999Y-105206500D01*
G75*
G02*
X80024000Y-104956501I0J249999D01*
G01*
X80024000Y-104331499D01*
G75*
G02*
X80273999Y-104081500I249999J0D01*
G01*
X81524001Y-104081500D01*
G75*
G02*
X81774000Y-104331499I0J-249999D01*
G01*
X81774000Y-104956501D01*
G75*
G02*
X81524001Y-105206500I-249999J0D01*
G01*
G37*
G36*
G01*
X81524001Y-108131500D02*
X80273999Y-108131500D01*
G75*
G02*
X80024000Y-107881501I0J249999D01*
G01*
X80024000Y-107256499D01*
G75*
G02*
X80273999Y-107006500I249999J0D01*
G01*
X81524001Y-107006500D01*
G75*
G02*
X81774000Y-107256499I0J-249999D01*
G01*
X81774000Y-107881501D01*
G75*
G02*
X81524001Y-108131500I-249999J0D01*
G01*
G37*
G36*
G01*
X75168000Y-105722000D02*
X75168000Y-105352000D01*
G75*
G02*
X75303000Y-105217000I135000J0D01*
G01*
X75573000Y-105217000D01*
G75*
G02*
X75708000Y-105352000I0J-135000D01*
G01*
X75708000Y-105722000D01*
G75*
G02*
X75573000Y-105857000I-135000J0D01*
G01*
X75303000Y-105857000D01*
G75*
G02*
X75168000Y-105722000I0J135000D01*
G01*
G37*
G36*
G01*
X74148000Y-105722000D02*
X74148000Y-105352000D01*
G75*
G02*
X74283000Y-105217000I135000J0D01*
G01*
X74553000Y-105217000D01*
G75*
G02*
X74688000Y-105352000I0J-135000D01*
G01*
X74688000Y-105722000D01*
G75*
G02*
X74553000Y-105857000I-135000J0D01*
G01*
X74283000Y-105857000D01*
G75*
G02*
X74148000Y-105722000I0J135000D01*
G01*
G37*
G36*
G01*
X80776500Y-95561999D02*
X80776500Y-96462001D01*
G75*
G02*
X80526501Y-96712000I-249999J0D01*
G01*
X80001499Y-96712000D01*
G75*
G02*
X79751500Y-96462001I0J249999D01*
G01*
X79751500Y-95561999D01*
G75*
G02*
X80001499Y-95312000I249999J0D01*
G01*
X80526501Y-95312000D01*
G75*
G02*
X80776500Y-95561999I0J-249999D01*
G01*
G37*
G36*
G01*
X82601500Y-95561999D02*
X82601500Y-96462001D01*
G75*
G02*
X82351501Y-96712000I-249999J0D01*
G01*
X81826499Y-96712000D01*
G75*
G02*
X81576500Y-96462001I0J249999D01*
G01*
X81576500Y-95561999D01*
G75*
G02*
X81826499Y-95312000I249999J0D01*
G01*
X82351501Y-95312000D01*
G75*
G02*
X82601500Y-95561999I0J-249999D01*
G01*
G37*
G36*
G01*
X77733999Y-107006500D02*
X78984001Y-107006500D01*
G75*
G02*
X79234000Y-107256499I0J-249999D01*
G01*
X79234000Y-107881501D01*
G75*
G02*
X78984001Y-108131500I-249999J0D01*
G01*
X77733999Y-108131500D01*
G75*
G02*
X77484000Y-107881501I0J249999D01*
G01*
X77484000Y-107256499D01*
G75*
G02*
X77733999Y-107006500I249999J0D01*
G01*
G37*
G36*
G01*
X77733999Y-104081500D02*
X78984001Y-104081500D01*
G75*
G02*
X79234000Y-104331499I0J-249999D01*
G01*
X79234000Y-104956501D01*
G75*
G02*
X78984001Y-105206500I-249999J0D01*
G01*
X77733999Y-105206500D01*
G75*
G02*
X77484000Y-104956501I0J249999D01*
G01*
X77484000Y-104331499D01*
G75*
G02*
X77733999Y-104081500I249999J0D01*
G01*
G37*
G36*
G01*
X75168000Y-106865000D02*
X75168000Y-106495000D01*
G75*
G02*
X75303000Y-106360000I135000J0D01*
G01*
X75573000Y-106360000D01*
G75*
G02*
X75708000Y-106495000I0J-135000D01*
G01*
X75708000Y-106865000D01*
G75*
G02*
X75573000Y-107000000I-135000J0D01*
G01*
X75303000Y-107000000D01*
G75*
G02*
X75168000Y-106865000I0J135000D01*
G01*
G37*
G36*
G01*
X74148000Y-106865000D02*
X74148000Y-106495000D01*
G75*
G02*
X74283000Y-106360000I135000J0D01*
G01*
X74553000Y-106360000D01*
G75*
G02*
X74688000Y-106495000I0J-135000D01*
G01*
X74688000Y-106865000D01*
G75*
G02*
X74553000Y-107000000I-135000J0D01*
G01*
X74283000Y-107000000D01*
G75*
G02*
X74148000Y-106865000I0J135000D01*
G01*
G37*
G36*
G01*
X78550000Y-110698500D02*
X78550000Y-111043500D01*
G75*
G02*
X78402500Y-111191000I-147500J0D01*
G01*
X78107500Y-111191000D01*
G75*
G02*
X77960000Y-111043500I0J147500D01*
G01*
X77960000Y-110698500D01*
G75*
G02*
X78107500Y-110551000I147500J0D01*
G01*
X78402500Y-110551000D01*
G75*
G02*
X78550000Y-110698500I0J-147500D01*
G01*
G37*
G36*
G01*
X79520000Y-110698500D02*
X79520000Y-111043500D01*
G75*
G02*
X79372500Y-111191000I-147500J0D01*
G01*
X79077500Y-111191000D01*
G75*
G02*
X78930000Y-111043500I0J147500D01*
G01*
X78930000Y-110698500D01*
G75*
G02*
X79077500Y-110551000I147500J0D01*
G01*
X79372500Y-110551000D01*
G75*
G02*
X79520000Y-110698500I0J-147500D01*
G01*
G37*
G36*
G01*
X76370000Y-97971000D02*
X76030000Y-97971000D01*
G75*
G02*
X75890000Y-97831000I0J140000D01*
G01*
X75890000Y-97551000D01*
G75*
G02*
X76030000Y-97411000I140000J0D01*
G01*
X76370000Y-97411000D01*
G75*
G02*
X76510000Y-97551000I0J-140000D01*
G01*
X76510000Y-97831000D01*
G75*
G02*
X76370000Y-97971000I-140000J0D01*
G01*
G37*
G36*
G01*
X76370000Y-98931000D02*
X76030000Y-98931000D01*
G75*
G02*
X75890000Y-98791000I0J140000D01*
G01*
X75890000Y-98511000D01*
G75*
G02*
X76030000Y-98371000I140000J0D01*
G01*
X76370000Y-98371000D01*
G75*
G02*
X76510000Y-98511000I0J-140000D01*
G01*
X76510000Y-98791000D01*
G75*
G02*
X76370000Y-98931000I-140000J0D01*
G01*
G37*
G36*
G01*
X75141000Y-108630000D02*
X75481000Y-108630000D01*
G75*
G02*
X75621000Y-108770000I0J-140000D01*
G01*
X75621000Y-109050000D01*
G75*
G02*
X75481000Y-109190000I-140000J0D01*
G01*
X75141000Y-109190000D01*
G75*
G02*
X75001000Y-109050000I0J140000D01*
G01*
X75001000Y-108770000D01*
G75*
G02*
X75141000Y-108630000I140000J0D01*
G01*
G37*
G36*
G01*
X75141000Y-107670000D02*
X75481000Y-107670000D01*
G75*
G02*
X75621000Y-107810000I0J-140000D01*
G01*
X75621000Y-108090000D01*
G75*
G02*
X75481000Y-108230000I-140000J0D01*
G01*
X75141000Y-108230000D01*
G75*
G02*
X75001000Y-108090000I0J140000D01*
G01*
X75001000Y-107810000D01*
G75*
G02*
X75141000Y-107670000I140000J0D01*
G01*
G37*
G36*
G01*
X73236000Y-106499000D02*
X73576000Y-106499000D01*
G75*
G02*
X73716000Y-106639000I0J-140000D01*
G01*
X73716000Y-106919000D01*
G75*
G02*
X73576000Y-107059000I-140000J0D01*
G01*
X73236000Y-107059000D01*
G75*
G02*
X73096000Y-106919000I0J140000D01*
G01*
X73096000Y-106639000D01*
G75*
G02*
X73236000Y-106499000I140000J0D01*
G01*
G37*
G36*
G01*
X73236000Y-105539000D02*
X73576000Y-105539000D01*
G75*
G02*
X73716000Y-105679000I0J-140000D01*
G01*
X73716000Y-105959000D01*
G75*
G02*
X73576000Y-106099000I-140000J0D01*
G01*
X73236000Y-106099000D01*
G75*
G02*
X73096000Y-105959000I0J140000D01*
G01*
X73096000Y-105679000D01*
G75*
G02*
X73236000Y-105539000I140000J0D01*
G01*
G37*
G36*
G01*
X82292000Y-98240000D02*
X81792000Y-98240000D01*
G75*
G02*
X81567000Y-98015000I0J225000D01*
G01*
X81567000Y-97565000D01*
G75*
G02*
X81792000Y-97340000I225000J0D01*
G01*
X82292000Y-97340000D01*
G75*
G02*
X82517000Y-97565000I0J-225000D01*
G01*
X82517000Y-98015000D01*
G75*
G02*
X82292000Y-98240000I-225000J0D01*
G01*
G37*
G36*
G01*
X82292000Y-99790000D02*
X81792000Y-99790000D01*
G75*
G02*
X81567000Y-99565000I0J225000D01*
G01*
X81567000Y-99115000D01*
G75*
G02*
X81792000Y-98890000I225000J0D01*
G01*
X82292000Y-98890000D01*
G75*
G02*
X82517000Y-99115000I0J-225000D01*
G01*
X82517000Y-99565000D01*
G75*
G02*
X82292000Y-99790000I-225000J0D01*
G01*
G37*
G36*
G01*
X77720000Y-95801000D02*
X77220000Y-95801000D01*
G75*
G02*
X76995000Y-95576000I0J225000D01*
G01*
X76995000Y-95126000D01*
G75*
G02*
X77220000Y-94901000I225000J0D01*
G01*
X77720000Y-94901000D01*
G75*
G02*
X77945000Y-95126000I0J-225000D01*
G01*
X77945000Y-95576000D01*
G75*
G02*
X77720000Y-95801000I-225000J0D01*
G01*
G37*
G36*
G01*
X77720000Y-97351000D02*
X77220000Y-97351000D01*
G75*
G02*
X76995000Y-97126000I0J225000D01*
G01*
X76995000Y-96676000D01*
G75*
G02*
X77220000Y-96451000I225000J0D01*
G01*
X77720000Y-96451000D01*
G75*
G02*
X77945000Y-96676000I0J-225000D01*
G01*
X77945000Y-97126000D01*
G75*
G02*
X77720000Y-97351000I-225000J0D01*
G01*
G37*
G36*
G01*
X62424000Y-102092999D02*
X62424000Y-103393001D01*
G75*
G02*
X62174001Y-103643000I-249999J0D01*
G01*
X61523999Y-103643000D01*
G75*
G02*
X61274000Y-103393001I0J249999D01*
G01*
X61274000Y-102092999D01*
G75*
G02*
X61523999Y-101843000I249999J0D01*
G01*
X62174001Y-101843000D01*
G75*
G02*
X62424000Y-102092999I0J-249999D01*
G01*
G37*
G36*
G01*
X65374000Y-102092999D02*
X65374000Y-103393001D01*
G75*
G02*
X65124001Y-103643000I-249999J0D01*
G01*
X64473999Y-103643000D01*
G75*
G02*
X64224000Y-103393001I0J249999D01*
G01*
X64224000Y-102092999D01*
G75*
G02*
X64473999Y-101843000I249999J0D01*
G01*
X65124001Y-101843000D01*
G75*
G02*
X65374000Y-102092999I0J-249999D01*
G01*
G37*
G36*
G01*
X64471000Y-100795000D02*
X64471000Y-101135000D01*
G75*
G02*
X64331000Y-101275000I-140000J0D01*
G01*
X64051000Y-101275000D01*
G75*
G02*
X63911000Y-101135000I0J140000D01*
G01*
X63911000Y-100795000D01*
G75*
G02*
X64051000Y-100655000I140000J0D01*
G01*
X64331000Y-100655000D01*
G75*
G02*
X64471000Y-100795000I0J-140000D01*
G01*
G37*
G36*
G01*
X65431000Y-100795000D02*
X65431000Y-101135000D01*
G75*
G02*
X65291000Y-101275000I-140000J0D01*
G01*
X65011000Y-101275000D01*
G75*
G02*
X64871000Y-101135000I0J140000D01*
G01*
X64871000Y-100795000D01*
G75*
G02*
X65011000Y-100655000I140000J0D01*
G01*
X65291000Y-100655000D01*
G75*
G02*
X65431000Y-100795000I0J-140000D01*
G01*
G37*
G36*
G01*
X70528000Y-106071000D02*
X70188000Y-106071000D01*
G75*
G02*
X70048000Y-105931000I0J140000D01*
G01*
X70048000Y-105651000D01*
G75*
G02*
X70188000Y-105511000I140000J0D01*
G01*
X70528000Y-105511000D01*
G75*
G02*
X70668000Y-105651000I0J-140000D01*
G01*
X70668000Y-105931000D01*
G75*
G02*
X70528000Y-106071000I-140000J0D01*
G01*
G37*
G36*
G01*
X70528000Y-107031000D02*
X70188000Y-107031000D01*
G75*
G02*
X70048000Y-106891000I0J140000D01*
G01*
X70048000Y-106611000D01*
G75*
G02*
X70188000Y-106471000I140000J0D01*
G01*
X70528000Y-106471000D01*
G75*
G02*
X70668000Y-106611000I0J-140000D01*
G01*
X70668000Y-106891000D01*
G75*
G02*
X70528000Y-107031000I-140000J0D01*
G01*
G37*
G36*
G01*
X75227000Y-95403000D02*
X74887000Y-95403000D01*
G75*
G02*
X74747000Y-95263000I0J140000D01*
G01*
X74747000Y-94983000D01*
G75*
G02*
X74887000Y-94843000I140000J0D01*
G01*
X75227000Y-94843000D01*
G75*
G02*
X75367000Y-94983000I0J-140000D01*
G01*
X75367000Y-95263000D01*
G75*
G02*
X75227000Y-95403000I-140000J0D01*
G01*
G37*
G36*
G01*
X75227000Y-96363000D02*
X74887000Y-96363000D01*
G75*
G02*
X74747000Y-96223000I0J140000D01*
G01*
X74747000Y-95943000D01*
G75*
G02*
X74887000Y-95803000I140000J0D01*
G01*
X75227000Y-95803000D01*
G75*
G02*
X75367000Y-95943000I0J-140000D01*
G01*
X75367000Y-96223000D01*
G75*
G02*
X75227000Y-96363000I-140000J0D01*
G01*
G37*
G36*
G01*
X66630000Y-96985000D02*
X66630000Y-97325000D01*
G75*
G02*
X66490000Y-97465000I-140000J0D01*
G01*
X66210000Y-97465000D01*
G75*
G02*
X66070000Y-97325000I0J140000D01*
G01*
X66070000Y-96985000D01*
G75*
G02*
X66210000Y-96845000I140000J0D01*
G01*
X66490000Y-96845000D01*
G75*
G02*
X66630000Y-96985000I0J-140000D01*
G01*
G37*
G36*
G01*
X67590000Y-96985000D02*
X67590000Y-97325000D01*
G75*
G02*
X67450000Y-97465000I-140000J0D01*
G01*
X67170000Y-97465000D01*
G75*
G02*
X67030000Y-97325000I0J140000D01*
G01*
X67030000Y-96985000D01*
G75*
G02*
X67170000Y-96845000I140000J0D01*
G01*
X67450000Y-96845000D01*
G75*
G02*
X67590000Y-96985000I0J-140000D01*
G01*
G37*
G36*
G01*
X76499000Y-102151000D02*
X76499000Y-101811000D01*
G75*
G02*
X76639000Y-101671000I140000J0D01*
G01*
X76919000Y-101671000D01*
G75*
G02*
X77059000Y-101811000I0J-140000D01*
G01*
X77059000Y-102151000D01*
G75*
G02*
X76919000Y-102291000I-140000J0D01*
G01*
X76639000Y-102291000D01*
G75*
G02*
X76499000Y-102151000I0J140000D01*
G01*
G37*
G36*
G01*
X75539000Y-102151000D02*
X75539000Y-101811000D01*
G75*
G02*
X75679000Y-101671000I140000J0D01*
G01*
X75959000Y-101671000D01*
G75*
G02*
X76099000Y-101811000I0J-140000D01*
G01*
X76099000Y-102151000D01*
G75*
G02*
X75959000Y-102291000I-140000J0D01*
G01*
X75679000Y-102291000D01*
G75*
G02*
X75539000Y-102151000I0J140000D01*
G01*
G37*
G36*
G01*
X71417000Y-93935000D02*
X71077000Y-93935000D01*
G75*
G02*
X70937000Y-93795000I0J140000D01*
G01*
X70937000Y-93515000D01*
G75*
G02*
X71077000Y-93375000I140000J0D01*
G01*
X71417000Y-93375000D01*
G75*
G02*
X71557000Y-93515000I0J-140000D01*
G01*
X71557000Y-93795000D01*
G75*
G02*
X71417000Y-93935000I-140000J0D01*
G01*
G37*
G36*
G01*
X71417000Y-94895000D02*
X71077000Y-94895000D01*
G75*
G02*
X70937000Y-94755000I0J140000D01*
G01*
X70937000Y-94475000D01*
G75*
G02*
X71077000Y-94335000I140000J0D01*
G01*
X71417000Y-94335000D01*
G75*
G02*
X71557000Y-94475000I0J-140000D01*
G01*
X71557000Y-94755000D01*
G75*
G02*
X71417000Y-94895000I-140000J0D01*
G01*
G37*
G36*
G01*
X99953000Y-106751000D02*
X100453000Y-106751000D01*
G75*
G02*
X100678000Y-106976000I0J-225000D01*
G01*
X100678000Y-107426000D01*
G75*
G02*
X100453000Y-107651000I-225000J0D01*
G01*
X99953000Y-107651000D01*
G75*
G02*
X99728000Y-107426000I0J225000D01*
G01*
X99728000Y-106976000D01*
G75*
G02*
X99953000Y-106751000I225000J0D01*
G01*
G37*
G36*
G01*
X99953000Y-105201000D02*
X100453000Y-105201000D01*
G75*
G02*
X100678000Y-105426000I0J-225000D01*
G01*
X100678000Y-105876000D01*
G75*
G02*
X100453000Y-106101000I-225000J0D01*
G01*
X99953000Y-106101000D01*
G75*
G02*
X99728000Y-105876000I0J225000D01*
G01*
X99728000Y-105426000D01*
G75*
G02*
X99953000Y-105201000I225000J0D01*
G01*
G37*
G36*
G01*
X110559000Y-106774000D02*
X110559000Y-105824000D01*
G75*
G02*
X110809000Y-105574000I250000J0D01*
G01*
X111309000Y-105574000D01*
G75*
G02*
X111559000Y-105824000I0J-250000D01*
G01*
X111559000Y-106774000D01*
G75*
G02*
X111309000Y-107024000I-250000J0D01*
G01*
X110809000Y-107024000D01*
G75*
G02*
X110559000Y-106774000I0J250000D01*
G01*
G37*
G36*
G01*
X108659000Y-106774000D02*
X108659000Y-105824000D01*
G75*
G02*
X108909000Y-105574000I250000J0D01*
G01*
X109409000Y-105574000D01*
G75*
G02*
X109659000Y-105824000I0J-250000D01*
G01*
X109659000Y-106774000D01*
G75*
G02*
X109409000Y-107024000I-250000J0D01*
G01*
X108909000Y-107024000D01*
G75*
G02*
X108659000Y-106774000I0J250000D01*
G01*
G37*
D14*
X104902000Y-104902000D03*
D15*
X102702000Y-105877000D03*
X102702000Y-105227000D03*
X102702000Y-104577000D03*
X102702000Y-103927000D03*
X107102000Y-103927000D03*
X107102000Y-104577000D03*
X107102000Y-105227000D03*
X107102000Y-105877000D03*
D16*
X112687500Y-101330000D03*
D17*
X109987500Y-100330000D03*
X109987500Y-99680000D03*
X109987500Y-99030000D03*
X109987500Y-101630000D03*
X109987500Y-100980000D03*
D16*
X112687500Y-99330000D03*
G36*
G01*
X69972500Y-101065000D02*
X70467500Y-101065000D01*
G75*
G02*
X70715000Y-101312500I0J-247500D01*
G01*
X70715000Y-101807500D01*
G75*
G02*
X70467500Y-102055000I-247500J0D01*
G01*
X69972500Y-102055000D01*
G75*
G02*
X69725000Y-101807500I0J247500D01*
G01*
X69725000Y-101312500D01*
G75*
G02*
X69972500Y-101065000I247500J0D01*
G01*
G37*
G36*
G01*
X71202500Y-101065000D02*
X71697500Y-101065000D01*
G75*
G02*
X71945000Y-101312500I0J-247500D01*
G01*
X71945000Y-101807500D01*
G75*
G02*
X71697500Y-102055000I-247500J0D01*
G01*
X71202500Y-102055000D01*
G75*
G02*
X70955000Y-101807500I0J247500D01*
G01*
X70955000Y-101312500D01*
G75*
G02*
X71202500Y-101065000I247500J0D01*
G01*
G37*
G36*
G01*
X72432500Y-101065000D02*
X72927500Y-101065000D01*
G75*
G02*
X73175000Y-101312500I0J-247500D01*
G01*
X73175000Y-101807500D01*
G75*
G02*
X72927500Y-102055000I-247500J0D01*
G01*
X72432500Y-102055000D01*
G75*
G02*
X72185000Y-101807500I0J247500D01*
G01*
X72185000Y-101312500D01*
G75*
G02*
X72432500Y-101065000I247500J0D01*
G01*
G37*
G36*
G01*
X69972500Y-99835000D02*
X70467500Y-99835000D01*
G75*
G02*
X70715000Y-100082500I0J-247500D01*
G01*
X70715000Y-100577500D01*
G75*
G02*
X70467500Y-100825000I-247500J0D01*
G01*
X69972500Y-100825000D01*
G75*
G02*
X69725000Y-100577500I0J247500D01*
G01*
X69725000Y-100082500D01*
G75*
G02*
X69972500Y-99835000I247500J0D01*
G01*
G37*
G36*
G01*
X71202500Y-99835000D02*
X71697500Y-99835000D01*
G75*
G02*
X71945000Y-100082500I0J-247500D01*
G01*
X71945000Y-100577500D01*
G75*
G02*
X71697500Y-100825000I-247500J0D01*
G01*
X71202500Y-100825000D01*
G75*
G02*
X70955000Y-100577500I0J247500D01*
G01*
X70955000Y-100082500D01*
G75*
G02*
X71202500Y-99835000I247500J0D01*
G01*
G37*
G36*
G01*
X72432500Y-99835000D02*
X72927500Y-99835000D01*
G75*
G02*
X73175000Y-100082500I0J-247500D01*
G01*
X73175000Y-100577500D01*
G75*
G02*
X72927500Y-100825000I-247500J0D01*
G01*
X72432500Y-100825000D01*
G75*
G02*
X72185000Y-100577500I0J247500D01*
G01*
X72185000Y-100082500D01*
G75*
G02*
X72432500Y-99835000I247500J0D01*
G01*
G37*
G36*
G01*
X69972500Y-98605000D02*
X70467500Y-98605000D01*
G75*
G02*
X70715000Y-98852500I0J-247500D01*
G01*
X70715000Y-99347500D01*
G75*
G02*
X70467500Y-99595000I-247500J0D01*
G01*
X69972500Y-99595000D01*
G75*
G02*
X69725000Y-99347500I0J247500D01*
G01*
X69725000Y-98852500D01*
G75*
G02*
X69972500Y-98605000I247500J0D01*
G01*
G37*
G36*
G01*
X71202500Y-98605000D02*
X71697500Y-98605000D01*
G75*
G02*
X71945000Y-98852500I0J-247500D01*
G01*
X71945000Y-99347500D01*
G75*
G02*
X71697500Y-99595000I-247500J0D01*
G01*
X71202500Y-99595000D01*
G75*
G02*
X70955000Y-99347500I0J247500D01*
G01*
X70955000Y-98852500D01*
G75*
G02*
X71202500Y-98605000I247500J0D01*
G01*
G37*
G36*
G01*
X72432500Y-98605000D02*
X72927500Y-98605000D01*
G75*
G02*
X73175000Y-98852500I0J-247500D01*
G01*
X73175000Y-99347500D01*
G75*
G02*
X72927500Y-99595000I-247500J0D01*
G01*
X72432500Y-99595000D01*
G75*
G02*
X72185000Y-99347500I0J247500D01*
G01*
X72185000Y-98852500D01*
G75*
G02*
X72432500Y-98605000I247500J0D01*
G01*
G37*
G36*
G01*
X74037500Y-98205000D02*
X74737500Y-98205000D01*
G75*
G02*
X74800000Y-98267500I0J-62500D01*
G01*
X74800000Y-98392500D01*
G75*
G02*
X74737500Y-98455000I-62500J0D01*
G01*
X74037500Y-98455000D01*
G75*
G02*
X73975000Y-98392500I0J62500D01*
G01*
X73975000Y-98267500D01*
G75*
G02*
X74037500Y-98205000I62500J0D01*
G01*
G37*
G36*
G01*
X74037500Y-98705000D02*
X74737500Y-98705000D01*
G75*
G02*
X74800000Y-98767500I0J-62500D01*
G01*
X74800000Y-98892500D01*
G75*
G02*
X74737500Y-98955000I-62500J0D01*
G01*
X74037500Y-98955000D01*
G75*
G02*
X73975000Y-98892500I0J62500D01*
G01*
X73975000Y-98767500D01*
G75*
G02*
X74037500Y-98705000I62500J0D01*
G01*
G37*
G36*
G01*
X74037500Y-99205000D02*
X74737500Y-99205000D01*
G75*
G02*
X74800000Y-99267500I0J-62500D01*
G01*
X74800000Y-99392500D01*
G75*
G02*
X74737500Y-99455000I-62500J0D01*
G01*
X74037500Y-99455000D01*
G75*
G02*
X73975000Y-99392500I0J62500D01*
G01*
X73975000Y-99267500D01*
G75*
G02*
X74037500Y-99205000I62500J0D01*
G01*
G37*
G36*
G01*
X74037500Y-99705000D02*
X74737500Y-99705000D01*
G75*
G02*
X74800000Y-99767500I0J-62500D01*
G01*
X74800000Y-99892500D01*
G75*
G02*
X74737500Y-99955000I-62500J0D01*
G01*
X74037500Y-99955000D01*
G75*
G02*
X73975000Y-99892500I0J62500D01*
G01*
X73975000Y-99767500D01*
G75*
G02*
X74037500Y-99705000I62500J0D01*
G01*
G37*
G36*
G01*
X74037500Y-100205000D02*
X74737500Y-100205000D01*
G75*
G02*
X74800000Y-100267500I0J-62500D01*
G01*
X74800000Y-100392500D01*
G75*
G02*
X74737500Y-100455000I-62500J0D01*
G01*
X74037500Y-100455000D01*
G75*
G02*
X73975000Y-100392500I0J62500D01*
G01*
X73975000Y-100267500D01*
G75*
G02*
X74037500Y-100205000I62500J0D01*
G01*
G37*
G36*
G01*
X74037500Y-100705000D02*
X74737500Y-100705000D01*
G75*
G02*
X74800000Y-100767500I0J-62500D01*
G01*
X74800000Y-100892500D01*
G75*
G02*
X74737500Y-100955000I-62500J0D01*
G01*
X74037500Y-100955000D01*
G75*
G02*
X73975000Y-100892500I0J62500D01*
G01*
X73975000Y-100767500D01*
G75*
G02*
X74037500Y-100705000I62500J0D01*
G01*
G37*
G36*
G01*
X74037500Y-101205000D02*
X74737500Y-101205000D01*
G75*
G02*
X74800000Y-101267500I0J-62500D01*
G01*
X74800000Y-101392500D01*
G75*
G02*
X74737500Y-101455000I-62500J0D01*
G01*
X74037500Y-101455000D01*
G75*
G02*
X73975000Y-101392500I0J62500D01*
G01*
X73975000Y-101267500D01*
G75*
G02*
X74037500Y-101205000I62500J0D01*
G01*
G37*
G36*
G01*
X74037500Y-101705000D02*
X74737500Y-101705000D01*
G75*
G02*
X74800000Y-101767500I0J-62500D01*
G01*
X74800000Y-101892500D01*
G75*
G02*
X74737500Y-101955000I-62500J0D01*
G01*
X74037500Y-101955000D01*
G75*
G02*
X73975000Y-101892500I0J62500D01*
G01*
X73975000Y-101767500D01*
G75*
G02*
X74037500Y-101705000I62500J0D01*
G01*
G37*
G36*
G01*
X74037500Y-102205000D02*
X74737500Y-102205000D01*
G75*
G02*
X74800000Y-102267500I0J-62500D01*
G01*
X74800000Y-102392500D01*
G75*
G02*
X74737500Y-102455000I-62500J0D01*
G01*
X74037500Y-102455000D01*
G75*
G02*
X73975000Y-102392500I0J62500D01*
G01*
X73975000Y-102267500D01*
G75*
G02*
X74037500Y-102205000I62500J0D01*
G01*
G37*
G36*
G01*
X73387500Y-102855000D02*
X73512500Y-102855000D01*
G75*
G02*
X73575000Y-102917500I0J-62500D01*
G01*
X73575000Y-103617500D01*
G75*
G02*
X73512500Y-103680000I-62500J0D01*
G01*
X73387500Y-103680000D01*
G75*
G02*
X73325000Y-103617500I0J62500D01*
G01*
X73325000Y-102917500D01*
G75*
G02*
X73387500Y-102855000I62500J0D01*
G01*
G37*
G36*
G01*
X72887500Y-102855000D02*
X73012500Y-102855000D01*
G75*
G02*
X73075000Y-102917500I0J-62500D01*
G01*
X73075000Y-103617500D01*
G75*
G02*
X73012500Y-103680000I-62500J0D01*
G01*
X72887500Y-103680000D01*
G75*
G02*
X72825000Y-103617500I0J62500D01*
G01*
X72825000Y-102917500D01*
G75*
G02*
X72887500Y-102855000I62500J0D01*
G01*
G37*
G36*
G01*
X72387500Y-102855000D02*
X72512500Y-102855000D01*
G75*
G02*
X72575000Y-102917500I0J-62500D01*
G01*
X72575000Y-103617500D01*
G75*
G02*
X72512500Y-103680000I-62500J0D01*
G01*
X72387500Y-103680000D01*
G75*
G02*
X72325000Y-103617500I0J62500D01*
G01*
X72325000Y-102917500D01*
G75*
G02*
X72387500Y-102855000I62500J0D01*
G01*
G37*
G36*
G01*
X71887500Y-102855000D02*
X72012500Y-102855000D01*
G75*
G02*
X72075000Y-102917500I0J-62500D01*
G01*
X72075000Y-103617500D01*
G75*
G02*
X72012500Y-103680000I-62500J0D01*
G01*
X71887500Y-103680000D01*
G75*
G02*
X71825000Y-103617500I0J62500D01*
G01*
X71825000Y-102917500D01*
G75*
G02*
X71887500Y-102855000I62500J0D01*
G01*
G37*
G36*
G01*
X71387500Y-102855000D02*
X71512500Y-102855000D01*
G75*
G02*
X71575000Y-102917500I0J-62500D01*
G01*
X71575000Y-103617500D01*
G75*
G02*
X71512500Y-103680000I-62500J0D01*
G01*
X71387500Y-103680000D01*
G75*
G02*
X71325000Y-103617500I0J62500D01*
G01*
X71325000Y-102917500D01*
G75*
G02*
X71387500Y-102855000I62500J0D01*
G01*
G37*
G36*
G01*
X70887500Y-102855000D02*
X71012500Y-102855000D01*
G75*
G02*
X71075000Y-102917500I0J-62500D01*
G01*
X71075000Y-103617500D01*
G75*
G02*
X71012500Y-103680000I-62500J0D01*
G01*
X70887500Y-103680000D01*
G75*
G02*
X70825000Y-103617500I0J62500D01*
G01*
X70825000Y-102917500D01*
G75*
G02*
X70887500Y-102855000I62500J0D01*
G01*
G37*
G36*
G01*
X70387500Y-102855000D02*
X70512500Y-102855000D01*
G75*
G02*
X70575000Y-102917500I0J-62500D01*
G01*
X70575000Y-103617500D01*
G75*
G02*
X70512500Y-103680000I-62500J0D01*
G01*
X70387500Y-103680000D01*
G75*
G02*
X70325000Y-103617500I0J62500D01*
G01*
X70325000Y-102917500D01*
G75*
G02*
X70387500Y-102855000I62500J0D01*
G01*
G37*
G36*
G01*
X69887500Y-102855000D02*
X70012500Y-102855000D01*
G75*
G02*
X70075000Y-102917500I0J-62500D01*
G01*
X70075000Y-103617500D01*
G75*
G02*
X70012500Y-103680000I-62500J0D01*
G01*
X69887500Y-103680000D01*
G75*
G02*
X69825000Y-103617500I0J62500D01*
G01*
X69825000Y-102917500D01*
G75*
G02*
X69887500Y-102855000I62500J0D01*
G01*
G37*
G36*
G01*
X69387500Y-102855000D02*
X69512500Y-102855000D01*
G75*
G02*
X69575000Y-102917500I0J-62500D01*
G01*
X69575000Y-103617500D01*
G75*
G02*
X69512500Y-103680000I-62500J0D01*
G01*
X69387500Y-103680000D01*
G75*
G02*
X69325000Y-103617500I0J62500D01*
G01*
X69325000Y-102917500D01*
G75*
G02*
X69387500Y-102855000I62500J0D01*
G01*
G37*
G36*
G01*
X68162500Y-102205000D02*
X68862500Y-102205000D01*
G75*
G02*
X68925000Y-102267500I0J-62500D01*
G01*
X68925000Y-102392500D01*
G75*
G02*
X68862500Y-102455000I-62500J0D01*
G01*
X68162500Y-102455000D01*
G75*
G02*
X68100000Y-102392500I0J62500D01*
G01*
X68100000Y-102267500D01*
G75*
G02*
X68162500Y-102205000I62500J0D01*
G01*
G37*
G36*
G01*
X68162500Y-101705000D02*
X68862500Y-101705000D01*
G75*
G02*
X68925000Y-101767500I0J-62500D01*
G01*
X68925000Y-101892500D01*
G75*
G02*
X68862500Y-101955000I-62500J0D01*
G01*
X68162500Y-101955000D01*
G75*
G02*
X68100000Y-101892500I0J62500D01*
G01*
X68100000Y-101767500D01*
G75*
G02*
X68162500Y-101705000I62500J0D01*
G01*
G37*
G36*
G01*
X68162500Y-101205000D02*
X68862500Y-101205000D01*
G75*
G02*
X68925000Y-101267500I0J-62500D01*
G01*
X68925000Y-101392500D01*
G75*
G02*
X68862500Y-101455000I-62500J0D01*
G01*
X68162500Y-101455000D01*
G75*
G02*
X68100000Y-101392500I0J62500D01*
G01*
X68100000Y-101267500D01*
G75*
G02*
X68162500Y-101205000I62500J0D01*
G01*
G37*
G36*
G01*
X68162500Y-100705000D02*
X68862500Y-100705000D01*
G75*
G02*
X68925000Y-100767500I0J-62500D01*
G01*
X68925000Y-100892500D01*
G75*
G02*
X68862500Y-100955000I-62500J0D01*
G01*
X68162500Y-100955000D01*
G75*
G02*
X68100000Y-100892500I0J62500D01*
G01*
X68100000Y-100767500D01*
G75*
G02*
X68162500Y-100705000I62500J0D01*
G01*
G37*
G36*
G01*
X68162500Y-100205000D02*
X68862500Y-100205000D01*
G75*
G02*
X68925000Y-100267500I0J-62500D01*
G01*
X68925000Y-100392500D01*
G75*
G02*
X68862500Y-100455000I-62500J0D01*
G01*
X68162500Y-100455000D01*
G75*
G02*
X68100000Y-100392500I0J62500D01*
G01*
X68100000Y-100267500D01*
G75*
G02*
X68162500Y-100205000I62500J0D01*
G01*
G37*
G36*
G01*
X68162500Y-99705000D02*
X68862500Y-99705000D01*
G75*
G02*
X68925000Y-99767500I0J-62500D01*
G01*
X68925000Y-99892500D01*
G75*
G02*
X68862500Y-99955000I-62500J0D01*
G01*
X68162500Y-99955000D01*
G75*
G02*
X68100000Y-99892500I0J62500D01*
G01*
X68100000Y-99767500D01*
G75*
G02*
X68162500Y-99705000I62500J0D01*
G01*
G37*
G36*
G01*
X68162500Y-99205000D02*
X68862500Y-99205000D01*
G75*
G02*
X68925000Y-99267500I0J-62500D01*
G01*
X68925000Y-99392500D01*
G75*
G02*
X68862500Y-99455000I-62500J0D01*
G01*
X68162500Y-99455000D01*
G75*
G02*
X68100000Y-99392500I0J62500D01*
G01*
X68100000Y-99267500D01*
G75*
G02*
X68162500Y-99205000I62500J0D01*
G01*
G37*
G36*
G01*
X68162500Y-98705000D02*
X68862500Y-98705000D01*
G75*
G02*
X68925000Y-98767500I0J-62500D01*
G01*
X68925000Y-98892500D01*
G75*
G02*
X68862500Y-98955000I-62500J0D01*
G01*
X68162500Y-98955000D01*
G75*
G02*
X68100000Y-98892500I0J62500D01*
G01*
X68100000Y-98767500D01*
G75*
G02*
X68162500Y-98705000I62500J0D01*
G01*
G37*
G36*
G01*
X68162500Y-98205000D02*
X68862500Y-98205000D01*
G75*
G02*
X68925000Y-98267500I0J-62500D01*
G01*
X68925000Y-98392500D01*
G75*
G02*
X68862500Y-98455000I-62500J0D01*
G01*
X68162500Y-98455000D01*
G75*
G02*
X68100000Y-98392500I0J62500D01*
G01*
X68100000Y-98267500D01*
G75*
G02*
X68162500Y-98205000I62500J0D01*
G01*
G37*
G36*
G01*
X69387500Y-96980000D02*
X69512500Y-96980000D01*
G75*
G02*
X69575000Y-97042500I0J-62500D01*
G01*
X69575000Y-97742500D01*
G75*
G02*
X69512500Y-97805000I-62500J0D01*
G01*
X69387500Y-97805000D01*
G75*
G02*
X69325000Y-97742500I0J62500D01*
G01*
X69325000Y-97042500D01*
G75*
G02*
X69387500Y-96980000I62500J0D01*
G01*
G37*
G36*
G01*
X69887500Y-96980000D02*
X70012500Y-96980000D01*
G75*
G02*
X70075000Y-97042500I0J-62500D01*
G01*
X70075000Y-97742500D01*
G75*
G02*
X70012500Y-97805000I-62500J0D01*
G01*
X69887500Y-97805000D01*
G75*
G02*
X69825000Y-97742500I0J62500D01*
G01*
X69825000Y-97042500D01*
G75*
G02*
X69887500Y-96980000I62500J0D01*
G01*
G37*
G36*
G01*
X70387500Y-96980000D02*
X70512500Y-96980000D01*
G75*
G02*
X70575000Y-97042500I0J-62500D01*
G01*
X70575000Y-97742500D01*
G75*
G02*
X70512500Y-97805000I-62500J0D01*
G01*
X70387500Y-97805000D01*
G75*
G02*
X70325000Y-97742500I0J62500D01*
G01*
X70325000Y-97042500D01*
G75*
G02*
X70387500Y-96980000I62500J0D01*
G01*
G37*
G36*
G01*
X70887500Y-96980000D02*
X71012500Y-96980000D01*
G75*
G02*
X71075000Y-97042500I0J-62500D01*
G01*
X71075000Y-97742500D01*
G75*
G02*
X71012500Y-97805000I-62500J0D01*
G01*
X70887500Y-97805000D01*
G75*
G02*
X70825000Y-97742500I0J62500D01*
G01*
X70825000Y-97042500D01*
G75*
G02*
X70887500Y-96980000I62500J0D01*
G01*
G37*
G36*
G01*
X71387500Y-96980000D02*
X71512500Y-96980000D01*
G75*
G02*
X71575000Y-97042500I0J-62500D01*
G01*
X71575000Y-97742500D01*
G75*
G02*
X71512500Y-97805000I-62500J0D01*
G01*
X71387500Y-97805000D01*
G75*
G02*
X71325000Y-97742500I0J62500D01*
G01*
X71325000Y-97042500D01*
G75*
G02*
X71387500Y-96980000I62500J0D01*
G01*
G37*
G36*
G01*
X71887500Y-96980000D02*
X72012500Y-96980000D01*
G75*
G02*
X72075000Y-97042500I0J-62500D01*
G01*
X72075000Y-97742500D01*
G75*
G02*
X72012500Y-97805000I-62500J0D01*
G01*
X71887500Y-97805000D01*
G75*
G02*
X71825000Y-97742500I0J62500D01*
G01*
X71825000Y-97042500D01*
G75*
G02*
X71887500Y-96980000I62500J0D01*
G01*
G37*
G36*
G01*
X72387500Y-96980000D02*
X72512500Y-96980000D01*
G75*
G02*
X72575000Y-97042500I0J-62500D01*
G01*
X72575000Y-97742500D01*
G75*
G02*
X72512500Y-97805000I-62500J0D01*
G01*
X72387500Y-97805000D01*
G75*
G02*
X72325000Y-97742500I0J62500D01*
G01*
X72325000Y-97042500D01*
G75*
G02*
X72387500Y-96980000I62500J0D01*
G01*
G37*
G36*
G01*
X72887500Y-96980000D02*
X73012500Y-96980000D01*
G75*
G02*
X73075000Y-97042500I0J-62500D01*
G01*
X73075000Y-97742500D01*
G75*
G02*
X73012500Y-97805000I-62500J0D01*
G01*
X72887500Y-97805000D01*
G75*
G02*
X72825000Y-97742500I0J62500D01*
G01*
X72825000Y-97042500D01*
G75*
G02*
X72887500Y-96980000I62500J0D01*
G01*
G37*
G36*
G01*
X73387500Y-96980000D02*
X73512500Y-96980000D01*
G75*
G02*
X73575000Y-97042500I0J-62500D01*
G01*
X73575000Y-97742500D01*
G75*
G02*
X73512500Y-97805000I-62500J0D01*
G01*
X73387500Y-97805000D01*
G75*
G02*
X73325000Y-97742500I0J62500D01*
G01*
X73325000Y-97042500D01*
G75*
G02*
X73387500Y-96980000I62500J0D01*
G01*
G37*
M02*
