G04 #@! TF.GenerationSoftware,KiCad,Pcbnew,(5.1.10)-1*
G04 #@! TF.CreationDate,2021-06-23T14:01:49+02:00*
G04 #@! TF.ProjectId,sh_control,73685f63-6f6e-4747-926f-6c2e6b696361,3.2*
G04 #@! TF.SameCoordinates,Original*
G04 #@! TF.FileFunction,Legend,Top*
G04 #@! TF.FilePolarity,Positive*
%FSLAX46Y46*%
G04 Gerber Fmt 4.6, Leading zero omitted, Abs format (unit mm)*
G04 Created by KiCad (PCBNEW (5.1.10)-1) date 2021-06-23 14:01:49*
%MOMM*%
%LPD*%
G01*
G04 APERTURE LIST*
%ADD10C,0.300000*%
%ADD11C,0.120000*%
%ADD12C,0.100000*%
%ADD13C,0.200000*%
%ADD14C,0.150000*%
%ADD15C,0.254000*%
G04 APERTURE END LIST*
D10*
X54352523Y-130098095D02*
X54352523Y-131150476D01*
X54414428Y-131274285D01*
X54476333Y-131336190D01*
X54600142Y-131398095D01*
X54847761Y-131398095D01*
X54971571Y-131336190D01*
X55033476Y-131274285D01*
X55095380Y-131150476D01*
X55095380Y-130098095D01*
X55652523Y-131336190D02*
X55838238Y-131398095D01*
X56147761Y-131398095D01*
X56271571Y-131336190D01*
X56333476Y-131274285D01*
X56395380Y-131150476D01*
X56395380Y-131026666D01*
X56333476Y-130902857D01*
X56271571Y-130840952D01*
X56147761Y-130779047D01*
X55900142Y-130717142D01*
X55776333Y-130655238D01*
X55714428Y-130593333D01*
X55652523Y-130469523D01*
X55652523Y-130345714D01*
X55714428Y-130221904D01*
X55776333Y-130160000D01*
X55900142Y-130098095D01*
X56209666Y-130098095D01*
X56395380Y-130160000D01*
X57385857Y-130717142D02*
X57571571Y-130779047D01*
X57633476Y-130840952D01*
X57695380Y-130964761D01*
X57695380Y-131150476D01*
X57633476Y-131274285D01*
X57571571Y-131336190D01*
X57447761Y-131398095D01*
X56952523Y-131398095D01*
X56952523Y-130098095D01*
X57385857Y-130098095D01*
X57509666Y-130160000D01*
X57571571Y-130221904D01*
X57633476Y-130345714D01*
X57633476Y-130469523D01*
X57571571Y-130593333D01*
X57509666Y-130655238D01*
X57385857Y-130717142D01*
X56952523Y-130717142D01*
X59243000Y-131398095D02*
X59243000Y-130098095D01*
X59243000Y-130717142D02*
X59985857Y-130717142D01*
X59985857Y-131398095D02*
X59985857Y-130098095D01*
X60604904Y-130098095D02*
X60604904Y-131150476D01*
X60666809Y-131274285D01*
X60728714Y-131336190D01*
X60852523Y-131398095D01*
X61100142Y-131398095D01*
X61223952Y-131336190D01*
X61285857Y-131274285D01*
X61347761Y-131150476D01*
X61347761Y-130098095D01*
X62400142Y-130717142D02*
X62585857Y-130779047D01*
X62647761Y-130840952D01*
X62709666Y-130964761D01*
X62709666Y-131150476D01*
X62647761Y-131274285D01*
X62585857Y-131336190D01*
X62462047Y-131398095D01*
X61966809Y-131398095D01*
X61966809Y-130098095D01*
X62400142Y-130098095D01*
X62523952Y-130160000D01*
X62585857Y-130221904D01*
X62647761Y-130345714D01*
X62647761Y-130469523D01*
X62585857Y-130593333D01*
X62523952Y-130655238D01*
X62400142Y-130717142D01*
X61966809Y-130717142D01*
X64133476Y-130531428D02*
X64443000Y-131398095D01*
X64752523Y-130531428D01*
X65123952Y-130098095D02*
X65928714Y-130098095D01*
X65495380Y-130593333D01*
X65681095Y-130593333D01*
X65804904Y-130655238D01*
X65866809Y-130717142D01*
X65928714Y-130840952D01*
X65928714Y-131150476D01*
X65866809Y-131274285D01*
X65804904Y-131336190D01*
X65681095Y-131398095D01*
X65309666Y-131398095D01*
X65185857Y-131336190D01*
X65123952Y-131274285D01*
X66485857Y-131274285D02*
X66547761Y-131336190D01*
X66485857Y-131398095D01*
X66423952Y-131336190D01*
X66485857Y-131274285D01*
X66485857Y-131398095D01*
X66981095Y-130098095D02*
X67785857Y-130098095D01*
X67352523Y-130593333D01*
X67538238Y-130593333D01*
X67662047Y-130655238D01*
X67723952Y-130717142D01*
X67785857Y-130840952D01*
X67785857Y-131150476D01*
X67723952Y-131274285D01*
X67662047Y-131336190D01*
X67538238Y-131398095D01*
X67166809Y-131398095D01*
X67043000Y-131336190D01*
X66981095Y-131274285D01*
X69333476Y-131398095D02*
X69333476Y-130098095D01*
X69333476Y-130593333D02*
X69457285Y-130531428D01*
X69704904Y-130531428D01*
X69828714Y-130593333D01*
X69890619Y-130655238D01*
X69952523Y-130779047D01*
X69952523Y-131150476D01*
X69890619Y-131274285D01*
X69828714Y-131336190D01*
X69704904Y-131398095D01*
X69457285Y-131398095D01*
X69333476Y-131336190D01*
X70385857Y-130531428D02*
X70695380Y-131398095D01*
X71004904Y-130531428D02*
X70695380Y-131398095D01*
X70571571Y-131707619D01*
X70509666Y-131769523D01*
X70385857Y-131831428D01*
X72490619Y-131398095D02*
X72490619Y-130098095D01*
X72923952Y-131026666D01*
X73357285Y-130098095D01*
X73357285Y-131398095D01*
X73976333Y-131398095D02*
X73976333Y-130098095D01*
X74719190Y-131398095D02*
X74162047Y-130655238D01*
X74719190Y-130098095D02*
X73976333Y-130840952D01*
D11*
X56282000Y-120430936D02*
X56282000Y-121885064D01*
X54462000Y-120430936D02*
X54462000Y-121885064D01*
X54462000Y-80229064D02*
X54462000Y-78774936D01*
X56282000Y-80229064D02*
X56282000Y-78774936D01*
X83512000Y-80229064D02*
X83512000Y-78774936D01*
X85332000Y-80229064D02*
X85332000Y-78774936D01*
X85332000Y-120430936D02*
X85332000Y-121885064D01*
X83512000Y-120430936D02*
X83512000Y-121885064D01*
D12*
X55422000Y-125804000D02*
G75*
G03*
X55422000Y-125804000I-50000J0D01*
G01*
X55422000Y-74879000D02*
G75*
G03*
X55422000Y-74879000I-50000J0D01*
G01*
X84378000Y-74879000D02*
G75*
G03*
X84378000Y-74879000I-50000J0D01*
G01*
X84472000Y-125804000D02*
G75*
G03*
X84472000Y-125804000I-50000J0D01*
G01*
X36780000Y-122500000D02*
X36780000Y-119730000D01*
X36780000Y-119730000D02*
X51180000Y-119730000D01*
X51180000Y-119730000D02*
X51180000Y-122500000D01*
X36780000Y-127000000D02*
X36780000Y-134990000D01*
X36780000Y-134990000D02*
X51180000Y-134990000D01*
X51180000Y-134990000D02*
X51180000Y-127000000D01*
D10*
X35980000Y-122000000D02*
X35980000Y-122000000D01*
X35880000Y-122000000D02*
X35880000Y-122000000D01*
X35980000Y-122000000D02*
G75*
G02*
X35880000Y-122000000I-50000J0D01*
G01*
X35880000Y-122000000D02*
G75*
G02*
X35980000Y-122000000I50000J0D01*
G01*
D12*
X51180000Y-78160000D02*
X51180000Y-80930000D01*
X51180000Y-80930000D02*
X36780000Y-80930000D01*
X36780000Y-80930000D02*
X36780000Y-78160000D01*
X51180000Y-73660000D02*
X51180000Y-65670000D01*
X51180000Y-65670000D02*
X36780000Y-65670000D01*
X36780000Y-65670000D02*
X36780000Y-73660000D01*
D10*
X51980000Y-78660000D02*
X51980000Y-78660000D01*
X52080000Y-78660000D02*
X52080000Y-78660000D01*
X51980000Y-78660000D02*
G75*
G02*
X52080000Y-78660000I50000J0D01*
G01*
X52080000Y-78660000D02*
G75*
G02*
X51980000Y-78660000I-50000J0D01*
G01*
D12*
X102920000Y-78160000D02*
X102920000Y-80930000D01*
X102920000Y-80930000D02*
X88520000Y-80930000D01*
X88520000Y-80930000D02*
X88520000Y-78160000D01*
X102920000Y-73660000D02*
X102920000Y-65670000D01*
X102920000Y-65670000D02*
X88520000Y-65670000D01*
X88520000Y-65670000D02*
X88520000Y-73660000D01*
D10*
X103720000Y-78660000D02*
X103720000Y-78660000D01*
X103820000Y-78660000D02*
X103820000Y-78660000D01*
X103720000Y-78660000D02*
G75*
G02*
X103820000Y-78660000I50000J0D01*
G01*
X103820000Y-78660000D02*
G75*
G02*
X103720000Y-78660000I-50000J0D01*
G01*
D12*
X88520000Y-122500000D02*
X88520000Y-119730000D01*
X88520000Y-119730000D02*
X102920000Y-119730000D01*
X102920000Y-119730000D02*
X102920000Y-122500000D01*
X88520000Y-127000000D02*
X88520000Y-134990000D01*
X88520000Y-134990000D02*
X102920000Y-134990000D01*
X102920000Y-134990000D02*
X102920000Y-127000000D01*
D10*
X87720000Y-122000000D02*
X87720000Y-122000000D01*
X87620000Y-122000000D02*
X87620000Y-122000000D01*
X87720000Y-122000000D02*
G75*
G02*
X87620000Y-122000000I-50000J0D01*
G01*
X87620000Y-122000000D02*
G75*
G02*
X87720000Y-122000000I50000J0D01*
G01*
D11*
X39222000Y-112767164D02*
X39222000Y-112982836D01*
X38502000Y-112767164D02*
X38502000Y-112982836D01*
X54481000Y-117374580D02*
X54481000Y-117093420D01*
X55501000Y-117374580D02*
X55501000Y-117093420D01*
X112005164Y-93493000D02*
X112220836Y-93493000D01*
X112005164Y-94213000D02*
X112220836Y-94213000D01*
X85346000Y-83298420D02*
X85346000Y-83579580D01*
X84326000Y-83298420D02*
X84326000Y-83579580D01*
D13*
X51230000Y-114000000D02*
G75*
G03*
X51230000Y-114000000I-4000000J0D01*
G01*
X99786000Y-86360000D02*
G75*
G03*
X99786000Y-86360000I-4000000J0D01*
G01*
D11*
X39222000Y-89399164D02*
X39222000Y-89614836D01*
X38502000Y-89399164D02*
X38502000Y-89614836D01*
X55501000Y-83298420D02*
X55501000Y-83579580D01*
X54481000Y-83298420D02*
X54481000Y-83579580D01*
D13*
X51272000Y-86360000D02*
G75*
G03*
X51272000Y-86360000I-4000000J0D01*
G01*
X99970000Y-114000000D02*
G75*
G03*
X99970000Y-114000000I-4000000J0D01*
G01*
D11*
X84326000Y-117234580D02*
X84326000Y-116953420D01*
X85346000Y-117234580D02*
X85346000Y-116953420D01*
X112162000Y-117709836D02*
X112162000Y-117494164D01*
X112882000Y-117709836D02*
X112882000Y-117494164D01*
D13*
X47975000Y-95210000D02*
X49500000Y-95210000D01*
X49850000Y-105280000D02*
X49850000Y-95380000D01*
X53050000Y-105280000D02*
X49850000Y-105280000D01*
X53050000Y-95380000D02*
X53050000Y-105280000D01*
X49850000Y-95380000D02*
X53050000Y-95380000D01*
X29655000Y-107840000D02*
X35305000Y-107840000D01*
X35305000Y-107840000D02*
X35305000Y-116160000D01*
X35305000Y-116160000D02*
X29655000Y-116160000D01*
X29655000Y-116160000D02*
X29655000Y-107840000D01*
X26955000Y-108425000D02*
X29305000Y-108425000D01*
X29655000Y-84500000D02*
X35305000Y-84500000D01*
X35305000Y-84500000D02*
X35305000Y-92820000D01*
X35305000Y-92820000D02*
X29655000Y-92820000D01*
X29655000Y-92820000D02*
X29655000Y-84500000D01*
X26955000Y-85085000D02*
X29305000Y-85085000D01*
X104395000Y-84500000D02*
X110045000Y-84500000D01*
X110045000Y-84500000D02*
X110045000Y-92820000D01*
X110045000Y-92820000D02*
X104395000Y-92820000D01*
X104395000Y-92820000D02*
X104395000Y-84500000D01*
X101695000Y-85085000D02*
X104045000Y-85085000D01*
X104395000Y-107840000D02*
X110045000Y-107840000D01*
X110045000Y-107840000D02*
X110045000Y-116160000D01*
X110045000Y-116160000D02*
X104395000Y-116160000D01*
X104395000Y-116160000D02*
X104395000Y-107840000D01*
X101695000Y-108425000D02*
X104045000Y-108425000D01*
D11*
X107839742Y-94727500D02*
X108314258Y-94727500D01*
X107839742Y-95772500D02*
X108314258Y-95772500D01*
D13*
X87290000Y-103155000D02*
X87290000Y-97505000D01*
X87290000Y-97505000D02*
X95610000Y-97505000D01*
X95610000Y-97505000D02*
X95610000Y-103155000D01*
X95610000Y-103155000D02*
X87290000Y-103155000D01*
X87875000Y-105855000D02*
X87875000Y-103505000D01*
D11*
X71754000Y-106147359D02*
X71754000Y-106454641D01*
X70994000Y-106147359D02*
X70994000Y-106454641D01*
X69722000Y-106147359D02*
X69722000Y-106454641D01*
X68962000Y-106147359D02*
X68962000Y-106454641D01*
X72770000Y-106143359D02*
X72770000Y-106450641D01*
X72010000Y-106143359D02*
X72010000Y-106450641D01*
X64750836Y-100309000D02*
X64535164Y-100309000D01*
X64750836Y-99589000D02*
X64535164Y-99589000D01*
X93844164Y-93366000D02*
X94059836Y-93366000D01*
X93844164Y-94086000D02*
X94059836Y-94086000D01*
X44829000Y-96520580D02*
X44829000Y-96239420D01*
X45849000Y-96520580D02*
X45849000Y-96239420D01*
X106820580Y-102618000D02*
X106539420Y-102618000D01*
X106820580Y-101598000D02*
X106539420Y-101598000D01*
X105429164Y-95144000D02*
X105644836Y-95144000D01*
X105429164Y-95864000D02*
X105644836Y-95864000D01*
X78648000Y-97414000D02*
X78648000Y-100114000D01*
X80948000Y-97414000D02*
X78648000Y-97414000D01*
X76580000Y-96038641D02*
X76580000Y-95731359D01*
X75820000Y-96038641D02*
X75820000Y-95731359D01*
X74774359Y-104901000D02*
X75081641Y-104901000D01*
X74774359Y-104141000D02*
X75081641Y-104141000D01*
X81809000Y-106833564D02*
X81809000Y-105379436D01*
X79989000Y-106833564D02*
X79989000Y-105379436D01*
X74774359Y-105917000D02*
X75081641Y-105917000D01*
X74774359Y-105157000D02*
X75081641Y-105157000D01*
X81403564Y-95277000D02*
X80949436Y-95277000D01*
X81403564Y-96747000D02*
X80949436Y-96747000D01*
X77449000Y-105379436D02*
X77449000Y-106833564D01*
X79269000Y-105379436D02*
X79269000Y-106833564D01*
X74774359Y-107060000D02*
X75081641Y-107060000D01*
X74774359Y-106300000D02*
X75081641Y-106300000D01*
D12*
X79880000Y-110871000D02*
G75*
G03*
X79880000Y-110871000I-50000J0D01*
G01*
D11*
X76560000Y-98278836D02*
X76560000Y-98063164D01*
X75840000Y-98278836D02*
X75840000Y-98063164D01*
X74951000Y-108322164D02*
X74951000Y-108537836D01*
X75671000Y-108322164D02*
X75671000Y-108537836D01*
X73046000Y-106191164D02*
X73046000Y-106406836D01*
X73766000Y-106191164D02*
X73766000Y-106406836D01*
X82552000Y-98705580D02*
X82552000Y-98424420D01*
X81532000Y-98705580D02*
X81532000Y-98424420D01*
X77980000Y-96266580D02*
X77980000Y-95985420D01*
X76960000Y-96266580D02*
X76960000Y-95985420D01*
X64035252Y-101833000D02*
X62612748Y-101833000D01*
X64035252Y-103653000D02*
X62612748Y-103653000D01*
X64778836Y-100605000D02*
X64563164Y-100605000D01*
X64778836Y-101325000D02*
X64563164Y-101325000D01*
X70718000Y-106378836D02*
X70718000Y-106163164D01*
X69998000Y-106378836D02*
X69998000Y-106163164D01*
X75417000Y-95710836D02*
X75417000Y-95495164D01*
X74697000Y-95710836D02*
X74697000Y-95495164D01*
X66937836Y-96795000D02*
X66722164Y-96795000D01*
X66937836Y-97515000D02*
X66722164Y-97515000D01*
X76191164Y-102341000D02*
X76406836Y-102341000D01*
X76191164Y-101621000D02*
X76406836Y-101621000D01*
X71607000Y-94242836D02*
X71607000Y-94027164D01*
X70887000Y-94242836D02*
X70887000Y-94027164D01*
X99693000Y-106285420D02*
X99693000Y-106566580D01*
X100713000Y-106285420D02*
X100713000Y-106566580D01*
X109847748Y-107034000D02*
X110370252Y-107034000D01*
X109847748Y-105564000D02*
X110370252Y-105564000D01*
D13*
X107802000Y-106452000D02*
X106402000Y-106452000D01*
D11*
X109137500Y-102030000D02*
X109587500Y-102030000D01*
X109137500Y-102030000D02*
X109137500Y-101580000D01*
X109687500Y-96430000D02*
X109687500Y-96880000D01*
X111537500Y-96430000D02*
X109687500Y-96430000D01*
X111537500Y-104230000D02*
X109687500Y-104230000D01*
X109687500Y-104230000D02*
X109687500Y-103780000D01*
X74560000Y-102715000D02*
X74560000Y-103440000D01*
X74560000Y-103440000D02*
X73835000Y-103440000D01*
X68340000Y-97945000D02*
X68340000Y-97220000D01*
X68340000Y-97220000D02*
X69065000Y-97220000D01*
X68340000Y-102715000D02*
X68340000Y-103440000D01*
X68340000Y-103440000D02*
X69065000Y-103440000D01*
X74560000Y-97945000D02*
X74560000Y-97220000D01*
D14*
X57644380Y-121800857D02*
X57168190Y-122134190D01*
X57644380Y-122372285D02*
X56644380Y-122372285D01*
X56644380Y-121991333D01*
X56692000Y-121896095D01*
X56739619Y-121848476D01*
X56834857Y-121800857D01*
X56977714Y-121800857D01*
X57072952Y-121848476D01*
X57120571Y-121896095D01*
X57168190Y-121991333D01*
X57168190Y-122372285D01*
X57644380Y-120848476D02*
X57644380Y-121419904D01*
X57644380Y-121134190D02*
X56644380Y-121134190D01*
X56787238Y-121229428D01*
X56882476Y-121324666D01*
X56930095Y-121419904D01*
X56644380Y-119943714D02*
X56644380Y-120419904D01*
X57120571Y-120467523D01*
X57072952Y-120419904D01*
X57025333Y-120324666D01*
X57025333Y-120086571D01*
X57072952Y-119991333D01*
X57120571Y-119943714D01*
X57215809Y-119896095D01*
X57453904Y-119896095D01*
X57549142Y-119943714D01*
X57596761Y-119991333D01*
X57644380Y-120086571D01*
X57644380Y-120324666D01*
X57596761Y-120419904D01*
X57549142Y-120467523D01*
X54004380Y-80144857D02*
X53528190Y-80478190D01*
X54004380Y-80716285D02*
X53004380Y-80716285D01*
X53004380Y-80335333D01*
X53052000Y-80240095D01*
X53099619Y-80192476D01*
X53194857Y-80144857D01*
X53337714Y-80144857D01*
X53432952Y-80192476D01*
X53480571Y-80240095D01*
X53528190Y-80335333D01*
X53528190Y-80716285D01*
X54004380Y-79192476D02*
X54004380Y-79763904D01*
X54004380Y-79478190D02*
X53004380Y-79478190D01*
X53147238Y-79573428D01*
X53242476Y-79668666D01*
X53290095Y-79763904D01*
X53337714Y-78335333D02*
X54004380Y-78335333D01*
X52956761Y-78573428D02*
X53671047Y-78811523D01*
X53671047Y-78192476D01*
X83054380Y-80144857D02*
X82578190Y-80478190D01*
X83054380Y-80716285D02*
X82054380Y-80716285D01*
X82054380Y-80335333D01*
X82102000Y-80240095D01*
X82149619Y-80192476D01*
X82244857Y-80144857D01*
X82387714Y-80144857D01*
X82482952Y-80192476D01*
X82530571Y-80240095D01*
X82578190Y-80335333D01*
X82578190Y-80716285D01*
X83054380Y-79192476D02*
X83054380Y-79763904D01*
X83054380Y-79478190D02*
X82054380Y-79478190D01*
X82197238Y-79573428D01*
X82292476Y-79668666D01*
X82340095Y-79763904D01*
X82054380Y-78859142D02*
X82054380Y-78240095D01*
X82435333Y-78573428D01*
X82435333Y-78430571D01*
X82482952Y-78335333D01*
X82530571Y-78287714D01*
X82625809Y-78240095D01*
X82863904Y-78240095D01*
X82959142Y-78287714D01*
X83006761Y-78335333D01*
X83054380Y-78430571D01*
X83054380Y-78716285D01*
X83006761Y-78811523D01*
X82959142Y-78859142D01*
X83002380Y-121800857D02*
X82526190Y-122134190D01*
X83002380Y-122372285D02*
X82002380Y-122372285D01*
X82002380Y-121991333D01*
X82050000Y-121896095D01*
X82097619Y-121848476D01*
X82192857Y-121800857D01*
X82335714Y-121800857D01*
X82430952Y-121848476D01*
X82478571Y-121896095D01*
X82526190Y-121991333D01*
X82526190Y-122372285D01*
X83002380Y-120848476D02*
X83002380Y-121419904D01*
X83002380Y-121134190D02*
X82002380Y-121134190D01*
X82145238Y-121229428D01*
X82240476Y-121324666D01*
X82288095Y-121419904D01*
X82097619Y-120467523D02*
X82050000Y-120419904D01*
X82002380Y-120324666D01*
X82002380Y-120086571D01*
X82050000Y-119991333D01*
X82097619Y-119943714D01*
X82192857Y-119896095D01*
X82288095Y-119896095D01*
X82430952Y-119943714D01*
X83002380Y-120515142D01*
X83002380Y-119896095D01*
X56102476Y-125420380D02*
X56102476Y-124420380D01*
X56483428Y-124420380D01*
X56578666Y-124468000D01*
X56626285Y-124515619D01*
X56673904Y-124610857D01*
X56673904Y-124753714D01*
X56626285Y-124848952D01*
X56578666Y-124896571D01*
X56483428Y-124944190D01*
X56102476Y-124944190D01*
X57007238Y-124420380D02*
X57245333Y-125420380D01*
X57435809Y-124706095D01*
X57626285Y-125420380D01*
X57864380Y-124420380D01*
X58816761Y-125420380D02*
X58483428Y-124944190D01*
X58245333Y-125420380D02*
X58245333Y-124420380D01*
X58626285Y-124420380D01*
X58721523Y-124468000D01*
X58769142Y-124515619D01*
X58816761Y-124610857D01*
X58816761Y-124753714D01*
X58769142Y-124848952D01*
X58721523Y-124896571D01*
X58626285Y-124944190D01*
X58245333Y-124944190D01*
X59673904Y-124753714D02*
X59673904Y-125420380D01*
X59435809Y-124372761D02*
X59197714Y-125087047D01*
X59816761Y-125087047D01*
X56102476Y-76398380D02*
X56102476Y-75398380D01*
X56483428Y-75398380D01*
X56578666Y-75446000D01*
X56626285Y-75493619D01*
X56673904Y-75588857D01*
X56673904Y-75731714D01*
X56626285Y-75826952D01*
X56578666Y-75874571D01*
X56483428Y-75922190D01*
X56102476Y-75922190D01*
X57007238Y-75398380D02*
X57245333Y-76398380D01*
X57435809Y-75684095D01*
X57626285Y-76398380D01*
X57864380Y-75398380D01*
X58816761Y-76398380D02*
X58483428Y-75922190D01*
X58245333Y-76398380D02*
X58245333Y-75398380D01*
X58626285Y-75398380D01*
X58721523Y-75446000D01*
X58769142Y-75493619D01*
X58816761Y-75588857D01*
X58816761Y-75731714D01*
X58769142Y-75826952D01*
X58721523Y-75874571D01*
X58626285Y-75922190D01*
X58245333Y-75922190D01*
X59150095Y-75398380D02*
X59769142Y-75398380D01*
X59435809Y-75779333D01*
X59578666Y-75779333D01*
X59673904Y-75826952D01*
X59721523Y-75874571D01*
X59769142Y-75969809D01*
X59769142Y-76207904D01*
X59721523Y-76303142D01*
X59673904Y-76350761D01*
X59578666Y-76398380D01*
X59292952Y-76398380D01*
X59197714Y-76350761D01*
X59150095Y-76303142D01*
X79978476Y-76421380D02*
X79978476Y-75421380D01*
X80359428Y-75421380D01*
X80454666Y-75469000D01*
X80502285Y-75516619D01*
X80549904Y-75611857D01*
X80549904Y-75754714D01*
X80502285Y-75849952D01*
X80454666Y-75897571D01*
X80359428Y-75945190D01*
X79978476Y-75945190D01*
X80883238Y-75421380D02*
X81121333Y-76421380D01*
X81311809Y-75707095D01*
X81502285Y-76421380D01*
X81740380Y-75421380D01*
X82692761Y-76421380D02*
X82359428Y-75945190D01*
X82121333Y-76421380D02*
X82121333Y-75421380D01*
X82502285Y-75421380D01*
X82597523Y-75469000D01*
X82645142Y-75516619D01*
X82692761Y-75611857D01*
X82692761Y-75754714D01*
X82645142Y-75849952D01*
X82597523Y-75897571D01*
X82502285Y-75945190D01*
X82121333Y-75945190D01*
X83073714Y-75516619D02*
X83121333Y-75469000D01*
X83216571Y-75421380D01*
X83454666Y-75421380D01*
X83549904Y-75469000D01*
X83597523Y-75516619D01*
X83645142Y-75611857D01*
X83645142Y-75707095D01*
X83597523Y-75849952D01*
X83026095Y-76421380D01*
X83645142Y-76421380D01*
X80232476Y-125420380D02*
X80232476Y-124420380D01*
X80613428Y-124420380D01*
X80708666Y-124468000D01*
X80756285Y-124515619D01*
X80803904Y-124610857D01*
X80803904Y-124753714D01*
X80756285Y-124848952D01*
X80708666Y-124896571D01*
X80613428Y-124944190D01*
X80232476Y-124944190D01*
X81137238Y-124420380D02*
X81375333Y-125420380D01*
X81565809Y-124706095D01*
X81756285Y-125420380D01*
X81994380Y-124420380D01*
X82946761Y-125420380D02*
X82613428Y-124944190D01*
X82375333Y-125420380D02*
X82375333Y-124420380D01*
X82756285Y-124420380D01*
X82851523Y-124468000D01*
X82899142Y-124515619D01*
X82946761Y-124610857D01*
X82946761Y-124753714D01*
X82899142Y-124848952D01*
X82851523Y-124896571D01*
X82756285Y-124944190D01*
X82375333Y-124944190D01*
X83899142Y-125420380D02*
X83327714Y-125420380D01*
X83613428Y-125420380D02*
X83613428Y-124420380D01*
X83518190Y-124563238D01*
X83422952Y-124658476D01*
X83327714Y-124706095D01*
D15*
X43556666Y-126664523D02*
X43556666Y-127571666D01*
X43496190Y-127753095D01*
X43375238Y-127874047D01*
X43193809Y-127934523D01*
X43072857Y-127934523D01*
X44766190Y-126664523D02*
X44161428Y-126664523D01*
X44100952Y-127269285D01*
X44161428Y-127208809D01*
X44282380Y-127148333D01*
X44584761Y-127148333D01*
X44705714Y-127208809D01*
X44766190Y-127269285D01*
X44826666Y-127390238D01*
X44826666Y-127692619D01*
X44766190Y-127813571D01*
X44705714Y-127874047D01*
X44584761Y-127934523D01*
X44282380Y-127934523D01*
X44161428Y-127874047D01*
X44100952Y-127813571D01*
X43556666Y-72604523D02*
X43556666Y-73511666D01*
X43496190Y-73693095D01*
X43375238Y-73814047D01*
X43193809Y-73874523D01*
X43072857Y-73874523D01*
X44705714Y-73027857D02*
X44705714Y-73874523D01*
X44403333Y-72544047D02*
X44100952Y-73451190D01*
X44887142Y-73451190D01*
X95296666Y-72604523D02*
X95296666Y-73511666D01*
X95236190Y-73693095D01*
X95115238Y-73814047D01*
X94933809Y-73874523D01*
X94812857Y-73874523D01*
X95780476Y-72604523D02*
X96566666Y-72604523D01*
X96143333Y-73088333D01*
X96324761Y-73088333D01*
X96445714Y-73148809D01*
X96506190Y-73209285D01*
X96566666Y-73330238D01*
X96566666Y-73632619D01*
X96506190Y-73753571D01*
X96445714Y-73814047D01*
X96324761Y-73874523D01*
X95961904Y-73874523D01*
X95840952Y-73814047D01*
X95780476Y-73753571D01*
X95296666Y-126664523D02*
X95296666Y-127571666D01*
X95236190Y-127753095D01*
X95115238Y-127874047D01*
X94933809Y-127934523D01*
X94812857Y-127934523D01*
X95840952Y-126785476D02*
X95901428Y-126725000D01*
X96022380Y-126664523D01*
X96324761Y-126664523D01*
X96445714Y-126725000D01*
X96506190Y-126785476D01*
X96566666Y-126906428D01*
X96566666Y-127027380D01*
X96506190Y-127208809D01*
X95780476Y-127934523D01*
X96566666Y-127934523D01*
D14*
X39108142Y-111609142D02*
X39060523Y-111656761D01*
X38917666Y-111704380D01*
X38822428Y-111704380D01*
X38679571Y-111656761D01*
X38584333Y-111561523D01*
X38536714Y-111466285D01*
X38489095Y-111275809D01*
X38489095Y-111132952D01*
X38536714Y-110942476D01*
X38584333Y-110847238D01*
X38679571Y-110752000D01*
X38822428Y-110704380D01*
X38917666Y-110704380D01*
X39060523Y-110752000D01*
X39108142Y-110799619D01*
X39441476Y-110704380D02*
X40060523Y-110704380D01*
X39727190Y-111085333D01*
X39870047Y-111085333D01*
X39965285Y-111132952D01*
X40012904Y-111180571D01*
X40060523Y-111275809D01*
X40060523Y-111513904D01*
X40012904Y-111609142D01*
X39965285Y-111656761D01*
X39870047Y-111704380D01*
X39584333Y-111704380D01*
X39489095Y-111656761D01*
X39441476Y-111609142D01*
X41012904Y-111704380D02*
X40441476Y-111704380D01*
X40727190Y-111704380D02*
X40727190Y-110704380D01*
X40631952Y-110847238D01*
X40536714Y-110942476D01*
X40441476Y-110990095D01*
X54348142Y-115292142D02*
X54300523Y-115339761D01*
X54157666Y-115387380D01*
X54062428Y-115387380D01*
X53919571Y-115339761D01*
X53824333Y-115244523D01*
X53776714Y-115149285D01*
X53729095Y-114958809D01*
X53729095Y-114815952D01*
X53776714Y-114625476D01*
X53824333Y-114530238D01*
X53919571Y-114435000D01*
X54062428Y-114387380D01*
X54157666Y-114387380D01*
X54300523Y-114435000D01*
X54348142Y-114482619D01*
X54681476Y-114387380D02*
X55300523Y-114387380D01*
X54967190Y-114768333D01*
X55110047Y-114768333D01*
X55205285Y-114815952D01*
X55252904Y-114863571D01*
X55300523Y-114958809D01*
X55300523Y-115196904D01*
X55252904Y-115292142D01*
X55205285Y-115339761D01*
X55110047Y-115387380D01*
X54824333Y-115387380D01*
X54729095Y-115339761D01*
X54681476Y-115292142D01*
X55919571Y-114387380D02*
X56014809Y-114387380D01*
X56110047Y-114435000D01*
X56157666Y-114482619D01*
X56205285Y-114577857D01*
X56252904Y-114768333D01*
X56252904Y-115006428D01*
X56205285Y-115196904D01*
X56157666Y-115292142D01*
X56110047Y-115339761D01*
X56014809Y-115387380D01*
X55919571Y-115387380D01*
X55824333Y-115339761D01*
X55776714Y-115292142D01*
X55729095Y-115196904D01*
X55681476Y-115006428D01*
X55681476Y-114768333D01*
X55729095Y-114577857D01*
X55776714Y-114482619D01*
X55824333Y-114435000D01*
X55919571Y-114387380D01*
X111371142Y-95480142D02*
X111323523Y-95527761D01*
X111180666Y-95575380D01*
X111085428Y-95575380D01*
X110942571Y-95527761D01*
X110847333Y-95432523D01*
X110799714Y-95337285D01*
X110752095Y-95146809D01*
X110752095Y-95003952D01*
X110799714Y-94813476D01*
X110847333Y-94718238D01*
X110942571Y-94623000D01*
X111085428Y-94575380D01*
X111180666Y-94575380D01*
X111323523Y-94623000D01*
X111371142Y-94670619D01*
X111752095Y-94670619D02*
X111799714Y-94623000D01*
X111894952Y-94575380D01*
X112133047Y-94575380D01*
X112228285Y-94623000D01*
X112275904Y-94670619D01*
X112323523Y-94765857D01*
X112323523Y-94861095D01*
X112275904Y-95003952D01*
X111704476Y-95575380D01*
X112323523Y-95575380D01*
X112799714Y-95575380D02*
X112990190Y-95575380D01*
X113085428Y-95527761D01*
X113133047Y-95480142D01*
X113228285Y-95337285D01*
X113275904Y-95146809D01*
X113275904Y-94765857D01*
X113228285Y-94670619D01*
X113180666Y-94623000D01*
X113085428Y-94575380D01*
X112894952Y-94575380D01*
X112799714Y-94623000D01*
X112752095Y-94670619D01*
X112704476Y-94765857D01*
X112704476Y-95003952D01*
X112752095Y-95099190D01*
X112799714Y-95146809D01*
X112894952Y-95194428D01*
X113085428Y-95194428D01*
X113180666Y-95146809D01*
X113228285Y-95099190D01*
X113275904Y-95003952D01*
X84193142Y-86082142D02*
X84145523Y-86129761D01*
X84002666Y-86177380D01*
X83907428Y-86177380D01*
X83764571Y-86129761D01*
X83669333Y-86034523D01*
X83621714Y-85939285D01*
X83574095Y-85748809D01*
X83574095Y-85605952D01*
X83621714Y-85415476D01*
X83669333Y-85320238D01*
X83764571Y-85225000D01*
X83907428Y-85177380D01*
X84002666Y-85177380D01*
X84145523Y-85225000D01*
X84193142Y-85272619D01*
X84574095Y-85272619D02*
X84621714Y-85225000D01*
X84716952Y-85177380D01*
X84955047Y-85177380D01*
X85050285Y-85225000D01*
X85097904Y-85272619D01*
X85145523Y-85367857D01*
X85145523Y-85463095D01*
X85097904Y-85605952D01*
X84526476Y-86177380D01*
X85145523Y-86177380D01*
X85716952Y-85605952D02*
X85621714Y-85558333D01*
X85574095Y-85510714D01*
X85526476Y-85415476D01*
X85526476Y-85367857D01*
X85574095Y-85272619D01*
X85621714Y-85225000D01*
X85716952Y-85177380D01*
X85907428Y-85177380D01*
X86002666Y-85225000D01*
X86050285Y-85272619D01*
X86097904Y-85367857D01*
X86097904Y-85415476D01*
X86050285Y-85510714D01*
X86002666Y-85558333D01*
X85907428Y-85605952D01*
X85716952Y-85605952D01*
X85621714Y-85653571D01*
X85574095Y-85701190D01*
X85526476Y-85796428D01*
X85526476Y-85986904D01*
X85574095Y-86082142D01*
X85621714Y-86129761D01*
X85716952Y-86177380D01*
X85907428Y-86177380D01*
X86002666Y-86129761D01*
X86050285Y-86082142D01*
X86097904Y-85986904D01*
X86097904Y-85796428D01*
X86050285Y-85701190D01*
X86002666Y-85653571D01*
X85907428Y-85605952D01*
D15*
X44663571Y-114453571D02*
X44603095Y-114514047D01*
X44421666Y-114574523D01*
X44300714Y-114574523D01*
X44119285Y-114514047D01*
X43998333Y-114393095D01*
X43937857Y-114272142D01*
X43877380Y-114030238D01*
X43877380Y-113848809D01*
X43937857Y-113606904D01*
X43998333Y-113485952D01*
X44119285Y-113365000D01*
X44300714Y-113304523D01*
X44421666Y-113304523D01*
X44603095Y-113365000D01*
X44663571Y-113425476D01*
X45147380Y-113425476D02*
X45207857Y-113365000D01*
X45328809Y-113304523D01*
X45631190Y-113304523D01*
X45752142Y-113365000D01*
X45812619Y-113425476D01*
X45873095Y-113546428D01*
X45873095Y-113667380D01*
X45812619Y-113848809D01*
X45086904Y-114574523D01*
X45873095Y-114574523D01*
X46296428Y-113304523D02*
X47143095Y-113304523D01*
X46598809Y-114574523D01*
X96719571Y-86813571D02*
X96659095Y-86874047D01*
X96477666Y-86934523D01*
X96356714Y-86934523D01*
X96175285Y-86874047D01*
X96054333Y-86753095D01*
X95993857Y-86632142D01*
X95933380Y-86390238D01*
X95933380Y-86208809D01*
X95993857Y-85966904D01*
X96054333Y-85845952D01*
X96175285Y-85725000D01*
X96356714Y-85664523D01*
X96477666Y-85664523D01*
X96659095Y-85725000D01*
X96719571Y-85785476D01*
X97203380Y-85785476D02*
X97263857Y-85725000D01*
X97384809Y-85664523D01*
X97687190Y-85664523D01*
X97808142Y-85725000D01*
X97868619Y-85785476D01*
X97929095Y-85906428D01*
X97929095Y-86027380D01*
X97868619Y-86208809D01*
X97142904Y-86934523D01*
X97929095Y-86934523D01*
X99017666Y-85664523D02*
X98775761Y-85664523D01*
X98654809Y-85725000D01*
X98594333Y-85785476D01*
X98473380Y-85966904D01*
X98412904Y-86208809D01*
X98412904Y-86692619D01*
X98473380Y-86813571D01*
X98533857Y-86874047D01*
X98654809Y-86934523D01*
X98896714Y-86934523D01*
X99017666Y-86874047D01*
X99078142Y-86813571D01*
X99138619Y-86692619D01*
X99138619Y-86390238D01*
X99078142Y-86269285D01*
X99017666Y-86208809D01*
X98896714Y-86148333D01*
X98654809Y-86148333D01*
X98533857Y-86208809D01*
X98473380Y-86269285D01*
X98412904Y-86390238D01*
D14*
X38981142Y-88241142D02*
X38933523Y-88288761D01*
X38790666Y-88336380D01*
X38695428Y-88336380D01*
X38552571Y-88288761D01*
X38457333Y-88193523D01*
X38409714Y-88098285D01*
X38362095Y-87907809D01*
X38362095Y-87764952D01*
X38409714Y-87574476D01*
X38457333Y-87479238D01*
X38552571Y-87384000D01*
X38695428Y-87336380D01*
X38790666Y-87336380D01*
X38933523Y-87384000D01*
X38981142Y-87431619D01*
X39362095Y-87431619D02*
X39409714Y-87384000D01*
X39504952Y-87336380D01*
X39743047Y-87336380D01*
X39838285Y-87384000D01*
X39885904Y-87431619D01*
X39933523Y-87526857D01*
X39933523Y-87622095D01*
X39885904Y-87764952D01*
X39314476Y-88336380D01*
X39933523Y-88336380D01*
X40838285Y-87336380D02*
X40362095Y-87336380D01*
X40314476Y-87812571D01*
X40362095Y-87764952D01*
X40457333Y-87717333D01*
X40695428Y-87717333D01*
X40790666Y-87764952D01*
X40838285Y-87812571D01*
X40885904Y-87907809D01*
X40885904Y-88145904D01*
X40838285Y-88241142D01*
X40790666Y-88288761D01*
X40695428Y-88336380D01*
X40457333Y-88336380D01*
X40362095Y-88288761D01*
X40314476Y-88241142D01*
X54348142Y-86209142D02*
X54300523Y-86256761D01*
X54157666Y-86304380D01*
X54062428Y-86304380D01*
X53919571Y-86256761D01*
X53824333Y-86161523D01*
X53776714Y-86066285D01*
X53729095Y-85875809D01*
X53729095Y-85732952D01*
X53776714Y-85542476D01*
X53824333Y-85447238D01*
X53919571Y-85352000D01*
X54062428Y-85304380D01*
X54157666Y-85304380D01*
X54300523Y-85352000D01*
X54348142Y-85399619D01*
X54729095Y-85399619D02*
X54776714Y-85352000D01*
X54871952Y-85304380D01*
X55110047Y-85304380D01*
X55205285Y-85352000D01*
X55252904Y-85399619D01*
X55300523Y-85494857D01*
X55300523Y-85590095D01*
X55252904Y-85732952D01*
X54681476Y-86304380D01*
X55300523Y-86304380D01*
X56157666Y-85637714D02*
X56157666Y-86304380D01*
X55919571Y-85256761D02*
X55681476Y-85971047D01*
X56300523Y-85971047D01*
D15*
X48205571Y-86813571D02*
X48145095Y-86874047D01*
X47963666Y-86934523D01*
X47842714Y-86934523D01*
X47661285Y-86874047D01*
X47540333Y-86753095D01*
X47479857Y-86632142D01*
X47419380Y-86390238D01*
X47419380Y-86208809D01*
X47479857Y-85966904D01*
X47540333Y-85845952D01*
X47661285Y-85725000D01*
X47842714Y-85664523D01*
X47963666Y-85664523D01*
X48145095Y-85725000D01*
X48205571Y-85785476D01*
X48689380Y-85785476D02*
X48749857Y-85725000D01*
X48870809Y-85664523D01*
X49173190Y-85664523D01*
X49294142Y-85725000D01*
X49354619Y-85785476D01*
X49415095Y-85906428D01*
X49415095Y-86027380D01*
X49354619Y-86208809D01*
X48628904Y-86934523D01*
X49415095Y-86934523D01*
X49838428Y-85664523D02*
X50624619Y-85664523D01*
X50201285Y-86148333D01*
X50382714Y-86148333D01*
X50503666Y-86208809D01*
X50564142Y-86269285D01*
X50624619Y-86390238D01*
X50624619Y-86692619D01*
X50564142Y-86813571D01*
X50503666Y-86874047D01*
X50382714Y-86934523D01*
X50019857Y-86934523D01*
X49898904Y-86874047D01*
X49838428Y-86813571D01*
X93403571Y-114453571D02*
X93343095Y-114514047D01*
X93161666Y-114574523D01*
X93040714Y-114574523D01*
X92859285Y-114514047D01*
X92738333Y-114393095D01*
X92677857Y-114272142D01*
X92617380Y-114030238D01*
X92617380Y-113848809D01*
X92677857Y-113606904D01*
X92738333Y-113485952D01*
X92859285Y-113365000D01*
X93040714Y-113304523D01*
X93161666Y-113304523D01*
X93343095Y-113365000D01*
X93403571Y-113425476D01*
X93887380Y-113425476D02*
X93947857Y-113365000D01*
X94068809Y-113304523D01*
X94371190Y-113304523D01*
X94492142Y-113365000D01*
X94552619Y-113425476D01*
X94613095Y-113546428D01*
X94613095Y-113667380D01*
X94552619Y-113848809D01*
X93826904Y-114574523D01*
X94613095Y-114574523D01*
X95822619Y-114574523D02*
X95096904Y-114574523D01*
X95459761Y-114574523D02*
X95459761Y-113304523D01*
X95338809Y-113485952D01*
X95217857Y-113606904D01*
X95096904Y-113667380D01*
D14*
X84574142Y-115292142D02*
X84526523Y-115339761D01*
X84383666Y-115387380D01*
X84288428Y-115387380D01*
X84145571Y-115339761D01*
X84050333Y-115244523D01*
X84002714Y-115149285D01*
X83955095Y-114958809D01*
X83955095Y-114815952D01*
X84002714Y-114625476D01*
X84050333Y-114530238D01*
X84145571Y-114435000D01*
X84288428Y-114387380D01*
X84383666Y-114387380D01*
X84526523Y-114435000D01*
X84574142Y-114482619D01*
X84955095Y-114482619D02*
X85002714Y-114435000D01*
X85097952Y-114387380D01*
X85336047Y-114387380D01*
X85431285Y-114435000D01*
X85478904Y-114482619D01*
X85526523Y-114577857D01*
X85526523Y-114673095D01*
X85478904Y-114815952D01*
X84907476Y-115387380D01*
X85526523Y-115387380D01*
X85907476Y-114482619D02*
X85955095Y-114435000D01*
X86050333Y-114387380D01*
X86288428Y-114387380D01*
X86383666Y-114435000D01*
X86431285Y-114482619D01*
X86478904Y-114577857D01*
X86478904Y-114673095D01*
X86431285Y-114815952D01*
X85859857Y-115387380D01*
X86478904Y-115387380D01*
X111117142Y-119737142D02*
X111069523Y-119784761D01*
X110926666Y-119832380D01*
X110831428Y-119832380D01*
X110688571Y-119784761D01*
X110593333Y-119689523D01*
X110545714Y-119594285D01*
X110498095Y-119403809D01*
X110498095Y-119260952D01*
X110545714Y-119070476D01*
X110593333Y-118975238D01*
X110688571Y-118880000D01*
X110831428Y-118832380D01*
X110926666Y-118832380D01*
X111069523Y-118880000D01*
X111117142Y-118927619D01*
X111498095Y-118927619D02*
X111545714Y-118880000D01*
X111640952Y-118832380D01*
X111879047Y-118832380D01*
X111974285Y-118880000D01*
X112021904Y-118927619D01*
X112069523Y-119022857D01*
X112069523Y-119118095D01*
X112021904Y-119260952D01*
X111450476Y-119832380D01*
X112069523Y-119832380D01*
X112688571Y-118832380D02*
X112783809Y-118832380D01*
X112879047Y-118880000D01*
X112926666Y-118927619D01*
X112974285Y-119022857D01*
X113021904Y-119213333D01*
X113021904Y-119451428D01*
X112974285Y-119641904D01*
X112926666Y-119737142D01*
X112879047Y-119784761D01*
X112783809Y-119832380D01*
X112688571Y-119832380D01*
X112593333Y-119784761D01*
X112545714Y-119737142D01*
X112498095Y-119641904D01*
X112450476Y-119451428D01*
X112450476Y-119213333D01*
X112498095Y-119022857D01*
X112545714Y-118927619D01*
X112593333Y-118880000D01*
X112688571Y-118832380D01*
D15*
X50210238Y-100904523D02*
X50210238Y-99634523D01*
X51540714Y-100783571D02*
X51480238Y-100844047D01*
X51298809Y-100904523D01*
X51177857Y-100904523D01*
X50996428Y-100844047D01*
X50875476Y-100723095D01*
X50815000Y-100602142D01*
X50754523Y-100360238D01*
X50754523Y-100178809D01*
X50815000Y-99936904D01*
X50875476Y-99815952D01*
X50996428Y-99695000D01*
X51177857Y-99634523D01*
X51298809Y-99634523D01*
X51480238Y-99695000D01*
X51540714Y-99755476D01*
X52024523Y-99755476D02*
X52085000Y-99695000D01*
X52205952Y-99634523D01*
X52508333Y-99634523D01*
X52629285Y-99695000D01*
X52689761Y-99755476D01*
X52750238Y-99876428D01*
X52750238Y-99997380D01*
X52689761Y-100178809D01*
X51964047Y-100904523D01*
X52750238Y-100904523D01*
X31330952Y-111909285D02*
X31512380Y-111969761D01*
X31572857Y-112030238D01*
X31633333Y-112151190D01*
X31633333Y-112332619D01*
X31572857Y-112453571D01*
X31512380Y-112514047D01*
X31391428Y-112574523D01*
X30907619Y-112574523D01*
X30907619Y-111304523D01*
X31330952Y-111304523D01*
X31451904Y-111365000D01*
X31512380Y-111425476D01*
X31572857Y-111546428D01*
X31572857Y-111667380D01*
X31512380Y-111788333D01*
X31451904Y-111848809D01*
X31330952Y-111909285D01*
X30907619Y-111909285D01*
X32903333Y-112574523D02*
X32480000Y-111969761D01*
X32177619Y-112574523D02*
X32177619Y-111304523D01*
X32661428Y-111304523D01*
X32782380Y-111365000D01*
X32842857Y-111425476D01*
X32903333Y-111546428D01*
X32903333Y-111727857D01*
X32842857Y-111848809D01*
X32782380Y-111909285D01*
X32661428Y-111969761D01*
X32177619Y-111969761D01*
X34052380Y-111304523D02*
X33447619Y-111304523D01*
X33387142Y-111909285D01*
X33447619Y-111848809D01*
X33568571Y-111788333D01*
X33870952Y-111788333D01*
X33991904Y-111848809D01*
X34052380Y-111909285D01*
X34112857Y-112030238D01*
X34112857Y-112332619D01*
X34052380Y-112453571D01*
X33991904Y-112514047D01*
X33870952Y-112574523D01*
X33568571Y-112574523D01*
X33447619Y-112514047D01*
X33387142Y-112453571D01*
X31330952Y-88569285D02*
X31512380Y-88629761D01*
X31572857Y-88690238D01*
X31633333Y-88811190D01*
X31633333Y-88992619D01*
X31572857Y-89113571D01*
X31512380Y-89174047D01*
X31391428Y-89234523D01*
X30907619Y-89234523D01*
X30907619Y-87964523D01*
X31330952Y-87964523D01*
X31451904Y-88025000D01*
X31512380Y-88085476D01*
X31572857Y-88206428D01*
X31572857Y-88327380D01*
X31512380Y-88448333D01*
X31451904Y-88508809D01*
X31330952Y-88569285D01*
X30907619Y-88569285D01*
X32903333Y-89234523D02*
X32480000Y-88629761D01*
X32177619Y-89234523D02*
X32177619Y-87964523D01*
X32661428Y-87964523D01*
X32782380Y-88025000D01*
X32842857Y-88085476D01*
X32903333Y-88206428D01*
X32903333Y-88387857D01*
X32842857Y-88508809D01*
X32782380Y-88569285D01*
X32661428Y-88629761D01*
X32177619Y-88629761D01*
X33991904Y-88387857D02*
X33991904Y-89234523D01*
X33689523Y-87904047D02*
X33387142Y-88811190D01*
X34173333Y-88811190D01*
X106070952Y-88569285D02*
X106252380Y-88629761D01*
X106312857Y-88690238D01*
X106373333Y-88811190D01*
X106373333Y-88992619D01*
X106312857Y-89113571D01*
X106252380Y-89174047D01*
X106131428Y-89234523D01*
X105647619Y-89234523D01*
X105647619Y-87964523D01*
X106070952Y-87964523D01*
X106191904Y-88025000D01*
X106252380Y-88085476D01*
X106312857Y-88206428D01*
X106312857Y-88327380D01*
X106252380Y-88448333D01*
X106191904Y-88508809D01*
X106070952Y-88569285D01*
X105647619Y-88569285D01*
X107643333Y-89234523D02*
X107220000Y-88629761D01*
X106917619Y-89234523D02*
X106917619Y-87964523D01*
X107401428Y-87964523D01*
X107522380Y-88025000D01*
X107582857Y-88085476D01*
X107643333Y-88206428D01*
X107643333Y-88387857D01*
X107582857Y-88508809D01*
X107522380Y-88569285D01*
X107401428Y-88629761D01*
X106917619Y-88629761D01*
X108066666Y-87964523D02*
X108852857Y-87964523D01*
X108429523Y-88448333D01*
X108610952Y-88448333D01*
X108731904Y-88508809D01*
X108792380Y-88569285D01*
X108852857Y-88690238D01*
X108852857Y-88992619D01*
X108792380Y-89113571D01*
X108731904Y-89174047D01*
X108610952Y-89234523D01*
X108248095Y-89234523D01*
X108127142Y-89174047D01*
X108066666Y-89113571D01*
X106070952Y-111909285D02*
X106252380Y-111969761D01*
X106312857Y-112030238D01*
X106373333Y-112151190D01*
X106373333Y-112332619D01*
X106312857Y-112453571D01*
X106252380Y-112514047D01*
X106131428Y-112574523D01*
X105647619Y-112574523D01*
X105647619Y-111304523D01*
X106070952Y-111304523D01*
X106191904Y-111365000D01*
X106252380Y-111425476D01*
X106312857Y-111546428D01*
X106312857Y-111667380D01*
X106252380Y-111788333D01*
X106191904Y-111848809D01*
X106070952Y-111909285D01*
X105647619Y-111909285D01*
X107643333Y-112574523D02*
X107220000Y-111969761D01*
X106917619Y-112574523D02*
X106917619Y-111304523D01*
X107401428Y-111304523D01*
X107522380Y-111365000D01*
X107582857Y-111425476D01*
X107643333Y-111546428D01*
X107643333Y-111727857D01*
X107582857Y-111848809D01*
X107522380Y-111909285D01*
X107401428Y-111969761D01*
X106917619Y-111969761D01*
X108127142Y-111425476D02*
X108187619Y-111365000D01*
X108308571Y-111304523D01*
X108610952Y-111304523D01*
X108731904Y-111365000D01*
X108792380Y-111425476D01*
X108852857Y-111546428D01*
X108852857Y-111667380D01*
X108792380Y-111848809D01*
X108066666Y-112574523D01*
X108852857Y-112574523D01*
D14*
X107910333Y-94305380D02*
X107577000Y-93829190D01*
X107338904Y-94305380D02*
X107338904Y-93305380D01*
X107719857Y-93305380D01*
X107815095Y-93353000D01*
X107862714Y-93400619D01*
X107910333Y-93495857D01*
X107910333Y-93638714D01*
X107862714Y-93733952D01*
X107815095Y-93781571D01*
X107719857Y-93829190D01*
X107338904Y-93829190D01*
X108481761Y-93733952D02*
X108386523Y-93686333D01*
X108338904Y-93638714D01*
X108291285Y-93543476D01*
X108291285Y-93495857D01*
X108338904Y-93400619D01*
X108386523Y-93353000D01*
X108481761Y-93305380D01*
X108672238Y-93305380D01*
X108767476Y-93353000D01*
X108815095Y-93400619D01*
X108862714Y-93495857D01*
X108862714Y-93543476D01*
X108815095Y-93638714D01*
X108767476Y-93686333D01*
X108672238Y-93733952D01*
X108481761Y-93733952D01*
X108386523Y-93781571D01*
X108338904Y-93829190D01*
X108291285Y-93924428D01*
X108291285Y-94114904D01*
X108338904Y-94210142D01*
X108386523Y-94257761D01*
X108481761Y-94305380D01*
X108672238Y-94305380D01*
X108767476Y-94257761D01*
X108815095Y-94210142D01*
X108862714Y-94114904D01*
X108862714Y-93924428D01*
X108815095Y-93829190D01*
X108767476Y-93781571D01*
X108672238Y-93733952D01*
D15*
X91359285Y-101479047D02*
X91419761Y-101297619D01*
X91480238Y-101237142D01*
X91601190Y-101176666D01*
X91782619Y-101176666D01*
X91903571Y-101237142D01*
X91964047Y-101297619D01*
X92024523Y-101418571D01*
X92024523Y-101902380D01*
X90754523Y-101902380D01*
X90754523Y-101479047D01*
X90815000Y-101358095D01*
X90875476Y-101297619D01*
X90996428Y-101237142D01*
X91117380Y-101237142D01*
X91238333Y-101297619D01*
X91298809Y-101358095D01*
X91359285Y-101479047D01*
X91359285Y-101902380D01*
X92024523Y-99906666D02*
X91419761Y-100330000D01*
X92024523Y-100632380D02*
X90754523Y-100632380D01*
X90754523Y-100148571D01*
X90815000Y-100027619D01*
X90875476Y-99967142D01*
X90996428Y-99906666D01*
X91177857Y-99906666D01*
X91298809Y-99967142D01*
X91359285Y-100027619D01*
X91419761Y-100148571D01*
X91419761Y-100632380D01*
X92024523Y-98697142D02*
X92024523Y-99422857D01*
X92024523Y-99060000D02*
X90754523Y-99060000D01*
X90935952Y-99180952D01*
X91056904Y-99301904D01*
X91117380Y-99422857D01*
D14*
X71826380Y-109354857D02*
X71350190Y-109688190D01*
X71826380Y-109926285D02*
X70826380Y-109926285D01*
X70826380Y-109545333D01*
X70874000Y-109450095D01*
X70921619Y-109402476D01*
X71016857Y-109354857D01*
X71159714Y-109354857D01*
X71254952Y-109402476D01*
X71302571Y-109450095D01*
X71350190Y-109545333D01*
X71350190Y-109926285D01*
X71826380Y-108402476D02*
X71826380Y-108973904D01*
X71826380Y-108688190D02*
X70826380Y-108688190D01*
X70969238Y-108783428D01*
X71064476Y-108878666D01*
X71112095Y-108973904D01*
X71826380Y-107450095D02*
X71826380Y-108021523D01*
X71826380Y-107735809D02*
X70826380Y-107735809D01*
X70969238Y-107831047D01*
X71064476Y-107926285D01*
X71112095Y-108021523D01*
X68905380Y-109354857D02*
X68429190Y-109688190D01*
X68905380Y-109926285D02*
X67905380Y-109926285D01*
X67905380Y-109545333D01*
X67953000Y-109450095D01*
X68000619Y-109402476D01*
X68095857Y-109354857D01*
X68238714Y-109354857D01*
X68333952Y-109402476D01*
X68381571Y-109450095D01*
X68429190Y-109545333D01*
X68429190Y-109926285D01*
X68905380Y-108402476D02*
X68905380Y-108973904D01*
X68905380Y-108688190D02*
X67905380Y-108688190D01*
X68048238Y-108783428D01*
X68143476Y-108878666D01*
X68191095Y-108973904D01*
X67905380Y-107783428D02*
X67905380Y-107688190D01*
X67953000Y-107592952D01*
X68000619Y-107545333D01*
X68095857Y-107497714D01*
X68286333Y-107450095D01*
X68524428Y-107450095D01*
X68714904Y-107497714D01*
X68810142Y-107545333D01*
X68857761Y-107592952D01*
X68905380Y-107688190D01*
X68905380Y-107783428D01*
X68857761Y-107878666D01*
X68810142Y-107926285D01*
X68714904Y-107973904D01*
X68524428Y-108021523D01*
X68286333Y-108021523D01*
X68095857Y-107973904D01*
X68000619Y-107926285D01*
X67953000Y-107878666D01*
X67905380Y-107783428D01*
X73096380Y-108624666D02*
X72620190Y-108958000D01*
X73096380Y-109196095D02*
X72096380Y-109196095D01*
X72096380Y-108815142D01*
X72144000Y-108719904D01*
X72191619Y-108672285D01*
X72286857Y-108624666D01*
X72429714Y-108624666D01*
X72524952Y-108672285D01*
X72572571Y-108719904D01*
X72620190Y-108815142D01*
X72620190Y-109196095D01*
X73096380Y-108148476D02*
X73096380Y-107958000D01*
X73048761Y-107862761D01*
X73001142Y-107815142D01*
X72858285Y-107719904D01*
X72667809Y-107672285D01*
X72286857Y-107672285D01*
X72191619Y-107719904D01*
X72144000Y-107767523D01*
X72096380Y-107862761D01*
X72096380Y-108053238D01*
X72144000Y-108148476D01*
X72191619Y-108196095D01*
X72286857Y-108243714D01*
X72524952Y-108243714D01*
X72620190Y-108196095D01*
X72667809Y-108148476D01*
X72715428Y-108053238D01*
X72715428Y-107862761D01*
X72667809Y-107767523D01*
X72620190Y-107719904D01*
X72524952Y-107672285D01*
X61714142Y-99925142D02*
X61666523Y-99972761D01*
X61523666Y-100020380D01*
X61428428Y-100020380D01*
X61285571Y-99972761D01*
X61190333Y-99877523D01*
X61142714Y-99782285D01*
X61095095Y-99591809D01*
X61095095Y-99448952D01*
X61142714Y-99258476D01*
X61190333Y-99163238D01*
X61285571Y-99068000D01*
X61428428Y-99020380D01*
X61523666Y-99020380D01*
X61666523Y-99068000D01*
X61714142Y-99115619D01*
X62666523Y-100020380D02*
X62095095Y-100020380D01*
X62380809Y-100020380D02*
X62380809Y-99020380D01*
X62285571Y-99163238D01*
X62190333Y-99258476D01*
X62095095Y-99306095D01*
X63142714Y-100020380D02*
X63333190Y-100020380D01*
X63428428Y-99972761D01*
X63476047Y-99925142D01*
X63571285Y-99782285D01*
X63618904Y-99591809D01*
X63618904Y-99210857D01*
X63571285Y-99115619D01*
X63523666Y-99068000D01*
X63428428Y-99020380D01*
X63237952Y-99020380D01*
X63142714Y-99068000D01*
X63095095Y-99115619D01*
X63047476Y-99210857D01*
X63047476Y-99448952D01*
X63095095Y-99544190D01*
X63142714Y-99591809D01*
X63237952Y-99639428D01*
X63428428Y-99639428D01*
X63523666Y-99591809D01*
X63571285Y-99544190D01*
X63618904Y-99448952D01*
X93309142Y-92923142D02*
X93261523Y-92970761D01*
X93118666Y-93018380D01*
X93023428Y-93018380D01*
X92880571Y-92970761D01*
X92785333Y-92875523D01*
X92737714Y-92780285D01*
X92690095Y-92589809D01*
X92690095Y-92446952D01*
X92737714Y-92256476D01*
X92785333Y-92161238D01*
X92880571Y-92066000D01*
X93023428Y-92018380D01*
X93118666Y-92018380D01*
X93261523Y-92066000D01*
X93309142Y-92113619D01*
X94261523Y-93018380D02*
X93690095Y-93018380D01*
X93975809Y-93018380D02*
X93975809Y-92018380D01*
X93880571Y-92161238D01*
X93785333Y-92256476D01*
X93690095Y-92304095D01*
X94832952Y-92446952D02*
X94737714Y-92399333D01*
X94690095Y-92351714D01*
X94642476Y-92256476D01*
X94642476Y-92208857D01*
X94690095Y-92113619D01*
X94737714Y-92066000D01*
X94832952Y-92018380D01*
X95023428Y-92018380D01*
X95118666Y-92066000D01*
X95166285Y-92113619D01*
X95213904Y-92208857D01*
X95213904Y-92256476D01*
X95166285Y-92351714D01*
X95118666Y-92399333D01*
X95023428Y-92446952D01*
X94832952Y-92446952D01*
X94737714Y-92494571D01*
X94690095Y-92542190D01*
X94642476Y-92637428D01*
X94642476Y-92827904D01*
X94690095Y-92923142D01*
X94737714Y-92970761D01*
X94832952Y-93018380D01*
X95023428Y-93018380D01*
X95118666Y-92970761D01*
X95166285Y-92923142D01*
X95213904Y-92827904D01*
X95213904Y-92637428D01*
X95166285Y-92542190D01*
X95118666Y-92494571D01*
X95023428Y-92446952D01*
X44266142Y-97022857D02*
X44313761Y-97070476D01*
X44361380Y-97213333D01*
X44361380Y-97308571D01*
X44313761Y-97451428D01*
X44218523Y-97546666D01*
X44123285Y-97594285D01*
X43932809Y-97641904D01*
X43789952Y-97641904D01*
X43599476Y-97594285D01*
X43504238Y-97546666D01*
X43409000Y-97451428D01*
X43361380Y-97308571D01*
X43361380Y-97213333D01*
X43409000Y-97070476D01*
X43456619Y-97022857D01*
X44361380Y-96070476D02*
X44361380Y-96641904D01*
X44361380Y-96356190D02*
X43361380Y-96356190D01*
X43504238Y-96451428D01*
X43599476Y-96546666D01*
X43647095Y-96641904D01*
X43361380Y-95737142D02*
X43361380Y-95070476D01*
X44361380Y-95499047D01*
X102989142Y-102465142D02*
X102941523Y-102512761D01*
X102798666Y-102560380D01*
X102703428Y-102560380D01*
X102560571Y-102512761D01*
X102465333Y-102417523D01*
X102417714Y-102322285D01*
X102370095Y-102131809D01*
X102370095Y-101988952D01*
X102417714Y-101798476D01*
X102465333Y-101703238D01*
X102560571Y-101608000D01*
X102703428Y-101560380D01*
X102798666Y-101560380D01*
X102941523Y-101608000D01*
X102989142Y-101655619D01*
X103941523Y-102560380D02*
X103370095Y-102560380D01*
X103655809Y-102560380D02*
X103655809Y-101560380D01*
X103560571Y-101703238D01*
X103465333Y-101798476D01*
X103370095Y-101846095D01*
X104798666Y-101560380D02*
X104608190Y-101560380D01*
X104512952Y-101608000D01*
X104465333Y-101655619D01*
X104370095Y-101798476D01*
X104322476Y-101988952D01*
X104322476Y-102369904D01*
X104370095Y-102465142D01*
X104417714Y-102512761D01*
X104512952Y-102560380D01*
X104703428Y-102560380D01*
X104798666Y-102512761D01*
X104846285Y-102465142D01*
X104893904Y-102369904D01*
X104893904Y-102131809D01*
X104846285Y-102036571D01*
X104798666Y-101988952D01*
X104703428Y-101941333D01*
X104512952Y-101941333D01*
X104417714Y-101988952D01*
X104370095Y-102036571D01*
X104322476Y-102131809D01*
X102354142Y-95861142D02*
X102306523Y-95908761D01*
X102163666Y-95956380D01*
X102068428Y-95956380D01*
X101925571Y-95908761D01*
X101830333Y-95813523D01*
X101782714Y-95718285D01*
X101735095Y-95527809D01*
X101735095Y-95384952D01*
X101782714Y-95194476D01*
X101830333Y-95099238D01*
X101925571Y-95004000D01*
X102068428Y-94956380D01*
X102163666Y-94956380D01*
X102306523Y-95004000D01*
X102354142Y-95051619D01*
X103306523Y-95956380D02*
X102735095Y-95956380D01*
X103020809Y-95956380D02*
X103020809Y-94956380D01*
X102925571Y-95099238D01*
X102830333Y-95194476D01*
X102735095Y-95242095D01*
X104211285Y-94956380D02*
X103735095Y-94956380D01*
X103687476Y-95432571D01*
X103735095Y-95384952D01*
X103830333Y-95337333D01*
X104068428Y-95337333D01*
X104163666Y-95384952D01*
X104211285Y-95432571D01*
X104258904Y-95527809D01*
X104258904Y-95765904D01*
X104211285Y-95861142D01*
X104163666Y-95908761D01*
X104068428Y-95956380D01*
X103830333Y-95956380D01*
X103735095Y-95908761D01*
X103687476Y-95861142D01*
X79914809Y-100814190D02*
X79914809Y-101290380D01*
X79581476Y-100290380D02*
X79914809Y-100814190D01*
X80248142Y-100290380D01*
X81105285Y-101290380D02*
X80533857Y-101290380D01*
X80819571Y-101290380D02*
X80819571Y-100290380D01*
X80724333Y-100433238D01*
X80629095Y-100528476D01*
X80533857Y-100576095D01*
X76906380Y-94021666D02*
X76430190Y-94355000D01*
X76906380Y-94593095D02*
X75906380Y-94593095D01*
X75906380Y-94212142D01*
X75954000Y-94116904D01*
X76001619Y-94069285D01*
X76096857Y-94021666D01*
X76239714Y-94021666D01*
X76334952Y-94069285D01*
X76382571Y-94116904D01*
X76430190Y-94212142D01*
X76430190Y-94593095D01*
X75906380Y-93688333D02*
X75906380Y-93021666D01*
X76906380Y-93450238D01*
X72985333Y-105100380D02*
X72652000Y-104624190D01*
X72413904Y-105100380D02*
X72413904Y-104100380D01*
X72794857Y-104100380D01*
X72890095Y-104148000D01*
X72937714Y-104195619D01*
X72985333Y-104290857D01*
X72985333Y-104433714D01*
X72937714Y-104528952D01*
X72890095Y-104576571D01*
X72794857Y-104624190D01*
X72413904Y-104624190D01*
X73842476Y-104100380D02*
X73652000Y-104100380D01*
X73556761Y-104148000D01*
X73509142Y-104195619D01*
X73413904Y-104338476D01*
X73366285Y-104528952D01*
X73366285Y-104909904D01*
X73413904Y-105005142D01*
X73461523Y-105052761D01*
X73556761Y-105100380D01*
X73747238Y-105100380D01*
X73842476Y-105052761D01*
X73890095Y-105005142D01*
X73937714Y-104909904D01*
X73937714Y-104671809D01*
X73890095Y-104576571D01*
X73842476Y-104528952D01*
X73747238Y-104481333D01*
X73556761Y-104481333D01*
X73461523Y-104528952D01*
X73413904Y-104576571D01*
X73366285Y-104671809D01*
X80732333Y-109545380D02*
X80399000Y-109069190D01*
X80160904Y-109545380D02*
X80160904Y-108545380D01*
X80541857Y-108545380D01*
X80637095Y-108593000D01*
X80684714Y-108640619D01*
X80732333Y-108735857D01*
X80732333Y-108878714D01*
X80684714Y-108973952D01*
X80637095Y-109021571D01*
X80541857Y-109069190D01*
X80160904Y-109069190D01*
X81637095Y-108545380D02*
X81160904Y-108545380D01*
X81113285Y-109021571D01*
X81160904Y-108973952D01*
X81256142Y-108926333D01*
X81494238Y-108926333D01*
X81589476Y-108973952D01*
X81637095Y-109021571D01*
X81684714Y-109116809D01*
X81684714Y-109354904D01*
X81637095Y-109450142D01*
X81589476Y-109497761D01*
X81494238Y-109545380D01*
X81256142Y-109545380D01*
X81160904Y-109497761D01*
X81113285Y-109450142D01*
X77033380Y-105703666D02*
X76557190Y-106037000D01*
X77033380Y-106275095D02*
X76033380Y-106275095D01*
X76033380Y-105894142D01*
X76081000Y-105798904D01*
X76128619Y-105751285D01*
X76223857Y-105703666D01*
X76366714Y-105703666D01*
X76461952Y-105751285D01*
X76509571Y-105798904D01*
X76557190Y-105894142D01*
X76557190Y-106275095D01*
X76366714Y-104846523D02*
X77033380Y-104846523D01*
X75985761Y-105084619D02*
X76700047Y-105322714D01*
X76700047Y-104703666D01*
X80605333Y-94940380D02*
X80272000Y-94464190D01*
X80033904Y-94940380D02*
X80033904Y-93940380D01*
X80414857Y-93940380D01*
X80510095Y-93988000D01*
X80557714Y-94035619D01*
X80605333Y-94130857D01*
X80605333Y-94273714D01*
X80557714Y-94368952D01*
X80510095Y-94416571D01*
X80414857Y-94464190D01*
X80033904Y-94464190D01*
X80938666Y-93940380D02*
X81557714Y-93940380D01*
X81224380Y-94321333D01*
X81367238Y-94321333D01*
X81462476Y-94368952D01*
X81510095Y-94416571D01*
X81557714Y-94511809D01*
X81557714Y-94749904D01*
X81510095Y-94845142D01*
X81462476Y-94892761D01*
X81367238Y-94940380D01*
X81081523Y-94940380D01*
X80986285Y-94892761D01*
X80938666Y-94845142D01*
X78192333Y-109545380D02*
X77859000Y-109069190D01*
X77620904Y-109545380D02*
X77620904Y-108545380D01*
X78001857Y-108545380D01*
X78097095Y-108593000D01*
X78144714Y-108640619D01*
X78192333Y-108735857D01*
X78192333Y-108878714D01*
X78144714Y-108973952D01*
X78097095Y-109021571D01*
X78001857Y-109069190D01*
X77620904Y-109069190D01*
X78573285Y-108640619D02*
X78620904Y-108593000D01*
X78716142Y-108545380D01*
X78954238Y-108545380D01*
X79049476Y-108593000D01*
X79097095Y-108640619D01*
X79144714Y-108735857D01*
X79144714Y-108831095D01*
X79097095Y-108973952D01*
X78525666Y-109545380D01*
X79144714Y-109545380D01*
X72854333Y-107005380D02*
X72521000Y-106529190D01*
X72282904Y-107005380D02*
X72282904Y-106005380D01*
X72663857Y-106005380D01*
X72759095Y-106053000D01*
X72806714Y-106100619D01*
X72854333Y-106195857D01*
X72854333Y-106338714D01*
X72806714Y-106433952D01*
X72759095Y-106481571D01*
X72663857Y-106529190D01*
X72282904Y-106529190D01*
X73806714Y-107005380D02*
X73235285Y-107005380D01*
X73521000Y-107005380D02*
X73521000Y-106005380D01*
X73425761Y-106148238D01*
X73330523Y-106243476D01*
X73235285Y-106291095D01*
X78001904Y-112493380D02*
X78001904Y-111493380D01*
X78240000Y-111493380D01*
X78382857Y-111541000D01*
X78478095Y-111636238D01*
X78525714Y-111731476D01*
X78573333Y-111921952D01*
X78573333Y-112064809D01*
X78525714Y-112255285D01*
X78478095Y-112350523D01*
X78382857Y-112445761D01*
X78240000Y-112493380D01*
X78001904Y-112493380D01*
X79525714Y-112493380D02*
X78954285Y-112493380D01*
X79240000Y-112493380D02*
X79240000Y-111493380D01*
X79144761Y-111636238D01*
X79049523Y-111731476D01*
X78954285Y-111779095D01*
X75811142Y-100179142D02*
X75763523Y-100226761D01*
X75620666Y-100274380D01*
X75525428Y-100274380D01*
X75382571Y-100226761D01*
X75287333Y-100131523D01*
X75239714Y-100036285D01*
X75192095Y-99845809D01*
X75192095Y-99702952D01*
X75239714Y-99512476D01*
X75287333Y-99417238D01*
X75382571Y-99322000D01*
X75525428Y-99274380D01*
X75620666Y-99274380D01*
X75763523Y-99322000D01*
X75811142Y-99369619D01*
X76763523Y-100274380D02*
X76192095Y-100274380D01*
X76477809Y-100274380D02*
X76477809Y-99274380D01*
X76382571Y-99417238D01*
X76287333Y-99512476D01*
X76192095Y-99560095D01*
X77620666Y-99607714D02*
X77620666Y-100274380D01*
X77382571Y-99226761D02*
X77144476Y-99941047D01*
X77763523Y-99941047D01*
X75668142Y-111485857D02*
X75715761Y-111533476D01*
X75763380Y-111676333D01*
X75763380Y-111771571D01*
X75715761Y-111914428D01*
X75620523Y-112009666D01*
X75525285Y-112057285D01*
X75334809Y-112104904D01*
X75191952Y-112104904D01*
X75001476Y-112057285D01*
X74906238Y-112009666D01*
X74811000Y-111914428D01*
X74763380Y-111771571D01*
X74763380Y-111676333D01*
X74811000Y-111533476D01*
X74858619Y-111485857D01*
X75763380Y-110533476D02*
X75763380Y-111104904D01*
X75763380Y-110819190D02*
X74763380Y-110819190D01*
X74906238Y-110914428D01*
X75001476Y-111009666D01*
X75049095Y-111104904D01*
X74763380Y-110200142D02*
X74763380Y-109581095D01*
X75144333Y-109914428D01*
X75144333Y-109771571D01*
X75191952Y-109676333D01*
X75239571Y-109628714D01*
X75334809Y-109581095D01*
X75572904Y-109581095D01*
X75668142Y-109628714D01*
X75715761Y-109676333D01*
X75763380Y-109771571D01*
X75763380Y-110057285D01*
X75715761Y-110152523D01*
X75668142Y-110200142D01*
X74271142Y-109481857D02*
X74318761Y-109529476D01*
X74366380Y-109672333D01*
X74366380Y-109767571D01*
X74318761Y-109910428D01*
X74223523Y-110005666D01*
X74128285Y-110053285D01*
X73937809Y-110100904D01*
X73794952Y-110100904D01*
X73604476Y-110053285D01*
X73509238Y-110005666D01*
X73414000Y-109910428D01*
X73366380Y-109767571D01*
X73366380Y-109672333D01*
X73414000Y-109529476D01*
X73461619Y-109481857D01*
X74366380Y-108529476D02*
X74366380Y-109100904D01*
X74366380Y-108815190D02*
X73366380Y-108815190D01*
X73509238Y-108910428D01*
X73604476Y-109005666D01*
X73652095Y-109100904D01*
X73461619Y-108148523D02*
X73414000Y-108100904D01*
X73366380Y-108005666D01*
X73366380Y-107767571D01*
X73414000Y-107672333D01*
X73461619Y-107624714D01*
X73556857Y-107577095D01*
X73652095Y-107577095D01*
X73794952Y-107624714D01*
X74366380Y-108196142D01*
X74366380Y-107577095D01*
X83796142Y-99194857D02*
X83843761Y-99242476D01*
X83891380Y-99385333D01*
X83891380Y-99480571D01*
X83843761Y-99623428D01*
X83748523Y-99718666D01*
X83653285Y-99766285D01*
X83462809Y-99813904D01*
X83319952Y-99813904D01*
X83129476Y-99766285D01*
X83034238Y-99718666D01*
X82939000Y-99623428D01*
X82891380Y-99480571D01*
X82891380Y-99385333D01*
X82939000Y-99242476D01*
X82986619Y-99194857D01*
X83891380Y-98242476D02*
X83891380Y-98813904D01*
X83891380Y-98528190D02*
X82891380Y-98528190D01*
X83034238Y-98623428D01*
X83129476Y-98718666D01*
X83177095Y-98813904D01*
X83891380Y-97290095D02*
X83891380Y-97861523D01*
X83891380Y-97575809D02*
X82891380Y-97575809D01*
X83034238Y-97671047D01*
X83129476Y-97766285D01*
X83177095Y-97861523D01*
X77827142Y-93961857D02*
X77874761Y-94009476D01*
X77922380Y-94152333D01*
X77922380Y-94247571D01*
X77874761Y-94390428D01*
X77779523Y-94485666D01*
X77684285Y-94533285D01*
X77493809Y-94580904D01*
X77350952Y-94580904D01*
X77160476Y-94533285D01*
X77065238Y-94485666D01*
X76970000Y-94390428D01*
X76922380Y-94247571D01*
X76922380Y-94152333D01*
X76970000Y-94009476D01*
X77017619Y-93961857D01*
X77922380Y-93009476D02*
X77922380Y-93580904D01*
X77922380Y-93295190D02*
X76922380Y-93295190D01*
X77065238Y-93390428D01*
X77160476Y-93485666D01*
X77208095Y-93580904D01*
X76922380Y-92390428D02*
X76922380Y-92295190D01*
X76970000Y-92199952D01*
X77017619Y-92152333D01*
X77112857Y-92104714D01*
X77303333Y-92057095D01*
X77541428Y-92057095D01*
X77731904Y-92104714D01*
X77827142Y-92152333D01*
X77874761Y-92199952D01*
X77922380Y-92295190D01*
X77922380Y-92390428D01*
X77874761Y-92485666D01*
X77827142Y-92533285D01*
X77731904Y-92580904D01*
X77541428Y-92628523D01*
X77303333Y-92628523D01*
X77112857Y-92580904D01*
X77017619Y-92533285D01*
X76970000Y-92485666D01*
X76922380Y-92390428D01*
X63157333Y-104950142D02*
X63109714Y-104997761D01*
X62966857Y-105045380D01*
X62871619Y-105045380D01*
X62728761Y-104997761D01*
X62633523Y-104902523D01*
X62585904Y-104807285D01*
X62538285Y-104616809D01*
X62538285Y-104473952D01*
X62585904Y-104283476D01*
X62633523Y-104188238D01*
X62728761Y-104093000D01*
X62871619Y-104045380D01*
X62966857Y-104045380D01*
X63109714Y-104093000D01*
X63157333Y-104140619D01*
X63633523Y-105045380D02*
X63824000Y-105045380D01*
X63919238Y-104997761D01*
X63966857Y-104950142D01*
X64062095Y-104807285D01*
X64109714Y-104616809D01*
X64109714Y-104235857D01*
X64062095Y-104140619D01*
X64014476Y-104093000D01*
X63919238Y-104045380D01*
X63728761Y-104045380D01*
X63633523Y-104093000D01*
X63585904Y-104140619D01*
X63538285Y-104235857D01*
X63538285Y-104473952D01*
X63585904Y-104569190D01*
X63633523Y-104616809D01*
X63728761Y-104664428D01*
X63919238Y-104664428D01*
X64014476Y-104616809D01*
X64062095Y-104569190D01*
X64109714Y-104473952D01*
X62444333Y-101322142D02*
X62396714Y-101369761D01*
X62253857Y-101417380D01*
X62158619Y-101417380D01*
X62015761Y-101369761D01*
X61920523Y-101274523D01*
X61872904Y-101179285D01*
X61825285Y-100988809D01*
X61825285Y-100845952D01*
X61872904Y-100655476D01*
X61920523Y-100560238D01*
X62015761Y-100465000D01*
X62158619Y-100417380D01*
X62253857Y-100417380D01*
X62396714Y-100465000D01*
X62444333Y-100512619D01*
X63015761Y-100845952D02*
X62920523Y-100798333D01*
X62872904Y-100750714D01*
X62825285Y-100655476D01*
X62825285Y-100607857D01*
X62872904Y-100512619D01*
X62920523Y-100465000D01*
X63015761Y-100417380D01*
X63206238Y-100417380D01*
X63301476Y-100465000D01*
X63349095Y-100512619D01*
X63396714Y-100607857D01*
X63396714Y-100655476D01*
X63349095Y-100750714D01*
X63301476Y-100798333D01*
X63206238Y-100845952D01*
X63015761Y-100845952D01*
X62920523Y-100893571D01*
X62872904Y-100941190D01*
X62825285Y-101036428D01*
X62825285Y-101226904D01*
X62872904Y-101322142D01*
X62920523Y-101369761D01*
X63015761Y-101417380D01*
X63206238Y-101417380D01*
X63301476Y-101369761D01*
X63349095Y-101322142D01*
X63396714Y-101226904D01*
X63396714Y-101036428D01*
X63349095Y-100941190D01*
X63301476Y-100893571D01*
X63206238Y-100845952D01*
X70207142Y-108751666D02*
X70254761Y-108799285D01*
X70302380Y-108942142D01*
X70302380Y-109037380D01*
X70254761Y-109180238D01*
X70159523Y-109275476D01*
X70064285Y-109323095D01*
X69873809Y-109370714D01*
X69730952Y-109370714D01*
X69540476Y-109323095D01*
X69445238Y-109275476D01*
X69350000Y-109180238D01*
X69302380Y-109037380D01*
X69302380Y-108942142D01*
X69350000Y-108799285D01*
X69397619Y-108751666D01*
X69302380Y-108418333D02*
X69302380Y-107751666D01*
X70302380Y-108180238D01*
X75414142Y-93737666D02*
X75461761Y-93785285D01*
X75509380Y-93928142D01*
X75509380Y-94023380D01*
X75461761Y-94166238D01*
X75366523Y-94261476D01*
X75271285Y-94309095D01*
X75080809Y-94356714D01*
X74937952Y-94356714D01*
X74747476Y-94309095D01*
X74652238Y-94261476D01*
X74557000Y-94166238D01*
X74509380Y-94023380D01*
X74509380Y-93928142D01*
X74557000Y-93785285D01*
X74604619Y-93737666D01*
X74509380Y-92880523D02*
X74509380Y-93071000D01*
X74557000Y-93166238D01*
X74604619Y-93213857D01*
X74747476Y-93309095D01*
X74937952Y-93356714D01*
X75318904Y-93356714D01*
X75414142Y-93309095D01*
X75461761Y-93261476D01*
X75509380Y-93166238D01*
X75509380Y-92975761D01*
X75461761Y-92880523D01*
X75414142Y-92832904D01*
X75318904Y-92785285D01*
X75080809Y-92785285D01*
X74985571Y-92832904D01*
X74937952Y-92880523D01*
X74890333Y-92975761D01*
X74890333Y-93166238D01*
X74937952Y-93261476D01*
X74985571Y-93309095D01*
X75080809Y-93356714D01*
X64603333Y-97512142D02*
X64555714Y-97559761D01*
X64412857Y-97607380D01*
X64317619Y-97607380D01*
X64174761Y-97559761D01*
X64079523Y-97464523D01*
X64031904Y-97369285D01*
X63984285Y-97178809D01*
X63984285Y-97035952D01*
X64031904Y-96845476D01*
X64079523Y-96750238D01*
X64174761Y-96655000D01*
X64317619Y-96607380D01*
X64412857Y-96607380D01*
X64555714Y-96655000D01*
X64603333Y-96702619D01*
X65508095Y-96607380D02*
X65031904Y-96607380D01*
X64984285Y-97083571D01*
X65031904Y-97035952D01*
X65127142Y-96988333D01*
X65365238Y-96988333D01*
X65460476Y-97035952D01*
X65508095Y-97083571D01*
X65555714Y-97178809D01*
X65555714Y-97416904D01*
X65508095Y-97512142D01*
X65460476Y-97559761D01*
X65365238Y-97607380D01*
X65127142Y-97607380D01*
X65031904Y-97559761D01*
X64984285Y-97512142D01*
X78065333Y-102211142D02*
X78017714Y-102258761D01*
X77874857Y-102306380D01*
X77779619Y-102306380D01*
X77636761Y-102258761D01*
X77541523Y-102163523D01*
X77493904Y-102068285D01*
X77446285Y-101877809D01*
X77446285Y-101734952D01*
X77493904Y-101544476D01*
X77541523Y-101449238D01*
X77636761Y-101354000D01*
X77779619Y-101306380D01*
X77874857Y-101306380D01*
X78017714Y-101354000D01*
X78065333Y-101401619D01*
X78922476Y-101639714D02*
X78922476Y-102306380D01*
X78684380Y-101258761D02*
X78446285Y-101973047D01*
X79065333Y-101973047D01*
X71604142Y-92297666D02*
X71651761Y-92345285D01*
X71699380Y-92488142D01*
X71699380Y-92583380D01*
X71651761Y-92726238D01*
X71556523Y-92821476D01*
X71461285Y-92869095D01*
X71270809Y-92916714D01*
X71127952Y-92916714D01*
X70937476Y-92869095D01*
X70842238Y-92821476D01*
X70747000Y-92726238D01*
X70699380Y-92583380D01*
X70699380Y-92488142D01*
X70747000Y-92345285D01*
X70794619Y-92297666D01*
X70699380Y-91964333D02*
X70699380Y-91345285D01*
X71080333Y-91678619D01*
X71080333Y-91535761D01*
X71127952Y-91440523D01*
X71175571Y-91392904D01*
X71270809Y-91345285D01*
X71508904Y-91345285D01*
X71604142Y-91392904D01*
X71651761Y-91440523D01*
X71699380Y-91535761D01*
X71699380Y-91821476D01*
X71651761Y-91916714D01*
X71604142Y-91964333D01*
X99909333Y-108942142D02*
X99861714Y-108989761D01*
X99718857Y-109037380D01*
X99623619Y-109037380D01*
X99480761Y-108989761D01*
X99385523Y-108894523D01*
X99337904Y-108799285D01*
X99290285Y-108608809D01*
X99290285Y-108465952D01*
X99337904Y-108275476D01*
X99385523Y-108180238D01*
X99480761Y-108085000D01*
X99623619Y-108037380D01*
X99718857Y-108037380D01*
X99861714Y-108085000D01*
X99909333Y-108132619D01*
X100290285Y-108132619D02*
X100337904Y-108085000D01*
X100433142Y-108037380D01*
X100671238Y-108037380D01*
X100766476Y-108085000D01*
X100814095Y-108132619D01*
X100861714Y-108227857D01*
X100861714Y-108323095D01*
X100814095Y-108465952D01*
X100242666Y-109037380D01*
X100861714Y-109037380D01*
X112609333Y-106783142D02*
X112561714Y-106830761D01*
X112418857Y-106878380D01*
X112323619Y-106878380D01*
X112180761Y-106830761D01*
X112085523Y-106735523D01*
X112037904Y-106640285D01*
X111990285Y-106449809D01*
X111990285Y-106306952D01*
X112037904Y-106116476D01*
X112085523Y-106021238D01*
X112180761Y-105926000D01*
X112323619Y-105878380D01*
X112418857Y-105878380D01*
X112561714Y-105926000D01*
X112609333Y-105973619D01*
X113561714Y-106878380D02*
X112990285Y-106878380D01*
X113276000Y-106878380D02*
X113276000Y-105878380D01*
X113180761Y-106021238D01*
X113085523Y-106116476D01*
X112990285Y-106164095D01*
D15*
X103662238Y-105476523D02*
X103662238Y-104206523D01*
X104992714Y-105355571D02*
X104932238Y-105416047D01*
X104750809Y-105476523D01*
X104629857Y-105476523D01*
X104448428Y-105416047D01*
X104327476Y-105295095D01*
X104267000Y-105174142D01*
X104206523Y-104932238D01*
X104206523Y-104750809D01*
X104267000Y-104508904D01*
X104327476Y-104387952D01*
X104448428Y-104267000D01*
X104629857Y-104206523D01*
X104750809Y-104206523D01*
X104932238Y-104267000D01*
X104992714Y-104327476D01*
X106202238Y-105476523D02*
X105476523Y-105476523D01*
X105839380Y-105476523D02*
X105839380Y-104206523D01*
X105718428Y-104387952D01*
X105597476Y-104508904D01*
X105476523Y-104569380D01*
D14*
X107789880Y-100663333D02*
X108504166Y-100663333D01*
X108647023Y-100710952D01*
X108742261Y-100806190D01*
X108789880Y-100949047D01*
X108789880Y-101044285D01*
X108789880Y-99663333D02*
X108789880Y-100234761D01*
X108789880Y-99949047D02*
X107789880Y-99949047D01*
X107932738Y-100044285D01*
X108027976Y-100139523D01*
X108075595Y-100234761D01*
X75311095Y-103338380D02*
X75311095Y-104147904D01*
X75358714Y-104243142D01*
X75406333Y-104290761D01*
X75501571Y-104338380D01*
X75692047Y-104338380D01*
X75787285Y-104290761D01*
X75834904Y-104243142D01*
X75882523Y-104147904D01*
X75882523Y-103338380D01*
X76882523Y-104338380D02*
X76311095Y-104338380D01*
X76596809Y-104338380D02*
X76596809Y-103338380D01*
X76501571Y-103481238D01*
X76406333Y-103576476D01*
X76311095Y-103624095D01*
M02*
