%TF.GenerationSoftware,KiCad,Pcbnew,(5.1.10)-1*%
%TF.CreationDate,2021-09-15T18:07:19+02:00*%
%TF.ProjectId,sh_control,73685f63-6f6e-4747-926f-6c2e6b696361,rev?*%
%TF.SameCoordinates,Original*%
%TF.FileFunction,Legend,Bot*%
%TF.FilePolarity,Positive*%
%FSLAX46Y46*%
G04 Gerber Fmt 4.6, Leading zero omitted, Abs format (unit mm)*
G04 Created by KiCad (PCBNEW (5.1.10)-1) date 2021-09-15 18:07:19*
%MOMM*%
%LPD*%
G01*
G04 APERTURE LIST*
%ADD10C,0.300000*%
%ADD11C,0.120000*%
%ADD12C,0.150000*%
G04 APERTURE END LIST*
D10*
X134777928Y-93058142D02*
X134563642Y-93129571D01*
X134206500Y-93129571D01*
X134063642Y-93058142D01*
X133992214Y-92986714D01*
X133920785Y-92843857D01*
X133920785Y-92701000D01*
X133992214Y-92558142D01*
X134063642Y-92486714D01*
X134206500Y-92415285D01*
X134492214Y-92343857D01*
X134635071Y-92272428D01*
X134706500Y-92201000D01*
X134777928Y-92058142D01*
X134777928Y-91915285D01*
X134706500Y-91772428D01*
X134635071Y-91701000D01*
X134492214Y-91629571D01*
X134135071Y-91629571D01*
X133920785Y-91701000D01*
X133492214Y-92129571D02*
X132920785Y-92129571D01*
X133277928Y-91629571D02*
X133277928Y-92915285D01*
X133206500Y-93058142D01*
X133063642Y-93129571D01*
X132920785Y-93129571D01*
X132420785Y-93129571D02*
X132420785Y-92129571D01*
X132420785Y-91629571D02*
X132492214Y-91701000D01*
X132420785Y-91772428D01*
X132349357Y-91701000D01*
X132420785Y-91629571D01*
X132420785Y-91772428D01*
X131920785Y-92129571D02*
X131349357Y-92129571D01*
X131706500Y-93129571D02*
X131706500Y-91843857D01*
X131635071Y-91701000D01*
X131492214Y-91629571D01*
X131349357Y-91629571D01*
X131063642Y-92129571D02*
X130492214Y-92129571D01*
X130849357Y-91629571D02*
X130849357Y-92915285D01*
X130777928Y-93058142D01*
X130635071Y-93129571D01*
X130492214Y-93129571D01*
X129420785Y-93058142D02*
X129563642Y-93129571D01*
X129849357Y-93129571D01*
X129992214Y-93058142D01*
X130063642Y-92915285D01*
X130063642Y-92343857D01*
X129992214Y-92201000D01*
X129849357Y-92129571D01*
X129563642Y-92129571D01*
X129420785Y-92201000D01*
X129349357Y-92343857D01*
X129349357Y-92486714D01*
X130063642Y-92629571D01*
X128706500Y-93129571D02*
X128706500Y-91629571D01*
X128063642Y-93129571D02*
X128063642Y-92343857D01*
X128135071Y-92201000D01*
X128277928Y-92129571D01*
X128492214Y-92129571D01*
X128635071Y-92201000D01*
X128706500Y-92272428D01*
X126706500Y-93129571D02*
X126706500Y-92343857D01*
X126777928Y-92201000D01*
X126920785Y-92129571D01*
X127206500Y-92129571D01*
X127349357Y-92201000D01*
X126706500Y-93058142D02*
X126849357Y-93129571D01*
X127206500Y-93129571D01*
X127349357Y-93058142D01*
X127420785Y-92915285D01*
X127420785Y-92772428D01*
X127349357Y-92629571D01*
X127206500Y-92558142D01*
X126849357Y-92558142D01*
X126706500Y-92486714D01*
X125777928Y-93129571D02*
X125920785Y-93058142D01*
X125992214Y-92915285D01*
X125992214Y-91629571D01*
X125420785Y-92129571D02*
X124849357Y-92129571D01*
X125206500Y-91629571D02*
X125206500Y-92915285D01*
X125135071Y-93058142D01*
X124992214Y-93129571D01*
X124849357Y-93129571D01*
X123777928Y-93058142D02*
X123920785Y-93129571D01*
X124206500Y-93129571D01*
X124349357Y-93058142D01*
X124420785Y-92915285D01*
X124420785Y-92343857D01*
X124349357Y-92201000D01*
X124206500Y-92129571D01*
X123920785Y-92129571D01*
X123777928Y-92201000D01*
X123706500Y-92343857D01*
X123706500Y-92486714D01*
X124420785Y-92629571D01*
X123063642Y-93129571D02*
X123063642Y-92129571D01*
X123063642Y-92415285D02*
X122992214Y-92272428D01*
X122920785Y-92201000D01*
X122777928Y-92129571D01*
X122635071Y-92129571D01*
X138706500Y-95679571D02*
X138706500Y-94179571D01*
X138206500Y-95251000D01*
X137706500Y-94179571D01*
X137706500Y-95679571D01*
X136349357Y-95679571D02*
X136349357Y-94893857D01*
X136420785Y-94751000D01*
X136563642Y-94679571D01*
X136849357Y-94679571D01*
X136992214Y-94751000D01*
X136349357Y-95608142D02*
X136492214Y-95679571D01*
X136849357Y-95679571D01*
X136992214Y-95608142D01*
X137063642Y-95465285D01*
X137063642Y-95322428D01*
X136992214Y-95179571D01*
X136849357Y-95108142D01*
X136492214Y-95108142D01*
X136349357Y-95036714D01*
X135777928Y-95679571D02*
X134992214Y-94679571D01*
X135777928Y-94679571D02*
X134992214Y-95679571D01*
X133349357Y-95251000D02*
X132635071Y-95251000D01*
X133492214Y-95679571D02*
X132992214Y-94179571D01*
X132492214Y-95679571D01*
X131777928Y-95679571D02*
X131920785Y-95608142D01*
X131992214Y-95465285D01*
X131992214Y-94179571D01*
X131420785Y-94679571D02*
X130849357Y-94679571D01*
X131206500Y-94179571D02*
X131206500Y-95465285D01*
X131135071Y-95608142D01*
X130992214Y-95679571D01*
X130849357Y-95679571D01*
X130349357Y-95679571D02*
X130349357Y-94679571D01*
X130349357Y-94965285D02*
X130277928Y-94822428D01*
X130206500Y-94751000D01*
X130063642Y-94679571D01*
X129920785Y-94679571D01*
X129420785Y-95679571D02*
X129420785Y-94679571D01*
X129420785Y-94179571D02*
X129492214Y-94251000D01*
X129420785Y-94322428D01*
X129349357Y-94251000D01*
X129420785Y-94179571D01*
X129420785Y-94322428D01*
X128063642Y-95608142D02*
X128206500Y-95679571D01*
X128492214Y-95679571D01*
X128635071Y-95608142D01*
X128706500Y-95536714D01*
X128777928Y-95393857D01*
X128777928Y-94965285D01*
X128706500Y-94822428D01*
X128635071Y-94751000D01*
X128492214Y-94679571D01*
X128206500Y-94679571D01*
X128063642Y-94751000D01*
X127420785Y-95679571D02*
X127420785Y-94179571D01*
X126777928Y-95679571D02*
X126777928Y-94893857D01*
X126849357Y-94751000D01*
X126992214Y-94679571D01*
X127206500Y-94679571D01*
X127349357Y-94751000D01*
X127420785Y-94822428D01*
X126277928Y-94679571D02*
X125706500Y-94679571D01*
X126063642Y-94179571D02*
X126063642Y-95465285D01*
X125992214Y-95608142D01*
X125849357Y-95679571D01*
X125706500Y-95679571D01*
X124635071Y-95608142D02*
X124777928Y-95679571D01*
X125063642Y-95679571D01*
X125206500Y-95608142D01*
X125277928Y-95465285D01*
X125277928Y-94893857D01*
X125206500Y-94751000D01*
X125063642Y-94679571D01*
X124777928Y-94679571D01*
X124635071Y-94751000D01*
X124563642Y-94893857D01*
X124563642Y-95036714D01*
X125277928Y-95179571D01*
X123920785Y-95679571D02*
X123920785Y-94679571D01*
X123920785Y-94965285D02*
X123849357Y-94822428D01*
X123777928Y-94751000D01*
X123635071Y-94679571D01*
X123492214Y-94679571D01*
X122063642Y-94179571D02*
X121563642Y-95679571D01*
X121063642Y-94179571D01*
X120706500Y-94179571D02*
X119777928Y-94179571D01*
X120277928Y-94751000D01*
X120063642Y-94751000D01*
X119920785Y-94822428D01*
X119849357Y-94893857D01*
X119777928Y-95036714D01*
X119777928Y-95393857D01*
X119849357Y-95536714D01*
X119920785Y-95608142D01*
X120063642Y-95679571D01*
X120492214Y-95679571D01*
X120635071Y-95608142D01*
X120706500Y-95536714D01*
X119135071Y-95536714D02*
X119063642Y-95608142D01*
X119135071Y-95679571D01*
X119206500Y-95608142D01*
X119135071Y-95536714D01*
X119135071Y-95679571D01*
X117706500Y-94179571D02*
X118420785Y-94179571D01*
X118492214Y-94893857D01*
X118420785Y-94822428D01*
X118277928Y-94751000D01*
X117920785Y-94751000D01*
X117777928Y-94822428D01*
X117706500Y-94893857D01*
X117635071Y-95036714D01*
X117635071Y-95393857D01*
X117706500Y-95536714D01*
X117777928Y-95608142D01*
X117920785Y-95679571D01*
X118277928Y-95679571D01*
X118420785Y-95608142D01*
X118492214Y-95536714D01*
D11*
%TO.C,D14*%
X117026500Y-71914000D02*
X124326500Y-71914000D01*
X117026500Y-66414000D02*
X124326500Y-66414000D01*
X124326500Y-66414000D02*
X124326500Y-67564000D01*
%TO.C,D13*%
X129284625Y-71914000D02*
X136584625Y-71914000D01*
X129284625Y-66414000D02*
X136584625Y-66414000D01*
X136584625Y-66414000D02*
X136584625Y-67564000D01*
%TO.C,D12*%
X141542750Y-71914000D02*
X148842750Y-71914000D01*
X141542750Y-66414000D02*
X148842750Y-66414000D01*
X148842750Y-66414000D02*
X148842750Y-67564000D01*
%TO.C,D11*%
X153800875Y-71914000D02*
X161100875Y-71914000D01*
X153800875Y-66414000D02*
X161100875Y-66414000D01*
X161100875Y-66414000D02*
X161100875Y-67564000D01*
%TO.C,D10*%
X166059000Y-71914000D02*
X173359000Y-71914000D01*
X166059000Y-66414000D02*
X173359000Y-66414000D01*
X173359000Y-66414000D02*
X173359000Y-67564000D01*
%TO.C,C23*%
X121361252Y-62711500D02*
X119938748Y-62711500D01*
X121361252Y-65431500D02*
X119938748Y-65431500D01*
%TO.C,C22*%
X133616752Y-62711500D02*
X132194248Y-62711500D01*
X133616752Y-65431500D02*
X132194248Y-65431500D01*
%TO.C,C21*%
X145872252Y-62711500D02*
X144449748Y-62711500D01*
X145872252Y-65431500D02*
X144449748Y-65431500D01*
%TO.C,C20*%
X158127752Y-62711500D02*
X156705248Y-62711500D01*
X158127752Y-65431500D02*
X156705248Y-65431500D01*
%TO.C,C19*%
X170383252Y-62711500D02*
X168960748Y-62711500D01*
X170383252Y-65431500D02*
X168960748Y-65431500D01*
%TO.C,D14*%
D12*
X116240785Y-71216380D02*
X116812214Y-71216380D01*
X116526500Y-71216380D02*
X116526500Y-70216380D01*
X116621738Y-70359238D01*
X116716976Y-70454476D01*
X116812214Y-70502095D01*
%TO.C,D13*%
X128498910Y-71216380D02*
X129070339Y-71216380D01*
X128784625Y-71216380D02*
X128784625Y-70216380D01*
X128879863Y-70359238D01*
X128975101Y-70454476D01*
X129070339Y-70502095D01*
%TO.C,D12*%
X140757035Y-71216380D02*
X141328464Y-71216380D01*
X141042750Y-71216380D02*
X141042750Y-70216380D01*
X141137988Y-70359238D01*
X141233226Y-70454476D01*
X141328464Y-70502095D01*
%TO.C,D11*%
X153015160Y-71216380D02*
X153586589Y-71216380D01*
X153300875Y-71216380D02*
X153300875Y-70216380D01*
X153396113Y-70359238D01*
X153491351Y-70454476D01*
X153586589Y-70502095D01*
%TO.C,D10*%
X165273285Y-71216380D02*
X165844714Y-71216380D01*
X165559000Y-71216380D02*
X165559000Y-70216380D01*
X165654238Y-70359238D01*
X165749476Y-70454476D01*
X165844714Y-70502095D01*
%TO.C,C23*%
X121292857Y-62128642D02*
X121340476Y-62176261D01*
X121483333Y-62223880D01*
X121578571Y-62223880D01*
X121721428Y-62176261D01*
X121816666Y-62081023D01*
X121864285Y-61985785D01*
X121911904Y-61795309D01*
X121911904Y-61652452D01*
X121864285Y-61461976D01*
X121816666Y-61366738D01*
X121721428Y-61271500D01*
X121578571Y-61223880D01*
X121483333Y-61223880D01*
X121340476Y-61271500D01*
X121292857Y-61319119D01*
X120911904Y-61319119D02*
X120864285Y-61271500D01*
X120769047Y-61223880D01*
X120530952Y-61223880D01*
X120435714Y-61271500D01*
X120388095Y-61319119D01*
X120340476Y-61414357D01*
X120340476Y-61509595D01*
X120388095Y-61652452D01*
X120959523Y-62223880D01*
X120340476Y-62223880D01*
X120007142Y-61223880D02*
X119388095Y-61223880D01*
X119721428Y-61604833D01*
X119578571Y-61604833D01*
X119483333Y-61652452D01*
X119435714Y-61700071D01*
X119388095Y-61795309D01*
X119388095Y-62033404D01*
X119435714Y-62128642D01*
X119483333Y-62176261D01*
X119578571Y-62223880D01*
X119864285Y-62223880D01*
X119959523Y-62176261D01*
X120007142Y-62128642D01*
%TO.C,C22*%
X133548357Y-62128642D02*
X133595976Y-62176261D01*
X133738833Y-62223880D01*
X133834071Y-62223880D01*
X133976928Y-62176261D01*
X134072166Y-62081023D01*
X134119785Y-61985785D01*
X134167404Y-61795309D01*
X134167404Y-61652452D01*
X134119785Y-61461976D01*
X134072166Y-61366738D01*
X133976928Y-61271500D01*
X133834071Y-61223880D01*
X133738833Y-61223880D01*
X133595976Y-61271500D01*
X133548357Y-61319119D01*
X133167404Y-61319119D02*
X133119785Y-61271500D01*
X133024547Y-61223880D01*
X132786452Y-61223880D01*
X132691214Y-61271500D01*
X132643595Y-61319119D01*
X132595976Y-61414357D01*
X132595976Y-61509595D01*
X132643595Y-61652452D01*
X133215023Y-62223880D01*
X132595976Y-62223880D01*
X132215023Y-61319119D02*
X132167404Y-61271500D01*
X132072166Y-61223880D01*
X131834071Y-61223880D01*
X131738833Y-61271500D01*
X131691214Y-61319119D01*
X131643595Y-61414357D01*
X131643595Y-61509595D01*
X131691214Y-61652452D01*
X132262642Y-62223880D01*
X131643595Y-62223880D01*
%TO.C,C21*%
X145803857Y-62128642D02*
X145851476Y-62176261D01*
X145994333Y-62223880D01*
X146089571Y-62223880D01*
X146232428Y-62176261D01*
X146327666Y-62081023D01*
X146375285Y-61985785D01*
X146422904Y-61795309D01*
X146422904Y-61652452D01*
X146375285Y-61461976D01*
X146327666Y-61366738D01*
X146232428Y-61271500D01*
X146089571Y-61223880D01*
X145994333Y-61223880D01*
X145851476Y-61271500D01*
X145803857Y-61319119D01*
X145422904Y-61319119D02*
X145375285Y-61271500D01*
X145280047Y-61223880D01*
X145041952Y-61223880D01*
X144946714Y-61271500D01*
X144899095Y-61319119D01*
X144851476Y-61414357D01*
X144851476Y-61509595D01*
X144899095Y-61652452D01*
X145470523Y-62223880D01*
X144851476Y-62223880D01*
X143899095Y-62223880D02*
X144470523Y-62223880D01*
X144184809Y-62223880D02*
X144184809Y-61223880D01*
X144280047Y-61366738D01*
X144375285Y-61461976D01*
X144470523Y-61509595D01*
%TO.C,C20*%
X158059357Y-62128642D02*
X158106976Y-62176261D01*
X158249833Y-62223880D01*
X158345071Y-62223880D01*
X158487928Y-62176261D01*
X158583166Y-62081023D01*
X158630785Y-61985785D01*
X158678404Y-61795309D01*
X158678404Y-61652452D01*
X158630785Y-61461976D01*
X158583166Y-61366738D01*
X158487928Y-61271500D01*
X158345071Y-61223880D01*
X158249833Y-61223880D01*
X158106976Y-61271500D01*
X158059357Y-61319119D01*
X157678404Y-61319119D02*
X157630785Y-61271500D01*
X157535547Y-61223880D01*
X157297452Y-61223880D01*
X157202214Y-61271500D01*
X157154595Y-61319119D01*
X157106976Y-61414357D01*
X157106976Y-61509595D01*
X157154595Y-61652452D01*
X157726023Y-62223880D01*
X157106976Y-62223880D01*
X156487928Y-61223880D02*
X156392690Y-61223880D01*
X156297452Y-61271500D01*
X156249833Y-61319119D01*
X156202214Y-61414357D01*
X156154595Y-61604833D01*
X156154595Y-61842928D01*
X156202214Y-62033404D01*
X156249833Y-62128642D01*
X156297452Y-62176261D01*
X156392690Y-62223880D01*
X156487928Y-62223880D01*
X156583166Y-62176261D01*
X156630785Y-62128642D01*
X156678404Y-62033404D01*
X156726023Y-61842928D01*
X156726023Y-61604833D01*
X156678404Y-61414357D01*
X156630785Y-61319119D01*
X156583166Y-61271500D01*
X156487928Y-61223880D01*
%TO.C,C19*%
X170314857Y-62128642D02*
X170362476Y-62176261D01*
X170505333Y-62223880D01*
X170600571Y-62223880D01*
X170743428Y-62176261D01*
X170838666Y-62081023D01*
X170886285Y-61985785D01*
X170933904Y-61795309D01*
X170933904Y-61652452D01*
X170886285Y-61461976D01*
X170838666Y-61366738D01*
X170743428Y-61271500D01*
X170600571Y-61223880D01*
X170505333Y-61223880D01*
X170362476Y-61271500D01*
X170314857Y-61319119D01*
X169362476Y-62223880D02*
X169933904Y-62223880D01*
X169648190Y-62223880D02*
X169648190Y-61223880D01*
X169743428Y-61366738D01*
X169838666Y-61461976D01*
X169933904Y-61509595D01*
X168886285Y-62223880D02*
X168695809Y-62223880D01*
X168600571Y-62176261D01*
X168552952Y-62128642D01*
X168457714Y-61985785D01*
X168410095Y-61795309D01*
X168410095Y-61414357D01*
X168457714Y-61319119D01*
X168505333Y-61271500D01*
X168600571Y-61223880D01*
X168791047Y-61223880D01*
X168886285Y-61271500D01*
X168933904Y-61319119D01*
X168981523Y-61414357D01*
X168981523Y-61652452D01*
X168933904Y-61747690D01*
X168886285Y-61795309D01*
X168791047Y-61842928D01*
X168600571Y-61842928D01*
X168505333Y-61795309D01*
X168457714Y-61747690D01*
X168410095Y-61652452D01*
%TD*%
M02*
