G04 #@! TF.GenerationSoftware,KiCad,Pcbnew,(5.1.10)-1*
G04 #@! TF.CreationDate,2021-06-23T14:01:49+02:00*
G04 #@! TF.ProjectId,sh_control,73685f63-6f6e-4747-926f-6c2e6b696361,3.2*
G04 #@! TF.SameCoordinates,Original*
G04 #@! TF.FileFunction,Copper,L4,Bot*
G04 #@! TF.FilePolarity,Positive*
%FSLAX46Y46*%
G04 Gerber Fmt 4.6, Leading zero omitted, Abs format (unit mm)*
G04 Created by KiCad (PCBNEW (5.1.10)-1) date 2021-06-23 14:01:49*
%MOMM*%
%LPD*%
G01*
G04 APERTURE LIST*
G04 #@! TA.AperFunction,ComponentPad*
%ADD10C,3.570000*%
G04 #@! TD*
G04 #@! TA.AperFunction,ComponentPad*
%ADD11C,1.545000*%
G04 #@! TD*
G04 #@! TA.AperFunction,ComponentPad*
%ADD12C,1.100000*%
G04 #@! TD*
G04 #@! TA.AperFunction,ComponentPad*
%ADD13R,1.100000X1.100000*%
G04 #@! TD*
G04 #@! TA.AperFunction,ComponentPad*
%ADD14O,1.900000X1.200000*%
G04 #@! TD*
G04 #@! TA.AperFunction,ComponentPad*
%ADD15C,1.450000*%
G04 #@! TD*
G04 #@! TA.AperFunction,ComponentPad*
%ADD16C,0.800000*%
G04 #@! TD*
G04 #@! TA.AperFunction,ComponentPad*
%ADD17C,6.400000*%
G04 #@! TD*
G04 #@! TA.AperFunction,ViaPad*
%ADD18C,0.800000*%
G04 #@! TD*
G04 #@! TA.AperFunction,Conductor*
%ADD19C,0.250000*%
G04 #@! TD*
G04 #@! TA.AperFunction,Conductor*
%ADD20C,0.300000*%
G04 #@! TD*
G04 #@! TA.AperFunction,Conductor*
%ADD21C,0.261112*%
G04 #@! TD*
G04 APERTURE END LIST*
D10*
X50550000Y-124710000D03*
X37410000Y-124710000D03*
D11*
X47480000Y-122000000D03*
X44980000Y-122000000D03*
X42980000Y-122000000D03*
X40480000Y-122000000D03*
D10*
X37410000Y-75950000D03*
X50550000Y-75950000D03*
D11*
X40480000Y-78660000D03*
X42980000Y-78660000D03*
X44980000Y-78660000D03*
X47480000Y-78660000D03*
D10*
X89150000Y-75950000D03*
X102290000Y-75950000D03*
D11*
X92220000Y-78660000D03*
X94720000Y-78660000D03*
X96720000Y-78660000D03*
X99220000Y-78660000D03*
D10*
X102290000Y-124710000D03*
X89150000Y-124710000D03*
D11*
X99220000Y-122000000D03*
X96720000Y-122000000D03*
X94720000Y-122000000D03*
X92220000Y-122000000D03*
D12*
X48980000Y-114000000D03*
D13*
X45480000Y-114000000D03*
D12*
X94036000Y-86360000D03*
D13*
X97536000Y-86360000D03*
D12*
X45522000Y-86360000D03*
D13*
X49022000Y-86360000D03*
D12*
X97720000Y-114000000D03*
D13*
X94220000Y-114000000D03*
D14*
X112687500Y-96830000D03*
X112687500Y-103830000D03*
D15*
X109987500Y-97830000D03*
X109987500Y-102830000D03*
D16*
X32177056Y-71962944D03*
X30480000Y-71260000D03*
X28782944Y-71962944D03*
X28080000Y-73660000D03*
X28782944Y-75357056D03*
X30480000Y-76060000D03*
X32177056Y-75357056D03*
X32880000Y-73660000D03*
D17*
X30480000Y-73660000D03*
D16*
X110917056Y-71962944D03*
X109220000Y-71260000D03*
X107522944Y-71962944D03*
X106820000Y-73660000D03*
X107522944Y-75357056D03*
X109220000Y-76060000D03*
X110917056Y-75357056D03*
X111620000Y-73660000D03*
D17*
X109220000Y-73660000D03*
D16*
X32177056Y-125302944D03*
X30480000Y-124600000D03*
X28782944Y-125302944D03*
X28080000Y-127000000D03*
X28782944Y-128697056D03*
X30480000Y-129400000D03*
X32177056Y-128697056D03*
X32880000Y-127000000D03*
D17*
X30480000Y-127000000D03*
D16*
X110917056Y-125302944D03*
X109220000Y-124600000D03*
X107522944Y-125302944D03*
X106820000Y-127000000D03*
X107522944Y-128697056D03*
X109220000Y-129400000D03*
X110917056Y-128697056D03*
X111620000Y-127000000D03*
D17*
X109220000Y-127000000D03*
D18*
X70993000Y-92710000D03*
X78740000Y-94742000D03*
X78740000Y-96139000D03*
X83439000Y-97282000D03*
X77978000Y-102042712D03*
X69342000Y-107823000D03*
X70358000Y-107823000D03*
X71374000Y-107950000D03*
X72390000Y-107823000D03*
X73406000Y-107696000D03*
X76267847Y-104453153D03*
X39624000Y-108966000D03*
X40132000Y-111887000D03*
X28829000Y-120142000D03*
X33909000Y-122174000D03*
X54864000Y-128143000D03*
X56388000Y-125857000D03*
X54356000Y-125603000D03*
X57150000Y-116205000D03*
X33528000Y-80010000D03*
X54356000Y-72517000D03*
X56134000Y-73660000D03*
X46736000Y-100965000D03*
X70866000Y-100330000D03*
X65405000Y-97409000D03*
X64008000Y-99060000D03*
X62738000Y-101092000D03*
X110363000Y-93853000D03*
X111760000Y-82931000D03*
X113650000Y-85852000D03*
X112522000Y-106045000D03*
X104140000Y-102108000D03*
X108434000Y-104394000D03*
X83185000Y-107569000D03*
X86360000Y-116078000D03*
X107823000Y-121920000D03*
X109093000Y-80010000D03*
X30861000Y-78867000D03*
X58293000Y-71247000D03*
X54864000Y-107061000D03*
X56642000Y-106680000D03*
X101219000Y-98298000D03*
X99187000Y-98171000D03*
X77029953Y-98042226D03*
X78105000Y-99605000D03*
X73533000Y-123444000D03*
X66167000Y-119507000D03*
X34798000Y-101346000D03*
X28956000Y-100457000D03*
X67945000Y-76200000D03*
X72771000Y-76073000D03*
X73406000Y-87376000D03*
X84836000Y-90805000D03*
X65659000Y-124714000D03*
X62230000Y-121666000D03*
X61087000Y-115951000D03*
X77851000Y-127381000D03*
X42545000Y-98806000D03*
X35814000Y-97282000D03*
X62611000Y-79756000D03*
X78105000Y-71628000D03*
X75946000Y-78740000D03*
X63246000Y-75819000D03*
X89789000Y-89662000D03*
X85979000Y-112268000D03*
X78613000Y-114300000D03*
X93345000Y-108458000D03*
X62357000Y-92964000D03*
X54229000Y-90424000D03*
X74422000Y-113792000D03*
X98552000Y-130937000D03*
X75438000Y-102870000D03*
X76310603Y-102907000D03*
X76327000Y-106680000D03*
X100203000Y-104394000D03*
X71225000Y-104833847D03*
X67183000Y-98044000D03*
X74162712Y-95631000D03*
X69977000Y-93726000D03*
X65786000Y-104013000D03*
X46609000Y-102235000D03*
X106426000Y-99568000D03*
X108585000Y-102362000D03*
X92329000Y-99692288D03*
X76708000Y-109220000D03*
X45212000Y-98425000D03*
X93599000Y-117348000D03*
X92220000Y-122000000D03*
X86487000Y-120015000D03*
X52451000Y-100457000D03*
X52197000Y-102489000D03*
X51980000Y-107061000D03*
X64262000Y-108470000D03*
X110363000Y-117475000D03*
X85598000Y-101617712D03*
X86233000Y-98933000D03*
X97409000Y-77346698D03*
X86360000Y-80772000D03*
X64770000Y-85344000D03*
X58166000Y-97663000D03*
X52197000Y-84201000D03*
X44831000Y-89662000D03*
X42672000Y-83185000D03*
X44069000Y-76962000D03*
X49403000Y-117729000D03*
X45974000Y-115824000D03*
X34686696Y-118856304D03*
X41783000Y-119888000D03*
X85852000Y-92843400D03*
X89147600Y-107569000D03*
X85852000Y-93846600D03*
X88144400Y-107569000D03*
X63119000Y-98044000D03*
X59436000Y-96901000D03*
X56134000Y-99949000D03*
X67243786Y-102483571D03*
X57150000Y-102108000D03*
X64008000Y-104648000D03*
X57150000Y-105029000D03*
X62780648Y-105421739D03*
X63811884Y-105628583D03*
X49149000Y-105918000D03*
X67691000Y-103378000D03*
X50292000Y-103378000D03*
X66796571Y-101589142D03*
X50800000Y-99187000D03*
X63881000Y-97101712D03*
X62611000Y-97101712D03*
X60325000Y-95885000D03*
X52324000Y-93980000D03*
X50165000Y-95504000D03*
D19*
X34874000Y-122174000D02*
X33909000Y-122174000D01*
X37410000Y-124710000D02*
X34874000Y-122174000D01*
X54864000Y-128143000D02*
X55245000Y-128143000D01*
X53983000Y-72517000D02*
X54356000Y-72517000D01*
X50550000Y-75950000D02*
X53983000Y-72517000D01*
D20*
X109220000Y-79883000D02*
X109093000Y-80010000D01*
X109220000Y-73660000D02*
X109220000Y-79883000D01*
D19*
X108585000Y-101727000D02*
X108585000Y-102362000D01*
X106426000Y-99568000D02*
X108585000Y-101727000D01*
X92329000Y-99692288D02*
X90551000Y-101470288D01*
X88569602Y-109220000D02*
X76708000Y-109220000D01*
X90551000Y-107238602D02*
X88569602Y-109220000D01*
X90551000Y-101470288D02*
X90551000Y-107238602D01*
D20*
X45212000Y-98425000D02*
X45212000Y-106553000D01*
X47879000Y-109220000D02*
X76708000Y-109220000D01*
X46609000Y-107950000D02*
X47561500Y-108902500D01*
X46609000Y-102235000D02*
X46609000Y-107950000D01*
X47561500Y-108902500D02*
X47879000Y-109220000D01*
X45212000Y-106553000D02*
X47561500Y-108902500D01*
D19*
X92220000Y-118727000D02*
X92220000Y-122000000D01*
X93599000Y-117348000D02*
X92220000Y-118727000D01*
X88472000Y-122000000D02*
X86487000Y-120015000D01*
X92220000Y-122000000D02*
X88472000Y-122000000D01*
D20*
X52451000Y-102235000D02*
X52197000Y-102489000D01*
X52451000Y-100457000D02*
X52451000Y-102235000D01*
X53389000Y-108470000D02*
X64262000Y-108470000D01*
X51980000Y-107061000D02*
X53389000Y-108470000D01*
D19*
X94220000Y-114000000D02*
X97695000Y-117475000D01*
X97695000Y-117475000D02*
X110363000Y-117475000D01*
X85598000Y-99568000D02*
X86233000Y-98933000D01*
X85598000Y-101617712D02*
X85598000Y-99568000D01*
D20*
X97409000Y-77346698D02*
X96897302Y-76835000D01*
X91285001Y-76835000D02*
X88618001Y-79502000D01*
X96897302Y-76835000D02*
X91285001Y-76835000D01*
X87630000Y-79502000D02*
X86360000Y-80772000D01*
X88618001Y-79502000D02*
X87630000Y-79502000D01*
X58166000Y-91948000D02*
X58166000Y-97663000D01*
X64770000Y-85344000D02*
X58166000Y-91948000D01*
D19*
X50038000Y-86360000D02*
X49022000Y-86360000D01*
X52197000Y-84201000D02*
X50038000Y-86360000D01*
X48133000Y-86360000D02*
X44831000Y-89662000D01*
X49022000Y-86360000D02*
X48133000Y-86360000D01*
X41577501Y-82090501D02*
X41577501Y-78056499D01*
X42672000Y-83185000D02*
X41577501Y-82090501D01*
X42672000Y-76962000D02*
X44069000Y-76962000D01*
X41577501Y-78056499D02*
X42672000Y-76962000D01*
X47498000Y-115824000D02*
X45974000Y-115824000D01*
X49403000Y-117729000D02*
X47498000Y-115824000D01*
X35718392Y-119888000D02*
X41783000Y-119888000D01*
X34686696Y-118856304D02*
X35718392Y-119888000D01*
D21*
X86582557Y-93573957D02*
X88878156Y-95869556D01*
X86582557Y-93495932D02*
X86582557Y-93573957D01*
X86202668Y-93116043D02*
X86582557Y-93495932D01*
X86124643Y-93116043D02*
X86202668Y-93116043D01*
X85852000Y-92843400D02*
X86124643Y-93116043D01*
X88878156Y-107299556D02*
X89147600Y-107569000D01*
X88878156Y-95869556D02*
X88878156Y-107299556D01*
X85852000Y-93846600D02*
X86198563Y-93846600D01*
X86198563Y-93846600D02*
X88413844Y-96061881D01*
X88413844Y-107299556D02*
X88144400Y-107569000D01*
X88413844Y-96061881D02*
X88413844Y-107299556D01*
D20*
X60579000Y-98044000D02*
X63119000Y-98044000D01*
X59436000Y-96901000D02*
X60579000Y-98044000D01*
D19*
X66617998Y-102483571D02*
X67243786Y-102483571D01*
X65951428Y-101817001D02*
X66617998Y-102483571D01*
X62389999Y-101817001D02*
X65951428Y-101817001D01*
X61826599Y-101253601D02*
X62389999Y-101817001D01*
X61826599Y-100817009D02*
X61826599Y-101253601D01*
X60646600Y-99637010D02*
X61826599Y-100817009D01*
X56445990Y-99637010D02*
X60646600Y-99637010D01*
X56134000Y-99949000D02*
X56445990Y-99637010D01*
D20*
X59690000Y-104648000D02*
X64008000Y-104648000D01*
X57150000Y-102108000D02*
X59690000Y-104648000D01*
D19*
X57542739Y-105421739D02*
X62780648Y-105421739D01*
X57150000Y-105029000D02*
X57542739Y-105421739D01*
X63811884Y-105628583D02*
X62887467Y-106553000D01*
X62289466Y-105954999D02*
X49947999Y-105954999D01*
X62887467Y-106553000D02*
X62289466Y-105954999D01*
X49911000Y-105918000D02*
X49149000Y-105918000D01*
X49947999Y-105954999D02*
X49911000Y-105918000D01*
X67691000Y-103378000D02*
X66870498Y-103378000D01*
X65717502Y-102293502D02*
X65691011Y-102267011D01*
X65786000Y-102293502D02*
X65717502Y-102293502D01*
X66870498Y-103378000D02*
X65786000Y-102293502D01*
X61376589Y-101440001D02*
X61376589Y-101003409D01*
X62203598Y-102267010D02*
X61376589Y-101440001D01*
X65691011Y-102267011D02*
X62203598Y-102267010D01*
X61376589Y-101003409D02*
X60460200Y-100087020D01*
X60460200Y-100087020D02*
X57150000Y-100087020D01*
X53859020Y-103378000D02*
X50292000Y-103378000D01*
X57150000Y-100087020D02*
X53859020Y-103378000D01*
X65574428Y-100366999D02*
X62012999Y-100366999D01*
X66796571Y-101589142D02*
X65574428Y-100366999D01*
X60833000Y-99187000D02*
X50800000Y-99187000D01*
X62012999Y-100366999D02*
X60833000Y-99187000D01*
D20*
X61541712Y-97101712D02*
X60325000Y-95885000D01*
X62611000Y-97101712D02*
X61541712Y-97101712D01*
X51689000Y-93980000D02*
X50165000Y-95504000D01*
X52324000Y-93980000D02*
X51689000Y-93980000D01*
M02*
