M48
; DRILL file {KiCad (5.1.10)-1} date 06/23/21 14:00:49
; FORMAT={3:3/ absolute / metric / suppress leading zeros}
; #@! TF.CreationDate,2021-06-23T14:00:49+02:00
; #@! TF.GenerationSoftware,Kicad,Pcbnew,(5.1.10)-1
FMAT,2
METRIC,TZ
T1C0.400
T2C0.500
T3C0.600
T4C0.700
T5C0.850
T6C1.030
T7C2.380
T8C3.200
%
G90
G05
T1
X28829Y-120142
X28956Y-100457
X30861Y-78867
X33528Y-80010
X33909Y-122174
X34687Y-118856
X34798Y-101346
X35814Y-97282
X39624Y-108966
X40132Y-111887
X41783Y-119888
X42545Y-98806
X42672Y-83185
X44069Y-76962
X44831Y-89662
X45212Y-98425
X45974Y-115824
X46609Y-102235
X46736Y-100965
X49149Y-105918
X49403Y-117729
X50165Y-95504
X50292Y-103378
X50800Y-99187
X51980Y-107061
X52197Y-84201
X52197Y-102489
X52324Y-93980
X52451Y-100457
X54229Y-90424
X54356Y-72517
X54356Y-125603
X54864Y-107061
X54864Y-128143
X56134Y-73660
X56134Y-99949
X56388Y-125857
X56642Y-106680
X57150Y-102108
X57150Y-105029
X57150Y-116205
X58166Y-97663
X58293Y-71247
X59436Y-96901
X60325Y-95885
X61087Y-115951
X62230Y-121666
X62357Y-92964
X62611Y-79756
X62611Y-97102
X62738Y-101092
X62781Y-105422
X63119Y-98044
X63246Y-75819
X63812Y-105629
X63881Y-97102
X64008Y-99060
X64008Y-104648
X64262Y-108470
X64770Y-85344
X65405Y-97409
X65659Y-124714
X65786Y-104013
X66167Y-119507
X66797Y-101589
X67183Y-98044
X67244Y-102484
X67691Y-103378
X67945Y-76200
X69342Y-107823
X69977Y-93726
X70358Y-107823
X70866Y-100330
X70993Y-92710
X71225Y-104834
X71374Y-107950
X72390Y-107823
X72771Y-76073
X73406Y-87376
X73406Y-107696
X73533Y-123444
X74163Y-95631
X74422Y-113792
X75438Y-102870
X75946Y-78740
X76268Y-104453
X76311Y-102907
X76327Y-106680
X76708Y-109220
X77030Y-98042
X77851Y-127381
X77978Y-102043
X78105Y-71628
X78105Y-99605
X78613Y-114300
X78740Y-94742
X78740Y-96139
X83185Y-107569
X83439Y-97282
X84836Y-90805
X85598Y-101618
X85852Y-92843
X85852Y-93847
X85979Y-112268
X86233Y-98933
X86360Y-80772
X86360Y-116078
X86487Y-120015
X88144Y-107569
X89148Y-107569
X89789Y-89662
X92220Y-122000
X92329Y-99692
X93345Y-108458
X93599Y-117348
X97409Y-77347
X98552Y-130937
X99187Y-98171
X100203Y-104394
X101219Y-98298
X104140Y-102108
X106426Y-99568
X107823Y-121920
X108434Y-104394
X108585Y-102362
X109093Y-80010
X110363Y-93853
X110363Y-117475
X111760Y-82931
X112522Y-106045
X113650Y-85852
T2
X28080Y-73660
X28080Y-127000
X28783Y-71963
X28783Y-75357
X28783Y-125303
X28783Y-128697
X30480Y-71260
X30480Y-76060
X30480Y-124600
X30480Y-129400
X32177Y-71963
X32177Y-75357
X32177Y-125303
X32177Y-128697
X32880Y-73660
X32880Y-127000
X106820Y-73660
X106820Y-127000
X107523Y-71963
X107523Y-75357
X107523Y-125303
X107523Y-128697
X109220Y-71260
X109220Y-76060
X109220Y-124600
X109220Y-129400
X110917Y-71963
X110917Y-75357
X110917Y-125303
X110917Y-128697
X111620Y-73660
X111620Y-127000
T4
X45480Y-114000
X45522Y-86360
X48980Y-114000
X49022Y-86360
X94036Y-86360
X94220Y-114000
X97536Y-86360
X97720Y-114000
T5
X109988Y-97830
X109988Y-102830
T6
X40480Y-78660
X40480Y-122000
X42980Y-78660
X42980Y-122000
X44980Y-78660
X44980Y-122000
X47480Y-78660
X47480Y-122000
X92220Y-78660
X92220Y-122000
X94720Y-78660
X94720Y-122000
X96720Y-78660
X96720Y-122000
X99220Y-78660
X99220Y-122000
T7
X37410Y-75950
X37410Y-124710
X50550Y-75950
X50550Y-124710
X89150Y-75950
X89150Y-124710
X102290Y-75950
X102290Y-124710
T8
X30480Y-73660
X30480Y-127000
X109220Y-73660
X109220Y-127000
T3
G00X112338Y-96830
M15
G01X113038Y-96830
M16
G05
G00X113038Y-103830
M15
G01X112338Y-103830
M16
G05
T0
M30
