%TF.GenerationSoftware,KiCad,Pcbnew,(5.1.10)-1*%
%TF.CreationDate,2021-09-15T18:07:19+02:00*%
%TF.ProjectId,sh_control,73685f63-6f6e-4747-926f-6c2e6b696361,rev?*%
%TF.SameCoordinates,Original*%
%TF.FileFunction,Copper,L3,Inr*%
%TF.FilePolarity,Positive*%
%FSLAX46Y46*%
G04 Gerber Fmt 4.6, Leading zero omitted, Abs format (unit mm)*
G04 Created by KiCad (PCBNEW (5.1.10)-1) date 2021-09-15 18:07:19*
%MOMM*%
%LPD*%
G01*
G04 APERTURE LIST*
%TA.AperFunction,ComponentPad*%
%ADD10O,1.700000X1.950000*%
%TD*%
%TA.AperFunction,ComponentPad*%
%ADD11O,1.350000X1.350000*%
%TD*%
%TA.AperFunction,ComponentPad*%
%ADD12R,1.350000X1.350000*%
%TD*%
%TA.AperFunction,ComponentPad*%
%ADD13C,0.700000*%
%TD*%
%TA.AperFunction,ComponentPad*%
%ADD14C,4.400000*%
%TD*%
%TA.AperFunction,ComponentPad*%
%ADD15O,1.950000X1.700000*%
%TD*%
%TA.AperFunction,ComponentPad*%
%ADD16C,2.640000*%
%TD*%
%TA.AperFunction,ComponentPad*%
%ADD17C,1.200000*%
%TD*%
%TA.AperFunction,ComponentPad*%
%ADD18C,2.000000*%
%TD*%
%TA.AperFunction,ViaPad*%
%ADD19C,0.800000*%
%TD*%
%TA.AperFunction,Conductor*%
%ADD20C,0.254000*%
%TD*%
%TA.AperFunction,Conductor*%
%ADD21C,0.100000*%
%TD*%
G04 APERTURE END LIST*
D10*
%TO.N,/USB_HUB/D3_P*%
%TO.C,J2*%
X142120000Y-88265000D03*
%TO.N,/USB_HUB/D3_N*%
X139620000Y-88265000D03*
%TO.N,GND*%
X137120000Y-88265000D03*
%TO.N,+5V*%
%TA.AperFunction,ComponentPad*%
G36*
G01*
X133770000Y-88990000D02*
X133770000Y-87540000D01*
G75*
G02*
X134020000Y-87290000I250000J0D01*
G01*
X135220000Y-87290000D01*
G75*
G02*
X135470000Y-87540000I0J-250000D01*
G01*
X135470000Y-88990000D01*
G75*
G02*
X135220000Y-89240000I-250000J0D01*
G01*
X134020000Y-89240000D01*
G75*
G02*
X133770000Y-88990000I0J250000D01*
G01*
G37*
%TD.AperFunction*%
%TD*%
D11*
%TO.N,/Atmega32/3V3_ft232rl*%
%TO.C,J9*%
X159638000Y-43021500D03*
%TO.N,GND*%
X159638000Y-45021500D03*
%TO.N,/Atmega32/PC5*%
X157638000Y-43021500D03*
%TO.N,/Atmega32/PC4*%
X157638000Y-45021500D03*
%TO.N,/Atmega32/PD6*%
X155638000Y-43021500D03*
%TO.N,Net-(J9-Pad5)*%
X155638000Y-45021500D03*
%TO.N,/Atmega32/ADC7*%
X153638000Y-43021500D03*
%TO.N,/Atmega32/ADC6*%
X153638000Y-45021500D03*
%TO.N,/Atmega32/INT1*%
X151638000Y-43021500D03*
D12*
%TO.N,/Atmega32/INT0*%
X151638000Y-45021500D03*
%TD*%
D11*
%TO.N,/Atmega32/D_P*%
%TO.C,J8*%
X152908000Y-72390000D03*
%TO.N,/D4_P*%
X154908000Y-72390000D03*
%TO.N,/Atmega32/D_N*%
X152908000Y-74390000D03*
D12*
%TO.N,/D4_N*%
X154908000Y-74390000D03*
%TD*%
D11*
%TO.N,GND*%
%TO.C,J5*%
X167481000Y-54959000D03*
%TO.N,/Atmega32/RESET*%
X165481000Y-54959000D03*
%TO.N,/Atmega32/MOSI*%
X167481000Y-52959000D03*
%TO.N,/Atmega32/SCK*%
X165481000Y-52959000D03*
%TO.N,+5V*%
X167481000Y-50959000D03*
D12*
%TO.N,/Atmega32/MISO*%
X165481000Y-50959000D03*
%TD*%
D13*
%TO.N,GND*%
%TO.C,TP4*%
X120546726Y-80113274D03*
X119380000Y-79630000D03*
X118213274Y-80113274D03*
X117730000Y-81280000D03*
X118213274Y-82446726D03*
X119380000Y-82930000D03*
X120546726Y-82446726D03*
X121030000Y-81280000D03*
D14*
X119380000Y-81280000D03*
%TD*%
D13*
%TO.N,GND*%
%TO.C,TP3*%
X120610226Y-42584774D03*
X119443500Y-42101500D03*
X118276774Y-42584774D03*
X117793500Y-43751500D03*
X118276774Y-44918226D03*
X119443500Y-45401500D03*
X120610226Y-44918226D03*
X121093500Y-43751500D03*
D14*
X119443500Y-43751500D03*
%TD*%
D13*
%TO.N,GND*%
%TO.C,TP2*%
X172107726Y-42902274D03*
X170941000Y-42419000D03*
X169774274Y-42902274D03*
X169291000Y-44069000D03*
X169774274Y-45235726D03*
X170941000Y-45719000D03*
X172107726Y-45235726D03*
X172591000Y-44069000D03*
D14*
X170941000Y-44069000D03*
%TD*%
D13*
%TO.N,GND*%
%TO.C,TP1*%
X172362726Y-80113274D03*
X171196000Y-79630000D03*
X170029274Y-80113274D03*
X169546000Y-81280000D03*
X170029274Y-82446726D03*
X171196000Y-82930000D03*
X172362726Y-82446726D03*
X172846000Y-81280000D03*
D14*
X171196000Y-81280000D03*
%TD*%
D15*
%TO.N,Net-(F1-Pad1)*%
%TO.C,J7*%
X126174500Y-75889500D03*
%TO.N,Net-(J7-Pad3)*%
X126174500Y-73389500D03*
%TO.N,Net-(J7-Pad2)*%
X126174500Y-70889500D03*
%TO.N,+5V*%
%TA.AperFunction,ComponentPad*%
G36*
G01*
X125449500Y-67539500D02*
X126899500Y-67539500D01*
G75*
G02*
X127149500Y-67789500I0J-250000D01*
G01*
X127149500Y-68989500D01*
G75*
G02*
X126899500Y-69239500I-250000J0D01*
G01*
X125449500Y-69239500D01*
G75*
G02*
X125199500Y-68989500I0J250000D01*
G01*
X125199500Y-67789500D01*
G75*
G02*
X125449500Y-67539500I250000J0D01*
G01*
G37*
%TD.AperFunction*%
%TD*%
D16*
%TO.N,GND*%
%TO.C,J6*%
X141536000Y-36249000D03*
X148786000Y-36249000D03*
D17*
X142736000Y-38929000D03*
X147586000Y-38929000D03*
%TD*%
D18*
%TO.N,GND*%
%TO.C,SW2*%
X118618000Y-47856000D03*
%TO.N,/Atmega32/RESET*%
X123118000Y-47856000D03*
%TO.N,GND*%
X118618000Y-54356000D03*
%TO.N,/Atmega32/RESET*%
X123118000Y-54356000D03*
%TD*%
D10*
%TO.N,/USB_HUB/D1_P*%
%TO.C,J4*%
X170060000Y-88265000D03*
%TO.N,/USB_HUB/D1_N*%
X167560000Y-88265000D03*
%TO.N,GND*%
X165060000Y-88265000D03*
%TO.N,+5V*%
%TA.AperFunction,ComponentPad*%
G36*
G01*
X161710000Y-88990000D02*
X161710000Y-87540000D01*
G75*
G02*
X161960000Y-87290000I250000J0D01*
G01*
X163160000Y-87290000D01*
G75*
G02*
X163410000Y-87540000I0J-250000D01*
G01*
X163410000Y-88990000D01*
G75*
G02*
X163160000Y-89240000I-250000J0D01*
G01*
X161960000Y-89240000D01*
G75*
G02*
X161710000Y-88990000I0J250000D01*
G01*
G37*
%TD.AperFunction*%
%TD*%
%TO.N,/USB_HUB/D2_P*%
%TO.C,J3*%
X156090000Y-88265000D03*
%TO.N,/USB_HUB/D2_N*%
X153590000Y-88265000D03*
%TO.N,GND*%
X151090000Y-88265000D03*
%TO.N,+5V*%
%TA.AperFunction,ComponentPad*%
G36*
G01*
X147740000Y-88990000D02*
X147740000Y-87540000D01*
G75*
G02*
X147990000Y-87290000I250000J0D01*
G01*
X149190000Y-87290000D01*
G75*
G02*
X149440000Y-87540000I0J-250000D01*
G01*
X149440000Y-88990000D01*
G75*
G02*
X149190000Y-89240000I-250000J0D01*
G01*
X147990000Y-89240000D01*
G75*
G02*
X147740000Y-88990000I0J250000D01*
G01*
G37*
%TD.AperFunction*%
%TD*%
%TO.N,/D4_P*%
%TO.C,J1*%
X128150000Y-88265000D03*
%TO.N,/D4_N*%
X125650000Y-88265000D03*
%TO.N,GND*%
X123150000Y-88265000D03*
%TO.N,+5V*%
%TA.AperFunction,ComponentPad*%
G36*
G01*
X119800000Y-88990000D02*
X119800000Y-87540000D01*
G75*
G02*
X120050000Y-87290000I250000J0D01*
G01*
X121250000Y-87290000D01*
G75*
G02*
X121500000Y-87540000I0J-250000D01*
G01*
X121500000Y-88990000D01*
G75*
G02*
X121250000Y-89240000I-250000J0D01*
G01*
X120050000Y-89240000D01*
G75*
G02*
X119800000Y-88990000I0J250000D01*
G01*
G37*
%TD.AperFunction*%
%TD*%
D19*
%TO.N,GND*%
X144716500Y-46545500D03*
X166497000Y-45910500D03*
X171513500Y-49530000D03*
X172974000Y-53467000D03*
X169799000Y-51244500D03*
X129921000Y-54673500D03*
X132270500Y-53403500D03*
X134366000Y-52197000D03*
X134429500Y-57785000D03*
X132207000Y-58547000D03*
X159258000Y-74422000D03*
X172212000Y-75946000D03*
X171958000Y-72644000D03*
X166941500Y-62547500D03*
X140716000Y-81280000D03*
X149860000Y-81026000D03*
X151638000Y-68580000D03*
X139192000Y-66548000D03*
X139769623Y-69742961D03*
X143065500Y-51816000D03*
X146431000Y-51943000D03*
X152082500Y-52959000D03*
X155765500Y-58928000D03*
X159702500Y-47752000D03*
X122555000Y-61976000D03*
X141425000Y-69913500D03*
X171323000Y-66230500D03*
X172656500Y-65151000D03*
X160083500Y-54800500D03*
X144399000Y-60579000D03*
X147274629Y-53445868D03*
X163576000Y-53709000D03*
X160274000Y-49911000D03*
X142811500Y-40957500D03*
X144145000Y-41465500D03*
X141605000Y-40703500D03*
X130175000Y-61277500D03*
%TO.N,+5V*%
X165862000Y-67056000D03*
X137325000Y-76454000D03*
X140208000Y-74676000D03*
X127952500Y-63373000D03*
X172666712Y-62039500D03*
X168973500Y-70612000D03*
X160274000Y-58547000D03*
X151892000Y-54927500D03*
X157162500Y-50292000D03*
X146875500Y-54419500D03*
X142621000Y-56261000D03*
X147372744Y-52279337D03*
%TO.N,/USB_HUB/DRV*%
X161085580Y-63798603D03*
X159766000Y-61976000D03*
%TO.N,/Atmega32/PC5*%
X149860000Y-47371000D03*
%TO.N,/Atmega32/PC4*%
X155067000Y-47370999D03*
X151511000Y-47370999D03*
%TO.N,/Atmega32/PD6*%
X152019000Y-50322999D03*
%TO.N,/Atmega32/PD4*%
X147488974Y-50733488D03*
%TO.N,/Atmega32/ADC7*%
X156781500Y-51879500D03*
X155142500Y-51879500D03*
%TO.N,/Atmega32/ADC6*%
X155829000Y-52959000D03*
X151701500Y-53911500D03*
%TO.N,/Atmega32/INT1*%
X146621500Y-50236002D03*
%TO.N,/Atmega32/INT0*%
X145796000Y-47307500D03*
X148209000Y-45275500D03*
%TO.N,/Atmega32/RESET*%
X149225000Y-50673000D03*
X161988500Y-55943500D03*
%TO.N,/Atmega32/MOSI*%
X153859575Y-59702000D03*
X169799000Y-53213000D03*
%TO.N,/Atmega32/SCK*%
X156400500Y-53848000D03*
X155194000Y-55181500D03*
%TO.N,/Atmega32/MISO*%
X153289000Y-58737500D03*
X162814000Y-51689000D03*
%TO.N,Net-(D10-Pad4)*%
X149542500Y-60452000D03*
%TO.N,Net-(F1-Pad2)*%
X147256500Y-40449500D03*
X125285500Y-42481500D03*
%TO.N,/Atmega32/3V3_ft232rl*%
X161798000Y-42291000D03*
X144716500Y-61658500D03*
%TO.N,Net-(C9-Pad2)*%
X143319500Y-48069500D03*
%TO.N,Net-(C9-Pad1)*%
X140652500Y-46037500D03*
%TD*%
D20*
%TO.N,GND*%
X140352136Y-34885531D02*
X141536000Y-36069395D01*
X142719864Y-34885531D01*
X142691592Y-34823000D01*
X147630408Y-34823000D01*
X147602136Y-34885531D01*
X148786000Y-36069395D01*
X149969864Y-34885531D01*
X149941592Y-34823000D01*
X160224707Y-34823000D01*
X171426294Y-41266924D01*
X170925826Y-41220322D01*
X170370368Y-41278019D01*
X169836839Y-41442972D01*
X169370976Y-41691982D01*
X169130830Y-42079225D01*
X170941000Y-43889395D01*
X172751170Y-42079225D01*
X172511024Y-41691982D01*
X172444037Y-41656634D01*
X172540041Y-41685620D01*
X172688378Y-41764492D01*
X172818574Y-41870676D01*
X172925664Y-42000126D01*
X173005572Y-42147914D01*
X173055252Y-42308402D01*
X173058358Y-42337949D01*
X172930775Y-42258830D01*
X171120605Y-44069000D01*
X172930775Y-45879170D01*
X173076001Y-45789109D01*
X173076001Y-61088757D01*
X172968610Y-61044274D01*
X172768651Y-61004500D01*
X172564773Y-61004500D01*
X172364814Y-61044274D01*
X172176456Y-61122295D01*
X172006938Y-61235563D01*
X171862775Y-61379726D01*
X171749507Y-61549244D01*
X171671486Y-61737602D01*
X171631712Y-61937561D01*
X171631712Y-62141439D01*
X171671486Y-62341398D01*
X171749507Y-62529756D01*
X171862775Y-62699274D01*
X172006938Y-62843437D01*
X172176456Y-62956705D01*
X172364814Y-63034726D01*
X172564773Y-63074500D01*
X172768651Y-63074500D01*
X172968610Y-63034726D01*
X173076001Y-62990243D01*
X173076000Y-79220392D01*
X173006169Y-79290223D01*
X172766024Y-78902982D01*
X172272123Y-78642359D01*
X171736867Y-78483099D01*
X171180826Y-78431322D01*
X170625368Y-78489019D01*
X170091839Y-78653972D01*
X169625976Y-78902982D01*
X169385830Y-79290225D01*
X171196000Y-81100395D01*
X171210143Y-81086253D01*
X171389748Y-81265858D01*
X171375605Y-81280000D01*
X171389748Y-81294143D01*
X171210143Y-81473748D01*
X171196000Y-81459605D01*
X169385830Y-83269775D01*
X169625976Y-83657018D01*
X170119877Y-83917641D01*
X170655133Y-84076901D01*
X171211174Y-84128678D01*
X171766632Y-84070981D01*
X172300161Y-83906028D01*
X172766024Y-83657018D01*
X173006169Y-83269777D01*
X173076000Y-83339608D01*
X173076000Y-93504418D01*
X173076001Y-93504428D01*
X173076000Y-95471719D01*
X173066115Y-95572531D01*
X173046211Y-95638458D01*
X173013885Y-95699255D01*
X172970362Y-95752618D01*
X172917300Y-95796515D01*
X172856727Y-95829266D01*
X172790947Y-95849628D01*
X172692269Y-95860000D01*
X117888281Y-95860000D01*
X117787469Y-95850115D01*
X117721542Y-95830211D01*
X117660745Y-95797885D01*
X117607382Y-95754362D01*
X117563485Y-95701300D01*
X117530734Y-95640727D01*
X117510372Y-95574947D01*
X117500000Y-95476269D01*
X117500000Y-87540000D01*
X119161928Y-87540000D01*
X119161928Y-88990000D01*
X119178992Y-89163254D01*
X119229528Y-89329850D01*
X119311595Y-89483386D01*
X119422038Y-89617962D01*
X119556614Y-89728405D01*
X119710150Y-89810472D01*
X119876746Y-89861008D01*
X120050000Y-89878072D01*
X121250000Y-89878072D01*
X121423254Y-89861008D01*
X121589850Y-89810472D01*
X121743386Y-89728405D01*
X121877962Y-89617962D01*
X121988405Y-89483386D01*
X122044714Y-89378039D01*
X122060951Y-89399429D01*
X122278807Y-89592496D01*
X122530142Y-89739352D01*
X122793110Y-89831476D01*
X123023000Y-89710155D01*
X123023000Y-88392000D01*
X123003000Y-88392000D01*
X123003000Y-88138000D01*
X123023000Y-88138000D01*
X123023000Y-86819845D01*
X123277000Y-86819845D01*
X123277000Y-88138000D01*
X123297000Y-88138000D01*
X123297000Y-88392000D01*
X123277000Y-88392000D01*
X123277000Y-89710155D01*
X123506890Y-89831476D01*
X123769858Y-89739352D01*
X124021193Y-89592496D01*
X124239049Y-89399429D01*
X124395538Y-89193278D01*
X124409294Y-89219014D01*
X124594866Y-89445134D01*
X124820987Y-89630706D01*
X125078967Y-89768599D01*
X125358890Y-89853513D01*
X125650000Y-89882185D01*
X125941111Y-89853513D01*
X126221034Y-89768599D01*
X126479014Y-89630706D01*
X126705134Y-89445134D01*
X126890706Y-89219014D01*
X126900000Y-89201626D01*
X126909294Y-89219014D01*
X127094866Y-89445134D01*
X127320987Y-89630706D01*
X127578967Y-89768599D01*
X127858890Y-89853513D01*
X128150000Y-89882185D01*
X128441111Y-89853513D01*
X128721034Y-89768599D01*
X128979014Y-89630706D01*
X129205134Y-89445134D01*
X129390706Y-89219014D01*
X129528599Y-88961033D01*
X129613513Y-88681110D01*
X129635000Y-88462949D01*
X129635000Y-88067050D01*
X129613513Y-87848889D01*
X129528599Y-87568966D01*
X129513117Y-87540000D01*
X133131928Y-87540000D01*
X133131928Y-88990000D01*
X133148992Y-89163254D01*
X133199528Y-89329850D01*
X133281595Y-89483386D01*
X133392038Y-89617962D01*
X133526614Y-89728405D01*
X133680150Y-89810472D01*
X133846746Y-89861008D01*
X134020000Y-89878072D01*
X135220000Y-89878072D01*
X135393254Y-89861008D01*
X135559850Y-89810472D01*
X135713386Y-89728405D01*
X135847962Y-89617962D01*
X135958405Y-89483386D01*
X136014714Y-89378039D01*
X136030951Y-89399429D01*
X136248807Y-89592496D01*
X136500142Y-89739352D01*
X136763110Y-89831476D01*
X136993000Y-89710155D01*
X136993000Y-88392000D01*
X136973000Y-88392000D01*
X136973000Y-88138000D01*
X136993000Y-88138000D01*
X136993000Y-86819845D01*
X137247000Y-86819845D01*
X137247000Y-88138000D01*
X137267000Y-88138000D01*
X137267000Y-88392000D01*
X137247000Y-88392000D01*
X137247000Y-89710155D01*
X137476890Y-89831476D01*
X137739858Y-89739352D01*
X137991193Y-89592496D01*
X138209049Y-89399429D01*
X138365538Y-89193278D01*
X138379294Y-89219014D01*
X138564866Y-89445134D01*
X138790987Y-89630706D01*
X139048967Y-89768599D01*
X139328890Y-89853513D01*
X139620000Y-89882185D01*
X139911111Y-89853513D01*
X140191034Y-89768599D01*
X140449014Y-89630706D01*
X140675134Y-89445134D01*
X140860706Y-89219014D01*
X140870000Y-89201626D01*
X140879294Y-89219014D01*
X141064866Y-89445134D01*
X141290987Y-89630706D01*
X141548967Y-89768599D01*
X141828890Y-89853513D01*
X142120000Y-89882185D01*
X142411111Y-89853513D01*
X142691034Y-89768599D01*
X142949014Y-89630706D01*
X143175134Y-89445134D01*
X143360706Y-89219014D01*
X143498599Y-88961033D01*
X143583513Y-88681110D01*
X143605000Y-88462949D01*
X143605000Y-88067050D01*
X143583513Y-87848889D01*
X143498599Y-87568966D01*
X143483117Y-87540000D01*
X147101928Y-87540000D01*
X147101928Y-88990000D01*
X147118992Y-89163254D01*
X147169528Y-89329850D01*
X147251595Y-89483386D01*
X147362038Y-89617962D01*
X147496614Y-89728405D01*
X147650150Y-89810472D01*
X147816746Y-89861008D01*
X147990000Y-89878072D01*
X149190000Y-89878072D01*
X149363254Y-89861008D01*
X149529850Y-89810472D01*
X149683386Y-89728405D01*
X149817962Y-89617962D01*
X149928405Y-89483386D01*
X149984714Y-89378039D01*
X150000951Y-89399429D01*
X150218807Y-89592496D01*
X150470142Y-89739352D01*
X150733110Y-89831476D01*
X150963000Y-89710155D01*
X150963000Y-88392000D01*
X150943000Y-88392000D01*
X150943000Y-88138000D01*
X150963000Y-88138000D01*
X150963000Y-86819845D01*
X151217000Y-86819845D01*
X151217000Y-88138000D01*
X151237000Y-88138000D01*
X151237000Y-88392000D01*
X151217000Y-88392000D01*
X151217000Y-89710155D01*
X151446890Y-89831476D01*
X151709858Y-89739352D01*
X151961193Y-89592496D01*
X152179049Y-89399429D01*
X152335538Y-89193278D01*
X152349294Y-89219014D01*
X152534866Y-89445134D01*
X152760987Y-89630706D01*
X153018967Y-89768599D01*
X153298890Y-89853513D01*
X153590000Y-89882185D01*
X153881111Y-89853513D01*
X154161034Y-89768599D01*
X154419014Y-89630706D01*
X154645134Y-89445134D01*
X154830706Y-89219014D01*
X154840000Y-89201626D01*
X154849294Y-89219014D01*
X155034866Y-89445134D01*
X155260987Y-89630706D01*
X155518967Y-89768599D01*
X155798890Y-89853513D01*
X156090000Y-89882185D01*
X156381111Y-89853513D01*
X156661034Y-89768599D01*
X156919014Y-89630706D01*
X157145134Y-89445134D01*
X157330706Y-89219014D01*
X157468599Y-88961033D01*
X157553513Y-88681110D01*
X157575000Y-88462949D01*
X157575000Y-88067050D01*
X157553513Y-87848889D01*
X157468599Y-87568966D01*
X157453117Y-87540000D01*
X161071928Y-87540000D01*
X161071928Y-88990000D01*
X161088992Y-89163254D01*
X161139528Y-89329850D01*
X161221595Y-89483386D01*
X161332038Y-89617962D01*
X161466614Y-89728405D01*
X161620150Y-89810472D01*
X161786746Y-89861008D01*
X161960000Y-89878072D01*
X163160000Y-89878072D01*
X163333254Y-89861008D01*
X163499850Y-89810472D01*
X163653386Y-89728405D01*
X163787962Y-89617962D01*
X163898405Y-89483386D01*
X163954714Y-89378039D01*
X163970951Y-89399429D01*
X164188807Y-89592496D01*
X164440142Y-89739352D01*
X164703110Y-89831476D01*
X164933000Y-89710155D01*
X164933000Y-88392000D01*
X164913000Y-88392000D01*
X164913000Y-88138000D01*
X164933000Y-88138000D01*
X164933000Y-86819845D01*
X165187000Y-86819845D01*
X165187000Y-88138000D01*
X165207000Y-88138000D01*
X165207000Y-88392000D01*
X165187000Y-88392000D01*
X165187000Y-89710155D01*
X165416890Y-89831476D01*
X165679858Y-89739352D01*
X165931193Y-89592496D01*
X166149049Y-89399429D01*
X166305538Y-89193278D01*
X166319294Y-89219014D01*
X166504866Y-89445134D01*
X166730987Y-89630706D01*
X166988967Y-89768599D01*
X167268890Y-89853513D01*
X167560000Y-89882185D01*
X167851111Y-89853513D01*
X168131034Y-89768599D01*
X168389014Y-89630706D01*
X168615134Y-89445134D01*
X168800706Y-89219014D01*
X168810000Y-89201626D01*
X168819294Y-89219014D01*
X169004866Y-89445134D01*
X169230987Y-89630706D01*
X169488967Y-89768599D01*
X169768890Y-89853513D01*
X170060000Y-89882185D01*
X170351111Y-89853513D01*
X170631034Y-89768599D01*
X170889014Y-89630706D01*
X171115134Y-89445134D01*
X171300706Y-89219014D01*
X171438599Y-88961033D01*
X171523513Y-88681110D01*
X171545000Y-88462949D01*
X171545000Y-88067050D01*
X171523513Y-87848889D01*
X171438599Y-87568966D01*
X171300706Y-87310986D01*
X171115134Y-87084866D01*
X170889013Y-86899294D01*
X170631033Y-86761401D01*
X170351110Y-86676487D01*
X170060000Y-86647815D01*
X169768889Y-86676487D01*
X169488966Y-86761401D01*
X169230986Y-86899294D01*
X169004866Y-87084866D01*
X168819294Y-87310987D01*
X168810000Y-87328374D01*
X168800706Y-87310986D01*
X168615134Y-87084866D01*
X168389013Y-86899294D01*
X168131033Y-86761401D01*
X167851110Y-86676487D01*
X167560000Y-86647815D01*
X167268889Y-86676487D01*
X166988966Y-86761401D01*
X166730986Y-86899294D01*
X166504866Y-87084866D01*
X166319294Y-87310987D01*
X166305538Y-87336722D01*
X166149049Y-87130571D01*
X165931193Y-86937504D01*
X165679858Y-86790648D01*
X165416890Y-86698524D01*
X165187000Y-86819845D01*
X164933000Y-86819845D01*
X164703110Y-86698524D01*
X164440142Y-86790648D01*
X164188807Y-86937504D01*
X163970951Y-87130571D01*
X163954714Y-87151961D01*
X163898405Y-87046614D01*
X163787962Y-86912038D01*
X163653386Y-86801595D01*
X163499850Y-86719528D01*
X163333254Y-86668992D01*
X163160000Y-86651928D01*
X161960000Y-86651928D01*
X161786746Y-86668992D01*
X161620150Y-86719528D01*
X161466614Y-86801595D01*
X161332038Y-86912038D01*
X161221595Y-87046614D01*
X161139528Y-87200150D01*
X161088992Y-87366746D01*
X161071928Y-87540000D01*
X157453117Y-87540000D01*
X157330706Y-87310986D01*
X157145134Y-87084866D01*
X156919013Y-86899294D01*
X156661033Y-86761401D01*
X156381110Y-86676487D01*
X156090000Y-86647815D01*
X155798889Y-86676487D01*
X155518966Y-86761401D01*
X155260986Y-86899294D01*
X155034866Y-87084866D01*
X154849294Y-87310987D01*
X154840000Y-87328374D01*
X154830706Y-87310986D01*
X154645134Y-87084866D01*
X154419013Y-86899294D01*
X154161033Y-86761401D01*
X153881110Y-86676487D01*
X153590000Y-86647815D01*
X153298889Y-86676487D01*
X153018966Y-86761401D01*
X152760986Y-86899294D01*
X152534866Y-87084866D01*
X152349294Y-87310987D01*
X152335538Y-87336722D01*
X152179049Y-87130571D01*
X151961193Y-86937504D01*
X151709858Y-86790648D01*
X151446890Y-86698524D01*
X151217000Y-86819845D01*
X150963000Y-86819845D01*
X150733110Y-86698524D01*
X150470142Y-86790648D01*
X150218807Y-86937504D01*
X150000951Y-87130571D01*
X149984714Y-87151961D01*
X149928405Y-87046614D01*
X149817962Y-86912038D01*
X149683386Y-86801595D01*
X149529850Y-86719528D01*
X149363254Y-86668992D01*
X149190000Y-86651928D01*
X147990000Y-86651928D01*
X147816746Y-86668992D01*
X147650150Y-86719528D01*
X147496614Y-86801595D01*
X147362038Y-86912038D01*
X147251595Y-87046614D01*
X147169528Y-87200150D01*
X147118992Y-87366746D01*
X147101928Y-87540000D01*
X143483117Y-87540000D01*
X143360706Y-87310986D01*
X143175134Y-87084866D01*
X142949013Y-86899294D01*
X142691033Y-86761401D01*
X142411110Y-86676487D01*
X142120000Y-86647815D01*
X141828889Y-86676487D01*
X141548966Y-86761401D01*
X141290986Y-86899294D01*
X141064866Y-87084866D01*
X140879294Y-87310987D01*
X140870000Y-87328374D01*
X140860706Y-87310986D01*
X140675134Y-87084866D01*
X140449013Y-86899294D01*
X140191033Y-86761401D01*
X139911110Y-86676487D01*
X139620000Y-86647815D01*
X139328889Y-86676487D01*
X139048966Y-86761401D01*
X138790986Y-86899294D01*
X138564866Y-87084866D01*
X138379294Y-87310987D01*
X138365538Y-87336722D01*
X138209049Y-87130571D01*
X137991193Y-86937504D01*
X137739858Y-86790648D01*
X137476890Y-86698524D01*
X137247000Y-86819845D01*
X136993000Y-86819845D01*
X136763110Y-86698524D01*
X136500142Y-86790648D01*
X136248807Y-86937504D01*
X136030951Y-87130571D01*
X136014714Y-87151961D01*
X135958405Y-87046614D01*
X135847962Y-86912038D01*
X135713386Y-86801595D01*
X135559850Y-86719528D01*
X135393254Y-86668992D01*
X135220000Y-86651928D01*
X134020000Y-86651928D01*
X133846746Y-86668992D01*
X133680150Y-86719528D01*
X133526614Y-86801595D01*
X133392038Y-86912038D01*
X133281595Y-87046614D01*
X133199528Y-87200150D01*
X133148992Y-87366746D01*
X133131928Y-87540000D01*
X129513117Y-87540000D01*
X129390706Y-87310986D01*
X129205134Y-87084866D01*
X128979013Y-86899294D01*
X128721033Y-86761401D01*
X128441110Y-86676487D01*
X128150000Y-86647815D01*
X127858889Y-86676487D01*
X127578966Y-86761401D01*
X127320986Y-86899294D01*
X127094866Y-87084866D01*
X126909294Y-87310987D01*
X126900000Y-87328374D01*
X126890706Y-87310986D01*
X126705134Y-87084866D01*
X126479013Y-86899294D01*
X126221033Y-86761401D01*
X125941110Y-86676487D01*
X125650000Y-86647815D01*
X125358889Y-86676487D01*
X125078966Y-86761401D01*
X124820986Y-86899294D01*
X124594866Y-87084866D01*
X124409294Y-87310987D01*
X124395538Y-87336722D01*
X124239049Y-87130571D01*
X124021193Y-86937504D01*
X123769858Y-86790648D01*
X123506890Y-86698524D01*
X123277000Y-86819845D01*
X123023000Y-86819845D01*
X122793110Y-86698524D01*
X122530142Y-86790648D01*
X122278807Y-86937504D01*
X122060951Y-87130571D01*
X122044714Y-87151961D01*
X121988405Y-87046614D01*
X121877962Y-86912038D01*
X121743386Y-86801595D01*
X121589850Y-86719528D01*
X121423254Y-86668992D01*
X121250000Y-86651928D01*
X120050000Y-86651928D01*
X119876746Y-86668992D01*
X119710150Y-86719528D01*
X119556614Y-86801595D01*
X119422038Y-86912038D01*
X119311595Y-87046614D01*
X119229528Y-87200150D01*
X119178992Y-87366746D01*
X119161928Y-87540000D01*
X117500000Y-87540000D01*
X117500000Y-83339608D01*
X117569831Y-83269777D01*
X117809976Y-83657018D01*
X118303877Y-83917641D01*
X118839133Y-84076901D01*
X119395174Y-84128678D01*
X119950632Y-84070981D01*
X120484161Y-83906028D01*
X120950024Y-83657018D01*
X121190170Y-83269775D01*
X119380000Y-81459605D01*
X119365858Y-81473748D01*
X119186253Y-81294143D01*
X119200395Y-81280000D01*
X119559605Y-81280000D01*
X121369775Y-83090170D01*
X121757018Y-82850024D01*
X122017641Y-82356123D01*
X122176901Y-81820867D01*
X122225852Y-81295174D01*
X168347322Y-81295174D01*
X168405019Y-81850632D01*
X168569972Y-82384161D01*
X168818982Y-82850024D01*
X169206225Y-83090170D01*
X171016395Y-81280000D01*
X169206225Y-79469830D01*
X168818982Y-79709976D01*
X168558359Y-80203877D01*
X168399099Y-80739133D01*
X168347322Y-81295174D01*
X122225852Y-81295174D01*
X122228678Y-81264826D01*
X122170981Y-80709368D01*
X122006028Y-80175839D01*
X121757018Y-79709976D01*
X121369775Y-79469830D01*
X119559605Y-81280000D01*
X119200395Y-81280000D01*
X119186253Y-81265858D01*
X119365858Y-81086253D01*
X119380000Y-81100395D01*
X121190170Y-79290225D01*
X120950024Y-78902982D01*
X120456123Y-78642359D01*
X119920867Y-78483099D01*
X119364826Y-78431322D01*
X118809368Y-78489019D01*
X118275839Y-78653972D01*
X117809976Y-78902982D01*
X117569831Y-79290223D01*
X117500000Y-79220392D01*
X117500000Y-70889500D01*
X124557315Y-70889500D01*
X124585987Y-71180611D01*
X124670901Y-71460534D01*
X124808794Y-71718514D01*
X124994366Y-71944634D01*
X125220486Y-72130206D01*
X125237874Y-72139500D01*
X125220486Y-72148794D01*
X124994366Y-72334366D01*
X124808794Y-72560486D01*
X124670901Y-72818466D01*
X124585987Y-73098389D01*
X124557315Y-73389500D01*
X124585987Y-73680611D01*
X124670901Y-73960534D01*
X124808794Y-74218514D01*
X124994366Y-74444634D01*
X125220486Y-74630206D01*
X125237874Y-74639500D01*
X125220486Y-74648794D01*
X124994366Y-74834366D01*
X124808794Y-75060486D01*
X124670901Y-75318466D01*
X124585987Y-75598389D01*
X124557315Y-75889500D01*
X124585987Y-76180611D01*
X124670901Y-76460534D01*
X124808794Y-76718514D01*
X124994366Y-76944634D01*
X125220486Y-77130206D01*
X125478466Y-77268099D01*
X125758389Y-77353013D01*
X125976550Y-77374500D01*
X126372450Y-77374500D01*
X126590611Y-77353013D01*
X126870534Y-77268099D01*
X127128514Y-77130206D01*
X127354634Y-76944634D01*
X127540206Y-76718514D01*
X127678099Y-76460534D01*
X127711004Y-76352061D01*
X136290000Y-76352061D01*
X136290000Y-76555939D01*
X136329774Y-76755898D01*
X136407795Y-76944256D01*
X136521063Y-77113774D01*
X136665226Y-77257937D01*
X136834744Y-77371205D01*
X137023102Y-77449226D01*
X137223061Y-77489000D01*
X137426939Y-77489000D01*
X137626898Y-77449226D01*
X137815256Y-77371205D01*
X137984774Y-77257937D01*
X138128937Y-77113774D01*
X138242205Y-76944256D01*
X138320226Y-76755898D01*
X138360000Y-76555939D01*
X138360000Y-76352061D01*
X138320226Y-76152102D01*
X138242205Y-75963744D01*
X138128937Y-75794226D01*
X137984774Y-75650063D01*
X137815256Y-75536795D01*
X137626898Y-75458774D01*
X137426939Y-75419000D01*
X137223061Y-75419000D01*
X137023102Y-75458774D01*
X136834744Y-75536795D01*
X136665226Y-75650063D01*
X136521063Y-75794226D01*
X136407795Y-75963744D01*
X136329774Y-76152102D01*
X136290000Y-76352061D01*
X127711004Y-76352061D01*
X127763013Y-76180611D01*
X127791685Y-75889500D01*
X127763013Y-75598389D01*
X127678099Y-75318466D01*
X127540206Y-75060486D01*
X127354634Y-74834366D01*
X127128514Y-74648794D01*
X127111126Y-74639500D01*
X127128514Y-74630206D01*
X127196926Y-74574061D01*
X139173000Y-74574061D01*
X139173000Y-74777939D01*
X139212774Y-74977898D01*
X139290795Y-75166256D01*
X139404063Y-75335774D01*
X139548226Y-75479937D01*
X139717744Y-75593205D01*
X139906102Y-75671226D01*
X140106061Y-75711000D01*
X140309939Y-75711000D01*
X140509898Y-75671226D01*
X140698256Y-75593205D01*
X140867774Y-75479937D01*
X141011937Y-75335774D01*
X141125205Y-75166256D01*
X141203226Y-74977898D01*
X141243000Y-74777939D01*
X141243000Y-74574061D01*
X141203226Y-74374102D01*
X141125205Y-74185744D01*
X141011937Y-74016226D01*
X140867774Y-73872063D01*
X140698256Y-73758795D01*
X140509898Y-73680774D01*
X140309939Y-73641000D01*
X140106061Y-73641000D01*
X139906102Y-73680774D01*
X139717744Y-73758795D01*
X139548226Y-73872063D01*
X139404063Y-74016226D01*
X139290795Y-74185744D01*
X139212774Y-74374102D01*
X139173000Y-74574061D01*
X127196926Y-74574061D01*
X127354634Y-74444634D01*
X127540206Y-74218514D01*
X127678099Y-73960534D01*
X127763013Y-73680611D01*
X127791685Y-73389500D01*
X127763013Y-73098389D01*
X127678099Y-72818466D01*
X127540206Y-72560486D01*
X127354634Y-72334366D01*
X127265209Y-72260976D01*
X151598000Y-72260976D01*
X151598000Y-72519024D01*
X151648342Y-72772113D01*
X151747093Y-73010518D01*
X151890456Y-73225077D01*
X152055379Y-73390000D01*
X151890456Y-73554923D01*
X151747093Y-73769482D01*
X151648342Y-74007887D01*
X151598000Y-74260976D01*
X151598000Y-74519024D01*
X151648342Y-74772113D01*
X151747093Y-75010518D01*
X151890456Y-75225077D01*
X152072923Y-75407544D01*
X152287482Y-75550907D01*
X152525887Y-75649658D01*
X152778976Y-75700000D01*
X153037024Y-75700000D01*
X153290113Y-75649658D01*
X153528518Y-75550907D01*
X153710513Y-75429303D01*
X153781815Y-75516185D01*
X153878506Y-75595537D01*
X153988820Y-75654502D01*
X154108518Y-75690812D01*
X154233000Y-75703072D01*
X155583000Y-75703072D01*
X155707482Y-75690812D01*
X155827180Y-75654502D01*
X155937494Y-75595537D01*
X156034185Y-75516185D01*
X156113537Y-75419494D01*
X156172502Y-75309180D01*
X156208812Y-75189482D01*
X156221072Y-75065000D01*
X156221072Y-73715000D01*
X156208812Y-73590518D01*
X156172502Y-73470820D01*
X156113537Y-73360506D01*
X156034185Y-73263815D01*
X155947303Y-73192513D01*
X156068907Y-73010518D01*
X156167658Y-72772113D01*
X156218000Y-72519024D01*
X156218000Y-72260976D01*
X156167658Y-72007887D01*
X156068907Y-71769482D01*
X155925544Y-71554923D01*
X155743077Y-71372456D01*
X155528518Y-71229093D01*
X155290113Y-71130342D01*
X155037024Y-71080000D01*
X154778976Y-71080000D01*
X154525887Y-71130342D01*
X154287482Y-71229093D01*
X154072923Y-71372456D01*
X153908000Y-71537379D01*
X153743077Y-71372456D01*
X153528518Y-71229093D01*
X153290113Y-71130342D01*
X153037024Y-71080000D01*
X152778976Y-71080000D01*
X152525887Y-71130342D01*
X152287482Y-71229093D01*
X152072923Y-71372456D01*
X151890456Y-71554923D01*
X151747093Y-71769482D01*
X151648342Y-72007887D01*
X151598000Y-72260976D01*
X127265209Y-72260976D01*
X127128514Y-72148794D01*
X127111126Y-72139500D01*
X127128514Y-72130206D01*
X127354634Y-71944634D01*
X127540206Y-71718514D01*
X127678099Y-71460534D01*
X127763013Y-71180611D01*
X127791685Y-70889500D01*
X127763013Y-70598389D01*
X127736219Y-70510061D01*
X167938500Y-70510061D01*
X167938500Y-70713939D01*
X167978274Y-70913898D01*
X168056295Y-71102256D01*
X168169563Y-71271774D01*
X168313726Y-71415937D01*
X168483244Y-71529205D01*
X168671602Y-71607226D01*
X168871561Y-71647000D01*
X169075439Y-71647000D01*
X169275398Y-71607226D01*
X169463756Y-71529205D01*
X169633274Y-71415937D01*
X169777437Y-71271774D01*
X169890705Y-71102256D01*
X169968726Y-70913898D01*
X170008500Y-70713939D01*
X170008500Y-70510061D01*
X169968726Y-70310102D01*
X169890705Y-70121744D01*
X169777437Y-69952226D01*
X169633274Y-69808063D01*
X169463756Y-69694795D01*
X169275398Y-69616774D01*
X169075439Y-69577000D01*
X168871561Y-69577000D01*
X168671602Y-69616774D01*
X168483244Y-69694795D01*
X168313726Y-69808063D01*
X168169563Y-69952226D01*
X168056295Y-70121744D01*
X167978274Y-70310102D01*
X167938500Y-70510061D01*
X127736219Y-70510061D01*
X127678099Y-70318466D01*
X127540206Y-70060486D01*
X127354634Y-69834366D01*
X127291163Y-69782277D01*
X127392886Y-69727905D01*
X127527462Y-69617462D01*
X127637905Y-69482886D01*
X127719972Y-69329350D01*
X127770508Y-69162754D01*
X127787572Y-68989500D01*
X127787572Y-67789500D01*
X127770508Y-67616246D01*
X127719972Y-67449650D01*
X127637905Y-67296114D01*
X127527462Y-67161538D01*
X127392886Y-67051095D01*
X127239350Y-66969028D01*
X127190011Y-66954061D01*
X164827000Y-66954061D01*
X164827000Y-67157939D01*
X164866774Y-67357898D01*
X164944795Y-67546256D01*
X165058063Y-67715774D01*
X165202226Y-67859937D01*
X165371744Y-67973205D01*
X165560102Y-68051226D01*
X165760061Y-68091000D01*
X165963939Y-68091000D01*
X166163898Y-68051226D01*
X166352256Y-67973205D01*
X166521774Y-67859937D01*
X166665937Y-67715774D01*
X166779205Y-67546256D01*
X166857226Y-67357898D01*
X166897000Y-67157939D01*
X166897000Y-66954061D01*
X166857226Y-66754102D01*
X166779205Y-66565744D01*
X166665937Y-66396226D01*
X166521774Y-66252063D01*
X166352256Y-66138795D01*
X166163898Y-66060774D01*
X165963939Y-66021000D01*
X165760061Y-66021000D01*
X165560102Y-66060774D01*
X165371744Y-66138795D01*
X165202226Y-66252063D01*
X165058063Y-66396226D01*
X164944795Y-66565744D01*
X164866774Y-66754102D01*
X164827000Y-66954061D01*
X127190011Y-66954061D01*
X127072754Y-66918492D01*
X126899500Y-66901428D01*
X125449500Y-66901428D01*
X125276246Y-66918492D01*
X125109650Y-66969028D01*
X124956114Y-67051095D01*
X124821538Y-67161538D01*
X124711095Y-67296114D01*
X124629028Y-67449650D01*
X124578492Y-67616246D01*
X124561428Y-67789500D01*
X124561428Y-68989500D01*
X124578492Y-69162754D01*
X124629028Y-69329350D01*
X124711095Y-69482886D01*
X124821538Y-69617462D01*
X124956114Y-69727905D01*
X125057837Y-69782277D01*
X124994366Y-69834366D01*
X124808794Y-70060486D01*
X124670901Y-70318466D01*
X124585987Y-70598389D01*
X124557315Y-70889500D01*
X117500000Y-70889500D01*
X117500000Y-63271061D01*
X126917500Y-63271061D01*
X126917500Y-63474939D01*
X126957274Y-63674898D01*
X127035295Y-63863256D01*
X127148563Y-64032774D01*
X127292726Y-64176937D01*
X127462244Y-64290205D01*
X127650602Y-64368226D01*
X127850561Y-64408000D01*
X128054439Y-64408000D01*
X128254398Y-64368226D01*
X128442756Y-64290205D01*
X128612274Y-64176937D01*
X128756437Y-64032774D01*
X128869705Y-63863256D01*
X128938710Y-63696664D01*
X160050580Y-63696664D01*
X160050580Y-63900542D01*
X160090354Y-64100501D01*
X160168375Y-64288859D01*
X160281643Y-64458377D01*
X160425806Y-64602540D01*
X160595324Y-64715808D01*
X160783682Y-64793829D01*
X160983641Y-64833603D01*
X161187519Y-64833603D01*
X161387478Y-64793829D01*
X161575836Y-64715808D01*
X161745354Y-64602540D01*
X161889517Y-64458377D01*
X162002785Y-64288859D01*
X162080806Y-64100501D01*
X162120580Y-63900542D01*
X162120580Y-63696664D01*
X162080806Y-63496705D01*
X162002785Y-63308347D01*
X161889517Y-63138829D01*
X161745354Y-62994666D01*
X161575836Y-62881398D01*
X161387478Y-62803377D01*
X161187519Y-62763603D01*
X160983641Y-62763603D01*
X160783682Y-62803377D01*
X160595324Y-62881398D01*
X160425806Y-62994666D01*
X160281643Y-63138829D01*
X160168375Y-63308347D01*
X160090354Y-63496705D01*
X160050580Y-63696664D01*
X128938710Y-63696664D01*
X128947726Y-63674898D01*
X128987500Y-63474939D01*
X128987500Y-63271061D01*
X128947726Y-63071102D01*
X128869705Y-62882744D01*
X128756437Y-62713226D01*
X128612274Y-62569063D01*
X128442756Y-62455795D01*
X128254398Y-62377774D01*
X128054439Y-62338000D01*
X127850561Y-62338000D01*
X127650602Y-62377774D01*
X127462244Y-62455795D01*
X127292726Y-62569063D01*
X127148563Y-62713226D01*
X127035295Y-62882744D01*
X126957274Y-63071102D01*
X126917500Y-63271061D01*
X117500000Y-63271061D01*
X117500000Y-61556561D01*
X143681500Y-61556561D01*
X143681500Y-61760439D01*
X143721274Y-61960398D01*
X143799295Y-62148756D01*
X143912563Y-62318274D01*
X144056726Y-62462437D01*
X144226244Y-62575705D01*
X144414602Y-62653726D01*
X144614561Y-62693500D01*
X144818439Y-62693500D01*
X145018398Y-62653726D01*
X145206756Y-62575705D01*
X145376274Y-62462437D01*
X145520437Y-62318274D01*
X145633705Y-62148756D01*
X145711726Y-61960398D01*
X145728899Y-61874061D01*
X158731000Y-61874061D01*
X158731000Y-62077939D01*
X158770774Y-62277898D01*
X158848795Y-62466256D01*
X158962063Y-62635774D01*
X159106226Y-62779937D01*
X159275744Y-62893205D01*
X159464102Y-62971226D01*
X159664061Y-63011000D01*
X159867939Y-63011000D01*
X160067898Y-62971226D01*
X160256256Y-62893205D01*
X160425774Y-62779937D01*
X160569937Y-62635774D01*
X160683205Y-62466256D01*
X160761226Y-62277898D01*
X160801000Y-62077939D01*
X160801000Y-61874061D01*
X160761226Y-61674102D01*
X160683205Y-61485744D01*
X160569937Y-61316226D01*
X160425774Y-61172063D01*
X160256256Y-61058795D01*
X160067898Y-60980774D01*
X159867939Y-60941000D01*
X159664061Y-60941000D01*
X159464102Y-60980774D01*
X159275744Y-61058795D01*
X159106226Y-61172063D01*
X158962063Y-61316226D01*
X158848795Y-61485744D01*
X158770774Y-61674102D01*
X158731000Y-61874061D01*
X145728899Y-61874061D01*
X145751500Y-61760439D01*
X145751500Y-61556561D01*
X145711726Y-61356602D01*
X145633705Y-61168244D01*
X145520437Y-60998726D01*
X145376274Y-60854563D01*
X145206756Y-60741295D01*
X145018398Y-60663274D01*
X144818439Y-60623500D01*
X144614561Y-60623500D01*
X144414602Y-60663274D01*
X144226244Y-60741295D01*
X144056726Y-60854563D01*
X143912563Y-60998726D01*
X143799295Y-61168244D01*
X143721274Y-61356602D01*
X143681500Y-61556561D01*
X117500000Y-61556561D01*
X117500000Y-60350061D01*
X148507500Y-60350061D01*
X148507500Y-60553939D01*
X148547274Y-60753898D01*
X148625295Y-60942256D01*
X148738563Y-61111774D01*
X148882726Y-61255937D01*
X149052244Y-61369205D01*
X149240602Y-61447226D01*
X149440561Y-61487000D01*
X149644439Y-61487000D01*
X149844398Y-61447226D01*
X150032756Y-61369205D01*
X150202274Y-61255937D01*
X150346437Y-61111774D01*
X150459705Y-60942256D01*
X150537726Y-60753898D01*
X150577500Y-60553939D01*
X150577500Y-60350061D01*
X150537726Y-60150102D01*
X150459705Y-59961744D01*
X150346437Y-59792226D01*
X150202274Y-59648063D01*
X150032756Y-59534795D01*
X149844398Y-59456774D01*
X149644439Y-59417000D01*
X149440561Y-59417000D01*
X149240602Y-59456774D01*
X149052244Y-59534795D01*
X148882726Y-59648063D01*
X148738563Y-59792226D01*
X148625295Y-59961744D01*
X148547274Y-60150102D01*
X148507500Y-60350061D01*
X117500000Y-60350061D01*
X117500000Y-58635561D01*
X152254000Y-58635561D01*
X152254000Y-58839439D01*
X152293774Y-59039398D01*
X152371795Y-59227756D01*
X152485063Y-59397274D01*
X152629226Y-59541437D01*
X152798744Y-59654705D01*
X152824575Y-59665405D01*
X152824575Y-59803939D01*
X152864349Y-60003898D01*
X152942370Y-60192256D01*
X153055638Y-60361774D01*
X153199801Y-60505937D01*
X153369319Y-60619205D01*
X153557677Y-60697226D01*
X153757636Y-60737000D01*
X153961514Y-60737000D01*
X154161473Y-60697226D01*
X154349831Y-60619205D01*
X154519349Y-60505937D01*
X154663512Y-60361774D01*
X154776780Y-60192256D01*
X154854801Y-60003898D01*
X154894575Y-59803939D01*
X154894575Y-59600061D01*
X154854801Y-59400102D01*
X154776780Y-59211744D01*
X154663512Y-59042226D01*
X154519349Y-58898063D01*
X154349831Y-58784795D01*
X154324000Y-58774095D01*
X154324000Y-58635561D01*
X154286108Y-58445061D01*
X159239000Y-58445061D01*
X159239000Y-58648939D01*
X159278774Y-58848898D01*
X159356795Y-59037256D01*
X159470063Y-59206774D01*
X159614226Y-59350937D01*
X159783744Y-59464205D01*
X159972102Y-59542226D01*
X160172061Y-59582000D01*
X160375939Y-59582000D01*
X160575898Y-59542226D01*
X160764256Y-59464205D01*
X160933774Y-59350937D01*
X161077937Y-59206774D01*
X161191205Y-59037256D01*
X161269226Y-58848898D01*
X161309000Y-58648939D01*
X161309000Y-58445061D01*
X161269226Y-58245102D01*
X161191205Y-58056744D01*
X161077937Y-57887226D01*
X160933774Y-57743063D01*
X160764256Y-57629795D01*
X160575898Y-57551774D01*
X160375939Y-57512000D01*
X160172061Y-57512000D01*
X159972102Y-57551774D01*
X159783744Y-57629795D01*
X159614226Y-57743063D01*
X159470063Y-57887226D01*
X159356795Y-58056744D01*
X159278774Y-58245102D01*
X159239000Y-58445061D01*
X154286108Y-58445061D01*
X154284226Y-58435602D01*
X154206205Y-58247244D01*
X154092937Y-58077726D01*
X153948774Y-57933563D01*
X153779256Y-57820295D01*
X153590898Y-57742274D01*
X153390939Y-57702500D01*
X153187061Y-57702500D01*
X152987102Y-57742274D01*
X152798744Y-57820295D01*
X152629226Y-57933563D01*
X152485063Y-58077726D01*
X152371795Y-58247244D01*
X152293774Y-58435602D01*
X152254000Y-58635561D01*
X117500000Y-58635561D01*
X117500000Y-56159061D01*
X141586000Y-56159061D01*
X141586000Y-56362939D01*
X141625774Y-56562898D01*
X141703795Y-56751256D01*
X141817063Y-56920774D01*
X141961226Y-57064937D01*
X142130744Y-57178205D01*
X142319102Y-57256226D01*
X142519061Y-57296000D01*
X142722939Y-57296000D01*
X142922898Y-57256226D01*
X143111256Y-57178205D01*
X143280774Y-57064937D01*
X143424937Y-56920774D01*
X143538205Y-56751256D01*
X143616226Y-56562898D01*
X143656000Y-56362939D01*
X143656000Y-56159061D01*
X143616226Y-55959102D01*
X143538205Y-55770744D01*
X143424937Y-55601226D01*
X143280774Y-55457063D01*
X143111256Y-55343795D01*
X142922898Y-55265774D01*
X142722939Y-55226000D01*
X142519061Y-55226000D01*
X142319102Y-55265774D01*
X142130744Y-55343795D01*
X141961226Y-55457063D01*
X141817063Y-55601226D01*
X141703795Y-55770744D01*
X141625774Y-55959102D01*
X141586000Y-56159061D01*
X117500000Y-56159061D01*
X117500000Y-55560558D01*
X117546525Y-55607083D01*
X117662193Y-55491415D01*
X117757956Y-55755814D01*
X118047571Y-55896704D01*
X118359108Y-55978384D01*
X118680595Y-55997718D01*
X118999675Y-55953961D01*
X119304088Y-55848795D01*
X119478044Y-55755814D01*
X119573808Y-55491413D01*
X118618000Y-54535605D01*
X118603858Y-54549748D01*
X118424253Y-54370143D01*
X118438395Y-54356000D01*
X118797605Y-54356000D01*
X119753413Y-55311808D01*
X120017814Y-55216044D01*
X120158704Y-54926429D01*
X120240384Y-54614892D01*
X120259718Y-54293405D01*
X120246219Y-54194967D01*
X121483000Y-54194967D01*
X121483000Y-54517033D01*
X121545832Y-54832912D01*
X121669082Y-55130463D01*
X121848013Y-55398252D01*
X122075748Y-55625987D01*
X122343537Y-55804918D01*
X122641088Y-55928168D01*
X122956967Y-55991000D01*
X123279033Y-55991000D01*
X123594912Y-55928168D01*
X123892463Y-55804918D01*
X124160252Y-55625987D01*
X124387987Y-55398252D01*
X124566918Y-55130463D01*
X124690168Y-54832912D01*
X124753000Y-54517033D01*
X124753000Y-54317561D01*
X145840500Y-54317561D01*
X145840500Y-54521439D01*
X145880274Y-54721398D01*
X145958295Y-54909756D01*
X146071563Y-55079274D01*
X146215726Y-55223437D01*
X146385244Y-55336705D01*
X146573602Y-55414726D01*
X146773561Y-55454500D01*
X146977439Y-55454500D01*
X147177398Y-55414726D01*
X147365756Y-55336705D01*
X147535274Y-55223437D01*
X147679437Y-55079274D01*
X147792705Y-54909756D01*
X147870726Y-54721398D01*
X147910500Y-54521439D01*
X147910500Y-54317561D01*
X147870726Y-54117602D01*
X147792705Y-53929244D01*
X147712736Y-53809561D01*
X150666500Y-53809561D01*
X150666500Y-54013439D01*
X150706274Y-54213398D01*
X150784295Y-54401756D01*
X150897563Y-54571274D01*
X150912917Y-54586628D01*
X150896774Y-54625602D01*
X150857000Y-54825561D01*
X150857000Y-55029439D01*
X150896774Y-55229398D01*
X150974795Y-55417756D01*
X151088063Y-55587274D01*
X151232226Y-55731437D01*
X151401744Y-55844705D01*
X151590102Y-55922726D01*
X151790061Y-55962500D01*
X151993939Y-55962500D01*
X152193898Y-55922726D01*
X152382256Y-55844705D01*
X152551774Y-55731437D01*
X152695937Y-55587274D01*
X152809205Y-55417756D01*
X152887226Y-55229398D01*
X152927000Y-55029439D01*
X152927000Y-54825561D01*
X152887226Y-54625602D01*
X152809205Y-54437244D01*
X152695937Y-54267726D01*
X152680583Y-54252372D01*
X152696726Y-54213398D01*
X152736500Y-54013439D01*
X152736500Y-53809561D01*
X152696726Y-53609602D01*
X152618705Y-53421244D01*
X152505437Y-53251726D01*
X152361274Y-53107563D01*
X152191756Y-52994295D01*
X152003398Y-52916274D01*
X151803439Y-52876500D01*
X151599561Y-52876500D01*
X151399602Y-52916274D01*
X151211244Y-52994295D01*
X151041726Y-53107563D01*
X150897563Y-53251726D01*
X150784295Y-53421244D01*
X150706274Y-53609602D01*
X150666500Y-53809561D01*
X147712736Y-53809561D01*
X147679437Y-53759726D01*
X147535274Y-53615563D01*
X147365756Y-53502295D01*
X147177398Y-53424274D01*
X146977439Y-53384500D01*
X146773561Y-53384500D01*
X146573602Y-53424274D01*
X146385244Y-53502295D01*
X146215726Y-53615563D01*
X146071563Y-53759726D01*
X145958295Y-53929244D01*
X145880274Y-54117602D01*
X145840500Y-54317561D01*
X124753000Y-54317561D01*
X124753000Y-54194967D01*
X124690168Y-53879088D01*
X124566918Y-53581537D01*
X124387987Y-53313748D01*
X124160252Y-53086013D01*
X123892463Y-52907082D01*
X123594912Y-52783832D01*
X123279033Y-52721000D01*
X122956967Y-52721000D01*
X122641088Y-52783832D01*
X122343537Y-52907082D01*
X122075748Y-53086013D01*
X121848013Y-53313748D01*
X121669082Y-53581537D01*
X121545832Y-53879088D01*
X121483000Y-54194967D01*
X120246219Y-54194967D01*
X120215961Y-53974325D01*
X120110795Y-53669912D01*
X120017814Y-53495956D01*
X119753413Y-53400192D01*
X118797605Y-54356000D01*
X118438395Y-54356000D01*
X118424253Y-54341858D01*
X118603858Y-54162253D01*
X118618000Y-54176395D01*
X119573808Y-53220587D01*
X119478044Y-52956186D01*
X119188429Y-52815296D01*
X118876892Y-52733616D01*
X118555405Y-52714282D01*
X118236325Y-52758039D01*
X117931912Y-52863205D01*
X117757956Y-52956186D01*
X117662193Y-53220585D01*
X117546525Y-53104917D01*
X117500000Y-53151442D01*
X117500000Y-50134063D01*
X145586500Y-50134063D01*
X145586500Y-50337941D01*
X145626274Y-50537900D01*
X145704295Y-50726258D01*
X145817563Y-50895776D01*
X145961726Y-51039939D01*
X146131244Y-51153207D01*
X146319602Y-51231228D01*
X146519561Y-51271002D01*
X146603346Y-51271002D01*
X146685037Y-51393262D01*
X146745464Y-51453689D01*
X146712970Y-51475400D01*
X146568807Y-51619563D01*
X146455539Y-51789081D01*
X146377518Y-51977439D01*
X146337744Y-52177398D01*
X146337744Y-52381276D01*
X146377518Y-52581235D01*
X146455539Y-52769593D01*
X146568807Y-52939111D01*
X146712970Y-53083274D01*
X146882488Y-53196542D01*
X147070846Y-53274563D01*
X147270805Y-53314337D01*
X147474683Y-53314337D01*
X147674642Y-53274563D01*
X147863000Y-53196542D01*
X148032518Y-53083274D01*
X148176681Y-52939111D01*
X148289949Y-52769593D01*
X148367970Y-52581235D01*
X148407744Y-52381276D01*
X148407744Y-52177398D01*
X148367970Y-51977439D01*
X148289949Y-51789081D01*
X148282252Y-51777561D01*
X154107500Y-51777561D01*
X154107500Y-51981439D01*
X154147274Y-52181398D01*
X154225295Y-52369756D01*
X154338563Y-52539274D01*
X154482726Y-52683437D01*
X154652244Y-52796705D01*
X154794301Y-52855547D01*
X154794000Y-52857061D01*
X154794000Y-53060939D01*
X154833774Y-53260898D01*
X154911795Y-53449256D01*
X155025063Y-53618774D01*
X155169226Y-53762937D01*
X155338744Y-53876205D01*
X155365500Y-53887288D01*
X155365500Y-53949939D01*
X155405274Y-54149898D01*
X155413557Y-54169896D01*
X155295939Y-54146500D01*
X155092061Y-54146500D01*
X154892102Y-54186274D01*
X154703744Y-54264295D01*
X154534226Y-54377563D01*
X154390063Y-54521726D01*
X154276795Y-54691244D01*
X154198774Y-54879602D01*
X154159000Y-55079561D01*
X154159000Y-55283439D01*
X154198774Y-55483398D01*
X154276795Y-55671756D01*
X154390063Y-55841274D01*
X154534226Y-55985437D01*
X154703744Y-56098705D01*
X154892102Y-56176726D01*
X155092061Y-56216500D01*
X155295939Y-56216500D01*
X155495898Y-56176726D01*
X155684256Y-56098705D01*
X155853774Y-55985437D01*
X155997650Y-55841561D01*
X160953500Y-55841561D01*
X160953500Y-56045439D01*
X160993274Y-56245398D01*
X161071295Y-56433756D01*
X161184563Y-56603274D01*
X161328726Y-56747437D01*
X161498244Y-56860705D01*
X161686602Y-56938726D01*
X161886561Y-56978500D01*
X162090439Y-56978500D01*
X162290398Y-56938726D01*
X162478756Y-56860705D01*
X162648274Y-56747437D01*
X162792437Y-56603274D01*
X162905705Y-56433756D01*
X162983726Y-56245398D01*
X163023500Y-56045439D01*
X163023500Y-55841561D01*
X162983726Y-55641602D01*
X162905705Y-55453244D01*
X162792437Y-55283726D01*
X162648274Y-55139563D01*
X162478756Y-55026295D01*
X162290398Y-54948274D01*
X162090439Y-54908500D01*
X161886561Y-54908500D01*
X161686602Y-54948274D01*
X161498244Y-55026295D01*
X161328726Y-55139563D01*
X161184563Y-55283726D01*
X161071295Y-55453244D01*
X160993274Y-55641602D01*
X160953500Y-55841561D01*
X155997650Y-55841561D01*
X155997937Y-55841274D01*
X156111205Y-55671756D01*
X156189226Y-55483398D01*
X156229000Y-55283439D01*
X156229000Y-55079561D01*
X156189226Y-54879602D01*
X156180943Y-54859604D01*
X156298561Y-54883000D01*
X156502439Y-54883000D01*
X156702398Y-54843226D01*
X156890756Y-54765205D01*
X157060274Y-54651937D01*
X157204437Y-54507774D01*
X157317705Y-54338256D01*
X157395726Y-54149898D01*
X157435500Y-53949939D01*
X157435500Y-53746061D01*
X157395726Y-53546102D01*
X157317705Y-53357744D01*
X157204437Y-53188226D01*
X157060274Y-53044063D01*
X156890756Y-52930795D01*
X156864000Y-52919712D01*
X156864000Y-52914500D01*
X156883439Y-52914500D01*
X157083398Y-52874726D01*
X157271756Y-52796705D01*
X157441274Y-52683437D01*
X157585437Y-52539274D01*
X157698705Y-52369756D01*
X157776726Y-52181398D01*
X157816500Y-51981439D01*
X157816500Y-51777561D01*
X157778608Y-51587061D01*
X161779000Y-51587061D01*
X161779000Y-51790939D01*
X161818774Y-51990898D01*
X161896795Y-52179256D01*
X162010063Y-52348774D01*
X162154226Y-52492937D01*
X162323744Y-52606205D01*
X162512102Y-52684226D01*
X162712061Y-52724000D01*
X162915939Y-52724000D01*
X163115898Y-52684226D01*
X163304256Y-52606205D01*
X163473774Y-52492937D01*
X163617937Y-52348774D01*
X163731205Y-52179256D01*
X163809226Y-51990898D01*
X163849000Y-51790939D01*
X163849000Y-51587061D01*
X163809226Y-51387102D01*
X163731205Y-51198744D01*
X163617937Y-51029226D01*
X163473774Y-50885063D01*
X163304256Y-50771795D01*
X163115898Y-50693774D01*
X162915939Y-50654000D01*
X162712061Y-50654000D01*
X162512102Y-50693774D01*
X162323744Y-50771795D01*
X162154226Y-50885063D01*
X162010063Y-51029226D01*
X161896795Y-51198744D01*
X161818774Y-51387102D01*
X161779000Y-51587061D01*
X157778608Y-51587061D01*
X157776726Y-51577602D01*
X157698705Y-51389244D01*
X157594524Y-51233326D01*
X157652756Y-51209205D01*
X157822274Y-51095937D01*
X157966437Y-50951774D01*
X158079705Y-50782256D01*
X158157726Y-50593898D01*
X158197500Y-50393939D01*
X158197500Y-50284000D01*
X164167928Y-50284000D01*
X164167928Y-51634000D01*
X164180188Y-51758482D01*
X164216498Y-51878180D01*
X164275463Y-51988494D01*
X164354815Y-52085185D01*
X164441697Y-52156487D01*
X164320093Y-52338482D01*
X164221342Y-52576887D01*
X164171000Y-52829976D01*
X164171000Y-53088024D01*
X164221342Y-53341113D01*
X164320093Y-53579518D01*
X164463456Y-53794077D01*
X164628379Y-53959000D01*
X164463456Y-54123923D01*
X164320093Y-54338482D01*
X164221342Y-54576887D01*
X164171000Y-54829976D01*
X164171000Y-55088024D01*
X164221342Y-55341113D01*
X164320093Y-55579518D01*
X164463456Y-55794077D01*
X164645923Y-55976544D01*
X164860482Y-56119907D01*
X165098887Y-56218658D01*
X165351976Y-56269000D01*
X165610024Y-56269000D01*
X165863113Y-56218658D01*
X166101518Y-56119907D01*
X166316077Y-55976544D01*
X166485715Y-55806906D01*
X166502697Y-55830227D01*
X166691463Y-56004344D01*
X166910570Y-56138289D01*
X167151599Y-56226915D01*
X167354000Y-56104085D01*
X167354000Y-55086000D01*
X167608000Y-55086000D01*
X167608000Y-56104085D01*
X167810401Y-56226915D01*
X168051430Y-56138289D01*
X168270537Y-56004344D01*
X168459303Y-55830227D01*
X168610473Y-55622629D01*
X168718238Y-55389528D01*
X168748910Y-55288400D01*
X168625224Y-55086000D01*
X167608000Y-55086000D01*
X167354000Y-55086000D01*
X167334000Y-55086000D01*
X167334000Y-54832000D01*
X167354000Y-54832000D01*
X167354000Y-54812000D01*
X167608000Y-54812000D01*
X167608000Y-54832000D01*
X168625224Y-54832000D01*
X168748910Y-54629600D01*
X168718238Y-54528472D01*
X168610473Y-54295371D01*
X168459303Y-54087773D01*
X168326940Y-53965681D01*
X168498544Y-53794077D01*
X168641907Y-53579518D01*
X168740658Y-53341113D01*
X168764000Y-53223764D01*
X168764000Y-53314939D01*
X168803774Y-53514898D01*
X168881795Y-53703256D01*
X168995063Y-53872774D01*
X169139226Y-54016937D01*
X169308744Y-54130205D01*
X169497102Y-54208226D01*
X169697061Y-54248000D01*
X169900939Y-54248000D01*
X170100898Y-54208226D01*
X170289256Y-54130205D01*
X170458774Y-54016937D01*
X170602937Y-53872774D01*
X170716205Y-53703256D01*
X170794226Y-53514898D01*
X170834000Y-53314939D01*
X170834000Y-53111061D01*
X170794226Y-52911102D01*
X170716205Y-52722744D01*
X170602937Y-52553226D01*
X170458774Y-52409063D01*
X170289256Y-52295795D01*
X170100898Y-52217774D01*
X169900939Y-52178000D01*
X169697061Y-52178000D01*
X169497102Y-52217774D01*
X169308744Y-52295795D01*
X169139226Y-52409063D01*
X168995063Y-52553226D01*
X168881795Y-52722744D01*
X168803774Y-52911102D01*
X168791000Y-52975322D01*
X168791000Y-52829976D01*
X168740658Y-52576887D01*
X168641907Y-52338482D01*
X168498544Y-52123923D01*
X168333621Y-51959000D01*
X168498544Y-51794077D01*
X168641907Y-51579518D01*
X168740658Y-51341113D01*
X168791000Y-51088024D01*
X168791000Y-50829976D01*
X168740658Y-50576887D01*
X168641907Y-50338482D01*
X168498544Y-50123923D01*
X168316077Y-49941456D01*
X168101518Y-49798093D01*
X167863113Y-49699342D01*
X167610024Y-49649000D01*
X167351976Y-49649000D01*
X167098887Y-49699342D01*
X166860482Y-49798093D01*
X166678487Y-49919697D01*
X166607185Y-49832815D01*
X166510494Y-49753463D01*
X166400180Y-49694498D01*
X166280482Y-49658188D01*
X166156000Y-49645928D01*
X164806000Y-49645928D01*
X164681518Y-49658188D01*
X164561820Y-49694498D01*
X164451506Y-49753463D01*
X164354815Y-49832815D01*
X164275463Y-49929506D01*
X164216498Y-50039820D01*
X164180188Y-50159518D01*
X164167928Y-50284000D01*
X158197500Y-50284000D01*
X158197500Y-50190061D01*
X158157726Y-49990102D01*
X158079705Y-49801744D01*
X157966437Y-49632226D01*
X157822274Y-49488063D01*
X157652756Y-49374795D01*
X157464398Y-49296774D01*
X157264439Y-49257000D01*
X157060561Y-49257000D01*
X156860602Y-49296774D01*
X156672244Y-49374795D01*
X156502726Y-49488063D01*
X156358563Y-49632226D01*
X156245295Y-49801744D01*
X156167274Y-49990102D01*
X156127500Y-50190061D01*
X156127500Y-50393939D01*
X156167274Y-50593898D01*
X156245295Y-50782256D01*
X156349476Y-50938174D01*
X156291244Y-50962295D01*
X156121726Y-51075563D01*
X155977563Y-51219726D01*
X155962000Y-51243018D01*
X155946437Y-51219726D01*
X155802274Y-51075563D01*
X155632756Y-50962295D01*
X155444398Y-50884274D01*
X155244439Y-50844500D01*
X155040561Y-50844500D01*
X154840602Y-50884274D01*
X154652244Y-50962295D01*
X154482726Y-51075563D01*
X154338563Y-51219726D01*
X154225295Y-51389244D01*
X154147274Y-51577602D01*
X154107500Y-51777561D01*
X148282252Y-51777561D01*
X148176681Y-51619563D01*
X148116254Y-51559136D01*
X148148748Y-51537425D01*
X148292911Y-51393262D01*
X148377195Y-51267121D01*
X148421063Y-51332774D01*
X148565226Y-51476937D01*
X148734744Y-51590205D01*
X148923102Y-51668226D01*
X149123061Y-51708000D01*
X149326939Y-51708000D01*
X149526898Y-51668226D01*
X149715256Y-51590205D01*
X149884774Y-51476937D01*
X150028937Y-51332774D01*
X150142205Y-51163256D01*
X150220226Y-50974898D01*
X150260000Y-50774939D01*
X150260000Y-50571061D01*
X150220226Y-50371102D01*
X150158077Y-50221060D01*
X150984000Y-50221060D01*
X150984000Y-50424938D01*
X151023774Y-50624897D01*
X151101795Y-50813255D01*
X151215063Y-50982773D01*
X151359226Y-51126936D01*
X151528744Y-51240204D01*
X151717102Y-51318225D01*
X151917061Y-51357999D01*
X152120939Y-51357999D01*
X152320898Y-51318225D01*
X152509256Y-51240204D01*
X152678774Y-51126936D01*
X152822937Y-50982773D01*
X152936205Y-50813255D01*
X153014226Y-50624897D01*
X153054000Y-50424938D01*
X153054000Y-50221060D01*
X153014226Y-50021101D01*
X152936205Y-49832743D01*
X152822937Y-49663225D01*
X152678774Y-49519062D01*
X152509256Y-49405794D01*
X152320898Y-49327773D01*
X152120939Y-49287999D01*
X151917061Y-49287999D01*
X151717102Y-49327773D01*
X151528744Y-49405794D01*
X151359226Y-49519062D01*
X151215063Y-49663225D01*
X151101795Y-49832743D01*
X151023774Y-50021101D01*
X150984000Y-50221060D01*
X150158077Y-50221060D01*
X150142205Y-50182744D01*
X150028937Y-50013226D01*
X149884774Y-49869063D01*
X149715256Y-49755795D01*
X149526898Y-49677774D01*
X149326939Y-49638000D01*
X149123061Y-49638000D01*
X148923102Y-49677774D01*
X148734744Y-49755795D01*
X148565226Y-49869063D01*
X148421063Y-50013226D01*
X148336779Y-50139367D01*
X148292911Y-50073714D01*
X148148748Y-49929551D01*
X147979230Y-49816283D01*
X147790872Y-49738262D01*
X147590913Y-49698488D01*
X147507128Y-49698488D01*
X147425437Y-49576228D01*
X147281274Y-49432065D01*
X147111756Y-49318797D01*
X146923398Y-49240776D01*
X146723439Y-49201002D01*
X146519561Y-49201002D01*
X146319602Y-49240776D01*
X146131244Y-49318797D01*
X145961726Y-49432065D01*
X145817563Y-49576228D01*
X145704295Y-49745746D01*
X145626274Y-49934104D01*
X145586500Y-50134063D01*
X117500000Y-50134063D01*
X117500000Y-49060558D01*
X117546525Y-49107083D01*
X117662193Y-48991415D01*
X117757956Y-49255814D01*
X118047571Y-49396704D01*
X118359108Y-49478384D01*
X118680595Y-49497718D01*
X118999675Y-49453961D01*
X119304088Y-49348795D01*
X119478044Y-49255814D01*
X119573808Y-48991413D01*
X118618000Y-48035605D01*
X118603858Y-48049748D01*
X118424253Y-47870143D01*
X118438395Y-47856000D01*
X118797605Y-47856000D01*
X119753413Y-48811808D01*
X120017814Y-48716044D01*
X120158704Y-48426429D01*
X120240384Y-48114892D01*
X120259718Y-47793405D01*
X120246219Y-47694967D01*
X121483000Y-47694967D01*
X121483000Y-48017033D01*
X121545832Y-48332912D01*
X121669082Y-48630463D01*
X121848013Y-48898252D01*
X122075748Y-49125987D01*
X122343537Y-49304918D01*
X122641088Y-49428168D01*
X122956967Y-49491000D01*
X123279033Y-49491000D01*
X123594912Y-49428168D01*
X123892463Y-49304918D01*
X124160252Y-49125987D01*
X124387987Y-48898252D01*
X124566918Y-48630463D01*
X124690168Y-48332912D01*
X124753000Y-48017033D01*
X124753000Y-47967561D01*
X142284500Y-47967561D01*
X142284500Y-48171439D01*
X142324274Y-48371398D01*
X142402295Y-48559756D01*
X142515563Y-48729274D01*
X142659726Y-48873437D01*
X142829244Y-48986705D01*
X143017602Y-49064726D01*
X143217561Y-49104500D01*
X143421439Y-49104500D01*
X143621398Y-49064726D01*
X143809756Y-48986705D01*
X143979274Y-48873437D01*
X144123437Y-48729274D01*
X144236705Y-48559756D01*
X144314726Y-48371398D01*
X144354500Y-48171439D01*
X144354500Y-47967561D01*
X144314726Y-47767602D01*
X144236705Y-47579244D01*
X144123437Y-47409726D01*
X143979274Y-47265563D01*
X143889475Y-47205561D01*
X144761000Y-47205561D01*
X144761000Y-47409439D01*
X144800774Y-47609398D01*
X144878795Y-47797756D01*
X144992063Y-47967274D01*
X145136226Y-48111437D01*
X145305744Y-48224705D01*
X145494102Y-48302726D01*
X145694061Y-48342500D01*
X145897939Y-48342500D01*
X146097898Y-48302726D01*
X146286256Y-48224705D01*
X146455774Y-48111437D01*
X146599937Y-47967274D01*
X146713205Y-47797756D01*
X146791226Y-47609398D01*
X146831000Y-47409439D01*
X146831000Y-47269061D01*
X148825000Y-47269061D01*
X148825000Y-47472939D01*
X148864774Y-47672898D01*
X148942795Y-47861256D01*
X149056063Y-48030774D01*
X149200226Y-48174937D01*
X149369744Y-48288205D01*
X149558102Y-48366226D01*
X149758061Y-48406000D01*
X149961939Y-48406000D01*
X150161898Y-48366226D01*
X150350256Y-48288205D01*
X150519774Y-48174937D01*
X150663937Y-48030774D01*
X150685500Y-47998502D01*
X150707063Y-48030773D01*
X150851226Y-48174936D01*
X151020744Y-48288204D01*
X151209102Y-48366225D01*
X151409061Y-48405999D01*
X151612939Y-48405999D01*
X151812898Y-48366225D01*
X152001256Y-48288204D01*
X152170774Y-48174936D01*
X152314937Y-48030773D01*
X152428205Y-47861255D01*
X152506226Y-47672897D01*
X152546000Y-47472938D01*
X152546000Y-47269060D01*
X154032000Y-47269060D01*
X154032000Y-47472938D01*
X154071774Y-47672897D01*
X154149795Y-47861255D01*
X154263063Y-48030773D01*
X154407226Y-48174936D01*
X154576744Y-48288204D01*
X154765102Y-48366225D01*
X154965061Y-48405999D01*
X155168939Y-48405999D01*
X155368898Y-48366225D01*
X155557256Y-48288204D01*
X155726774Y-48174936D01*
X155870937Y-48030773D01*
X155984205Y-47861255D01*
X156062226Y-47672897D01*
X156102000Y-47472938D01*
X156102000Y-47269060D01*
X156062226Y-47069101D01*
X155984205Y-46880743D01*
X155870937Y-46711225D01*
X155726774Y-46567062D01*
X155557256Y-46453794D01*
X155368898Y-46375773D01*
X155168939Y-46335999D01*
X154965061Y-46335999D01*
X154765102Y-46375773D01*
X154576744Y-46453794D01*
X154407226Y-46567062D01*
X154263063Y-46711225D01*
X154149795Y-46880743D01*
X154071774Y-47069101D01*
X154032000Y-47269060D01*
X152546000Y-47269060D01*
X152506226Y-47069101D01*
X152428205Y-46880743D01*
X152314937Y-46711225D01*
X152170774Y-46567062D01*
X152001256Y-46453794D01*
X151812898Y-46375773D01*
X151612939Y-46335999D01*
X151409061Y-46335999D01*
X151209102Y-46375773D01*
X151020744Y-46453794D01*
X150851226Y-46567062D01*
X150707063Y-46711225D01*
X150685500Y-46743497D01*
X150663937Y-46711226D01*
X150519774Y-46567063D01*
X150350256Y-46453795D01*
X150161898Y-46375774D01*
X149961939Y-46336000D01*
X149758061Y-46336000D01*
X149558102Y-46375774D01*
X149369744Y-46453795D01*
X149200226Y-46567063D01*
X149056063Y-46711226D01*
X148942795Y-46880744D01*
X148864774Y-47069102D01*
X148825000Y-47269061D01*
X146831000Y-47269061D01*
X146831000Y-47205561D01*
X146791226Y-47005602D01*
X146713205Y-46817244D01*
X146599937Y-46647726D01*
X146455774Y-46503563D01*
X146286256Y-46390295D01*
X146097898Y-46312274D01*
X145897939Y-46272500D01*
X145694061Y-46272500D01*
X145494102Y-46312274D01*
X145305744Y-46390295D01*
X145136226Y-46503563D01*
X144992063Y-46647726D01*
X144878795Y-46817244D01*
X144800774Y-47005602D01*
X144761000Y-47205561D01*
X143889475Y-47205561D01*
X143809756Y-47152295D01*
X143621398Y-47074274D01*
X143421439Y-47034500D01*
X143217561Y-47034500D01*
X143017602Y-47074274D01*
X142829244Y-47152295D01*
X142659726Y-47265563D01*
X142515563Y-47409726D01*
X142402295Y-47579244D01*
X142324274Y-47767602D01*
X142284500Y-47967561D01*
X124753000Y-47967561D01*
X124753000Y-47694967D01*
X124690168Y-47379088D01*
X124566918Y-47081537D01*
X124387987Y-46813748D01*
X124160252Y-46586013D01*
X123892463Y-46407082D01*
X123594912Y-46283832D01*
X123279033Y-46221000D01*
X122956967Y-46221000D01*
X122641088Y-46283832D01*
X122343537Y-46407082D01*
X122075748Y-46586013D01*
X121848013Y-46813748D01*
X121669082Y-47081537D01*
X121545832Y-47379088D01*
X121483000Y-47694967D01*
X120246219Y-47694967D01*
X120215961Y-47474325D01*
X120110795Y-47169912D01*
X120017814Y-46995956D01*
X119753413Y-46900192D01*
X118797605Y-47856000D01*
X118438395Y-47856000D01*
X118424253Y-47841858D01*
X118603858Y-47662253D01*
X118618000Y-47676395D01*
X119573808Y-46720587D01*
X119527604Y-46593018D01*
X120014132Y-46542481D01*
X120547661Y-46377528D01*
X121013524Y-46128518D01*
X121133184Y-45935561D01*
X139617500Y-45935561D01*
X139617500Y-46139439D01*
X139657274Y-46339398D01*
X139735295Y-46527756D01*
X139848563Y-46697274D01*
X139992726Y-46841437D01*
X140162244Y-46954705D01*
X140350602Y-47032726D01*
X140550561Y-47072500D01*
X140754439Y-47072500D01*
X140954398Y-47032726D01*
X141142756Y-46954705D01*
X141312274Y-46841437D01*
X141456437Y-46697274D01*
X141569705Y-46527756D01*
X141647726Y-46339398D01*
X141687500Y-46139439D01*
X141687500Y-45935561D01*
X141647726Y-45735602D01*
X141569705Y-45547244D01*
X141456437Y-45377726D01*
X141312274Y-45233563D01*
X141222475Y-45173561D01*
X147174000Y-45173561D01*
X147174000Y-45377439D01*
X147213774Y-45577398D01*
X147291795Y-45765756D01*
X147405063Y-45935274D01*
X147549226Y-46079437D01*
X147718744Y-46192705D01*
X147907102Y-46270726D01*
X148107061Y-46310500D01*
X148310939Y-46310500D01*
X148510898Y-46270726D01*
X148699256Y-46192705D01*
X148868774Y-46079437D01*
X149012937Y-45935274D01*
X149126205Y-45765756D01*
X149204226Y-45577398D01*
X149244000Y-45377439D01*
X149244000Y-45173561D01*
X149204226Y-44973602D01*
X149126205Y-44785244D01*
X149012937Y-44615726D01*
X148868774Y-44471563D01*
X148699256Y-44358295D01*
X148670781Y-44346500D01*
X150324928Y-44346500D01*
X150324928Y-45696500D01*
X150337188Y-45820982D01*
X150373498Y-45940680D01*
X150432463Y-46050994D01*
X150511815Y-46147685D01*
X150608506Y-46227037D01*
X150718820Y-46286002D01*
X150838518Y-46322312D01*
X150963000Y-46334572D01*
X152313000Y-46334572D01*
X152437482Y-46322312D01*
X152557180Y-46286002D01*
X152667494Y-46227037D01*
X152764185Y-46147685D01*
X152835487Y-46060803D01*
X153017482Y-46182407D01*
X153255887Y-46281158D01*
X153508976Y-46331500D01*
X153767024Y-46331500D01*
X154020113Y-46281158D01*
X154258518Y-46182407D01*
X154473077Y-46039044D01*
X154638000Y-45874121D01*
X154802923Y-46039044D01*
X155017482Y-46182407D01*
X155255887Y-46281158D01*
X155508976Y-46331500D01*
X155767024Y-46331500D01*
X156020113Y-46281158D01*
X156258518Y-46182407D01*
X156473077Y-46039044D01*
X156638000Y-45874121D01*
X156802923Y-46039044D01*
X157017482Y-46182407D01*
X157255887Y-46281158D01*
X157508976Y-46331500D01*
X157767024Y-46331500D01*
X158020113Y-46281158D01*
X158258518Y-46182407D01*
X158473077Y-46039044D01*
X158644681Y-45867440D01*
X158766773Y-45999803D01*
X158974371Y-46150973D01*
X159207472Y-46258738D01*
X159308600Y-46289410D01*
X159511000Y-46165724D01*
X159511000Y-45148500D01*
X159765000Y-45148500D01*
X159765000Y-46165724D01*
X159967400Y-46289410D01*
X160068528Y-46258738D01*
X160301629Y-46150973D01*
X160428242Y-46058775D01*
X169130830Y-46058775D01*
X169370976Y-46446018D01*
X169864877Y-46706641D01*
X170400133Y-46865901D01*
X170956174Y-46917678D01*
X171511632Y-46859981D01*
X172045161Y-46695028D01*
X172511024Y-46446018D01*
X172751170Y-46058775D01*
X170941000Y-44248605D01*
X169130830Y-46058775D01*
X160428242Y-46058775D01*
X160509227Y-45999803D01*
X160683344Y-45811037D01*
X160817289Y-45591930D01*
X160905915Y-45350901D01*
X160783085Y-45148500D01*
X159765000Y-45148500D01*
X159511000Y-45148500D01*
X159491000Y-45148500D01*
X159491000Y-44894500D01*
X159511000Y-44894500D01*
X159511000Y-44874500D01*
X159765000Y-44874500D01*
X159765000Y-44894500D01*
X160783085Y-44894500D01*
X160905915Y-44692099D01*
X160817289Y-44451070D01*
X160683344Y-44231963D01*
X160547025Y-44084174D01*
X168092322Y-44084174D01*
X168150019Y-44639632D01*
X168314972Y-45173161D01*
X168563982Y-45639024D01*
X168951225Y-45879170D01*
X170761395Y-44069000D01*
X168951225Y-42258830D01*
X168563982Y-42498976D01*
X168303359Y-42992877D01*
X168144099Y-43528133D01*
X168092322Y-44084174D01*
X160547025Y-44084174D01*
X160509227Y-44043197D01*
X160485906Y-44026215D01*
X160655544Y-43856577D01*
X160798907Y-43642018D01*
X160897658Y-43403613D01*
X160948000Y-43150524D01*
X160948000Y-42892476D01*
X160944986Y-42877325D01*
X160994063Y-42950774D01*
X161138226Y-43094937D01*
X161307744Y-43208205D01*
X161496102Y-43286226D01*
X161696061Y-43326000D01*
X161899939Y-43326000D01*
X162099898Y-43286226D01*
X162288256Y-43208205D01*
X162457774Y-43094937D01*
X162601937Y-42950774D01*
X162715205Y-42781256D01*
X162793226Y-42592898D01*
X162833000Y-42392939D01*
X162833000Y-42189061D01*
X162793226Y-41989102D01*
X162715205Y-41800744D01*
X162601937Y-41631226D01*
X162457774Y-41487063D01*
X162288256Y-41373795D01*
X162099898Y-41295774D01*
X161899939Y-41256000D01*
X161696061Y-41256000D01*
X161496102Y-41295774D01*
X161307744Y-41373795D01*
X161138226Y-41487063D01*
X160994063Y-41631226D01*
X160880795Y-41800744D01*
X160802774Y-41989102D01*
X160763000Y-42189061D01*
X160763000Y-42347243D01*
X160655544Y-42186423D01*
X160473077Y-42003956D01*
X160258518Y-41860593D01*
X160020113Y-41761842D01*
X159767024Y-41711500D01*
X159508976Y-41711500D01*
X159255887Y-41761842D01*
X159017482Y-41860593D01*
X158802923Y-42003956D01*
X158638000Y-42168879D01*
X158473077Y-42003956D01*
X158258518Y-41860593D01*
X158020113Y-41761842D01*
X157767024Y-41711500D01*
X157508976Y-41711500D01*
X157255887Y-41761842D01*
X157017482Y-41860593D01*
X156802923Y-42003956D01*
X156638000Y-42168879D01*
X156473077Y-42003956D01*
X156258518Y-41860593D01*
X156020113Y-41761842D01*
X155767024Y-41711500D01*
X155508976Y-41711500D01*
X155255887Y-41761842D01*
X155017482Y-41860593D01*
X154802923Y-42003956D01*
X154638000Y-42168879D01*
X154473077Y-42003956D01*
X154258518Y-41860593D01*
X154020113Y-41761842D01*
X153767024Y-41711500D01*
X153508976Y-41711500D01*
X153255887Y-41761842D01*
X153017482Y-41860593D01*
X152802923Y-42003956D01*
X152638000Y-42168879D01*
X152473077Y-42003956D01*
X152258518Y-41860593D01*
X152020113Y-41761842D01*
X151767024Y-41711500D01*
X151508976Y-41711500D01*
X151255887Y-41761842D01*
X151017482Y-41860593D01*
X150802923Y-42003956D01*
X150620456Y-42186423D01*
X150477093Y-42400982D01*
X150378342Y-42639387D01*
X150328000Y-42892476D01*
X150328000Y-43150524D01*
X150378342Y-43403613D01*
X150477093Y-43642018D01*
X150598697Y-43824013D01*
X150511815Y-43895315D01*
X150432463Y-43992006D01*
X150373498Y-44102320D01*
X150337188Y-44222018D01*
X150324928Y-44346500D01*
X148670781Y-44346500D01*
X148510898Y-44280274D01*
X148310939Y-44240500D01*
X148107061Y-44240500D01*
X147907102Y-44280274D01*
X147718744Y-44358295D01*
X147549226Y-44471563D01*
X147405063Y-44615726D01*
X147291795Y-44785244D01*
X147213774Y-44973602D01*
X147174000Y-45173561D01*
X141222475Y-45173561D01*
X141142756Y-45120295D01*
X140954398Y-45042274D01*
X140754439Y-45002500D01*
X140550561Y-45002500D01*
X140350602Y-45042274D01*
X140162244Y-45120295D01*
X139992726Y-45233563D01*
X139848563Y-45377726D01*
X139735295Y-45547244D01*
X139657274Y-45735602D01*
X139617500Y-45935561D01*
X121133184Y-45935561D01*
X121253670Y-45741275D01*
X119443500Y-43931105D01*
X119429358Y-43945248D01*
X119249753Y-43765643D01*
X119263895Y-43751500D01*
X119623105Y-43751500D01*
X121433275Y-45561670D01*
X121820518Y-45321524D01*
X122081141Y-44827623D01*
X122240401Y-44292367D01*
X122292178Y-43736326D01*
X122234481Y-43180868D01*
X122069528Y-42647339D01*
X121926398Y-42379561D01*
X124250500Y-42379561D01*
X124250500Y-42583439D01*
X124290274Y-42783398D01*
X124368295Y-42971756D01*
X124481563Y-43141274D01*
X124625726Y-43285437D01*
X124795244Y-43398705D01*
X124983602Y-43476726D01*
X125183561Y-43516500D01*
X125387439Y-43516500D01*
X125587398Y-43476726D01*
X125775756Y-43398705D01*
X125945274Y-43285437D01*
X126089437Y-43141274D01*
X126202705Y-42971756D01*
X126280726Y-42783398D01*
X126320500Y-42583439D01*
X126320500Y-42379561D01*
X126280726Y-42179602D01*
X126202705Y-41991244D01*
X126089437Y-41821726D01*
X125945274Y-41677563D01*
X125775756Y-41564295D01*
X125587398Y-41486274D01*
X125387439Y-41446500D01*
X125183561Y-41446500D01*
X124983602Y-41486274D01*
X124795244Y-41564295D01*
X124625726Y-41677563D01*
X124481563Y-41821726D01*
X124368295Y-41991244D01*
X124290274Y-42179602D01*
X124250500Y-42379561D01*
X121926398Y-42379561D01*
X121820518Y-42181476D01*
X121433275Y-41941330D01*
X119623105Y-43751500D01*
X119263895Y-43751500D01*
X119249753Y-43737358D01*
X119429358Y-43557753D01*
X119443500Y-43571895D01*
X121253670Y-41761725D01*
X121013524Y-41374482D01*
X120519623Y-41113859D01*
X119984367Y-40954599D01*
X119709192Y-40928975D01*
X120692705Y-40347561D01*
X146221500Y-40347561D01*
X146221500Y-40551439D01*
X146261274Y-40751398D01*
X146339295Y-40939756D01*
X146452563Y-41109274D01*
X146596726Y-41253437D01*
X146766244Y-41366705D01*
X146954602Y-41444726D01*
X147154561Y-41484500D01*
X147358439Y-41484500D01*
X147558398Y-41444726D01*
X147746756Y-41366705D01*
X147916274Y-41253437D01*
X148060437Y-41109274D01*
X148173705Y-40939756D01*
X148251726Y-40751398D01*
X148291500Y-40551439D01*
X148291500Y-40347561D01*
X148251726Y-40147602D01*
X148194694Y-40009915D01*
X148208852Y-40002348D01*
X148256159Y-39778764D01*
X147586000Y-39108605D01*
X147571858Y-39122748D01*
X147392253Y-38943143D01*
X147406395Y-38929000D01*
X146736236Y-38258841D01*
X146512652Y-38306148D01*
X146411763Y-38527516D01*
X146356000Y-38764313D01*
X146347505Y-39007438D01*
X146386605Y-39247549D01*
X146471798Y-39475418D01*
X146512652Y-39551852D01*
X146683025Y-39587900D01*
X146596726Y-39645563D01*
X146452563Y-39789726D01*
X146339295Y-39959244D01*
X146261274Y-40147602D01*
X146221500Y-40347561D01*
X120692705Y-40347561D01*
X121654876Y-39778764D01*
X142065841Y-39778764D01*
X142113148Y-40002348D01*
X142334516Y-40103237D01*
X142571313Y-40159000D01*
X142814438Y-40167495D01*
X143054549Y-40128395D01*
X143282418Y-40043202D01*
X143358852Y-40002348D01*
X143406159Y-39778764D01*
X142736000Y-39108605D01*
X142065841Y-39778764D01*
X121654876Y-39778764D01*
X125319357Y-37612469D01*
X140352136Y-37612469D01*
X140486480Y-37909606D01*
X140830614Y-38082449D01*
X141201857Y-38184834D01*
X141585940Y-38212825D01*
X141812118Y-38184726D01*
X141886234Y-38258842D01*
X141662652Y-38306148D01*
X141561763Y-38527516D01*
X141506000Y-38764313D01*
X141497505Y-39007438D01*
X141536605Y-39247549D01*
X141621798Y-39475418D01*
X141662652Y-39551852D01*
X141886236Y-39599159D01*
X142556395Y-38929000D01*
X142915605Y-38929000D01*
X143585764Y-39599159D01*
X143809348Y-39551852D01*
X143910237Y-39330484D01*
X143966000Y-39093687D01*
X143974495Y-38850562D01*
X143935395Y-38610451D01*
X143850202Y-38382582D01*
X143809348Y-38306148D01*
X143585764Y-38258841D01*
X142915605Y-38929000D01*
X142556395Y-38929000D01*
X142542253Y-38914858D01*
X142721858Y-38735253D01*
X142736000Y-38749395D01*
X143406159Y-38079236D01*
X146915841Y-38079236D01*
X147586000Y-38749395D01*
X147600143Y-38735253D01*
X147779748Y-38914858D01*
X147765605Y-38929000D01*
X148435764Y-39599159D01*
X148659348Y-39551852D01*
X148760237Y-39330484D01*
X148816000Y-39093687D01*
X148824495Y-38850562D01*
X148785395Y-38610451D01*
X148700202Y-38382582D01*
X148659348Y-38306148D01*
X148435766Y-38258842D01*
X148505840Y-38188768D01*
X148835940Y-38212825D01*
X149218104Y-38165348D01*
X149583662Y-38044227D01*
X149835520Y-37909606D01*
X149969864Y-37612469D01*
X148786000Y-36428605D01*
X147602136Y-37612469D01*
X147639503Y-37695115D01*
X147507562Y-37690505D01*
X147267451Y-37729605D01*
X147039582Y-37814798D01*
X146963148Y-37855652D01*
X146915841Y-38079236D01*
X143406159Y-38079236D01*
X143358852Y-37855652D01*
X143137484Y-37754763D01*
X142900687Y-37699000D01*
X142684162Y-37691434D01*
X142719864Y-37612469D01*
X141536000Y-36428605D01*
X140352136Y-37612469D01*
X125319357Y-37612469D01*
X127541309Y-36298940D01*
X139572175Y-36298940D01*
X139619652Y-36681104D01*
X139740773Y-37046662D01*
X139875394Y-37298520D01*
X140172531Y-37432864D01*
X141356395Y-36249000D01*
X141715605Y-36249000D01*
X142899469Y-37432864D01*
X143196606Y-37298520D01*
X143369449Y-36954386D01*
X143471834Y-36583143D01*
X143492545Y-36298940D01*
X146822175Y-36298940D01*
X146869652Y-36681104D01*
X146990773Y-37046662D01*
X147125394Y-37298520D01*
X147422531Y-37432864D01*
X148606395Y-36249000D01*
X148965605Y-36249000D01*
X150149469Y-37432864D01*
X150446606Y-37298520D01*
X150619449Y-36954386D01*
X150721834Y-36583143D01*
X150749825Y-36199060D01*
X150702348Y-35816896D01*
X150581227Y-35451338D01*
X150446606Y-35199480D01*
X150149469Y-35065136D01*
X148965605Y-36249000D01*
X148606395Y-36249000D01*
X147422531Y-35065136D01*
X147125394Y-35199480D01*
X146952551Y-35543614D01*
X146850166Y-35914857D01*
X146822175Y-36298940D01*
X143492545Y-36298940D01*
X143499825Y-36199060D01*
X143452348Y-35816896D01*
X143331227Y-35451338D01*
X143196606Y-35199480D01*
X142899469Y-35065136D01*
X141715605Y-36249000D01*
X141356395Y-36249000D01*
X140172531Y-35065136D01*
X139875394Y-35199480D01*
X139702551Y-35543614D01*
X139600166Y-35914857D01*
X139572175Y-36298940D01*
X127541309Y-36298940D01*
X130037994Y-34823000D01*
X140380408Y-34823000D01*
X140352136Y-34885531D01*
%TA.AperFunction,Conductor*%
D21*
G36*
X140352136Y-34885531D02*
G01*
X141536000Y-36069395D01*
X142719864Y-34885531D01*
X142691592Y-34823000D01*
X147630408Y-34823000D01*
X147602136Y-34885531D01*
X148786000Y-36069395D01*
X149969864Y-34885531D01*
X149941592Y-34823000D01*
X160224707Y-34823000D01*
X171426294Y-41266924D01*
X170925826Y-41220322D01*
X170370368Y-41278019D01*
X169836839Y-41442972D01*
X169370976Y-41691982D01*
X169130830Y-42079225D01*
X170941000Y-43889395D01*
X172751170Y-42079225D01*
X172511024Y-41691982D01*
X172444037Y-41656634D01*
X172540041Y-41685620D01*
X172688378Y-41764492D01*
X172818574Y-41870676D01*
X172925664Y-42000126D01*
X173005572Y-42147914D01*
X173055252Y-42308402D01*
X173058358Y-42337949D01*
X172930775Y-42258830D01*
X171120605Y-44069000D01*
X172930775Y-45879170D01*
X173076001Y-45789109D01*
X173076001Y-61088757D01*
X172968610Y-61044274D01*
X172768651Y-61004500D01*
X172564773Y-61004500D01*
X172364814Y-61044274D01*
X172176456Y-61122295D01*
X172006938Y-61235563D01*
X171862775Y-61379726D01*
X171749507Y-61549244D01*
X171671486Y-61737602D01*
X171631712Y-61937561D01*
X171631712Y-62141439D01*
X171671486Y-62341398D01*
X171749507Y-62529756D01*
X171862775Y-62699274D01*
X172006938Y-62843437D01*
X172176456Y-62956705D01*
X172364814Y-63034726D01*
X172564773Y-63074500D01*
X172768651Y-63074500D01*
X172968610Y-63034726D01*
X173076001Y-62990243D01*
X173076000Y-79220392D01*
X173006169Y-79290223D01*
X172766024Y-78902982D01*
X172272123Y-78642359D01*
X171736867Y-78483099D01*
X171180826Y-78431322D01*
X170625368Y-78489019D01*
X170091839Y-78653972D01*
X169625976Y-78902982D01*
X169385830Y-79290225D01*
X171196000Y-81100395D01*
X171210143Y-81086253D01*
X171389748Y-81265858D01*
X171375605Y-81280000D01*
X171389748Y-81294143D01*
X171210143Y-81473748D01*
X171196000Y-81459605D01*
X169385830Y-83269775D01*
X169625976Y-83657018D01*
X170119877Y-83917641D01*
X170655133Y-84076901D01*
X171211174Y-84128678D01*
X171766632Y-84070981D01*
X172300161Y-83906028D01*
X172766024Y-83657018D01*
X173006169Y-83269777D01*
X173076000Y-83339608D01*
X173076000Y-93504418D01*
X173076001Y-93504428D01*
X173076000Y-95471719D01*
X173066115Y-95572531D01*
X173046211Y-95638458D01*
X173013885Y-95699255D01*
X172970362Y-95752618D01*
X172917300Y-95796515D01*
X172856727Y-95829266D01*
X172790947Y-95849628D01*
X172692269Y-95860000D01*
X117888281Y-95860000D01*
X117787469Y-95850115D01*
X117721542Y-95830211D01*
X117660745Y-95797885D01*
X117607382Y-95754362D01*
X117563485Y-95701300D01*
X117530734Y-95640727D01*
X117510372Y-95574947D01*
X117500000Y-95476269D01*
X117500000Y-87540000D01*
X119161928Y-87540000D01*
X119161928Y-88990000D01*
X119178992Y-89163254D01*
X119229528Y-89329850D01*
X119311595Y-89483386D01*
X119422038Y-89617962D01*
X119556614Y-89728405D01*
X119710150Y-89810472D01*
X119876746Y-89861008D01*
X120050000Y-89878072D01*
X121250000Y-89878072D01*
X121423254Y-89861008D01*
X121589850Y-89810472D01*
X121743386Y-89728405D01*
X121877962Y-89617962D01*
X121988405Y-89483386D01*
X122044714Y-89378039D01*
X122060951Y-89399429D01*
X122278807Y-89592496D01*
X122530142Y-89739352D01*
X122793110Y-89831476D01*
X123023000Y-89710155D01*
X123023000Y-88392000D01*
X123003000Y-88392000D01*
X123003000Y-88138000D01*
X123023000Y-88138000D01*
X123023000Y-86819845D01*
X123277000Y-86819845D01*
X123277000Y-88138000D01*
X123297000Y-88138000D01*
X123297000Y-88392000D01*
X123277000Y-88392000D01*
X123277000Y-89710155D01*
X123506890Y-89831476D01*
X123769858Y-89739352D01*
X124021193Y-89592496D01*
X124239049Y-89399429D01*
X124395538Y-89193278D01*
X124409294Y-89219014D01*
X124594866Y-89445134D01*
X124820987Y-89630706D01*
X125078967Y-89768599D01*
X125358890Y-89853513D01*
X125650000Y-89882185D01*
X125941111Y-89853513D01*
X126221034Y-89768599D01*
X126479014Y-89630706D01*
X126705134Y-89445134D01*
X126890706Y-89219014D01*
X126900000Y-89201626D01*
X126909294Y-89219014D01*
X127094866Y-89445134D01*
X127320987Y-89630706D01*
X127578967Y-89768599D01*
X127858890Y-89853513D01*
X128150000Y-89882185D01*
X128441111Y-89853513D01*
X128721034Y-89768599D01*
X128979014Y-89630706D01*
X129205134Y-89445134D01*
X129390706Y-89219014D01*
X129528599Y-88961033D01*
X129613513Y-88681110D01*
X129635000Y-88462949D01*
X129635000Y-88067050D01*
X129613513Y-87848889D01*
X129528599Y-87568966D01*
X129513117Y-87540000D01*
X133131928Y-87540000D01*
X133131928Y-88990000D01*
X133148992Y-89163254D01*
X133199528Y-89329850D01*
X133281595Y-89483386D01*
X133392038Y-89617962D01*
X133526614Y-89728405D01*
X133680150Y-89810472D01*
X133846746Y-89861008D01*
X134020000Y-89878072D01*
X135220000Y-89878072D01*
X135393254Y-89861008D01*
X135559850Y-89810472D01*
X135713386Y-89728405D01*
X135847962Y-89617962D01*
X135958405Y-89483386D01*
X136014714Y-89378039D01*
X136030951Y-89399429D01*
X136248807Y-89592496D01*
X136500142Y-89739352D01*
X136763110Y-89831476D01*
X136993000Y-89710155D01*
X136993000Y-88392000D01*
X136973000Y-88392000D01*
X136973000Y-88138000D01*
X136993000Y-88138000D01*
X136993000Y-86819845D01*
X137247000Y-86819845D01*
X137247000Y-88138000D01*
X137267000Y-88138000D01*
X137267000Y-88392000D01*
X137247000Y-88392000D01*
X137247000Y-89710155D01*
X137476890Y-89831476D01*
X137739858Y-89739352D01*
X137991193Y-89592496D01*
X138209049Y-89399429D01*
X138365538Y-89193278D01*
X138379294Y-89219014D01*
X138564866Y-89445134D01*
X138790987Y-89630706D01*
X139048967Y-89768599D01*
X139328890Y-89853513D01*
X139620000Y-89882185D01*
X139911111Y-89853513D01*
X140191034Y-89768599D01*
X140449014Y-89630706D01*
X140675134Y-89445134D01*
X140860706Y-89219014D01*
X140870000Y-89201626D01*
X140879294Y-89219014D01*
X141064866Y-89445134D01*
X141290987Y-89630706D01*
X141548967Y-89768599D01*
X141828890Y-89853513D01*
X142120000Y-89882185D01*
X142411111Y-89853513D01*
X142691034Y-89768599D01*
X142949014Y-89630706D01*
X143175134Y-89445134D01*
X143360706Y-89219014D01*
X143498599Y-88961033D01*
X143583513Y-88681110D01*
X143605000Y-88462949D01*
X143605000Y-88067050D01*
X143583513Y-87848889D01*
X143498599Y-87568966D01*
X143483117Y-87540000D01*
X147101928Y-87540000D01*
X147101928Y-88990000D01*
X147118992Y-89163254D01*
X147169528Y-89329850D01*
X147251595Y-89483386D01*
X147362038Y-89617962D01*
X147496614Y-89728405D01*
X147650150Y-89810472D01*
X147816746Y-89861008D01*
X147990000Y-89878072D01*
X149190000Y-89878072D01*
X149363254Y-89861008D01*
X149529850Y-89810472D01*
X149683386Y-89728405D01*
X149817962Y-89617962D01*
X149928405Y-89483386D01*
X149984714Y-89378039D01*
X150000951Y-89399429D01*
X150218807Y-89592496D01*
X150470142Y-89739352D01*
X150733110Y-89831476D01*
X150963000Y-89710155D01*
X150963000Y-88392000D01*
X150943000Y-88392000D01*
X150943000Y-88138000D01*
X150963000Y-88138000D01*
X150963000Y-86819845D01*
X151217000Y-86819845D01*
X151217000Y-88138000D01*
X151237000Y-88138000D01*
X151237000Y-88392000D01*
X151217000Y-88392000D01*
X151217000Y-89710155D01*
X151446890Y-89831476D01*
X151709858Y-89739352D01*
X151961193Y-89592496D01*
X152179049Y-89399429D01*
X152335538Y-89193278D01*
X152349294Y-89219014D01*
X152534866Y-89445134D01*
X152760987Y-89630706D01*
X153018967Y-89768599D01*
X153298890Y-89853513D01*
X153590000Y-89882185D01*
X153881111Y-89853513D01*
X154161034Y-89768599D01*
X154419014Y-89630706D01*
X154645134Y-89445134D01*
X154830706Y-89219014D01*
X154840000Y-89201626D01*
X154849294Y-89219014D01*
X155034866Y-89445134D01*
X155260987Y-89630706D01*
X155518967Y-89768599D01*
X155798890Y-89853513D01*
X156090000Y-89882185D01*
X156381111Y-89853513D01*
X156661034Y-89768599D01*
X156919014Y-89630706D01*
X157145134Y-89445134D01*
X157330706Y-89219014D01*
X157468599Y-88961033D01*
X157553513Y-88681110D01*
X157575000Y-88462949D01*
X157575000Y-88067050D01*
X157553513Y-87848889D01*
X157468599Y-87568966D01*
X157453117Y-87540000D01*
X161071928Y-87540000D01*
X161071928Y-88990000D01*
X161088992Y-89163254D01*
X161139528Y-89329850D01*
X161221595Y-89483386D01*
X161332038Y-89617962D01*
X161466614Y-89728405D01*
X161620150Y-89810472D01*
X161786746Y-89861008D01*
X161960000Y-89878072D01*
X163160000Y-89878072D01*
X163333254Y-89861008D01*
X163499850Y-89810472D01*
X163653386Y-89728405D01*
X163787962Y-89617962D01*
X163898405Y-89483386D01*
X163954714Y-89378039D01*
X163970951Y-89399429D01*
X164188807Y-89592496D01*
X164440142Y-89739352D01*
X164703110Y-89831476D01*
X164933000Y-89710155D01*
X164933000Y-88392000D01*
X164913000Y-88392000D01*
X164913000Y-88138000D01*
X164933000Y-88138000D01*
X164933000Y-86819845D01*
X165187000Y-86819845D01*
X165187000Y-88138000D01*
X165207000Y-88138000D01*
X165207000Y-88392000D01*
X165187000Y-88392000D01*
X165187000Y-89710155D01*
X165416890Y-89831476D01*
X165679858Y-89739352D01*
X165931193Y-89592496D01*
X166149049Y-89399429D01*
X166305538Y-89193278D01*
X166319294Y-89219014D01*
X166504866Y-89445134D01*
X166730987Y-89630706D01*
X166988967Y-89768599D01*
X167268890Y-89853513D01*
X167560000Y-89882185D01*
X167851111Y-89853513D01*
X168131034Y-89768599D01*
X168389014Y-89630706D01*
X168615134Y-89445134D01*
X168800706Y-89219014D01*
X168810000Y-89201626D01*
X168819294Y-89219014D01*
X169004866Y-89445134D01*
X169230987Y-89630706D01*
X169488967Y-89768599D01*
X169768890Y-89853513D01*
X170060000Y-89882185D01*
X170351111Y-89853513D01*
X170631034Y-89768599D01*
X170889014Y-89630706D01*
X171115134Y-89445134D01*
X171300706Y-89219014D01*
X171438599Y-88961033D01*
X171523513Y-88681110D01*
X171545000Y-88462949D01*
X171545000Y-88067050D01*
X171523513Y-87848889D01*
X171438599Y-87568966D01*
X171300706Y-87310986D01*
X171115134Y-87084866D01*
X170889013Y-86899294D01*
X170631033Y-86761401D01*
X170351110Y-86676487D01*
X170060000Y-86647815D01*
X169768889Y-86676487D01*
X169488966Y-86761401D01*
X169230986Y-86899294D01*
X169004866Y-87084866D01*
X168819294Y-87310987D01*
X168810000Y-87328374D01*
X168800706Y-87310986D01*
X168615134Y-87084866D01*
X168389013Y-86899294D01*
X168131033Y-86761401D01*
X167851110Y-86676487D01*
X167560000Y-86647815D01*
X167268889Y-86676487D01*
X166988966Y-86761401D01*
X166730986Y-86899294D01*
X166504866Y-87084866D01*
X166319294Y-87310987D01*
X166305538Y-87336722D01*
X166149049Y-87130571D01*
X165931193Y-86937504D01*
X165679858Y-86790648D01*
X165416890Y-86698524D01*
X165187000Y-86819845D01*
X164933000Y-86819845D01*
X164703110Y-86698524D01*
X164440142Y-86790648D01*
X164188807Y-86937504D01*
X163970951Y-87130571D01*
X163954714Y-87151961D01*
X163898405Y-87046614D01*
X163787962Y-86912038D01*
X163653386Y-86801595D01*
X163499850Y-86719528D01*
X163333254Y-86668992D01*
X163160000Y-86651928D01*
X161960000Y-86651928D01*
X161786746Y-86668992D01*
X161620150Y-86719528D01*
X161466614Y-86801595D01*
X161332038Y-86912038D01*
X161221595Y-87046614D01*
X161139528Y-87200150D01*
X161088992Y-87366746D01*
X161071928Y-87540000D01*
X157453117Y-87540000D01*
X157330706Y-87310986D01*
X157145134Y-87084866D01*
X156919013Y-86899294D01*
X156661033Y-86761401D01*
X156381110Y-86676487D01*
X156090000Y-86647815D01*
X155798889Y-86676487D01*
X155518966Y-86761401D01*
X155260986Y-86899294D01*
X155034866Y-87084866D01*
X154849294Y-87310987D01*
X154840000Y-87328374D01*
X154830706Y-87310986D01*
X154645134Y-87084866D01*
X154419013Y-86899294D01*
X154161033Y-86761401D01*
X153881110Y-86676487D01*
X153590000Y-86647815D01*
X153298889Y-86676487D01*
X153018966Y-86761401D01*
X152760986Y-86899294D01*
X152534866Y-87084866D01*
X152349294Y-87310987D01*
X152335538Y-87336722D01*
X152179049Y-87130571D01*
X151961193Y-86937504D01*
X151709858Y-86790648D01*
X151446890Y-86698524D01*
X151217000Y-86819845D01*
X150963000Y-86819845D01*
X150733110Y-86698524D01*
X150470142Y-86790648D01*
X150218807Y-86937504D01*
X150000951Y-87130571D01*
X149984714Y-87151961D01*
X149928405Y-87046614D01*
X149817962Y-86912038D01*
X149683386Y-86801595D01*
X149529850Y-86719528D01*
X149363254Y-86668992D01*
X149190000Y-86651928D01*
X147990000Y-86651928D01*
X147816746Y-86668992D01*
X147650150Y-86719528D01*
X147496614Y-86801595D01*
X147362038Y-86912038D01*
X147251595Y-87046614D01*
X147169528Y-87200150D01*
X147118992Y-87366746D01*
X147101928Y-87540000D01*
X143483117Y-87540000D01*
X143360706Y-87310986D01*
X143175134Y-87084866D01*
X142949013Y-86899294D01*
X142691033Y-86761401D01*
X142411110Y-86676487D01*
X142120000Y-86647815D01*
X141828889Y-86676487D01*
X141548966Y-86761401D01*
X141290986Y-86899294D01*
X141064866Y-87084866D01*
X140879294Y-87310987D01*
X140870000Y-87328374D01*
X140860706Y-87310986D01*
X140675134Y-87084866D01*
X140449013Y-86899294D01*
X140191033Y-86761401D01*
X139911110Y-86676487D01*
X139620000Y-86647815D01*
X139328889Y-86676487D01*
X139048966Y-86761401D01*
X138790986Y-86899294D01*
X138564866Y-87084866D01*
X138379294Y-87310987D01*
X138365538Y-87336722D01*
X138209049Y-87130571D01*
X137991193Y-86937504D01*
X137739858Y-86790648D01*
X137476890Y-86698524D01*
X137247000Y-86819845D01*
X136993000Y-86819845D01*
X136763110Y-86698524D01*
X136500142Y-86790648D01*
X136248807Y-86937504D01*
X136030951Y-87130571D01*
X136014714Y-87151961D01*
X135958405Y-87046614D01*
X135847962Y-86912038D01*
X135713386Y-86801595D01*
X135559850Y-86719528D01*
X135393254Y-86668992D01*
X135220000Y-86651928D01*
X134020000Y-86651928D01*
X133846746Y-86668992D01*
X133680150Y-86719528D01*
X133526614Y-86801595D01*
X133392038Y-86912038D01*
X133281595Y-87046614D01*
X133199528Y-87200150D01*
X133148992Y-87366746D01*
X133131928Y-87540000D01*
X129513117Y-87540000D01*
X129390706Y-87310986D01*
X129205134Y-87084866D01*
X128979013Y-86899294D01*
X128721033Y-86761401D01*
X128441110Y-86676487D01*
X128150000Y-86647815D01*
X127858889Y-86676487D01*
X127578966Y-86761401D01*
X127320986Y-86899294D01*
X127094866Y-87084866D01*
X126909294Y-87310987D01*
X126900000Y-87328374D01*
X126890706Y-87310986D01*
X126705134Y-87084866D01*
X126479013Y-86899294D01*
X126221033Y-86761401D01*
X125941110Y-86676487D01*
X125650000Y-86647815D01*
X125358889Y-86676487D01*
X125078966Y-86761401D01*
X124820986Y-86899294D01*
X124594866Y-87084866D01*
X124409294Y-87310987D01*
X124395538Y-87336722D01*
X124239049Y-87130571D01*
X124021193Y-86937504D01*
X123769858Y-86790648D01*
X123506890Y-86698524D01*
X123277000Y-86819845D01*
X123023000Y-86819845D01*
X122793110Y-86698524D01*
X122530142Y-86790648D01*
X122278807Y-86937504D01*
X122060951Y-87130571D01*
X122044714Y-87151961D01*
X121988405Y-87046614D01*
X121877962Y-86912038D01*
X121743386Y-86801595D01*
X121589850Y-86719528D01*
X121423254Y-86668992D01*
X121250000Y-86651928D01*
X120050000Y-86651928D01*
X119876746Y-86668992D01*
X119710150Y-86719528D01*
X119556614Y-86801595D01*
X119422038Y-86912038D01*
X119311595Y-87046614D01*
X119229528Y-87200150D01*
X119178992Y-87366746D01*
X119161928Y-87540000D01*
X117500000Y-87540000D01*
X117500000Y-83339608D01*
X117569831Y-83269777D01*
X117809976Y-83657018D01*
X118303877Y-83917641D01*
X118839133Y-84076901D01*
X119395174Y-84128678D01*
X119950632Y-84070981D01*
X120484161Y-83906028D01*
X120950024Y-83657018D01*
X121190170Y-83269775D01*
X119380000Y-81459605D01*
X119365858Y-81473748D01*
X119186253Y-81294143D01*
X119200395Y-81280000D01*
X119559605Y-81280000D01*
X121369775Y-83090170D01*
X121757018Y-82850024D01*
X122017641Y-82356123D01*
X122176901Y-81820867D01*
X122225852Y-81295174D01*
X168347322Y-81295174D01*
X168405019Y-81850632D01*
X168569972Y-82384161D01*
X168818982Y-82850024D01*
X169206225Y-83090170D01*
X171016395Y-81280000D01*
X169206225Y-79469830D01*
X168818982Y-79709976D01*
X168558359Y-80203877D01*
X168399099Y-80739133D01*
X168347322Y-81295174D01*
X122225852Y-81295174D01*
X122228678Y-81264826D01*
X122170981Y-80709368D01*
X122006028Y-80175839D01*
X121757018Y-79709976D01*
X121369775Y-79469830D01*
X119559605Y-81280000D01*
X119200395Y-81280000D01*
X119186253Y-81265858D01*
X119365858Y-81086253D01*
X119380000Y-81100395D01*
X121190170Y-79290225D01*
X120950024Y-78902982D01*
X120456123Y-78642359D01*
X119920867Y-78483099D01*
X119364826Y-78431322D01*
X118809368Y-78489019D01*
X118275839Y-78653972D01*
X117809976Y-78902982D01*
X117569831Y-79290223D01*
X117500000Y-79220392D01*
X117500000Y-70889500D01*
X124557315Y-70889500D01*
X124585987Y-71180611D01*
X124670901Y-71460534D01*
X124808794Y-71718514D01*
X124994366Y-71944634D01*
X125220486Y-72130206D01*
X125237874Y-72139500D01*
X125220486Y-72148794D01*
X124994366Y-72334366D01*
X124808794Y-72560486D01*
X124670901Y-72818466D01*
X124585987Y-73098389D01*
X124557315Y-73389500D01*
X124585987Y-73680611D01*
X124670901Y-73960534D01*
X124808794Y-74218514D01*
X124994366Y-74444634D01*
X125220486Y-74630206D01*
X125237874Y-74639500D01*
X125220486Y-74648794D01*
X124994366Y-74834366D01*
X124808794Y-75060486D01*
X124670901Y-75318466D01*
X124585987Y-75598389D01*
X124557315Y-75889500D01*
X124585987Y-76180611D01*
X124670901Y-76460534D01*
X124808794Y-76718514D01*
X124994366Y-76944634D01*
X125220486Y-77130206D01*
X125478466Y-77268099D01*
X125758389Y-77353013D01*
X125976550Y-77374500D01*
X126372450Y-77374500D01*
X126590611Y-77353013D01*
X126870534Y-77268099D01*
X127128514Y-77130206D01*
X127354634Y-76944634D01*
X127540206Y-76718514D01*
X127678099Y-76460534D01*
X127711004Y-76352061D01*
X136290000Y-76352061D01*
X136290000Y-76555939D01*
X136329774Y-76755898D01*
X136407795Y-76944256D01*
X136521063Y-77113774D01*
X136665226Y-77257937D01*
X136834744Y-77371205D01*
X137023102Y-77449226D01*
X137223061Y-77489000D01*
X137426939Y-77489000D01*
X137626898Y-77449226D01*
X137815256Y-77371205D01*
X137984774Y-77257937D01*
X138128937Y-77113774D01*
X138242205Y-76944256D01*
X138320226Y-76755898D01*
X138360000Y-76555939D01*
X138360000Y-76352061D01*
X138320226Y-76152102D01*
X138242205Y-75963744D01*
X138128937Y-75794226D01*
X137984774Y-75650063D01*
X137815256Y-75536795D01*
X137626898Y-75458774D01*
X137426939Y-75419000D01*
X137223061Y-75419000D01*
X137023102Y-75458774D01*
X136834744Y-75536795D01*
X136665226Y-75650063D01*
X136521063Y-75794226D01*
X136407795Y-75963744D01*
X136329774Y-76152102D01*
X136290000Y-76352061D01*
X127711004Y-76352061D01*
X127763013Y-76180611D01*
X127791685Y-75889500D01*
X127763013Y-75598389D01*
X127678099Y-75318466D01*
X127540206Y-75060486D01*
X127354634Y-74834366D01*
X127128514Y-74648794D01*
X127111126Y-74639500D01*
X127128514Y-74630206D01*
X127196926Y-74574061D01*
X139173000Y-74574061D01*
X139173000Y-74777939D01*
X139212774Y-74977898D01*
X139290795Y-75166256D01*
X139404063Y-75335774D01*
X139548226Y-75479937D01*
X139717744Y-75593205D01*
X139906102Y-75671226D01*
X140106061Y-75711000D01*
X140309939Y-75711000D01*
X140509898Y-75671226D01*
X140698256Y-75593205D01*
X140867774Y-75479937D01*
X141011937Y-75335774D01*
X141125205Y-75166256D01*
X141203226Y-74977898D01*
X141243000Y-74777939D01*
X141243000Y-74574061D01*
X141203226Y-74374102D01*
X141125205Y-74185744D01*
X141011937Y-74016226D01*
X140867774Y-73872063D01*
X140698256Y-73758795D01*
X140509898Y-73680774D01*
X140309939Y-73641000D01*
X140106061Y-73641000D01*
X139906102Y-73680774D01*
X139717744Y-73758795D01*
X139548226Y-73872063D01*
X139404063Y-74016226D01*
X139290795Y-74185744D01*
X139212774Y-74374102D01*
X139173000Y-74574061D01*
X127196926Y-74574061D01*
X127354634Y-74444634D01*
X127540206Y-74218514D01*
X127678099Y-73960534D01*
X127763013Y-73680611D01*
X127791685Y-73389500D01*
X127763013Y-73098389D01*
X127678099Y-72818466D01*
X127540206Y-72560486D01*
X127354634Y-72334366D01*
X127265209Y-72260976D01*
X151598000Y-72260976D01*
X151598000Y-72519024D01*
X151648342Y-72772113D01*
X151747093Y-73010518D01*
X151890456Y-73225077D01*
X152055379Y-73390000D01*
X151890456Y-73554923D01*
X151747093Y-73769482D01*
X151648342Y-74007887D01*
X151598000Y-74260976D01*
X151598000Y-74519024D01*
X151648342Y-74772113D01*
X151747093Y-75010518D01*
X151890456Y-75225077D01*
X152072923Y-75407544D01*
X152287482Y-75550907D01*
X152525887Y-75649658D01*
X152778976Y-75700000D01*
X153037024Y-75700000D01*
X153290113Y-75649658D01*
X153528518Y-75550907D01*
X153710513Y-75429303D01*
X153781815Y-75516185D01*
X153878506Y-75595537D01*
X153988820Y-75654502D01*
X154108518Y-75690812D01*
X154233000Y-75703072D01*
X155583000Y-75703072D01*
X155707482Y-75690812D01*
X155827180Y-75654502D01*
X155937494Y-75595537D01*
X156034185Y-75516185D01*
X156113537Y-75419494D01*
X156172502Y-75309180D01*
X156208812Y-75189482D01*
X156221072Y-75065000D01*
X156221072Y-73715000D01*
X156208812Y-73590518D01*
X156172502Y-73470820D01*
X156113537Y-73360506D01*
X156034185Y-73263815D01*
X155947303Y-73192513D01*
X156068907Y-73010518D01*
X156167658Y-72772113D01*
X156218000Y-72519024D01*
X156218000Y-72260976D01*
X156167658Y-72007887D01*
X156068907Y-71769482D01*
X155925544Y-71554923D01*
X155743077Y-71372456D01*
X155528518Y-71229093D01*
X155290113Y-71130342D01*
X155037024Y-71080000D01*
X154778976Y-71080000D01*
X154525887Y-71130342D01*
X154287482Y-71229093D01*
X154072923Y-71372456D01*
X153908000Y-71537379D01*
X153743077Y-71372456D01*
X153528518Y-71229093D01*
X153290113Y-71130342D01*
X153037024Y-71080000D01*
X152778976Y-71080000D01*
X152525887Y-71130342D01*
X152287482Y-71229093D01*
X152072923Y-71372456D01*
X151890456Y-71554923D01*
X151747093Y-71769482D01*
X151648342Y-72007887D01*
X151598000Y-72260976D01*
X127265209Y-72260976D01*
X127128514Y-72148794D01*
X127111126Y-72139500D01*
X127128514Y-72130206D01*
X127354634Y-71944634D01*
X127540206Y-71718514D01*
X127678099Y-71460534D01*
X127763013Y-71180611D01*
X127791685Y-70889500D01*
X127763013Y-70598389D01*
X127736219Y-70510061D01*
X167938500Y-70510061D01*
X167938500Y-70713939D01*
X167978274Y-70913898D01*
X168056295Y-71102256D01*
X168169563Y-71271774D01*
X168313726Y-71415937D01*
X168483244Y-71529205D01*
X168671602Y-71607226D01*
X168871561Y-71647000D01*
X169075439Y-71647000D01*
X169275398Y-71607226D01*
X169463756Y-71529205D01*
X169633274Y-71415937D01*
X169777437Y-71271774D01*
X169890705Y-71102256D01*
X169968726Y-70913898D01*
X170008500Y-70713939D01*
X170008500Y-70510061D01*
X169968726Y-70310102D01*
X169890705Y-70121744D01*
X169777437Y-69952226D01*
X169633274Y-69808063D01*
X169463756Y-69694795D01*
X169275398Y-69616774D01*
X169075439Y-69577000D01*
X168871561Y-69577000D01*
X168671602Y-69616774D01*
X168483244Y-69694795D01*
X168313726Y-69808063D01*
X168169563Y-69952226D01*
X168056295Y-70121744D01*
X167978274Y-70310102D01*
X167938500Y-70510061D01*
X127736219Y-70510061D01*
X127678099Y-70318466D01*
X127540206Y-70060486D01*
X127354634Y-69834366D01*
X127291163Y-69782277D01*
X127392886Y-69727905D01*
X127527462Y-69617462D01*
X127637905Y-69482886D01*
X127719972Y-69329350D01*
X127770508Y-69162754D01*
X127787572Y-68989500D01*
X127787572Y-67789500D01*
X127770508Y-67616246D01*
X127719972Y-67449650D01*
X127637905Y-67296114D01*
X127527462Y-67161538D01*
X127392886Y-67051095D01*
X127239350Y-66969028D01*
X127190011Y-66954061D01*
X164827000Y-66954061D01*
X164827000Y-67157939D01*
X164866774Y-67357898D01*
X164944795Y-67546256D01*
X165058063Y-67715774D01*
X165202226Y-67859937D01*
X165371744Y-67973205D01*
X165560102Y-68051226D01*
X165760061Y-68091000D01*
X165963939Y-68091000D01*
X166163898Y-68051226D01*
X166352256Y-67973205D01*
X166521774Y-67859937D01*
X166665937Y-67715774D01*
X166779205Y-67546256D01*
X166857226Y-67357898D01*
X166897000Y-67157939D01*
X166897000Y-66954061D01*
X166857226Y-66754102D01*
X166779205Y-66565744D01*
X166665937Y-66396226D01*
X166521774Y-66252063D01*
X166352256Y-66138795D01*
X166163898Y-66060774D01*
X165963939Y-66021000D01*
X165760061Y-66021000D01*
X165560102Y-66060774D01*
X165371744Y-66138795D01*
X165202226Y-66252063D01*
X165058063Y-66396226D01*
X164944795Y-66565744D01*
X164866774Y-66754102D01*
X164827000Y-66954061D01*
X127190011Y-66954061D01*
X127072754Y-66918492D01*
X126899500Y-66901428D01*
X125449500Y-66901428D01*
X125276246Y-66918492D01*
X125109650Y-66969028D01*
X124956114Y-67051095D01*
X124821538Y-67161538D01*
X124711095Y-67296114D01*
X124629028Y-67449650D01*
X124578492Y-67616246D01*
X124561428Y-67789500D01*
X124561428Y-68989500D01*
X124578492Y-69162754D01*
X124629028Y-69329350D01*
X124711095Y-69482886D01*
X124821538Y-69617462D01*
X124956114Y-69727905D01*
X125057837Y-69782277D01*
X124994366Y-69834366D01*
X124808794Y-70060486D01*
X124670901Y-70318466D01*
X124585987Y-70598389D01*
X124557315Y-70889500D01*
X117500000Y-70889500D01*
X117500000Y-63271061D01*
X126917500Y-63271061D01*
X126917500Y-63474939D01*
X126957274Y-63674898D01*
X127035295Y-63863256D01*
X127148563Y-64032774D01*
X127292726Y-64176937D01*
X127462244Y-64290205D01*
X127650602Y-64368226D01*
X127850561Y-64408000D01*
X128054439Y-64408000D01*
X128254398Y-64368226D01*
X128442756Y-64290205D01*
X128612274Y-64176937D01*
X128756437Y-64032774D01*
X128869705Y-63863256D01*
X128938710Y-63696664D01*
X160050580Y-63696664D01*
X160050580Y-63900542D01*
X160090354Y-64100501D01*
X160168375Y-64288859D01*
X160281643Y-64458377D01*
X160425806Y-64602540D01*
X160595324Y-64715808D01*
X160783682Y-64793829D01*
X160983641Y-64833603D01*
X161187519Y-64833603D01*
X161387478Y-64793829D01*
X161575836Y-64715808D01*
X161745354Y-64602540D01*
X161889517Y-64458377D01*
X162002785Y-64288859D01*
X162080806Y-64100501D01*
X162120580Y-63900542D01*
X162120580Y-63696664D01*
X162080806Y-63496705D01*
X162002785Y-63308347D01*
X161889517Y-63138829D01*
X161745354Y-62994666D01*
X161575836Y-62881398D01*
X161387478Y-62803377D01*
X161187519Y-62763603D01*
X160983641Y-62763603D01*
X160783682Y-62803377D01*
X160595324Y-62881398D01*
X160425806Y-62994666D01*
X160281643Y-63138829D01*
X160168375Y-63308347D01*
X160090354Y-63496705D01*
X160050580Y-63696664D01*
X128938710Y-63696664D01*
X128947726Y-63674898D01*
X128987500Y-63474939D01*
X128987500Y-63271061D01*
X128947726Y-63071102D01*
X128869705Y-62882744D01*
X128756437Y-62713226D01*
X128612274Y-62569063D01*
X128442756Y-62455795D01*
X128254398Y-62377774D01*
X128054439Y-62338000D01*
X127850561Y-62338000D01*
X127650602Y-62377774D01*
X127462244Y-62455795D01*
X127292726Y-62569063D01*
X127148563Y-62713226D01*
X127035295Y-62882744D01*
X126957274Y-63071102D01*
X126917500Y-63271061D01*
X117500000Y-63271061D01*
X117500000Y-61556561D01*
X143681500Y-61556561D01*
X143681500Y-61760439D01*
X143721274Y-61960398D01*
X143799295Y-62148756D01*
X143912563Y-62318274D01*
X144056726Y-62462437D01*
X144226244Y-62575705D01*
X144414602Y-62653726D01*
X144614561Y-62693500D01*
X144818439Y-62693500D01*
X145018398Y-62653726D01*
X145206756Y-62575705D01*
X145376274Y-62462437D01*
X145520437Y-62318274D01*
X145633705Y-62148756D01*
X145711726Y-61960398D01*
X145728899Y-61874061D01*
X158731000Y-61874061D01*
X158731000Y-62077939D01*
X158770774Y-62277898D01*
X158848795Y-62466256D01*
X158962063Y-62635774D01*
X159106226Y-62779937D01*
X159275744Y-62893205D01*
X159464102Y-62971226D01*
X159664061Y-63011000D01*
X159867939Y-63011000D01*
X160067898Y-62971226D01*
X160256256Y-62893205D01*
X160425774Y-62779937D01*
X160569937Y-62635774D01*
X160683205Y-62466256D01*
X160761226Y-62277898D01*
X160801000Y-62077939D01*
X160801000Y-61874061D01*
X160761226Y-61674102D01*
X160683205Y-61485744D01*
X160569937Y-61316226D01*
X160425774Y-61172063D01*
X160256256Y-61058795D01*
X160067898Y-60980774D01*
X159867939Y-60941000D01*
X159664061Y-60941000D01*
X159464102Y-60980774D01*
X159275744Y-61058795D01*
X159106226Y-61172063D01*
X158962063Y-61316226D01*
X158848795Y-61485744D01*
X158770774Y-61674102D01*
X158731000Y-61874061D01*
X145728899Y-61874061D01*
X145751500Y-61760439D01*
X145751500Y-61556561D01*
X145711726Y-61356602D01*
X145633705Y-61168244D01*
X145520437Y-60998726D01*
X145376274Y-60854563D01*
X145206756Y-60741295D01*
X145018398Y-60663274D01*
X144818439Y-60623500D01*
X144614561Y-60623500D01*
X144414602Y-60663274D01*
X144226244Y-60741295D01*
X144056726Y-60854563D01*
X143912563Y-60998726D01*
X143799295Y-61168244D01*
X143721274Y-61356602D01*
X143681500Y-61556561D01*
X117500000Y-61556561D01*
X117500000Y-60350061D01*
X148507500Y-60350061D01*
X148507500Y-60553939D01*
X148547274Y-60753898D01*
X148625295Y-60942256D01*
X148738563Y-61111774D01*
X148882726Y-61255937D01*
X149052244Y-61369205D01*
X149240602Y-61447226D01*
X149440561Y-61487000D01*
X149644439Y-61487000D01*
X149844398Y-61447226D01*
X150032756Y-61369205D01*
X150202274Y-61255937D01*
X150346437Y-61111774D01*
X150459705Y-60942256D01*
X150537726Y-60753898D01*
X150577500Y-60553939D01*
X150577500Y-60350061D01*
X150537726Y-60150102D01*
X150459705Y-59961744D01*
X150346437Y-59792226D01*
X150202274Y-59648063D01*
X150032756Y-59534795D01*
X149844398Y-59456774D01*
X149644439Y-59417000D01*
X149440561Y-59417000D01*
X149240602Y-59456774D01*
X149052244Y-59534795D01*
X148882726Y-59648063D01*
X148738563Y-59792226D01*
X148625295Y-59961744D01*
X148547274Y-60150102D01*
X148507500Y-60350061D01*
X117500000Y-60350061D01*
X117500000Y-58635561D01*
X152254000Y-58635561D01*
X152254000Y-58839439D01*
X152293774Y-59039398D01*
X152371795Y-59227756D01*
X152485063Y-59397274D01*
X152629226Y-59541437D01*
X152798744Y-59654705D01*
X152824575Y-59665405D01*
X152824575Y-59803939D01*
X152864349Y-60003898D01*
X152942370Y-60192256D01*
X153055638Y-60361774D01*
X153199801Y-60505937D01*
X153369319Y-60619205D01*
X153557677Y-60697226D01*
X153757636Y-60737000D01*
X153961514Y-60737000D01*
X154161473Y-60697226D01*
X154349831Y-60619205D01*
X154519349Y-60505937D01*
X154663512Y-60361774D01*
X154776780Y-60192256D01*
X154854801Y-60003898D01*
X154894575Y-59803939D01*
X154894575Y-59600061D01*
X154854801Y-59400102D01*
X154776780Y-59211744D01*
X154663512Y-59042226D01*
X154519349Y-58898063D01*
X154349831Y-58784795D01*
X154324000Y-58774095D01*
X154324000Y-58635561D01*
X154286108Y-58445061D01*
X159239000Y-58445061D01*
X159239000Y-58648939D01*
X159278774Y-58848898D01*
X159356795Y-59037256D01*
X159470063Y-59206774D01*
X159614226Y-59350937D01*
X159783744Y-59464205D01*
X159972102Y-59542226D01*
X160172061Y-59582000D01*
X160375939Y-59582000D01*
X160575898Y-59542226D01*
X160764256Y-59464205D01*
X160933774Y-59350937D01*
X161077937Y-59206774D01*
X161191205Y-59037256D01*
X161269226Y-58848898D01*
X161309000Y-58648939D01*
X161309000Y-58445061D01*
X161269226Y-58245102D01*
X161191205Y-58056744D01*
X161077937Y-57887226D01*
X160933774Y-57743063D01*
X160764256Y-57629795D01*
X160575898Y-57551774D01*
X160375939Y-57512000D01*
X160172061Y-57512000D01*
X159972102Y-57551774D01*
X159783744Y-57629795D01*
X159614226Y-57743063D01*
X159470063Y-57887226D01*
X159356795Y-58056744D01*
X159278774Y-58245102D01*
X159239000Y-58445061D01*
X154286108Y-58445061D01*
X154284226Y-58435602D01*
X154206205Y-58247244D01*
X154092937Y-58077726D01*
X153948774Y-57933563D01*
X153779256Y-57820295D01*
X153590898Y-57742274D01*
X153390939Y-57702500D01*
X153187061Y-57702500D01*
X152987102Y-57742274D01*
X152798744Y-57820295D01*
X152629226Y-57933563D01*
X152485063Y-58077726D01*
X152371795Y-58247244D01*
X152293774Y-58435602D01*
X152254000Y-58635561D01*
X117500000Y-58635561D01*
X117500000Y-56159061D01*
X141586000Y-56159061D01*
X141586000Y-56362939D01*
X141625774Y-56562898D01*
X141703795Y-56751256D01*
X141817063Y-56920774D01*
X141961226Y-57064937D01*
X142130744Y-57178205D01*
X142319102Y-57256226D01*
X142519061Y-57296000D01*
X142722939Y-57296000D01*
X142922898Y-57256226D01*
X143111256Y-57178205D01*
X143280774Y-57064937D01*
X143424937Y-56920774D01*
X143538205Y-56751256D01*
X143616226Y-56562898D01*
X143656000Y-56362939D01*
X143656000Y-56159061D01*
X143616226Y-55959102D01*
X143538205Y-55770744D01*
X143424937Y-55601226D01*
X143280774Y-55457063D01*
X143111256Y-55343795D01*
X142922898Y-55265774D01*
X142722939Y-55226000D01*
X142519061Y-55226000D01*
X142319102Y-55265774D01*
X142130744Y-55343795D01*
X141961226Y-55457063D01*
X141817063Y-55601226D01*
X141703795Y-55770744D01*
X141625774Y-55959102D01*
X141586000Y-56159061D01*
X117500000Y-56159061D01*
X117500000Y-55560558D01*
X117546525Y-55607083D01*
X117662193Y-55491415D01*
X117757956Y-55755814D01*
X118047571Y-55896704D01*
X118359108Y-55978384D01*
X118680595Y-55997718D01*
X118999675Y-55953961D01*
X119304088Y-55848795D01*
X119478044Y-55755814D01*
X119573808Y-55491413D01*
X118618000Y-54535605D01*
X118603858Y-54549748D01*
X118424253Y-54370143D01*
X118438395Y-54356000D01*
X118797605Y-54356000D01*
X119753413Y-55311808D01*
X120017814Y-55216044D01*
X120158704Y-54926429D01*
X120240384Y-54614892D01*
X120259718Y-54293405D01*
X120246219Y-54194967D01*
X121483000Y-54194967D01*
X121483000Y-54517033D01*
X121545832Y-54832912D01*
X121669082Y-55130463D01*
X121848013Y-55398252D01*
X122075748Y-55625987D01*
X122343537Y-55804918D01*
X122641088Y-55928168D01*
X122956967Y-55991000D01*
X123279033Y-55991000D01*
X123594912Y-55928168D01*
X123892463Y-55804918D01*
X124160252Y-55625987D01*
X124387987Y-55398252D01*
X124566918Y-55130463D01*
X124690168Y-54832912D01*
X124753000Y-54517033D01*
X124753000Y-54317561D01*
X145840500Y-54317561D01*
X145840500Y-54521439D01*
X145880274Y-54721398D01*
X145958295Y-54909756D01*
X146071563Y-55079274D01*
X146215726Y-55223437D01*
X146385244Y-55336705D01*
X146573602Y-55414726D01*
X146773561Y-55454500D01*
X146977439Y-55454500D01*
X147177398Y-55414726D01*
X147365756Y-55336705D01*
X147535274Y-55223437D01*
X147679437Y-55079274D01*
X147792705Y-54909756D01*
X147870726Y-54721398D01*
X147910500Y-54521439D01*
X147910500Y-54317561D01*
X147870726Y-54117602D01*
X147792705Y-53929244D01*
X147712736Y-53809561D01*
X150666500Y-53809561D01*
X150666500Y-54013439D01*
X150706274Y-54213398D01*
X150784295Y-54401756D01*
X150897563Y-54571274D01*
X150912917Y-54586628D01*
X150896774Y-54625602D01*
X150857000Y-54825561D01*
X150857000Y-55029439D01*
X150896774Y-55229398D01*
X150974795Y-55417756D01*
X151088063Y-55587274D01*
X151232226Y-55731437D01*
X151401744Y-55844705D01*
X151590102Y-55922726D01*
X151790061Y-55962500D01*
X151993939Y-55962500D01*
X152193898Y-55922726D01*
X152382256Y-55844705D01*
X152551774Y-55731437D01*
X152695937Y-55587274D01*
X152809205Y-55417756D01*
X152887226Y-55229398D01*
X152927000Y-55029439D01*
X152927000Y-54825561D01*
X152887226Y-54625602D01*
X152809205Y-54437244D01*
X152695937Y-54267726D01*
X152680583Y-54252372D01*
X152696726Y-54213398D01*
X152736500Y-54013439D01*
X152736500Y-53809561D01*
X152696726Y-53609602D01*
X152618705Y-53421244D01*
X152505437Y-53251726D01*
X152361274Y-53107563D01*
X152191756Y-52994295D01*
X152003398Y-52916274D01*
X151803439Y-52876500D01*
X151599561Y-52876500D01*
X151399602Y-52916274D01*
X151211244Y-52994295D01*
X151041726Y-53107563D01*
X150897563Y-53251726D01*
X150784295Y-53421244D01*
X150706274Y-53609602D01*
X150666500Y-53809561D01*
X147712736Y-53809561D01*
X147679437Y-53759726D01*
X147535274Y-53615563D01*
X147365756Y-53502295D01*
X147177398Y-53424274D01*
X146977439Y-53384500D01*
X146773561Y-53384500D01*
X146573602Y-53424274D01*
X146385244Y-53502295D01*
X146215726Y-53615563D01*
X146071563Y-53759726D01*
X145958295Y-53929244D01*
X145880274Y-54117602D01*
X145840500Y-54317561D01*
X124753000Y-54317561D01*
X124753000Y-54194967D01*
X124690168Y-53879088D01*
X124566918Y-53581537D01*
X124387987Y-53313748D01*
X124160252Y-53086013D01*
X123892463Y-52907082D01*
X123594912Y-52783832D01*
X123279033Y-52721000D01*
X122956967Y-52721000D01*
X122641088Y-52783832D01*
X122343537Y-52907082D01*
X122075748Y-53086013D01*
X121848013Y-53313748D01*
X121669082Y-53581537D01*
X121545832Y-53879088D01*
X121483000Y-54194967D01*
X120246219Y-54194967D01*
X120215961Y-53974325D01*
X120110795Y-53669912D01*
X120017814Y-53495956D01*
X119753413Y-53400192D01*
X118797605Y-54356000D01*
X118438395Y-54356000D01*
X118424253Y-54341858D01*
X118603858Y-54162253D01*
X118618000Y-54176395D01*
X119573808Y-53220587D01*
X119478044Y-52956186D01*
X119188429Y-52815296D01*
X118876892Y-52733616D01*
X118555405Y-52714282D01*
X118236325Y-52758039D01*
X117931912Y-52863205D01*
X117757956Y-52956186D01*
X117662193Y-53220585D01*
X117546525Y-53104917D01*
X117500000Y-53151442D01*
X117500000Y-50134063D01*
X145586500Y-50134063D01*
X145586500Y-50337941D01*
X145626274Y-50537900D01*
X145704295Y-50726258D01*
X145817563Y-50895776D01*
X145961726Y-51039939D01*
X146131244Y-51153207D01*
X146319602Y-51231228D01*
X146519561Y-51271002D01*
X146603346Y-51271002D01*
X146685037Y-51393262D01*
X146745464Y-51453689D01*
X146712970Y-51475400D01*
X146568807Y-51619563D01*
X146455539Y-51789081D01*
X146377518Y-51977439D01*
X146337744Y-52177398D01*
X146337744Y-52381276D01*
X146377518Y-52581235D01*
X146455539Y-52769593D01*
X146568807Y-52939111D01*
X146712970Y-53083274D01*
X146882488Y-53196542D01*
X147070846Y-53274563D01*
X147270805Y-53314337D01*
X147474683Y-53314337D01*
X147674642Y-53274563D01*
X147863000Y-53196542D01*
X148032518Y-53083274D01*
X148176681Y-52939111D01*
X148289949Y-52769593D01*
X148367970Y-52581235D01*
X148407744Y-52381276D01*
X148407744Y-52177398D01*
X148367970Y-51977439D01*
X148289949Y-51789081D01*
X148282252Y-51777561D01*
X154107500Y-51777561D01*
X154107500Y-51981439D01*
X154147274Y-52181398D01*
X154225295Y-52369756D01*
X154338563Y-52539274D01*
X154482726Y-52683437D01*
X154652244Y-52796705D01*
X154794301Y-52855547D01*
X154794000Y-52857061D01*
X154794000Y-53060939D01*
X154833774Y-53260898D01*
X154911795Y-53449256D01*
X155025063Y-53618774D01*
X155169226Y-53762937D01*
X155338744Y-53876205D01*
X155365500Y-53887288D01*
X155365500Y-53949939D01*
X155405274Y-54149898D01*
X155413557Y-54169896D01*
X155295939Y-54146500D01*
X155092061Y-54146500D01*
X154892102Y-54186274D01*
X154703744Y-54264295D01*
X154534226Y-54377563D01*
X154390063Y-54521726D01*
X154276795Y-54691244D01*
X154198774Y-54879602D01*
X154159000Y-55079561D01*
X154159000Y-55283439D01*
X154198774Y-55483398D01*
X154276795Y-55671756D01*
X154390063Y-55841274D01*
X154534226Y-55985437D01*
X154703744Y-56098705D01*
X154892102Y-56176726D01*
X155092061Y-56216500D01*
X155295939Y-56216500D01*
X155495898Y-56176726D01*
X155684256Y-56098705D01*
X155853774Y-55985437D01*
X155997650Y-55841561D01*
X160953500Y-55841561D01*
X160953500Y-56045439D01*
X160993274Y-56245398D01*
X161071295Y-56433756D01*
X161184563Y-56603274D01*
X161328726Y-56747437D01*
X161498244Y-56860705D01*
X161686602Y-56938726D01*
X161886561Y-56978500D01*
X162090439Y-56978500D01*
X162290398Y-56938726D01*
X162478756Y-56860705D01*
X162648274Y-56747437D01*
X162792437Y-56603274D01*
X162905705Y-56433756D01*
X162983726Y-56245398D01*
X163023500Y-56045439D01*
X163023500Y-55841561D01*
X162983726Y-55641602D01*
X162905705Y-55453244D01*
X162792437Y-55283726D01*
X162648274Y-55139563D01*
X162478756Y-55026295D01*
X162290398Y-54948274D01*
X162090439Y-54908500D01*
X161886561Y-54908500D01*
X161686602Y-54948274D01*
X161498244Y-55026295D01*
X161328726Y-55139563D01*
X161184563Y-55283726D01*
X161071295Y-55453244D01*
X160993274Y-55641602D01*
X160953500Y-55841561D01*
X155997650Y-55841561D01*
X155997937Y-55841274D01*
X156111205Y-55671756D01*
X156189226Y-55483398D01*
X156229000Y-55283439D01*
X156229000Y-55079561D01*
X156189226Y-54879602D01*
X156180943Y-54859604D01*
X156298561Y-54883000D01*
X156502439Y-54883000D01*
X156702398Y-54843226D01*
X156890756Y-54765205D01*
X157060274Y-54651937D01*
X157204437Y-54507774D01*
X157317705Y-54338256D01*
X157395726Y-54149898D01*
X157435500Y-53949939D01*
X157435500Y-53746061D01*
X157395726Y-53546102D01*
X157317705Y-53357744D01*
X157204437Y-53188226D01*
X157060274Y-53044063D01*
X156890756Y-52930795D01*
X156864000Y-52919712D01*
X156864000Y-52914500D01*
X156883439Y-52914500D01*
X157083398Y-52874726D01*
X157271756Y-52796705D01*
X157441274Y-52683437D01*
X157585437Y-52539274D01*
X157698705Y-52369756D01*
X157776726Y-52181398D01*
X157816500Y-51981439D01*
X157816500Y-51777561D01*
X157778608Y-51587061D01*
X161779000Y-51587061D01*
X161779000Y-51790939D01*
X161818774Y-51990898D01*
X161896795Y-52179256D01*
X162010063Y-52348774D01*
X162154226Y-52492937D01*
X162323744Y-52606205D01*
X162512102Y-52684226D01*
X162712061Y-52724000D01*
X162915939Y-52724000D01*
X163115898Y-52684226D01*
X163304256Y-52606205D01*
X163473774Y-52492937D01*
X163617937Y-52348774D01*
X163731205Y-52179256D01*
X163809226Y-51990898D01*
X163849000Y-51790939D01*
X163849000Y-51587061D01*
X163809226Y-51387102D01*
X163731205Y-51198744D01*
X163617937Y-51029226D01*
X163473774Y-50885063D01*
X163304256Y-50771795D01*
X163115898Y-50693774D01*
X162915939Y-50654000D01*
X162712061Y-50654000D01*
X162512102Y-50693774D01*
X162323744Y-50771795D01*
X162154226Y-50885063D01*
X162010063Y-51029226D01*
X161896795Y-51198744D01*
X161818774Y-51387102D01*
X161779000Y-51587061D01*
X157778608Y-51587061D01*
X157776726Y-51577602D01*
X157698705Y-51389244D01*
X157594524Y-51233326D01*
X157652756Y-51209205D01*
X157822274Y-51095937D01*
X157966437Y-50951774D01*
X158079705Y-50782256D01*
X158157726Y-50593898D01*
X158197500Y-50393939D01*
X158197500Y-50284000D01*
X164167928Y-50284000D01*
X164167928Y-51634000D01*
X164180188Y-51758482D01*
X164216498Y-51878180D01*
X164275463Y-51988494D01*
X164354815Y-52085185D01*
X164441697Y-52156487D01*
X164320093Y-52338482D01*
X164221342Y-52576887D01*
X164171000Y-52829976D01*
X164171000Y-53088024D01*
X164221342Y-53341113D01*
X164320093Y-53579518D01*
X164463456Y-53794077D01*
X164628379Y-53959000D01*
X164463456Y-54123923D01*
X164320093Y-54338482D01*
X164221342Y-54576887D01*
X164171000Y-54829976D01*
X164171000Y-55088024D01*
X164221342Y-55341113D01*
X164320093Y-55579518D01*
X164463456Y-55794077D01*
X164645923Y-55976544D01*
X164860482Y-56119907D01*
X165098887Y-56218658D01*
X165351976Y-56269000D01*
X165610024Y-56269000D01*
X165863113Y-56218658D01*
X166101518Y-56119907D01*
X166316077Y-55976544D01*
X166485715Y-55806906D01*
X166502697Y-55830227D01*
X166691463Y-56004344D01*
X166910570Y-56138289D01*
X167151599Y-56226915D01*
X167354000Y-56104085D01*
X167354000Y-55086000D01*
X167608000Y-55086000D01*
X167608000Y-56104085D01*
X167810401Y-56226915D01*
X168051430Y-56138289D01*
X168270537Y-56004344D01*
X168459303Y-55830227D01*
X168610473Y-55622629D01*
X168718238Y-55389528D01*
X168748910Y-55288400D01*
X168625224Y-55086000D01*
X167608000Y-55086000D01*
X167354000Y-55086000D01*
X167334000Y-55086000D01*
X167334000Y-54832000D01*
X167354000Y-54832000D01*
X167354000Y-54812000D01*
X167608000Y-54812000D01*
X167608000Y-54832000D01*
X168625224Y-54832000D01*
X168748910Y-54629600D01*
X168718238Y-54528472D01*
X168610473Y-54295371D01*
X168459303Y-54087773D01*
X168326940Y-53965681D01*
X168498544Y-53794077D01*
X168641907Y-53579518D01*
X168740658Y-53341113D01*
X168764000Y-53223764D01*
X168764000Y-53314939D01*
X168803774Y-53514898D01*
X168881795Y-53703256D01*
X168995063Y-53872774D01*
X169139226Y-54016937D01*
X169308744Y-54130205D01*
X169497102Y-54208226D01*
X169697061Y-54248000D01*
X169900939Y-54248000D01*
X170100898Y-54208226D01*
X170289256Y-54130205D01*
X170458774Y-54016937D01*
X170602937Y-53872774D01*
X170716205Y-53703256D01*
X170794226Y-53514898D01*
X170834000Y-53314939D01*
X170834000Y-53111061D01*
X170794226Y-52911102D01*
X170716205Y-52722744D01*
X170602937Y-52553226D01*
X170458774Y-52409063D01*
X170289256Y-52295795D01*
X170100898Y-52217774D01*
X169900939Y-52178000D01*
X169697061Y-52178000D01*
X169497102Y-52217774D01*
X169308744Y-52295795D01*
X169139226Y-52409063D01*
X168995063Y-52553226D01*
X168881795Y-52722744D01*
X168803774Y-52911102D01*
X168791000Y-52975322D01*
X168791000Y-52829976D01*
X168740658Y-52576887D01*
X168641907Y-52338482D01*
X168498544Y-52123923D01*
X168333621Y-51959000D01*
X168498544Y-51794077D01*
X168641907Y-51579518D01*
X168740658Y-51341113D01*
X168791000Y-51088024D01*
X168791000Y-50829976D01*
X168740658Y-50576887D01*
X168641907Y-50338482D01*
X168498544Y-50123923D01*
X168316077Y-49941456D01*
X168101518Y-49798093D01*
X167863113Y-49699342D01*
X167610024Y-49649000D01*
X167351976Y-49649000D01*
X167098887Y-49699342D01*
X166860482Y-49798093D01*
X166678487Y-49919697D01*
X166607185Y-49832815D01*
X166510494Y-49753463D01*
X166400180Y-49694498D01*
X166280482Y-49658188D01*
X166156000Y-49645928D01*
X164806000Y-49645928D01*
X164681518Y-49658188D01*
X164561820Y-49694498D01*
X164451506Y-49753463D01*
X164354815Y-49832815D01*
X164275463Y-49929506D01*
X164216498Y-50039820D01*
X164180188Y-50159518D01*
X164167928Y-50284000D01*
X158197500Y-50284000D01*
X158197500Y-50190061D01*
X158157726Y-49990102D01*
X158079705Y-49801744D01*
X157966437Y-49632226D01*
X157822274Y-49488063D01*
X157652756Y-49374795D01*
X157464398Y-49296774D01*
X157264439Y-49257000D01*
X157060561Y-49257000D01*
X156860602Y-49296774D01*
X156672244Y-49374795D01*
X156502726Y-49488063D01*
X156358563Y-49632226D01*
X156245295Y-49801744D01*
X156167274Y-49990102D01*
X156127500Y-50190061D01*
X156127500Y-50393939D01*
X156167274Y-50593898D01*
X156245295Y-50782256D01*
X156349476Y-50938174D01*
X156291244Y-50962295D01*
X156121726Y-51075563D01*
X155977563Y-51219726D01*
X155962000Y-51243018D01*
X155946437Y-51219726D01*
X155802274Y-51075563D01*
X155632756Y-50962295D01*
X155444398Y-50884274D01*
X155244439Y-50844500D01*
X155040561Y-50844500D01*
X154840602Y-50884274D01*
X154652244Y-50962295D01*
X154482726Y-51075563D01*
X154338563Y-51219726D01*
X154225295Y-51389244D01*
X154147274Y-51577602D01*
X154107500Y-51777561D01*
X148282252Y-51777561D01*
X148176681Y-51619563D01*
X148116254Y-51559136D01*
X148148748Y-51537425D01*
X148292911Y-51393262D01*
X148377195Y-51267121D01*
X148421063Y-51332774D01*
X148565226Y-51476937D01*
X148734744Y-51590205D01*
X148923102Y-51668226D01*
X149123061Y-51708000D01*
X149326939Y-51708000D01*
X149526898Y-51668226D01*
X149715256Y-51590205D01*
X149884774Y-51476937D01*
X150028937Y-51332774D01*
X150142205Y-51163256D01*
X150220226Y-50974898D01*
X150260000Y-50774939D01*
X150260000Y-50571061D01*
X150220226Y-50371102D01*
X150158077Y-50221060D01*
X150984000Y-50221060D01*
X150984000Y-50424938D01*
X151023774Y-50624897D01*
X151101795Y-50813255D01*
X151215063Y-50982773D01*
X151359226Y-51126936D01*
X151528744Y-51240204D01*
X151717102Y-51318225D01*
X151917061Y-51357999D01*
X152120939Y-51357999D01*
X152320898Y-51318225D01*
X152509256Y-51240204D01*
X152678774Y-51126936D01*
X152822937Y-50982773D01*
X152936205Y-50813255D01*
X153014226Y-50624897D01*
X153054000Y-50424938D01*
X153054000Y-50221060D01*
X153014226Y-50021101D01*
X152936205Y-49832743D01*
X152822937Y-49663225D01*
X152678774Y-49519062D01*
X152509256Y-49405794D01*
X152320898Y-49327773D01*
X152120939Y-49287999D01*
X151917061Y-49287999D01*
X151717102Y-49327773D01*
X151528744Y-49405794D01*
X151359226Y-49519062D01*
X151215063Y-49663225D01*
X151101795Y-49832743D01*
X151023774Y-50021101D01*
X150984000Y-50221060D01*
X150158077Y-50221060D01*
X150142205Y-50182744D01*
X150028937Y-50013226D01*
X149884774Y-49869063D01*
X149715256Y-49755795D01*
X149526898Y-49677774D01*
X149326939Y-49638000D01*
X149123061Y-49638000D01*
X148923102Y-49677774D01*
X148734744Y-49755795D01*
X148565226Y-49869063D01*
X148421063Y-50013226D01*
X148336779Y-50139367D01*
X148292911Y-50073714D01*
X148148748Y-49929551D01*
X147979230Y-49816283D01*
X147790872Y-49738262D01*
X147590913Y-49698488D01*
X147507128Y-49698488D01*
X147425437Y-49576228D01*
X147281274Y-49432065D01*
X147111756Y-49318797D01*
X146923398Y-49240776D01*
X146723439Y-49201002D01*
X146519561Y-49201002D01*
X146319602Y-49240776D01*
X146131244Y-49318797D01*
X145961726Y-49432065D01*
X145817563Y-49576228D01*
X145704295Y-49745746D01*
X145626274Y-49934104D01*
X145586500Y-50134063D01*
X117500000Y-50134063D01*
X117500000Y-49060558D01*
X117546525Y-49107083D01*
X117662193Y-48991415D01*
X117757956Y-49255814D01*
X118047571Y-49396704D01*
X118359108Y-49478384D01*
X118680595Y-49497718D01*
X118999675Y-49453961D01*
X119304088Y-49348795D01*
X119478044Y-49255814D01*
X119573808Y-48991413D01*
X118618000Y-48035605D01*
X118603858Y-48049748D01*
X118424253Y-47870143D01*
X118438395Y-47856000D01*
X118797605Y-47856000D01*
X119753413Y-48811808D01*
X120017814Y-48716044D01*
X120158704Y-48426429D01*
X120240384Y-48114892D01*
X120259718Y-47793405D01*
X120246219Y-47694967D01*
X121483000Y-47694967D01*
X121483000Y-48017033D01*
X121545832Y-48332912D01*
X121669082Y-48630463D01*
X121848013Y-48898252D01*
X122075748Y-49125987D01*
X122343537Y-49304918D01*
X122641088Y-49428168D01*
X122956967Y-49491000D01*
X123279033Y-49491000D01*
X123594912Y-49428168D01*
X123892463Y-49304918D01*
X124160252Y-49125987D01*
X124387987Y-48898252D01*
X124566918Y-48630463D01*
X124690168Y-48332912D01*
X124753000Y-48017033D01*
X124753000Y-47967561D01*
X142284500Y-47967561D01*
X142284500Y-48171439D01*
X142324274Y-48371398D01*
X142402295Y-48559756D01*
X142515563Y-48729274D01*
X142659726Y-48873437D01*
X142829244Y-48986705D01*
X143017602Y-49064726D01*
X143217561Y-49104500D01*
X143421439Y-49104500D01*
X143621398Y-49064726D01*
X143809756Y-48986705D01*
X143979274Y-48873437D01*
X144123437Y-48729274D01*
X144236705Y-48559756D01*
X144314726Y-48371398D01*
X144354500Y-48171439D01*
X144354500Y-47967561D01*
X144314726Y-47767602D01*
X144236705Y-47579244D01*
X144123437Y-47409726D01*
X143979274Y-47265563D01*
X143889475Y-47205561D01*
X144761000Y-47205561D01*
X144761000Y-47409439D01*
X144800774Y-47609398D01*
X144878795Y-47797756D01*
X144992063Y-47967274D01*
X145136226Y-48111437D01*
X145305744Y-48224705D01*
X145494102Y-48302726D01*
X145694061Y-48342500D01*
X145897939Y-48342500D01*
X146097898Y-48302726D01*
X146286256Y-48224705D01*
X146455774Y-48111437D01*
X146599937Y-47967274D01*
X146713205Y-47797756D01*
X146791226Y-47609398D01*
X146831000Y-47409439D01*
X146831000Y-47269061D01*
X148825000Y-47269061D01*
X148825000Y-47472939D01*
X148864774Y-47672898D01*
X148942795Y-47861256D01*
X149056063Y-48030774D01*
X149200226Y-48174937D01*
X149369744Y-48288205D01*
X149558102Y-48366226D01*
X149758061Y-48406000D01*
X149961939Y-48406000D01*
X150161898Y-48366226D01*
X150350256Y-48288205D01*
X150519774Y-48174937D01*
X150663937Y-48030774D01*
X150685500Y-47998502D01*
X150707063Y-48030773D01*
X150851226Y-48174936D01*
X151020744Y-48288204D01*
X151209102Y-48366225D01*
X151409061Y-48405999D01*
X151612939Y-48405999D01*
X151812898Y-48366225D01*
X152001256Y-48288204D01*
X152170774Y-48174936D01*
X152314937Y-48030773D01*
X152428205Y-47861255D01*
X152506226Y-47672897D01*
X152546000Y-47472938D01*
X152546000Y-47269060D01*
X154032000Y-47269060D01*
X154032000Y-47472938D01*
X154071774Y-47672897D01*
X154149795Y-47861255D01*
X154263063Y-48030773D01*
X154407226Y-48174936D01*
X154576744Y-48288204D01*
X154765102Y-48366225D01*
X154965061Y-48405999D01*
X155168939Y-48405999D01*
X155368898Y-48366225D01*
X155557256Y-48288204D01*
X155726774Y-48174936D01*
X155870937Y-48030773D01*
X155984205Y-47861255D01*
X156062226Y-47672897D01*
X156102000Y-47472938D01*
X156102000Y-47269060D01*
X156062226Y-47069101D01*
X155984205Y-46880743D01*
X155870937Y-46711225D01*
X155726774Y-46567062D01*
X155557256Y-46453794D01*
X155368898Y-46375773D01*
X155168939Y-46335999D01*
X154965061Y-46335999D01*
X154765102Y-46375773D01*
X154576744Y-46453794D01*
X154407226Y-46567062D01*
X154263063Y-46711225D01*
X154149795Y-46880743D01*
X154071774Y-47069101D01*
X154032000Y-47269060D01*
X152546000Y-47269060D01*
X152506226Y-47069101D01*
X152428205Y-46880743D01*
X152314937Y-46711225D01*
X152170774Y-46567062D01*
X152001256Y-46453794D01*
X151812898Y-46375773D01*
X151612939Y-46335999D01*
X151409061Y-46335999D01*
X151209102Y-46375773D01*
X151020744Y-46453794D01*
X150851226Y-46567062D01*
X150707063Y-46711225D01*
X150685500Y-46743497D01*
X150663937Y-46711226D01*
X150519774Y-46567063D01*
X150350256Y-46453795D01*
X150161898Y-46375774D01*
X149961939Y-46336000D01*
X149758061Y-46336000D01*
X149558102Y-46375774D01*
X149369744Y-46453795D01*
X149200226Y-46567063D01*
X149056063Y-46711226D01*
X148942795Y-46880744D01*
X148864774Y-47069102D01*
X148825000Y-47269061D01*
X146831000Y-47269061D01*
X146831000Y-47205561D01*
X146791226Y-47005602D01*
X146713205Y-46817244D01*
X146599937Y-46647726D01*
X146455774Y-46503563D01*
X146286256Y-46390295D01*
X146097898Y-46312274D01*
X145897939Y-46272500D01*
X145694061Y-46272500D01*
X145494102Y-46312274D01*
X145305744Y-46390295D01*
X145136226Y-46503563D01*
X144992063Y-46647726D01*
X144878795Y-46817244D01*
X144800774Y-47005602D01*
X144761000Y-47205561D01*
X143889475Y-47205561D01*
X143809756Y-47152295D01*
X143621398Y-47074274D01*
X143421439Y-47034500D01*
X143217561Y-47034500D01*
X143017602Y-47074274D01*
X142829244Y-47152295D01*
X142659726Y-47265563D01*
X142515563Y-47409726D01*
X142402295Y-47579244D01*
X142324274Y-47767602D01*
X142284500Y-47967561D01*
X124753000Y-47967561D01*
X124753000Y-47694967D01*
X124690168Y-47379088D01*
X124566918Y-47081537D01*
X124387987Y-46813748D01*
X124160252Y-46586013D01*
X123892463Y-46407082D01*
X123594912Y-46283832D01*
X123279033Y-46221000D01*
X122956967Y-46221000D01*
X122641088Y-46283832D01*
X122343537Y-46407082D01*
X122075748Y-46586013D01*
X121848013Y-46813748D01*
X121669082Y-47081537D01*
X121545832Y-47379088D01*
X121483000Y-47694967D01*
X120246219Y-47694967D01*
X120215961Y-47474325D01*
X120110795Y-47169912D01*
X120017814Y-46995956D01*
X119753413Y-46900192D01*
X118797605Y-47856000D01*
X118438395Y-47856000D01*
X118424253Y-47841858D01*
X118603858Y-47662253D01*
X118618000Y-47676395D01*
X119573808Y-46720587D01*
X119527604Y-46593018D01*
X120014132Y-46542481D01*
X120547661Y-46377528D01*
X121013524Y-46128518D01*
X121133184Y-45935561D01*
X139617500Y-45935561D01*
X139617500Y-46139439D01*
X139657274Y-46339398D01*
X139735295Y-46527756D01*
X139848563Y-46697274D01*
X139992726Y-46841437D01*
X140162244Y-46954705D01*
X140350602Y-47032726D01*
X140550561Y-47072500D01*
X140754439Y-47072500D01*
X140954398Y-47032726D01*
X141142756Y-46954705D01*
X141312274Y-46841437D01*
X141456437Y-46697274D01*
X141569705Y-46527756D01*
X141647726Y-46339398D01*
X141687500Y-46139439D01*
X141687500Y-45935561D01*
X141647726Y-45735602D01*
X141569705Y-45547244D01*
X141456437Y-45377726D01*
X141312274Y-45233563D01*
X141222475Y-45173561D01*
X147174000Y-45173561D01*
X147174000Y-45377439D01*
X147213774Y-45577398D01*
X147291795Y-45765756D01*
X147405063Y-45935274D01*
X147549226Y-46079437D01*
X147718744Y-46192705D01*
X147907102Y-46270726D01*
X148107061Y-46310500D01*
X148310939Y-46310500D01*
X148510898Y-46270726D01*
X148699256Y-46192705D01*
X148868774Y-46079437D01*
X149012937Y-45935274D01*
X149126205Y-45765756D01*
X149204226Y-45577398D01*
X149244000Y-45377439D01*
X149244000Y-45173561D01*
X149204226Y-44973602D01*
X149126205Y-44785244D01*
X149012937Y-44615726D01*
X148868774Y-44471563D01*
X148699256Y-44358295D01*
X148670781Y-44346500D01*
X150324928Y-44346500D01*
X150324928Y-45696500D01*
X150337188Y-45820982D01*
X150373498Y-45940680D01*
X150432463Y-46050994D01*
X150511815Y-46147685D01*
X150608506Y-46227037D01*
X150718820Y-46286002D01*
X150838518Y-46322312D01*
X150963000Y-46334572D01*
X152313000Y-46334572D01*
X152437482Y-46322312D01*
X152557180Y-46286002D01*
X152667494Y-46227037D01*
X152764185Y-46147685D01*
X152835487Y-46060803D01*
X153017482Y-46182407D01*
X153255887Y-46281158D01*
X153508976Y-46331500D01*
X153767024Y-46331500D01*
X154020113Y-46281158D01*
X154258518Y-46182407D01*
X154473077Y-46039044D01*
X154638000Y-45874121D01*
X154802923Y-46039044D01*
X155017482Y-46182407D01*
X155255887Y-46281158D01*
X155508976Y-46331500D01*
X155767024Y-46331500D01*
X156020113Y-46281158D01*
X156258518Y-46182407D01*
X156473077Y-46039044D01*
X156638000Y-45874121D01*
X156802923Y-46039044D01*
X157017482Y-46182407D01*
X157255887Y-46281158D01*
X157508976Y-46331500D01*
X157767024Y-46331500D01*
X158020113Y-46281158D01*
X158258518Y-46182407D01*
X158473077Y-46039044D01*
X158644681Y-45867440D01*
X158766773Y-45999803D01*
X158974371Y-46150973D01*
X159207472Y-46258738D01*
X159308600Y-46289410D01*
X159511000Y-46165724D01*
X159511000Y-45148500D01*
X159765000Y-45148500D01*
X159765000Y-46165724D01*
X159967400Y-46289410D01*
X160068528Y-46258738D01*
X160301629Y-46150973D01*
X160428242Y-46058775D01*
X169130830Y-46058775D01*
X169370976Y-46446018D01*
X169864877Y-46706641D01*
X170400133Y-46865901D01*
X170956174Y-46917678D01*
X171511632Y-46859981D01*
X172045161Y-46695028D01*
X172511024Y-46446018D01*
X172751170Y-46058775D01*
X170941000Y-44248605D01*
X169130830Y-46058775D01*
X160428242Y-46058775D01*
X160509227Y-45999803D01*
X160683344Y-45811037D01*
X160817289Y-45591930D01*
X160905915Y-45350901D01*
X160783085Y-45148500D01*
X159765000Y-45148500D01*
X159511000Y-45148500D01*
X159491000Y-45148500D01*
X159491000Y-44894500D01*
X159511000Y-44894500D01*
X159511000Y-44874500D01*
X159765000Y-44874500D01*
X159765000Y-44894500D01*
X160783085Y-44894500D01*
X160905915Y-44692099D01*
X160817289Y-44451070D01*
X160683344Y-44231963D01*
X160547025Y-44084174D01*
X168092322Y-44084174D01*
X168150019Y-44639632D01*
X168314972Y-45173161D01*
X168563982Y-45639024D01*
X168951225Y-45879170D01*
X170761395Y-44069000D01*
X168951225Y-42258830D01*
X168563982Y-42498976D01*
X168303359Y-42992877D01*
X168144099Y-43528133D01*
X168092322Y-44084174D01*
X160547025Y-44084174D01*
X160509227Y-44043197D01*
X160485906Y-44026215D01*
X160655544Y-43856577D01*
X160798907Y-43642018D01*
X160897658Y-43403613D01*
X160948000Y-43150524D01*
X160948000Y-42892476D01*
X160944986Y-42877325D01*
X160994063Y-42950774D01*
X161138226Y-43094937D01*
X161307744Y-43208205D01*
X161496102Y-43286226D01*
X161696061Y-43326000D01*
X161899939Y-43326000D01*
X162099898Y-43286226D01*
X162288256Y-43208205D01*
X162457774Y-43094937D01*
X162601937Y-42950774D01*
X162715205Y-42781256D01*
X162793226Y-42592898D01*
X162833000Y-42392939D01*
X162833000Y-42189061D01*
X162793226Y-41989102D01*
X162715205Y-41800744D01*
X162601937Y-41631226D01*
X162457774Y-41487063D01*
X162288256Y-41373795D01*
X162099898Y-41295774D01*
X161899939Y-41256000D01*
X161696061Y-41256000D01*
X161496102Y-41295774D01*
X161307744Y-41373795D01*
X161138226Y-41487063D01*
X160994063Y-41631226D01*
X160880795Y-41800744D01*
X160802774Y-41989102D01*
X160763000Y-42189061D01*
X160763000Y-42347243D01*
X160655544Y-42186423D01*
X160473077Y-42003956D01*
X160258518Y-41860593D01*
X160020113Y-41761842D01*
X159767024Y-41711500D01*
X159508976Y-41711500D01*
X159255887Y-41761842D01*
X159017482Y-41860593D01*
X158802923Y-42003956D01*
X158638000Y-42168879D01*
X158473077Y-42003956D01*
X158258518Y-41860593D01*
X158020113Y-41761842D01*
X157767024Y-41711500D01*
X157508976Y-41711500D01*
X157255887Y-41761842D01*
X157017482Y-41860593D01*
X156802923Y-42003956D01*
X156638000Y-42168879D01*
X156473077Y-42003956D01*
X156258518Y-41860593D01*
X156020113Y-41761842D01*
X155767024Y-41711500D01*
X155508976Y-41711500D01*
X155255887Y-41761842D01*
X155017482Y-41860593D01*
X154802923Y-42003956D01*
X154638000Y-42168879D01*
X154473077Y-42003956D01*
X154258518Y-41860593D01*
X154020113Y-41761842D01*
X153767024Y-41711500D01*
X153508976Y-41711500D01*
X153255887Y-41761842D01*
X153017482Y-41860593D01*
X152802923Y-42003956D01*
X152638000Y-42168879D01*
X152473077Y-42003956D01*
X152258518Y-41860593D01*
X152020113Y-41761842D01*
X151767024Y-41711500D01*
X151508976Y-41711500D01*
X151255887Y-41761842D01*
X151017482Y-41860593D01*
X150802923Y-42003956D01*
X150620456Y-42186423D01*
X150477093Y-42400982D01*
X150378342Y-42639387D01*
X150328000Y-42892476D01*
X150328000Y-43150524D01*
X150378342Y-43403613D01*
X150477093Y-43642018D01*
X150598697Y-43824013D01*
X150511815Y-43895315D01*
X150432463Y-43992006D01*
X150373498Y-44102320D01*
X150337188Y-44222018D01*
X150324928Y-44346500D01*
X148670781Y-44346500D01*
X148510898Y-44280274D01*
X148310939Y-44240500D01*
X148107061Y-44240500D01*
X147907102Y-44280274D01*
X147718744Y-44358295D01*
X147549226Y-44471563D01*
X147405063Y-44615726D01*
X147291795Y-44785244D01*
X147213774Y-44973602D01*
X147174000Y-45173561D01*
X141222475Y-45173561D01*
X141142756Y-45120295D01*
X140954398Y-45042274D01*
X140754439Y-45002500D01*
X140550561Y-45002500D01*
X140350602Y-45042274D01*
X140162244Y-45120295D01*
X139992726Y-45233563D01*
X139848563Y-45377726D01*
X139735295Y-45547244D01*
X139657274Y-45735602D01*
X139617500Y-45935561D01*
X121133184Y-45935561D01*
X121253670Y-45741275D01*
X119443500Y-43931105D01*
X119429358Y-43945248D01*
X119249753Y-43765643D01*
X119263895Y-43751500D01*
X119623105Y-43751500D01*
X121433275Y-45561670D01*
X121820518Y-45321524D01*
X122081141Y-44827623D01*
X122240401Y-44292367D01*
X122292178Y-43736326D01*
X122234481Y-43180868D01*
X122069528Y-42647339D01*
X121926398Y-42379561D01*
X124250500Y-42379561D01*
X124250500Y-42583439D01*
X124290274Y-42783398D01*
X124368295Y-42971756D01*
X124481563Y-43141274D01*
X124625726Y-43285437D01*
X124795244Y-43398705D01*
X124983602Y-43476726D01*
X125183561Y-43516500D01*
X125387439Y-43516500D01*
X125587398Y-43476726D01*
X125775756Y-43398705D01*
X125945274Y-43285437D01*
X126089437Y-43141274D01*
X126202705Y-42971756D01*
X126280726Y-42783398D01*
X126320500Y-42583439D01*
X126320500Y-42379561D01*
X126280726Y-42179602D01*
X126202705Y-41991244D01*
X126089437Y-41821726D01*
X125945274Y-41677563D01*
X125775756Y-41564295D01*
X125587398Y-41486274D01*
X125387439Y-41446500D01*
X125183561Y-41446500D01*
X124983602Y-41486274D01*
X124795244Y-41564295D01*
X124625726Y-41677563D01*
X124481563Y-41821726D01*
X124368295Y-41991244D01*
X124290274Y-42179602D01*
X124250500Y-42379561D01*
X121926398Y-42379561D01*
X121820518Y-42181476D01*
X121433275Y-41941330D01*
X119623105Y-43751500D01*
X119263895Y-43751500D01*
X119249753Y-43737358D01*
X119429358Y-43557753D01*
X119443500Y-43571895D01*
X121253670Y-41761725D01*
X121013524Y-41374482D01*
X120519623Y-41113859D01*
X119984367Y-40954599D01*
X119709192Y-40928975D01*
X120692705Y-40347561D01*
X146221500Y-40347561D01*
X146221500Y-40551439D01*
X146261274Y-40751398D01*
X146339295Y-40939756D01*
X146452563Y-41109274D01*
X146596726Y-41253437D01*
X146766244Y-41366705D01*
X146954602Y-41444726D01*
X147154561Y-41484500D01*
X147358439Y-41484500D01*
X147558398Y-41444726D01*
X147746756Y-41366705D01*
X147916274Y-41253437D01*
X148060437Y-41109274D01*
X148173705Y-40939756D01*
X148251726Y-40751398D01*
X148291500Y-40551439D01*
X148291500Y-40347561D01*
X148251726Y-40147602D01*
X148194694Y-40009915D01*
X148208852Y-40002348D01*
X148256159Y-39778764D01*
X147586000Y-39108605D01*
X147571858Y-39122748D01*
X147392253Y-38943143D01*
X147406395Y-38929000D01*
X146736236Y-38258841D01*
X146512652Y-38306148D01*
X146411763Y-38527516D01*
X146356000Y-38764313D01*
X146347505Y-39007438D01*
X146386605Y-39247549D01*
X146471798Y-39475418D01*
X146512652Y-39551852D01*
X146683025Y-39587900D01*
X146596726Y-39645563D01*
X146452563Y-39789726D01*
X146339295Y-39959244D01*
X146261274Y-40147602D01*
X146221500Y-40347561D01*
X120692705Y-40347561D01*
X121654876Y-39778764D01*
X142065841Y-39778764D01*
X142113148Y-40002348D01*
X142334516Y-40103237D01*
X142571313Y-40159000D01*
X142814438Y-40167495D01*
X143054549Y-40128395D01*
X143282418Y-40043202D01*
X143358852Y-40002348D01*
X143406159Y-39778764D01*
X142736000Y-39108605D01*
X142065841Y-39778764D01*
X121654876Y-39778764D01*
X125319357Y-37612469D01*
X140352136Y-37612469D01*
X140486480Y-37909606D01*
X140830614Y-38082449D01*
X141201857Y-38184834D01*
X141585940Y-38212825D01*
X141812118Y-38184726D01*
X141886234Y-38258842D01*
X141662652Y-38306148D01*
X141561763Y-38527516D01*
X141506000Y-38764313D01*
X141497505Y-39007438D01*
X141536605Y-39247549D01*
X141621798Y-39475418D01*
X141662652Y-39551852D01*
X141886236Y-39599159D01*
X142556395Y-38929000D01*
X142915605Y-38929000D01*
X143585764Y-39599159D01*
X143809348Y-39551852D01*
X143910237Y-39330484D01*
X143966000Y-39093687D01*
X143974495Y-38850562D01*
X143935395Y-38610451D01*
X143850202Y-38382582D01*
X143809348Y-38306148D01*
X143585764Y-38258841D01*
X142915605Y-38929000D01*
X142556395Y-38929000D01*
X142542253Y-38914858D01*
X142721858Y-38735253D01*
X142736000Y-38749395D01*
X143406159Y-38079236D01*
X146915841Y-38079236D01*
X147586000Y-38749395D01*
X147600143Y-38735253D01*
X147779748Y-38914858D01*
X147765605Y-38929000D01*
X148435764Y-39599159D01*
X148659348Y-39551852D01*
X148760237Y-39330484D01*
X148816000Y-39093687D01*
X148824495Y-38850562D01*
X148785395Y-38610451D01*
X148700202Y-38382582D01*
X148659348Y-38306148D01*
X148435766Y-38258842D01*
X148505840Y-38188768D01*
X148835940Y-38212825D01*
X149218104Y-38165348D01*
X149583662Y-38044227D01*
X149835520Y-37909606D01*
X149969864Y-37612469D01*
X148786000Y-36428605D01*
X147602136Y-37612469D01*
X147639503Y-37695115D01*
X147507562Y-37690505D01*
X147267451Y-37729605D01*
X147039582Y-37814798D01*
X146963148Y-37855652D01*
X146915841Y-38079236D01*
X143406159Y-38079236D01*
X143358852Y-37855652D01*
X143137484Y-37754763D01*
X142900687Y-37699000D01*
X142684162Y-37691434D01*
X142719864Y-37612469D01*
X141536000Y-36428605D01*
X140352136Y-37612469D01*
X125319357Y-37612469D01*
X127541309Y-36298940D01*
X139572175Y-36298940D01*
X139619652Y-36681104D01*
X139740773Y-37046662D01*
X139875394Y-37298520D01*
X140172531Y-37432864D01*
X141356395Y-36249000D01*
X141715605Y-36249000D01*
X142899469Y-37432864D01*
X143196606Y-37298520D01*
X143369449Y-36954386D01*
X143471834Y-36583143D01*
X143492545Y-36298940D01*
X146822175Y-36298940D01*
X146869652Y-36681104D01*
X146990773Y-37046662D01*
X147125394Y-37298520D01*
X147422531Y-37432864D01*
X148606395Y-36249000D01*
X148965605Y-36249000D01*
X150149469Y-37432864D01*
X150446606Y-37298520D01*
X150619449Y-36954386D01*
X150721834Y-36583143D01*
X150749825Y-36199060D01*
X150702348Y-35816896D01*
X150581227Y-35451338D01*
X150446606Y-35199480D01*
X150149469Y-35065136D01*
X148965605Y-36249000D01*
X148606395Y-36249000D01*
X147422531Y-35065136D01*
X147125394Y-35199480D01*
X146952551Y-35543614D01*
X146850166Y-35914857D01*
X146822175Y-36298940D01*
X143492545Y-36298940D01*
X143499825Y-36199060D01*
X143452348Y-35816896D01*
X143331227Y-35451338D01*
X143196606Y-35199480D01*
X142899469Y-35065136D01*
X141715605Y-36249000D01*
X141356395Y-36249000D01*
X140172531Y-35065136D01*
X139875394Y-35199480D01*
X139702551Y-35543614D01*
X139600166Y-35914857D01*
X139572175Y-36298940D01*
X127541309Y-36298940D01*
X130037994Y-34823000D01*
X140380408Y-34823000D01*
X140352136Y-34885531D01*
G37*
%TD.AperFunction*%
%TD*%
M02*
