G04 #@! TF.GenerationSoftware,KiCad,Pcbnew,(5.1.10)-1*
G04 #@! TF.CreationDate,2021-06-23T14:01:49+02:00*
G04 #@! TF.ProjectId,sh_control,73685f63-6f6e-4747-926f-6c2e6b696361,3.2*
G04 #@! TF.SameCoordinates,Original*
G04 #@! TF.FileFunction,Soldermask,Bot*
G04 #@! TF.FilePolarity,Negative*
%FSLAX46Y46*%
G04 Gerber Fmt 4.6, Leading zero omitted, Abs format (unit mm)*
G04 Created by KiCad (PCBNEW (5.1.10)-1) date 2021-06-23 14:01:49*
%MOMM*%
%LPD*%
G01*
G04 APERTURE LIST*
%ADD10C,3.570000*%
%ADD11C,1.545000*%
%ADD12C,1.100000*%
%ADD13R,1.100000X1.100000*%
%ADD14O,1.900000X1.200000*%
%ADD15C,1.450000*%
%ADD16C,0.800000*%
%ADD17C,6.400000*%
G04 APERTURE END LIST*
D10*
X50550000Y-124710000D03*
X37410000Y-124710000D03*
D11*
X47480000Y-122000000D03*
X44980000Y-122000000D03*
X42980000Y-122000000D03*
X40480000Y-122000000D03*
D10*
X37410000Y-75950000D03*
X50550000Y-75950000D03*
D11*
X40480000Y-78660000D03*
X42980000Y-78660000D03*
X44980000Y-78660000D03*
X47480000Y-78660000D03*
D10*
X89150000Y-75950000D03*
X102290000Y-75950000D03*
D11*
X92220000Y-78660000D03*
X94720000Y-78660000D03*
X96720000Y-78660000D03*
X99220000Y-78660000D03*
D10*
X102290000Y-124710000D03*
X89150000Y-124710000D03*
D11*
X99220000Y-122000000D03*
X96720000Y-122000000D03*
X94720000Y-122000000D03*
X92220000Y-122000000D03*
D12*
X48980000Y-114000000D03*
D13*
X45480000Y-114000000D03*
D12*
X94036000Y-86360000D03*
D13*
X97536000Y-86360000D03*
D12*
X45522000Y-86360000D03*
D13*
X49022000Y-86360000D03*
D12*
X97720000Y-114000000D03*
D13*
X94220000Y-114000000D03*
D14*
X112687500Y-96830000D03*
X112687500Y-103830000D03*
D15*
X109987500Y-97830000D03*
X109987500Y-102830000D03*
D16*
X32177056Y-71962944D03*
X30480000Y-71260000D03*
X28782944Y-71962944D03*
X28080000Y-73660000D03*
X28782944Y-75357056D03*
X30480000Y-76060000D03*
X32177056Y-75357056D03*
X32880000Y-73660000D03*
D17*
X30480000Y-73660000D03*
D16*
X110917056Y-71962944D03*
X109220000Y-71260000D03*
X107522944Y-71962944D03*
X106820000Y-73660000D03*
X107522944Y-75357056D03*
X109220000Y-76060000D03*
X110917056Y-75357056D03*
X111620000Y-73660000D03*
D17*
X109220000Y-73660000D03*
D16*
X32177056Y-125302944D03*
X30480000Y-124600000D03*
X28782944Y-125302944D03*
X28080000Y-127000000D03*
X28782944Y-128697056D03*
X30480000Y-129400000D03*
X32177056Y-128697056D03*
X32880000Y-127000000D03*
D17*
X30480000Y-127000000D03*
D16*
X110917056Y-125302944D03*
X109220000Y-124600000D03*
X107522944Y-125302944D03*
X106820000Y-127000000D03*
X107522944Y-128697056D03*
X109220000Y-129400000D03*
X110917056Y-128697056D03*
X111620000Y-127000000D03*
D17*
X109220000Y-127000000D03*
M02*
