%TF.GenerationSoftware,KiCad,Pcbnew,(5.1.10)-1*%
%TF.CreationDate,2021-08-09T12:49:03+02:00*%
%TF.ProjectId,hub,6875622e-6b69-4636-9164-5f7063625858,rev?*%
%TF.SameCoordinates,Original*%
%TF.FileFunction,Soldermask,Bot*%
%TF.FilePolarity,Negative*%
%FSLAX46Y46*%
G04 Gerber Fmt 4.6, Leading zero omitted, Abs format (unit mm)*
G04 Created by KiCad (PCBNEW (5.1.10)-1) date 2021-08-09 12:49:03*
%MOMM*%
%LPD*%
G01*
G04 APERTURE LIST*
%ADD10C,0.800000*%
%ADD11C,5.400000*%
%ADD12C,3.570000*%
%ADD13C,1.545000*%
%ADD14C,2.640000*%
%ADD15C,1.200000*%
G04 APERTURE END LIST*
D10*
%TO.C,H4*%
X190788891Y-53305109D03*
X189357000Y-52712000D03*
X187925109Y-53305109D03*
X187332000Y-54737000D03*
X187925109Y-56168891D03*
X189357000Y-56762000D03*
X190788891Y-56168891D03*
X191382000Y-54737000D03*
D11*
X189357000Y-54737000D03*
%TD*%
D10*
%TO.C,H3*%
X140750891Y-53305109D03*
X139319000Y-52712000D03*
X137887109Y-53305109D03*
X137294000Y-54737000D03*
X137887109Y-56168891D03*
X139319000Y-56762000D03*
X140750891Y-56168891D03*
X141344000Y-54737000D03*
D11*
X139319000Y-54737000D03*
%TD*%
D10*
%TO.C,H2*%
X140750891Y-103343109D03*
X139319000Y-102750000D03*
X137887109Y-103343109D03*
X137294000Y-104775000D03*
X137887109Y-106206891D03*
X139319000Y-106800000D03*
X140750891Y-106206891D03*
X141344000Y-104775000D03*
D11*
X139319000Y-104775000D03*
%TD*%
D10*
%TO.C,H1*%
X190788891Y-103343109D03*
X189357000Y-102750000D03*
X187925109Y-103343109D03*
X187332000Y-104775000D03*
X187925109Y-106206891D03*
X189357000Y-106800000D03*
X190788891Y-106206891D03*
X191382000Y-104775000D03*
D11*
X189357000Y-104775000D03*
%TD*%
D12*
%TO.C,J5*%
X185082000Y-62701000D03*
X185082000Y-75841000D03*
D13*
X182372000Y-65771000D03*
X182372000Y-68271000D03*
X182372000Y-70271000D03*
X182372000Y-72771000D03*
%TD*%
D12*
%TO.C,J4*%
X185082000Y-83656000D03*
X185082000Y-96796000D03*
D13*
X182372000Y-86726000D03*
X182372000Y-89226000D03*
X182372000Y-91226000D03*
X182372000Y-93726000D03*
%TD*%
D12*
%TO.C,J3*%
X143594000Y-96811000D03*
X143594000Y-83671000D03*
D13*
X146304000Y-93741000D03*
X146304000Y-91241000D03*
X146304000Y-89241000D03*
X146304000Y-86741000D03*
%TD*%
D12*
%TO.C,J2*%
X143594000Y-75856000D03*
X143594000Y-62716000D03*
D13*
X146304000Y-72786000D03*
X146304000Y-70286000D03*
X146304000Y-68286000D03*
X146304000Y-65786000D03*
%TD*%
D14*
%TO.C,J1*%
X160713000Y-52705000D03*
X167963000Y-52705000D03*
D15*
X161913000Y-55385000D03*
X166763000Y-55385000D03*
%TD*%
M02*
