%TF.GenerationSoftware,KiCad,Pcbnew,(5.1.10)-1*%
%TF.CreationDate,2021-08-09T12:49:03+02:00*%
%TF.ProjectId,hub,6875622e-6b69-4636-9164-5f7063625858,rev?*%
%TF.SameCoordinates,Original*%
%TF.FileFunction,Legend,Top*%
%TF.FilePolarity,Positive*%
%FSLAX46Y46*%
G04 Gerber Fmt 4.6, Leading zero omitted, Abs format (unit mm)*
G04 Created by KiCad (PCBNEW (5.1.10)-1) date 2021-08-09 12:49:03*
%MOMM*%
%LPD*%
G01*
G04 APERTURE LIST*
%ADD10C,0.225000*%
%ADD11C,0.300000*%
%ADD12C,0.100000*%
%ADD13C,0.120000*%
%ADD14C,0.150000*%
%ADD15C,0.254000*%
G04 APERTURE END LIST*
D10*
X139025380Y-73834047D02*
X139739666Y-73834047D01*
X139882523Y-73881666D01*
X139977761Y-73976904D01*
X140025380Y-74119761D01*
X140025380Y-74215000D01*
X140025380Y-72881666D02*
X140025380Y-73357857D01*
X139025380Y-73357857D01*
X139930142Y-71976904D02*
X139977761Y-72024523D01*
X140025380Y-72167380D01*
X140025380Y-72262619D01*
X139977761Y-72405476D01*
X139882523Y-72500714D01*
X139787285Y-72548333D01*
X139596809Y-72595952D01*
X139453952Y-72595952D01*
X139263476Y-72548333D01*
X139168238Y-72500714D01*
X139073000Y-72405476D01*
X139025380Y-72262619D01*
X139025380Y-72167380D01*
X139073000Y-72024523D01*
X139120619Y-71976904D01*
X139025380Y-71262619D02*
X139739666Y-71262619D01*
X139882523Y-71310238D01*
X139977761Y-71405476D01*
X140025380Y-71548333D01*
X140025380Y-71643571D01*
X140025380Y-70310238D02*
X140025380Y-70786428D01*
X139025380Y-70786428D01*
X139930142Y-69405476D02*
X139977761Y-69453095D01*
X140025380Y-69595952D01*
X140025380Y-69691190D01*
X139977761Y-69834047D01*
X139882523Y-69929285D01*
X139787285Y-69976904D01*
X139596809Y-70024523D01*
X139453952Y-70024523D01*
X139263476Y-69976904D01*
X139168238Y-69929285D01*
X139073000Y-69834047D01*
X139025380Y-69691190D01*
X139025380Y-69595952D01*
X139073000Y-69453095D01*
X139120619Y-69405476D01*
X139025380Y-68691190D02*
X139739666Y-68691190D01*
X139882523Y-68738809D01*
X139977761Y-68834047D01*
X140025380Y-68976904D01*
X140025380Y-69072142D01*
X140025380Y-67738809D02*
X140025380Y-68215000D01*
X139025380Y-68215000D01*
X139930142Y-66834047D02*
X139977761Y-66881666D01*
X140025380Y-67024523D01*
X140025380Y-67119761D01*
X139977761Y-67262619D01*
X139882523Y-67357857D01*
X139787285Y-67405476D01*
X139596809Y-67453095D01*
X139453952Y-67453095D01*
X139263476Y-67405476D01*
X139168238Y-67357857D01*
X139073000Y-67262619D01*
X139025380Y-67119761D01*
X139025380Y-67024523D01*
X139073000Y-66881666D01*
X139120619Y-66834047D01*
X139025380Y-66119761D02*
X139739666Y-66119761D01*
X139882523Y-66167380D01*
X139977761Y-66262619D01*
X140025380Y-66405476D01*
X140025380Y-66500714D01*
X140025380Y-65167380D02*
X140025380Y-65643571D01*
X139025380Y-65643571D01*
X139930142Y-64262619D02*
X139977761Y-64310238D01*
X140025380Y-64453095D01*
X140025380Y-64548333D01*
X139977761Y-64691190D01*
X139882523Y-64786428D01*
X139787285Y-64834047D01*
X139596809Y-64881666D01*
X139453952Y-64881666D01*
X139263476Y-64834047D01*
X139168238Y-64786428D01*
X139073000Y-64691190D01*
X139025380Y-64548333D01*
X139025380Y-64453095D01*
X139073000Y-64310238D01*
X139120619Y-64262619D01*
D11*
X155992714Y-103313571D02*
X155992714Y-104527857D01*
X156064142Y-104670714D01*
X156135571Y-104742142D01*
X156278428Y-104813571D01*
X156564142Y-104813571D01*
X156707000Y-104742142D01*
X156778428Y-104670714D01*
X156849857Y-104527857D01*
X156849857Y-103313571D01*
X157492714Y-104742142D02*
X157707000Y-104813571D01*
X158064142Y-104813571D01*
X158207000Y-104742142D01*
X158278428Y-104670714D01*
X158349857Y-104527857D01*
X158349857Y-104385000D01*
X158278428Y-104242142D01*
X158207000Y-104170714D01*
X158064142Y-104099285D01*
X157778428Y-104027857D01*
X157635571Y-103956428D01*
X157564142Y-103885000D01*
X157492714Y-103742142D01*
X157492714Y-103599285D01*
X157564142Y-103456428D01*
X157635571Y-103385000D01*
X157778428Y-103313571D01*
X158135571Y-103313571D01*
X158349857Y-103385000D01*
X159492714Y-104027857D02*
X159707000Y-104099285D01*
X159778428Y-104170714D01*
X159849857Y-104313571D01*
X159849857Y-104527857D01*
X159778428Y-104670714D01*
X159707000Y-104742142D01*
X159564142Y-104813571D01*
X158992714Y-104813571D01*
X158992714Y-103313571D01*
X159492714Y-103313571D01*
X159635571Y-103385000D01*
X159707000Y-103456428D01*
X159778428Y-103599285D01*
X159778428Y-103742142D01*
X159707000Y-103885000D01*
X159635571Y-103956428D01*
X159492714Y-104027857D01*
X158992714Y-104027857D01*
X160492714Y-104242142D02*
X161635571Y-104242142D01*
X162349857Y-104813571D02*
X162349857Y-103313571D01*
X162349857Y-104027857D02*
X163207000Y-104027857D01*
X163207000Y-104813571D02*
X163207000Y-103313571D01*
X164564142Y-103813571D02*
X164564142Y-104813571D01*
X163921285Y-103813571D02*
X163921285Y-104599285D01*
X163992714Y-104742142D01*
X164135571Y-104813571D01*
X164349857Y-104813571D01*
X164492714Y-104742142D01*
X164564142Y-104670714D01*
X165278428Y-104813571D02*
X165278428Y-103313571D01*
X165278428Y-103885000D02*
X165421285Y-103813571D01*
X165707000Y-103813571D01*
X165849857Y-103885000D01*
X165921285Y-103956428D01*
X165992714Y-104099285D01*
X165992714Y-104527857D01*
X165921285Y-104670714D01*
X165849857Y-104742142D01*
X165707000Y-104813571D01*
X165421285Y-104813571D01*
X165278428Y-104742142D01*
X167564142Y-103313571D02*
X168064142Y-104813571D01*
X168564142Y-103313571D01*
X168921285Y-103313571D02*
X169849857Y-103313571D01*
X169349857Y-103885000D01*
X169564142Y-103885000D01*
X169707000Y-103956428D01*
X169778428Y-104027857D01*
X169849857Y-104170714D01*
X169849857Y-104527857D01*
X169778428Y-104670714D01*
X169707000Y-104742142D01*
X169564142Y-104813571D01*
X169135571Y-104813571D01*
X168992714Y-104742142D01*
X168921285Y-104670714D01*
X170492714Y-104670714D02*
X170564142Y-104742142D01*
X170492714Y-104813571D01*
X170421285Y-104742142D01*
X170492714Y-104670714D01*
X170492714Y-104813571D01*
X171849857Y-103813571D02*
X171849857Y-104813571D01*
X171492714Y-103242142D02*
X171135571Y-104313571D01*
X172064142Y-104313571D01*
X150814142Y-107363571D02*
X150814142Y-105863571D01*
X150814142Y-106435000D02*
X150957000Y-106363571D01*
X151242714Y-106363571D01*
X151385571Y-106435000D01*
X151457000Y-106506428D01*
X151528428Y-106649285D01*
X151528428Y-107077857D01*
X151457000Y-107220714D01*
X151385571Y-107292142D01*
X151242714Y-107363571D01*
X150957000Y-107363571D01*
X150814142Y-107292142D01*
X152028428Y-106363571D02*
X152385571Y-107363571D01*
X152742714Y-106363571D02*
X152385571Y-107363571D01*
X152242714Y-107720714D01*
X152171285Y-107792142D01*
X152028428Y-107863571D01*
X154457000Y-107363571D02*
X154457000Y-105863571D01*
X154957000Y-106935000D01*
X155457000Y-105863571D01*
X155457000Y-107363571D01*
X156814142Y-107363571D02*
X156814142Y-106577857D01*
X156742714Y-106435000D01*
X156599857Y-106363571D01*
X156314142Y-106363571D01*
X156171285Y-106435000D01*
X156814142Y-107292142D02*
X156671285Y-107363571D01*
X156314142Y-107363571D01*
X156171285Y-107292142D01*
X156099857Y-107149285D01*
X156099857Y-107006428D01*
X156171285Y-106863571D01*
X156314142Y-106792142D01*
X156671285Y-106792142D01*
X156814142Y-106720714D01*
X157385571Y-107363571D02*
X158171285Y-106363571D01*
X157385571Y-106363571D02*
X158171285Y-107363571D01*
X158742714Y-107363571D02*
X158742714Y-106363571D01*
X158742714Y-105863571D02*
X158671285Y-105935000D01*
X158742714Y-106006428D01*
X158814142Y-105935000D01*
X158742714Y-105863571D01*
X158742714Y-106006428D01*
X159457000Y-107363571D02*
X159457000Y-106363571D01*
X159457000Y-106506428D02*
X159528428Y-106435000D01*
X159671285Y-106363571D01*
X159885571Y-106363571D01*
X160028428Y-106435000D01*
X160099857Y-106577857D01*
X160099857Y-107363571D01*
X160099857Y-106577857D02*
X160171285Y-106435000D01*
X160314142Y-106363571D01*
X160528428Y-106363571D01*
X160671285Y-106435000D01*
X160742714Y-106577857D01*
X160742714Y-107363571D01*
X161457000Y-107363571D02*
X161457000Y-106363571D01*
X161457000Y-105863571D02*
X161385571Y-105935000D01*
X161457000Y-106006428D01*
X161528428Y-105935000D01*
X161457000Y-105863571D01*
X161457000Y-106006428D01*
X162385571Y-107363571D02*
X162242714Y-107292142D01*
X162171285Y-107149285D01*
X162171285Y-105863571D01*
X162957000Y-107363571D02*
X162957000Y-106363571D01*
X162957000Y-105863571D02*
X162885571Y-105935000D01*
X162957000Y-106006428D01*
X163028428Y-105935000D01*
X162957000Y-105863571D01*
X162957000Y-106006428D01*
X164314142Y-107363571D02*
X164314142Y-106577857D01*
X164242714Y-106435000D01*
X164099857Y-106363571D01*
X163814142Y-106363571D01*
X163671285Y-106435000D01*
X164314142Y-107292142D02*
X164171285Y-107363571D01*
X163814142Y-107363571D01*
X163671285Y-107292142D01*
X163599857Y-107149285D01*
X163599857Y-107006428D01*
X163671285Y-106863571D01*
X163814142Y-106792142D01*
X164171285Y-106792142D01*
X164314142Y-106720714D01*
X165028428Y-106363571D02*
X165028428Y-107363571D01*
X165028428Y-106506428D02*
X165099857Y-106435000D01*
X165242714Y-106363571D01*
X165457000Y-106363571D01*
X165599857Y-106435000D01*
X165671285Y-106577857D01*
X165671285Y-107363571D01*
X167457000Y-106935000D02*
X168171285Y-106935000D01*
X167314142Y-107363571D02*
X167814142Y-105863571D01*
X168314142Y-107363571D01*
X169028428Y-107363571D02*
X168885571Y-107292142D01*
X168814142Y-107149285D01*
X168814142Y-105863571D01*
X169385571Y-106363571D02*
X169957000Y-106363571D01*
X169599857Y-105863571D02*
X169599857Y-107149285D01*
X169671285Y-107292142D01*
X169814142Y-107363571D01*
X169957000Y-107363571D01*
X170457000Y-107363571D02*
X170457000Y-106363571D01*
X170457000Y-106649285D02*
X170528428Y-106506428D01*
X170599857Y-106435000D01*
X170742714Y-106363571D01*
X170885571Y-106363571D01*
X171385571Y-107363571D02*
X171385571Y-106363571D01*
X171385571Y-105863571D02*
X171314142Y-105935000D01*
X171385571Y-106006428D01*
X171457000Y-105935000D01*
X171385571Y-105863571D01*
X171385571Y-106006428D01*
X172742714Y-107292142D02*
X172599857Y-107363571D01*
X172314142Y-107363571D01*
X172171285Y-107292142D01*
X172099857Y-107220714D01*
X172028428Y-107077857D01*
X172028428Y-106649285D01*
X172099857Y-106506428D01*
X172171285Y-106435000D01*
X172314142Y-106363571D01*
X172599857Y-106363571D01*
X172742714Y-106435000D01*
X173385571Y-107363571D02*
X173385571Y-105863571D01*
X174028428Y-107363571D02*
X174028428Y-106577857D01*
X173957000Y-106435000D01*
X173814142Y-106363571D01*
X173599857Y-106363571D01*
X173457000Y-106435000D01*
X173385571Y-106506428D01*
X174528428Y-106363571D02*
X175099857Y-106363571D01*
X174742714Y-105863571D02*
X174742714Y-107149285D01*
X174814142Y-107292142D01*
X174957000Y-107363571D01*
X175099857Y-107363571D01*
X176171285Y-107292142D02*
X176028428Y-107363571D01*
X175742714Y-107363571D01*
X175599857Y-107292142D01*
X175528428Y-107149285D01*
X175528428Y-106577857D01*
X175599857Y-106435000D01*
X175742714Y-106363571D01*
X176028428Y-106363571D01*
X176171285Y-106435000D01*
X176242714Y-106577857D01*
X176242714Y-106720714D01*
X175528428Y-106863571D01*
X176885571Y-107363571D02*
X176885571Y-106363571D01*
X176885571Y-106649285D02*
X176957000Y-106506428D01*
X177028428Y-106435000D01*
X177171285Y-106363571D01*
X177314142Y-106363571D01*
%TO.C,J5*%
X182372000Y-77271000D02*
G75*
G02*
X182372000Y-77371000I0J-50000D01*
G01*
X182372000Y-77371000D02*
G75*
G02*
X182372000Y-77271000I0J50000D01*
G01*
X182372000Y-77371000D02*
X182372000Y-77371000D01*
X182372000Y-77271000D02*
X182372000Y-77271000D01*
D12*
X195362000Y-62071000D02*
X187372000Y-62071000D01*
X195362000Y-76471000D02*
X195362000Y-62071000D01*
X187372000Y-76471000D02*
X195362000Y-76471000D01*
X180102000Y-62071000D02*
X182872000Y-62071000D01*
X180102000Y-76471000D02*
X180102000Y-62071000D01*
X182872000Y-76471000D02*
X180102000Y-76471000D01*
D11*
%TO.C,J4*%
X182372000Y-98226000D02*
G75*
G02*
X182372000Y-98326000I0J-50000D01*
G01*
X182372000Y-98326000D02*
G75*
G02*
X182372000Y-98226000I0J50000D01*
G01*
X182372000Y-98326000D02*
X182372000Y-98326000D01*
X182372000Y-98226000D02*
X182372000Y-98226000D01*
D12*
X195362000Y-83026000D02*
X187372000Y-83026000D01*
X195362000Y-97426000D02*
X195362000Y-83026000D01*
X187372000Y-97426000D02*
X195362000Y-97426000D01*
X180102000Y-83026000D02*
X182872000Y-83026000D01*
X180102000Y-97426000D02*
X180102000Y-83026000D01*
X182872000Y-97426000D02*
X180102000Y-97426000D01*
D11*
%TO.C,J3*%
X146304000Y-82241000D02*
G75*
G02*
X146304000Y-82141000I0J50000D01*
G01*
X146304000Y-82141000D02*
G75*
G02*
X146304000Y-82241000I0J-50000D01*
G01*
X146304000Y-82141000D02*
X146304000Y-82141000D01*
X146304000Y-82241000D02*
X146304000Y-82241000D01*
D12*
X133314000Y-97441000D02*
X141304000Y-97441000D01*
X133314000Y-83041000D02*
X133314000Y-97441000D01*
X141304000Y-83041000D02*
X133314000Y-83041000D01*
X148574000Y-97441000D02*
X145804000Y-97441000D01*
X148574000Y-83041000D02*
X148574000Y-97441000D01*
X145804000Y-83041000D02*
X148574000Y-83041000D01*
D11*
%TO.C,J2*%
X146304000Y-61286000D02*
G75*
G02*
X146304000Y-61186000I0J50000D01*
G01*
X146304000Y-61186000D02*
G75*
G02*
X146304000Y-61286000I0J-50000D01*
G01*
X146304000Y-61186000D02*
X146304000Y-61186000D01*
X146304000Y-61286000D02*
X146304000Y-61286000D01*
D12*
X133314000Y-76486000D02*
X141304000Y-76486000D01*
X133314000Y-62086000D02*
X133314000Y-76486000D01*
X141304000Y-62086000D02*
X133314000Y-62086000D01*
X148574000Y-76486000D02*
X145804000Y-76486000D01*
X148574000Y-62086000D02*
X148574000Y-76486000D01*
X145804000Y-62086000D02*
X148574000Y-62086000D01*
D11*
%TO.C,Y1*%
X172199000Y-86096000D02*
G75*
G02*
X172199000Y-85996000I0J50000D01*
G01*
X172199000Y-85996000D02*
G75*
G02*
X172199000Y-86096000I0J-50000D01*
G01*
D12*
X169299000Y-87996000D02*
X169299000Y-87596000D01*
X172499000Y-87996000D02*
X172499000Y-87596000D01*
X171199000Y-86546000D02*
X170599000Y-86546000D01*
X171199000Y-89046000D02*
X170599000Y-89046000D01*
D11*
X172199000Y-86096000D02*
X172199000Y-86096000D01*
X172199000Y-85996000D02*
X172199000Y-85996000D01*
D13*
%TO.C,R4*%
X167593742Y-71134500D02*
X168068258Y-71134500D01*
X167593742Y-70089500D02*
X168068258Y-70089500D01*
%TO.C,R3*%
X167592742Y-69483500D02*
X168067258Y-69483500D01*
X167592742Y-68438500D02*
X168067258Y-68438500D01*
%TO.C,R2*%
X166609500Y-73740742D02*
X166609500Y-74215258D01*
X167654500Y-73740742D02*
X167654500Y-74215258D01*
%TO.C,R1*%
X161717258Y-59421500D02*
X161242742Y-59421500D01*
X161717258Y-60466500D02*
X161242742Y-60466500D01*
D12*
%TO.C,J1*%
X166338000Y-56405000D02*
G75*
G02*
X166338000Y-56305000I0J50000D01*
G01*
X166338000Y-56305000D02*
G75*
G02*
X166338000Y-56405000I0J-50000D01*
G01*
X166338000Y-56305000D02*
X166338000Y-56305000D01*
X166338000Y-56405000D02*
X166338000Y-56405000D01*
X160338000Y-54305000D02*
X160338000Y-55645000D01*
X160338000Y-55645000D02*
X161138000Y-55645000D01*
X168338000Y-54305000D02*
X168338000Y-55645000D01*
X168338000Y-55645000D02*
X167538000Y-55645000D01*
X160338000Y-51105000D02*
X160338000Y-49905000D01*
X160338000Y-49905000D02*
X168338000Y-49905000D01*
X168338000Y-49905000D02*
X168338000Y-51105000D01*
D13*
%TO.C,D6*%
X169990500Y-64156000D02*
X172875500Y-64156000D01*
X169990500Y-62336000D02*
X169990500Y-64156000D01*
X172875500Y-62336000D02*
X169990500Y-62336000D01*
%TO.C,D5*%
X169990500Y-71220000D02*
X172275500Y-71220000D01*
X169990500Y-69750000D02*
X169990500Y-71220000D01*
X172275500Y-69750000D02*
X169990500Y-69750000D01*
%TO.C,D4*%
X169990500Y-67688000D02*
X172275500Y-67688000D01*
X169990500Y-66218000D02*
X169990500Y-67688000D01*
X172275500Y-66218000D02*
X169990500Y-66218000D01*
%TO.C,D3*%
X169990500Y-69454000D02*
X172275500Y-69454000D01*
X169990500Y-67984000D02*
X169990500Y-69454000D01*
X172275500Y-67984000D02*
X169990500Y-67984000D01*
%TO.C,D2*%
X169990500Y-65922000D02*
X172275500Y-65922000D01*
X169990500Y-64452000D02*
X169990500Y-65922000D01*
X172275500Y-64452000D02*
X169990500Y-64452000D01*
%TO.C,D1*%
X156477500Y-60679000D02*
X158762500Y-60679000D01*
X156477500Y-59209000D02*
X156477500Y-60679000D01*
X158762500Y-59209000D02*
X156477500Y-59209000D01*
%TO.C,C6*%
X159666000Y-87688748D02*
X159666000Y-88211252D01*
X161136000Y-87688748D02*
X161136000Y-88211252D01*
%TO.C,C5*%
X171195420Y-78615000D02*
X171476580Y-78615000D01*
X171195420Y-77595000D02*
X171476580Y-77595000D01*
%TO.C,C4*%
X157421252Y-77497000D02*
X156898748Y-77497000D01*
X157421252Y-78967000D02*
X156898748Y-78967000D01*
%TO.C,C3*%
X171182420Y-76964000D02*
X171463580Y-76964000D01*
X171182420Y-75944000D02*
X171463580Y-75944000D01*
%TO.C,C2*%
X155602000Y-80825748D02*
X155602000Y-81348252D01*
X157072000Y-80825748D02*
X157072000Y-81348252D01*
%TO.C,C1*%
X157605000Y-80758420D02*
X157605000Y-81039580D01*
X158625000Y-80758420D02*
X158625000Y-81039580D01*
D14*
%TO.C,U1*%
X166540000Y-85979000D02*
X166540000Y-85499000D01*
X162390000Y-85979000D02*
X162390000Y-85499000D01*
X162390000Y-75819000D02*
X162390000Y-76299000D01*
X166540000Y-75819000D02*
X166540000Y-76299000D01*
X166540000Y-85979000D02*
X162390000Y-85979000D01*
X166540000Y-75819000D02*
X162390000Y-75819000D01*
X166540000Y-85499000D02*
X167665000Y-85499000D01*
%TO.C,Y1*%
D15*
X170294238Y-87590761D02*
X170294238Y-88195523D01*
X169870904Y-86925523D02*
X170294238Y-87590761D01*
X170717571Y-86925523D01*
X171806142Y-88195523D02*
X171080428Y-88195523D01*
X171443285Y-88195523D02*
X171443285Y-86925523D01*
X171322333Y-87106952D01*
X171201380Y-87227904D01*
X171080428Y-87288380D01*
%TO.C,J1*%
X163914666Y-52609523D02*
X163914666Y-53516666D01*
X163854190Y-53698095D01*
X163733238Y-53819047D01*
X163551809Y-53879523D01*
X163430857Y-53879523D01*
X165184666Y-53879523D02*
X164458952Y-53879523D01*
X164821809Y-53879523D02*
X164821809Y-52609523D01*
X164700857Y-52790952D01*
X164579904Y-52911904D01*
X164458952Y-52972380D01*
%TO.C,D6*%
D14*
X174077476Y-63698380D02*
X174077476Y-62698380D01*
X174077476Y-63174571D02*
X174648904Y-63174571D01*
X174648904Y-63698380D02*
X174648904Y-62698380D01*
X175125095Y-62698380D02*
X175125095Y-63507904D01*
X175172714Y-63603142D01*
X175220333Y-63650761D01*
X175315571Y-63698380D01*
X175506047Y-63698380D01*
X175601285Y-63650761D01*
X175648904Y-63603142D01*
X175696523Y-63507904D01*
X175696523Y-62698380D01*
X176506047Y-63174571D02*
X176648904Y-63222190D01*
X176696523Y-63269809D01*
X176744142Y-63365047D01*
X176744142Y-63507904D01*
X176696523Y-63603142D01*
X176648904Y-63650761D01*
X176553666Y-63698380D01*
X176172714Y-63698380D01*
X176172714Y-62698380D01*
X176506047Y-62698380D01*
X176601285Y-62746000D01*
X176648904Y-62793619D01*
X176696523Y-62888857D01*
X176696523Y-62984095D01*
X176648904Y-63079333D01*
X176601285Y-63126952D01*
X176506047Y-63174571D01*
X176172714Y-63174571D01*
%TO.C,D5*%
X173347333Y-70937380D02*
X173347333Y-69937380D01*
X173728285Y-69937380D01*
X173823523Y-69985000D01*
X173871142Y-70032619D01*
X173918761Y-70127857D01*
X173918761Y-70270714D01*
X173871142Y-70365952D01*
X173823523Y-70413571D01*
X173728285Y-70461190D01*
X173347333Y-70461190D01*
X174490190Y-70937380D02*
X174394952Y-70889761D01*
X174347333Y-70842142D01*
X174299714Y-70746904D01*
X174299714Y-70461190D01*
X174347333Y-70365952D01*
X174394952Y-70318333D01*
X174490190Y-70270714D01*
X174633047Y-70270714D01*
X174728285Y-70318333D01*
X174775904Y-70365952D01*
X174823523Y-70461190D01*
X174823523Y-70746904D01*
X174775904Y-70842142D01*
X174728285Y-70889761D01*
X174633047Y-70937380D01*
X174490190Y-70937380D01*
X175252095Y-70937380D02*
X175252095Y-70270714D01*
X175252095Y-70461190D02*
X175299714Y-70365952D01*
X175347333Y-70318333D01*
X175442571Y-70270714D01*
X175537809Y-70270714D01*
X175728285Y-70270714D02*
X176109238Y-70270714D01*
X175871142Y-69937380D02*
X175871142Y-70794523D01*
X175918761Y-70889761D01*
X176014000Y-70937380D01*
X176109238Y-70937380D01*
X176204476Y-71032619D02*
X176966380Y-71032619D01*
X177633047Y-70270714D02*
X177633047Y-70937380D01*
X177394952Y-69889761D02*
X177156857Y-70604047D01*
X177775904Y-70604047D01*
%TO.C,D4*%
X173347333Y-67405380D02*
X173347333Y-66405380D01*
X173728285Y-66405380D01*
X173823523Y-66453000D01*
X173871142Y-66500619D01*
X173918761Y-66595857D01*
X173918761Y-66738714D01*
X173871142Y-66833952D01*
X173823523Y-66881571D01*
X173728285Y-66929190D01*
X173347333Y-66929190D01*
X174490190Y-67405380D02*
X174394952Y-67357761D01*
X174347333Y-67310142D01*
X174299714Y-67214904D01*
X174299714Y-66929190D01*
X174347333Y-66833952D01*
X174394952Y-66786333D01*
X174490190Y-66738714D01*
X174633047Y-66738714D01*
X174728285Y-66786333D01*
X174775904Y-66833952D01*
X174823523Y-66929190D01*
X174823523Y-67214904D01*
X174775904Y-67310142D01*
X174728285Y-67357761D01*
X174633047Y-67405380D01*
X174490190Y-67405380D01*
X175252095Y-67405380D02*
X175252095Y-66738714D01*
X175252095Y-66929190D02*
X175299714Y-66833952D01*
X175347333Y-66786333D01*
X175442571Y-66738714D01*
X175537809Y-66738714D01*
X175728285Y-66738714D02*
X176109238Y-66738714D01*
X175871142Y-66405380D02*
X175871142Y-67262523D01*
X175918761Y-67357761D01*
X176014000Y-67405380D01*
X176109238Y-67405380D01*
X176204476Y-67500619D02*
X176966380Y-67500619D01*
X177156857Y-66500619D02*
X177204476Y-66453000D01*
X177299714Y-66405380D01*
X177537809Y-66405380D01*
X177633047Y-66453000D01*
X177680666Y-66500619D01*
X177728285Y-66595857D01*
X177728285Y-66691095D01*
X177680666Y-66833952D01*
X177109238Y-67405380D01*
X177728285Y-67405380D01*
%TO.C,D3*%
X173372833Y-69171380D02*
X173372833Y-68171380D01*
X173753785Y-68171380D01*
X173849023Y-68219000D01*
X173896642Y-68266619D01*
X173944261Y-68361857D01*
X173944261Y-68504714D01*
X173896642Y-68599952D01*
X173849023Y-68647571D01*
X173753785Y-68695190D01*
X173372833Y-68695190D01*
X174515690Y-69171380D02*
X174420452Y-69123761D01*
X174372833Y-69076142D01*
X174325214Y-68980904D01*
X174325214Y-68695190D01*
X174372833Y-68599952D01*
X174420452Y-68552333D01*
X174515690Y-68504714D01*
X174658547Y-68504714D01*
X174753785Y-68552333D01*
X174801404Y-68599952D01*
X174849023Y-68695190D01*
X174849023Y-68980904D01*
X174801404Y-69076142D01*
X174753785Y-69123761D01*
X174658547Y-69171380D01*
X174515690Y-69171380D01*
X175277595Y-69171380D02*
X175277595Y-68504714D01*
X175277595Y-68695190D02*
X175325214Y-68599952D01*
X175372833Y-68552333D01*
X175468071Y-68504714D01*
X175563309Y-68504714D01*
X175753785Y-68504714D02*
X176134738Y-68504714D01*
X175896642Y-68171380D02*
X175896642Y-69028523D01*
X175944261Y-69123761D01*
X176039500Y-69171380D01*
X176134738Y-69171380D01*
X176229976Y-69266619D02*
X176991880Y-69266619D01*
X177134738Y-68171380D02*
X177753785Y-68171380D01*
X177420452Y-68552333D01*
X177563309Y-68552333D01*
X177658547Y-68599952D01*
X177706166Y-68647571D01*
X177753785Y-68742809D01*
X177753785Y-68980904D01*
X177706166Y-69076142D01*
X177658547Y-69123761D01*
X177563309Y-69171380D01*
X177277595Y-69171380D01*
X177182357Y-69123761D01*
X177134738Y-69076142D01*
%TO.C,D2*%
X173347333Y-65766380D02*
X173347333Y-64766380D01*
X173728285Y-64766380D01*
X173823523Y-64814000D01*
X173871142Y-64861619D01*
X173918761Y-64956857D01*
X173918761Y-65099714D01*
X173871142Y-65194952D01*
X173823523Y-65242571D01*
X173728285Y-65290190D01*
X173347333Y-65290190D01*
X174490190Y-65766380D02*
X174394952Y-65718761D01*
X174347333Y-65671142D01*
X174299714Y-65575904D01*
X174299714Y-65290190D01*
X174347333Y-65194952D01*
X174394952Y-65147333D01*
X174490190Y-65099714D01*
X174633047Y-65099714D01*
X174728285Y-65147333D01*
X174775904Y-65194952D01*
X174823523Y-65290190D01*
X174823523Y-65575904D01*
X174775904Y-65671142D01*
X174728285Y-65718761D01*
X174633047Y-65766380D01*
X174490190Y-65766380D01*
X175252095Y-65766380D02*
X175252095Y-65099714D01*
X175252095Y-65290190D02*
X175299714Y-65194952D01*
X175347333Y-65147333D01*
X175442571Y-65099714D01*
X175537809Y-65099714D01*
X175728285Y-65099714D02*
X176109238Y-65099714D01*
X175871142Y-64766380D02*
X175871142Y-65623523D01*
X175918761Y-65718761D01*
X176014000Y-65766380D01*
X176109238Y-65766380D01*
X176204476Y-65861619D02*
X176966380Y-65861619D01*
X177728285Y-65766380D02*
X177156857Y-65766380D01*
X177442571Y-65766380D02*
X177442571Y-64766380D01*
X177347333Y-64909238D01*
X177252095Y-65004476D01*
X177156857Y-65052095D01*
%TO.C,D1*%
X155986309Y-61826380D02*
X155986309Y-60826380D01*
X156367261Y-60826380D01*
X156462500Y-60874000D01*
X156510119Y-60921619D01*
X156557738Y-61016857D01*
X156557738Y-61159714D01*
X156510119Y-61254952D01*
X156462500Y-61302571D01*
X156367261Y-61350190D01*
X155986309Y-61350190D01*
X157129166Y-61826380D02*
X157033928Y-61778761D01*
X156986309Y-61731142D01*
X156938690Y-61635904D01*
X156938690Y-61350190D01*
X156986309Y-61254952D01*
X157033928Y-61207333D01*
X157129166Y-61159714D01*
X157272023Y-61159714D01*
X157367261Y-61207333D01*
X157414880Y-61254952D01*
X157462500Y-61350190D01*
X157462500Y-61635904D01*
X157414880Y-61731142D01*
X157367261Y-61778761D01*
X157272023Y-61826380D01*
X157129166Y-61826380D01*
X157795833Y-61159714D02*
X157986309Y-61826380D01*
X158176785Y-61350190D01*
X158367261Y-61826380D01*
X158557738Y-61159714D01*
X159319642Y-61778761D02*
X159224404Y-61826380D01*
X159033928Y-61826380D01*
X158938690Y-61778761D01*
X158891071Y-61683523D01*
X158891071Y-61302571D01*
X158938690Y-61207333D01*
X159033928Y-61159714D01*
X159224404Y-61159714D01*
X159319642Y-61207333D01*
X159367261Y-61302571D01*
X159367261Y-61397809D01*
X158891071Y-61493047D01*
X159795833Y-61826380D02*
X159795833Y-61159714D01*
X159795833Y-61350190D02*
X159843452Y-61254952D01*
X159891071Y-61207333D01*
X159986309Y-61159714D01*
X160081547Y-61159714D01*
%TD*%
M02*
