%TF.GenerationSoftware,KiCad,Pcbnew,(5.1.10)-1*%
%TF.CreationDate,2021-08-09T12:49:03+02:00*%
%TF.ProjectId,hub,6875622e-6b69-4636-9164-5f7063625858,rev?*%
%TF.SameCoordinates,Original*%
%TF.FileFunction,Copper,L1,Top*%
%TF.FilePolarity,Positive*%
%FSLAX46Y46*%
G04 Gerber Fmt 4.6, Leading zero omitted, Abs format (unit mm)*
G04 Created by KiCad (PCBNEW (5.1.10)-1) date 2021-08-09 12:49:03*
%MOMM*%
%LPD*%
G01*
G04 APERTURE LIST*
%TA.AperFunction,ComponentPad*%
%ADD10C,0.800000*%
%TD*%
%TA.AperFunction,ComponentPad*%
%ADD11C,5.400000*%
%TD*%
%TA.AperFunction,ComponentPad*%
%ADD12C,3.570000*%
%TD*%
%TA.AperFunction,ComponentPad*%
%ADD13C,1.545000*%
%TD*%
%TA.AperFunction,SMDPad,CuDef*%
%ADD14R,1.400000X1.200000*%
%TD*%
%TA.AperFunction,SMDPad,CuDef*%
%ADD15R,0.400000X1.600000*%
%TD*%
%TA.AperFunction,ComponentPad*%
%ADD16C,2.640000*%
%TD*%
%TA.AperFunction,ComponentPad*%
%ADD17C,1.200000*%
%TD*%
%TA.AperFunction,SMDPad,CuDef*%
%ADD18R,1.200000X0.400000*%
%TD*%
%TA.AperFunction,ViaPad*%
%ADD19C,0.800000*%
%TD*%
%TA.AperFunction,Conductor*%
%ADD20C,0.300000*%
%TD*%
%TA.AperFunction,Conductor*%
%ADD21C,1.000000*%
%TD*%
%TA.AperFunction,Conductor*%
%ADD22C,0.500000*%
%TD*%
%TA.AperFunction,Conductor*%
%ADD23C,0.261112*%
%TD*%
%TA.AperFunction,Conductor*%
%ADD24C,0.250000*%
%TD*%
%TA.AperFunction,Conductor*%
%ADD25C,0.254000*%
%TD*%
%TA.AperFunction,Conductor*%
%ADD26C,0.100000*%
%TD*%
G04 APERTURE END LIST*
D10*
%TO.P,H4,1*%
%TO.N,GND*%
X190788891Y-53305109D03*
X189357000Y-52712000D03*
X187925109Y-53305109D03*
X187332000Y-54737000D03*
X187925109Y-56168891D03*
X189357000Y-56762000D03*
X190788891Y-56168891D03*
X191382000Y-54737000D03*
D11*
X189357000Y-54737000D03*
%TD*%
D10*
%TO.P,H3,1*%
%TO.N,GND*%
X140750891Y-53305109D03*
X139319000Y-52712000D03*
X137887109Y-53305109D03*
X137294000Y-54737000D03*
X137887109Y-56168891D03*
X139319000Y-56762000D03*
X140750891Y-56168891D03*
X141344000Y-54737000D03*
D11*
X139319000Y-54737000D03*
%TD*%
D10*
%TO.P,H2,1*%
%TO.N,GND*%
X140750891Y-103343109D03*
X139319000Y-102750000D03*
X137887109Y-103343109D03*
X137294000Y-104775000D03*
X137887109Y-106206891D03*
X139319000Y-106800000D03*
X140750891Y-106206891D03*
X141344000Y-104775000D03*
D11*
X139319000Y-104775000D03*
%TD*%
D10*
%TO.P,H1,1*%
%TO.N,GND*%
X190788891Y-103343109D03*
X189357000Y-102750000D03*
X187925109Y-103343109D03*
X187332000Y-104775000D03*
X187925109Y-106206891D03*
X189357000Y-106800000D03*
X190788891Y-106206891D03*
X191382000Y-104775000D03*
D11*
X189357000Y-104775000D03*
%TD*%
D12*
%TO.P,J5,5*%
%TO.N,GND*%
X185082000Y-62701000D03*
X185082000Y-75841000D03*
D13*
%TO.P,J5,4*%
X182372000Y-65771000D03*
%TO.P,J5,3*%
%TO.N,/D3_P*%
X182372000Y-68271000D03*
%TO.P,J5,2*%
%TO.N,/D3_N*%
X182372000Y-70271000D03*
%TO.P,J5,1*%
%TO.N,+5V*%
X182372000Y-72771000D03*
%TD*%
D12*
%TO.P,J4,5*%
%TO.N,GND*%
X185082000Y-83656000D03*
X185082000Y-96796000D03*
D13*
%TO.P,J4,4*%
X182372000Y-86726000D03*
%TO.P,J4,3*%
%TO.N,/D4_P*%
X182372000Y-89226000D03*
%TO.P,J4,2*%
%TO.N,/D4_N*%
X182372000Y-91226000D03*
%TO.P,J4,1*%
%TO.N,+5V*%
X182372000Y-93726000D03*
%TD*%
D12*
%TO.P,J3,5*%
%TO.N,GND*%
X143594000Y-96811000D03*
X143594000Y-83671000D03*
D13*
%TO.P,J3,4*%
X146304000Y-93741000D03*
%TO.P,J3,3*%
%TO.N,/D2_P*%
X146304000Y-91241000D03*
%TO.P,J3,2*%
%TO.N,/D2_N*%
X146304000Y-89241000D03*
%TO.P,J3,1*%
%TO.N,+5V*%
X146304000Y-86741000D03*
%TD*%
D12*
%TO.P,J2,5*%
%TO.N,GND*%
X143594000Y-75856000D03*
X143594000Y-62716000D03*
D13*
%TO.P,J2,4*%
X146304000Y-72786000D03*
%TO.P,J2,3*%
%TO.N,/D1_P*%
X146304000Y-70286000D03*
%TO.P,J2,2*%
%TO.N,/D1_N*%
X146304000Y-68286000D03*
%TO.P,J2,1*%
%TO.N,+5V*%
X146304000Y-65786000D03*
%TD*%
D14*
%TO.P,Y1,4*%
%TO.N,Net-(Y1-Pad4)*%
X171999000Y-88646000D03*
%TO.P,Y1,3*%
%TO.N,/XOUT*%
X169799000Y-88646000D03*
%TO.P,Y1,2*%
%TO.N,Net-(Y1-Pad2)*%
X169799000Y-86946000D03*
%TO.P,Y1,1*%
%TO.N,/XIN*%
X171999000Y-86946000D03*
%TD*%
%TO.P,R4,2*%
%TO.N,Net-(D4-Pad2)*%
%TA.AperFunction,SMDPad,CuDef*%
G36*
G01*
X168256000Y-70887000D02*
X168256000Y-70337000D01*
G75*
G02*
X168456000Y-70137000I200000J0D01*
G01*
X168856000Y-70137000D01*
G75*
G02*
X169056000Y-70337000I0J-200000D01*
G01*
X169056000Y-70887000D01*
G75*
G02*
X168856000Y-71087000I-200000J0D01*
G01*
X168456000Y-71087000D01*
G75*
G02*
X168256000Y-70887000I0J200000D01*
G01*
G37*
%TD.AperFunction*%
%TO.P,R4,1*%
%TO.N,/LED_2*%
%TA.AperFunction,SMDPad,CuDef*%
G36*
G01*
X166606000Y-70887000D02*
X166606000Y-70337000D01*
G75*
G02*
X166806000Y-70137000I200000J0D01*
G01*
X167206000Y-70137000D01*
G75*
G02*
X167406000Y-70337000I0J-200000D01*
G01*
X167406000Y-70887000D01*
G75*
G02*
X167206000Y-71087000I-200000J0D01*
G01*
X166806000Y-71087000D01*
G75*
G02*
X166606000Y-70887000I0J200000D01*
G01*
G37*
%TD.AperFunction*%
%TD*%
%TO.P,R3,2*%
%TO.N,Net-(D2-Pad2)*%
%TA.AperFunction,SMDPad,CuDef*%
G36*
G01*
X168255000Y-69236000D02*
X168255000Y-68686000D01*
G75*
G02*
X168455000Y-68486000I200000J0D01*
G01*
X168855000Y-68486000D01*
G75*
G02*
X169055000Y-68686000I0J-200000D01*
G01*
X169055000Y-69236000D01*
G75*
G02*
X168855000Y-69436000I-200000J0D01*
G01*
X168455000Y-69436000D01*
G75*
G02*
X168255000Y-69236000I0J200000D01*
G01*
G37*
%TD.AperFunction*%
%TO.P,R3,1*%
%TO.N,/LED_1*%
%TA.AperFunction,SMDPad,CuDef*%
G36*
G01*
X166605000Y-69236000D02*
X166605000Y-68686000D01*
G75*
G02*
X166805000Y-68486000I200000J0D01*
G01*
X167205000Y-68486000D01*
G75*
G02*
X167405000Y-68686000I0J-200000D01*
G01*
X167405000Y-69236000D01*
G75*
G02*
X167205000Y-69436000I-200000J0D01*
G01*
X166805000Y-69436000D01*
G75*
G02*
X166605000Y-69236000I0J200000D01*
G01*
G37*
%TD.AperFunction*%
%TD*%
%TO.P,R2,2*%
%TO.N,Net-(R2-Pad2)*%
%TA.AperFunction,SMDPad,CuDef*%
G36*
G01*
X166857000Y-74403000D02*
X167407000Y-74403000D01*
G75*
G02*
X167607000Y-74603000I0J-200000D01*
G01*
X167607000Y-75003000D01*
G75*
G02*
X167407000Y-75203000I-200000J0D01*
G01*
X166857000Y-75203000D01*
G75*
G02*
X166657000Y-75003000I0J200000D01*
G01*
X166657000Y-74603000D01*
G75*
G02*
X166857000Y-74403000I200000J0D01*
G01*
G37*
%TD.AperFunction*%
%TO.P,R2,1*%
%TO.N,GND*%
%TA.AperFunction,SMDPad,CuDef*%
G36*
G01*
X166857000Y-72753000D02*
X167407000Y-72753000D01*
G75*
G02*
X167607000Y-72953000I0J-200000D01*
G01*
X167607000Y-73353000D01*
G75*
G02*
X167407000Y-73553000I-200000J0D01*
G01*
X166857000Y-73553000D01*
G75*
G02*
X166657000Y-73353000I0J200000D01*
G01*
X166657000Y-72953000D01*
G75*
G02*
X166857000Y-72753000I200000J0D01*
G01*
G37*
%TD.AperFunction*%
%TD*%
%TO.P,R1,2*%
%TO.N,Net-(D1-Pad2)*%
%TA.AperFunction,SMDPad,CuDef*%
G36*
G01*
X161055000Y-59669000D02*
X161055000Y-60219000D01*
G75*
G02*
X160855000Y-60419000I-200000J0D01*
G01*
X160455000Y-60419000D01*
G75*
G02*
X160255000Y-60219000I0J200000D01*
G01*
X160255000Y-59669000D01*
G75*
G02*
X160455000Y-59469000I200000J0D01*
G01*
X160855000Y-59469000D01*
G75*
G02*
X161055000Y-59669000I0J-200000D01*
G01*
G37*
%TD.AperFunction*%
%TO.P,R1,1*%
%TO.N,+5V*%
%TA.AperFunction,SMDPad,CuDef*%
G36*
G01*
X162705000Y-59669000D02*
X162705000Y-60219000D01*
G75*
G02*
X162505000Y-60419000I-200000J0D01*
G01*
X162105000Y-60419000D01*
G75*
G02*
X161905000Y-60219000I0J200000D01*
G01*
X161905000Y-59669000D01*
G75*
G02*
X162105000Y-59469000I200000J0D01*
G01*
X162505000Y-59469000D01*
G75*
G02*
X162705000Y-59669000I0J-200000D01*
G01*
G37*
%TD.AperFunction*%
%TD*%
D15*
%TO.P,J1,1*%
%TO.N,+5V*%
X165638000Y-55905000D03*
%TO.P,J1,2*%
%TO.N,/D_N*%
X164988000Y-55905000D03*
%TO.P,J1,3*%
%TO.N,/D_P*%
X164338000Y-55905000D03*
%TO.P,J1,4*%
%TO.N,Net-(J1-Pad4)*%
X163688000Y-55905000D03*
%TO.P,J1,5*%
%TO.N,GND*%
X163038000Y-55905000D03*
D16*
%TO.P,J1,6*%
X160713000Y-52705000D03*
%TO.P,J1,7*%
X167963000Y-52705000D03*
D17*
%TO.P,J1,8*%
X161913000Y-55385000D03*
%TO.P,J1,9*%
X166763000Y-55385000D03*
%TD*%
%TO.P,D6,2*%
%TO.N,/DRV*%
%TA.AperFunction,SMDPad,CuDef*%
G36*
G01*
X172175500Y-63646000D02*
X172175500Y-62846000D01*
G75*
G02*
X172425500Y-62596000I250000J0D01*
G01*
X173250500Y-62596000D01*
G75*
G02*
X173500500Y-62846000I0J-250000D01*
G01*
X173500500Y-63646000D01*
G75*
G02*
X173250500Y-63896000I-250000J0D01*
G01*
X172425500Y-63896000D01*
G75*
G02*
X172175500Y-63646000I0J250000D01*
G01*
G37*
%TD.AperFunction*%
%TO.P,D6,1*%
%TO.N,GND*%
%TA.AperFunction,SMDPad,CuDef*%
G36*
G01*
X170250500Y-63646000D02*
X170250500Y-62846000D01*
G75*
G02*
X170500500Y-62596000I250000J0D01*
G01*
X171325500Y-62596000D01*
G75*
G02*
X171575500Y-62846000I0J-250000D01*
G01*
X171575500Y-63646000D01*
G75*
G02*
X171325500Y-63896000I-250000J0D01*
G01*
X170500500Y-63896000D01*
G75*
G02*
X170250500Y-63646000I0J250000D01*
G01*
G37*
%TD.AperFunction*%
%TD*%
%TO.P,D5,2*%
%TO.N,/DRV*%
%TA.AperFunction,SMDPad,CuDef*%
G36*
G01*
X171825500Y-70741250D02*
X171825500Y-70228750D01*
G75*
G02*
X172044250Y-70010000I218750J0D01*
G01*
X172481750Y-70010000D01*
G75*
G02*
X172700500Y-70228750I0J-218750D01*
G01*
X172700500Y-70741250D01*
G75*
G02*
X172481750Y-70960000I-218750J0D01*
G01*
X172044250Y-70960000D01*
G75*
G02*
X171825500Y-70741250I0J218750D01*
G01*
G37*
%TD.AperFunction*%
%TO.P,D5,1*%
%TO.N,Net-(D4-Pad2)*%
%TA.AperFunction,SMDPad,CuDef*%
G36*
G01*
X170250500Y-70741250D02*
X170250500Y-70228750D01*
G75*
G02*
X170469250Y-70010000I218750J0D01*
G01*
X170906750Y-70010000D01*
G75*
G02*
X171125500Y-70228750I0J-218750D01*
G01*
X171125500Y-70741250D01*
G75*
G02*
X170906750Y-70960000I-218750J0D01*
G01*
X170469250Y-70960000D01*
G75*
G02*
X170250500Y-70741250I0J218750D01*
G01*
G37*
%TD.AperFunction*%
%TD*%
%TO.P,D4,2*%
%TO.N,Net-(D4-Pad2)*%
%TA.AperFunction,SMDPad,CuDef*%
G36*
G01*
X171825500Y-67209250D02*
X171825500Y-66696750D01*
G75*
G02*
X172044250Y-66478000I218750J0D01*
G01*
X172481750Y-66478000D01*
G75*
G02*
X172700500Y-66696750I0J-218750D01*
G01*
X172700500Y-67209250D01*
G75*
G02*
X172481750Y-67428000I-218750J0D01*
G01*
X172044250Y-67428000D01*
G75*
G02*
X171825500Y-67209250I0J218750D01*
G01*
G37*
%TD.AperFunction*%
%TO.P,D4,1*%
%TO.N,/DRV*%
%TA.AperFunction,SMDPad,CuDef*%
G36*
G01*
X170250500Y-67209250D02*
X170250500Y-66696750D01*
G75*
G02*
X170469250Y-66478000I218750J0D01*
G01*
X170906750Y-66478000D01*
G75*
G02*
X171125500Y-66696750I0J-218750D01*
G01*
X171125500Y-67209250D01*
G75*
G02*
X170906750Y-67428000I-218750J0D01*
G01*
X170469250Y-67428000D01*
G75*
G02*
X170250500Y-67209250I0J218750D01*
G01*
G37*
%TD.AperFunction*%
%TD*%
%TO.P,D3,2*%
%TO.N,/DRV*%
%TA.AperFunction,SMDPad,CuDef*%
G36*
G01*
X171825500Y-68975250D02*
X171825500Y-68462750D01*
G75*
G02*
X172044250Y-68244000I218750J0D01*
G01*
X172481750Y-68244000D01*
G75*
G02*
X172700500Y-68462750I0J-218750D01*
G01*
X172700500Y-68975250D01*
G75*
G02*
X172481750Y-69194000I-218750J0D01*
G01*
X172044250Y-69194000D01*
G75*
G02*
X171825500Y-68975250I0J218750D01*
G01*
G37*
%TD.AperFunction*%
%TO.P,D3,1*%
%TO.N,Net-(D2-Pad2)*%
%TA.AperFunction,SMDPad,CuDef*%
G36*
G01*
X170250500Y-68975250D02*
X170250500Y-68462750D01*
G75*
G02*
X170469250Y-68244000I218750J0D01*
G01*
X170906750Y-68244000D01*
G75*
G02*
X171125500Y-68462750I0J-218750D01*
G01*
X171125500Y-68975250D01*
G75*
G02*
X170906750Y-69194000I-218750J0D01*
G01*
X170469250Y-69194000D01*
G75*
G02*
X170250500Y-68975250I0J218750D01*
G01*
G37*
%TD.AperFunction*%
%TD*%
%TO.P,D2,2*%
%TO.N,Net-(D2-Pad2)*%
%TA.AperFunction,SMDPad,CuDef*%
G36*
G01*
X171825500Y-65443250D02*
X171825500Y-64930750D01*
G75*
G02*
X172044250Y-64712000I218750J0D01*
G01*
X172481750Y-64712000D01*
G75*
G02*
X172700500Y-64930750I0J-218750D01*
G01*
X172700500Y-65443250D01*
G75*
G02*
X172481750Y-65662000I-218750J0D01*
G01*
X172044250Y-65662000D01*
G75*
G02*
X171825500Y-65443250I0J218750D01*
G01*
G37*
%TD.AperFunction*%
%TO.P,D2,1*%
%TO.N,/DRV*%
%TA.AperFunction,SMDPad,CuDef*%
G36*
G01*
X170250500Y-65443250D02*
X170250500Y-64930750D01*
G75*
G02*
X170469250Y-64712000I218750J0D01*
G01*
X170906750Y-64712000D01*
G75*
G02*
X171125500Y-64930750I0J-218750D01*
G01*
X171125500Y-65443250D01*
G75*
G02*
X170906750Y-65662000I-218750J0D01*
G01*
X170469250Y-65662000D01*
G75*
G02*
X170250500Y-65443250I0J218750D01*
G01*
G37*
%TD.AperFunction*%
%TD*%
%TO.P,D1,2*%
%TO.N,Net-(D1-Pad2)*%
%TA.AperFunction,SMDPad,CuDef*%
G36*
G01*
X158312500Y-60200250D02*
X158312500Y-59687750D01*
G75*
G02*
X158531250Y-59469000I218750J0D01*
G01*
X158968750Y-59469000D01*
G75*
G02*
X159187500Y-59687750I0J-218750D01*
G01*
X159187500Y-60200250D01*
G75*
G02*
X158968750Y-60419000I-218750J0D01*
G01*
X158531250Y-60419000D01*
G75*
G02*
X158312500Y-60200250I0J218750D01*
G01*
G37*
%TD.AperFunction*%
%TO.P,D1,1*%
%TO.N,GND*%
%TA.AperFunction,SMDPad,CuDef*%
G36*
G01*
X156737500Y-60200250D02*
X156737500Y-59687750D01*
G75*
G02*
X156956250Y-59469000I218750J0D01*
G01*
X157393750Y-59469000D01*
G75*
G02*
X157612500Y-59687750I0J-218750D01*
G01*
X157612500Y-60200250D01*
G75*
G02*
X157393750Y-60419000I-218750J0D01*
G01*
X156956250Y-60419000D01*
G75*
G02*
X156737500Y-60200250I0J218750D01*
G01*
G37*
%TD.AperFunction*%
%TD*%
%TO.P,C6,2*%
%TO.N,GND*%
%TA.AperFunction,SMDPad,CuDef*%
G36*
G01*
X159926000Y-88400000D02*
X160876000Y-88400000D01*
G75*
G02*
X161126000Y-88650000I0J-250000D01*
G01*
X161126000Y-89150000D01*
G75*
G02*
X160876000Y-89400000I-250000J0D01*
G01*
X159926000Y-89400000D01*
G75*
G02*
X159676000Y-89150000I0J250000D01*
G01*
X159676000Y-88650000D01*
G75*
G02*
X159926000Y-88400000I250000J0D01*
G01*
G37*
%TD.AperFunction*%
%TO.P,C6,1*%
%TO.N,+1V8*%
%TA.AperFunction,SMDPad,CuDef*%
G36*
G01*
X159926000Y-86500000D02*
X160876000Y-86500000D01*
G75*
G02*
X161126000Y-86750000I0J-250000D01*
G01*
X161126000Y-87250000D01*
G75*
G02*
X160876000Y-87500000I-250000J0D01*
G01*
X159926000Y-87500000D01*
G75*
G02*
X159676000Y-87250000I0J250000D01*
G01*
X159676000Y-86750000D01*
G75*
G02*
X159926000Y-86500000I250000J0D01*
G01*
G37*
%TD.AperFunction*%
%TD*%
%TO.P,C5,2*%
%TO.N,GND*%
%TA.AperFunction,SMDPad,CuDef*%
G36*
G01*
X171661000Y-78355000D02*
X171661000Y-77855000D01*
G75*
G02*
X171886000Y-77630000I225000J0D01*
G01*
X172336000Y-77630000D01*
G75*
G02*
X172561000Y-77855000I0J-225000D01*
G01*
X172561000Y-78355000D01*
G75*
G02*
X172336000Y-78580000I-225000J0D01*
G01*
X171886000Y-78580000D01*
G75*
G02*
X171661000Y-78355000I0J225000D01*
G01*
G37*
%TD.AperFunction*%
%TO.P,C5,1*%
%TO.N,+1V8*%
%TA.AperFunction,SMDPad,CuDef*%
G36*
G01*
X170111000Y-78355000D02*
X170111000Y-77855000D01*
G75*
G02*
X170336000Y-77630000I225000J0D01*
G01*
X170786000Y-77630000D01*
G75*
G02*
X171011000Y-77855000I0J-225000D01*
G01*
X171011000Y-78355000D01*
G75*
G02*
X170786000Y-78580000I-225000J0D01*
G01*
X170336000Y-78580000D01*
G75*
G02*
X170111000Y-78355000I0J225000D01*
G01*
G37*
%TD.AperFunction*%
%TD*%
%TO.P,C4,2*%
%TO.N,GND*%
%TA.AperFunction,SMDPad,CuDef*%
G36*
G01*
X156710000Y-77757000D02*
X156710000Y-78707000D01*
G75*
G02*
X156460000Y-78957000I-250000J0D01*
G01*
X155960000Y-78957000D01*
G75*
G02*
X155710000Y-78707000I0J250000D01*
G01*
X155710000Y-77757000D01*
G75*
G02*
X155960000Y-77507000I250000J0D01*
G01*
X156460000Y-77507000D01*
G75*
G02*
X156710000Y-77757000I0J-250000D01*
G01*
G37*
%TD.AperFunction*%
%TO.P,C4,1*%
%TO.N,+3V3*%
%TA.AperFunction,SMDPad,CuDef*%
G36*
G01*
X158610000Y-77757000D02*
X158610000Y-78707000D01*
G75*
G02*
X158360000Y-78957000I-250000J0D01*
G01*
X157860000Y-78957000D01*
G75*
G02*
X157610000Y-78707000I0J250000D01*
G01*
X157610000Y-77757000D01*
G75*
G02*
X157860000Y-77507000I250000J0D01*
G01*
X158360000Y-77507000D01*
G75*
G02*
X158610000Y-77757000I0J-250000D01*
G01*
G37*
%TD.AperFunction*%
%TD*%
%TO.P,C3,2*%
%TO.N,GND*%
%TA.AperFunction,SMDPad,CuDef*%
G36*
G01*
X171648000Y-76704000D02*
X171648000Y-76204000D01*
G75*
G02*
X171873000Y-75979000I225000J0D01*
G01*
X172323000Y-75979000D01*
G75*
G02*
X172548000Y-76204000I0J-225000D01*
G01*
X172548000Y-76704000D01*
G75*
G02*
X172323000Y-76929000I-225000J0D01*
G01*
X171873000Y-76929000D01*
G75*
G02*
X171648000Y-76704000I0J225000D01*
G01*
G37*
%TD.AperFunction*%
%TO.P,C3,1*%
%TO.N,+3V3*%
%TA.AperFunction,SMDPad,CuDef*%
G36*
G01*
X170098000Y-76704000D02*
X170098000Y-76204000D01*
G75*
G02*
X170323000Y-75979000I225000J0D01*
G01*
X170773000Y-75979000D01*
G75*
G02*
X170998000Y-76204000I0J-225000D01*
G01*
X170998000Y-76704000D01*
G75*
G02*
X170773000Y-76929000I-225000J0D01*
G01*
X170323000Y-76929000D01*
G75*
G02*
X170098000Y-76704000I0J225000D01*
G01*
G37*
%TD.AperFunction*%
%TD*%
%TO.P,C2,2*%
%TO.N,GND*%
%TA.AperFunction,SMDPad,CuDef*%
G36*
G01*
X155862000Y-81537000D02*
X156812000Y-81537000D01*
G75*
G02*
X157062000Y-81787000I0J-250000D01*
G01*
X157062000Y-82287000D01*
G75*
G02*
X156812000Y-82537000I-250000J0D01*
G01*
X155862000Y-82537000D01*
G75*
G02*
X155612000Y-82287000I0J250000D01*
G01*
X155612000Y-81787000D01*
G75*
G02*
X155862000Y-81537000I250000J0D01*
G01*
G37*
%TD.AperFunction*%
%TO.P,C2,1*%
%TO.N,+5V*%
%TA.AperFunction,SMDPad,CuDef*%
G36*
G01*
X155862000Y-79637000D02*
X156812000Y-79637000D01*
G75*
G02*
X157062000Y-79887000I0J-250000D01*
G01*
X157062000Y-80387000D01*
G75*
G02*
X156812000Y-80637000I-250000J0D01*
G01*
X155862000Y-80637000D01*
G75*
G02*
X155612000Y-80387000I0J250000D01*
G01*
X155612000Y-79887000D01*
G75*
G02*
X155862000Y-79637000I250000J0D01*
G01*
G37*
%TD.AperFunction*%
%TD*%
%TO.P,C1,2*%
%TO.N,GND*%
%TA.AperFunction,SMDPad,CuDef*%
G36*
G01*
X157865000Y-81224000D02*
X158365000Y-81224000D01*
G75*
G02*
X158590000Y-81449000I0J-225000D01*
G01*
X158590000Y-81899000D01*
G75*
G02*
X158365000Y-82124000I-225000J0D01*
G01*
X157865000Y-82124000D01*
G75*
G02*
X157640000Y-81899000I0J225000D01*
G01*
X157640000Y-81449000D01*
G75*
G02*
X157865000Y-81224000I225000J0D01*
G01*
G37*
%TD.AperFunction*%
%TO.P,C1,1*%
%TO.N,+5V*%
%TA.AperFunction,SMDPad,CuDef*%
G36*
G01*
X157865000Y-79674000D02*
X158365000Y-79674000D01*
G75*
G02*
X158590000Y-79899000I0J-225000D01*
G01*
X158590000Y-80349000D01*
G75*
G02*
X158365000Y-80574000I-225000J0D01*
G01*
X157865000Y-80574000D01*
G75*
G02*
X157640000Y-80349000I0J225000D01*
G01*
X157640000Y-79899000D01*
G75*
G02*
X157865000Y-79674000I225000J0D01*
G01*
G37*
%TD.AperFunction*%
%TD*%
D18*
%TO.P,U1,28*%
%TO.N,+1V8*%
X161865000Y-85026500D03*
%TO.P,U1,27*%
%TO.N,Net-(U1-Pad27)*%
X161865000Y-84391500D03*
%TO.P,U1,26*%
%TO.N,+3V3*%
X161865000Y-83756500D03*
%TO.P,U1,25*%
%TO.N,Net-(U1-Pad25)*%
X161865000Y-83121500D03*
%TO.P,U1,24*%
%TO.N,/LED_2*%
X161865000Y-82486500D03*
%TO.P,U1,23*%
%TO.N,/LED_1*%
X161865000Y-81851500D03*
%TO.P,U1,22*%
%TO.N,/DRV*%
X161865000Y-81216500D03*
%TO.P,U1,21*%
%TO.N,+3V3*%
X161865000Y-80581500D03*
%TO.P,U1,20*%
%TO.N,+5V*%
X161865000Y-79946500D03*
%TO.P,U1,19*%
%TO.N,+3V3*%
X161865000Y-79311500D03*
%TO.P,U1,18*%
X161865000Y-78676500D03*
%TO.P,U1,17*%
X161865000Y-78041500D03*
%TO.P,U1,16*%
%TO.N,/D_P*%
X161865000Y-77406500D03*
%TO.P,U1,15*%
%TO.N,/D_N*%
X161865000Y-76771500D03*
%TO.P,U1,14*%
%TO.N,Net-(R2-Pad2)*%
X167065000Y-76771500D03*
%TO.P,U1,13*%
%TO.N,+3V3*%
X167065000Y-77406500D03*
%TO.P,U1,12*%
%TO.N,+1V8*%
X167065000Y-78041500D03*
%TO.P,U1,11*%
%TO.N,/D1_P*%
X167065000Y-78676500D03*
%TO.P,U1,10*%
%TO.N,/D1_N*%
X167065000Y-79311500D03*
%TO.P,U1,9*%
%TO.N,/D2_P*%
X167065000Y-79946500D03*
%TO.P,U1,8*%
%TO.N,/D2_N*%
X167065000Y-80581500D03*
%TO.P,U1,7*%
%TO.N,/D3_P*%
X167065000Y-81216500D03*
%TO.P,U1,6*%
%TO.N,/D3_N*%
X167065000Y-81851500D03*
%TO.P,U1,5*%
%TO.N,/D4_P*%
X167065000Y-82486500D03*
%TO.P,U1,4*%
%TO.N,/D4_N*%
X167065000Y-83121500D03*
%TO.P,U1,3*%
%TO.N,/XIN*%
X167065000Y-83756500D03*
%TO.P,U1,2*%
%TO.N,/XOUT*%
X167065000Y-84391500D03*
%TO.P,U1,1*%
%TO.N,GND*%
X167065000Y-85026500D03*
%TD*%
D19*
%TO.N,GND*%
X154940000Y-78740000D03*
X154940000Y-77851000D03*
X159258000Y-81661000D03*
X159004000Y-83058000D03*
X155702000Y-83312000D03*
X158496000Y-88900000D03*
X161925000Y-89154000D03*
X166497000Y-86614000D03*
X167894000Y-85979000D03*
X173482000Y-76327000D03*
X173609000Y-77978000D03*
X170942000Y-61468000D03*
X169037000Y-63246000D03*
X156972000Y-58420000D03*
X161925000Y-56896000D03*
X162814000Y-57658000D03*
X168529000Y-73025000D03*
X167640000Y-72009000D03*
X162306000Y-72771000D03*
X161417000Y-74168000D03*
X163195000Y-76581000D03*
X162687000Y-86614000D03*
X164211000Y-78486000D03*
%TO.N,+5V*%
X154178000Y-80137000D03*
X159766000Y-80137000D03*
X167132000Y-57531000D03*
X166243000Y-58039000D03*
X163576000Y-59944000D03*
%TO.N,+3V3*%
X160274000Y-83947000D03*
X157734000Y-76708000D03*
%TO.N,+1V8*%
X160274000Y-84963000D03*
X168402000Y-78740000D03*
%TO.N,Net-(D2-Pad2)*%
X169164000Y-67703000D03*
X173863000Y-65913000D03*
%TO.N,/DRV*%
X160513410Y-80944081D03*
X164084000Y-74295000D03*
%TO.N,Net-(D4-Pad2)*%
X173736000Y-67183000D03*
X170815000Y-71882000D03*
%TO.N,/LED_1*%
X165481000Y-74295000D03*
X160274000Y-81915000D03*
%TO.N,/LED_2*%
X166116000Y-72263000D03*
X160274000Y-82931000D03*
%TO.N,/D1_P*%
X149821153Y-70777847D03*
%TO.N,/D2_P*%
X149450683Y-90079698D03*
%TD*%
D20*
%TO.N,GND*%
X155448000Y-78232000D02*
X154940000Y-78740000D01*
X156210000Y-78232000D02*
X155448000Y-78232000D01*
X155321000Y-78232000D02*
X154940000Y-77851000D01*
X156210000Y-78232000D02*
X155321000Y-78232000D01*
X159245000Y-81674000D02*
X159258000Y-81661000D01*
X158115000Y-81674000D02*
X159245000Y-81674000D01*
X158115000Y-82169000D02*
X159004000Y-83058000D01*
X158115000Y-81674000D02*
X158115000Y-82169000D01*
D21*
X157752000Y-82037000D02*
X158115000Y-81674000D01*
X156337000Y-82037000D02*
X157752000Y-82037000D01*
D20*
X156337000Y-82677000D02*
X155702000Y-83312000D01*
X156337000Y-82037000D02*
X156337000Y-82677000D01*
X160401000Y-88900000D02*
X158496000Y-88900000D01*
X161671000Y-88900000D02*
X161925000Y-89154000D01*
X160401000Y-88900000D02*
X161671000Y-88900000D01*
X167065000Y-86046000D02*
X166497000Y-86614000D01*
X167065000Y-85026500D02*
X167065000Y-86046000D01*
X167065000Y-85150000D02*
X167894000Y-85979000D01*
X167065000Y-85026500D02*
X167065000Y-85150000D01*
D21*
X172098000Y-78092000D02*
X172111000Y-78105000D01*
X172098000Y-76454000D02*
X172098000Y-78092000D01*
D20*
X173355000Y-76454000D02*
X173482000Y-76327000D01*
X172098000Y-76454000D02*
X173355000Y-76454000D01*
X173482000Y-78105000D02*
X173609000Y-77978000D01*
X172111000Y-78105000D02*
X173482000Y-78105000D01*
D22*
X170913000Y-61497000D02*
X170942000Y-61468000D01*
X170913000Y-63246000D02*
X170913000Y-61497000D01*
X170913000Y-63246000D02*
X169037000Y-63246000D01*
X157175000Y-58623000D02*
X156972000Y-58420000D01*
X157175000Y-59944000D02*
X157175000Y-58623000D01*
X162433000Y-55905000D02*
X161913000Y-55385000D01*
X163038000Y-55905000D02*
X162433000Y-55905000D01*
X162916000Y-55905000D02*
X161925000Y-56896000D01*
X163038000Y-55905000D02*
X162916000Y-55905000D01*
X163038000Y-57434000D02*
X162814000Y-57658000D01*
X163038000Y-55905000D02*
X163038000Y-57434000D01*
D20*
X168401000Y-73153000D02*
X168529000Y-73025000D01*
X167132000Y-73153000D02*
X168401000Y-73153000D01*
X167132000Y-72517000D02*
X167640000Y-72009000D01*
X167132000Y-73153000D02*
X167132000Y-72517000D01*
D21*
%TO.N,+5V*%
X158102000Y-80137000D02*
X158115000Y-80124000D01*
X156337000Y-80137000D02*
X158102000Y-80137000D01*
X156337000Y-80137000D02*
X154178000Y-80137000D01*
X159753000Y-80124000D02*
X159766000Y-80137000D01*
X158115000Y-80124000D02*
X159753000Y-80124000D01*
D20*
X159956500Y-79946500D02*
X159766000Y-80137000D01*
X161865000Y-79946500D02*
X159956500Y-79946500D01*
D22*
X165638000Y-56037000D02*
X167132000Y-57531000D01*
X165638000Y-55905000D02*
X165638000Y-56037000D01*
X165638000Y-57434000D02*
X166243000Y-58039000D01*
X165638000Y-55905000D02*
X165638000Y-57434000D01*
X162305000Y-59944000D02*
X163576000Y-59944000D01*
D20*
%TO.N,+3V3*%
X169595500Y-77406500D02*
X170548000Y-76454000D01*
X167065000Y-77406500D02*
X169595500Y-77406500D01*
X158554500Y-78676500D02*
X158110000Y-78232000D01*
X161865000Y-78676500D02*
X158554500Y-78676500D01*
X158300500Y-78041500D02*
X158110000Y-78232000D01*
X161865000Y-78041500D02*
X158300500Y-78041500D01*
X161865000Y-78041500D02*
X161865000Y-78676500D01*
X162660002Y-78041500D02*
X161865000Y-78041500D01*
X163295002Y-77406500D02*
X162660002Y-78041500D01*
X162496500Y-78676500D02*
X163766500Y-77406500D01*
X161865000Y-78676500D02*
X162496500Y-78676500D01*
X163766500Y-77406500D02*
X163295002Y-77406500D01*
X167065000Y-77406500D02*
X163766500Y-77406500D01*
X160591500Y-83756500D02*
X161865000Y-83756500D01*
X160274000Y-83947000D02*
X160591500Y-83756500D01*
X157734000Y-77856000D02*
X158110000Y-78232000D01*
X157734000Y-76708000D02*
X157734000Y-77856000D01*
X162660002Y-79311500D02*
X161865000Y-79311500D01*
X162815001Y-79466499D02*
X162660002Y-79311500D01*
X162815001Y-80426501D02*
X162815001Y-79466499D01*
X162660002Y-80581500D02*
X162815001Y-80426501D01*
X161865000Y-80581500D02*
X162660002Y-80581500D01*
X161865000Y-79311500D02*
X161865000Y-78676500D01*
%TO.N,+1V8*%
X160401000Y-86490500D02*
X161865000Y-85026500D01*
X160401000Y-87000000D02*
X160401000Y-86490500D01*
X170497500Y-78041500D02*
X170561000Y-78105000D01*
X160337500Y-85026500D02*
X160274000Y-84963000D01*
X161865000Y-85026500D02*
X160337500Y-85026500D01*
X168211500Y-78041500D02*
X167065000Y-78041500D01*
X169481500Y-78041500D02*
X170497500Y-78041500D01*
X168402000Y-78105000D02*
X168465500Y-78041500D01*
X168402000Y-78740000D02*
X168402000Y-78105000D01*
X168465500Y-78041500D02*
X169481500Y-78041500D01*
X167065000Y-78041500D02*
X168465500Y-78041500D01*
X168973500Y-78168500D02*
X169100500Y-78041500D01*
X169100500Y-78041500D02*
X169481500Y-78041500D01*
X168402000Y-78486000D02*
X168719500Y-78168500D01*
X168719500Y-78168500D02*
X168973500Y-78168500D01*
X168402000Y-78740000D02*
X168402000Y-78486000D01*
D22*
%TO.N,Net-(D1-Pad2)*%
X158750000Y-59944000D02*
X160655000Y-59944000D01*
%TO.N,Net-(D2-Pad2)*%
X168897000Y-68719000D02*
X168655000Y-68961000D01*
X170688000Y-68719000D02*
X168897000Y-68719000D01*
D20*
X170180000Y-68719000D02*
X169164000Y-67703000D01*
X170688000Y-68719000D02*
X170180000Y-68719000D01*
X172989000Y-65913000D02*
X172263000Y-65187000D01*
X173863000Y-65913000D02*
X172989000Y-65913000D01*
D22*
%TO.N,/DRV*%
X172263000Y-70485000D02*
X172263000Y-68719000D01*
X170688000Y-67144000D02*
X172263000Y-68719000D01*
X170688000Y-66953000D02*
X170688000Y-67144000D01*
X170688000Y-66953000D02*
X170688000Y-65187000D01*
X172783228Y-63246000D02*
X172838000Y-63246000D01*
X170842228Y-65187000D02*
X172783228Y-63246000D01*
X170688000Y-65187000D02*
X170842228Y-65187000D01*
D20*
X160785829Y-81216500D02*
X160513410Y-80944081D01*
X161865000Y-81216500D02*
X160785829Y-81216500D01*
X164084000Y-70629168D02*
X167760168Y-66953000D01*
X167760168Y-66953000D02*
X170688000Y-66953000D01*
X164084000Y-74295000D02*
X164084000Y-70629168D01*
D22*
%TO.N,Net-(D4-Pad2)*%
X168783000Y-70485000D02*
X168656000Y-70612000D01*
X170688000Y-70485000D02*
X168783000Y-70485000D01*
D20*
X173506000Y-66953000D02*
X173736000Y-67183000D01*
X172263000Y-66953000D02*
X173506000Y-66953000D01*
X170815000Y-70612000D02*
X170688000Y-70485000D01*
X170815000Y-71882000D02*
X170815000Y-70612000D01*
D23*
%TO.N,/D_P*%
X164430844Y-57197845D02*
X164430844Y-68285836D01*
X164338000Y-57105001D02*
X164430844Y-57197845D01*
X164338000Y-55905000D02*
X164338000Y-57105001D01*
X164430844Y-68285836D02*
X159533844Y-73182836D01*
X159533844Y-73182836D02*
X159533844Y-76550164D01*
X160964999Y-77406500D02*
X161865000Y-77406500D01*
X160879655Y-77321156D02*
X160964999Y-77406500D01*
X160304836Y-77321156D02*
X160879655Y-77321156D01*
X159533844Y-76550164D02*
X160304836Y-77321156D01*
%TO.N,/D_N*%
X164988000Y-57105001D02*
X164895156Y-57197845D01*
X164988000Y-55905000D02*
X164988000Y-57105001D01*
X164895156Y-57197845D02*
X164895156Y-68478164D01*
X164895156Y-68478164D02*
X159998156Y-73375164D01*
X159998156Y-73375164D02*
X159998156Y-76357836D01*
X160879655Y-76856844D02*
X160964999Y-76771500D01*
X160964999Y-76771500D02*
X161865000Y-76771500D01*
X160497164Y-76856844D02*
X160879655Y-76856844D01*
X159998156Y-76357836D02*
X160497164Y-76856844D01*
D20*
%TO.N,Net-(R2-Pad2)*%
X167132000Y-76704500D02*
X167065000Y-76771500D01*
X167132000Y-74803000D02*
X167132000Y-76704500D01*
%TO.N,/LED_1*%
X165081001Y-70884999D02*
X167005000Y-68961000D01*
X165081001Y-73895001D02*
X165081001Y-70884999D01*
X165481000Y-74295000D02*
X165081001Y-73895001D01*
X160337500Y-81851500D02*
X160274000Y-81915000D01*
X161865000Y-81851500D02*
X160337500Y-81851500D01*
%TO.N,/LED_2*%
X166116000Y-71502000D02*
X167006000Y-70612000D01*
X166116000Y-72263000D02*
X166116000Y-71502000D01*
X161193502Y-82486500D02*
X161865000Y-82486500D01*
X160368002Y-82931000D02*
X160274000Y-82931000D01*
X160812502Y-82486500D02*
X160368002Y-82931000D01*
X161865000Y-82486500D02*
X160812502Y-82486500D01*
D24*
%TO.N,/D1_P*%
X150481167Y-70777847D02*
X149821153Y-70777847D01*
X151108156Y-71404836D02*
X150481167Y-70777847D01*
X151108156Y-71404836D02*
X151108156Y-72263000D01*
D23*
X167065000Y-78676500D02*
X166164999Y-78676500D01*
X166164999Y-78676500D02*
X166079655Y-78761844D01*
X166079655Y-78761844D02*
X165219085Y-78761844D01*
X163597844Y-80383085D02*
X163597844Y-88930836D01*
X165219085Y-78761844D02*
X163597844Y-80383085D01*
X163597844Y-88930836D02*
X162209836Y-90318844D01*
X154909164Y-90318844D02*
X151108156Y-86517836D01*
X162209836Y-90318844D02*
X154909164Y-90318844D01*
X151108156Y-86517836D02*
X151108156Y-72263000D01*
D24*
%TO.N,/D1_N*%
X149615164Y-71597164D02*
X146304000Y-68286000D01*
X150643844Y-72263000D02*
X150643844Y-72157844D01*
X150083164Y-71597164D02*
X149615164Y-71597164D01*
X150643844Y-72157844D02*
X150083164Y-71597164D01*
D23*
X150643844Y-86710164D02*
X150643844Y-72263000D01*
X154716836Y-90783156D02*
X150643844Y-86710164D01*
X162402164Y-90783156D02*
X154716836Y-90783156D01*
X164062156Y-80575413D02*
X164062156Y-89123164D01*
X164062156Y-89123164D02*
X162402164Y-90783156D01*
X166079655Y-79226156D02*
X165411413Y-79226156D01*
X167065000Y-79311500D02*
X166164999Y-79311500D01*
X166164999Y-79311500D02*
X166079655Y-79226156D01*
X165411413Y-79226156D02*
X164062156Y-80575413D01*
%TO.N,/D2_P*%
X166164999Y-79946500D02*
X166079655Y-80031844D01*
X167065000Y-79946500D02*
X166164999Y-79946500D01*
X166079655Y-80031844D02*
X165257836Y-80031844D01*
X165257836Y-80031844D02*
X164867844Y-80421836D01*
X164867844Y-80421836D02*
X164867844Y-91724836D01*
X164867844Y-91724836D02*
X164114836Y-92477844D01*
X164114836Y-92477844D02*
X151480164Y-92477844D01*
X151480164Y-92477844D02*
X149575164Y-90572844D01*
D24*
X149575164Y-90204179D02*
X149450683Y-90079698D01*
X149575164Y-90572844D02*
X149575164Y-90204179D01*
D23*
%TO.N,/D2_N*%
X166164999Y-80581500D02*
X166079655Y-80496156D01*
X167065000Y-80581500D02*
X166164999Y-80581500D01*
X166079655Y-80496156D02*
X165450164Y-80496156D01*
X165450164Y-80496156D02*
X165332156Y-80614164D01*
X165332156Y-80614164D02*
X165332156Y-91917164D01*
X165332156Y-91917164D02*
X164307164Y-92942156D01*
X164307164Y-92942156D02*
X151287836Y-92942156D01*
X151287836Y-92942156D02*
X149382836Y-91037156D01*
D24*
X149382836Y-91037156D02*
X147828000Y-89482320D01*
X146545320Y-89482320D02*
X146304000Y-89241000D01*
X147828000Y-89482320D02*
X146545320Y-89482320D01*
D23*
%TO.N,/D3_P*%
X168050345Y-81301844D02*
X174147836Y-81301844D01*
X167965001Y-81216500D02*
X168050345Y-81301844D01*
X167065000Y-81216500D02*
X167965001Y-81216500D01*
X174147836Y-81301844D02*
X178964844Y-76484836D01*
X180700318Y-69942682D02*
X182372000Y-68271000D01*
X178964844Y-71678156D02*
X180700318Y-69942682D01*
X178964844Y-76484836D02*
X178964844Y-71678156D01*
%TO.N,/D3_N*%
X167965001Y-81851500D02*
X168050345Y-81766156D01*
X167065000Y-81851500D02*
X167965001Y-81851500D01*
X168050345Y-81766156D02*
X174340164Y-81766156D01*
X174340164Y-81766156D02*
X179429156Y-76677164D01*
X179429156Y-71870481D02*
X181028637Y-70271000D01*
X179429156Y-76677164D02*
X179429156Y-71870481D01*
X181028637Y-70271000D02*
X182372000Y-70271000D01*
%TO.N,/D4_P*%
X181028637Y-89226000D02*
X182372000Y-89226000D01*
X174374481Y-82571844D02*
X181028637Y-89226000D01*
X168050345Y-82571844D02*
X174374481Y-82571844D01*
X167965001Y-82486500D02*
X168050345Y-82571844D01*
X167065000Y-82486500D02*
X167965001Y-82486500D01*
%TO.N,/D4_N*%
X180700318Y-89554318D02*
X182372000Y-91226000D01*
X174182156Y-83036156D02*
X180700318Y-89554318D01*
X167065000Y-83121500D02*
X167965001Y-83121500D01*
X167965001Y-83121500D02*
X168050345Y-83036156D01*
X168050345Y-83036156D02*
X174182156Y-83036156D01*
D20*
%TO.N,/XIN*%
X167065000Y-83756500D02*
X169735500Y-83756500D01*
X171999000Y-86020000D02*
X171999000Y-86946000D01*
X169735500Y-83756500D02*
X171999000Y-86020000D01*
%TO.N,/XOUT*%
X169354500Y-84391500D02*
X167065000Y-84391500D01*
X170849001Y-85886001D02*
X169354500Y-84391500D01*
X170849001Y-87826001D02*
X170849001Y-85886001D01*
X170029002Y-88646000D02*
X170849001Y-87826001D01*
X169799000Y-88646000D02*
X170029002Y-88646000D01*
%TD*%
D25*
%TO.N,GND*%
X159234548Y-51406156D02*
X159349529Y-51521137D01*
X159052394Y-51655480D01*
X158879551Y-51999614D01*
X158777166Y-52370857D01*
X158749175Y-52754940D01*
X158796652Y-53137104D01*
X158917773Y-53502662D01*
X159052394Y-53754520D01*
X159349531Y-53888864D01*
X160533395Y-52705000D01*
X160519253Y-52690858D01*
X160698858Y-52511253D01*
X160713000Y-52525395D01*
X160727143Y-52511253D01*
X160906748Y-52690858D01*
X160892605Y-52705000D01*
X162076469Y-53888864D01*
X162373606Y-53754520D01*
X162546449Y-53410386D01*
X162648834Y-53039143D01*
X162676825Y-52655060D01*
X162629348Y-52272896D01*
X162508227Y-51907338D01*
X162373606Y-51655480D01*
X162076471Y-51521137D01*
X162191452Y-51406156D01*
X162118296Y-51333000D01*
X166557704Y-51333000D01*
X166484548Y-51406156D01*
X166599529Y-51521137D01*
X166302394Y-51655480D01*
X166129551Y-51999614D01*
X166027166Y-52370857D01*
X165999175Y-52754940D01*
X166046652Y-53137104D01*
X166167773Y-53502662D01*
X166302394Y-53754520D01*
X166599531Y-53888864D01*
X167783395Y-52705000D01*
X167769253Y-52690858D01*
X167948858Y-52511253D01*
X167963000Y-52525395D01*
X167977143Y-52511253D01*
X168156748Y-52690858D01*
X168142605Y-52705000D01*
X169326469Y-53888864D01*
X169623606Y-53754520D01*
X169796449Y-53410386D01*
X169898834Y-53039143D01*
X169926825Y-52655060D01*
X169894099Y-52391626D01*
X187191231Y-52391626D01*
X189357000Y-54557395D01*
X191522769Y-52391626D01*
X191222589Y-51953172D01*
X190643644Y-51642704D01*
X190015254Y-51451148D01*
X189361569Y-51385866D01*
X188707707Y-51449366D01*
X188078797Y-51639208D01*
X187499008Y-51948096D01*
X187491411Y-51953172D01*
X187191231Y-52391626D01*
X169894099Y-52391626D01*
X169879348Y-52272896D01*
X169758227Y-51907338D01*
X169623606Y-51655480D01*
X169326471Y-51521137D01*
X169441452Y-51406156D01*
X169368296Y-51333000D01*
X189324721Y-51333000D01*
X190017558Y-51400933D01*
X190652960Y-51592772D01*
X191238994Y-51904373D01*
X191753347Y-52323870D01*
X192176419Y-52835275D01*
X192492104Y-53419123D01*
X192688375Y-54053170D01*
X192761000Y-54744155D01*
X192761001Y-104742712D01*
X192693067Y-105435558D01*
X192501228Y-106070958D01*
X192189630Y-106656991D01*
X191770130Y-107171347D01*
X191258725Y-107594419D01*
X190674878Y-107910103D01*
X190040830Y-108106375D01*
X189349845Y-108179000D01*
X139351278Y-108179000D01*
X138658442Y-108111067D01*
X138023042Y-107919228D01*
X137437009Y-107607630D01*
X136922653Y-107188130D01*
X136866601Y-107120374D01*
X137153231Y-107120374D01*
X137453411Y-107558828D01*
X138032356Y-107869296D01*
X138660746Y-108060852D01*
X139314431Y-108126134D01*
X139968293Y-108062634D01*
X140597203Y-107872792D01*
X141176992Y-107563904D01*
X141184589Y-107558828D01*
X141484769Y-107120374D01*
X187191231Y-107120374D01*
X187491411Y-107558828D01*
X188070356Y-107869296D01*
X188698746Y-108060852D01*
X189352431Y-108126134D01*
X190006293Y-108062634D01*
X190635203Y-107872792D01*
X191214992Y-107563904D01*
X191222589Y-107558828D01*
X191522769Y-107120374D01*
X189357000Y-104954605D01*
X187191231Y-107120374D01*
X141484769Y-107120374D01*
X139319000Y-104954605D01*
X137153231Y-107120374D01*
X136866601Y-107120374D01*
X136499581Y-106676725D01*
X136183897Y-106092878D01*
X135987625Y-105458830D01*
X135915272Y-104770431D01*
X135967866Y-104770431D01*
X136031366Y-105424293D01*
X136221208Y-106053203D01*
X136530096Y-106632992D01*
X136535172Y-106640589D01*
X136973626Y-106940769D01*
X139139395Y-104775000D01*
X139498605Y-104775000D01*
X141664374Y-106940769D01*
X142102828Y-106640589D01*
X142413296Y-106061644D01*
X142604852Y-105433254D01*
X142670134Y-104779569D01*
X142669247Y-104770431D01*
X186005866Y-104770431D01*
X186069366Y-105424293D01*
X186259208Y-106053203D01*
X186568096Y-106632992D01*
X186573172Y-106640589D01*
X187011626Y-106940769D01*
X189177395Y-104775000D01*
X189536605Y-104775000D01*
X191702374Y-106940769D01*
X192140828Y-106640589D01*
X192451296Y-106061644D01*
X192642852Y-105433254D01*
X192708134Y-104779569D01*
X192644634Y-104125707D01*
X192454792Y-103496797D01*
X192145904Y-102917008D01*
X192140828Y-102909411D01*
X191702374Y-102609231D01*
X189536605Y-104775000D01*
X189177395Y-104775000D01*
X187011626Y-102609231D01*
X186573172Y-102909411D01*
X186262704Y-103488356D01*
X186071148Y-104116746D01*
X186005866Y-104770431D01*
X142669247Y-104770431D01*
X142606634Y-104125707D01*
X142416792Y-103496797D01*
X142107904Y-102917008D01*
X142102828Y-102909411D01*
X141664374Y-102609231D01*
X139498605Y-104775000D01*
X139139395Y-104775000D01*
X136973626Y-102609231D01*
X136535172Y-102909411D01*
X136224704Y-103488356D01*
X136033148Y-104116746D01*
X135967866Y-104770431D01*
X135915272Y-104770431D01*
X135915000Y-104767845D01*
X135915000Y-102429626D01*
X137153231Y-102429626D01*
X139319000Y-104595395D01*
X141484769Y-102429626D01*
X187191231Y-102429626D01*
X189357000Y-104595395D01*
X191522769Y-102429626D01*
X191222589Y-101991172D01*
X190643644Y-101680704D01*
X190015254Y-101489148D01*
X189361569Y-101423866D01*
X188707707Y-101487366D01*
X188078797Y-101677208D01*
X187499008Y-101986096D01*
X187491411Y-101991172D01*
X187191231Y-102429626D01*
X141484769Y-102429626D01*
X141184589Y-101991172D01*
X140605644Y-101680704D01*
X139977254Y-101489148D01*
X139323569Y-101423866D01*
X138669707Y-101487366D01*
X138040797Y-101677208D01*
X137461008Y-101986096D01*
X137453411Y-101991172D01*
X137153231Y-102429626D01*
X135915000Y-102429626D01*
X135915000Y-98505516D01*
X142079089Y-98505516D01*
X142269373Y-98850257D01*
X142692665Y-99069495D01*
X143150595Y-99201940D01*
X143625564Y-99242503D01*
X144099320Y-99189624D01*
X144553656Y-99045337D01*
X144918627Y-98850257D01*
X145108911Y-98505516D01*
X145093911Y-98490516D01*
X183567089Y-98490516D01*
X183757373Y-98835257D01*
X184180665Y-99054495D01*
X184638595Y-99186940D01*
X185113564Y-99227503D01*
X185587320Y-99174624D01*
X186041656Y-99030337D01*
X186406627Y-98835257D01*
X186596911Y-98490516D01*
X185082000Y-96975605D01*
X183567089Y-98490516D01*
X145093911Y-98490516D01*
X143594000Y-96990605D01*
X142079089Y-98505516D01*
X135915000Y-98505516D01*
X135915000Y-96842564D01*
X141162497Y-96842564D01*
X141215376Y-97316320D01*
X141359663Y-97770656D01*
X141554743Y-98135627D01*
X141899484Y-98325911D01*
X143414395Y-96811000D01*
X143773605Y-96811000D01*
X145288516Y-98325911D01*
X145633257Y-98135627D01*
X145852495Y-97712335D01*
X145984940Y-97254405D01*
X146021392Y-96827564D01*
X182650497Y-96827564D01*
X182703376Y-97301320D01*
X182847663Y-97755656D01*
X183042743Y-98120627D01*
X183387484Y-98310911D01*
X184902395Y-96796000D01*
X185261605Y-96796000D01*
X186776516Y-98310911D01*
X187121257Y-98120627D01*
X187340495Y-97697335D01*
X187472940Y-97239405D01*
X187513503Y-96764436D01*
X187460624Y-96290680D01*
X187316337Y-95836344D01*
X187121257Y-95471373D01*
X186776516Y-95281089D01*
X185261605Y-96796000D01*
X184902395Y-96796000D01*
X183387484Y-95281089D01*
X183042743Y-95471373D01*
X182823505Y-95894665D01*
X182691060Y-96352595D01*
X182650497Y-96827564D01*
X146021392Y-96827564D01*
X146025503Y-96779436D01*
X145972624Y-96305680D01*
X145828337Y-95851344D01*
X145633257Y-95486373D01*
X145288516Y-95296089D01*
X143773605Y-96811000D01*
X143414395Y-96811000D01*
X141899484Y-95296089D01*
X141554743Y-95486373D01*
X141335505Y-95909665D01*
X141203060Y-96367595D01*
X141162497Y-96842564D01*
X135915000Y-96842564D01*
X135915000Y-95116484D01*
X142079089Y-95116484D01*
X143594000Y-96631395D01*
X145108911Y-95116484D01*
X144918627Y-94771743D01*
X144807264Y-94714064D01*
X145510541Y-94714064D01*
X145578793Y-94955227D01*
X145829611Y-95073377D01*
X146098660Y-95140324D01*
X146375600Y-95153496D01*
X146649788Y-95112387D01*
X146910688Y-95018576D01*
X147029207Y-94955227D01*
X147097459Y-94714064D01*
X146304000Y-93920605D01*
X145510541Y-94714064D01*
X144807264Y-94714064D01*
X144495335Y-94552505D01*
X144037405Y-94420060D01*
X143562436Y-94379497D01*
X143088680Y-94432376D01*
X142634344Y-94576663D01*
X142269373Y-94771743D01*
X142079089Y-95116484D01*
X135915000Y-95116484D01*
X135915000Y-93812600D01*
X144891504Y-93812600D01*
X144932613Y-94086788D01*
X145026424Y-94347688D01*
X145089773Y-94466207D01*
X145330936Y-94534459D01*
X146124395Y-93741000D01*
X146483605Y-93741000D01*
X147277064Y-94534459D01*
X147518227Y-94466207D01*
X147636377Y-94215389D01*
X147703324Y-93946340D01*
X147716496Y-93669400D01*
X147675387Y-93395212D01*
X147581576Y-93134312D01*
X147518227Y-93015793D01*
X147277064Y-92947541D01*
X146483605Y-93741000D01*
X146124395Y-93741000D01*
X145330936Y-92947541D01*
X145089773Y-93015793D01*
X144971623Y-93266611D01*
X144904676Y-93535660D01*
X144891504Y-93812600D01*
X135915000Y-93812600D01*
X135915000Y-85365516D01*
X142079089Y-85365516D01*
X142269373Y-85710257D01*
X142692665Y-85929495D01*
X143150595Y-86061940D01*
X143625564Y-86102503D01*
X144099320Y-86049624D01*
X144553656Y-85905337D01*
X144918627Y-85710257D01*
X145108911Y-85365516D01*
X143594000Y-83850605D01*
X142079089Y-85365516D01*
X135915000Y-85365516D01*
X135915000Y-83702564D01*
X141162497Y-83702564D01*
X141215376Y-84176320D01*
X141359663Y-84630656D01*
X141554743Y-84995627D01*
X141899484Y-85185911D01*
X143414395Y-83671000D01*
X143773605Y-83671000D01*
X145288516Y-85185911D01*
X145633257Y-84995627D01*
X145852495Y-84572335D01*
X145984940Y-84114405D01*
X146025503Y-83639436D01*
X145972624Y-83165680D01*
X145828337Y-82711344D01*
X145633257Y-82346373D01*
X145288516Y-82156089D01*
X143773605Y-83671000D01*
X143414395Y-83671000D01*
X141899484Y-82156089D01*
X141554743Y-82346373D01*
X141335505Y-82769665D01*
X141203060Y-83227595D01*
X141162497Y-83702564D01*
X135915000Y-83702564D01*
X135915000Y-81976484D01*
X142079089Y-81976484D01*
X143594000Y-83491395D01*
X145108911Y-81976484D01*
X144918627Y-81631743D01*
X144495335Y-81412505D01*
X144037405Y-81280060D01*
X143562436Y-81239497D01*
X143088680Y-81292376D01*
X142634344Y-81436663D01*
X142269373Y-81631743D01*
X142079089Y-81976484D01*
X135915000Y-81976484D01*
X135915000Y-77550516D01*
X142079089Y-77550516D01*
X142269373Y-77895257D01*
X142692665Y-78114495D01*
X143150595Y-78246940D01*
X143625564Y-78287503D01*
X144099320Y-78234624D01*
X144553656Y-78090337D01*
X144918627Y-77895257D01*
X145108911Y-77550516D01*
X143594000Y-76035605D01*
X142079089Y-77550516D01*
X135915000Y-77550516D01*
X135915000Y-75887564D01*
X141162497Y-75887564D01*
X141215376Y-76361320D01*
X141359663Y-76815656D01*
X141554743Y-77180627D01*
X141899484Y-77370911D01*
X143414395Y-75856000D01*
X143773605Y-75856000D01*
X145288516Y-77370911D01*
X145633257Y-77180627D01*
X145852495Y-76757335D01*
X145984940Y-76299405D01*
X146025503Y-75824436D01*
X145972624Y-75350680D01*
X145828337Y-74896344D01*
X145633257Y-74531373D01*
X145288516Y-74341089D01*
X143773605Y-75856000D01*
X143414395Y-75856000D01*
X141899484Y-74341089D01*
X141554743Y-74531373D01*
X141335505Y-74954665D01*
X141203060Y-75412595D01*
X141162497Y-75887564D01*
X135915000Y-75887564D01*
X135915000Y-74161484D01*
X142079089Y-74161484D01*
X143594000Y-75676395D01*
X145108911Y-74161484D01*
X144918627Y-73816743D01*
X144807264Y-73759064D01*
X145510541Y-73759064D01*
X145578793Y-74000227D01*
X145829611Y-74118377D01*
X146098660Y-74185324D01*
X146375600Y-74198496D01*
X146649788Y-74157387D01*
X146910688Y-74063576D01*
X147029207Y-74000227D01*
X147097459Y-73759064D01*
X146304000Y-72965605D01*
X145510541Y-73759064D01*
X144807264Y-73759064D01*
X144495335Y-73597505D01*
X144037405Y-73465060D01*
X143562436Y-73424497D01*
X143088680Y-73477376D01*
X142634344Y-73621663D01*
X142269373Y-73816743D01*
X142079089Y-74161484D01*
X135915000Y-74161484D01*
X135915000Y-72857600D01*
X144891504Y-72857600D01*
X144932613Y-73131788D01*
X145026424Y-73392688D01*
X145089773Y-73511207D01*
X145330936Y-73579459D01*
X146124395Y-72786000D01*
X146483605Y-72786000D01*
X147277064Y-73579459D01*
X147518227Y-73511207D01*
X147636377Y-73260389D01*
X147703324Y-72991340D01*
X147716496Y-72714400D01*
X147675387Y-72440212D01*
X147581576Y-72179312D01*
X147518227Y-72060793D01*
X147277064Y-71992541D01*
X146483605Y-72786000D01*
X146124395Y-72786000D01*
X145330936Y-71992541D01*
X145089773Y-72060793D01*
X144971623Y-72311611D01*
X144904676Y-72580660D01*
X144891504Y-72857600D01*
X135915000Y-72857600D01*
X135915000Y-65647373D01*
X144896500Y-65647373D01*
X144896500Y-65924627D01*
X144950590Y-66196553D01*
X145056690Y-66452701D01*
X145210724Y-66683229D01*
X145406771Y-66879276D01*
X145637299Y-67033310D01*
X145643793Y-67036000D01*
X145637299Y-67038690D01*
X145406771Y-67192724D01*
X145210724Y-67388771D01*
X145056690Y-67619299D01*
X144950590Y-67875447D01*
X144896500Y-68147373D01*
X144896500Y-68424627D01*
X144950590Y-68696553D01*
X145056690Y-68952701D01*
X145210724Y-69183229D01*
X145313495Y-69286000D01*
X145210724Y-69388771D01*
X145056690Y-69619299D01*
X144950590Y-69875447D01*
X144896500Y-70147373D01*
X144896500Y-70424627D01*
X144950590Y-70696553D01*
X145056690Y-70952701D01*
X145210724Y-71183229D01*
X145406771Y-71379276D01*
X145637299Y-71533310D01*
X145644879Y-71536450D01*
X145578793Y-71571773D01*
X145510541Y-71812936D01*
X146304000Y-72606395D01*
X147097459Y-71812936D01*
X147029207Y-71571773D01*
X146958385Y-71538412D01*
X146970701Y-71533310D01*
X147201229Y-71379276D01*
X147397276Y-71183229D01*
X147551310Y-70952701D01*
X147652238Y-70709039D01*
X149051364Y-72108166D01*
X149075163Y-72137165D01*
X149104161Y-72160963D01*
X149190887Y-72232138D01*
X149318468Y-72300332D01*
X149322917Y-72302710D01*
X149466178Y-72346167D01*
X149577831Y-72357164D01*
X149577840Y-72357164D01*
X149615163Y-72360840D01*
X149652486Y-72357164D01*
X149768363Y-72357164D01*
X149878289Y-72467091D01*
X149878288Y-86672559D01*
X149874584Y-86710164D01*
X149878288Y-86747769D01*
X149878288Y-86747771D01*
X149889365Y-86860238D01*
X149933140Y-87004546D01*
X149950596Y-87037204D01*
X150004228Y-87137542D01*
X150020568Y-87157452D01*
X150099895Y-87254113D01*
X150129116Y-87278094D01*
X154148915Y-91297895D01*
X154172887Y-91327105D01*
X154202097Y-91351077D01*
X154202099Y-91351079D01*
X154289458Y-91422772D01*
X154422452Y-91493860D01*
X154566761Y-91537635D01*
X154716836Y-91552416D01*
X154754444Y-91548712D01*
X162364559Y-91548712D01*
X162402164Y-91552416D01*
X162439769Y-91548712D01*
X162439772Y-91548712D01*
X162552239Y-91537635D01*
X162696547Y-91493860D01*
X162829542Y-91422772D01*
X162946113Y-91327105D01*
X162970094Y-91297885D01*
X164102289Y-90165691D01*
X164102289Y-91407732D01*
X163797733Y-91712288D01*
X151797267Y-91712288D01*
X150449338Y-90364359D01*
X150485683Y-90181637D01*
X150485683Y-89977759D01*
X150445909Y-89777800D01*
X150367888Y-89589442D01*
X150254620Y-89419924D01*
X150110457Y-89275761D01*
X149940939Y-89162493D01*
X149752581Y-89084472D01*
X149552622Y-89044698D01*
X149348744Y-89044698D01*
X149148785Y-89084472D01*
X148960427Y-89162493D01*
X148790909Y-89275761D01*
X148743576Y-89323094D01*
X148391804Y-88971323D01*
X148368001Y-88942319D01*
X148252276Y-88847346D01*
X148120247Y-88776774D01*
X147976986Y-88733317D01*
X147865333Y-88722320D01*
X147865322Y-88722320D01*
X147828000Y-88718644D01*
X147790678Y-88722320D01*
X147612622Y-88722320D01*
X147551310Y-88574299D01*
X147397276Y-88343771D01*
X147201229Y-88147724D01*
X146970701Y-87993690D01*
X146964207Y-87991000D01*
X146970701Y-87988310D01*
X147201229Y-87834276D01*
X147397276Y-87638229D01*
X147551310Y-87407701D01*
X147657410Y-87151553D01*
X147711500Y-86879627D01*
X147711500Y-86602373D01*
X147657410Y-86330447D01*
X147551310Y-86074299D01*
X147397276Y-85843771D01*
X147201229Y-85647724D01*
X146970701Y-85493690D01*
X146714553Y-85387590D01*
X146442627Y-85333500D01*
X146165373Y-85333500D01*
X145893447Y-85387590D01*
X145637299Y-85493690D01*
X145406771Y-85647724D01*
X145210724Y-85843771D01*
X145056690Y-86074299D01*
X144950590Y-86330447D01*
X144896500Y-86602373D01*
X144896500Y-86879627D01*
X144950590Y-87151553D01*
X145056690Y-87407701D01*
X145210724Y-87638229D01*
X145406771Y-87834276D01*
X145637299Y-87988310D01*
X145643793Y-87991000D01*
X145637299Y-87993690D01*
X145406771Y-88147724D01*
X145210724Y-88343771D01*
X145056690Y-88574299D01*
X144950590Y-88830447D01*
X144896500Y-89102373D01*
X144896500Y-89379627D01*
X144950590Y-89651553D01*
X145056690Y-89907701D01*
X145210724Y-90138229D01*
X145313495Y-90241000D01*
X145210724Y-90343771D01*
X145056690Y-90574299D01*
X144950590Y-90830447D01*
X144896500Y-91102373D01*
X144896500Y-91379627D01*
X144950590Y-91651553D01*
X145056690Y-91907701D01*
X145210724Y-92138229D01*
X145406771Y-92334276D01*
X145637299Y-92488310D01*
X145644879Y-92491450D01*
X145578793Y-92526773D01*
X145510541Y-92767936D01*
X146304000Y-93561395D01*
X147097459Y-92767936D01*
X147029207Y-92526773D01*
X146958385Y-92493412D01*
X146970701Y-92488310D01*
X147201229Y-92334276D01*
X147397276Y-92138229D01*
X147551310Y-91907701D01*
X147657410Y-91651553D01*
X147711500Y-91379627D01*
X147711500Y-91102373D01*
X147657410Y-90830447D01*
X147551310Y-90574299D01*
X147397276Y-90343771D01*
X147295825Y-90242320D01*
X147513199Y-90242320D01*
X148778957Y-91508079D01*
X148814914Y-91551892D01*
X150719911Y-93456890D01*
X150743887Y-93486105D01*
X150804270Y-93535660D01*
X150860457Y-93581772D01*
X150931545Y-93619769D01*
X150993453Y-93652860D01*
X151137761Y-93696635D01*
X151250228Y-93707712D01*
X151250231Y-93707712D01*
X151287836Y-93711416D01*
X151325441Y-93707712D01*
X164269559Y-93707712D01*
X164307164Y-93711416D01*
X164344769Y-93707712D01*
X164344772Y-93707712D01*
X164457239Y-93696635D01*
X164601547Y-93652860D01*
X164734542Y-93581772D01*
X164851113Y-93486105D01*
X164875093Y-93456885D01*
X165846895Y-92485085D01*
X165876105Y-92461113D01*
X165919183Y-92408623D01*
X165971772Y-92344542D01*
X166042860Y-92211548D01*
X166060858Y-92152214D01*
X166086635Y-92067239D01*
X166097712Y-91954772D01*
X166097712Y-91954769D01*
X166101416Y-91917164D01*
X166097712Y-91879559D01*
X166097712Y-85745644D01*
X166119737Y-85763091D01*
X166231055Y-85820138D01*
X166351363Y-85854371D01*
X166476039Y-85864477D01*
X166779250Y-85861500D01*
X166938000Y-85702750D01*
X166938000Y-85229572D01*
X167192000Y-85229572D01*
X167192000Y-85702750D01*
X167350750Y-85861500D01*
X167653961Y-85864477D01*
X167778637Y-85854371D01*
X167898945Y-85820138D01*
X168010263Y-85763091D01*
X168108312Y-85685423D01*
X168189325Y-85590119D01*
X168250189Y-85480841D01*
X168288564Y-85361789D01*
X168300000Y-85258250D01*
X168218250Y-85176500D01*
X169029343Y-85176500D01*
X169560771Y-85707928D01*
X169099000Y-85707928D01*
X168974518Y-85720188D01*
X168854820Y-85756498D01*
X168744506Y-85815463D01*
X168647815Y-85894815D01*
X168568463Y-85991506D01*
X168509498Y-86101820D01*
X168473188Y-86221518D01*
X168460928Y-86346000D01*
X168460928Y-87546000D01*
X168473188Y-87670482D01*
X168509498Y-87790180D01*
X168512609Y-87796000D01*
X168509498Y-87801820D01*
X168473188Y-87921518D01*
X168460928Y-88046000D01*
X168460928Y-89246000D01*
X168473188Y-89370482D01*
X168509498Y-89490180D01*
X168568463Y-89600494D01*
X168647815Y-89697185D01*
X168744506Y-89776537D01*
X168854820Y-89835502D01*
X168974518Y-89871812D01*
X169099000Y-89884072D01*
X170499000Y-89884072D01*
X170623482Y-89871812D01*
X170743180Y-89835502D01*
X170853494Y-89776537D01*
X170899000Y-89739191D01*
X170944506Y-89776537D01*
X171054820Y-89835502D01*
X171174518Y-89871812D01*
X171299000Y-89884072D01*
X172699000Y-89884072D01*
X172823482Y-89871812D01*
X172943180Y-89835502D01*
X173053494Y-89776537D01*
X173150185Y-89697185D01*
X173229537Y-89600494D01*
X173288502Y-89490180D01*
X173324812Y-89370482D01*
X173337072Y-89246000D01*
X173337072Y-88046000D01*
X173324812Y-87921518D01*
X173288502Y-87801820D01*
X173285391Y-87796000D01*
X173288502Y-87790180D01*
X173324812Y-87670482D01*
X173337072Y-87546000D01*
X173337072Y-86346000D01*
X173324812Y-86221518D01*
X173288502Y-86101820D01*
X173229537Y-85991506D01*
X173150185Y-85894815D01*
X173053494Y-85815463D01*
X172943180Y-85756498D01*
X172823482Y-85720188D01*
X172723590Y-85710350D01*
X172654862Y-85581767D01*
X172556764Y-85462236D01*
X172526817Y-85437659D01*
X170890869Y-83801712D01*
X173865054Y-83801712D01*
X180185580Y-90122240D01*
X180185591Y-90122249D01*
X180995395Y-90932054D01*
X180964500Y-91087373D01*
X180964500Y-91364627D01*
X181018590Y-91636553D01*
X181124690Y-91892701D01*
X181278724Y-92123229D01*
X181474771Y-92319276D01*
X181705299Y-92473310D01*
X181711793Y-92476000D01*
X181705299Y-92478690D01*
X181474771Y-92632724D01*
X181278724Y-92828771D01*
X181124690Y-93059299D01*
X181018590Y-93315447D01*
X180964500Y-93587373D01*
X180964500Y-93864627D01*
X181018590Y-94136553D01*
X181124690Y-94392701D01*
X181278724Y-94623229D01*
X181474771Y-94819276D01*
X181705299Y-94973310D01*
X181961447Y-95079410D01*
X182233373Y-95133500D01*
X182510627Y-95133500D01*
X182671580Y-95101484D01*
X183567089Y-95101484D01*
X185082000Y-96616395D01*
X186596911Y-95101484D01*
X186406627Y-94756743D01*
X185983335Y-94537505D01*
X185525405Y-94405060D01*
X185050436Y-94364497D01*
X184576680Y-94417376D01*
X184122344Y-94561663D01*
X183757373Y-94756743D01*
X183567089Y-95101484D01*
X182671580Y-95101484D01*
X182782553Y-95079410D01*
X183038701Y-94973310D01*
X183269229Y-94819276D01*
X183465276Y-94623229D01*
X183619310Y-94392701D01*
X183725410Y-94136553D01*
X183779500Y-93864627D01*
X183779500Y-93587373D01*
X183725410Y-93315447D01*
X183619310Y-93059299D01*
X183465276Y-92828771D01*
X183269229Y-92632724D01*
X183038701Y-92478690D01*
X183032207Y-92476000D01*
X183038701Y-92473310D01*
X183269229Y-92319276D01*
X183465276Y-92123229D01*
X183619310Y-91892701D01*
X183725410Y-91636553D01*
X183779500Y-91364627D01*
X183779500Y-91087373D01*
X183725410Y-90815447D01*
X183619310Y-90559299D01*
X183465276Y-90328771D01*
X183362505Y-90226000D01*
X183465276Y-90123229D01*
X183619310Y-89892701D01*
X183725410Y-89636553D01*
X183779500Y-89364627D01*
X183779500Y-89087373D01*
X183725410Y-88815447D01*
X183619310Y-88559299D01*
X183465276Y-88328771D01*
X183269229Y-88132724D01*
X183038701Y-87978690D01*
X183031121Y-87975550D01*
X183097207Y-87940227D01*
X183165459Y-87699064D01*
X182372000Y-86905605D01*
X181578541Y-87699064D01*
X181646793Y-87940227D01*
X181717615Y-87973588D01*
X181705299Y-87978690D01*
X181474771Y-88132724D01*
X181278724Y-88328771D01*
X181252826Y-88367530D01*
X179682896Y-86797600D01*
X180959504Y-86797600D01*
X181000613Y-87071788D01*
X181094424Y-87332688D01*
X181157773Y-87451207D01*
X181398936Y-87519459D01*
X182192395Y-86726000D01*
X182551605Y-86726000D01*
X183345064Y-87519459D01*
X183586227Y-87451207D01*
X183704377Y-87200389D01*
X183771324Y-86931340D01*
X183784496Y-86654400D01*
X183743387Y-86380212D01*
X183649576Y-86119312D01*
X183586227Y-86000793D01*
X183345064Y-85932541D01*
X182551605Y-86726000D01*
X182192395Y-86726000D01*
X181398936Y-85932541D01*
X181157773Y-86000793D01*
X181039623Y-86251611D01*
X180972676Y-86520660D01*
X180959504Y-86797600D01*
X179682896Y-86797600D01*
X178638232Y-85752936D01*
X181578541Y-85752936D01*
X182372000Y-86546395D01*
X183165459Y-85752936D01*
X183097207Y-85511773D01*
X182846389Y-85393623D01*
X182673150Y-85350516D01*
X183567089Y-85350516D01*
X183757373Y-85695257D01*
X184180665Y-85914495D01*
X184638595Y-86046940D01*
X185113564Y-86087503D01*
X185587320Y-86034624D01*
X186041656Y-85890337D01*
X186406627Y-85695257D01*
X186596911Y-85350516D01*
X185082000Y-83835605D01*
X183567089Y-85350516D01*
X182673150Y-85350516D01*
X182577340Y-85326676D01*
X182300400Y-85313504D01*
X182026212Y-85354613D01*
X181765312Y-85448424D01*
X181646793Y-85511773D01*
X181578541Y-85752936D01*
X178638232Y-85752936D01*
X176572860Y-83687564D01*
X182650497Y-83687564D01*
X182703376Y-84161320D01*
X182847663Y-84615656D01*
X183042743Y-84980627D01*
X183387484Y-85170911D01*
X184902395Y-83656000D01*
X185261605Y-83656000D01*
X186776516Y-85170911D01*
X187121257Y-84980627D01*
X187340495Y-84557335D01*
X187472940Y-84099405D01*
X187513503Y-83624436D01*
X187460624Y-83150680D01*
X187316337Y-82696344D01*
X187121257Y-82331373D01*
X186776516Y-82141089D01*
X185261605Y-83656000D01*
X184902395Y-83656000D01*
X183387484Y-82141089D01*
X183042743Y-82331373D01*
X182823505Y-82754665D01*
X182691060Y-83212595D01*
X182650497Y-83687564D01*
X176572860Y-83687564D01*
X175037137Y-82151842D01*
X175227495Y-81961484D01*
X183567089Y-81961484D01*
X185082000Y-83476395D01*
X186596911Y-81961484D01*
X186406627Y-81616743D01*
X185983335Y-81397505D01*
X185525405Y-81265060D01*
X185050436Y-81224497D01*
X184576680Y-81277376D01*
X184122344Y-81421663D01*
X183757373Y-81616743D01*
X183567089Y-81961484D01*
X175227495Y-81961484D01*
X179653463Y-77535516D01*
X183567089Y-77535516D01*
X183757373Y-77880257D01*
X184180665Y-78099495D01*
X184638595Y-78231940D01*
X185113564Y-78272503D01*
X185587320Y-78219624D01*
X186041656Y-78075337D01*
X186406627Y-77880257D01*
X186596911Y-77535516D01*
X185082000Y-76020605D01*
X183567089Y-77535516D01*
X179653463Y-77535516D01*
X179943896Y-77245084D01*
X179973105Y-77221113D01*
X179998820Y-77189780D01*
X180068772Y-77104542D01*
X180139860Y-76971548D01*
X180183635Y-76827239D01*
X180191179Y-76750639D01*
X180194712Y-76714772D01*
X180194712Y-76714771D01*
X180198416Y-76677164D01*
X180194712Y-76639556D01*
X180194712Y-75872564D01*
X182650497Y-75872564D01*
X182703376Y-76346320D01*
X182847663Y-76800656D01*
X183042743Y-77165627D01*
X183387484Y-77355911D01*
X184902395Y-75841000D01*
X185261605Y-75841000D01*
X186776516Y-77355911D01*
X187121257Y-77165627D01*
X187340495Y-76742335D01*
X187472940Y-76284405D01*
X187513503Y-75809436D01*
X187460624Y-75335680D01*
X187316337Y-74881344D01*
X187121257Y-74516373D01*
X186776516Y-74326089D01*
X185261605Y-75841000D01*
X184902395Y-75841000D01*
X183387484Y-74326089D01*
X183042743Y-74516373D01*
X182823505Y-74939665D01*
X182691060Y-75397595D01*
X182650497Y-75872564D01*
X180194712Y-75872564D01*
X180194712Y-72187583D01*
X181252826Y-71129470D01*
X181278724Y-71168229D01*
X181474771Y-71364276D01*
X181705299Y-71518310D01*
X181711793Y-71521000D01*
X181705299Y-71523690D01*
X181474771Y-71677724D01*
X181278724Y-71873771D01*
X181124690Y-72104299D01*
X181018590Y-72360447D01*
X180964500Y-72632373D01*
X180964500Y-72909627D01*
X181018590Y-73181553D01*
X181124690Y-73437701D01*
X181278724Y-73668229D01*
X181474771Y-73864276D01*
X181705299Y-74018310D01*
X181961447Y-74124410D01*
X182233373Y-74178500D01*
X182510627Y-74178500D01*
X182671580Y-74146484D01*
X183567089Y-74146484D01*
X185082000Y-75661395D01*
X186596911Y-74146484D01*
X186406627Y-73801743D01*
X185983335Y-73582505D01*
X185525405Y-73450060D01*
X185050436Y-73409497D01*
X184576680Y-73462376D01*
X184122344Y-73606663D01*
X183757373Y-73801743D01*
X183567089Y-74146484D01*
X182671580Y-74146484D01*
X182782553Y-74124410D01*
X183038701Y-74018310D01*
X183269229Y-73864276D01*
X183465276Y-73668229D01*
X183619310Y-73437701D01*
X183725410Y-73181553D01*
X183779500Y-72909627D01*
X183779500Y-72632373D01*
X183725410Y-72360447D01*
X183619310Y-72104299D01*
X183465276Y-71873771D01*
X183269229Y-71677724D01*
X183038701Y-71523690D01*
X183032207Y-71521000D01*
X183038701Y-71518310D01*
X183269229Y-71364276D01*
X183465276Y-71168229D01*
X183619310Y-70937701D01*
X183725410Y-70681553D01*
X183779500Y-70409627D01*
X183779500Y-70132373D01*
X183725410Y-69860447D01*
X183619310Y-69604299D01*
X183465276Y-69373771D01*
X183362505Y-69271000D01*
X183465276Y-69168229D01*
X183619310Y-68937701D01*
X183725410Y-68681553D01*
X183779500Y-68409627D01*
X183779500Y-68132373D01*
X183725410Y-67860447D01*
X183619310Y-67604299D01*
X183465276Y-67373771D01*
X183269229Y-67177724D01*
X183038701Y-67023690D01*
X183031121Y-67020550D01*
X183097207Y-66985227D01*
X183165459Y-66744064D01*
X182372000Y-65950605D01*
X181578541Y-66744064D01*
X181646793Y-66985227D01*
X181717615Y-67018588D01*
X181705299Y-67023690D01*
X181474771Y-67177724D01*
X181278724Y-67373771D01*
X181124690Y-67604299D01*
X181018590Y-67860447D01*
X180964500Y-68132373D01*
X180964500Y-68409627D01*
X180995395Y-68564946D01*
X180185586Y-69374756D01*
X180185581Y-69374760D01*
X178450111Y-71110231D01*
X178420896Y-71134207D01*
X178380665Y-71183229D01*
X178325228Y-71250778D01*
X178262837Y-71367504D01*
X178254141Y-71383773D01*
X178210740Y-71526850D01*
X178210366Y-71528082D01*
X178195584Y-71678156D01*
X178199289Y-71715771D01*
X178199288Y-76167733D01*
X173830734Y-80536288D01*
X168316430Y-80536288D01*
X168303072Y-80529148D01*
X168303072Y-80381500D01*
X168291500Y-80264000D01*
X168303072Y-80146500D01*
X168303072Y-79775000D01*
X168503939Y-79775000D01*
X168703898Y-79735226D01*
X168892256Y-79657205D01*
X169061774Y-79543937D01*
X169205937Y-79399774D01*
X169319205Y-79230256D01*
X169397226Y-79041898D01*
X169437000Y-78841939D01*
X169437000Y-78826500D01*
X169614107Y-78826500D01*
X169618382Y-78834497D01*
X169725716Y-78965284D01*
X169856503Y-79072618D01*
X170005717Y-79152375D01*
X170167623Y-79201488D01*
X170336000Y-79218072D01*
X170786000Y-79218072D01*
X170954377Y-79201488D01*
X171116283Y-79152375D01*
X171262351Y-79074300D01*
X171306506Y-79110537D01*
X171416820Y-79169502D01*
X171536518Y-79205812D01*
X171661000Y-79218072D01*
X171825250Y-79215000D01*
X171984000Y-79056250D01*
X171984000Y-78232000D01*
X172238000Y-78232000D01*
X172238000Y-79056250D01*
X172396750Y-79215000D01*
X172561000Y-79218072D01*
X172685482Y-79205812D01*
X172805180Y-79169502D01*
X172915494Y-79110537D01*
X173012185Y-79031185D01*
X173091537Y-78934494D01*
X173150502Y-78824180D01*
X173186812Y-78704482D01*
X173199072Y-78580000D01*
X173196000Y-78390750D01*
X173037250Y-78232000D01*
X172238000Y-78232000D01*
X171984000Y-78232000D01*
X171964000Y-78232000D01*
X171964000Y-77978000D01*
X171984000Y-77978000D01*
X171984000Y-77153750D01*
X171971000Y-77140750D01*
X171971000Y-76581000D01*
X172225000Y-76581000D01*
X172225000Y-77405250D01*
X172238000Y-77418250D01*
X172238000Y-77978000D01*
X173037250Y-77978000D01*
X173196000Y-77819250D01*
X173199072Y-77630000D01*
X173186812Y-77505518D01*
X173150502Y-77385820D01*
X173091537Y-77275506D01*
X173086250Y-77269064D01*
X173137502Y-77173180D01*
X173173812Y-77053482D01*
X173186072Y-76929000D01*
X173183000Y-76739750D01*
X173024250Y-76581000D01*
X172225000Y-76581000D01*
X171971000Y-76581000D01*
X171951000Y-76581000D01*
X171951000Y-76327000D01*
X171971000Y-76327000D01*
X171971000Y-75502750D01*
X172225000Y-75502750D01*
X172225000Y-76327000D01*
X173024250Y-76327000D01*
X173183000Y-76168250D01*
X173186072Y-75979000D01*
X173173812Y-75854518D01*
X173137502Y-75734820D01*
X173078537Y-75624506D01*
X172999185Y-75527815D01*
X172902494Y-75448463D01*
X172792180Y-75389498D01*
X172672482Y-75353188D01*
X172548000Y-75340928D01*
X172383750Y-75344000D01*
X172225000Y-75502750D01*
X171971000Y-75502750D01*
X171812250Y-75344000D01*
X171648000Y-75340928D01*
X171523518Y-75353188D01*
X171403820Y-75389498D01*
X171293506Y-75448463D01*
X171249351Y-75484700D01*
X171103283Y-75406625D01*
X170941377Y-75357512D01*
X170773000Y-75340928D01*
X170323000Y-75340928D01*
X170154623Y-75357512D01*
X169992717Y-75406625D01*
X169843503Y-75486382D01*
X169712716Y-75593716D01*
X169605382Y-75724503D01*
X169525625Y-75873717D01*
X169476512Y-76035623D01*
X169459928Y-76204000D01*
X169459928Y-76431915D01*
X169270343Y-76621500D01*
X168303072Y-76621500D01*
X168303072Y-76571500D01*
X168290812Y-76447018D01*
X168254502Y-76327320D01*
X168195537Y-76217006D01*
X168116185Y-76120315D01*
X168019494Y-76040963D01*
X167917000Y-75986178D01*
X167917000Y-75663399D01*
X167999606Y-75595606D01*
X168103831Y-75468608D01*
X168181278Y-75323716D01*
X168228969Y-75166500D01*
X168245072Y-75003000D01*
X168245072Y-74603000D01*
X168228969Y-74439500D01*
X168181278Y-74282284D01*
X168103831Y-74137392D01*
X168020137Y-74035410D01*
X168058185Y-74004185D01*
X168137537Y-73907494D01*
X168196502Y-73797180D01*
X168232812Y-73677482D01*
X168245072Y-73553000D01*
X168242000Y-73438750D01*
X168083250Y-73280000D01*
X167259000Y-73280000D01*
X167259000Y-73300000D01*
X167005000Y-73300000D01*
X167005000Y-73280000D01*
X166985000Y-73280000D01*
X166985000Y-73026000D01*
X167005000Y-73026000D01*
X167005000Y-73006000D01*
X167259000Y-73006000D01*
X167259000Y-73026000D01*
X168083250Y-73026000D01*
X168242000Y-72867250D01*
X168245072Y-72753000D01*
X168232812Y-72628518D01*
X168196502Y-72508820D01*
X168137537Y-72398506D01*
X168058185Y-72301815D01*
X167961494Y-72222463D01*
X167851180Y-72163498D01*
X167731482Y-72127188D01*
X167607000Y-72114928D01*
X167417750Y-72118000D01*
X167259002Y-72276748D01*
X167259002Y-72118000D01*
X167142435Y-72118000D01*
X167111226Y-71961102D01*
X167033205Y-71772744D01*
X167002046Y-71726111D01*
X167003085Y-71725072D01*
X167206000Y-71725072D01*
X167369500Y-71708969D01*
X167526716Y-71661278D01*
X167671608Y-71583831D01*
X167798606Y-71479606D01*
X167831000Y-71440134D01*
X167863394Y-71479606D01*
X167990392Y-71583831D01*
X168135284Y-71661278D01*
X168292500Y-71708969D01*
X168456000Y-71725072D01*
X168856000Y-71725072D01*
X169019500Y-71708969D01*
X169176716Y-71661278D01*
X169321608Y-71583831D01*
X169448606Y-71479606D01*
X169538558Y-71370000D01*
X169891271Y-71370000D01*
X169904868Y-71381159D01*
X169897795Y-71391744D01*
X169819774Y-71580102D01*
X169780000Y-71780061D01*
X169780000Y-71983939D01*
X169819774Y-72183898D01*
X169897795Y-72372256D01*
X170011063Y-72541774D01*
X170155226Y-72685937D01*
X170324744Y-72799205D01*
X170513102Y-72877226D01*
X170713061Y-72917000D01*
X170916939Y-72917000D01*
X171116898Y-72877226D01*
X171305256Y-72799205D01*
X171474774Y-72685937D01*
X171618937Y-72541774D01*
X171732205Y-72372256D01*
X171810226Y-72183898D01*
X171850000Y-71983939D01*
X171850000Y-71780061D01*
X171810226Y-71580102D01*
X171801330Y-71558626D01*
X171877092Y-71581608D01*
X172044250Y-71598072D01*
X172481750Y-71598072D01*
X172648908Y-71581608D01*
X172809642Y-71532850D01*
X172957775Y-71453671D01*
X173087615Y-71347115D01*
X173194171Y-71217275D01*
X173273350Y-71069142D01*
X173322108Y-70908408D01*
X173338572Y-70741250D01*
X173338572Y-70228750D01*
X173322108Y-70061592D01*
X173273350Y-69900858D01*
X173194171Y-69752725D01*
X173148000Y-69696465D01*
X173148000Y-69507535D01*
X173194171Y-69451275D01*
X173273350Y-69303142D01*
X173322108Y-69142408D01*
X173338572Y-68975250D01*
X173338572Y-68462750D01*
X173322108Y-68295592D01*
X173273350Y-68134858D01*
X173257411Y-68105037D01*
X173434102Y-68178226D01*
X173634061Y-68218000D01*
X173837939Y-68218000D01*
X174037898Y-68178226D01*
X174226256Y-68100205D01*
X174395774Y-67986937D01*
X174539937Y-67842774D01*
X174653205Y-67673256D01*
X174731226Y-67484898D01*
X174771000Y-67284939D01*
X174771000Y-67081061D01*
X174731226Y-66881102D01*
X174653205Y-66692744D01*
X174610652Y-66629059D01*
X174666937Y-66572774D01*
X174780205Y-66403256D01*
X174858226Y-66214898D01*
X174898000Y-66014939D01*
X174898000Y-65842600D01*
X180959504Y-65842600D01*
X181000613Y-66116788D01*
X181094424Y-66377688D01*
X181157773Y-66496207D01*
X181398936Y-66564459D01*
X182192395Y-65771000D01*
X182551605Y-65771000D01*
X183345064Y-66564459D01*
X183586227Y-66496207D01*
X183704377Y-66245389D01*
X183771324Y-65976340D01*
X183784496Y-65699400D01*
X183743387Y-65425212D01*
X183649576Y-65164312D01*
X183586227Y-65045793D01*
X183345064Y-64977541D01*
X182551605Y-65771000D01*
X182192395Y-65771000D01*
X181398936Y-64977541D01*
X181157773Y-65045793D01*
X181039623Y-65296611D01*
X180972676Y-65565660D01*
X180959504Y-65842600D01*
X174898000Y-65842600D01*
X174898000Y-65811061D01*
X174858226Y-65611102D01*
X174780205Y-65422744D01*
X174666937Y-65253226D01*
X174522774Y-65109063D01*
X174353256Y-64995795D01*
X174164898Y-64917774D01*
X173964939Y-64878000D01*
X173761061Y-64878000D01*
X173561102Y-64917774D01*
X173372744Y-64995795D01*
X173338572Y-65018628D01*
X173338572Y-64930750D01*
X173325491Y-64797936D01*
X181578541Y-64797936D01*
X182372000Y-65591395D01*
X183165459Y-64797936D01*
X183097207Y-64556773D01*
X182846389Y-64438623D01*
X182673150Y-64395516D01*
X183567089Y-64395516D01*
X183757373Y-64740257D01*
X184180665Y-64959495D01*
X184638595Y-65091940D01*
X185113564Y-65132503D01*
X185587320Y-65079624D01*
X186041656Y-64935337D01*
X186406627Y-64740257D01*
X186596911Y-64395516D01*
X185082000Y-62880605D01*
X183567089Y-64395516D01*
X182673150Y-64395516D01*
X182577340Y-64371676D01*
X182300400Y-64358504D01*
X182026212Y-64399613D01*
X181765312Y-64493424D01*
X181646793Y-64556773D01*
X181578541Y-64797936D01*
X173325491Y-64797936D01*
X173322108Y-64763592D01*
X173273350Y-64602858D01*
X173236583Y-64534072D01*
X173250500Y-64534072D01*
X173423754Y-64517008D01*
X173590350Y-64466472D01*
X173743886Y-64384405D01*
X173878462Y-64273962D01*
X173988905Y-64139386D01*
X174070972Y-63985850D01*
X174121508Y-63819254D01*
X174138572Y-63646000D01*
X174138572Y-62846000D01*
X174127400Y-62732564D01*
X182650497Y-62732564D01*
X182703376Y-63206320D01*
X182847663Y-63660656D01*
X183042743Y-64025627D01*
X183387484Y-64215911D01*
X184902395Y-62701000D01*
X185261605Y-62701000D01*
X186776516Y-64215911D01*
X187121257Y-64025627D01*
X187340495Y-63602335D01*
X187472940Y-63144405D01*
X187513503Y-62669436D01*
X187460624Y-62195680D01*
X187316337Y-61741344D01*
X187121257Y-61376373D01*
X186776516Y-61186089D01*
X185261605Y-62701000D01*
X184902395Y-62701000D01*
X183387484Y-61186089D01*
X183042743Y-61376373D01*
X182823505Y-61799665D01*
X182691060Y-62257595D01*
X182650497Y-62732564D01*
X174127400Y-62732564D01*
X174121508Y-62672746D01*
X174070972Y-62506150D01*
X173988905Y-62352614D01*
X173878462Y-62218038D01*
X173743886Y-62107595D01*
X173590350Y-62025528D01*
X173423754Y-61974992D01*
X173250500Y-61957928D01*
X172425500Y-61957928D01*
X172252246Y-61974992D01*
X172085650Y-62025528D01*
X171961920Y-62091664D01*
X171929994Y-62065463D01*
X171819680Y-62006498D01*
X171699982Y-61970188D01*
X171575500Y-61957928D01*
X171198750Y-61961000D01*
X171040000Y-62119750D01*
X171040000Y-63119000D01*
X171060000Y-63119000D01*
X171060000Y-63373000D01*
X171040000Y-63373000D01*
X171040000Y-63393000D01*
X170786000Y-63393000D01*
X170786000Y-63373000D01*
X169774250Y-63373000D01*
X169615500Y-63531750D01*
X169612428Y-63896000D01*
X169624688Y-64020482D01*
X169660998Y-64140180D01*
X169719963Y-64250494D01*
X169799315Y-64347185D01*
X169826664Y-64369630D01*
X169756829Y-64454725D01*
X169677650Y-64602858D01*
X169628892Y-64763592D01*
X169612428Y-64930750D01*
X169612428Y-65443250D01*
X169628892Y-65610408D01*
X169677650Y-65771142D01*
X169756829Y-65919275D01*
X169803001Y-65975536D01*
X169803000Y-66164464D01*
X169800099Y-66168000D01*
X167798724Y-66168000D01*
X167760168Y-66164203D01*
X167721612Y-66168000D01*
X167721607Y-66168000D01*
X167681194Y-66171980D01*
X167606281Y-66179358D01*
X167489124Y-66214898D01*
X167458308Y-66224246D01*
X167321935Y-66297138D01*
X167202404Y-66395236D01*
X167177821Y-66425190D01*
X165660712Y-67942299D01*
X165660712Y-62596000D01*
X169612428Y-62596000D01*
X169615500Y-62960250D01*
X169774250Y-63119000D01*
X170786000Y-63119000D01*
X170786000Y-62119750D01*
X170627250Y-61961000D01*
X170250500Y-61957928D01*
X170126018Y-61970188D01*
X170006320Y-62006498D01*
X169896006Y-62065463D01*
X169799315Y-62144815D01*
X169719963Y-62241506D01*
X169660998Y-62351820D01*
X169624688Y-62471518D01*
X169612428Y-62596000D01*
X165660712Y-62596000D01*
X165660712Y-61006484D01*
X183567089Y-61006484D01*
X185082000Y-62521395D01*
X186596911Y-61006484D01*
X186406627Y-60661743D01*
X185983335Y-60442505D01*
X185525405Y-60310060D01*
X185050436Y-60269497D01*
X184576680Y-60322376D01*
X184122344Y-60466663D01*
X183757373Y-60661743D01*
X183567089Y-61006484D01*
X165660712Y-61006484D01*
X165660712Y-58894711D01*
X165752744Y-58956205D01*
X165941102Y-59034226D01*
X166141061Y-59074000D01*
X166344939Y-59074000D01*
X166544898Y-59034226D01*
X166733256Y-58956205D01*
X166902774Y-58842937D01*
X167046937Y-58698774D01*
X167135654Y-58566000D01*
X167233939Y-58566000D01*
X167433898Y-58526226D01*
X167622256Y-58448205D01*
X167791774Y-58334937D01*
X167935937Y-58190774D01*
X168049205Y-58021256D01*
X168127226Y-57832898D01*
X168167000Y-57632939D01*
X168167000Y-57429061D01*
X168127226Y-57229102D01*
X168066449Y-57082374D01*
X187191231Y-57082374D01*
X187491411Y-57520828D01*
X188070356Y-57831296D01*
X188698746Y-58022852D01*
X189352431Y-58088134D01*
X190006293Y-58024634D01*
X190635203Y-57834792D01*
X191214992Y-57525904D01*
X191222589Y-57520828D01*
X191522769Y-57082374D01*
X189357000Y-54916605D01*
X187191231Y-57082374D01*
X168066449Y-57082374D01*
X168049205Y-57040744D01*
X167935937Y-56871226D01*
X167791774Y-56727063D01*
X167622256Y-56613795D01*
X167433898Y-56535774D01*
X167377044Y-56524465D01*
X167337025Y-56484446D01*
X167385852Y-56458348D01*
X167433159Y-56234764D01*
X166763000Y-55564605D01*
X166748858Y-55578748D01*
X166569253Y-55399143D01*
X166583395Y-55385000D01*
X166569253Y-55370858D01*
X166748858Y-55191253D01*
X166763000Y-55205395D01*
X166777143Y-55191253D01*
X166956748Y-55370858D01*
X166942605Y-55385000D01*
X167612764Y-56055159D01*
X167836348Y-56007852D01*
X167937237Y-55786484D01*
X167993000Y-55549687D01*
X168001495Y-55306562D01*
X167962395Y-55066451D01*
X167877202Y-54838582D01*
X167836348Y-54762148D01*
X167695897Y-54732431D01*
X186005866Y-54732431D01*
X186069366Y-55386293D01*
X186259208Y-56015203D01*
X186568096Y-56594992D01*
X186573172Y-56602589D01*
X187011626Y-56902769D01*
X189177395Y-54737000D01*
X189536605Y-54737000D01*
X191702374Y-56902769D01*
X192140828Y-56602589D01*
X192451296Y-56023644D01*
X192642852Y-55395254D01*
X192708134Y-54741569D01*
X192644634Y-54087707D01*
X192454792Y-53458797D01*
X192145904Y-52879008D01*
X192140828Y-52871411D01*
X191702374Y-52571231D01*
X189536605Y-54737000D01*
X189177395Y-54737000D01*
X187011626Y-52571231D01*
X186573172Y-52871411D01*
X186262704Y-53450356D01*
X186071148Y-54078746D01*
X186005866Y-54732431D01*
X167695897Y-54732431D01*
X167612766Y-54714842D01*
X167682840Y-54644768D01*
X168012940Y-54668825D01*
X168395104Y-54621348D01*
X168760662Y-54500227D01*
X169012520Y-54365606D01*
X169146864Y-54068469D01*
X167963000Y-52884605D01*
X166779136Y-54068469D01*
X166816503Y-54151115D01*
X166684562Y-54146505D01*
X166444451Y-54185605D01*
X166216582Y-54270798D01*
X166140148Y-54311652D01*
X166095510Y-54522623D01*
X166082180Y-54515498D01*
X166069155Y-54511547D01*
X165975736Y-54418128D01*
X165918962Y-54474902D01*
X165838000Y-54466928D01*
X165438000Y-54466928D01*
X165313518Y-54479188D01*
X165313000Y-54479345D01*
X165312482Y-54479188D01*
X165188000Y-54466928D01*
X164788000Y-54466928D01*
X164663518Y-54479188D01*
X164663000Y-54479345D01*
X164662482Y-54479188D01*
X164538000Y-54466928D01*
X164138000Y-54466928D01*
X164013518Y-54479188D01*
X164013000Y-54479345D01*
X164012482Y-54479188D01*
X163888000Y-54466928D01*
X163488000Y-54466928D01*
X163363518Y-54479188D01*
X163361134Y-54479911D01*
X163269750Y-54470000D01*
X163201782Y-54537968D01*
X163133506Y-54574463D01*
X163036815Y-54653815D01*
X162965000Y-54741322D01*
X162965000Y-54628750D01*
X162806250Y-54470000D01*
X162757431Y-54475295D01*
X162700264Y-54418128D01*
X162605872Y-54512520D01*
X162585472Y-54519026D01*
X162580331Y-54521869D01*
X162535852Y-54311652D01*
X162314484Y-54210763D01*
X162077687Y-54155000D01*
X161861162Y-54147434D01*
X161896864Y-54068469D01*
X160713000Y-52884605D01*
X159529136Y-54068469D01*
X159663480Y-54365606D01*
X160007614Y-54538449D01*
X160378857Y-54640834D01*
X160762940Y-54668825D01*
X160989118Y-54640726D01*
X161063234Y-54714842D01*
X160839652Y-54762148D01*
X160738763Y-54983516D01*
X160683000Y-55220313D01*
X160674505Y-55463438D01*
X160713605Y-55703549D01*
X160798798Y-55931418D01*
X160839652Y-56007852D01*
X161063236Y-56055159D01*
X161733395Y-55385000D01*
X161719253Y-55370858D01*
X161898858Y-55191253D01*
X161913000Y-55205395D01*
X161927143Y-55191253D01*
X162106748Y-55370858D01*
X162092605Y-55385000D01*
X162106748Y-55399143D01*
X161927143Y-55578748D01*
X161913000Y-55564605D01*
X161242841Y-56234764D01*
X161290148Y-56458348D01*
X161511516Y-56559237D01*
X161748313Y-56615000D01*
X161991438Y-56623495D01*
X162200626Y-56589431D01*
X162199992Y-56695937D01*
X162210483Y-56820580D01*
X162245089Y-56940781D01*
X162302481Y-57051922D01*
X162380452Y-57149731D01*
X162476006Y-57230449D01*
X162585472Y-57290974D01*
X162704642Y-57328980D01*
X162806250Y-57340000D01*
X162965000Y-57181250D01*
X162965000Y-57068678D01*
X163036815Y-57156185D01*
X163133506Y-57235537D01*
X163201782Y-57272032D01*
X163269750Y-57340000D01*
X163361134Y-57330089D01*
X163363518Y-57330812D01*
X163488000Y-57343072D01*
X163610215Y-57343072D01*
X163621182Y-57379226D01*
X163627297Y-57399384D01*
X163665288Y-57470461D01*
X163665288Y-58909000D01*
X163474061Y-58909000D01*
X163274102Y-58948774D01*
X163085744Y-59026795D01*
X163058969Y-59044685D01*
X162970608Y-58972169D01*
X162825716Y-58894722D01*
X162668500Y-58847031D01*
X162505000Y-58830928D01*
X162105000Y-58830928D01*
X161941500Y-58847031D01*
X161784284Y-58894722D01*
X161639392Y-58972169D01*
X161512394Y-59076394D01*
X161480000Y-59115866D01*
X161447606Y-59076394D01*
X161320608Y-58972169D01*
X161175716Y-58894722D01*
X161018500Y-58847031D01*
X160855000Y-58830928D01*
X160455000Y-58830928D01*
X160291500Y-58847031D01*
X160134284Y-58894722D01*
X159989392Y-58972169D01*
X159883589Y-59059000D01*
X159546729Y-59059000D01*
X159444775Y-58975329D01*
X159296642Y-58896150D01*
X159135908Y-58847392D01*
X158968750Y-58830928D01*
X158531250Y-58830928D01*
X158364092Y-58847392D01*
X158203358Y-58896150D01*
X158055225Y-58975329D01*
X158033570Y-58993100D01*
X157966994Y-58938463D01*
X157856680Y-58879498D01*
X157736982Y-58843188D01*
X157612500Y-58830928D01*
X157460750Y-58834000D01*
X157302000Y-58992750D01*
X157302000Y-59817000D01*
X157322000Y-59817000D01*
X157322000Y-60071000D01*
X157302000Y-60071000D01*
X157302000Y-60895250D01*
X157460750Y-61054000D01*
X157612500Y-61057072D01*
X157736982Y-61044812D01*
X157856680Y-61008502D01*
X157966994Y-60949537D01*
X158033570Y-60894900D01*
X158055225Y-60912671D01*
X158203358Y-60991850D01*
X158364092Y-61040608D01*
X158531250Y-61057072D01*
X158968750Y-61057072D01*
X159135908Y-61040608D01*
X159296642Y-60991850D01*
X159444775Y-60912671D01*
X159546729Y-60829000D01*
X159883589Y-60829000D01*
X159989392Y-60915831D01*
X160134284Y-60993278D01*
X160291500Y-61040969D01*
X160455000Y-61057072D01*
X160855000Y-61057072D01*
X161018500Y-61040969D01*
X161175716Y-60993278D01*
X161320608Y-60915831D01*
X161447606Y-60811606D01*
X161480000Y-60772134D01*
X161512394Y-60811606D01*
X161639392Y-60915831D01*
X161784284Y-60993278D01*
X161941500Y-61040969D01*
X162105000Y-61057072D01*
X162505000Y-61057072D01*
X162668500Y-61040969D01*
X162825716Y-60993278D01*
X162970608Y-60915831D01*
X163058969Y-60843315D01*
X163085744Y-60861205D01*
X163274102Y-60939226D01*
X163474061Y-60979000D01*
X163665288Y-60979000D01*
X163665289Y-67968732D01*
X159019116Y-72614906D01*
X158989895Y-72638887D01*
X158938730Y-72701233D01*
X158894228Y-72755458D01*
X158870845Y-72799205D01*
X158823140Y-72888454D01*
X158779365Y-73032762D01*
X158772132Y-73106204D01*
X158764584Y-73182836D01*
X158768288Y-73220441D01*
X158768289Y-76512549D01*
X158764584Y-76550164D01*
X158776975Y-76675963D01*
X158779366Y-76700239D01*
X158805143Y-76785214D01*
X158823141Y-76844547D01*
X158894228Y-76977542D01*
X158940795Y-77034283D01*
X158989896Y-77094113D01*
X159019111Y-77118089D01*
X159157522Y-77256500D01*
X159092567Y-77256500D01*
X158987962Y-77129038D01*
X158853386Y-77018595D01*
X158739594Y-76957772D01*
X158769000Y-76809939D01*
X158769000Y-76606061D01*
X158729226Y-76406102D01*
X158651205Y-76217744D01*
X158537937Y-76048226D01*
X158393774Y-75904063D01*
X158224256Y-75790795D01*
X158035898Y-75712774D01*
X157835939Y-75673000D01*
X157632061Y-75673000D01*
X157432102Y-75712774D01*
X157243744Y-75790795D01*
X157074226Y-75904063D01*
X156930063Y-76048226D01*
X156816795Y-76217744D01*
X156738774Y-76406102D01*
X156699000Y-76606061D01*
X156699000Y-76809939D01*
X156710748Y-76869002D01*
X156710000Y-76868928D01*
X156495750Y-76872000D01*
X156337000Y-77030750D01*
X156337000Y-78105000D01*
X156357000Y-78105000D01*
X156357000Y-78359000D01*
X156337000Y-78359000D01*
X156337000Y-78379000D01*
X156083000Y-78379000D01*
X156083000Y-78359000D01*
X155233750Y-78359000D01*
X155075000Y-78517750D01*
X155071928Y-78957000D01*
X155076360Y-79002000D01*
X154122248Y-79002000D01*
X153955501Y-79018423D01*
X153741553Y-79083324D01*
X153544377Y-79188716D01*
X153371551Y-79330551D01*
X153229716Y-79503377D01*
X153124324Y-79700553D01*
X153059423Y-79914501D01*
X153037509Y-80137000D01*
X153059423Y-80359499D01*
X153124324Y-80573447D01*
X153229716Y-80770623D01*
X153371551Y-80943449D01*
X153544377Y-81085284D01*
X153741553Y-81190676D01*
X153955501Y-81255577D01*
X154122248Y-81272000D01*
X155033627Y-81272000D01*
X155022498Y-81292820D01*
X154986188Y-81412518D01*
X154973928Y-81537000D01*
X154977000Y-81751250D01*
X155135750Y-81910000D01*
X156210000Y-81910000D01*
X156210000Y-81890000D01*
X156464000Y-81890000D01*
X156464000Y-81910000D01*
X156484000Y-81910000D01*
X156484000Y-82164000D01*
X156464000Y-82164000D01*
X156464000Y-83013250D01*
X156622750Y-83172000D01*
X157062000Y-83175072D01*
X157186482Y-83162812D01*
X157306180Y-83126502D01*
X157416494Y-83067537D01*
X157513185Y-82988185D01*
X157592537Y-82891494D01*
X157651502Y-82781180D01*
X157657384Y-82761790D01*
X157829250Y-82759000D01*
X157988000Y-82600250D01*
X157988000Y-81801000D01*
X158242000Y-81801000D01*
X158242000Y-82600250D01*
X158400750Y-82759000D01*
X158590000Y-82762072D01*
X158714482Y-82749812D01*
X158834180Y-82713502D01*
X158944494Y-82654537D01*
X159041185Y-82575185D01*
X159120537Y-82478494D01*
X159179502Y-82368180D01*
X159215812Y-82248482D01*
X159228072Y-82124000D01*
X159225000Y-81959750D01*
X159066250Y-81801000D01*
X158242000Y-81801000D01*
X157988000Y-81801000D01*
X157968000Y-81801000D01*
X157968000Y-81547000D01*
X157988000Y-81547000D01*
X157988000Y-81527000D01*
X158242000Y-81527000D01*
X158242000Y-81547000D01*
X159066250Y-81547000D01*
X159225000Y-81388250D01*
X159227417Y-81259000D01*
X159467541Y-81259000D01*
X159356795Y-81424744D01*
X159278774Y-81613102D01*
X159239000Y-81813061D01*
X159239000Y-82016939D01*
X159278774Y-82216898D01*
X159356795Y-82405256D01*
X159368651Y-82423000D01*
X159356795Y-82440744D01*
X159278774Y-82629102D01*
X159239000Y-82829061D01*
X159239000Y-83032939D01*
X159278774Y-83232898D01*
X159356795Y-83421256D01*
X159368651Y-83439000D01*
X159356795Y-83456744D01*
X159278774Y-83645102D01*
X159239000Y-83845061D01*
X159239000Y-84048939D01*
X159278774Y-84248898D01*
X159356795Y-84437256D01*
X159368651Y-84455000D01*
X159356795Y-84472744D01*
X159278774Y-84661102D01*
X159239000Y-84861061D01*
X159239000Y-85064939D01*
X159278774Y-85264898D01*
X159356795Y-85453256D01*
X159470063Y-85622774D01*
X159614226Y-85766937D01*
X159778180Y-85876487D01*
X159752746Y-85878992D01*
X159586150Y-85929528D01*
X159432614Y-86011595D01*
X159298038Y-86122038D01*
X159187595Y-86256614D01*
X159105528Y-86410150D01*
X159054992Y-86576746D01*
X159037928Y-86750000D01*
X159037928Y-87250000D01*
X159054992Y-87423254D01*
X159105528Y-87589850D01*
X159187595Y-87743386D01*
X159298038Y-87877962D01*
X159304594Y-87883342D01*
X159224815Y-87948815D01*
X159145463Y-88045506D01*
X159086498Y-88155820D01*
X159050188Y-88275518D01*
X159037928Y-88400000D01*
X159041000Y-88614250D01*
X159199750Y-88773000D01*
X160274000Y-88773000D01*
X160274000Y-88753000D01*
X160528000Y-88753000D01*
X160528000Y-88773000D01*
X161602250Y-88773000D01*
X161761000Y-88614250D01*
X161764072Y-88400000D01*
X161751812Y-88275518D01*
X161715502Y-88155820D01*
X161656537Y-88045506D01*
X161577185Y-87948815D01*
X161497406Y-87883342D01*
X161503962Y-87877962D01*
X161614405Y-87743386D01*
X161696472Y-87589850D01*
X161747008Y-87423254D01*
X161764072Y-87250000D01*
X161764072Y-86750000D01*
X161747008Y-86576746D01*
X161696472Y-86410150D01*
X161659910Y-86341747D01*
X162137085Y-85864572D01*
X162465000Y-85864572D01*
X162589482Y-85852312D01*
X162709180Y-85816002D01*
X162819494Y-85757037D01*
X162832289Y-85746537D01*
X162832289Y-88613732D01*
X161892734Y-89553288D01*
X161743074Y-89553288D01*
X161751812Y-89524482D01*
X161764072Y-89400000D01*
X161761000Y-89185750D01*
X161602250Y-89027000D01*
X160528000Y-89027000D01*
X160528000Y-89047000D01*
X160274000Y-89047000D01*
X160274000Y-89027000D01*
X159199750Y-89027000D01*
X159041000Y-89185750D01*
X159037928Y-89400000D01*
X159050188Y-89524482D01*
X159058926Y-89553288D01*
X155226268Y-89553288D01*
X151873712Y-86200734D01*
X151873712Y-82537000D01*
X154973928Y-82537000D01*
X154986188Y-82661482D01*
X155022498Y-82781180D01*
X155081463Y-82891494D01*
X155160815Y-82988185D01*
X155257506Y-83067537D01*
X155367820Y-83126502D01*
X155487518Y-83162812D01*
X155612000Y-83175072D01*
X156051250Y-83172000D01*
X156210000Y-83013250D01*
X156210000Y-82164000D01*
X155135750Y-82164000D01*
X154977000Y-82322750D01*
X154973928Y-82537000D01*
X151873712Y-82537000D01*
X151873712Y-77507000D01*
X155071928Y-77507000D01*
X155075000Y-77946250D01*
X155233750Y-78105000D01*
X156083000Y-78105000D01*
X156083000Y-77030750D01*
X155924250Y-76872000D01*
X155710000Y-76868928D01*
X155585518Y-76881188D01*
X155465820Y-76917498D01*
X155355506Y-76976463D01*
X155258815Y-77055815D01*
X155179463Y-77152506D01*
X155120498Y-77262820D01*
X155084188Y-77382518D01*
X155071928Y-77507000D01*
X151873712Y-77507000D01*
X151873712Y-72225392D01*
X151868156Y-72168981D01*
X151868156Y-71442158D01*
X151871832Y-71404835D01*
X151868156Y-71367512D01*
X151868156Y-71367503D01*
X151857159Y-71255850D01*
X151813702Y-71112589D01*
X151743130Y-70980560D01*
X151648157Y-70864835D01*
X151619160Y-70841038D01*
X151044970Y-70266849D01*
X151021168Y-70237846D01*
X150905443Y-70142873D01*
X150773414Y-70072301D01*
X150630153Y-70028844D01*
X150525559Y-70018542D01*
X150480927Y-69973910D01*
X150311409Y-69860642D01*
X150123051Y-69782621D01*
X149923092Y-69742847D01*
X149719214Y-69742847D01*
X149519255Y-69782621D01*
X149330897Y-69860642D01*
X149161379Y-69973910D01*
X149114045Y-70021244D01*
X147679301Y-68586500D01*
X147711500Y-68424627D01*
X147711500Y-68147373D01*
X147657410Y-67875447D01*
X147551310Y-67619299D01*
X147397276Y-67388771D01*
X147201229Y-67192724D01*
X146970701Y-67038690D01*
X146964207Y-67036000D01*
X146970701Y-67033310D01*
X147201229Y-66879276D01*
X147397276Y-66683229D01*
X147551310Y-66452701D01*
X147657410Y-66196553D01*
X147711500Y-65924627D01*
X147711500Y-65647373D01*
X147657410Y-65375447D01*
X147551310Y-65119299D01*
X147397276Y-64888771D01*
X147201229Y-64692724D01*
X146970701Y-64538690D01*
X146714553Y-64432590D01*
X146442627Y-64378500D01*
X146165373Y-64378500D01*
X145893447Y-64432590D01*
X145637299Y-64538690D01*
X145406771Y-64692724D01*
X145210724Y-64888771D01*
X145056690Y-65119299D01*
X144950590Y-65375447D01*
X144896500Y-65647373D01*
X135915000Y-65647373D01*
X135915000Y-64410516D01*
X142079089Y-64410516D01*
X142269373Y-64755257D01*
X142692665Y-64974495D01*
X143150595Y-65106940D01*
X143625564Y-65147503D01*
X144099320Y-65094624D01*
X144553656Y-64950337D01*
X144918627Y-64755257D01*
X145108911Y-64410516D01*
X143594000Y-62895605D01*
X142079089Y-64410516D01*
X135915000Y-64410516D01*
X135915000Y-62747564D01*
X141162497Y-62747564D01*
X141215376Y-63221320D01*
X141359663Y-63675656D01*
X141554743Y-64040627D01*
X141899484Y-64230911D01*
X143414395Y-62716000D01*
X143773605Y-62716000D01*
X145288516Y-64230911D01*
X145633257Y-64040627D01*
X145852495Y-63617335D01*
X145984940Y-63159405D01*
X146025503Y-62684436D01*
X145972624Y-62210680D01*
X145828337Y-61756344D01*
X145633257Y-61391373D01*
X145288516Y-61201089D01*
X143773605Y-62716000D01*
X143414395Y-62716000D01*
X141899484Y-61201089D01*
X141554743Y-61391373D01*
X141335505Y-61814665D01*
X141203060Y-62272595D01*
X141162497Y-62747564D01*
X135915000Y-62747564D01*
X135915000Y-61021484D01*
X142079089Y-61021484D01*
X143594000Y-62536395D01*
X145108911Y-61021484D01*
X144918627Y-60676743D01*
X144495335Y-60457505D01*
X144362204Y-60419000D01*
X156099428Y-60419000D01*
X156111688Y-60543482D01*
X156147998Y-60663180D01*
X156206963Y-60773494D01*
X156286315Y-60870185D01*
X156383006Y-60949537D01*
X156493320Y-61008502D01*
X156613018Y-61044812D01*
X156737500Y-61057072D01*
X156889250Y-61054000D01*
X157048000Y-60895250D01*
X157048000Y-60071000D01*
X156261250Y-60071000D01*
X156102500Y-60229750D01*
X156099428Y-60419000D01*
X144362204Y-60419000D01*
X144037405Y-60325060D01*
X143562436Y-60284497D01*
X143088680Y-60337376D01*
X142634344Y-60481663D01*
X142269373Y-60676743D01*
X142079089Y-61021484D01*
X135915000Y-61021484D01*
X135915000Y-59469000D01*
X156099428Y-59469000D01*
X156102500Y-59658250D01*
X156261250Y-59817000D01*
X157048000Y-59817000D01*
X157048000Y-58992750D01*
X156889250Y-58834000D01*
X156737500Y-58830928D01*
X156613018Y-58843188D01*
X156493320Y-58879498D01*
X156383006Y-58938463D01*
X156286315Y-59017815D01*
X156206963Y-59114506D01*
X156147998Y-59224820D01*
X156111688Y-59344518D01*
X156099428Y-59469000D01*
X135915000Y-59469000D01*
X135915000Y-57082374D01*
X137153231Y-57082374D01*
X137453411Y-57520828D01*
X138032356Y-57831296D01*
X138660746Y-58022852D01*
X139314431Y-58088134D01*
X139968293Y-58024634D01*
X140597203Y-57834792D01*
X141176992Y-57525904D01*
X141184589Y-57520828D01*
X141484769Y-57082374D01*
X139319000Y-54916605D01*
X137153231Y-57082374D01*
X135915000Y-57082374D01*
X135915000Y-54769279D01*
X135918612Y-54732431D01*
X135967866Y-54732431D01*
X136031366Y-55386293D01*
X136221208Y-56015203D01*
X136530096Y-56594992D01*
X136535172Y-56602589D01*
X136973626Y-56902769D01*
X139139395Y-54737000D01*
X139498605Y-54737000D01*
X141664374Y-56902769D01*
X142102828Y-56602589D01*
X142413296Y-56023644D01*
X142604852Y-55395254D01*
X142670134Y-54741569D01*
X142606634Y-54087707D01*
X142416792Y-53458797D01*
X142107904Y-52879008D01*
X142102828Y-52871411D01*
X141664374Y-52571231D01*
X139498605Y-54737000D01*
X139139395Y-54737000D01*
X136973626Y-52571231D01*
X136535172Y-52871411D01*
X136224704Y-53450356D01*
X136033148Y-54078746D01*
X135967866Y-54732431D01*
X135918612Y-54732431D01*
X135982933Y-54076442D01*
X136174772Y-53441040D01*
X136486373Y-52855006D01*
X136864297Y-52391626D01*
X137153231Y-52391626D01*
X139319000Y-54557395D01*
X141484769Y-52391626D01*
X141184589Y-51953172D01*
X140605644Y-51642704D01*
X139977254Y-51451148D01*
X139323569Y-51385866D01*
X138669707Y-51449366D01*
X138040797Y-51639208D01*
X137461008Y-51948096D01*
X137453411Y-51953172D01*
X137153231Y-52391626D01*
X136864297Y-52391626D01*
X136905870Y-52340653D01*
X137417275Y-51917581D01*
X138001123Y-51601896D01*
X138635170Y-51405625D01*
X139326155Y-51333000D01*
X159307704Y-51333000D01*
X159234548Y-51406156D01*
%TA.AperFunction,Conductor*%
D26*
G36*
X159234548Y-51406156D02*
G01*
X159349529Y-51521137D01*
X159052394Y-51655480D01*
X158879551Y-51999614D01*
X158777166Y-52370857D01*
X158749175Y-52754940D01*
X158796652Y-53137104D01*
X158917773Y-53502662D01*
X159052394Y-53754520D01*
X159349531Y-53888864D01*
X160533395Y-52705000D01*
X160519253Y-52690858D01*
X160698858Y-52511253D01*
X160713000Y-52525395D01*
X160727143Y-52511253D01*
X160906748Y-52690858D01*
X160892605Y-52705000D01*
X162076469Y-53888864D01*
X162373606Y-53754520D01*
X162546449Y-53410386D01*
X162648834Y-53039143D01*
X162676825Y-52655060D01*
X162629348Y-52272896D01*
X162508227Y-51907338D01*
X162373606Y-51655480D01*
X162076471Y-51521137D01*
X162191452Y-51406156D01*
X162118296Y-51333000D01*
X166557704Y-51333000D01*
X166484548Y-51406156D01*
X166599529Y-51521137D01*
X166302394Y-51655480D01*
X166129551Y-51999614D01*
X166027166Y-52370857D01*
X165999175Y-52754940D01*
X166046652Y-53137104D01*
X166167773Y-53502662D01*
X166302394Y-53754520D01*
X166599531Y-53888864D01*
X167783395Y-52705000D01*
X167769253Y-52690858D01*
X167948858Y-52511253D01*
X167963000Y-52525395D01*
X167977143Y-52511253D01*
X168156748Y-52690858D01*
X168142605Y-52705000D01*
X169326469Y-53888864D01*
X169623606Y-53754520D01*
X169796449Y-53410386D01*
X169898834Y-53039143D01*
X169926825Y-52655060D01*
X169894099Y-52391626D01*
X187191231Y-52391626D01*
X189357000Y-54557395D01*
X191522769Y-52391626D01*
X191222589Y-51953172D01*
X190643644Y-51642704D01*
X190015254Y-51451148D01*
X189361569Y-51385866D01*
X188707707Y-51449366D01*
X188078797Y-51639208D01*
X187499008Y-51948096D01*
X187491411Y-51953172D01*
X187191231Y-52391626D01*
X169894099Y-52391626D01*
X169879348Y-52272896D01*
X169758227Y-51907338D01*
X169623606Y-51655480D01*
X169326471Y-51521137D01*
X169441452Y-51406156D01*
X169368296Y-51333000D01*
X189324721Y-51333000D01*
X190017558Y-51400933D01*
X190652960Y-51592772D01*
X191238994Y-51904373D01*
X191753347Y-52323870D01*
X192176419Y-52835275D01*
X192492104Y-53419123D01*
X192688375Y-54053170D01*
X192761000Y-54744155D01*
X192761001Y-104742712D01*
X192693067Y-105435558D01*
X192501228Y-106070958D01*
X192189630Y-106656991D01*
X191770130Y-107171347D01*
X191258725Y-107594419D01*
X190674878Y-107910103D01*
X190040830Y-108106375D01*
X189349845Y-108179000D01*
X139351278Y-108179000D01*
X138658442Y-108111067D01*
X138023042Y-107919228D01*
X137437009Y-107607630D01*
X136922653Y-107188130D01*
X136866601Y-107120374D01*
X137153231Y-107120374D01*
X137453411Y-107558828D01*
X138032356Y-107869296D01*
X138660746Y-108060852D01*
X139314431Y-108126134D01*
X139968293Y-108062634D01*
X140597203Y-107872792D01*
X141176992Y-107563904D01*
X141184589Y-107558828D01*
X141484769Y-107120374D01*
X187191231Y-107120374D01*
X187491411Y-107558828D01*
X188070356Y-107869296D01*
X188698746Y-108060852D01*
X189352431Y-108126134D01*
X190006293Y-108062634D01*
X190635203Y-107872792D01*
X191214992Y-107563904D01*
X191222589Y-107558828D01*
X191522769Y-107120374D01*
X189357000Y-104954605D01*
X187191231Y-107120374D01*
X141484769Y-107120374D01*
X139319000Y-104954605D01*
X137153231Y-107120374D01*
X136866601Y-107120374D01*
X136499581Y-106676725D01*
X136183897Y-106092878D01*
X135987625Y-105458830D01*
X135915272Y-104770431D01*
X135967866Y-104770431D01*
X136031366Y-105424293D01*
X136221208Y-106053203D01*
X136530096Y-106632992D01*
X136535172Y-106640589D01*
X136973626Y-106940769D01*
X139139395Y-104775000D01*
X139498605Y-104775000D01*
X141664374Y-106940769D01*
X142102828Y-106640589D01*
X142413296Y-106061644D01*
X142604852Y-105433254D01*
X142670134Y-104779569D01*
X142669247Y-104770431D01*
X186005866Y-104770431D01*
X186069366Y-105424293D01*
X186259208Y-106053203D01*
X186568096Y-106632992D01*
X186573172Y-106640589D01*
X187011626Y-106940769D01*
X189177395Y-104775000D01*
X189536605Y-104775000D01*
X191702374Y-106940769D01*
X192140828Y-106640589D01*
X192451296Y-106061644D01*
X192642852Y-105433254D01*
X192708134Y-104779569D01*
X192644634Y-104125707D01*
X192454792Y-103496797D01*
X192145904Y-102917008D01*
X192140828Y-102909411D01*
X191702374Y-102609231D01*
X189536605Y-104775000D01*
X189177395Y-104775000D01*
X187011626Y-102609231D01*
X186573172Y-102909411D01*
X186262704Y-103488356D01*
X186071148Y-104116746D01*
X186005866Y-104770431D01*
X142669247Y-104770431D01*
X142606634Y-104125707D01*
X142416792Y-103496797D01*
X142107904Y-102917008D01*
X142102828Y-102909411D01*
X141664374Y-102609231D01*
X139498605Y-104775000D01*
X139139395Y-104775000D01*
X136973626Y-102609231D01*
X136535172Y-102909411D01*
X136224704Y-103488356D01*
X136033148Y-104116746D01*
X135967866Y-104770431D01*
X135915272Y-104770431D01*
X135915000Y-104767845D01*
X135915000Y-102429626D01*
X137153231Y-102429626D01*
X139319000Y-104595395D01*
X141484769Y-102429626D01*
X187191231Y-102429626D01*
X189357000Y-104595395D01*
X191522769Y-102429626D01*
X191222589Y-101991172D01*
X190643644Y-101680704D01*
X190015254Y-101489148D01*
X189361569Y-101423866D01*
X188707707Y-101487366D01*
X188078797Y-101677208D01*
X187499008Y-101986096D01*
X187491411Y-101991172D01*
X187191231Y-102429626D01*
X141484769Y-102429626D01*
X141184589Y-101991172D01*
X140605644Y-101680704D01*
X139977254Y-101489148D01*
X139323569Y-101423866D01*
X138669707Y-101487366D01*
X138040797Y-101677208D01*
X137461008Y-101986096D01*
X137453411Y-101991172D01*
X137153231Y-102429626D01*
X135915000Y-102429626D01*
X135915000Y-98505516D01*
X142079089Y-98505516D01*
X142269373Y-98850257D01*
X142692665Y-99069495D01*
X143150595Y-99201940D01*
X143625564Y-99242503D01*
X144099320Y-99189624D01*
X144553656Y-99045337D01*
X144918627Y-98850257D01*
X145108911Y-98505516D01*
X145093911Y-98490516D01*
X183567089Y-98490516D01*
X183757373Y-98835257D01*
X184180665Y-99054495D01*
X184638595Y-99186940D01*
X185113564Y-99227503D01*
X185587320Y-99174624D01*
X186041656Y-99030337D01*
X186406627Y-98835257D01*
X186596911Y-98490516D01*
X185082000Y-96975605D01*
X183567089Y-98490516D01*
X145093911Y-98490516D01*
X143594000Y-96990605D01*
X142079089Y-98505516D01*
X135915000Y-98505516D01*
X135915000Y-96842564D01*
X141162497Y-96842564D01*
X141215376Y-97316320D01*
X141359663Y-97770656D01*
X141554743Y-98135627D01*
X141899484Y-98325911D01*
X143414395Y-96811000D01*
X143773605Y-96811000D01*
X145288516Y-98325911D01*
X145633257Y-98135627D01*
X145852495Y-97712335D01*
X145984940Y-97254405D01*
X146021392Y-96827564D01*
X182650497Y-96827564D01*
X182703376Y-97301320D01*
X182847663Y-97755656D01*
X183042743Y-98120627D01*
X183387484Y-98310911D01*
X184902395Y-96796000D01*
X185261605Y-96796000D01*
X186776516Y-98310911D01*
X187121257Y-98120627D01*
X187340495Y-97697335D01*
X187472940Y-97239405D01*
X187513503Y-96764436D01*
X187460624Y-96290680D01*
X187316337Y-95836344D01*
X187121257Y-95471373D01*
X186776516Y-95281089D01*
X185261605Y-96796000D01*
X184902395Y-96796000D01*
X183387484Y-95281089D01*
X183042743Y-95471373D01*
X182823505Y-95894665D01*
X182691060Y-96352595D01*
X182650497Y-96827564D01*
X146021392Y-96827564D01*
X146025503Y-96779436D01*
X145972624Y-96305680D01*
X145828337Y-95851344D01*
X145633257Y-95486373D01*
X145288516Y-95296089D01*
X143773605Y-96811000D01*
X143414395Y-96811000D01*
X141899484Y-95296089D01*
X141554743Y-95486373D01*
X141335505Y-95909665D01*
X141203060Y-96367595D01*
X141162497Y-96842564D01*
X135915000Y-96842564D01*
X135915000Y-95116484D01*
X142079089Y-95116484D01*
X143594000Y-96631395D01*
X145108911Y-95116484D01*
X144918627Y-94771743D01*
X144807264Y-94714064D01*
X145510541Y-94714064D01*
X145578793Y-94955227D01*
X145829611Y-95073377D01*
X146098660Y-95140324D01*
X146375600Y-95153496D01*
X146649788Y-95112387D01*
X146910688Y-95018576D01*
X147029207Y-94955227D01*
X147097459Y-94714064D01*
X146304000Y-93920605D01*
X145510541Y-94714064D01*
X144807264Y-94714064D01*
X144495335Y-94552505D01*
X144037405Y-94420060D01*
X143562436Y-94379497D01*
X143088680Y-94432376D01*
X142634344Y-94576663D01*
X142269373Y-94771743D01*
X142079089Y-95116484D01*
X135915000Y-95116484D01*
X135915000Y-93812600D01*
X144891504Y-93812600D01*
X144932613Y-94086788D01*
X145026424Y-94347688D01*
X145089773Y-94466207D01*
X145330936Y-94534459D01*
X146124395Y-93741000D01*
X146483605Y-93741000D01*
X147277064Y-94534459D01*
X147518227Y-94466207D01*
X147636377Y-94215389D01*
X147703324Y-93946340D01*
X147716496Y-93669400D01*
X147675387Y-93395212D01*
X147581576Y-93134312D01*
X147518227Y-93015793D01*
X147277064Y-92947541D01*
X146483605Y-93741000D01*
X146124395Y-93741000D01*
X145330936Y-92947541D01*
X145089773Y-93015793D01*
X144971623Y-93266611D01*
X144904676Y-93535660D01*
X144891504Y-93812600D01*
X135915000Y-93812600D01*
X135915000Y-85365516D01*
X142079089Y-85365516D01*
X142269373Y-85710257D01*
X142692665Y-85929495D01*
X143150595Y-86061940D01*
X143625564Y-86102503D01*
X144099320Y-86049624D01*
X144553656Y-85905337D01*
X144918627Y-85710257D01*
X145108911Y-85365516D01*
X143594000Y-83850605D01*
X142079089Y-85365516D01*
X135915000Y-85365516D01*
X135915000Y-83702564D01*
X141162497Y-83702564D01*
X141215376Y-84176320D01*
X141359663Y-84630656D01*
X141554743Y-84995627D01*
X141899484Y-85185911D01*
X143414395Y-83671000D01*
X143773605Y-83671000D01*
X145288516Y-85185911D01*
X145633257Y-84995627D01*
X145852495Y-84572335D01*
X145984940Y-84114405D01*
X146025503Y-83639436D01*
X145972624Y-83165680D01*
X145828337Y-82711344D01*
X145633257Y-82346373D01*
X145288516Y-82156089D01*
X143773605Y-83671000D01*
X143414395Y-83671000D01*
X141899484Y-82156089D01*
X141554743Y-82346373D01*
X141335505Y-82769665D01*
X141203060Y-83227595D01*
X141162497Y-83702564D01*
X135915000Y-83702564D01*
X135915000Y-81976484D01*
X142079089Y-81976484D01*
X143594000Y-83491395D01*
X145108911Y-81976484D01*
X144918627Y-81631743D01*
X144495335Y-81412505D01*
X144037405Y-81280060D01*
X143562436Y-81239497D01*
X143088680Y-81292376D01*
X142634344Y-81436663D01*
X142269373Y-81631743D01*
X142079089Y-81976484D01*
X135915000Y-81976484D01*
X135915000Y-77550516D01*
X142079089Y-77550516D01*
X142269373Y-77895257D01*
X142692665Y-78114495D01*
X143150595Y-78246940D01*
X143625564Y-78287503D01*
X144099320Y-78234624D01*
X144553656Y-78090337D01*
X144918627Y-77895257D01*
X145108911Y-77550516D01*
X143594000Y-76035605D01*
X142079089Y-77550516D01*
X135915000Y-77550516D01*
X135915000Y-75887564D01*
X141162497Y-75887564D01*
X141215376Y-76361320D01*
X141359663Y-76815656D01*
X141554743Y-77180627D01*
X141899484Y-77370911D01*
X143414395Y-75856000D01*
X143773605Y-75856000D01*
X145288516Y-77370911D01*
X145633257Y-77180627D01*
X145852495Y-76757335D01*
X145984940Y-76299405D01*
X146025503Y-75824436D01*
X145972624Y-75350680D01*
X145828337Y-74896344D01*
X145633257Y-74531373D01*
X145288516Y-74341089D01*
X143773605Y-75856000D01*
X143414395Y-75856000D01*
X141899484Y-74341089D01*
X141554743Y-74531373D01*
X141335505Y-74954665D01*
X141203060Y-75412595D01*
X141162497Y-75887564D01*
X135915000Y-75887564D01*
X135915000Y-74161484D01*
X142079089Y-74161484D01*
X143594000Y-75676395D01*
X145108911Y-74161484D01*
X144918627Y-73816743D01*
X144807264Y-73759064D01*
X145510541Y-73759064D01*
X145578793Y-74000227D01*
X145829611Y-74118377D01*
X146098660Y-74185324D01*
X146375600Y-74198496D01*
X146649788Y-74157387D01*
X146910688Y-74063576D01*
X147029207Y-74000227D01*
X147097459Y-73759064D01*
X146304000Y-72965605D01*
X145510541Y-73759064D01*
X144807264Y-73759064D01*
X144495335Y-73597505D01*
X144037405Y-73465060D01*
X143562436Y-73424497D01*
X143088680Y-73477376D01*
X142634344Y-73621663D01*
X142269373Y-73816743D01*
X142079089Y-74161484D01*
X135915000Y-74161484D01*
X135915000Y-72857600D01*
X144891504Y-72857600D01*
X144932613Y-73131788D01*
X145026424Y-73392688D01*
X145089773Y-73511207D01*
X145330936Y-73579459D01*
X146124395Y-72786000D01*
X146483605Y-72786000D01*
X147277064Y-73579459D01*
X147518227Y-73511207D01*
X147636377Y-73260389D01*
X147703324Y-72991340D01*
X147716496Y-72714400D01*
X147675387Y-72440212D01*
X147581576Y-72179312D01*
X147518227Y-72060793D01*
X147277064Y-71992541D01*
X146483605Y-72786000D01*
X146124395Y-72786000D01*
X145330936Y-71992541D01*
X145089773Y-72060793D01*
X144971623Y-72311611D01*
X144904676Y-72580660D01*
X144891504Y-72857600D01*
X135915000Y-72857600D01*
X135915000Y-65647373D01*
X144896500Y-65647373D01*
X144896500Y-65924627D01*
X144950590Y-66196553D01*
X145056690Y-66452701D01*
X145210724Y-66683229D01*
X145406771Y-66879276D01*
X145637299Y-67033310D01*
X145643793Y-67036000D01*
X145637299Y-67038690D01*
X145406771Y-67192724D01*
X145210724Y-67388771D01*
X145056690Y-67619299D01*
X144950590Y-67875447D01*
X144896500Y-68147373D01*
X144896500Y-68424627D01*
X144950590Y-68696553D01*
X145056690Y-68952701D01*
X145210724Y-69183229D01*
X145313495Y-69286000D01*
X145210724Y-69388771D01*
X145056690Y-69619299D01*
X144950590Y-69875447D01*
X144896500Y-70147373D01*
X144896500Y-70424627D01*
X144950590Y-70696553D01*
X145056690Y-70952701D01*
X145210724Y-71183229D01*
X145406771Y-71379276D01*
X145637299Y-71533310D01*
X145644879Y-71536450D01*
X145578793Y-71571773D01*
X145510541Y-71812936D01*
X146304000Y-72606395D01*
X147097459Y-71812936D01*
X147029207Y-71571773D01*
X146958385Y-71538412D01*
X146970701Y-71533310D01*
X147201229Y-71379276D01*
X147397276Y-71183229D01*
X147551310Y-70952701D01*
X147652238Y-70709039D01*
X149051364Y-72108166D01*
X149075163Y-72137165D01*
X149104161Y-72160963D01*
X149190887Y-72232138D01*
X149318468Y-72300332D01*
X149322917Y-72302710D01*
X149466178Y-72346167D01*
X149577831Y-72357164D01*
X149577840Y-72357164D01*
X149615163Y-72360840D01*
X149652486Y-72357164D01*
X149768363Y-72357164D01*
X149878289Y-72467091D01*
X149878288Y-86672559D01*
X149874584Y-86710164D01*
X149878288Y-86747769D01*
X149878288Y-86747771D01*
X149889365Y-86860238D01*
X149933140Y-87004546D01*
X149950596Y-87037204D01*
X150004228Y-87137542D01*
X150020568Y-87157452D01*
X150099895Y-87254113D01*
X150129116Y-87278094D01*
X154148915Y-91297895D01*
X154172887Y-91327105D01*
X154202097Y-91351077D01*
X154202099Y-91351079D01*
X154289458Y-91422772D01*
X154422452Y-91493860D01*
X154566761Y-91537635D01*
X154716836Y-91552416D01*
X154754444Y-91548712D01*
X162364559Y-91548712D01*
X162402164Y-91552416D01*
X162439769Y-91548712D01*
X162439772Y-91548712D01*
X162552239Y-91537635D01*
X162696547Y-91493860D01*
X162829542Y-91422772D01*
X162946113Y-91327105D01*
X162970094Y-91297885D01*
X164102289Y-90165691D01*
X164102289Y-91407732D01*
X163797733Y-91712288D01*
X151797267Y-91712288D01*
X150449338Y-90364359D01*
X150485683Y-90181637D01*
X150485683Y-89977759D01*
X150445909Y-89777800D01*
X150367888Y-89589442D01*
X150254620Y-89419924D01*
X150110457Y-89275761D01*
X149940939Y-89162493D01*
X149752581Y-89084472D01*
X149552622Y-89044698D01*
X149348744Y-89044698D01*
X149148785Y-89084472D01*
X148960427Y-89162493D01*
X148790909Y-89275761D01*
X148743576Y-89323094D01*
X148391804Y-88971323D01*
X148368001Y-88942319D01*
X148252276Y-88847346D01*
X148120247Y-88776774D01*
X147976986Y-88733317D01*
X147865333Y-88722320D01*
X147865322Y-88722320D01*
X147828000Y-88718644D01*
X147790678Y-88722320D01*
X147612622Y-88722320D01*
X147551310Y-88574299D01*
X147397276Y-88343771D01*
X147201229Y-88147724D01*
X146970701Y-87993690D01*
X146964207Y-87991000D01*
X146970701Y-87988310D01*
X147201229Y-87834276D01*
X147397276Y-87638229D01*
X147551310Y-87407701D01*
X147657410Y-87151553D01*
X147711500Y-86879627D01*
X147711500Y-86602373D01*
X147657410Y-86330447D01*
X147551310Y-86074299D01*
X147397276Y-85843771D01*
X147201229Y-85647724D01*
X146970701Y-85493690D01*
X146714553Y-85387590D01*
X146442627Y-85333500D01*
X146165373Y-85333500D01*
X145893447Y-85387590D01*
X145637299Y-85493690D01*
X145406771Y-85647724D01*
X145210724Y-85843771D01*
X145056690Y-86074299D01*
X144950590Y-86330447D01*
X144896500Y-86602373D01*
X144896500Y-86879627D01*
X144950590Y-87151553D01*
X145056690Y-87407701D01*
X145210724Y-87638229D01*
X145406771Y-87834276D01*
X145637299Y-87988310D01*
X145643793Y-87991000D01*
X145637299Y-87993690D01*
X145406771Y-88147724D01*
X145210724Y-88343771D01*
X145056690Y-88574299D01*
X144950590Y-88830447D01*
X144896500Y-89102373D01*
X144896500Y-89379627D01*
X144950590Y-89651553D01*
X145056690Y-89907701D01*
X145210724Y-90138229D01*
X145313495Y-90241000D01*
X145210724Y-90343771D01*
X145056690Y-90574299D01*
X144950590Y-90830447D01*
X144896500Y-91102373D01*
X144896500Y-91379627D01*
X144950590Y-91651553D01*
X145056690Y-91907701D01*
X145210724Y-92138229D01*
X145406771Y-92334276D01*
X145637299Y-92488310D01*
X145644879Y-92491450D01*
X145578793Y-92526773D01*
X145510541Y-92767936D01*
X146304000Y-93561395D01*
X147097459Y-92767936D01*
X147029207Y-92526773D01*
X146958385Y-92493412D01*
X146970701Y-92488310D01*
X147201229Y-92334276D01*
X147397276Y-92138229D01*
X147551310Y-91907701D01*
X147657410Y-91651553D01*
X147711500Y-91379627D01*
X147711500Y-91102373D01*
X147657410Y-90830447D01*
X147551310Y-90574299D01*
X147397276Y-90343771D01*
X147295825Y-90242320D01*
X147513199Y-90242320D01*
X148778957Y-91508079D01*
X148814914Y-91551892D01*
X150719911Y-93456890D01*
X150743887Y-93486105D01*
X150804270Y-93535660D01*
X150860457Y-93581772D01*
X150931545Y-93619769D01*
X150993453Y-93652860D01*
X151137761Y-93696635D01*
X151250228Y-93707712D01*
X151250231Y-93707712D01*
X151287836Y-93711416D01*
X151325441Y-93707712D01*
X164269559Y-93707712D01*
X164307164Y-93711416D01*
X164344769Y-93707712D01*
X164344772Y-93707712D01*
X164457239Y-93696635D01*
X164601547Y-93652860D01*
X164734542Y-93581772D01*
X164851113Y-93486105D01*
X164875093Y-93456885D01*
X165846895Y-92485085D01*
X165876105Y-92461113D01*
X165919183Y-92408623D01*
X165971772Y-92344542D01*
X166042860Y-92211548D01*
X166060858Y-92152214D01*
X166086635Y-92067239D01*
X166097712Y-91954772D01*
X166097712Y-91954769D01*
X166101416Y-91917164D01*
X166097712Y-91879559D01*
X166097712Y-85745644D01*
X166119737Y-85763091D01*
X166231055Y-85820138D01*
X166351363Y-85854371D01*
X166476039Y-85864477D01*
X166779250Y-85861500D01*
X166938000Y-85702750D01*
X166938000Y-85229572D01*
X167192000Y-85229572D01*
X167192000Y-85702750D01*
X167350750Y-85861500D01*
X167653961Y-85864477D01*
X167778637Y-85854371D01*
X167898945Y-85820138D01*
X168010263Y-85763091D01*
X168108312Y-85685423D01*
X168189325Y-85590119D01*
X168250189Y-85480841D01*
X168288564Y-85361789D01*
X168300000Y-85258250D01*
X168218250Y-85176500D01*
X169029343Y-85176500D01*
X169560771Y-85707928D01*
X169099000Y-85707928D01*
X168974518Y-85720188D01*
X168854820Y-85756498D01*
X168744506Y-85815463D01*
X168647815Y-85894815D01*
X168568463Y-85991506D01*
X168509498Y-86101820D01*
X168473188Y-86221518D01*
X168460928Y-86346000D01*
X168460928Y-87546000D01*
X168473188Y-87670482D01*
X168509498Y-87790180D01*
X168512609Y-87796000D01*
X168509498Y-87801820D01*
X168473188Y-87921518D01*
X168460928Y-88046000D01*
X168460928Y-89246000D01*
X168473188Y-89370482D01*
X168509498Y-89490180D01*
X168568463Y-89600494D01*
X168647815Y-89697185D01*
X168744506Y-89776537D01*
X168854820Y-89835502D01*
X168974518Y-89871812D01*
X169099000Y-89884072D01*
X170499000Y-89884072D01*
X170623482Y-89871812D01*
X170743180Y-89835502D01*
X170853494Y-89776537D01*
X170899000Y-89739191D01*
X170944506Y-89776537D01*
X171054820Y-89835502D01*
X171174518Y-89871812D01*
X171299000Y-89884072D01*
X172699000Y-89884072D01*
X172823482Y-89871812D01*
X172943180Y-89835502D01*
X173053494Y-89776537D01*
X173150185Y-89697185D01*
X173229537Y-89600494D01*
X173288502Y-89490180D01*
X173324812Y-89370482D01*
X173337072Y-89246000D01*
X173337072Y-88046000D01*
X173324812Y-87921518D01*
X173288502Y-87801820D01*
X173285391Y-87796000D01*
X173288502Y-87790180D01*
X173324812Y-87670482D01*
X173337072Y-87546000D01*
X173337072Y-86346000D01*
X173324812Y-86221518D01*
X173288502Y-86101820D01*
X173229537Y-85991506D01*
X173150185Y-85894815D01*
X173053494Y-85815463D01*
X172943180Y-85756498D01*
X172823482Y-85720188D01*
X172723590Y-85710350D01*
X172654862Y-85581767D01*
X172556764Y-85462236D01*
X172526817Y-85437659D01*
X170890869Y-83801712D01*
X173865054Y-83801712D01*
X180185580Y-90122240D01*
X180185591Y-90122249D01*
X180995395Y-90932054D01*
X180964500Y-91087373D01*
X180964500Y-91364627D01*
X181018590Y-91636553D01*
X181124690Y-91892701D01*
X181278724Y-92123229D01*
X181474771Y-92319276D01*
X181705299Y-92473310D01*
X181711793Y-92476000D01*
X181705299Y-92478690D01*
X181474771Y-92632724D01*
X181278724Y-92828771D01*
X181124690Y-93059299D01*
X181018590Y-93315447D01*
X180964500Y-93587373D01*
X180964500Y-93864627D01*
X181018590Y-94136553D01*
X181124690Y-94392701D01*
X181278724Y-94623229D01*
X181474771Y-94819276D01*
X181705299Y-94973310D01*
X181961447Y-95079410D01*
X182233373Y-95133500D01*
X182510627Y-95133500D01*
X182671580Y-95101484D01*
X183567089Y-95101484D01*
X185082000Y-96616395D01*
X186596911Y-95101484D01*
X186406627Y-94756743D01*
X185983335Y-94537505D01*
X185525405Y-94405060D01*
X185050436Y-94364497D01*
X184576680Y-94417376D01*
X184122344Y-94561663D01*
X183757373Y-94756743D01*
X183567089Y-95101484D01*
X182671580Y-95101484D01*
X182782553Y-95079410D01*
X183038701Y-94973310D01*
X183269229Y-94819276D01*
X183465276Y-94623229D01*
X183619310Y-94392701D01*
X183725410Y-94136553D01*
X183779500Y-93864627D01*
X183779500Y-93587373D01*
X183725410Y-93315447D01*
X183619310Y-93059299D01*
X183465276Y-92828771D01*
X183269229Y-92632724D01*
X183038701Y-92478690D01*
X183032207Y-92476000D01*
X183038701Y-92473310D01*
X183269229Y-92319276D01*
X183465276Y-92123229D01*
X183619310Y-91892701D01*
X183725410Y-91636553D01*
X183779500Y-91364627D01*
X183779500Y-91087373D01*
X183725410Y-90815447D01*
X183619310Y-90559299D01*
X183465276Y-90328771D01*
X183362505Y-90226000D01*
X183465276Y-90123229D01*
X183619310Y-89892701D01*
X183725410Y-89636553D01*
X183779500Y-89364627D01*
X183779500Y-89087373D01*
X183725410Y-88815447D01*
X183619310Y-88559299D01*
X183465276Y-88328771D01*
X183269229Y-88132724D01*
X183038701Y-87978690D01*
X183031121Y-87975550D01*
X183097207Y-87940227D01*
X183165459Y-87699064D01*
X182372000Y-86905605D01*
X181578541Y-87699064D01*
X181646793Y-87940227D01*
X181717615Y-87973588D01*
X181705299Y-87978690D01*
X181474771Y-88132724D01*
X181278724Y-88328771D01*
X181252826Y-88367530D01*
X179682896Y-86797600D01*
X180959504Y-86797600D01*
X181000613Y-87071788D01*
X181094424Y-87332688D01*
X181157773Y-87451207D01*
X181398936Y-87519459D01*
X182192395Y-86726000D01*
X182551605Y-86726000D01*
X183345064Y-87519459D01*
X183586227Y-87451207D01*
X183704377Y-87200389D01*
X183771324Y-86931340D01*
X183784496Y-86654400D01*
X183743387Y-86380212D01*
X183649576Y-86119312D01*
X183586227Y-86000793D01*
X183345064Y-85932541D01*
X182551605Y-86726000D01*
X182192395Y-86726000D01*
X181398936Y-85932541D01*
X181157773Y-86000793D01*
X181039623Y-86251611D01*
X180972676Y-86520660D01*
X180959504Y-86797600D01*
X179682896Y-86797600D01*
X178638232Y-85752936D01*
X181578541Y-85752936D01*
X182372000Y-86546395D01*
X183165459Y-85752936D01*
X183097207Y-85511773D01*
X182846389Y-85393623D01*
X182673150Y-85350516D01*
X183567089Y-85350516D01*
X183757373Y-85695257D01*
X184180665Y-85914495D01*
X184638595Y-86046940D01*
X185113564Y-86087503D01*
X185587320Y-86034624D01*
X186041656Y-85890337D01*
X186406627Y-85695257D01*
X186596911Y-85350516D01*
X185082000Y-83835605D01*
X183567089Y-85350516D01*
X182673150Y-85350516D01*
X182577340Y-85326676D01*
X182300400Y-85313504D01*
X182026212Y-85354613D01*
X181765312Y-85448424D01*
X181646793Y-85511773D01*
X181578541Y-85752936D01*
X178638232Y-85752936D01*
X176572860Y-83687564D01*
X182650497Y-83687564D01*
X182703376Y-84161320D01*
X182847663Y-84615656D01*
X183042743Y-84980627D01*
X183387484Y-85170911D01*
X184902395Y-83656000D01*
X185261605Y-83656000D01*
X186776516Y-85170911D01*
X187121257Y-84980627D01*
X187340495Y-84557335D01*
X187472940Y-84099405D01*
X187513503Y-83624436D01*
X187460624Y-83150680D01*
X187316337Y-82696344D01*
X187121257Y-82331373D01*
X186776516Y-82141089D01*
X185261605Y-83656000D01*
X184902395Y-83656000D01*
X183387484Y-82141089D01*
X183042743Y-82331373D01*
X182823505Y-82754665D01*
X182691060Y-83212595D01*
X182650497Y-83687564D01*
X176572860Y-83687564D01*
X175037137Y-82151842D01*
X175227495Y-81961484D01*
X183567089Y-81961484D01*
X185082000Y-83476395D01*
X186596911Y-81961484D01*
X186406627Y-81616743D01*
X185983335Y-81397505D01*
X185525405Y-81265060D01*
X185050436Y-81224497D01*
X184576680Y-81277376D01*
X184122344Y-81421663D01*
X183757373Y-81616743D01*
X183567089Y-81961484D01*
X175227495Y-81961484D01*
X179653463Y-77535516D01*
X183567089Y-77535516D01*
X183757373Y-77880257D01*
X184180665Y-78099495D01*
X184638595Y-78231940D01*
X185113564Y-78272503D01*
X185587320Y-78219624D01*
X186041656Y-78075337D01*
X186406627Y-77880257D01*
X186596911Y-77535516D01*
X185082000Y-76020605D01*
X183567089Y-77535516D01*
X179653463Y-77535516D01*
X179943896Y-77245084D01*
X179973105Y-77221113D01*
X179998820Y-77189780D01*
X180068772Y-77104542D01*
X180139860Y-76971548D01*
X180183635Y-76827239D01*
X180191179Y-76750639D01*
X180194712Y-76714772D01*
X180194712Y-76714771D01*
X180198416Y-76677164D01*
X180194712Y-76639556D01*
X180194712Y-75872564D01*
X182650497Y-75872564D01*
X182703376Y-76346320D01*
X182847663Y-76800656D01*
X183042743Y-77165627D01*
X183387484Y-77355911D01*
X184902395Y-75841000D01*
X185261605Y-75841000D01*
X186776516Y-77355911D01*
X187121257Y-77165627D01*
X187340495Y-76742335D01*
X187472940Y-76284405D01*
X187513503Y-75809436D01*
X187460624Y-75335680D01*
X187316337Y-74881344D01*
X187121257Y-74516373D01*
X186776516Y-74326089D01*
X185261605Y-75841000D01*
X184902395Y-75841000D01*
X183387484Y-74326089D01*
X183042743Y-74516373D01*
X182823505Y-74939665D01*
X182691060Y-75397595D01*
X182650497Y-75872564D01*
X180194712Y-75872564D01*
X180194712Y-72187583D01*
X181252826Y-71129470D01*
X181278724Y-71168229D01*
X181474771Y-71364276D01*
X181705299Y-71518310D01*
X181711793Y-71521000D01*
X181705299Y-71523690D01*
X181474771Y-71677724D01*
X181278724Y-71873771D01*
X181124690Y-72104299D01*
X181018590Y-72360447D01*
X180964500Y-72632373D01*
X180964500Y-72909627D01*
X181018590Y-73181553D01*
X181124690Y-73437701D01*
X181278724Y-73668229D01*
X181474771Y-73864276D01*
X181705299Y-74018310D01*
X181961447Y-74124410D01*
X182233373Y-74178500D01*
X182510627Y-74178500D01*
X182671580Y-74146484D01*
X183567089Y-74146484D01*
X185082000Y-75661395D01*
X186596911Y-74146484D01*
X186406627Y-73801743D01*
X185983335Y-73582505D01*
X185525405Y-73450060D01*
X185050436Y-73409497D01*
X184576680Y-73462376D01*
X184122344Y-73606663D01*
X183757373Y-73801743D01*
X183567089Y-74146484D01*
X182671580Y-74146484D01*
X182782553Y-74124410D01*
X183038701Y-74018310D01*
X183269229Y-73864276D01*
X183465276Y-73668229D01*
X183619310Y-73437701D01*
X183725410Y-73181553D01*
X183779500Y-72909627D01*
X183779500Y-72632373D01*
X183725410Y-72360447D01*
X183619310Y-72104299D01*
X183465276Y-71873771D01*
X183269229Y-71677724D01*
X183038701Y-71523690D01*
X183032207Y-71521000D01*
X183038701Y-71518310D01*
X183269229Y-71364276D01*
X183465276Y-71168229D01*
X183619310Y-70937701D01*
X183725410Y-70681553D01*
X183779500Y-70409627D01*
X183779500Y-70132373D01*
X183725410Y-69860447D01*
X183619310Y-69604299D01*
X183465276Y-69373771D01*
X183362505Y-69271000D01*
X183465276Y-69168229D01*
X183619310Y-68937701D01*
X183725410Y-68681553D01*
X183779500Y-68409627D01*
X183779500Y-68132373D01*
X183725410Y-67860447D01*
X183619310Y-67604299D01*
X183465276Y-67373771D01*
X183269229Y-67177724D01*
X183038701Y-67023690D01*
X183031121Y-67020550D01*
X183097207Y-66985227D01*
X183165459Y-66744064D01*
X182372000Y-65950605D01*
X181578541Y-66744064D01*
X181646793Y-66985227D01*
X181717615Y-67018588D01*
X181705299Y-67023690D01*
X181474771Y-67177724D01*
X181278724Y-67373771D01*
X181124690Y-67604299D01*
X181018590Y-67860447D01*
X180964500Y-68132373D01*
X180964500Y-68409627D01*
X180995395Y-68564946D01*
X180185586Y-69374756D01*
X180185581Y-69374760D01*
X178450111Y-71110231D01*
X178420896Y-71134207D01*
X178380665Y-71183229D01*
X178325228Y-71250778D01*
X178262837Y-71367504D01*
X178254141Y-71383773D01*
X178210740Y-71526850D01*
X178210366Y-71528082D01*
X178195584Y-71678156D01*
X178199289Y-71715771D01*
X178199288Y-76167733D01*
X173830734Y-80536288D01*
X168316430Y-80536288D01*
X168303072Y-80529148D01*
X168303072Y-80381500D01*
X168291500Y-80264000D01*
X168303072Y-80146500D01*
X168303072Y-79775000D01*
X168503939Y-79775000D01*
X168703898Y-79735226D01*
X168892256Y-79657205D01*
X169061774Y-79543937D01*
X169205937Y-79399774D01*
X169319205Y-79230256D01*
X169397226Y-79041898D01*
X169437000Y-78841939D01*
X169437000Y-78826500D01*
X169614107Y-78826500D01*
X169618382Y-78834497D01*
X169725716Y-78965284D01*
X169856503Y-79072618D01*
X170005717Y-79152375D01*
X170167623Y-79201488D01*
X170336000Y-79218072D01*
X170786000Y-79218072D01*
X170954377Y-79201488D01*
X171116283Y-79152375D01*
X171262351Y-79074300D01*
X171306506Y-79110537D01*
X171416820Y-79169502D01*
X171536518Y-79205812D01*
X171661000Y-79218072D01*
X171825250Y-79215000D01*
X171984000Y-79056250D01*
X171984000Y-78232000D01*
X172238000Y-78232000D01*
X172238000Y-79056250D01*
X172396750Y-79215000D01*
X172561000Y-79218072D01*
X172685482Y-79205812D01*
X172805180Y-79169502D01*
X172915494Y-79110537D01*
X173012185Y-79031185D01*
X173091537Y-78934494D01*
X173150502Y-78824180D01*
X173186812Y-78704482D01*
X173199072Y-78580000D01*
X173196000Y-78390750D01*
X173037250Y-78232000D01*
X172238000Y-78232000D01*
X171984000Y-78232000D01*
X171964000Y-78232000D01*
X171964000Y-77978000D01*
X171984000Y-77978000D01*
X171984000Y-77153750D01*
X171971000Y-77140750D01*
X171971000Y-76581000D01*
X172225000Y-76581000D01*
X172225000Y-77405250D01*
X172238000Y-77418250D01*
X172238000Y-77978000D01*
X173037250Y-77978000D01*
X173196000Y-77819250D01*
X173199072Y-77630000D01*
X173186812Y-77505518D01*
X173150502Y-77385820D01*
X173091537Y-77275506D01*
X173086250Y-77269064D01*
X173137502Y-77173180D01*
X173173812Y-77053482D01*
X173186072Y-76929000D01*
X173183000Y-76739750D01*
X173024250Y-76581000D01*
X172225000Y-76581000D01*
X171971000Y-76581000D01*
X171951000Y-76581000D01*
X171951000Y-76327000D01*
X171971000Y-76327000D01*
X171971000Y-75502750D01*
X172225000Y-75502750D01*
X172225000Y-76327000D01*
X173024250Y-76327000D01*
X173183000Y-76168250D01*
X173186072Y-75979000D01*
X173173812Y-75854518D01*
X173137502Y-75734820D01*
X173078537Y-75624506D01*
X172999185Y-75527815D01*
X172902494Y-75448463D01*
X172792180Y-75389498D01*
X172672482Y-75353188D01*
X172548000Y-75340928D01*
X172383750Y-75344000D01*
X172225000Y-75502750D01*
X171971000Y-75502750D01*
X171812250Y-75344000D01*
X171648000Y-75340928D01*
X171523518Y-75353188D01*
X171403820Y-75389498D01*
X171293506Y-75448463D01*
X171249351Y-75484700D01*
X171103283Y-75406625D01*
X170941377Y-75357512D01*
X170773000Y-75340928D01*
X170323000Y-75340928D01*
X170154623Y-75357512D01*
X169992717Y-75406625D01*
X169843503Y-75486382D01*
X169712716Y-75593716D01*
X169605382Y-75724503D01*
X169525625Y-75873717D01*
X169476512Y-76035623D01*
X169459928Y-76204000D01*
X169459928Y-76431915D01*
X169270343Y-76621500D01*
X168303072Y-76621500D01*
X168303072Y-76571500D01*
X168290812Y-76447018D01*
X168254502Y-76327320D01*
X168195537Y-76217006D01*
X168116185Y-76120315D01*
X168019494Y-76040963D01*
X167917000Y-75986178D01*
X167917000Y-75663399D01*
X167999606Y-75595606D01*
X168103831Y-75468608D01*
X168181278Y-75323716D01*
X168228969Y-75166500D01*
X168245072Y-75003000D01*
X168245072Y-74603000D01*
X168228969Y-74439500D01*
X168181278Y-74282284D01*
X168103831Y-74137392D01*
X168020137Y-74035410D01*
X168058185Y-74004185D01*
X168137537Y-73907494D01*
X168196502Y-73797180D01*
X168232812Y-73677482D01*
X168245072Y-73553000D01*
X168242000Y-73438750D01*
X168083250Y-73280000D01*
X167259000Y-73280000D01*
X167259000Y-73300000D01*
X167005000Y-73300000D01*
X167005000Y-73280000D01*
X166985000Y-73280000D01*
X166985000Y-73026000D01*
X167005000Y-73026000D01*
X167005000Y-73006000D01*
X167259000Y-73006000D01*
X167259000Y-73026000D01*
X168083250Y-73026000D01*
X168242000Y-72867250D01*
X168245072Y-72753000D01*
X168232812Y-72628518D01*
X168196502Y-72508820D01*
X168137537Y-72398506D01*
X168058185Y-72301815D01*
X167961494Y-72222463D01*
X167851180Y-72163498D01*
X167731482Y-72127188D01*
X167607000Y-72114928D01*
X167417750Y-72118000D01*
X167259002Y-72276748D01*
X167259002Y-72118000D01*
X167142435Y-72118000D01*
X167111226Y-71961102D01*
X167033205Y-71772744D01*
X167002046Y-71726111D01*
X167003085Y-71725072D01*
X167206000Y-71725072D01*
X167369500Y-71708969D01*
X167526716Y-71661278D01*
X167671608Y-71583831D01*
X167798606Y-71479606D01*
X167831000Y-71440134D01*
X167863394Y-71479606D01*
X167990392Y-71583831D01*
X168135284Y-71661278D01*
X168292500Y-71708969D01*
X168456000Y-71725072D01*
X168856000Y-71725072D01*
X169019500Y-71708969D01*
X169176716Y-71661278D01*
X169321608Y-71583831D01*
X169448606Y-71479606D01*
X169538558Y-71370000D01*
X169891271Y-71370000D01*
X169904868Y-71381159D01*
X169897795Y-71391744D01*
X169819774Y-71580102D01*
X169780000Y-71780061D01*
X169780000Y-71983939D01*
X169819774Y-72183898D01*
X169897795Y-72372256D01*
X170011063Y-72541774D01*
X170155226Y-72685937D01*
X170324744Y-72799205D01*
X170513102Y-72877226D01*
X170713061Y-72917000D01*
X170916939Y-72917000D01*
X171116898Y-72877226D01*
X171305256Y-72799205D01*
X171474774Y-72685937D01*
X171618937Y-72541774D01*
X171732205Y-72372256D01*
X171810226Y-72183898D01*
X171850000Y-71983939D01*
X171850000Y-71780061D01*
X171810226Y-71580102D01*
X171801330Y-71558626D01*
X171877092Y-71581608D01*
X172044250Y-71598072D01*
X172481750Y-71598072D01*
X172648908Y-71581608D01*
X172809642Y-71532850D01*
X172957775Y-71453671D01*
X173087615Y-71347115D01*
X173194171Y-71217275D01*
X173273350Y-71069142D01*
X173322108Y-70908408D01*
X173338572Y-70741250D01*
X173338572Y-70228750D01*
X173322108Y-70061592D01*
X173273350Y-69900858D01*
X173194171Y-69752725D01*
X173148000Y-69696465D01*
X173148000Y-69507535D01*
X173194171Y-69451275D01*
X173273350Y-69303142D01*
X173322108Y-69142408D01*
X173338572Y-68975250D01*
X173338572Y-68462750D01*
X173322108Y-68295592D01*
X173273350Y-68134858D01*
X173257411Y-68105037D01*
X173434102Y-68178226D01*
X173634061Y-68218000D01*
X173837939Y-68218000D01*
X174037898Y-68178226D01*
X174226256Y-68100205D01*
X174395774Y-67986937D01*
X174539937Y-67842774D01*
X174653205Y-67673256D01*
X174731226Y-67484898D01*
X174771000Y-67284939D01*
X174771000Y-67081061D01*
X174731226Y-66881102D01*
X174653205Y-66692744D01*
X174610652Y-66629059D01*
X174666937Y-66572774D01*
X174780205Y-66403256D01*
X174858226Y-66214898D01*
X174898000Y-66014939D01*
X174898000Y-65842600D01*
X180959504Y-65842600D01*
X181000613Y-66116788D01*
X181094424Y-66377688D01*
X181157773Y-66496207D01*
X181398936Y-66564459D01*
X182192395Y-65771000D01*
X182551605Y-65771000D01*
X183345064Y-66564459D01*
X183586227Y-66496207D01*
X183704377Y-66245389D01*
X183771324Y-65976340D01*
X183784496Y-65699400D01*
X183743387Y-65425212D01*
X183649576Y-65164312D01*
X183586227Y-65045793D01*
X183345064Y-64977541D01*
X182551605Y-65771000D01*
X182192395Y-65771000D01*
X181398936Y-64977541D01*
X181157773Y-65045793D01*
X181039623Y-65296611D01*
X180972676Y-65565660D01*
X180959504Y-65842600D01*
X174898000Y-65842600D01*
X174898000Y-65811061D01*
X174858226Y-65611102D01*
X174780205Y-65422744D01*
X174666937Y-65253226D01*
X174522774Y-65109063D01*
X174353256Y-64995795D01*
X174164898Y-64917774D01*
X173964939Y-64878000D01*
X173761061Y-64878000D01*
X173561102Y-64917774D01*
X173372744Y-64995795D01*
X173338572Y-65018628D01*
X173338572Y-64930750D01*
X173325491Y-64797936D01*
X181578541Y-64797936D01*
X182372000Y-65591395D01*
X183165459Y-64797936D01*
X183097207Y-64556773D01*
X182846389Y-64438623D01*
X182673150Y-64395516D01*
X183567089Y-64395516D01*
X183757373Y-64740257D01*
X184180665Y-64959495D01*
X184638595Y-65091940D01*
X185113564Y-65132503D01*
X185587320Y-65079624D01*
X186041656Y-64935337D01*
X186406627Y-64740257D01*
X186596911Y-64395516D01*
X185082000Y-62880605D01*
X183567089Y-64395516D01*
X182673150Y-64395516D01*
X182577340Y-64371676D01*
X182300400Y-64358504D01*
X182026212Y-64399613D01*
X181765312Y-64493424D01*
X181646793Y-64556773D01*
X181578541Y-64797936D01*
X173325491Y-64797936D01*
X173322108Y-64763592D01*
X173273350Y-64602858D01*
X173236583Y-64534072D01*
X173250500Y-64534072D01*
X173423754Y-64517008D01*
X173590350Y-64466472D01*
X173743886Y-64384405D01*
X173878462Y-64273962D01*
X173988905Y-64139386D01*
X174070972Y-63985850D01*
X174121508Y-63819254D01*
X174138572Y-63646000D01*
X174138572Y-62846000D01*
X174127400Y-62732564D01*
X182650497Y-62732564D01*
X182703376Y-63206320D01*
X182847663Y-63660656D01*
X183042743Y-64025627D01*
X183387484Y-64215911D01*
X184902395Y-62701000D01*
X185261605Y-62701000D01*
X186776516Y-64215911D01*
X187121257Y-64025627D01*
X187340495Y-63602335D01*
X187472940Y-63144405D01*
X187513503Y-62669436D01*
X187460624Y-62195680D01*
X187316337Y-61741344D01*
X187121257Y-61376373D01*
X186776516Y-61186089D01*
X185261605Y-62701000D01*
X184902395Y-62701000D01*
X183387484Y-61186089D01*
X183042743Y-61376373D01*
X182823505Y-61799665D01*
X182691060Y-62257595D01*
X182650497Y-62732564D01*
X174127400Y-62732564D01*
X174121508Y-62672746D01*
X174070972Y-62506150D01*
X173988905Y-62352614D01*
X173878462Y-62218038D01*
X173743886Y-62107595D01*
X173590350Y-62025528D01*
X173423754Y-61974992D01*
X173250500Y-61957928D01*
X172425500Y-61957928D01*
X172252246Y-61974992D01*
X172085650Y-62025528D01*
X171961920Y-62091664D01*
X171929994Y-62065463D01*
X171819680Y-62006498D01*
X171699982Y-61970188D01*
X171575500Y-61957928D01*
X171198750Y-61961000D01*
X171040000Y-62119750D01*
X171040000Y-63119000D01*
X171060000Y-63119000D01*
X171060000Y-63373000D01*
X171040000Y-63373000D01*
X171040000Y-63393000D01*
X170786000Y-63393000D01*
X170786000Y-63373000D01*
X169774250Y-63373000D01*
X169615500Y-63531750D01*
X169612428Y-63896000D01*
X169624688Y-64020482D01*
X169660998Y-64140180D01*
X169719963Y-64250494D01*
X169799315Y-64347185D01*
X169826664Y-64369630D01*
X169756829Y-64454725D01*
X169677650Y-64602858D01*
X169628892Y-64763592D01*
X169612428Y-64930750D01*
X169612428Y-65443250D01*
X169628892Y-65610408D01*
X169677650Y-65771142D01*
X169756829Y-65919275D01*
X169803001Y-65975536D01*
X169803000Y-66164464D01*
X169800099Y-66168000D01*
X167798724Y-66168000D01*
X167760168Y-66164203D01*
X167721612Y-66168000D01*
X167721607Y-66168000D01*
X167681194Y-66171980D01*
X167606281Y-66179358D01*
X167489124Y-66214898D01*
X167458308Y-66224246D01*
X167321935Y-66297138D01*
X167202404Y-66395236D01*
X167177821Y-66425190D01*
X165660712Y-67942299D01*
X165660712Y-62596000D01*
X169612428Y-62596000D01*
X169615500Y-62960250D01*
X169774250Y-63119000D01*
X170786000Y-63119000D01*
X170786000Y-62119750D01*
X170627250Y-61961000D01*
X170250500Y-61957928D01*
X170126018Y-61970188D01*
X170006320Y-62006498D01*
X169896006Y-62065463D01*
X169799315Y-62144815D01*
X169719963Y-62241506D01*
X169660998Y-62351820D01*
X169624688Y-62471518D01*
X169612428Y-62596000D01*
X165660712Y-62596000D01*
X165660712Y-61006484D01*
X183567089Y-61006484D01*
X185082000Y-62521395D01*
X186596911Y-61006484D01*
X186406627Y-60661743D01*
X185983335Y-60442505D01*
X185525405Y-60310060D01*
X185050436Y-60269497D01*
X184576680Y-60322376D01*
X184122344Y-60466663D01*
X183757373Y-60661743D01*
X183567089Y-61006484D01*
X165660712Y-61006484D01*
X165660712Y-58894711D01*
X165752744Y-58956205D01*
X165941102Y-59034226D01*
X166141061Y-59074000D01*
X166344939Y-59074000D01*
X166544898Y-59034226D01*
X166733256Y-58956205D01*
X166902774Y-58842937D01*
X167046937Y-58698774D01*
X167135654Y-58566000D01*
X167233939Y-58566000D01*
X167433898Y-58526226D01*
X167622256Y-58448205D01*
X167791774Y-58334937D01*
X167935937Y-58190774D01*
X168049205Y-58021256D01*
X168127226Y-57832898D01*
X168167000Y-57632939D01*
X168167000Y-57429061D01*
X168127226Y-57229102D01*
X168066449Y-57082374D01*
X187191231Y-57082374D01*
X187491411Y-57520828D01*
X188070356Y-57831296D01*
X188698746Y-58022852D01*
X189352431Y-58088134D01*
X190006293Y-58024634D01*
X190635203Y-57834792D01*
X191214992Y-57525904D01*
X191222589Y-57520828D01*
X191522769Y-57082374D01*
X189357000Y-54916605D01*
X187191231Y-57082374D01*
X168066449Y-57082374D01*
X168049205Y-57040744D01*
X167935937Y-56871226D01*
X167791774Y-56727063D01*
X167622256Y-56613795D01*
X167433898Y-56535774D01*
X167377044Y-56524465D01*
X167337025Y-56484446D01*
X167385852Y-56458348D01*
X167433159Y-56234764D01*
X166763000Y-55564605D01*
X166748858Y-55578748D01*
X166569253Y-55399143D01*
X166583395Y-55385000D01*
X166569253Y-55370858D01*
X166748858Y-55191253D01*
X166763000Y-55205395D01*
X166777143Y-55191253D01*
X166956748Y-55370858D01*
X166942605Y-55385000D01*
X167612764Y-56055159D01*
X167836348Y-56007852D01*
X167937237Y-55786484D01*
X167993000Y-55549687D01*
X168001495Y-55306562D01*
X167962395Y-55066451D01*
X167877202Y-54838582D01*
X167836348Y-54762148D01*
X167695897Y-54732431D01*
X186005866Y-54732431D01*
X186069366Y-55386293D01*
X186259208Y-56015203D01*
X186568096Y-56594992D01*
X186573172Y-56602589D01*
X187011626Y-56902769D01*
X189177395Y-54737000D01*
X189536605Y-54737000D01*
X191702374Y-56902769D01*
X192140828Y-56602589D01*
X192451296Y-56023644D01*
X192642852Y-55395254D01*
X192708134Y-54741569D01*
X192644634Y-54087707D01*
X192454792Y-53458797D01*
X192145904Y-52879008D01*
X192140828Y-52871411D01*
X191702374Y-52571231D01*
X189536605Y-54737000D01*
X189177395Y-54737000D01*
X187011626Y-52571231D01*
X186573172Y-52871411D01*
X186262704Y-53450356D01*
X186071148Y-54078746D01*
X186005866Y-54732431D01*
X167695897Y-54732431D01*
X167612766Y-54714842D01*
X167682840Y-54644768D01*
X168012940Y-54668825D01*
X168395104Y-54621348D01*
X168760662Y-54500227D01*
X169012520Y-54365606D01*
X169146864Y-54068469D01*
X167963000Y-52884605D01*
X166779136Y-54068469D01*
X166816503Y-54151115D01*
X166684562Y-54146505D01*
X166444451Y-54185605D01*
X166216582Y-54270798D01*
X166140148Y-54311652D01*
X166095510Y-54522623D01*
X166082180Y-54515498D01*
X166069155Y-54511547D01*
X165975736Y-54418128D01*
X165918962Y-54474902D01*
X165838000Y-54466928D01*
X165438000Y-54466928D01*
X165313518Y-54479188D01*
X165313000Y-54479345D01*
X165312482Y-54479188D01*
X165188000Y-54466928D01*
X164788000Y-54466928D01*
X164663518Y-54479188D01*
X164663000Y-54479345D01*
X164662482Y-54479188D01*
X164538000Y-54466928D01*
X164138000Y-54466928D01*
X164013518Y-54479188D01*
X164013000Y-54479345D01*
X164012482Y-54479188D01*
X163888000Y-54466928D01*
X163488000Y-54466928D01*
X163363518Y-54479188D01*
X163361134Y-54479911D01*
X163269750Y-54470000D01*
X163201782Y-54537968D01*
X163133506Y-54574463D01*
X163036815Y-54653815D01*
X162965000Y-54741322D01*
X162965000Y-54628750D01*
X162806250Y-54470000D01*
X162757431Y-54475295D01*
X162700264Y-54418128D01*
X162605872Y-54512520D01*
X162585472Y-54519026D01*
X162580331Y-54521869D01*
X162535852Y-54311652D01*
X162314484Y-54210763D01*
X162077687Y-54155000D01*
X161861162Y-54147434D01*
X161896864Y-54068469D01*
X160713000Y-52884605D01*
X159529136Y-54068469D01*
X159663480Y-54365606D01*
X160007614Y-54538449D01*
X160378857Y-54640834D01*
X160762940Y-54668825D01*
X160989118Y-54640726D01*
X161063234Y-54714842D01*
X160839652Y-54762148D01*
X160738763Y-54983516D01*
X160683000Y-55220313D01*
X160674505Y-55463438D01*
X160713605Y-55703549D01*
X160798798Y-55931418D01*
X160839652Y-56007852D01*
X161063236Y-56055159D01*
X161733395Y-55385000D01*
X161719253Y-55370858D01*
X161898858Y-55191253D01*
X161913000Y-55205395D01*
X161927143Y-55191253D01*
X162106748Y-55370858D01*
X162092605Y-55385000D01*
X162106748Y-55399143D01*
X161927143Y-55578748D01*
X161913000Y-55564605D01*
X161242841Y-56234764D01*
X161290148Y-56458348D01*
X161511516Y-56559237D01*
X161748313Y-56615000D01*
X161991438Y-56623495D01*
X162200626Y-56589431D01*
X162199992Y-56695937D01*
X162210483Y-56820580D01*
X162245089Y-56940781D01*
X162302481Y-57051922D01*
X162380452Y-57149731D01*
X162476006Y-57230449D01*
X162585472Y-57290974D01*
X162704642Y-57328980D01*
X162806250Y-57340000D01*
X162965000Y-57181250D01*
X162965000Y-57068678D01*
X163036815Y-57156185D01*
X163133506Y-57235537D01*
X163201782Y-57272032D01*
X163269750Y-57340000D01*
X163361134Y-57330089D01*
X163363518Y-57330812D01*
X163488000Y-57343072D01*
X163610215Y-57343072D01*
X163621182Y-57379226D01*
X163627297Y-57399384D01*
X163665288Y-57470461D01*
X163665288Y-58909000D01*
X163474061Y-58909000D01*
X163274102Y-58948774D01*
X163085744Y-59026795D01*
X163058969Y-59044685D01*
X162970608Y-58972169D01*
X162825716Y-58894722D01*
X162668500Y-58847031D01*
X162505000Y-58830928D01*
X162105000Y-58830928D01*
X161941500Y-58847031D01*
X161784284Y-58894722D01*
X161639392Y-58972169D01*
X161512394Y-59076394D01*
X161480000Y-59115866D01*
X161447606Y-59076394D01*
X161320608Y-58972169D01*
X161175716Y-58894722D01*
X161018500Y-58847031D01*
X160855000Y-58830928D01*
X160455000Y-58830928D01*
X160291500Y-58847031D01*
X160134284Y-58894722D01*
X159989392Y-58972169D01*
X159883589Y-59059000D01*
X159546729Y-59059000D01*
X159444775Y-58975329D01*
X159296642Y-58896150D01*
X159135908Y-58847392D01*
X158968750Y-58830928D01*
X158531250Y-58830928D01*
X158364092Y-58847392D01*
X158203358Y-58896150D01*
X158055225Y-58975329D01*
X158033570Y-58993100D01*
X157966994Y-58938463D01*
X157856680Y-58879498D01*
X157736982Y-58843188D01*
X157612500Y-58830928D01*
X157460750Y-58834000D01*
X157302000Y-58992750D01*
X157302000Y-59817000D01*
X157322000Y-59817000D01*
X157322000Y-60071000D01*
X157302000Y-60071000D01*
X157302000Y-60895250D01*
X157460750Y-61054000D01*
X157612500Y-61057072D01*
X157736982Y-61044812D01*
X157856680Y-61008502D01*
X157966994Y-60949537D01*
X158033570Y-60894900D01*
X158055225Y-60912671D01*
X158203358Y-60991850D01*
X158364092Y-61040608D01*
X158531250Y-61057072D01*
X158968750Y-61057072D01*
X159135908Y-61040608D01*
X159296642Y-60991850D01*
X159444775Y-60912671D01*
X159546729Y-60829000D01*
X159883589Y-60829000D01*
X159989392Y-60915831D01*
X160134284Y-60993278D01*
X160291500Y-61040969D01*
X160455000Y-61057072D01*
X160855000Y-61057072D01*
X161018500Y-61040969D01*
X161175716Y-60993278D01*
X161320608Y-60915831D01*
X161447606Y-60811606D01*
X161480000Y-60772134D01*
X161512394Y-60811606D01*
X161639392Y-60915831D01*
X161784284Y-60993278D01*
X161941500Y-61040969D01*
X162105000Y-61057072D01*
X162505000Y-61057072D01*
X162668500Y-61040969D01*
X162825716Y-60993278D01*
X162970608Y-60915831D01*
X163058969Y-60843315D01*
X163085744Y-60861205D01*
X163274102Y-60939226D01*
X163474061Y-60979000D01*
X163665288Y-60979000D01*
X163665289Y-67968732D01*
X159019116Y-72614906D01*
X158989895Y-72638887D01*
X158938730Y-72701233D01*
X158894228Y-72755458D01*
X158870845Y-72799205D01*
X158823140Y-72888454D01*
X158779365Y-73032762D01*
X158772132Y-73106204D01*
X158764584Y-73182836D01*
X158768288Y-73220441D01*
X158768289Y-76512549D01*
X158764584Y-76550164D01*
X158776975Y-76675963D01*
X158779366Y-76700239D01*
X158805143Y-76785214D01*
X158823141Y-76844547D01*
X158894228Y-76977542D01*
X158940795Y-77034283D01*
X158989896Y-77094113D01*
X159019111Y-77118089D01*
X159157522Y-77256500D01*
X159092567Y-77256500D01*
X158987962Y-77129038D01*
X158853386Y-77018595D01*
X158739594Y-76957772D01*
X158769000Y-76809939D01*
X158769000Y-76606061D01*
X158729226Y-76406102D01*
X158651205Y-76217744D01*
X158537937Y-76048226D01*
X158393774Y-75904063D01*
X158224256Y-75790795D01*
X158035898Y-75712774D01*
X157835939Y-75673000D01*
X157632061Y-75673000D01*
X157432102Y-75712774D01*
X157243744Y-75790795D01*
X157074226Y-75904063D01*
X156930063Y-76048226D01*
X156816795Y-76217744D01*
X156738774Y-76406102D01*
X156699000Y-76606061D01*
X156699000Y-76809939D01*
X156710748Y-76869002D01*
X156710000Y-76868928D01*
X156495750Y-76872000D01*
X156337000Y-77030750D01*
X156337000Y-78105000D01*
X156357000Y-78105000D01*
X156357000Y-78359000D01*
X156337000Y-78359000D01*
X156337000Y-78379000D01*
X156083000Y-78379000D01*
X156083000Y-78359000D01*
X155233750Y-78359000D01*
X155075000Y-78517750D01*
X155071928Y-78957000D01*
X155076360Y-79002000D01*
X154122248Y-79002000D01*
X153955501Y-79018423D01*
X153741553Y-79083324D01*
X153544377Y-79188716D01*
X153371551Y-79330551D01*
X153229716Y-79503377D01*
X153124324Y-79700553D01*
X153059423Y-79914501D01*
X153037509Y-80137000D01*
X153059423Y-80359499D01*
X153124324Y-80573447D01*
X153229716Y-80770623D01*
X153371551Y-80943449D01*
X153544377Y-81085284D01*
X153741553Y-81190676D01*
X153955501Y-81255577D01*
X154122248Y-81272000D01*
X155033627Y-81272000D01*
X155022498Y-81292820D01*
X154986188Y-81412518D01*
X154973928Y-81537000D01*
X154977000Y-81751250D01*
X155135750Y-81910000D01*
X156210000Y-81910000D01*
X156210000Y-81890000D01*
X156464000Y-81890000D01*
X156464000Y-81910000D01*
X156484000Y-81910000D01*
X156484000Y-82164000D01*
X156464000Y-82164000D01*
X156464000Y-83013250D01*
X156622750Y-83172000D01*
X157062000Y-83175072D01*
X157186482Y-83162812D01*
X157306180Y-83126502D01*
X157416494Y-83067537D01*
X157513185Y-82988185D01*
X157592537Y-82891494D01*
X157651502Y-82781180D01*
X157657384Y-82761790D01*
X157829250Y-82759000D01*
X157988000Y-82600250D01*
X157988000Y-81801000D01*
X158242000Y-81801000D01*
X158242000Y-82600250D01*
X158400750Y-82759000D01*
X158590000Y-82762072D01*
X158714482Y-82749812D01*
X158834180Y-82713502D01*
X158944494Y-82654537D01*
X159041185Y-82575185D01*
X159120537Y-82478494D01*
X159179502Y-82368180D01*
X159215812Y-82248482D01*
X159228072Y-82124000D01*
X159225000Y-81959750D01*
X159066250Y-81801000D01*
X158242000Y-81801000D01*
X157988000Y-81801000D01*
X157968000Y-81801000D01*
X157968000Y-81547000D01*
X157988000Y-81547000D01*
X157988000Y-81527000D01*
X158242000Y-81527000D01*
X158242000Y-81547000D01*
X159066250Y-81547000D01*
X159225000Y-81388250D01*
X159227417Y-81259000D01*
X159467541Y-81259000D01*
X159356795Y-81424744D01*
X159278774Y-81613102D01*
X159239000Y-81813061D01*
X159239000Y-82016939D01*
X159278774Y-82216898D01*
X159356795Y-82405256D01*
X159368651Y-82423000D01*
X159356795Y-82440744D01*
X159278774Y-82629102D01*
X159239000Y-82829061D01*
X159239000Y-83032939D01*
X159278774Y-83232898D01*
X159356795Y-83421256D01*
X159368651Y-83439000D01*
X159356795Y-83456744D01*
X159278774Y-83645102D01*
X159239000Y-83845061D01*
X159239000Y-84048939D01*
X159278774Y-84248898D01*
X159356795Y-84437256D01*
X159368651Y-84455000D01*
X159356795Y-84472744D01*
X159278774Y-84661102D01*
X159239000Y-84861061D01*
X159239000Y-85064939D01*
X159278774Y-85264898D01*
X159356795Y-85453256D01*
X159470063Y-85622774D01*
X159614226Y-85766937D01*
X159778180Y-85876487D01*
X159752746Y-85878992D01*
X159586150Y-85929528D01*
X159432614Y-86011595D01*
X159298038Y-86122038D01*
X159187595Y-86256614D01*
X159105528Y-86410150D01*
X159054992Y-86576746D01*
X159037928Y-86750000D01*
X159037928Y-87250000D01*
X159054992Y-87423254D01*
X159105528Y-87589850D01*
X159187595Y-87743386D01*
X159298038Y-87877962D01*
X159304594Y-87883342D01*
X159224815Y-87948815D01*
X159145463Y-88045506D01*
X159086498Y-88155820D01*
X159050188Y-88275518D01*
X159037928Y-88400000D01*
X159041000Y-88614250D01*
X159199750Y-88773000D01*
X160274000Y-88773000D01*
X160274000Y-88753000D01*
X160528000Y-88753000D01*
X160528000Y-88773000D01*
X161602250Y-88773000D01*
X161761000Y-88614250D01*
X161764072Y-88400000D01*
X161751812Y-88275518D01*
X161715502Y-88155820D01*
X161656537Y-88045506D01*
X161577185Y-87948815D01*
X161497406Y-87883342D01*
X161503962Y-87877962D01*
X161614405Y-87743386D01*
X161696472Y-87589850D01*
X161747008Y-87423254D01*
X161764072Y-87250000D01*
X161764072Y-86750000D01*
X161747008Y-86576746D01*
X161696472Y-86410150D01*
X161659910Y-86341747D01*
X162137085Y-85864572D01*
X162465000Y-85864572D01*
X162589482Y-85852312D01*
X162709180Y-85816002D01*
X162819494Y-85757037D01*
X162832289Y-85746537D01*
X162832289Y-88613732D01*
X161892734Y-89553288D01*
X161743074Y-89553288D01*
X161751812Y-89524482D01*
X161764072Y-89400000D01*
X161761000Y-89185750D01*
X161602250Y-89027000D01*
X160528000Y-89027000D01*
X160528000Y-89047000D01*
X160274000Y-89047000D01*
X160274000Y-89027000D01*
X159199750Y-89027000D01*
X159041000Y-89185750D01*
X159037928Y-89400000D01*
X159050188Y-89524482D01*
X159058926Y-89553288D01*
X155226268Y-89553288D01*
X151873712Y-86200734D01*
X151873712Y-82537000D01*
X154973928Y-82537000D01*
X154986188Y-82661482D01*
X155022498Y-82781180D01*
X155081463Y-82891494D01*
X155160815Y-82988185D01*
X155257506Y-83067537D01*
X155367820Y-83126502D01*
X155487518Y-83162812D01*
X155612000Y-83175072D01*
X156051250Y-83172000D01*
X156210000Y-83013250D01*
X156210000Y-82164000D01*
X155135750Y-82164000D01*
X154977000Y-82322750D01*
X154973928Y-82537000D01*
X151873712Y-82537000D01*
X151873712Y-77507000D01*
X155071928Y-77507000D01*
X155075000Y-77946250D01*
X155233750Y-78105000D01*
X156083000Y-78105000D01*
X156083000Y-77030750D01*
X155924250Y-76872000D01*
X155710000Y-76868928D01*
X155585518Y-76881188D01*
X155465820Y-76917498D01*
X155355506Y-76976463D01*
X155258815Y-77055815D01*
X155179463Y-77152506D01*
X155120498Y-77262820D01*
X155084188Y-77382518D01*
X155071928Y-77507000D01*
X151873712Y-77507000D01*
X151873712Y-72225392D01*
X151868156Y-72168981D01*
X151868156Y-71442158D01*
X151871832Y-71404835D01*
X151868156Y-71367512D01*
X151868156Y-71367503D01*
X151857159Y-71255850D01*
X151813702Y-71112589D01*
X151743130Y-70980560D01*
X151648157Y-70864835D01*
X151619160Y-70841038D01*
X151044970Y-70266849D01*
X151021168Y-70237846D01*
X150905443Y-70142873D01*
X150773414Y-70072301D01*
X150630153Y-70028844D01*
X150525559Y-70018542D01*
X150480927Y-69973910D01*
X150311409Y-69860642D01*
X150123051Y-69782621D01*
X149923092Y-69742847D01*
X149719214Y-69742847D01*
X149519255Y-69782621D01*
X149330897Y-69860642D01*
X149161379Y-69973910D01*
X149114045Y-70021244D01*
X147679301Y-68586500D01*
X147711500Y-68424627D01*
X147711500Y-68147373D01*
X147657410Y-67875447D01*
X147551310Y-67619299D01*
X147397276Y-67388771D01*
X147201229Y-67192724D01*
X146970701Y-67038690D01*
X146964207Y-67036000D01*
X146970701Y-67033310D01*
X147201229Y-66879276D01*
X147397276Y-66683229D01*
X147551310Y-66452701D01*
X147657410Y-66196553D01*
X147711500Y-65924627D01*
X147711500Y-65647373D01*
X147657410Y-65375447D01*
X147551310Y-65119299D01*
X147397276Y-64888771D01*
X147201229Y-64692724D01*
X146970701Y-64538690D01*
X146714553Y-64432590D01*
X146442627Y-64378500D01*
X146165373Y-64378500D01*
X145893447Y-64432590D01*
X145637299Y-64538690D01*
X145406771Y-64692724D01*
X145210724Y-64888771D01*
X145056690Y-65119299D01*
X144950590Y-65375447D01*
X144896500Y-65647373D01*
X135915000Y-65647373D01*
X135915000Y-64410516D01*
X142079089Y-64410516D01*
X142269373Y-64755257D01*
X142692665Y-64974495D01*
X143150595Y-65106940D01*
X143625564Y-65147503D01*
X144099320Y-65094624D01*
X144553656Y-64950337D01*
X144918627Y-64755257D01*
X145108911Y-64410516D01*
X143594000Y-62895605D01*
X142079089Y-64410516D01*
X135915000Y-64410516D01*
X135915000Y-62747564D01*
X141162497Y-62747564D01*
X141215376Y-63221320D01*
X141359663Y-63675656D01*
X141554743Y-64040627D01*
X141899484Y-64230911D01*
X143414395Y-62716000D01*
X143773605Y-62716000D01*
X145288516Y-64230911D01*
X145633257Y-64040627D01*
X145852495Y-63617335D01*
X145984940Y-63159405D01*
X146025503Y-62684436D01*
X145972624Y-62210680D01*
X145828337Y-61756344D01*
X145633257Y-61391373D01*
X145288516Y-61201089D01*
X143773605Y-62716000D01*
X143414395Y-62716000D01*
X141899484Y-61201089D01*
X141554743Y-61391373D01*
X141335505Y-61814665D01*
X141203060Y-62272595D01*
X141162497Y-62747564D01*
X135915000Y-62747564D01*
X135915000Y-61021484D01*
X142079089Y-61021484D01*
X143594000Y-62536395D01*
X145108911Y-61021484D01*
X144918627Y-60676743D01*
X144495335Y-60457505D01*
X144362204Y-60419000D01*
X156099428Y-60419000D01*
X156111688Y-60543482D01*
X156147998Y-60663180D01*
X156206963Y-60773494D01*
X156286315Y-60870185D01*
X156383006Y-60949537D01*
X156493320Y-61008502D01*
X156613018Y-61044812D01*
X156737500Y-61057072D01*
X156889250Y-61054000D01*
X157048000Y-60895250D01*
X157048000Y-60071000D01*
X156261250Y-60071000D01*
X156102500Y-60229750D01*
X156099428Y-60419000D01*
X144362204Y-60419000D01*
X144037405Y-60325060D01*
X143562436Y-60284497D01*
X143088680Y-60337376D01*
X142634344Y-60481663D01*
X142269373Y-60676743D01*
X142079089Y-61021484D01*
X135915000Y-61021484D01*
X135915000Y-59469000D01*
X156099428Y-59469000D01*
X156102500Y-59658250D01*
X156261250Y-59817000D01*
X157048000Y-59817000D01*
X157048000Y-58992750D01*
X156889250Y-58834000D01*
X156737500Y-58830928D01*
X156613018Y-58843188D01*
X156493320Y-58879498D01*
X156383006Y-58938463D01*
X156286315Y-59017815D01*
X156206963Y-59114506D01*
X156147998Y-59224820D01*
X156111688Y-59344518D01*
X156099428Y-59469000D01*
X135915000Y-59469000D01*
X135915000Y-57082374D01*
X137153231Y-57082374D01*
X137453411Y-57520828D01*
X138032356Y-57831296D01*
X138660746Y-58022852D01*
X139314431Y-58088134D01*
X139968293Y-58024634D01*
X140597203Y-57834792D01*
X141176992Y-57525904D01*
X141184589Y-57520828D01*
X141484769Y-57082374D01*
X139319000Y-54916605D01*
X137153231Y-57082374D01*
X135915000Y-57082374D01*
X135915000Y-54769279D01*
X135918612Y-54732431D01*
X135967866Y-54732431D01*
X136031366Y-55386293D01*
X136221208Y-56015203D01*
X136530096Y-56594992D01*
X136535172Y-56602589D01*
X136973626Y-56902769D01*
X139139395Y-54737000D01*
X139498605Y-54737000D01*
X141664374Y-56902769D01*
X142102828Y-56602589D01*
X142413296Y-56023644D01*
X142604852Y-55395254D01*
X142670134Y-54741569D01*
X142606634Y-54087707D01*
X142416792Y-53458797D01*
X142107904Y-52879008D01*
X142102828Y-52871411D01*
X141664374Y-52571231D01*
X139498605Y-54737000D01*
X139139395Y-54737000D01*
X136973626Y-52571231D01*
X136535172Y-52871411D01*
X136224704Y-53450356D01*
X136033148Y-54078746D01*
X135967866Y-54732431D01*
X135918612Y-54732431D01*
X135982933Y-54076442D01*
X136174772Y-53441040D01*
X136486373Y-52855006D01*
X136864297Y-52391626D01*
X137153231Y-52391626D01*
X139319000Y-54557395D01*
X141484769Y-52391626D01*
X141184589Y-51953172D01*
X140605644Y-51642704D01*
X139977254Y-51451148D01*
X139323569Y-51385866D01*
X138669707Y-51449366D01*
X138040797Y-51639208D01*
X137461008Y-51948096D01*
X137453411Y-51953172D01*
X137153231Y-52391626D01*
X136864297Y-52391626D01*
X136905870Y-52340653D01*
X137417275Y-51917581D01*
X138001123Y-51601896D01*
X138635170Y-51405625D01*
X139326155Y-51333000D01*
X159307704Y-51333000D01*
X159234548Y-51406156D01*
G37*
%TD.AperFunction*%
D25*
X164675136Y-78217895D02*
X164651162Y-78247108D01*
X163587948Y-79310322D01*
X163554202Y-79199080D01*
X163543755Y-79164639D01*
X163470863Y-79028266D01*
X163373512Y-78909645D01*
X164091658Y-78191500D01*
X164707299Y-78191500D01*
X164675136Y-78217895D01*
%TA.AperFunction,Conductor*%
D26*
G36*
X164675136Y-78217895D02*
G01*
X164651162Y-78247108D01*
X163587948Y-79310322D01*
X163554202Y-79199080D01*
X163543755Y-79164639D01*
X163470863Y-79028266D01*
X163373512Y-78909645D01*
X164091658Y-78191500D01*
X164707299Y-78191500D01*
X164675136Y-78217895D01*
G37*
%TD.AperFunction*%
D25*
X163299000Y-73616289D02*
X163280063Y-73635226D01*
X163166795Y-73804744D01*
X163088774Y-73993102D01*
X163049000Y-74193061D01*
X163049000Y-74396939D01*
X163088774Y-74596898D01*
X163166795Y-74785256D01*
X163280063Y-74954774D01*
X163424226Y-75098937D01*
X163593744Y-75212205D01*
X163782102Y-75290226D01*
X163982061Y-75330000D01*
X164185939Y-75330000D01*
X164385898Y-75290226D01*
X164574256Y-75212205D01*
X164743774Y-75098937D01*
X164782500Y-75060211D01*
X164821226Y-75098937D01*
X164990744Y-75212205D01*
X165179102Y-75290226D01*
X165379061Y-75330000D01*
X165582939Y-75330000D01*
X165782898Y-75290226D01*
X165971256Y-75212205D01*
X166035811Y-75169071D01*
X166082722Y-75323716D01*
X166160169Y-75468608D01*
X166264394Y-75595606D01*
X166347000Y-75663400D01*
X166347001Y-75945050D01*
X166340518Y-75945688D01*
X166220820Y-75981998D01*
X166110506Y-76040963D01*
X166013815Y-76120315D01*
X165934463Y-76217006D01*
X165875498Y-76327320D01*
X165839188Y-76447018D01*
X165826928Y-76571500D01*
X165826928Y-76621500D01*
X163805052Y-76621500D01*
X163766499Y-76617703D01*
X163727946Y-76621500D01*
X163333558Y-76621500D01*
X163295002Y-76617703D01*
X163256446Y-76621500D01*
X163256441Y-76621500D01*
X163216028Y-76625480D01*
X163141115Y-76632858D01*
X163103072Y-76644398D01*
X163103072Y-76571500D01*
X163090812Y-76447018D01*
X163054502Y-76327320D01*
X162995537Y-76217006D01*
X162916185Y-76120315D01*
X162819494Y-76040963D01*
X162709180Y-75981998D01*
X162589482Y-75945688D01*
X162465000Y-75933428D01*
X161265000Y-75933428D01*
X161140518Y-75945688D01*
X161020820Y-75981998D01*
X160980157Y-76003733D01*
X160964999Y-76002240D01*
X160927394Y-76005944D01*
X160927391Y-76005944D01*
X160814924Y-76017021D01*
X160763712Y-76032556D01*
X160763712Y-73692266D01*
X163299001Y-71156978D01*
X163299000Y-73616289D01*
%TA.AperFunction,Conductor*%
D26*
G36*
X163299000Y-73616289D02*
G01*
X163280063Y-73635226D01*
X163166795Y-73804744D01*
X163088774Y-73993102D01*
X163049000Y-74193061D01*
X163049000Y-74396939D01*
X163088774Y-74596898D01*
X163166795Y-74785256D01*
X163280063Y-74954774D01*
X163424226Y-75098937D01*
X163593744Y-75212205D01*
X163782102Y-75290226D01*
X163982061Y-75330000D01*
X164185939Y-75330000D01*
X164385898Y-75290226D01*
X164574256Y-75212205D01*
X164743774Y-75098937D01*
X164782500Y-75060211D01*
X164821226Y-75098937D01*
X164990744Y-75212205D01*
X165179102Y-75290226D01*
X165379061Y-75330000D01*
X165582939Y-75330000D01*
X165782898Y-75290226D01*
X165971256Y-75212205D01*
X166035811Y-75169071D01*
X166082722Y-75323716D01*
X166160169Y-75468608D01*
X166264394Y-75595606D01*
X166347000Y-75663400D01*
X166347001Y-75945050D01*
X166340518Y-75945688D01*
X166220820Y-75981998D01*
X166110506Y-76040963D01*
X166013815Y-76120315D01*
X165934463Y-76217006D01*
X165875498Y-76327320D01*
X165839188Y-76447018D01*
X165826928Y-76571500D01*
X165826928Y-76621500D01*
X163805052Y-76621500D01*
X163766499Y-76617703D01*
X163727946Y-76621500D01*
X163333558Y-76621500D01*
X163295002Y-76617703D01*
X163256446Y-76621500D01*
X163256441Y-76621500D01*
X163216028Y-76625480D01*
X163141115Y-76632858D01*
X163103072Y-76644398D01*
X163103072Y-76571500D01*
X163090812Y-76447018D01*
X163054502Y-76327320D01*
X162995537Y-76217006D01*
X162916185Y-76120315D01*
X162819494Y-76040963D01*
X162709180Y-75981998D01*
X162589482Y-75945688D01*
X162465000Y-75933428D01*
X161265000Y-75933428D01*
X161140518Y-75945688D01*
X161020820Y-75981998D01*
X160980157Y-76003733D01*
X160964999Y-76002240D01*
X160927394Y-76005944D01*
X160927391Y-76005944D01*
X160814924Y-76017021D01*
X160763712Y-76032556D01*
X160763712Y-73692266D01*
X163299001Y-71156978D01*
X163299000Y-73616289D01*
G37*
%TD.AperFunction*%
%TD*%
M02*
