M48
; DRILL file {KiCad (5.1.10)-1} date 08/09/21 12:48:34
; FORMAT={3:3/ absolute / metric / suppress leading zeros}
; #@! TF.CreationDate,2021-08-09T12:48:34+02:00
; #@! TF.GenerationSoftware,Kicad,Pcbnew,(5.1.10)-1
FMAT,2
METRIC,TZ
T1C0.400
T2C0.500
T3C0.700
T4C1.030
T5C1.760
T6C2.380
T7C2.700
%
G90
G05
T1
X149451Y-90080
X149821Y-70778
X154178Y-80137
X154940Y-77851
X154940Y-78740
X155702Y-83312
X156972Y-58420
X157734Y-76708
X158496Y-88900
X159004Y-83058
X159258Y-81661
X159766Y-80137
X160274Y-81915
X160274Y-82931
X160274Y-83947
X160274Y-84963
X160513Y-80944
X161417Y-74168
X161925Y-56896
X161925Y-89154
X162306Y-72771
X162687Y-86614
X162814Y-57658
X163195Y-76581
X163576Y-59944
X164084Y-74295
X164211Y-78486
X165481Y-74295
X166116Y-72263
X166243Y-58039
X166497Y-86614
X167132Y-57531
X167640Y-72009
X167894Y-85979
X168402Y-78740
X168529Y-73025
X169037Y-63246
X169164Y-67703
X170815Y-71882
X170942Y-61468
X173482Y-76327
X173609Y-77978
X173736Y-67183
X173863Y-65913
T2
X137294Y-54737
X137294Y-104775
X137887Y-53305
X137887Y-56169
X137887Y-103343
X137887Y-106207
X139319Y-52712
X139319Y-56762
X139319Y-102750
X139319Y-106800
X140751Y-53305
X140751Y-56169
X140751Y-103343
X140751Y-106207
X141344Y-54737
X141344Y-104775
X187332Y-54737
X187332Y-104775
X187925Y-53305
X187925Y-56169
X187925Y-103343
X187925Y-106207
X189357Y-52712
X189357Y-56762
X189357Y-102750
X189357Y-106800
X190789Y-53305
X190789Y-56169
X190789Y-103343
X190789Y-106207
X191382Y-54737
X191382Y-104775
T3
X161913Y-55385
X166763Y-55385
T4
X146304Y-65786
X146304Y-68286
X146304Y-70286
X146304Y-72786
X146304Y-86741
X146304Y-89241
X146304Y-91241
X146304Y-93741
X182372Y-65771
X182372Y-68271
X182372Y-70271
X182372Y-72771
X182372Y-86726
X182372Y-89226
X182372Y-91226
X182372Y-93726
T5
X160713Y-52705
X167963Y-52705
T6
X143594Y-62716
X143594Y-75856
X143594Y-83671
X143594Y-96811
X185082Y-62701
X185082Y-75841
X185082Y-83656
X185082Y-96796
T7
X139319Y-54737
X139319Y-104775
X189357Y-54737
X189357Y-104775
T0
M30
